%TF.GenerationSoftware,KiCad,Pcbnew,7.0.6*%
%TF.CreationDate,2023-07-19T18:20:16+09:00*%
%TF.ProjectId,TangNano6809MEM,54616e67-4e61-46e6-9f36-3830394d454d,rev?*%
%TF.SameCoordinates,Original*%
%TF.FileFunction,Copper,L2,Bot*%
%TF.FilePolarity,Positive*%
%FSLAX46Y46*%
G04 Gerber Fmt 4.6, Leading zero omitted, Abs format (unit mm)*
G04 Created by KiCad (PCBNEW 7.0.6) date 2023-07-19 18:20:16*
%MOMM*%
%LPD*%
G01*
G04 APERTURE LIST*
%ADD10C,0.300000*%
%TA.AperFunction,NonConductor*%
%ADD11C,0.300000*%
%TD*%
%TA.AperFunction,ComponentPad*%
%ADD12R,1.200000X1.200000*%
%TD*%
%TA.AperFunction,ComponentPad*%
%ADD13C,1.200000*%
%TD*%
%TA.AperFunction,ComponentPad*%
%ADD14R,1.700000X1.700000*%
%TD*%
%TA.AperFunction,ComponentPad*%
%ADD15O,1.700000X1.700000*%
%TD*%
%TA.AperFunction,ComponentPad*%
%ADD16C,1.600000*%
%TD*%
%TA.AperFunction,ComponentPad*%
%ADD17O,1.600000X1.600000*%
%TD*%
%TA.AperFunction,ComponentPad*%
%ADD18R,1.600000X1.600000*%
%TD*%
%TA.AperFunction,ViaPad*%
%ADD19C,0.800000*%
%TD*%
%TA.AperFunction,Conductor*%
%ADD20C,0.250000*%
%TD*%
%TA.AperFunction,Conductor*%
%ADD21C,0.500000*%
%TD*%
G04 APERTURE END LIST*
D10*
D11*
X41101489Y-69521828D02*
X41101489Y-68021828D01*
X41101489Y-68021828D02*
X40744346Y-68021828D01*
X40744346Y-68021828D02*
X40530060Y-68093257D01*
X40530060Y-68093257D02*
X40387203Y-68236114D01*
X40387203Y-68236114D02*
X40315774Y-68378971D01*
X40315774Y-68378971D02*
X40244346Y-68664685D01*
X40244346Y-68664685D02*
X40244346Y-68878971D01*
X40244346Y-68878971D02*
X40315774Y-69164685D01*
X40315774Y-69164685D02*
X40387203Y-69307542D01*
X40387203Y-69307542D02*
X40530060Y-69450400D01*
X40530060Y-69450400D02*
X40744346Y-69521828D01*
X40744346Y-69521828D02*
X41101489Y-69521828D01*
X39030060Y-69450400D02*
X39172917Y-69521828D01*
X39172917Y-69521828D02*
X39458632Y-69521828D01*
X39458632Y-69521828D02*
X39601489Y-69450400D01*
X39601489Y-69450400D02*
X39672917Y-69307542D01*
X39672917Y-69307542D02*
X39672917Y-68736114D01*
X39672917Y-68736114D02*
X39601489Y-68593257D01*
X39601489Y-68593257D02*
X39458632Y-68521828D01*
X39458632Y-68521828D02*
X39172917Y-68521828D01*
X39172917Y-68521828D02*
X39030060Y-68593257D01*
X39030060Y-68593257D02*
X38958632Y-68736114D01*
X38958632Y-68736114D02*
X38958632Y-68878971D01*
X38958632Y-68878971D02*
X39672917Y-69021828D01*
X38387203Y-69450400D02*
X38244346Y-69521828D01*
X38244346Y-69521828D02*
X37958632Y-69521828D01*
X37958632Y-69521828D02*
X37815775Y-69450400D01*
X37815775Y-69450400D02*
X37744346Y-69307542D01*
X37744346Y-69307542D02*
X37744346Y-69236114D01*
X37744346Y-69236114D02*
X37815775Y-69093257D01*
X37815775Y-69093257D02*
X37958632Y-69021828D01*
X37958632Y-69021828D02*
X38172918Y-69021828D01*
X38172918Y-69021828D02*
X38315775Y-68950400D01*
X38315775Y-68950400D02*
X38387203Y-68807542D01*
X38387203Y-68807542D02*
X38387203Y-68736114D01*
X38387203Y-68736114D02*
X38315775Y-68593257D01*
X38315775Y-68593257D02*
X38172918Y-68521828D01*
X38172918Y-68521828D02*
X37958632Y-68521828D01*
X37958632Y-68521828D02*
X37815775Y-68593257D01*
X37101489Y-69521828D02*
X37101489Y-68521828D01*
X37101489Y-68021828D02*
X37172917Y-68093257D01*
X37172917Y-68093257D02*
X37101489Y-68164685D01*
X37101489Y-68164685D02*
X37030060Y-68093257D01*
X37030060Y-68093257D02*
X37101489Y-68021828D01*
X37101489Y-68021828D02*
X37101489Y-68164685D01*
X35744346Y-68521828D02*
X35744346Y-69736114D01*
X35744346Y-69736114D02*
X35815774Y-69878971D01*
X35815774Y-69878971D02*
X35887203Y-69950400D01*
X35887203Y-69950400D02*
X36030060Y-70021828D01*
X36030060Y-70021828D02*
X36244346Y-70021828D01*
X36244346Y-70021828D02*
X36387203Y-69950400D01*
X35744346Y-69450400D02*
X35887203Y-69521828D01*
X35887203Y-69521828D02*
X36172917Y-69521828D01*
X36172917Y-69521828D02*
X36315774Y-69450400D01*
X36315774Y-69450400D02*
X36387203Y-69378971D01*
X36387203Y-69378971D02*
X36458631Y-69236114D01*
X36458631Y-69236114D02*
X36458631Y-68807542D01*
X36458631Y-68807542D02*
X36387203Y-68664685D01*
X36387203Y-68664685D02*
X36315774Y-68593257D01*
X36315774Y-68593257D02*
X36172917Y-68521828D01*
X36172917Y-68521828D02*
X35887203Y-68521828D01*
X35887203Y-68521828D02*
X35744346Y-68593257D01*
X35030060Y-68521828D02*
X35030060Y-69521828D01*
X35030060Y-68664685D02*
X34958631Y-68593257D01*
X34958631Y-68593257D02*
X34815774Y-68521828D01*
X34815774Y-68521828D02*
X34601488Y-68521828D01*
X34601488Y-68521828D02*
X34458631Y-68593257D01*
X34458631Y-68593257D02*
X34387203Y-68736114D01*
X34387203Y-68736114D02*
X34387203Y-69521828D01*
X33101488Y-69450400D02*
X33244345Y-69521828D01*
X33244345Y-69521828D02*
X33530060Y-69521828D01*
X33530060Y-69521828D02*
X33672917Y-69450400D01*
X33672917Y-69450400D02*
X33744345Y-69307542D01*
X33744345Y-69307542D02*
X33744345Y-68736114D01*
X33744345Y-68736114D02*
X33672917Y-68593257D01*
X33672917Y-68593257D02*
X33530060Y-68521828D01*
X33530060Y-68521828D02*
X33244345Y-68521828D01*
X33244345Y-68521828D02*
X33101488Y-68593257D01*
X33101488Y-68593257D02*
X33030060Y-68736114D01*
X33030060Y-68736114D02*
X33030060Y-68878971D01*
X33030060Y-68878971D02*
X33744345Y-69021828D01*
X31744346Y-69521828D02*
X31744346Y-68021828D01*
X31744346Y-69450400D02*
X31887203Y-69521828D01*
X31887203Y-69521828D02*
X32172917Y-69521828D01*
X32172917Y-69521828D02*
X32315774Y-69450400D01*
X32315774Y-69450400D02*
X32387203Y-69378971D01*
X32387203Y-69378971D02*
X32458631Y-69236114D01*
X32458631Y-69236114D02*
X32458631Y-68807542D01*
X32458631Y-68807542D02*
X32387203Y-68664685D01*
X32387203Y-68664685D02*
X32315774Y-68593257D01*
X32315774Y-68593257D02*
X32172917Y-68521828D01*
X32172917Y-68521828D02*
X31887203Y-68521828D01*
X31887203Y-68521828D02*
X31744346Y-68593257D01*
X29887203Y-69521828D02*
X29887203Y-68021828D01*
X29887203Y-68593257D02*
X29744346Y-68521828D01*
X29744346Y-68521828D02*
X29458631Y-68521828D01*
X29458631Y-68521828D02*
X29315774Y-68593257D01*
X29315774Y-68593257D02*
X29244346Y-68664685D01*
X29244346Y-68664685D02*
X29172917Y-68807542D01*
X29172917Y-68807542D02*
X29172917Y-69236114D01*
X29172917Y-69236114D02*
X29244346Y-69378971D01*
X29244346Y-69378971D02*
X29315774Y-69450400D01*
X29315774Y-69450400D02*
X29458631Y-69521828D01*
X29458631Y-69521828D02*
X29744346Y-69521828D01*
X29744346Y-69521828D02*
X29887203Y-69450400D01*
X28672917Y-68521828D02*
X28315774Y-69521828D01*
X27958631Y-68521828D02*
X28315774Y-69521828D01*
X28315774Y-69521828D02*
X28458631Y-69878971D01*
X28458631Y-69878971D02*
X28530060Y-69950400D01*
X28530060Y-69950400D02*
X28672917Y-70021828D01*
X25387203Y-69521828D02*
X25887203Y-68807542D01*
X26244346Y-69521828D02*
X26244346Y-68021828D01*
X26244346Y-68021828D02*
X25672917Y-68021828D01*
X25672917Y-68021828D02*
X25530060Y-68093257D01*
X25530060Y-68093257D02*
X25458631Y-68164685D01*
X25458631Y-68164685D02*
X25387203Y-68307542D01*
X25387203Y-68307542D02*
X25387203Y-68521828D01*
X25387203Y-68521828D02*
X25458631Y-68664685D01*
X25458631Y-68664685D02*
X25530060Y-68736114D01*
X25530060Y-68736114D02*
X25672917Y-68807542D01*
X25672917Y-68807542D02*
X26244346Y-68807542D01*
X24887203Y-68521828D02*
X24530060Y-69521828D01*
X24172917Y-68521828D02*
X24530060Y-69521828D01*
X24530060Y-69521828D02*
X24672917Y-69878971D01*
X24672917Y-69878971D02*
X24744346Y-69950400D01*
X24744346Y-69950400D02*
X24887203Y-70021828D01*
X23387203Y-69521828D02*
X23530060Y-69450400D01*
X23530060Y-69450400D02*
X23601489Y-69378971D01*
X23601489Y-69378971D02*
X23672917Y-69236114D01*
X23672917Y-69236114D02*
X23672917Y-68807542D01*
X23672917Y-68807542D02*
X23601489Y-68664685D01*
X23601489Y-68664685D02*
X23530060Y-68593257D01*
X23530060Y-68593257D02*
X23387203Y-68521828D01*
X23387203Y-68521828D02*
X23172917Y-68521828D01*
X23172917Y-68521828D02*
X23030060Y-68593257D01*
X23030060Y-68593257D02*
X22958632Y-68664685D01*
X22958632Y-68664685D02*
X22887203Y-68807542D01*
X22887203Y-68807542D02*
X22887203Y-69236114D01*
X22887203Y-69236114D02*
X22958632Y-69378971D01*
X22958632Y-69378971D02*
X23030060Y-69450400D01*
X23030060Y-69450400D02*
X23172917Y-69521828D01*
X23172917Y-69521828D02*
X23387203Y-69521828D01*
X21101489Y-69521828D02*
X21101489Y-68021828D01*
X21101489Y-68021828D02*
X20601489Y-69093257D01*
X20601489Y-69093257D02*
X20101489Y-68021828D01*
X20101489Y-68021828D02*
X20101489Y-69521828D01*
X18744346Y-68521828D02*
X18744346Y-69521828D01*
X19387203Y-68521828D02*
X19387203Y-69307542D01*
X19387203Y-69307542D02*
X19315774Y-69450400D01*
X19315774Y-69450400D02*
X19172917Y-69521828D01*
X19172917Y-69521828D02*
X18958631Y-69521828D01*
X18958631Y-69521828D02*
X18815774Y-69450400D01*
X18815774Y-69450400D02*
X18744346Y-69378971D01*
X18030060Y-69521828D02*
X18030060Y-68021828D01*
X17887203Y-68950400D02*
X17458631Y-69521828D01*
X17458631Y-68521828D02*
X18030060Y-69093257D01*
X16172917Y-69521828D02*
X16172917Y-68736114D01*
X16172917Y-68736114D02*
X16244345Y-68593257D01*
X16244345Y-68593257D02*
X16387202Y-68521828D01*
X16387202Y-68521828D02*
X16672917Y-68521828D01*
X16672917Y-68521828D02*
X16815774Y-68593257D01*
X16172917Y-69450400D02*
X16315774Y-69521828D01*
X16315774Y-69521828D02*
X16672917Y-69521828D01*
X16672917Y-69521828D02*
X16815774Y-69450400D01*
X16815774Y-69450400D02*
X16887202Y-69307542D01*
X16887202Y-69307542D02*
X16887202Y-69164685D01*
X16887202Y-69164685D02*
X16815774Y-69021828D01*
X16815774Y-69021828D02*
X16672917Y-68950400D01*
X16672917Y-68950400D02*
X16315774Y-68950400D01*
X16315774Y-68950400D02*
X16172917Y-68878971D01*
X15458631Y-69521828D02*
X15458631Y-68521828D01*
X15458631Y-68021828D02*
X15530059Y-68093257D01*
X15530059Y-68093257D02*
X15458631Y-68164685D01*
X15458631Y-68164685D02*
X15387202Y-68093257D01*
X15387202Y-68093257D02*
X15458631Y-68021828D01*
X15458631Y-68021828D02*
X15458631Y-68164685D01*
X41101489Y-71936828D02*
X41101489Y-70436828D01*
X40458632Y-71936828D02*
X40458632Y-71151114D01*
X40458632Y-71151114D02*
X40530060Y-71008257D01*
X40530060Y-71008257D02*
X40672917Y-70936828D01*
X40672917Y-70936828D02*
X40887203Y-70936828D01*
X40887203Y-70936828D02*
X41030060Y-71008257D01*
X41030060Y-71008257D02*
X41101489Y-71079685D01*
X39958631Y-70936828D02*
X39387203Y-70936828D01*
X39744346Y-70436828D02*
X39744346Y-71722542D01*
X39744346Y-71722542D02*
X39672917Y-71865400D01*
X39672917Y-71865400D02*
X39530060Y-71936828D01*
X39530060Y-71936828D02*
X39387203Y-71936828D01*
X39101488Y-70936828D02*
X38530060Y-70936828D01*
X38887203Y-70436828D02*
X38887203Y-71722542D01*
X38887203Y-71722542D02*
X38815774Y-71865400D01*
X38815774Y-71865400D02*
X38672917Y-71936828D01*
X38672917Y-71936828D02*
X38530060Y-71936828D01*
X38030060Y-70936828D02*
X38030060Y-72436828D01*
X38030060Y-71008257D02*
X37887203Y-70936828D01*
X37887203Y-70936828D02*
X37601488Y-70936828D01*
X37601488Y-70936828D02*
X37458631Y-71008257D01*
X37458631Y-71008257D02*
X37387203Y-71079685D01*
X37387203Y-71079685D02*
X37315774Y-71222542D01*
X37315774Y-71222542D02*
X37315774Y-71651114D01*
X37315774Y-71651114D02*
X37387203Y-71793971D01*
X37387203Y-71793971D02*
X37458631Y-71865400D01*
X37458631Y-71865400D02*
X37601488Y-71936828D01*
X37601488Y-71936828D02*
X37887203Y-71936828D01*
X37887203Y-71936828D02*
X38030060Y-71865400D01*
X36744345Y-71865400D02*
X36601488Y-71936828D01*
X36601488Y-71936828D02*
X36315774Y-71936828D01*
X36315774Y-71936828D02*
X36172917Y-71865400D01*
X36172917Y-71865400D02*
X36101488Y-71722542D01*
X36101488Y-71722542D02*
X36101488Y-71651114D01*
X36101488Y-71651114D02*
X36172917Y-71508257D01*
X36172917Y-71508257D02*
X36315774Y-71436828D01*
X36315774Y-71436828D02*
X36530060Y-71436828D01*
X36530060Y-71436828D02*
X36672917Y-71365400D01*
X36672917Y-71365400D02*
X36744345Y-71222542D01*
X36744345Y-71222542D02*
X36744345Y-71151114D01*
X36744345Y-71151114D02*
X36672917Y-71008257D01*
X36672917Y-71008257D02*
X36530060Y-70936828D01*
X36530060Y-70936828D02*
X36315774Y-70936828D01*
X36315774Y-70936828D02*
X36172917Y-71008257D01*
X35458631Y-71793971D02*
X35387202Y-71865400D01*
X35387202Y-71865400D02*
X35458631Y-71936828D01*
X35458631Y-71936828D02*
X35530059Y-71865400D01*
X35530059Y-71865400D02*
X35458631Y-71793971D01*
X35458631Y-71793971D02*
X35458631Y-71936828D01*
X35458631Y-71008257D02*
X35387202Y-71079685D01*
X35387202Y-71079685D02*
X35458631Y-71151114D01*
X35458631Y-71151114D02*
X35530059Y-71079685D01*
X35530059Y-71079685D02*
X35458631Y-71008257D01*
X35458631Y-71008257D02*
X35458631Y-71151114D01*
X33672916Y-70365400D02*
X34958630Y-72293971D01*
X32101487Y-70365400D02*
X33387201Y-72293971D01*
X30958630Y-70936828D02*
X30958630Y-72151114D01*
X30958630Y-72151114D02*
X31030058Y-72293971D01*
X31030058Y-72293971D02*
X31101487Y-72365400D01*
X31101487Y-72365400D02*
X31244344Y-72436828D01*
X31244344Y-72436828D02*
X31458630Y-72436828D01*
X31458630Y-72436828D02*
X31601487Y-72365400D01*
X30958630Y-71865400D02*
X31101487Y-71936828D01*
X31101487Y-71936828D02*
X31387201Y-71936828D01*
X31387201Y-71936828D02*
X31530058Y-71865400D01*
X31530058Y-71865400D02*
X31601487Y-71793971D01*
X31601487Y-71793971D02*
X31672915Y-71651114D01*
X31672915Y-71651114D02*
X31672915Y-71222542D01*
X31672915Y-71222542D02*
X31601487Y-71079685D01*
X31601487Y-71079685D02*
X31530058Y-71008257D01*
X31530058Y-71008257D02*
X31387201Y-70936828D01*
X31387201Y-70936828D02*
X31101487Y-70936828D01*
X31101487Y-70936828D02*
X30958630Y-71008257D01*
X30244344Y-71936828D02*
X30244344Y-70936828D01*
X30244344Y-70436828D02*
X30315772Y-70508257D01*
X30315772Y-70508257D02*
X30244344Y-70579685D01*
X30244344Y-70579685D02*
X30172915Y-70508257D01*
X30172915Y-70508257D02*
X30244344Y-70436828D01*
X30244344Y-70436828D02*
X30244344Y-70579685D01*
X29744343Y-70936828D02*
X29172915Y-70936828D01*
X29530058Y-70436828D02*
X29530058Y-71722542D01*
X29530058Y-71722542D02*
X29458629Y-71865400D01*
X29458629Y-71865400D02*
X29315772Y-71936828D01*
X29315772Y-71936828D02*
X29172915Y-71936828D01*
X28672915Y-71936828D02*
X28672915Y-70436828D01*
X28030058Y-71936828D02*
X28030058Y-71151114D01*
X28030058Y-71151114D02*
X28101486Y-71008257D01*
X28101486Y-71008257D02*
X28244343Y-70936828D01*
X28244343Y-70936828D02*
X28458629Y-70936828D01*
X28458629Y-70936828D02*
X28601486Y-71008257D01*
X28601486Y-71008257D02*
X28672915Y-71079685D01*
X26672915Y-70936828D02*
X26672915Y-71936828D01*
X27315772Y-70936828D02*
X27315772Y-71722542D01*
X27315772Y-71722542D02*
X27244343Y-71865400D01*
X27244343Y-71865400D02*
X27101486Y-71936828D01*
X27101486Y-71936828D02*
X26887200Y-71936828D01*
X26887200Y-71936828D02*
X26744343Y-71865400D01*
X26744343Y-71865400D02*
X26672915Y-71793971D01*
X25958629Y-71936828D02*
X25958629Y-70436828D01*
X25958629Y-71008257D02*
X25815772Y-70936828D01*
X25815772Y-70936828D02*
X25530057Y-70936828D01*
X25530057Y-70936828D02*
X25387200Y-71008257D01*
X25387200Y-71008257D02*
X25315772Y-71079685D01*
X25315772Y-71079685D02*
X25244343Y-71222542D01*
X25244343Y-71222542D02*
X25244343Y-71651114D01*
X25244343Y-71651114D02*
X25315772Y-71793971D01*
X25315772Y-71793971D02*
X25387200Y-71865400D01*
X25387200Y-71865400D02*
X25530057Y-71936828D01*
X25530057Y-71936828D02*
X25815772Y-71936828D01*
X25815772Y-71936828D02*
X25958629Y-71865400D01*
X24601486Y-71793971D02*
X24530057Y-71865400D01*
X24530057Y-71865400D02*
X24601486Y-71936828D01*
X24601486Y-71936828D02*
X24672914Y-71865400D01*
X24672914Y-71865400D02*
X24601486Y-71793971D01*
X24601486Y-71793971D02*
X24601486Y-71936828D01*
X23244343Y-71865400D02*
X23387200Y-71936828D01*
X23387200Y-71936828D02*
X23672914Y-71936828D01*
X23672914Y-71936828D02*
X23815771Y-71865400D01*
X23815771Y-71865400D02*
X23887200Y-71793971D01*
X23887200Y-71793971D02*
X23958628Y-71651114D01*
X23958628Y-71651114D02*
X23958628Y-71222542D01*
X23958628Y-71222542D02*
X23887200Y-71079685D01*
X23887200Y-71079685D02*
X23815771Y-71008257D01*
X23815771Y-71008257D02*
X23672914Y-70936828D01*
X23672914Y-70936828D02*
X23387200Y-70936828D01*
X23387200Y-70936828D02*
X23244343Y-71008257D01*
X22387200Y-71936828D02*
X22530057Y-71865400D01*
X22530057Y-71865400D02*
X22601486Y-71793971D01*
X22601486Y-71793971D02*
X22672914Y-71651114D01*
X22672914Y-71651114D02*
X22672914Y-71222542D01*
X22672914Y-71222542D02*
X22601486Y-71079685D01*
X22601486Y-71079685D02*
X22530057Y-71008257D01*
X22530057Y-71008257D02*
X22387200Y-70936828D01*
X22387200Y-70936828D02*
X22172914Y-70936828D01*
X22172914Y-70936828D02*
X22030057Y-71008257D01*
X22030057Y-71008257D02*
X21958629Y-71079685D01*
X21958629Y-71079685D02*
X21887200Y-71222542D01*
X21887200Y-71222542D02*
X21887200Y-71651114D01*
X21887200Y-71651114D02*
X21958629Y-71793971D01*
X21958629Y-71793971D02*
X22030057Y-71865400D01*
X22030057Y-71865400D02*
X22172914Y-71936828D01*
X22172914Y-71936828D02*
X22387200Y-71936828D01*
X21244343Y-71936828D02*
X21244343Y-70936828D01*
X21244343Y-71079685D02*
X21172914Y-71008257D01*
X21172914Y-71008257D02*
X21030057Y-70936828D01*
X21030057Y-70936828D02*
X20815771Y-70936828D01*
X20815771Y-70936828D02*
X20672914Y-71008257D01*
X20672914Y-71008257D02*
X20601486Y-71151114D01*
X20601486Y-71151114D02*
X20601486Y-71936828D01*
X20601486Y-71151114D02*
X20530057Y-71008257D01*
X20530057Y-71008257D02*
X20387200Y-70936828D01*
X20387200Y-70936828D02*
X20172914Y-70936828D01*
X20172914Y-70936828D02*
X20030057Y-71008257D01*
X20030057Y-71008257D02*
X19958628Y-71151114D01*
X19958628Y-71151114D02*
X19958628Y-71936828D01*
X18172914Y-70365400D02*
X19458628Y-72293971D01*
X17672914Y-71936828D02*
X17672914Y-70936828D01*
X17672914Y-71222542D02*
X17601485Y-71079685D01*
X17601485Y-71079685D02*
X17530057Y-71008257D01*
X17530057Y-71008257D02*
X17387199Y-70936828D01*
X17387199Y-70936828D02*
X17244342Y-70936828D01*
X16887200Y-70936828D02*
X16530057Y-71936828D01*
X16172914Y-70936828D02*
X16530057Y-71936828D01*
X16530057Y-71936828D02*
X16672914Y-72293971D01*
X16672914Y-72293971D02*
X16744343Y-72365400D01*
X16744343Y-72365400D02*
X16887200Y-72436828D01*
X15387200Y-71936828D02*
X15530057Y-71865400D01*
X15530057Y-71865400D02*
X15601486Y-71793971D01*
X15601486Y-71793971D02*
X15672914Y-71651114D01*
X15672914Y-71651114D02*
X15672914Y-71222542D01*
X15672914Y-71222542D02*
X15601486Y-71079685D01*
X15601486Y-71079685D02*
X15530057Y-71008257D01*
X15530057Y-71008257D02*
X15387200Y-70936828D01*
X15387200Y-70936828D02*
X15172914Y-70936828D01*
X15172914Y-70936828D02*
X15030057Y-71008257D01*
X15030057Y-71008257D02*
X14958629Y-71079685D01*
X14958629Y-71079685D02*
X14887200Y-71222542D01*
X14887200Y-71222542D02*
X14887200Y-71651114D01*
X14887200Y-71651114D02*
X14958629Y-71793971D01*
X14958629Y-71793971D02*
X15030057Y-71865400D01*
X15030057Y-71865400D02*
X15172914Y-71936828D01*
X15172914Y-71936828D02*
X15387200Y-71936828D01*
X14244343Y-71936828D02*
X14244343Y-70936828D01*
X14244343Y-71079685D02*
X14172914Y-71008257D01*
X14172914Y-71008257D02*
X14030057Y-70936828D01*
X14030057Y-70936828D02*
X13815771Y-70936828D01*
X13815771Y-70936828D02*
X13672914Y-71008257D01*
X13672914Y-71008257D02*
X13601486Y-71151114D01*
X13601486Y-71151114D02*
X13601486Y-71936828D01*
X13601486Y-71151114D02*
X13530057Y-71008257D01*
X13530057Y-71008257D02*
X13387200Y-70936828D01*
X13387200Y-70936828D02*
X13172914Y-70936828D01*
X13172914Y-70936828D02*
X13030057Y-71008257D01*
X13030057Y-71008257D02*
X12958628Y-71151114D01*
X12958628Y-71151114D02*
X12958628Y-71936828D01*
X11601486Y-70936828D02*
X11601486Y-71936828D01*
X12244343Y-70936828D02*
X12244343Y-71722542D01*
X12244343Y-71722542D02*
X12172914Y-71865400D01*
X12172914Y-71865400D02*
X12030057Y-71936828D01*
X12030057Y-71936828D02*
X11815771Y-71936828D01*
X11815771Y-71936828D02*
X11672914Y-71865400D01*
X11672914Y-71865400D02*
X11601486Y-71793971D01*
X10887200Y-71936828D02*
X10887200Y-70436828D01*
X10744343Y-71365400D02*
X10315771Y-71936828D01*
X10315771Y-70936828D02*
X10887200Y-71508257D01*
D12*
%TO.P,C2,1*%
%TO.N,VCC*%
X24130000Y-34060000D03*
D13*
%TO.P,C2,2*%
%TO.N,GND*%
X24130000Y-35560000D03*
%TD*%
D14*
%TO.P,J3,1,Pin_1*%
%TO.N,DBG*%
X5080000Y-43180000D03*
D15*
%TO.P,J3,2,Pin_2*%
%TO.N,GND*%
X7620000Y-43180000D03*
%TD*%
D16*
%TO.P,R3,1*%
%TO.N,VCC*%
X20320000Y-38100000D03*
D17*
%TO.P,R3,2*%
%TO.N,IRQ_n*%
X12700000Y-38100000D03*
%TD*%
D18*
%TO.P,J1,1,Pin_1*%
%TO.N,DBG*%
X12700000Y-66040000D03*
D17*
%TO.P,J1,2,Pin_2*%
%TO.N,RW_n*%
X15240000Y-66040000D03*
%TO.P,J1,3,Pin_3*%
%TO.N,RESET_n*%
X17780000Y-66040000D03*
%TO.P,J1,4,Pin_4*%
%TO.N,A0*%
X20320000Y-66040000D03*
%TO.P,J1,5,Pin_5*%
%TO.N,A1*%
X22860000Y-66040000D03*
%TO.P,J1,6,Pin_6*%
%TO.N,A2*%
X25400000Y-66040000D03*
%TO.P,J1,7,Pin_7*%
%TO.N,A3*%
X27940000Y-66040000D03*
%TO.P,J1,8,Pin_8*%
%TO.N,A4*%
X30480000Y-66040000D03*
%TO.P,J1,9,Pin_9*%
%TO.N,A5*%
X33020000Y-66040000D03*
%TO.P,J1,10,Pin_10*%
%TO.N,A6*%
X35560000Y-66040000D03*
%TO.P,J1,11,Pin_11*%
%TO.N,A7*%
X38100000Y-66040000D03*
%TO.P,J1,12,Pin_12*%
%TO.N,A8*%
X40640000Y-66040000D03*
%TO.P,J1,13,Pin_13*%
%TO.N,A9*%
X43180000Y-66040000D03*
%TO.P,J1,14,Pin_14*%
%TO.N,A10*%
X45720000Y-66040000D03*
%TO.P,J1,15,Pin_15*%
%TO.N,PIN17*%
X48260000Y-66040000D03*
%TO.P,J1,16,Pin_16*%
%TO.N,PIN20*%
X50800000Y-66040000D03*
%TO.P,J1,17,Pin_17*%
%TO.N,PIN19*%
X53340000Y-66040000D03*
%TO.P,J1,18,Pin_18*%
%TO.N,PIN18*%
X55880000Y-66040000D03*
%TO.P,J1,19,Pin_19*%
%TO.N,unconnected-(J1-Pin_19-Pad19)*%
X58420000Y-66040000D03*
%TO.P,J1,20,Pin_20*%
%TO.N,GND*%
X60960000Y-66040000D03*
%TO.P,J1,21,Pin_21*%
%TO.N,A12*%
X60960000Y-50800000D03*
%TO.P,J1,22,Pin_22*%
%TO.N,A11*%
X58420000Y-50800000D03*
%TO.P,J1,23,Pin_23*%
%TO.N,A13*%
X55880000Y-50800000D03*
%TO.P,J1,24,Pin_24*%
%TO.N,A14*%
X53340000Y-50800000D03*
%TO.P,J1,25,Pin_25*%
%TO.N,unconnected-(J1-Pin_25-Pad25)*%
X50800000Y-50800000D03*
%TO.P,J1,26,Pin_26*%
%TO.N,GND*%
X48260000Y-50800000D03*
%TO.P,J1,27,Pin_27*%
%TO.N,LED_RGB*%
X45720000Y-50800000D03*
%TO.P,J1,28,Pin_28*%
%TO.N,A15*%
X43180000Y-50800000D03*
%TO.P,J1,29,Pin_29*%
%TO.N,D7*%
X40640000Y-50800000D03*
%TO.P,J1,30,Pin_30*%
%TO.N,D6*%
X38100000Y-50800000D03*
%TO.P,J1,31,Pin_31*%
%TO.N,D5*%
X35560000Y-50800000D03*
%TO.P,J1,32,Pin_32*%
%TO.N,D4*%
X33020000Y-50800000D03*
%TO.P,J1,33,Pin_33*%
%TO.N,D3*%
X30480000Y-50800000D03*
%TO.P,J1,34,Pin_34*%
%TO.N,D2*%
X27940000Y-50800000D03*
%TO.P,J1,35,Pin_35*%
%TO.N,D1*%
X25400000Y-50800000D03*
%TO.P,J1,36,Pin_36*%
%TO.N,D0*%
X22860000Y-50800000D03*
%TO.P,J1,37,Pin_37*%
%TO.N,E*%
X20320000Y-50800000D03*
%TO.P,J1,38,Pin_38*%
%TO.N,CLK*%
X17780000Y-50800000D03*
%TO.P,J1,39,Pin_39*%
%TO.N,GND*%
X15240000Y-50800000D03*
%TO.P,J1,40,Pin_40*%
%TO.N,VCC*%
X12700000Y-50800000D03*
%TD*%
D16*
%TO.P,R1,1*%
%TO.N,VCC*%
X2540000Y-12700000D03*
D17*
%TO.P,R1,2*%
%TO.N,RESET_n*%
X10160000Y-12700000D03*
%TD*%
D14*
%TO.P,J8,1,Pin_1*%
%TO.N,LED_RGB*%
X5080000Y-40640000D03*
D15*
%TO.P,J8,2,Pin_2*%
%TO.N,GND*%
X7620000Y-40640000D03*
%TD*%
D16*
%TO.P,R4,1*%
%TO.N,VCC*%
X20320000Y-35560000D03*
D17*
%TO.P,R4,2*%
%TO.N,FIRQ_n*%
X12700000Y-35560000D03*
%TD*%
D16*
%TO.P,R2,1*%
%TO.N,VCC*%
X20320000Y-40640000D03*
D17*
%TO.P,R2,2*%
%TO.N,NMI_n*%
X12700000Y-40640000D03*
%TD*%
D16*
%TO.P,R7,1*%
%TO.N,VCC*%
X2540000Y-15240000D03*
D17*
%TO.P,R7,2*%
%TO.N,MRDY*%
X10160000Y-15240000D03*
%TD*%
D14*
%TO.P,J4,1,Pin_1*%
%TO.N,PIN17*%
X5080000Y-38100000D03*
D15*
%TO.P,J4,2,Pin_2*%
%TO.N,HALT_n*%
X7620000Y-38100000D03*
%TD*%
D14*
%TO.P,J5,1,Pin_1*%
%TO.N,PIN20*%
X5080000Y-35560000D03*
D15*
%TO.P,J5,2,Pin_2*%
%TO.N,NMI_n*%
X7620000Y-35560000D03*
%TD*%
D16*
%TO.P,R5,1*%
%TO.N,VCC*%
X2540000Y-17780000D03*
D17*
%TO.P,R5,2*%
%TO.N,DMA_BREQ_n*%
X10160000Y-17780000D03*
%TD*%
D16*
%TO.P,C1,1*%
%TO.N,VCC*%
X27940000Y-33020000D03*
%TO.P,C1,2*%
%TO.N,GND*%
X27940000Y-38020000D03*
%TD*%
D18*
%TO.P,U1,1,VSS*%
%TO.N,GND*%
X12700000Y-25400000D03*
D17*
%TO.P,U1,2,~{NMI}*%
%TO.N,NMI_n*%
X15240000Y-25400000D03*
%TO.P,U1,3,~{IRQ}*%
%TO.N,IRQ_n*%
X17780000Y-25400000D03*
%TO.P,U1,4,~{FIRQ}*%
%TO.N,FIRQ_n*%
X20320000Y-25400000D03*
%TO.P,U1,5,BS*%
%TO.N,BS*%
X22860000Y-25400000D03*
%TO.P,U1,6,BA*%
%TO.N,BA*%
X25400000Y-25400000D03*
%TO.P,U1,7,VCC*%
%TO.N,VCC*%
X27940000Y-25400000D03*
%TO.P,U1,8,A0*%
%TO.N,A0*%
X30480000Y-25400000D03*
%TO.P,U1,9,A1*%
%TO.N,A1*%
X33020000Y-25400000D03*
%TO.P,U1,10,A2*%
%TO.N,A2*%
X35560000Y-25400000D03*
%TO.P,U1,11,A3*%
%TO.N,A3*%
X38100000Y-25400000D03*
%TO.P,U1,12,A4*%
%TO.N,A4*%
X40640000Y-25400000D03*
%TO.P,U1,13,A5*%
%TO.N,A5*%
X43180000Y-25400000D03*
%TO.P,U1,14,A6*%
%TO.N,A6*%
X45720000Y-25400000D03*
%TO.P,U1,15,A7*%
%TO.N,A7*%
X48260000Y-25400000D03*
%TO.P,U1,16,A8*%
%TO.N,A8*%
X50800000Y-25400000D03*
%TO.P,U1,17,A9*%
%TO.N,A9*%
X53340000Y-25400000D03*
%TO.P,U1,18,A10*%
%TO.N,A10*%
X55880000Y-25400000D03*
%TO.P,U1,19,A11*%
%TO.N,A11*%
X58420000Y-25400000D03*
%TO.P,U1,20,A12*%
%TO.N,A12*%
X60960000Y-25400000D03*
%TO.P,U1,21,A13*%
%TO.N,A13*%
X60960000Y-10160000D03*
%TO.P,U1,22,A14*%
%TO.N,A14*%
X58420000Y-10160000D03*
%TO.P,U1,23,A15*%
%TO.N,A15*%
X55880000Y-10160000D03*
%TO.P,U1,24,D7*%
%TO.N,D7*%
X53340000Y-10160000D03*
%TO.P,U1,25,D6*%
%TO.N,D6*%
X50800000Y-10160000D03*
%TO.P,U1,26,D5*%
%TO.N,D5*%
X48260000Y-10160000D03*
%TO.P,U1,27,D4*%
%TO.N,D4*%
X45720000Y-10160000D03*
%TO.P,U1,28,D3*%
%TO.N,D3*%
X43180000Y-10160000D03*
%TO.P,U1,29,D2*%
%TO.N,D2*%
X40640000Y-10160000D03*
%TO.P,U1,30,D1*%
%TO.N,D1*%
X38100000Y-10160000D03*
%TO.P,U1,31,D0*%
%TO.N,D0*%
X35560000Y-10160000D03*
%TO.P,U1,32,R/~{W}*%
%TO.N,RW_n*%
X33020000Y-10160000D03*
%TO.P,U1,33,~{DMA/BREQ}*%
%TO.N,DMA_BREQ_n*%
X30480000Y-10160000D03*
%TO.P,U1,34,E*%
%TO.N,E*%
X27940000Y-10160000D03*
%TO.P,U1,35,Q*%
%TO.N,Q*%
X25400000Y-10160000D03*
%TO.P,U1,36,MRDY*%
%TO.N,MRDY*%
X22860000Y-10160000D03*
%TO.P,U1,37,~{RESET}*%
%TO.N,RESET_n*%
X20320000Y-10160000D03*
%TO.P,U1,38,EXTAL*%
%TO.N,CLK*%
X17780000Y-10160000D03*
%TO.P,U1,39,XTAL*%
%TO.N,GND*%
X15240000Y-10160000D03*
%TO.P,U1,40,~{HALT}*%
%TO.N,HALT_n*%
X12700000Y-10160000D03*
%TD*%
D18*
%TO.P,J2,1,Pin_1*%
%TO.N,GND*%
X12700000Y-27940000D03*
D17*
%TO.P,J2,2,Pin_2*%
%TO.N,NMI_n*%
X15240000Y-27940000D03*
%TO.P,J2,3,Pin_3*%
%TO.N,IRQ_n*%
X17780000Y-27940000D03*
%TO.P,J2,4,Pin_4*%
%TO.N,FIRQ_n*%
X20320000Y-27940000D03*
%TO.P,J2,5,Pin_5*%
%TO.N,BS*%
X22860000Y-27940000D03*
%TO.P,J2,6,Pin_6*%
%TO.N,BA*%
X25400000Y-27940000D03*
%TO.P,J2,7,Pin_7*%
%TO.N,VCC*%
X27940000Y-27940000D03*
%TO.P,J2,8,Pin_8*%
%TO.N,A0*%
X30480000Y-27940000D03*
%TO.P,J2,9,Pin_9*%
%TO.N,A1*%
X33020000Y-27940000D03*
%TO.P,J2,10,Pin_10*%
%TO.N,A2*%
X35560000Y-27940000D03*
%TO.P,J2,11,Pin_11*%
%TO.N,A3*%
X38100000Y-27940000D03*
%TO.P,J2,12,Pin_12*%
%TO.N,A4*%
X40640000Y-27940000D03*
%TO.P,J2,13,Pin_13*%
%TO.N,A5*%
X43180000Y-27940000D03*
%TO.P,J2,14,Pin_14*%
%TO.N,A6*%
X45720000Y-27940000D03*
%TO.P,J2,15,Pin_15*%
%TO.N,A7*%
X48260000Y-27940000D03*
%TO.P,J2,16,Pin_16*%
%TO.N,A8*%
X50800000Y-27940000D03*
%TO.P,J2,17,Pin_17*%
%TO.N,A9*%
X53340000Y-27940000D03*
%TO.P,J2,18,Pin_18*%
%TO.N,A10*%
X55880000Y-27940000D03*
%TO.P,J2,19,Pin_19*%
%TO.N,A11*%
X58420000Y-27940000D03*
%TO.P,J2,20,Pin_20*%
%TO.N,A12*%
X60960000Y-27940000D03*
%TO.P,J2,21,Pin_21*%
%TO.N,A13*%
X60960000Y-7620000D03*
%TO.P,J2,22,Pin_22*%
%TO.N,A14*%
X58420000Y-7620000D03*
%TO.P,J2,23,Pin_23*%
%TO.N,A15*%
X55880000Y-7620000D03*
%TO.P,J2,24,Pin_24*%
%TO.N,D7*%
X53340000Y-7620000D03*
%TO.P,J2,25,Pin_25*%
%TO.N,D6*%
X50800000Y-7620000D03*
%TO.P,J2,26,Pin_26*%
%TO.N,D5*%
X48260000Y-7620000D03*
%TO.P,J2,27,Pin_27*%
%TO.N,D4*%
X45720000Y-7620000D03*
%TO.P,J2,28,Pin_28*%
%TO.N,D3*%
X43180000Y-7620000D03*
%TO.P,J2,29,Pin_29*%
%TO.N,D2*%
X40640000Y-7620000D03*
%TO.P,J2,30,Pin_30*%
%TO.N,D1*%
X38100000Y-7620000D03*
%TO.P,J2,31,Pin_31*%
%TO.N,D0*%
X35560000Y-7620000D03*
%TO.P,J2,32,Pin_32*%
%TO.N,RW_n*%
X33020000Y-7620000D03*
%TO.P,J2,33,Pin_33*%
%TO.N,DMA_BREQ_n*%
X30480000Y-7620000D03*
%TO.P,J2,34,Pin_34*%
%TO.N,E*%
X27940000Y-7620000D03*
%TO.P,J2,35,Pin_35*%
%TO.N,Q*%
X25400000Y-7620000D03*
%TO.P,J2,36,Pin_36*%
%TO.N,MRDY*%
X22860000Y-7620000D03*
%TO.P,J2,37,Pin_37*%
%TO.N,RESET_n*%
X20320000Y-7620000D03*
%TO.P,J2,38,Pin_38*%
%TO.N,CLK*%
X17780000Y-7620000D03*
%TO.P,J2,39,Pin_39*%
%TO.N,GND*%
X15240000Y-7620000D03*
%TO.P,J2,40,Pin_40*%
%TO.N,HALT_n*%
X12700000Y-7620000D03*
%TD*%
D14*
%TO.P,J7,1,Pin_1*%
%TO.N,PIN18*%
X5080000Y-30480000D03*
D15*
%TO.P,J7,2,Pin_2*%
%TO.N,FIRQ_n*%
X7620000Y-30480000D03*
%TD*%
D16*
%TO.P,R6,1*%
%TO.N,VCC*%
X20320000Y-43180000D03*
D17*
%TO.P,R6,2*%
%TO.N,HALT_n*%
X12700000Y-43180000D03*
%TD*%
D14*
%TO.P,J6,1,Pin_1*%
%TO.N,PIN19*%
X5080000Y-33020000D03*
D15*
%TO.P,J6,2,Pin_2*%
%TO.N,IRQ_n*%
X7620000Y-33020000D03*
%TD*%
D19*
%TO.N,RESET_n*%
X15240000Y-12700000D03*
%TO.N,PIN20*%
X6350000Y-60960000D03*
%TO.N,PIN19*%
X5080000Y-59690000D03*
%TO.N,PIN17*%
X7620000Y-62230000D03*
%TO.N,PIN18*%
X3810000Y-58420000D03*
%TO.N,LED_RGB*%
X9525000Y-55245000D03*
X45085000Y-55245000D03*
%TO.N,NMI_n*%
X6350000Y-23495000D03*
%TO.N,VCC*%
X27940000Y-19050000D03*
%TO.N,IRQ_n*%
X8890000Y-22225000D03*
%TO.N,FIRQ_n*%
X7620000Y-20955000D03*
%TD*%
D20*
%TO.N,A8*%
X50800000Y-25400000D02*
X50800000Y-27940000D01*
X50800000Y-46990000D02*
X50800000Y-27940000D01*
X40640000Y-66040000D02*
X51925000Y-54755000D01*
X51925000Y-48115000D02*
X50800000Y-46990000D01*
X51925000Y-54755000D02*
X51925000Y-48115000D01*
%TO.N,A9*%
X43180000Y-66040000D02*
X54465000Y-54755000D01*
X53340000Y-27940000D02*
X53340000Y-25400000D01*
X53340000Y-46355000D02*
X53340000Y-27940000D01*
X54465000Y-54755000D02*
X54465000Y-47480000D01*
X54465000Y-47480000D02*
X53340000Y-46355000D01*
%TO.N,RESET_n*%
X17780000Y-66040000D02*
X14115000Y-62375000D01*
X14115000Y-62375000D02*
X14115000Y-18270000D01*
X14115000Y-18270000D02*
X15240000Y-17145000D01*
X15240000Y-17145000D02*
X15240000Y-12700000D01*
X20320000Y-7620000D02*
X20320000Y-10160000D01*
%TO.N,DBG*%
X8255000Y-61595000D02*
X8255000Y-46990000D01*
X12700000Y-66040000D02*
X8255000Y-61595000D01*
X5080000Y-43815000D02*
X5080000Y-43180000D01*
X8255000Y-46990000D02*
X5080000Y-43815000D01*
%TO.N,D4*%
X45720000Y-7620000D02*
X45720000Y-10160000D01*
X33020000Y-49530000D02*
X31750000Y-48260000D01*
X45720000Y-10160000D02*
X40640000Y-15240000D01*
X31750000Y-48260000D02*
X31750000Y-16510000D01*
X40640000Y-15240000D02*
X33020000Y-15240000D01*
X33020000Y-50800000D02*
X33020000Y-49530000D01*
X33020000Y-15240000D02*
X31750000Y-16510000D01*
%TO.N,A10*%
X55880000Y-25400000D02*
X55880000Y-27940000D01*
X57005000Y-47480000D02*
X55880000Y-46355000D01*
X57005000Y-54755000D02*
X57005000Y-47480000D01*
X55880000Y-46355000D02*
X55880000Y-27940000D01*
X45720000Y-66040000D02*
X57005000Y-54755000D01*
%TO.N,A11*%
X58420000Y-27940000D02*
X58420000Y-25400000D01*
X58420000Y-50800000D02*
X58420000Y-27940000D01*
%TO.N,D3*%
X29230001Y-15895001D02*
X29210000Y-15875000D01*
X43180000Y-7620000D02*
X43180000Y-10160000D01*
X30480000Y-14605000D02*
X29210000Y-15875000D01*
X29210000Y-48260000D02*
X29230001Y-48239999D01*
X29230001Y-48239999D02*
X29230001Y-15895001D01*
X30480000Y-50800000D02*
X30480000Y-49530000D01*
X43180000Y-10160000D02*
X38735000Y-14605000D01*
X38735000Y-14605000D02*
X30480000Y-14605000D01*
X30480000Y-49530000D02*
X29210000Y-48260000D01*
%TO.N,D5*%
X35560000Y-15875000D02*
X34290000Y-17145000D01*
X48260000Y-10160000D02*
X42545000Y-15875000D01*
X42545000Y-15875000D02*
X35560000Y-15875000D01*
X35560000Y-49530000D02*
X34290000Y-48260000D01*
X35560000Y-50800000D02*
X35560000Y-49530000D01*
X34290000Y-48260000D02*
X34290000Y-17145000D01*
X48260000Y-7620000D02*
X48260000Y-10160000D01*
%TO.N,D6*%
X38100000Y-49530000D02*
X36830000Y-48260000D01*
X36830000Y-48260000D02*
X36830000Y-17780000D01*
X50800000Y-10160000D02*
X44450000Y-16510000D01*
X38100000Y-50800000D02*
X38100000Y-49530000D01*
X50800000Y-7620000D02*
X50800000Y-10160000D01*
X44450000Y-16510000D02*
X38100000Y-16510000D01*
X38100000Y-16510000D02*
X36830000Y-17780000D01*
%TO.N,D2*%
X26670000Y-48260000D02*
X26670000Y-15240000D01*
X40640000Y-7620000D02*
X40640000Y-10160000D01*
X40640000Y-10160000D02*
X36830000Y-13970000D01*
X27940000Y-13970000D02*
X26670000Y-15240000D01*
X36830000Y-13970000D02*
X27940000Y-13970000D01*
X27940000Y-49530000D02*
X26670000Y-48260000D01*
X27940000Y-50800000D02*
X27940000Y-49530000D01*
%TO.N,D7*%
X39370000Y-18415000D02*
X39370000Y-47625000D01*
X46355000Y-17145000D02*
X40640000Y-17145000D01*
X53340000Y-10160000D02*
X46355000Y-17145000D01*
X53340000Y-7620000D02*
X53340000Y-10160000D01*
X40640000Y-48895000D02*
X40640000Y-50800000D01*
X40640000Y-17145000D02*
X39370000Y-18415000D01*
X39370000Y-47625000D02*
X40640000Y-48895000D01*
%TO.N,D0*%
X21590000Y-13970000D02*
X22860000Y-12700000D01*
X21590000Y-48260000D02*
X21590000Y-13970000D01*
X22860000Y-49530000D02*
X21590000Y-48260000D01*
X35560000Y-7620000D02*
X35560000Y-10160000D01*
X35560000Y-11430000D02*
X34290000Y-12700000D01*
X34290000Y-12700000D02*
X22860000Y-12700000D01*
X22860000Y-50800000D02*
X22860000Y-49530000D01*
X35560000Y-10160000D02*
X35560000Y-11430000D01*
%TO.N,D1*%
X24130000Y-32210000D02*
X23205000Y-33135000D01*
X23205000Y-37810000D02*
X24130000Y-38735000D01*
X23205000Y-33135000D02*
X23205000Y-37810000D01*
X38100000Y-7620000D02*
X38100000Y-10160000D01*
X24130000Y-48260000D02*
X25400000Y-49530000D01*
X23205000Y-33310000D02*
X24130000Y-32385000D01*
X24130000Y-13970000D02*
X24130000Y-32210000D01*
X25400000Y-50800000D02*
X25400000Y-49530000D01*
X38100000Y-10160000D02*
X34925000Y-13335000D01*
X24130000Y-38735000D02*
X24130000Y-48260000D01*
X34925000Y-13335000D02*
X24765000Y-13335000D01*
X24765000Y-13335000D02*
X24130000Y-13970000D01*
%TO.N,A12*%
X60960000Y-25400000D02*
X60960000Y-27940000D01*
X60960000Y-50800000D02*
X60960000Y-27940000D01*
%TO.N,A13*%
X60960000Y-12700000D02*
X60960000Y-10160000D01*
X54755000Y-18905000D02*
X60960000Y-12700000D01*
X55080001Y-29045001D02*
X54755000Y-28720000D01*
X60960000Y-7620000D02*
X60960000Y-10160000D01*
X54755000Y-28720000D02*
X54755000Y-18905000D01*
X55080001Y-50000001D02*
X55080001Y-29045001D01*
X55880000Y-50800000D02*
X55080001Y-50000001D01*
%TO.N,A14*%
X52215000Y-28720000D02*
X52215000Y-18905000D01*
X52215000Y-18905000D02*
X58420000Y-12700000D01*
X58420000Y-7620000D02*
X58420000Y-10160000D01*
X52540001Y-50000001D02*
X52540001Y-29045001D01*
X52540001Y-29045001D02*
X52215000Y-28720000D01*
X58420000Y-12700000D02*
X58420000Y-10160000D01*
X53340000Y-50800000D02*
X52540001Y-50000001D01*
%TO.N,A15*%
X42055000Y-23985000D02*
X55880000Y-10160000D01*
X43180000Y-50800000D02*
X42730000Y-50350000D01*
X55880000Y-7620000D02*
X55880000Y-10160000D01*
X42730000Y-50350000D02*
X42730000Y-29395000D01*
X42055000Y-28720000D02*
X42055000Y-23985000D01*
X42730000Y-29395000D02*
X42055000Y-28720000D01*
D21*
%TO.N,CLK*%
X16510000Y-24902233D02*
X16510000Y-48260000D01*
X17780000Y-23632233D02*
X16510000Y-24902233D01*
X17780000Y-49530000D02*
X17780000Y-50800000D01*
X17780000Y-7620000D02*
X17780000Y-10160000D01*
X16510000Y-48260000D02*
X17780000Y-49530000D01*
X17780000Y-10160000D02*
X17780000Y-23632233D01*
D20*
%TO.N,RW_n*%
X10610000Y-20506396D02*
X13970000Y-17146396D01*
X31175000Y-5775000D02*
X14545000Y-5775000D01*
X13970000Y-17146396D02*
X13970000Y-6350000D01*
X33020000Y-7620000D02*
X31175000Y-5775000D01*
X33020000Y-7620000D02*
X33020000Y-10160000D01*
X10610000Y-61410000D02*
X10610000Y-20506396D01*
X15240000Y-66040000D02*
X10610000Y-61410000D01*
X13970000Y-6350000D02*
X14545000Y-5775000D01*
%TO.N,PIN20*%
X3455000Y-44541396D02*
X3455000Y-37185000D01*
X6350000Y-60960000D02*
X6350000Y-47436396D01*
X6350000Y-47436396D02*
X3455000Y-44541396D01*
X3455000Y-37185000D02*
X5080000Y-35560000D01*
%TO.N,PIN19*%
X3005000Y-35095000D02*
X5080000Y-33020000D01*
X5080000Y-59690000D02*
X5080000Y-46802792D01*
X5080000Y-46802792D02*
X3005000Y-44727792D01*
X3005000Y-44727792D02*
X3005000Y-35095000D01*
%TO.N,PIN17*%
X7620000Y-48070000D02*
X3905000Y-44355000D01*
X3905000Y-44355000D02*
X3905000Y-39275000D01*
X7620000Y-62230000D02*
X7620000Y-48070000D01*
X3905000Y-39275000D02*
X5080000Y-38100000D01*
%TO.N,PIN18*%
X2555000Y-57165000D02*
X2555000Y-33005000D01*
X2555000Y-33005000D02*
X5080000Y-30480000D01*
X3810000Y-58420000D02*
X2555000Y-57165000D01*
%TO.N,A7*%
X48260000Y-46990000D02*
X48260000Y-27940000D01*
X48260000Y-27940000D02*
X48260000Y-25400000D01*
X38100000Y-66040000D02*
X49385000Y-54755000D01*
X49385000Y-54755000D02*
X49385000Y-48115000D01*
X49385000Y-48115000D02*
X48260000Y-46990000D01*
%TO.N,A6*%
X46845000Y-48115000D02*
X45720000Y-46990000D01*
X45720000Y-46990000D02*
X45720000Y-27940000D01*
X46845000Y-54755000D02*
X46845000Y-48115000D01*
X45720000Y-27940000D02*
X45720000Y-25400000D01*
X35560000Y-66040000D02*
X46845000Y-54755000D01*
%TO.N,A5*%
X43180000Y-27940000D02*
X43180000Y-25400000D01*
X33020000Y-66040000D02*
X44450000Y-54610000D01*
X44450000Y-48895000D02*
X43180000Y-47625000D01*
X44450000Y-54610000D02*
X44450000Y-48895000D01*
X43180000Y-47625000D02*
X43180000Y-27940000D01*
%TO.N,A4*%
X40640000Y-27940000D02*
X40640000Y-25400000D01*
X42055000Y-49040000D02*
X40640000Y-47625000D01*
X42055000Y-54465000D02*
X42055000Y-49040000D01*
X40640000Y-47625000D02*
X40640000Y-27940000D01*
X30480000Y-66040000D02*
X42055000Y-54465000D01*
%TO.N,LED_RGB*%
X6350000Y-41910000D02*
X5080000Y-40640000D01*
X6350000Y-43571701D02*
X6350000Y-41910000D01*
X45720000Y-50800000D02*
X45720000Y-54610000D01*
X9525000Y-55245000D02*
X9525000Y-46746701D01*
X9525000Y-46746701D02*
X6350000Y-43571701D01*
X45720000Y-54610000D02*
X45085000Y-55245000D01*
%TO.N,A3*%
X39370000Y-54610000D02*
X39370000Y-48896396D01*
X38100000Y-47626396D02*
X38100000Y-27940000D01*
X27940000Y-66040000D02*
X39370000Y-54610000D01*
X38100000Y-27940000D02*
X38100000Y-25400000D01*
X39370000Y-48896396D02*
X38100000Y-47626396D01*
%TO.N,A2*%
X25400000Y-66040000D02*
X36685000Y-54755000D01*
X36685000Y-54755000D02*
X36685000Y-49385000D01*
X35560000Y-27940000D02*
X35560000Y-25400000D01*
X36685000Y-49385000D02*
X35560000Y-48260000D01*
X35560000Y-48260000D02*
X35560000Y-27940000D01*
%TO.N,A1*%
X22860000Y-66040000D02*
X34145000Y-54755000D01*
X34145000Y-48751396D02*
X33020000Y-47626396D01*
X33020000Y-27940000D02*
X33020000Y-25400000D01*
X34145000Y-54755000D02*
X34145000Y-48751396D01*
X33020000Y-47626396D02*
X33020000Y-27940000D01*
%TO.N,A0*%
X31605000Y-50018604D02*
X30480000Y-48893604D01*
X30480000Y-27940000D02*
X30480000Y-25400000D01*
X20320000Y-66040000D02*
X31605000Y-54755000D01*
X30480000Y-48893604D02*
X30480000Y-27940000D01*
X31605000Y-54755000D02*
X31605000Y-50018604D01*
D21*
%TO.N,E*%
X19822233Y-6350000D02*
X26670000Y-6350000D01*
X20320000Y-49530000D02*
X19050000Y-48260000D01*
X20320000Y-50800000D02*
X20320000Y-49530000D01*
X27940000Y-7620000D02*
X27940000Y-10160000D01*
X26670000Y-6350000D02*
X27940000Y-7620000D01*
X19050000Y-7122233D02*
X19822233Y-6350000D01*
X19050000Y-48260000D02*
X19050000Y-6985000D01*
D20*
%TO.N,NMI_n*%
X6350000Y-23495000D02*
X6350000Y-34290000D01*
X6350000Y-34290000D02*
X7620000Y-35560000D01*
X15240000Y-27940000D02*
X15240000Y-25400000D01*
%TO.N,HALT_n*%
X10160000Y-20320000D02*
X10160000Y-35560000D01*
X12700000Y-10160000D02*
X12700000Y-17780000D01*
X10160000Y-35560000D02*
X7620000Y-38100000D01*
X12700000Y-17780000D02*
X10160000Y-20320000D01*
X12700000Y-10160000D02*
X12700000Y-7620000D01*
%TO.N,VCC*%
X27940000Y-19050000D02*
X27940000Y-25400000D01*
X2540000Y-12700000D02*
X2540000Y-17780000D01*
%TO.N,IRQ_n*%
X8890000Y-22225000D02*
X8890000Y-31750000D01*
X17780000Y-27940000D02*
X17780000Y-25400000D01*
X8890000Y-31750000D02*
X7620000Y-33020000D01*
%TO.N,FIRQ_n*%
X7620000Y-20955000D02*
X7620000Y-30480000D01*
X20320000Y-27940000D02*
X20320000Y-25400000D01*
%TO.N,BS*%
X22860000Y-27940000D02*
X22860000Y-25400000D01*
%TO.N,BA*%
X25400000Y-27940000D02*
X25400000Y-25400000D01*
%TO.N,DMA_BREQ_n*%
X30480000Y-7620000D02*
X30480000Y-10160000D01*
%TO.N,Q*%
X25400000Y-7620000D02*
X25400000Y-10160000D01*
%TO.N,MRDY*%
X22860000Y-7620000D02*
X22860000Y-10160000D01*
%TD*%
M02*
