%TF.GenerationSoftware,KiCad,Pcbnew,7.0.6*%
%TF.CreationDate,2023-07-19T18:48:29+09:00*%
%TF.ProjectId,TangNano6809MEM,54616e67-4e61-46e6-9f36-3830394d454d,rev?*%
%TF.SameCoordinates,Original*%
%TF.FileFunction,Copper,L1,Top*%
%TF.FilePolarity,Positive*%
%FSLAX46Y46*%
G04 Gerber Fmt 4.6, Leading zero omitted, Abs format (unit mm)*
G04 Created by KiCad (PCBNEW 7.0.6) date 2023-07-19 18:48:29*
%MOMM*%
%LPD*%
G01*
G04 APERTURE LIST*
%TA.AperFunction,ComponentPad*%
%ADD10R,1.600000X1.600000*%
%TD*%
%TA.AperFunction,ComponentPad*%
%ADD11O,1.600000X1.600000*%
%TD*%
%TA.AperFunction,ComponentPad*%
%ADD12R,1.200000X1.200000*%
%TD*%
%TA.AperFunction,ComponentPad*%
%ADD13C,1.200000*%
%TD*%
%TA.AperFunction,ComponentPad*%
%ADD14R,1.700000X1.700000*%
%TD*%
%TA.AperFunction,ComponentPad*%
%ADD15O,1.700000X1.700000*%
%TD*%
%TA.AperFunction,ComponentPad*%
%ADD16C,1.600000*%
%TD*%
%TA.AperFunction,ViaPad*%
%ADD17C,0.800000*%
%TD*%
%TA.AperFunction,Conductor*%
%ADD18C,0.250000*%
%TD*%
%TA.AperFunction,Conductor*%
%ADD19C,2.000000*%
%TD*%
G04 APERTURE END LIST*
D10*
%TO.P,J1,1,Pin_1*%
%TO.N,DBG*%
X12700000Y-66040000D03*
D11*
%TO.P,J1,2,Pin_2*%
%TO.N,RW_n*%
X15240000Y-66040000D03*
%TO.P,J1,3,Pin_3*%
%TO.N,RESET_n*%
X17780000Y-66040000D03*
%TO.P,J1,4,Pin_4*%
%TO.N,A0*%
X20320000Y-66040000D03*
%TO.P,J1,5,Pin_5*%
%TO.N,A1*%
X22860000Y-66040000D03*
%TO.P,J1,6,Pin_6*%
%TO.N,A2*%
X25400000Y-66040000D03*
%TO.P,J1,7,Pin_7*%
%TO.N,A3*%
X27940000Y-66040000D03*
%TO.P,J1,8,Pin_8*%
%TO.N,A4*%
X30480000Y-66040000D03*
%TO.P,J1,9,Pin_9*%
%TO.N,A5*%
X33020000Y-66040000D03*
%TO.P,J1,10,Pin_10*%
%TO.N,A6*%
X35560000Y-66040000D03*
%TO.P,J1,11,Pin_11*%
%TO.N,A7*%
X38100000Y-66040000D03*
%TO.P,J1,12,Pin_12*%
%TO.N,A8*%
X40640000Y-66040000D03*
%TO.P,J1,13,Pin_13*%
%TO.N,A9*%
X43180000Y-66040000D03*
%TO.P,J1,14,Pin_14*%
%TO.N,A10*%
X45720000Y-66040000D03*
%TO.P,J1,15,Pin_15*%
%TO.N,PIN17*%
X48260000Y-66040000D03*
%TO.P,J1,16,Pin_16*%
%TO.N,PIN20*%
X50800000Y-66040000D03*
%TO.P,J1,17,Pin_17*%
%TO.N,PIN19*%
X53340000Y-66040000D03*
%TO.P,J1,18,Pin_18*%
%TO.N,PIN18*%
X55880000Y-66040000D03*
%TO.P,J1,19,Pin_19*%
%TO.N,unconnected-(J1-Pin_19-Pad19)*%
X58420000Y-66040000D03*
%TO.P,J1,20,Pin_20*%
%TO.N,GND*%
X60960000Y-66040000D03*
%TO.P,J1,21,Pin_21*%
%TO.N,A12*%
X60960000Y-50800000D03*
%TO.P,J1,22,Pin_22*%
%TO.N,A11*%
X58420000Y-50800000D03*
%TO.P,J1,23,Pin_23*%
%TO.N,A13*%
X55880000Y-50800000D03*
%TO.P,J1,24,Pin_24*%
%TO.N,A14*%
X53340000Y-50800000D03*
%TO.P,J1,25,Pin_25*%
%TO.N,unconnected-(J1-Pin_25-Pad25)*%
X50800000Y-50800000D03*
%TO.P,J1,26,Pin_26*%
%TO.N,GND*%
X48260000Y-50800000D03*
%TO.P,J1,27,Pin_27*%
%TO.N,LED_RGB*%
X45720000Y-50800000D03*
%TO.P,J1,28,Pin_28*%
%TO.N,A15*%
X43180000Y-50800000D03*
%TO.P,J1,29,Pin_29*%
%TO.N,D7*%
X40640000Y-50800000D03*
%TO.P,J1,30,Pin_30*%
%TO.N,D6*%
X38100000Y-50800000D03*
%TO.P,J1,31,Pin_31*%
%TO.N,D5*%
X35560000Y-50800000D03*
%TO.P,J1,32,Pin_32*%
%TO.N,D4*%
X33020000Y-50800000D03*
%TO.P,J1,33,Pin_33*%
%TO.N,D3*%
X30480000Y-50800000D03*
%TO.P,J1,34,Pin_34*%
%TO.N,D2*%
X27940000Y-50800000D03*
%TO.P,J1,35,Pin_35*%
%TO.N,D1*%
X25400000Y-50800000D03*
%TO.P,J1,36,Pin_36*%
%TO.N,D0*%
X22860000Y-50800000D03*
%TO.P,J1,37,Pin_37*%
%TO.N,E*%
X20320000Y-50800000D03*
%TO.P,J1,38,Pin_38*%
%TO.N,CLK*%
X17780000Y-50800000D03*
%TO.P,J1,39,Pin_39*%
%TO.N,GND*%
X15240000Y-50800000D03*
%TO.P,J1,40,Pin_40*%
%TO.N,VCC*%
X12700000Y-50800000D03*
%TD*%
D12*
%TO.P,C2,1*%
%TO.N,VCC*%
X24130000Y-34060000D03*
D13*
%TO.P,C2,2*%
%TO.N,GND*%
X24130000Y-35560000D03*
%TD*%
D14*
%TO.P,J3,1,Pin_1*%
%TO.N,DBG*%
X5080000Y-43180000D03*
D15*
%TO.P,J3,2,Pin_2*%
%TO.N,GND*%
X7620000Y-43180000D03*
%TD*%
D16*
%TO.P,R3,1*%
%TO.N,VCC*%
X20320000Y-40640000D03*
D11*
%TO.P,R3,2*%
%TO.N,IRQ_n*%
X12700000Y-40640000D03*
%TD*%
D16*
%TO.P,R1,1*%
%TO.N,VCC*%
X2540000Y-12700000D03*
D11*
%TO.P,R1,2*%
%TO.N,RESET_n*%
X10160000Y-12700000D03*
%TD*%
D14*
%TO.P,J8,1,Pin_1*%
%TO.N,LED_RGB*%
X5080000Y-40640000D03*
D15*
%TO.P,J8,2,Pin_2*%
%TO.N,GND*%
X7620000Y-40640000D03*
%TD*%
D16*
%TO.P,R4,1*%
%TO.N,VCC*%
X20320000Y-43180000D03*
D11*
%TO.P,R4,2*%
%TO.N,FIRQ_n*%
X12700000Y-43180000D03*
%TD*%
D16*
%TO.P,R2,1*%
%TO.N,VCC*%
X20320000Y-38100000D03*
D11*
%TO.P,R2,2*%
%TO.N,NMI_n*%
X12700000Y-38100000D03*
%TD*%
D16*
%TO.P,R7,1*%
%TO.N,VCC*%
X2540000Y-15240000D03*
D11*
%TO.P,R7,2*%
%TO.N,MRDY*%
X10160000Y-15240000D03*
%TD*%
D14*
%TO.P,J4,1,Pin_1*%
%TO.N,PIN17*%
X5080000Y-30480000D03*
D15*
%TO.P,J4,2,Pin_2*%
%TO.N,HALT_n*%
X7620000Y-30480000D03*
%TD*%
D14*
%TO.P,J5,1,Pin_1*%
%TO.N,PIN20*%
X5080000Y-33020000D03*
D15*
%TO.P,J5,2,Pin_2*%
%TO.N,NMI_n*%
X7620000Y-33020000D03*
%TD*%
D16*
%TO.P,R5,1*%
%TO.N,VCC*%
X2540000Y-17780000D03*
D11*
%TO.P,R5,2*%
%TO.N,DMA_BREQ_n*%
X10160000Y-17780000D03*
%TD*%
D16*
%TO.P,C1,1*%
%TO.N,VCC*%
X27940000Y-33020000D03*
%TO.P,C1,2*%
%TO.N,GND*%
X27940000Y-38020000D03*
%TD*%
D10*
%TO.P,U1,1,VSS*%
%TO.N,GND*%
X12700000Y-25400000D03*
D11*
%TO.P,U1,2,~{NMI}*%
%TO.N,NMI_n*%
X15240000Y-25400000D03*
%TO.P,U1,3,~{IRQ}*%
%TO.N,IRQ_n*%
X17780000Y-25400000D03*
%TO.P,U1,4,~{FIRQ}*%
%TO.N,FIRQ_n*%
X20320000Y-25400000D03*
%TO.P,U1,5,BS*%
%TO.N,BS*%
X22860000Y-25400000D03*
%TO.P,U1,6,BA*%
%TO.N,BA*%
X25400000Y-25400000D03*
%TO.P,U1,7,VCC*%
%TO.N,VCC*%
X27940000Y-25400000D03*
%TO.P,U1,8,A0*%
%TO.N,A0*%
X30480000Y-25400000D03*
%TO.P,U1,9,A1*%
%TO.N,A1*%
X33020000Y-25400000D03*
%TO.P,U1,10,A2*%
%TO.N,A2*%
X35560000Y-25400000D03*
%TO.P,U1,11,A3*%
%TO.N,A3*%
X38100000Y-25400000D03*
%TO.P,U1,12,A4*%
%TO.N,A4*%
X40640000Y-25400000D03*
%TO.P,U1,13,A5*%
%TO.N,A5*%
X43180000Y-25400000D03*
%TO.P,U1,14,A6*%
%TO.N,A6*%
X45720000Y-25400000D03*
%TO.P,U1,15,A7*%
%TO.N,A7*%
X48260000Y-25400000D03*
%TO.P,U1,16,A8*%
%TO.N,A8*%
X50800000Y-25400000D03*
%TO.P,U1,17,A9*%
%TO.N,A9*%
X53340000Y-25400000D03*
%TO.P,U1,18,A10*%
%TO.N,A10*%
X55880000Y-25400000D03*
%TO.P,U1,19,A11*%
%TO.N,A11*%
X58420000Y-25400000D03*
%TO.P,U1,20,A12*%
%TO.N,A12*%
X60960000Y-25400000D03*
%TO.P,U1,21,A13*%
%TO.N,A13*%
X60960000Y-10160000D03*
%TO.P,U1,22,A14*%
%TO.N,A14*%
X58420000Y-10160000D03*
%TO.P,U1,23,A15*%
%TO.N,A15*%
X55880000Y-10160000D03*
%TO.P,U1,24,D7*%
%TO.N,D7*%
X53340000Y-10160000D03*
%TO.P,U1,25,D6*%
%TO.N,D6*%
X50800000Y-10160000D03*
%TO.P,U1,26,D5*%
%TO.N,D5*%
X48260000Y-10160000D03*
%TO.P,U1,27,D4*%
%TO.N,D4*%
X45720000Y-10160000D03*
%TO.P,U1,28,D3*%
%TO.N,D3*%
X43180000Y-10160000D03*
%TO.P,U1,29,D2*%
%TO.N,D2*%
X40640000Y-10160000D03*
%TO.P,U1,30,D1*%
%TO.N,D1*%
X38100000Y-10160000D03*
%TO.P,U1,31,D0*%
%TO.N,D0*%
X35560000Y-10160000D03*
%TO.P,U1,32,R/~{W}*%
%TO.N,RW_n*%
X33020000Y-10160000D03*
%TO.P,U1,33,~{DMA/BREQ}*%
%TO.N,DMA_BREQ_n*%
X30480000Y-10160000D03*
%TO.P,U1,34,E*%
%TO.N,E*%
X27940000Y-10160000D03*
%TO.P,U1,35,Q*%
%TO.N,Q*%
X25400000Y-10160000D03*
%TO.P,U1,36,MRDY*%
%TO.N,MRDY*%
X22860000Y-10160000D03*
%TO.P,U1,37,~{RESET}*%
%TO.N,RESET_n*%
X20320000Y-10160000D03*
%TO.P,U1,38,EXTAL*%
%TO.N,CLK*%
X17780000Y-10160000D03*
%TO.P,U1,39,XTAL*%
%TO.N,GND*%
X15240000Y-10160000D03*
%TO.P,U1,40,~{HALT}*%
%TO.N,HALT_n*%
X12700000Y-10160000D03*
%TD*%
D10*
%TO.P,J2,1,Pin_1*%
%TO.N,GND*%
X12700000Y-27940000D03*
D11*
%TO.P,J2,2,Pin_2*%
%TO.N,NMI_n*%
X15240000Y-27940000D03*
%TO.P,J2,3,Pin_3*%
%TO.N,IRQ_n*%
X17780000Y-27940000D03*
%TO.P,J2,4,Pin_4*%
%TO.N,FIRQ_n*%
X20320000Y-27940000D03*
%TO.P,J2,5,Pin_5*%
%TO.N,BS*%
X22860000Y-27940000D03*
%TO.P,J2,6,Pin_6*%
%TO.N,BA*%
X25400000Y-27940000D03*
%TO.P,J2,7,Pin_7*%
%TO.N,VCC*%
X27940000Y-27940000D03*
%TO.P,J2,8,Pin_8*%
%TO.N,A0*%
X30480000Y-27940000D03*
%TO.P,J2,9,Pin_9*%
%TO.N,A1*%
X33020000Y-27940000D03*
%TO.P,J2,10,Pin_10*%
%TO.N,A2*%
X35560000Y-27940000D03*
%TO.P,J2,11,Pin_11*%
%TO.N,A3*%
X38100000Y-27940000D03*
%TO.P,J2,12,Pin_12*%
%TO.N,A4*%
X40640000Y-27940000D03*
%TO.P,J2,13,Pin_13*%
%TO.N,A5*%
X43180000Y-27940000D03*
%TO.P,J2,14,Pin_14*%
%TO.N,A6*%
X45720000Y-27940000D03*
%TO.P,J2,15,Pin_15*%
%TO.N,A7*%
X48260000Y-27940000D03*
%TO.P,J2,16,Pin_16*%
%TO.N,A8*%
X50800000Y-27940000D03*
%TO.P,J2,17,Pin_17*%
%TO.N,A9*%
X53340000Y-27940000D03*
%TO.P,J2,18,Pin_18*%
%TO.N,A10*%
X55880000Y-27940000D03*
%TO.P,J2,19,Pin_19*%
%TO.N,A11*%
X58420000Y-27940000D03*
%TO.P,J2,20,Pin_20*%
%TO.N,A12*%
X60960000Y-27940000D03*
%TO.P,J2,21,Pin_21*%
%TO.N,A13*%
X60960000Y-7620000D03*
%TO.P,J2,22,Pin_22*%
%TO.N,A14*%
X58420000Y-7620000D03*
%TO.P,J2,23,Pin_23*%
%TO.N,A15*%
X55880000Y-7620000D03*
%TO.P,J2,24,Pin_24*%
%TO.N,D7*%
X53340000Y-7620000D03*
%TO.P,J2,25,Pin_25*%
%TO.N,D6*%
X50800000Y-7620000D03*
%TO.P,J2,26,Pin_26*%
%TO.N,D5*%
X48260000Y-7620000D03*
%TO.P,J2,27,Pin_27*%
%TO.N,D4*%
X45720000Y-7620000D03*
%TO.P,J2,28,Pin_28*%
%TO.N,D3*%
X43180000Y-7620000D03*
%TO.P,J2,29,Pin_29*%
%TO.N,D2*%
X40640000Y-7620000D03*
%TO.P,J2,30,Pin_30*%
%TO.N,D1*%
X38100000Y-7620000D03*
%TO.P,J2,31,Pin_31*%
%TO.N,D0*%
X35560000Y-7620000D03*
%TO.P,J2,32,Pin_32*%
%TO.N,RW_n*%
X33020000Y-7620000D03*
%TO.P,J2,33,Pin_33*%
%TO.N,DMA_BREQ_n*%
X30480000Y-7620000D03*
%TO.P,J2,34,Pin_34*%
%TO.N,E*%
X27940000Y-7620000D03*
%TO.P,J2,35,Pin_35*%
%TO.N,Q*%
X25400000Y-7620000D03*
%TO.P,J2,36,Pin_36*%
%TO.N,MRDY*%
X22860000Y-7620000D03*
%TO.P,J2,37,Pin_37*%
%TO.N,RESET_n*%
X20320000Y-7620000D03*
%TO.P,J2,38,Pin_38*%
%TO.N,CLK*%
X17780000Y-7620000D03*
%TO.P,J2,39,Pin_39*%
%TO.N,GND*%
X15240000Y-7620000D03*
%TO.P,J2,40,Pin_40*%
%TO.N,HALT_n*%
X12700000Y-7620000D03*
%TD*%
D14*
%TO.P,J7,1,Pin_1*%
%TO.N,PIN18*%
X5080000Y-38100000D03*
D15*
%TO.P,J7,2,Pin_2*%
%TO.N,FIRQ_n*%
X7620000Y-38100000D03*
%TD*%
D16*
%TO.P,R6,1*%
%TO.N,VCC*%
X20320000Y-35560000D03*
D11*
%TO.P,R6,2*%
%TO.N,HALT_n*%
X12700000Y-35560000D03*
%TD*%
D14*
%TO.P,J6,1,Pin_1*%
%TO.N,PIN19*%
X5080000Y-35560000D03*
D15*
%TO.P,J6,2,Pin_2*%
%TO.N,IRQ_n*%
X7620000Y-35560000D03*
%TD*%
D17*
%TO.N,FIRQ_n*%
X9885500Y-21017899D03*
%TO.N,IRQ_n*%
X8890000Y-22225000D03*
%TO.N,NMI_n*%
X6350000Y-23495000D03*
%TO.N,RESET_n*%
X15240000Y-12700000D03*
%TO.N,LED_RGB*%
X9525000Y-55245000D03*
X45085000Y-55245000D03*
%TO.N,VCC*%
X27940000Y-19050000D03*
%TD*%
D18*
%TO.N,PIN18*%
X3905000Y-39275000D02*
X3905000Y-50800000D01*
X5080000Y-38100000D02*
X3905000Y-39275000D01*
%TO.N,FIRQ_n*%
X19112899Y-21017899D02*
X20320000Y-22225000D01*
X20320000Y-22225000D02*
X20320000Y-25400000D01*
X9885500Y-21017899D02*
X19112899Y-21017899D01*
%TO.N,IRQ_n*%
X16510000Y-22225000D02*
X17780000Y-23495000D01*
X17780000Y-23495000D02*
X17780000Y-25400000D01*
X8890000Y-22225000D02*
X16510000Y-22225000D01*
%TO.N,NMI_n*%
X15240000Y-24130000D02*
X15240000Y-25400000D01*
X14605000Y-23495000D02*
X15240000Y-24130000D01*
X6350000Y-23495000D02*
X14605000Y-23495000D01*
D19*
%TO.N,VCC*%
X12700000Y-49668630D02*
X12700000Y-50800000D01*
X14108630Y-48260000D02*
X12700000Y-49668630D01*
X19050000Y-48260000D02*
X14108630Y-48260000D01*
X20320000Y-46990000D02*
X19050000Y-48260000D01*
X20320000Y-43180000D02*
X20320000Y-46990000D01*
D18*
%TO.N,HALT_n*%
X12700000Y-35560000D02*
X7620000Y-30480000D01*
%TO.N,NMI_n*%
X12700000Y-38100000D02*
X7620000Y-33020000D01*
%TO.N,IRQ_n*%
X12700000Y-40640000D02*
X7620000Y-35560000D01*
%TO.N,FIRQ_n*%
X12700000Y-43180000D02*
X7620000Y-38100000D01*
%TO.N,PIN17*%
X8886510Y-57785698D02*
X2555000Y-51454188D01*
X44449302Y-57785698D02*
X8886510Y-57785698D01*
X48260000Y-61596396D02*
X44449302Y-57785698D01*
X48260000Y-66040000D02*
X48260000Y-61596396D01*
X2555000Y-51454188D02*
X2555000Y-33005000D01*
X2555000Y-33005000D02*
X5080000Y-30480000D01*
%TO.N,PIN20*%
X8887208Y-57150000D02*
X3005000Y-51267792D01*
X44450000Y-57150000D02*
X8887208Y-57150000D01*
X50800000Y-63500000D02*
X44450000Y-57150000D01*
X3005000Y-51267792D02*
X3005000Y-35095000D01*
X50800000Y-66040000D02*
X50800000Y-63500000D01*
X3005000Y-35095000D02*
X5080000Y-33020000D01*
%TO.N,PIN19*%
X3455000Y-37185000D02*
X5080000Y-35560000D01*
X3455000Y-51081396D02*
X3455000Y-37185000D01*
X45085000Y-56515000D02*
X8888604Y-56515000D01*
X8888604Y-56515000D02*
X3455000Y-51081396D01*
X53340000Y-64770000D02*
X45085000Y-56515000D01*
X53340000Y-66040000D02*
X53340000Y-64770000D01*
%TO.N,PIN18*%
X8980000Y-55970000D02*
X3905000Y-50895000D01*
X45810000Y-55970000D02*
X8980000Y-55970000D01*
X55880000Y-66040000D02*
X45810000Y-55970000D01*
%TO.N,RESET_n*%
X20320000Y-12065000D02*
X20320000Y-10160000D01*
X19685000Y-12700000D02*
X20320000Y-12065000D01*
X10160000Y-12700000D02*
X19685000Y-12700000D01*
D19*
%TO.N,GND*%
X15240000Y-50800000D02*
X15240000Y-51931370D01*
D18*
X15240000Y-50800000D02*
X13915000Y-52125000D01*
X12120000Y-52125000D02*
X7620000Y-47625000D01*
D19*
X60960000Y-55880000D02*
X60960000Y-66040000D01*
X11788730Y-53000000D02*
X7620000Y-48831270D01*
X49668630Y-53340000D02*
X58420000Y-53340000D01*
X47391370Y-52800000D02*
X48260000Y-51931370D01*
X7620000Y-48831270D02*
X7620000Y-40640000D01*
D18*
X7620000Y-47625000D02*
X7620000Y-40640000D01*
D19*
X7620000Y-40640000D02*
X7620000Y-44740000D01*
X15240000Y-51931370D02*
X16108630Y-52800000D01*
D18*
X13915000Y-52125000D02*
X12120000Y-52125000D01*
D19*
X48260000Y-51931370D02*
X48260000Y-50800000D01*
X14171370Y-53000000D02*
X11788730Y-53000000D01*
X16108630Y-52800000D02*
X47391370Y-52800000D01*
X48260000Y-51931370D02*
X49668630Y-53340000D01*
X15240000Y-51931370D02*
X14171370Y-53000000D01*
X58420000Y-53340000D02*
X60960000Y-55880000D01*
D18*
%TO.N,LED_RGB*%
X9525000Y-55245000D02*
X45085000Y-55245000D01*
%TO.N,VCC*%
X2540000Y-17780000D02*
X5470305Y-17780000D01*
D19*
X27940000Y-33020000D02*
X22860000Y-33020000D01*
X20320000Y-43180000D02*
X20320000Y-35560000D01*
X27940000Y-33020000D02*
X27940000Y-25400000D01*
X20320000Y-35560000D02*
X22120000Y-33760000D01*
X22120000Y-33760000D02*
X24130000Y-33760000D01*
X22860000Y-33020000D02*
X20320000Y-35560000D01*
D18*
X6740305Y-19050000D02*
X27940000Y-19050000D01*
X5470305Y-17780000D02*
X6740305Y-19050000D01*
%TO.N,DMA_BREQ_n*%
X29845000Y-17780000D02*
X30480000Y-17145000D01*
X30480000Y-17145000D02*
X30480000Y-10160000D01*
X10160000Y-17780000D02*
X29845000Y-17780000D01*
%TO.N,MRDY*%
X21590000Y-15240000D02*
X22860000Y-13970000D01*
X10160000Y-15240000D02*
X21590000Y-15240000D01*
X22860000Y-13970000D02*
X22860000Y-10160000D01*
%TD*%
%TA.AperFunction,Conductor*%
%TO.N,GND*%
G36*
X7869999Y-42744498D02*
G01*
X7762315Y-42695320D01*
X7655763Y-42680000D01*
X7584237Y-42680000D01*
X7477685Y-42695320D01*
X7370000Y-42744498D01*
X7370000Y-41075501D01*
X7477685Y-41124680D01*
X7584237Y-41140000D01*
X7655763Y-41140000D01*
X7762315Y-41124680D01*
X7869999Y-41075501D01*
X7869999Y-42744498D01*
G37*
%TD.AperFunction*%
%TA.AperFunction,Conductor*%
G36*
X6598610Y-41534901D02*
G01*
X6626865Y-41556053D01*
X6748917Y-41678105D01*
X6935031Y-41808425D01*
X6978656Y-41863003D01*
X6985848Y-41932501D01*
X6954326Y-41994856D01*
X6935031Y-42011575D01*
X6748924Y-42141888D01*
X6626865Y-42263947D01*
X6565542Y-42297431D01*
X6495850Y-42292447D01*
X6439917Y-42250575D01*
X6423002Y-42219598D01*
X6373797Y-42087671D01*
X6373795Y-42087668D01*
X6296421Y-41984309D01*
X6272004Y-41918848D01*
X6286855Y-41850575D01*
X6296416Y-41835696D01*
X6373796Y-41732331D01*
X6423002Y-41600401D01*
X6464872Y-41544468D01*
X6530337Y-41520050D01*
X6598610Y-41534901D01*
G37*
%TD.AperFunction*%
%TA.AperFunction,Conductor*%
G36*
X12950000Y-27624313D02*
G01*
X12938045Y-27612359D01*
X12825148Y-27554835D01*
X12731481Y-27540000D01*
X12668519Y-27540000D01*
X12574852Y-27554835D01*
X12461955Y-27612359D01*
X12450000Y-27624313D01*
X12450000Y-25715686D01*
X12461955Y-25727641D01*
X12574852Y-25785165D01*
X12668519Y-25800000D01*
X12731481Y-25800000D01*
X12825148Y-25785165D01*
X12938045Y-25727641D01*
X12950000Y-25715686D01*
X12950000Y-27624313D01*
G37*
%TD.AperFunction*%
%TA.AperFunction,Conductor*%
G36*
X15490000Y-9844314D02*
G01*
X15478045Y-9832359D01*
X15365148Y-9774835D01*
X15271481Y-9760000D01*
X15208519Y-9760000D01*
X15114852Y-9774835D01*
X15001955Y-9832359D01*
X14990000Y-9844314D01*
X14990000Y-7935686D01*
X15001955Y-7947641D01*
X15114852Y-8005165D01*
X15208519Y-8020000D01*
X15271481Y-8020000D01*
X15365148Y-8005165D01*
X15478045Y-7947641D01*
X15490000Y-7935686D01*
X15490000Y-9844314D01*
G37*
%TD.AperFunction*%
%TA.AperFunction,Conductor*%
G36*
X64713039Y-654685D02*
G01*
X64758794Y-707489D01*
X64769999Y-759000D01*
X64770000Y-6350000D01*
X67310000Y-8890000D01*
X72901000Y-8890000D01*
X72968039Y-8909685D01*
X73013794Y-8962489D01*
X73025000Y-9014000D01*
X73025000Y-64646000D01*
X73005315Y-64713039D01*
X72952511Y-64758794D01*
X72901000Y-64770000D01*
X67309999Y-64770000D01*
X64770000Y-67309999D01*
X64770000Y-72901000D01*
X64750315Y-72968039D01*
X64697511Y-73013794D01*
X64646000Y-73025000D01*
X9014000Y-73025000D01*
X8946961Y-73005315D01*
X8901206Y-72952511D01*
X8890000Y-72901000D01*
X8890000Y-67310000D01*
X6350000Y-64770000D01*
X759000Y-64770000D01*
X691961Y-64750315D01*
X646206Y-64697511D01*
X635000Y-64646000D01*
X635000Y-32985195D01*
X1924840Y-32985195D01*
X1929225Y-33031583D01*
X1929500Y-33037421D01*
X1929500Y-51371443D01*
X1927775Y-51387060D01*
X1928061Y-51387087D01*
X1927326Y-51394853D01*
X1929500Y-51464002D01*
X1929500Y-51493531D01*
X1929501Y-51493548D01*
X1930368Y-51500419D01*
X1930826Y-51506238D01*
X1932290Y-51552812D01*
X1932291Y-51552815D01*
X1937880Y-51572055D01*
X1941824Y-51591099D01*
X1944336Y-51610980D01*
X1961490Y-51654307D01*
X1963382Y-51659835D01*
X1976381Y-51704576D01*
X1986580Y-51721822D01*
X1995138Y-51739291D01*
X2002514Y-51757920D01*
X2029898Y-51795611D01*
X2033106Y-51800495D01*
X2056827Y-51840604D01*
X2056833Y-51840612D01*
X2070990Y-51854768D01*
X2083628Y-51869564D01*
X2095405Y-51885774D01*
X2095406Y-51885775D01*
X2131309Y-51915476D01*
X2135620Y-51919398D01*
X8376062Y-58159841D01*
X8385707Y-58169486D01*
X8395532Y-58181749D01*
X8395753Y-58181567D01*
X8400724Y-58187576D01*
X8426727Y-58211993D01*
X8451145Y-58234924D01*
X8472039Y-58255818D01*
X8477521Y-58260071D01*
X8481953Y-58263855D01*
X8515928Y-58295760D01*
X8533486Y-58305412D01*
X8549745Y-58316093D01*
X8565574Y-58328371D01*
X8608348Y-58346880D01*
X8613566Y-58349436D01*
X8654418Y-58371895D01*
X8673826Y-58376878D01*
X8692227Y-58383178D01*
X8710614Y-58391135D01*
X8753998Y-58398006D01*
X8756629Y-58398423D01*
X8762349Y-58399607D01*
X8807491Y-58411198D01*
X8827526Y-58411198D01*
X8846924Y-58412724D01*
X8866704Y-58415857D01*
X8866705Y-58415858D01*
X8866705Y-58415857D01*
X8866706Y-58415858D01*
X8913093Y-58411473D01*
X8918932Y-58411198D01*
X44138850Y-58411198D01*
X44205889Y-58430883D01*
X44226531Y-58447517D01*
X47598181Y-61819167D01*
X47631666Y-61880490D01*
X47634500Y-61906848D01*
X47634500Y-64825811D01*
X47614815Y-64892850D01*
X47581623Y-64927386D01*
X47420859Y-65039953D01*
X47259954Y-65200858D01*
X47129432Y-65387265D01*
X47129431Y-65387267D01*
X47102382Y-65445275D01*
X47056209Y-65497714D01*
X46989016Y-65516866D01*
X46922135Y-65496650D01*
X46877618Y-65445275D01*
X46850570Y-65387271D01*
X46850568Y-65387266D01*
X46720047Y-65200861D01*
X46720045Y-65200858D01*
X46559141Y-65039954D01*
X46372734Y-64909432D01*
X46372732Y-64909431D01*
X46166497Y-64813261D01*
X46166488Y-64813258D01*
X45946697Y-64754366D01*
X45946693Y-64754365D01*
X45946692Y-64754365D01*
X45946691Y-64754364D01*
X45946686Y-64754364D01*
X45720002Y-64734532D01*
X45719998Y-64734532D01*
X45493313Y-64754364D01*
X45493302Y-64754366D01*
X45273511Y-64813258D01*
X45273502Y-64813261D01*
X45067267Y-64909431D01*
X45067265Y-64909432D01*
X44880858Y-65039954D01*
X44719954Y-65200858D01*
X44589432Y-65387265D01*
X44589431Y-65387267D01*
X44562382Y-65445275D01*
X44516209Y-65497714D01*
X44449016Y-65516866D01*
X44382135Y-65496650D01*
X44337618Y-65445275D01*
X44310570Y-65387271D01*
X44310568Y-65387266D01*
X44180047Y-65200861D01*
X44180045Y-65200858D01*
X44019141Y-65039954D01*
X43832734Y-64909432D01*
X43832732Y-64909431D01*
X43626497Y-64813261D01*
X43626488Y-64813258D01*
X43406697Y-64754366D01*
X43406693Y-64754365D01*
X43406692Y-64754365D01*
X43406691Y-64754364D01*
X43406686Y-64754364D01*
X43180002Y-64734532D01*
X43179998Y-64734532D01*
X42953313Y-64754364D01*
X42953302Y-64754366D01*
X42733511Y-64813258D01*
X42733502Y-64813261D01*
X42527267Y-64909431D01*
X42527265Y-64909432D01*
X42340858Y-65039954D01*
X42179954Y-65200858D01*
X42049432Y-65387265D01*
X42049430Y-65387268D01*
X42022380Y-65445277D01*
X41976207Y-65497715D01*
X41909013Y-65516866D01*
X41842132Y-65496649D01*
X41797619Y-65445277D01*
X41770568Y-65387266D01*
X41692856Y-65276280D01*
X41640045Y-65200858D01*
X41479141Y-65039954D01*
X41292734Y-64909432D01*
X41292732Y-64909431D01*
X41086497Y-64813261D01*
X41086488Y-64813258D01*
X40866697Y-64754366D01*
X40866693Y-64754365D01*
X40866692Y-64754365D01*
X40866691Y-64754364D01*
X40866686Y-64754364D01*
X40640002Y-64734532D01*
X40639998Y-64734532D01*
X40413313Y-64754364D01*
X40413302Y-64754366D01*
X40193511Y-64813258D01*
X40193502Y-64813261D01*
X39987267Y-64909431D01*
X39987265Y-64909432D01*
X39800858Y-65039954D01*
X39639954Y-65200858D01*
X39509432Y-65387265D01*
X39509431Y-65387267D01*
X39482382Y-65445275D01*
X39436209Y-65497714D01*
X39369016Y-65516866D01*
X39302135Y-65496650D01*
X39257618Y-65445275D01*
X39230570Y-65387271D01*
X39230568Y-65387266D01*
X39100047Y-65200861D01*
X39100045Y-65200858D01*
X38939141Y-65039954D01*
X38752734Y-64909432D01*
X38752732Y-64909431D01*
X38546497Y-64813261D01*
X38546488Y-64813258D01*
X38326697Y-64754366D01*
X38326693Y-64754365D01*
X38326692Y-64754365D01*
X38326691Y-64754364D01*
X38326686Y-64754364D01*
X38100002Y-64734532D01*
X38099998Y-64734532D01*
X37873313Y-64754364D01*
X37873302Y-64754366D01*
X37653511Y-64813258D01*
X37653502Y-64813261D01*
X37447267Y-64909431D01*
X37447265Y-64909432D01*
X37260858Y-65039954D01*
X37099954Y-65200858D01*
X36969432Y-65387265D01*
X36969431Y-65387267D01*
X36942382Y-65445275D01*
X36896209Y-65497714D01*
X36829016Y-65516866D01*
X36762135Y-65496650D01*
X36717618Y-65445275D01*
X36690570Y-65387271D01*
X36690568Y-65387266D01*
X36560047Y-65200861D01*
X36560045Y-65200858D01*
X36399141Y-65039954D01*
X36212734Y-64909432D01*
X36212732Y-64909431D01*
X36006497Y-64813261D01*
X36006488Y-64813258D01*
X35786697Y-64754366D01*
X35786693Y-64754365D01*
X35786692Y-64754365D01*
X35786691Y-64754364D01*
X35786686Y-64754364D01*
X35560002Y-64734532D01*
X35559998Y-64734532D01*
X35333313Y-64754364D01*
X35333302Y-64754366D01*
X35113511Y-64813258D01*
X35113502Y-64813261D01*
X34907267Y-64909431D01*
X34907265Y-64909432D01*
X34720858Y-65039954D01*
X34559954Y-65200858D01*
X34429432Y-65387265D01*
X34429431Y-65387267D01*
X34402382Y-65445275D01*
X34356209Y-65497714D01*
X34289016Y-65516866D01*
X34222135Y-65496650D01*
X34177618Y-65445275D01*
X34150570Y-65387271D01*
X34150568Y-65387266D01*
X34020047Y-65200861D01*
X34020045Y-65200858D01*
X33859141Y-65039954D01*
X33672734Y-64909432D01*
X33672732Y-64909431D01*
X33466497Y-64813261D01*
X33466488Y-64813258D01*
X33246697Y-64754366D01*
X33246693Y-64754365D01*
X33246692Y-64754365D01*
X33246691Y-64754364D01*
X33246686Y-64754364D01*
X33020002Y-64734532D01*
X33019998Y-64734532D01*
X32793313Y-64754364D01*
X32793302Y-64754366D01*
X32573511Y-64813258D01*
X32573502Y-64813261D01*
X32367267Y-64909431D01*
X32367265Y-64909432D01*
X32180858Y-65039954D01*
X32019954Y-65200858D01*
X31889432Y-65387265D01*
X31889431Y-65387267D01*
X31862382Y-65445275D01*
X31816209Y-65497714D01*
X31749016Y-65516866D01*
X31682135Y-65496650D01*
X31637618Y-65445275D01*
X31610570Y-65387271D01*
X31610568Y-65387266D01*
X31480047Y-65200861D01*
X31480045Y-65200858D01*
X31319141Y-65039954D01*
X31132734Y-64909432D01*
X31132732Y-64909431D01*
X30926497Y-64813261D01*
X30926488Y-64813258D01*
X30706697Y-64754366D01*
X30706693Y-64754365D01*
X30706692Y-64754365D01*
X30706691Y-64754364D01*
X30706686Y-64754364D01*
X30480002Y-64734532D01*
X30479998Y-64734532D01*
X30253313Y-64754364D01*
X30253302Y-64754366D01*
X30033511Y-64813258D01*
X30033502Y-64813261D01*
X29827267Y-64909431D01*
X29827265Y-64909432D01*
X29640858Y-65039954D01*
X29479954Y-65200858D01*
X29349432Y-65387265D01*
X29349431Y-65387267D01*
X29322382Y-65445275D01*
X29276209Y-65497714D01*
X29209016Y-65516866D01*
X29142135Y-65496650D01*
X29097618Y-65445275D01*
X29070570Y-65387271D01*
X29070568Y-65387266D01*
X28940047Y-65200861D01*
X28940045Y-65200858D01*
X28779141Y-65039954D01*
X28592734Y-64909432D01*
X28592732Y-64909431D01*
X28386497Y-64813261D01*
X28386488Y-64813258D01*
X28166697Y-64754366D01*
X28166693Y-64754365D01*
X28166692Y-64754365D01*
X28166691Y-64754364D01*
X28166686Y-64754364D01*
X27940002Y-64734532D01*
X27939998Y-64734532D01*
X27713313Y-64754364D01*
X27713302Y-64754366D01*
X27493511Y-64813258D01*
X27493502Y-64813261D01*
X27287267Y-64909431D01*
X27287265Y-64909432D01*
X27100858Y-65039954D01*
X26939954Y-65200858D01*
X26809432Y-65387265D01*
X26809430Y-65387268D01*
X26782380Y-65445277D01*
X26736207Y-65497715D01*
X26669013Y-65516866D01*
X26602132Y-65496649D01*
X26557619Y-65445277D01*
X26530568Y-65387266D01*
X26452856Y-65276280D01*
X26400045Y-65200858D01*
X26239141Y-65039954D01*
X26052734Y-64909432D01*
X26052732Y-64909431D01*
X25846497Y-64813261D01*
X25846488Y-64813258D01*
X25626697Y-64754366D01*
X25626693Y-64754365D01*
X25626692Y-64754365D01*
X25626691Y-64754364D01*
X25626686Y-64754364D01*
X25400002Y-64734532D01*
X25399998Y-64734532D01*
X25173313Y-64754364D01*
X25173302Y-64754366D01*
X24953511Y-64813258D01*
X24953502Y-64813261D01*
X24747267Y-64909431D01*
X24747265Y-64909432D01*
X24560858Y-65039954D01*
X24399954Y-65200858D01*
X24269432Y-65387265D01*
X24269431Y-65387267D01*
X24242382Y-65445275D01*
X24196209Y-65497714D01*
X24129016Y-65516866D01*
X24062135Y-65496650D01*
X24017618Y-65445275D01*
X23990570Y-65387271D01*
X23990568Y-65387266D01*
X23860047Y-65200861D01*
X23860045Y-65200858D01*
X23699141Y-65039954D01*
X23512734Y-64909432D01*
X23512732Y-64909431D01*
X23306497Y-64813261D01*
X23306488Y-64813258D01*
X23086697Y-64754366D01*
X23086693Y-64754365D01*
X23086692Y-64754365D01*
X23086691Y-64754364D01*
X23086686Y-64754364D01*
X22860002Y-64734532D01*
X22859998Y-64734532D01*
X22633313Y-64754364D01*
X22633302Y-64754366D01*
X22413511Y-64813258D01*
X22413502Y-64813261D01*
X22207267Y-64909431D01*
X22207265Y-64909432D01*
X22020858Y-65039954D01*
X21859954Y-65200858D01*
X21729432Y-65387265D01*
X21729431Y-65387267D01*
X21702382Y-65445275D01*
X21656209Y-65497714D01*
X21589016Y-65516866D01*
X21522135Y-65496650D01*
X21477618Y-65445275D01*
X21450570Y-65387271D01*
X21450568Y-65387266D01*
X21320047Y-65200861D01*
X21320045Y-65200858D01*
X21159141Y-65039954D01*
X20972734Y-64909432D01*
X20972732Y-64909431D01*
X20766497Y-64813261D01*
X20766488Y-64813258D01*
X20546697Y-64754366D01*
X20546693Y-64754365D01*
X20546692Y-64754365D01*
X20546691Y-64754364D01*
X20546686Y-64754364D01*
X20320002Y-64734532D01*
X20319998Y-64734532D01*
X20093313Y-64754364D01*
X20093302Y-64754366D01*
X19873511Y-64813258D01*
X19873502Y-64813261D01*
X19667267Y-64909431D01*
X19667265Y-64909432D01*
X19480858Y-65039954D01*
X19319954Y-65200858D01*
X19189432Y-65387265D01*
X19189431Y-65387267D01*
X19162382Y-65445275D01*
X19116209Y-65497714D01*
X19049016Y-65516866D01*
X18982135Y-65496650D01*
X18937618Y-65445275D01*
X18910570Y-65387271D01*
X18910568Y-65387266D01*
X18780047Y-65200861D01*
X18780045Y-65200858D01*
X18619141Y-65039954D01*
X18432734Y-64909432D01*
X18432732Y-64909431D01*
X18226497Y-64813261D01*
X18226488Y-64813258D01*
X18006697Y-64754366D01*
X18006693Y-64754365D01*
X18006692Y-64754365D01*
X18006691Y-64754364D01*
X18006686Y-64754364D01*
X17780002Y-64734532D01*
X17779998Y-64734532D01*
X17553313Y-64754364D01*
X17553302Y-64754366D01*
X17333511Y-64813258D01*
X17333502Y-64813261D01*
X17127267Y-64909431D01*
X17127265Y-64909432D01*
X16940858Y-65039954D01*
X16779954Y-65200858D01*
X16649432Y-65387265D01*
X16649430Y-65387268D01*
X16622380Y-65445277D01*
X16576207Y-65497715D01*
X16509013Y-65516866D01*
X16442132Y-65496649D01*
X16397619Y-65445277D01*
X16370568Y-65387266D01*
X16292856Y-65276280D01*
X16240045Y-65200858D01*
X16079141Y-65039954D01*
X15892734Y-64909432D01*
X15892732Y-64909431D01*
X15686497Y-64813261D01*
X15686488Y-64813258D01*
X15466697Y-64754366D01*
X15466693Y-64754365D01*
X15466692Y-64754365D01*
X15466691Y-64754364D01*
X15466686Y-64754364D01*
X15240002Y-64734532D01*
X15239998Y-64734532D01*
X15013313Y-64754364D01*
X15013302Y-64754366D01*
X14793511Y-64813258D01*
X14793502Y-64813261D01*
X14587267Y-64909431D01*
X14587265Y-64909432D01*
X14400858Y-65039954D01*
X14239954Y-65200858D01*
X14222725Y-65225464D01*
X14168147Y-65269088D01*
X14098648Y-65276280D01*
X14036294Y-65244757D01*
X14000882Y-65184526D01*
X13997861Y-65167591D01*
X13994091Y-65132516D01*
X13943797Y-64997671D01*
X13943793Y-64997664D01*
X13857547Y-64882455D01*
X13857544Y-64882452D01*
X13742335Y-64796206D01*
X13742328Y-64796202D01*
X13607482Y-64745908D01*
X13607483Y-64745908D01*
X13547883Y-64739501D01*
X13547881Y-64739500D01*
X13547873Y-64739500D01*
X13547864Y-64739500D01*
X11852129Y-64739500D01*
X11852123Y-64739501D01*
X11792516Y-64745908D01*
X11657671Y-64796202D01*
X11657664Y-64796206D01*
X11542455Y-64882452D01*
X11542452Y-64882455D01*
X11456206Y-64997664D01*
X11456202Y-64997671D01*
X11405908Y-65132517D01*
X11399501Y-65192116D01*
X11399500Y-65192135D01*
X11399500Y-66887870D01*
X11399501Y-66887876D01*
X11405908Y-66947483D01*
X11456202Y-67082328D01*
X11456206Y-67082335D01*
X11542452Y-67197544D01*
X11542455Y-67197547D01*
X11657664Y-67283793D01*
X11657671Y-67283797D01*
X11792517Y-67334091D01*
X11792516Y-67334091D01*
X11799444Y-67334835D01*
X11852127Y-67340500D01*
X13547872Y-67340499D01*
X13607483Y-67334091D01*
X13742331Y-67283796D01*
X13857546Y-67197546D01*
X13943796Y-67082331D01*
X13994091Y-66947483D01*
X13997862Y-66912401D01*
X14024599Y-66847855D01*
X14081990Y-66808006D01*
X14151816Y-66805511D01*
X14211905Y-66841163D01*
X14222726Y-66854536D01*
X14239956Y-66879143D01*
X14400858Y-67040045D01*
X14400861Y-67040047D01*
X14587266Y-67170568D01*
X14793504Y-67266739D01*
X15013308Y-67325635D01*
X15175230Y-67339801D01*
X15239998Y-67345468D01*
X15240000Y-67345468D01*
X15240002Y-67345468D01*
X15296807Y-67340498D01*
X15466692Y-67325635D01*
X15686496Y-67266739D01*
X15892734Y-67170568D01*
X16079139Y-67040047D01*
X16240047Y-66879139D01*
X16370568Y-66692734D01*
X16397619Y-66634721D01*
X16443788Y-66582286D01*
X16510981Y-66563133D01*
X16577862Y-66583348D01*
X16622380Y-66634722D01*
X16649432Y-66692734D01*
X16705316Y-66772546D01*
X16779954Y-66879141D01*
X16940858Y-67040045D01*
X16940861Y-67040047D01*
X17127266Y-67170568D01*
X17333504Y-67266739D01*
X17553308Y-67325635D01*
X17715230Y-67339801D01*
X17779998Y-67345468D01*
X17780000Y-67345468D01*
X17780002Y-67345468D01*
X17836807Y-67340498D01*
X18006692Y-67325635D01*
X18226496Y-67266739D01*
X18432734Y-67170568D01*
X18619139Y-67040047D01*
X18780047Y-66879139D01*
X18910568Y-66692734D01*
X18937618Y-66634724D01*
X18983790Y-66582285D01*
X19050983Y-66563133D01*
X19117865Y-66583348D01*
X19162382Y-66634725D01*
X19189429Y-66692728D01*
X19189432Y-66692734D01*
X19319954Y-66879141D01*
X19480858Y-67040045D01*
X19480861Y-67040047D01*
X19667266Y-67170568D01*
X19873504Y-67266739D01*
X20093308Y-67325635D01*
X20255230Y-67339801D01*
X20319998Y-67345468D01*
X20320000Y-67345468D01*
X20320002Y-67345468D01*
X20376807Y-67340498D01*
X20546692Y-67325635D01*
X20766496Y-67266739D01*
X20972734Y-67170568D01*
X21159139Y-67040047D01*
X21320047Y-66879139D01*
X21450568Y-66692734D01*
X21477618Y-66634724D01*
X21523790Y-66582285D01*
X21590983Y-66563133D01*
X21657865Y-66583348D01*
X21702382Y-66634725D01*
X21729429Y-66692728D01*
X21729432Y-66692734D01*
X21859954Y-66879141D01*
X22020858Y-67040045D01*
X22020861Y-67040047D01*
X22207266Y-67170568D01*
X22413504Y-67266739D01*
X22633308Y-67325635D01*
X22795230Y-67339801D01*
X22859998Y-67345468D01*
X22860000Y-67345468D01*
X22860002Y-67345468D01*
X22916807Y-67340498D01*
X23086692Y-67325635D01*
X23306496Y-67266739D01*
X23512734Y-67170568D01*
X23699139Y-67040047D01*
X23860047Y-66879139D01*
X23990568Y-66692734D01*
X24017618Y-66634724D01*
X24063790Y-66582285D01*
X24130983Y-66563133D01*
X24197865Y-66583348D01*
X24242382Y-66634725D01*
X24269429Y-66692728D01*
X24269432Y-66692734D01*
X24399954Y-66879141D01*
X24560858Y-67040045D01*
X24560861Y-67040047D01*
X24747266Y-67170568D01*
X24953504Y-67266739D01*
X25173308Y-67325635D01*
X25335230Y-67339801D01*
X25399998Y-67345468D01*
X25400000Y-67345468D01*
X25400002Y-67345468D01*
X25456807Y-67340498D01*
X25626692Y-67325635D01*
X25846496Y-67266739D01*
X26052734Y-67170568D01*
X26239139Y-67040047D01*
X26400047Y-66879139D01*
X26530568Y-66692734D01*
X26557618Y-66634724D01*
X26603790Y-66582285D01*
X26670983Y-66563133D01*
X26737865Y-66583348D01*
X26782382Y-66634725D01*
X26809429Y-66692728D01*
X26809432Y-66692734D01*
X26939954Y-66879141D01*
X27100858Y-67040045D01*
X27100861Y-67040047D01*
X27287266Y-67170568D01*
X27493504Y-67266739D01*
X27713308Y-67325635D01*
X27875230Y-67339801D01*
X27939998Y-67345468D01*
X27940000Y-67345468D01*
X27940002Y-67345468D01*
X27996807Y-67340498D01*
X28166692Y-67325635D01*
X28386496Y-67266739D01*
X28592734Y-67170568D01*
X28779139Y-67040047D01*
X28940047Y-66879139D01*
X29070568Y-66692734D01*
X29097618Y-66634724D01*
X29143790Y-66582285D01*
X29210983Y-66563133D01*
X29277865Y-66583348D01*
X29322382Y-66634725D01*
X29349429Y-66692728D01*
X29349432Y-66692734D01*
X29479954Y-66879141D01*
X29640858Y-67040045D01*
X29640861Y-67040047D01*
X29827266Y-67170568D01*
X30033504Y-67266739D01*
X30253308Y-67325635D01*
X30415230Y-67339801D01*
X30479998Y-67345468D01*
X30480000Y-67345468D01*
X30480002Y-67345468D01*
X30536807Y-67340498D01*
X30706692Y-67325635D01*
X30926496Y-67266739D01*
X31132734Y-67170568D01*
X31319139Y-67040047D01*
X31480047Y-66879139D01*
X31610568Y-66692734D01*
X31637619Y-66634721D01*
X31683788Y-66582286D01*
X31750981Y-66563133D01*
X31817862Y-66583348D01*
X31862380Y-66634722D01*
X31889432Y-66692734D01*
X31945317Y-66772546D01*
X32019954Y-66879141D01*
X32180858Y-67040045D01*
X32180861Y-67040047D01*
X32367266Y-67170568D01*
X32573504Y-67266739D01*
X32793308Y-67325635D01*
X32955230Y-67339801D01*
X33019998Y-67345468D01*
X33020000Y-67345468D01*
X33020002Y-67345468D01*
X33076807Y-67340498D01*
X33246692Y-67325635D01*
X33466496Y-67266739D01*
X33672734Y-67170568D01*
X33859139Y-67040047D01*
X34020047Y-66879139D01*
X34150568Y-66692734D01*
X34177618Y-66634724D01*
X34223790Y-66582285D01*
X34290983Y-66563133D01*
X34357865Y-66583348D01*
X34402382Y-66634725D01*
X34429429Y-66692728D01*
X34429432Y-66692734D01*
X34559954Y-66879141D01*
X34720858Y-67040045D01*
X34720861Y-67040047D01*
X34907266Y-67170568D01*
X35113504Y-67266739D01*
X35333308Y-67325635D01*
X35495230Y-67339801D01*
X35559998Y-67345468D01*
X35560000Y-67345468D01*
X35560002Y-67345468D01*
X35616807Y-67340498D01*
X35786692Y-67325635D01*
X36006496Y-67266739D01*
X36212734Y-67170568D01*
X36399139Y-67040047D01*
X36560047Y-66879139D01*
X36690568Y-66692734D01*
X36717618Y-66634724D01*
X36763790Y-66582285D01*
X36830983Y-66563133D01*
X36897865Y-66583348D01*
X36942382Y-66634725D01*
X36969429Y-66692728D01*
X36969432Y-66692734D01*
X37099954Y-66879141D01*
X37260858Y-67040045D01*
X37260861Y-67040047D01*
X37447266Y-67170568D01*
X37653504Y-67266739D01*
X37873308Y-67325635D01*
X38035230Y-67339801D01*
X38099998Y-67345468D01*
X38100000Y-67345468D01*
X38100002Y-67345468D01*
X38156807Y-67340498D01*
X38326692Y-67325635D01*
X38546496Y-67266739D01*
X38752734Y-67170568D01*
X38939139Y-67040047D01*
X39100047Y-66879139D01*
X39230568Y-66692734D01*
X39257618Y-66634724D01*
X39303790Y-66582285D01*
X39370983Y-66563133D01*
X39437865Y-66583348D01*
X39482382Y-66634725D01*
X39509429Y-66692728D01*
X39509432Y-66692734D01*
X39639954Y-66879141D01*
X39800858Y-67040045D01*
X39800861Y-67040047D01*
X39987266Y-67170568D01*
X40193504Y-67266739D01*
X40413308Y-67325635D01*
X40575230Y-67339801D01*
X40639998Y-67345468D01*
X40640000Y-67345468D01*
X40640002Y-67345468D01*
X40696807Y-67340498D01*
X40866692Y-67325635D01*
X41086496Y-67266739D01*
X41292734Y-67170568D01*
X41479139Y-67040047D01*
X41640047Y-66879139D01*
X41770568Y-66692734D01*
X41797618Y-66634724D01*
X41843790Y-66582285D01*
X41910983Y-66563133D01*
X41977865Y-66583348D01*
X42022382Y-66634725D01*
X42049429Y-66692728D01*
X42049432Y-66692734D01*
X42179954Y-66879141D01*
X42340858Y-67040045D01*
X42340861Y-67040047D01*
X42527266Y-67170568D01*
X42733504Y-67266739D01*
X42953308Y-67325635D01*
X43115230Y-67339801D01*
X43179998Y-67345468D01*
X43180000Y-67345468D01*
X43180002Y-67345468D01*
X43236807Y-67340498D01*
X43406692Y-67325635D01*
X43626496Y-67266739D01*
X43832734Y-67170568D01*
X44019139Y-67040047D01*
X44180047Y-66879139D01*
X44310568Y-66692734D01*
X44337618Y-66634724D01*
X44383790Y-66582285D01*
X44450983Y-66563133D01*
X44517865Y-66583348D01*
X44562382Y-66634725D01*
X44589429Y-66692728D01*
X44589432Y-66692734D01*
X44719954Y-66879141D01*
X44880858Y-67040045D01*
X44880861Y-67040047D01*
X45067266Y-67170568D01*
X45273504Y-67266739D01*
X45493308Y-67325635D01*
X45655230Y-67339801D01*
X45719998Y-67345468D01*
X45720000Y-67345468D01*
X45720002Y-67345468D01*
X45776807Y-67340498D01*
X45946692Y-67325635D01*
X46166496Y-67266739D01*
X46372734Y-67170568D01*
X46559139Y-67040047D01*
X46720047Y-66879139D01*
X46850568Y-66692734D01*
X46877618Y-66634724D01*
X46923790Y-66582285D01*
X46990983Y-66563133D01*
X47057865Y-66583348D01*
X47102382Y-66634725D01*
X47129429Y-66692728D01*
X47129432Y-66692734D01*
X47259954Y-66879141D01*
X47420858Y-67040045D01*
X47420861Y-67040047D01*
X47607266Y-67170568D01*
X47813504Y-67266739D01*
X48033308Y-67325635D01*
X48195230Y-67339801D01*
X48259998Y-67345468D01*
X48260000Y-67345468D01*
X48260002Y-67345468D01*
X48316807Y-67340498D01*
X48486692Y-67325635D01*
X48706496Y-67266739D01*
X48912734Y-67170568D01*
X49099139Y-67040047D01*
X49260047Y-66879139D01*
X49390568Y-66692734D01*
X49417618Y-66634724D01*
X49463790Y-66582285D01*
X49530983Y-66563133D01*
X49597865Y-66583348D01*
X49642382Y-66634725D01*
X49669429Y-66692728D01*
X49669432Y-66692734D01*
X49799954Y-66879141D01*
X49960858Y-67040045D01*
X49960861Y-67040047D01*
X50147266Y-67170568D01*
X50353504Y-67266739D01*
X50573308Y-67325635D01*
X50735230Y-67339801D01*
X50799998Y-67345468D01*
X50800000Y-67345468D01*
X50800002Y-67345468D01*
X50856807Y-67340498D01*
X51026692Y-67325635D01*
X51246496Y-67266739D01*
X51452734Y-67170568D01*
X51639139Y-67040047D01*
X51800047Y-66879139D01*
X51930568Y-66692734D01*
X51957619Y-66634721D01*
X52003788Y-66582286D01*
X52070981Y-66563133D01*
X52137862Y-66583348D01*
X52182380Y-66634722D01*
X52209432Y-66692734D01*
X52265316Y-66772546D01*
X52339954Y-66879141D01*
X52500858Y-67040045D01*
X52500861Y-67040047D01*
X52687266Y-67170568D01*
X52893504Y-67266739D01*
X53113308Y-67325635D01*
X53275230Y-67339801D01*
X53339998Y-67345468D01*
X53340000Y-67345468D01*
X53340002Y-67345468D01*
X53396807Y-67340498D01*
X53566692Y-67325635D01*
X53786496Y-67266739D01*
X53992734Y-67170568D01*
X54179139Y-67040047D01*
X54340047Y-66879139D01*
X54470568Y-66692734D01*
X54497618Y-66634724D01*
X54543790Y-66582285D01*
X54610983Y-66563133D01*
X54677865Y-66583348D01*
X54722382Y-66634725D01*
X54749429Y-66692728D01*
X54749432Y-66692734D01*
X54879954Y-66879141D01*
X55040858Y-67040045D01*
X55040861Y-67040047D01*
X55227266Y-67170568D01*
X55433504Y-67266739D01*
X55653308Y-67325635D01*
X55815230Y-67339801D01*
X55879998Y-67345468D01*
X55880000Y-67345468D01*
X55880002Y-67345468D01*
X55936807Y-67340498D01*
X56106692Y-67325635D01*
X56326496Y-67266739D01*
X56532734Y-67170568D01*
X56719139Y-67040047D01*
X56880047Y-66879139D01*
X57010568Y-66692734D01*
X57037618Y-66634724D01*
X57083790Y-66582285D01*
X57150983Y-66563133D01*
X57217865Y-66583348D01*
X57262382Y-66634725D01*
X57289429Y-66692728D01*
X57289432Y-66692734D01*
X57419954Y-66879141D01*
X57580858Y-67040045D01*
X57580861Y-67040047D01*
X57767266Y-67170568D01*
X57973504Y-67266739D01*
X58193308Y-67325635D01*
X58355230Y-67339801D01*
X58419998Y-67345468D01*
X58420000Y-67345468D01*
X58420002Y-67345468D01*
X58476807Y-67340498D01*
X58646692Y-67325635D01*
X58866496Y-67266739D01*
X59072734Y-67170568D01*
X59259139Y-67040047D01*
X59420047Y-66879139D01*
X59550568Y-66692734D01*
X59577895Y-66634129D01*
X59624064Y-66581695D01*
X59691257Y-66562542D01*
X59758139Y-66582757D01*
X59802657Y-66634133D01*
X59829865Y-66692482D01*
X59960342Y-66878820D01*
X60121179Y-67039657D01*
X60307517Y-67170134D01*
X60513673Y-67266265D01*
X60513679Y-67266268D01*
X60709998Y-67318871D01*
X60709999Y-67318871D01*
X60709999Y-66355685D01*
X60721955Y-66367641D01*
X60834852Y-66425165D01*
X60928519Y-66440000D01*
X60991481Y-66440000D01*
X61085148Y-66425165D01*
X61198045Y-66367641D01*
X61210000Y-66355685D01*
X61210000Y-67318872D01*
X61406317Y-67266269D01*
X61406326Y-67266265D01*
X61612482Y-67170134D01*
X61798820Y-67039657D01*
X61959657Y-66878820D01*
X62090134Y-66692482D01*
X62186265Y-66486326D01*
X62186269Y-66486317D01*
X62238872Y-66290000D01*
X61275686Y-66290000D01*
X61287641Y-66278045D01*
X61345165Y-66165148D01*
X61364986Y-66040000D01*
X61345165Y-65914852D01*
X61287641Y-65801955D01*
X61275686Y-65790000D01*
X62238872Y-65790000D01*
X62238872Y-65789999D01*
X62186269Y-65593682D01*
X62186265Y-65593673D01*
X62090134Y-65387517D01*
X61959657Y-65201179D01*
X61798820Y-65040342D01*
X61612482Y-64909865D01*
X61406328Y-64813734D01*
X61210000Y-64761127D01*
X61210000Y-65724314D01*
X61198045Y-65712359D01*
X61085148Y-65654835D01*
X60991481Y-65640000D01*
X60928519Y-65640000D01*
X60834852Y-65654835D01*
X60721955Y-65712359D01*
X60709999Y-65724314D01*
X60709999Y-64761127D01*
X60513672Y-64813734D01*
X60307517Y-64909865D01*
X60121179Y-65040342D01*
X59960342Y-65201179D01*
X59829867Y-65387515D01*
X59802657Y-65445867D01*
X59756484Y-65498306D01*
X59689290Y-65517457D01*
X59622409Y-65497241D01*
X59577893Y-65445865D01*
X59577617Y-65445274D01*
X59550568Y-65387266D01*
X59420047Y-65200861D01*
X59420045Y-65200858D01*
X59259141Y-65039954D01*
X59072734Y-64909432D01*
X59072732Y-64909431D01*
X58866497Y-64813261D01*
X58866488Y-64813258D01*
X58646697Y-64754366D01*
X58646693Y-64754365D01*
X58646692Y-64754365D01*
X58646691Y-64754364D01*
X58646686Y-64754364D01*
X58420002Y-64734532D01*
X58419998Y-64734532D01*
X58193313Y-64754364D01*
X58193302Y-64754366D01*
X57973511Y-64813258D01*
X57973502Y-64813261D01*
X57767267Y-64909431D01*
X57767265Y-64909432D01*
X57580858Y-65039954D01*
X57419954Y-65200858D01*
X57289432Y-65387265D01*
X57289431Y-65387267D01*
X57262382Y-65445275D01*
X57216209Y-65497714D01*
X57149016Y-65516866D01*
X57082135Y-65496650D01*
X57037618Y-65445275D01*
X57010570Y-65387271D01*
X57010568Y-65387266D01*
X56880047Y-65200861D01*
X56880045Y-65200858D01*
X56719141Y-65039954D01*
X56532734Y-64909432D01*
X56532732Y-64909431D01*
X56326497Y-64813261D01*
X56326488Y-64813258D01*
X56106697Y-64754366D01*
X56106693Y-64754365D01*
X56106692Y-64754365D01*
X56106691Y-64754364D01*
X56106686Y-64754364D01*
X55880002Y-64734532D01*
X55879999Y-64734532D01*
X55653313Y-64754364D01*
X55653296Y-64754367D01*
X55584949Y-64772680D01*
X55515099Y-64771016D01*
X55465177Y-64740586D01*
X46310803Y-55586212D01*
X46300980Y-55573950D01*
X46300759Y-55574134D01*
X46295786Y-55568123D01*
X46245364Y-55520773D01*
X46234919Y-55510328D01*
X46224475Y-55499883D01*
X46218986Y-55495625D01*
X46214561Y-55491847D01*
X46180582Y-55459938D01*
X46180580Y-55459936D01*
X46180577Y-55459935D01*
X46163029Y-55450288D01*
X46146763Y-55439604D01*
X46130932Y-55427324D01*
X46088169Y-55408818D01*
X46082923Y-55406248D01*
X46051685Y-55389076D01*
X46002420Y-55339531D01*
X45987761Y-55271217D01*
X45988096Y-55267487D01*
X45990460Y-55245000D01*
X45970674Y-55056744D01*
X45912179Y-54876716D01*
X45817533Y-54712784D01*
X45690871Y-54572112D01*
X45690870Y-54572111D01*
X45537734Y-54460851D01*
X45537729Y-54460848D01*
X45364807Y-54383857D01*
X45364802Y-54383855D01*
X45219001Y-54352865D01*
X45179646Y-54344500D01*
X44990354Y-54344500D01*
X44957897Y-54351398D01*
X44805197Y-54383855D01*
X44805192Y-54383857D01*
X44632270Y-54460848D01*
X44632265Y-54460851D01*
X44479130Y-54572110D01*
X44479126Y-54572114D01*
X44473400Y-54578474D01*
X44413913Y-54615121D01*
X44381252Y-54619500D01*
X10228748Y-54619500D01*
X10161709Y-54599815D01*
X10136600Y-54578474D01*
X10130873Y-54572114D01*
X10130869Y-54572110D01*
X9977734Y-54460851D01*
X9977729Y-54460848D01*
X9804807Y-54383857D01*
X9804802Y-54383855D01*
X9659001Y-54352865D01*
X9619646Y-54344500D01*
X9430354Y-54344500D01*
X9397897Y-54351398D01*
X9245197Y-54383855D01*
X9245192Y-54383857D01*
X9072270Y-54460848D01*
X9072265Y-54460851D01*
X8919129Y-54572111D01*
X8792205Y-54713075D01*
X8732718Y-54749724D01*
X8662861Y-54748393D01*
X8612374Y-54717784D01*
X4566819Y-50672228D01*
X4533334Y-50610905D01*
X4530500Y-50584547D01*
X4530500Y-44654499D01*
X4550185Y-44587460D01*
X4602989Y-44541705D01*
X4654500Y-44530499D01*
X5977871Y-44530499D01*
X5977872Y-44530499D01*
X6037483Y-44524091D01*
X6172331Y-44473796D01*
X6287546Y-44387546D01*
X6373796Y-44272331D01*
X6423002Y-44140401D01*
X6464872Y-44084468D01*
X6530337Y-44060050D01*
X6598610Y-44074901D01*
X6626865Y-44096053D01*
X6748917Y-44218105D01*
X6942421Y-44353600D01*
X7156507Y-44453429D01*
X7156516Y-44453433D01*
X7370000Y-44510634D01*
X7370000Y-43615501D01*
X7477685Y-43664680D01*
X7584237Y-43680000D01*
X7655763Y-43680000D01*
X7762315Y-43664680D01*
X7869999Y-43615501D01*
X7869999Y-44510633D01*
X8083483Y-44453433D01*
X8083492Y-44453429D01*
X8297578Y-44353600D01*
X8491082Y-44218105D01*
X8658105Y-44051082D01*
X8793600Y-43857578D01*
X8893429Y-43643492D01*
X8893432Y-43643486D01*
X8950636Y-43430000D01*
X8053686Y-43430000D01*
X8079493Y-43389844D01*
X8120000Y-43251889D01*
X8120000Y-43108111D01*
X8079493Y-42970156D01*
X8053686Y-42930000D01*
X8950636Y-42930000D01*
X8950635Y-42929999D01*
X8893432Y-42716513D01*
X8893429Y-42716507D01*
X8793600Y-42502422D01*
X8793599Y-42502420D01*
X8658113Y-42308926D01*
X8658108Y-42308920D01*
X8491082Y-42141894D01*
X8304968Y-42011575D01*
X8261344Y-41956998D01*
X8254151Y-41887499D01*
X8285673Y-41825145D01*
X8304968Y-41808425D01*
X8491082Y-41678105D01*
X8658105Y-41511082D01*
X8793600Y-41317578D01*
X8893429Y-41103492D01*
X8893432Y-41103486D01*
X8950636Y-40890000D01*
X8053686Y-40890000D01*
X8079493Y-40849844D01*
X8120000Y-40711889D01*
X8120000Y-40568111D01*
X8079493Y-40430156D01*
X8053686Y-40390000D01*
X8974048Y-40390000D01*
X9041087Y-40409685D01*
X9061727Y-40426317D01*
X10232892Y-41597483D01*
X11400586Y-42765177D01*
X11434071Y-42826500D01*
X11432680Y-42884949D01*
X11414367Y-42953296D01*
X11414364Y-42953313D01*
X11394532Y-43179999D01*
X11394532Y-43180001D01*
X11414364Y-43406686D01*
X11414366Y-43406697D01*
X11473258Y-43626488D01*
X11473261Y-43626497D01*
X11569431Y-43832732D01*
X11569432Y-43832734D01*
X11699954Y-44019141D01*
X11860858Y-44180045D01*
X11860861Y-44180047D01*
X12047266Y-44310568D01*
X12253504Y-44406739D01*
X12473308Y-44465635D01*
X12635230Y-44479801D01*
X12699998Y-44485468D01*
X12700000Y-44485468D01*
X12700002Y-44485468D01*
X12756673Y-44480509D01*
X12926692Y-44465635D01*
X13146496Y-44406739D01*
X13352734Y-44310568D01*
X13539139Y-44180047D01*
X13700047Y-44019139D01*
X13830568Y-43832734D01*
X13926739Y-43626496D01*
X13985635Y-43406692D01*
X14005468Y-43180000D01*
X13985635Y-42953308D01*
X13926739Y-42733504D01*
X13830568Y-42527266D01*
X13700047Y-42340861D01*
X13700045Y-42340858D01*
X13539141Y-42179954D01*
X13352734Y-42049432D01*
X13352728Y-42049429D01*
X13294725Y-42022382D01*
X13242285Y-41976210D01*
X13223133Y-41909017D01*
X13243348Y-41842135D01*
X13294725Y-41797618D01*
X13352734Y-41770568D01*
X13539139Y-41640047D01*
X13700047Y-41479139D01*
X13830568Y-41292734D01*
X13926739Y-41086496D01*
X13985635Y-40866692D01*
X14005468Y-40640000D01*
X13985635Y-40413308D01*
X13926739Y-40193504D01*
X13830568Y-39987266D01*
X13700047Y-39800861D01*
X13700045Y-39800858D01*
X13539141Y-39639954D01*
X13352734Y-39509432D01*
X13352728Y-39509429D01*
X13294725Y-39482382D01*
X13242285Y-39436210D01*
X13223133Y-39369017D01*
X13243348Y-39302135D01*
X13294725Y-39257618D01*
X13352734Y-39230568D01*
X13539139Y-39100047D01*
X13700047Y-38939139D01*
X13830568Y-38752734D01*
X13926739Y-38546496D01*
X13985635Y-38326692D01*
X14005468Y-38100000D01*
X13985635Y-37873308D01*
X13926739Y-37653504D01*
X13830568Y-37447266D01*
X13700047Y-37260861D01*
X13700045Y-37260858D01*
X13539141Y-37099954D01*
X13352734Y-36969432D01*
X13352728Y-36969429D01*
X13294725Y-36942382D01*
X13242285Y-36896210D01*
X13223133Y-36829017D01*
X13243348Y-36762135D01*
X13294725Y-36717618D01*
X13352734Y-36690568D01*
X13539139Y-36560047D01*
X13700047Y-36399139D01*
X13830568Y-36212734D01*
X13926739Y-36006496D01*
X13985635Y-35786692D01*
X14005468Y-35560000D01*
X13985635Y-35333308D01*
X13931265Y-35130395D01*
X13926741Y-35113511D01*
X13926738Y-35113502D01*
X13906974Y-35071119D01*
X13830568Y-34907266D01*
X13700047Y-34720861D01*
X13700045Y-34720858D01*
X13539141Y-34559954D01*
X13352734Y-34429432D01*
X13352732Y-34429431D01*
X13146497Y-34333261D01*
X13146488Y-34333258D01*
X12926697Y-34274366D01*
X12926693Y-34274365D01*
X12926692Y-34274365D01*
X12926691Y-34274364D01*
X12926686Y-34274364D01*
X12700002Y-34254532D01*
X12699999Y-34254532D01*
X12473313Y-34274364D01*
X12473296Y-34274367D01*
X12404949Y-34292680D01*
X12335099Y-34291016D01*
X12285177Y-34260586D01*
X8960237Y-30935646D01*
X8926752Y-30874323D01*
X8928142Y-30815876D01*
X8955063Y-30715408D01*
X8975659Y-30480000D01*
X8955063Y-30244592D01*
X8893903Y-30016337D01*
X8794035Y-29802171D01*
X8658495Y-29608599D01*
X8658494Y-29608597D01*
X8491402Y-29441506D01*
X8491395Y-29441501D01*
X8297834Y-29305967D01*
X8297830Y-29305965D01*
X8297829Y-29305964D01*
X8083663Y-29206097D01*
X8083659Y-29206096D01*
X8083655Y-29206094D01*
X7855413Y-29144938D01*
X7855403Y-29144936D01*
X7620001Y-29124341D01*
X7619999Y-29124341D01*
X7384596Y-29144936D01*
X7384586Y-29144938D01*
X7156344Y-29206094D01*
X7156335Y-29206098D01*
X6942171Y-29305964D01*
X6942169Y-29305965D01*
X6748600Y-29441503D01*
X6626673Y-29563430D01*
X6565350Y-29596914D01*
X6495658Y-29591930D01*
X6439725Y-29550058D01*
X6422810Y-29519081D01*
X6373797Y-29387671D01*
X6373793Y-29387664D01*
X6287547Y-29272455D01*
X6287544Y-29272452D01*
X6172335Y-29186206D01*
X6172328Y-29186202D01*
X6037482Y-29135908D01*
X6037483Y-29135908D01*
X5977883Y-29129501D01*
X5977881Y-29129500D01*
X5977873Y-29129500D01*
X5977864Y-29129500D01*
X4182129Y-29129500D01*
X4182123Y-29129501D01*
X4122516Y-29135908D01*
X3987671Y-29186202D01*
X3987664Y-29186206D01*
X3872455Y-29272452D01*
X3872452Y-29272455D01*
X3786206Y-29387664D01*
X3786202Y-29387671D01*
X3735908Y-29522517D01*
X3729501Y-29582116D01*
X3729500Y-29582135D01*
X3729500Y-30894545D01*
X3709815Y-30961584D01*
X3693181Y-30982226D01*
X2171208Y-32504199D01*
X2158951Y-32514020D01*
X2159134Y-32514241D01*
X2153123Y-32519213D01*
X2105772Y-32569636D01*
X2084889Y-32590519D01*
X2084877Y-32590532D01*
X2080621Y-32596017D01*
X2076837Y-32600447D01*
X2044937Y-32634418D01*
X2044936Y-32634420D01*
X2035284Y-32651976D01*
X2024610Y-32668226D01*
X2012329Y-32684061D01*
X2012324Y-32684068D01*
X1993815Y-32726838D01*
X1991245Y-32732084D01*
X1968803Y-32772906D01*
X1963822Y-32792307D01*
X1957521Y-32810710D01*
X1949562Y-32829102D01*
X1949561Y-32829105D01*
X1942271Y-32875127D01*
X1941087Y-32880846D01*
X1929501Y-32925972D01*
X1929500Y-32925982D01*
X1929500Y-32946016D01*
X1927973Y-32965415D01*
X1924840Y-32985194D01*
X1924840Y-32985195D01*
X635000Y-32985195D01*
X635000Y-23495000D01*
X5444540Y-23495000D01*
X5464326Y-23683256D01*
X5464327Y-23683259D01*
X5522818Y-23863277D01*
X5522821Y-23863284D01*
X5617467Y-24027216D01*
X5715119Y-24135669D01*
X5744129Y-24167888D01*
X5897265Y-24279148D01*
X5897270Y-24279151D01*
X6070192Y-24356142D01*
X6070197Y-24356144D01*
X6255354Y-24395500D01*
X6255355Y-24395500D01*
X6444644Y-24395500D01*
X6444646Y-24395500D01*
X6629803Y-24356144D01*
X6802730Y-24279151D01*
X6955871Y-24167888D01*
X6958788Y-24164647D01*
X6961600Y-24161526D01*
X7021087Y-24124879D01*
X7053748Y-24120500D01*
X11386651Y-24120500D01*
X11453690Y-24140185D01*
X11499445Y-24192989D01*
X11509389Y-24262147D01*
X11485917Y-24318812D01*
X11456647Y-24357910D01*
X11456645Y-24357913D01*
X11406403Y-24492620D01*
X11406401Y-24492627D01*
X11400000Y-24552155D01*
X11400000Y-25150000D01*
X12384314Y-25150000D01*
X12372359Y-25161955D01*
X12314835Y-25274852D01*
X12295014Y-25400000D01*
X12314835Y-25525148D01*
X12372359Y-25638045D01*
X12384314Y-25650000D01*
X11400000Y-25650000D01*
X11400000Y-26247844D01*
X11406401Y-26307372D01*
X11406403Y-26307379D01*
X11456645Y-26442086D01*
X11456649Y-26442093D01*
X11542809Y-26557187D01*
X11560902Y-26570731D01*
X11602774Y-26626664D01*
X11607760Y-26696356D01*
X11574275Y-26757679D01*
X11560907Y-26769263D01*
X11542812Y-26782809D01*
X11542809Y-26782812D01*
X11456649Y-26897906D01*
X11456645Y-26897913D01*
X11406403Y-27032620D01*
X11406401Y-27032627D01*
X11400000Y-27092155D01*
X11400000Y-27690000D01*
X12384314Y-27690000D01*
X12372359Y-27701955D01*
X12314835Y-27814852D01*
X12295014Y-27940000D01*
X12314835Y-28065148D01*
X12372359Y-28178045D01*
X12384314Y-28190000D01*
X11400000Y-28190000D01*
X11400000Y-28787844D01*
X11406401Y-28847372D01*
X11406403Y-28847379D01*
X11456645Y-28982086D01*
X11456649Y-28982093D01*
X11542809Y-29097187D01*
X11542812Y-29097190D01*
X11657906Y-29183350D01*
X11657913Y-29183354D01*
X11792620Y-29233596D01*
X11792627Y-29233598D01*
X11852155Y-29239999D01*
X11852172Y-29240000D01*
X12450000Y-29240000D01*
X12450000Y-28255686D01*
X12461955Y-28267641D01*
X12574852Y-28325165D01*
X12668519Y-28340000D01*
X12731481Y-28340000D01*
X12825148Y-28325165D01*
X12938045Y-28267641D01*
X12950000Y-28255686D01*
X12950000Y-29240000D01*
X13547828Y-29240000D01*
X13547844Y-29239999D01*
X13607372Y-29233598D01*
X13607379Y-29233596D01*
X13742086Y-29183354D01*
X13742093Y-29183350D01*
X13857187Y-29097190D01*
X13857190Y-29097187D01*
X13943350Y-28982093D01*
X13943354Y-28982086D01*
X13993596Y-28847380D01*
X13997424Y-28811781D01*
X14024162Y-28747230D01*
X14081555Y-28707382D01*
X14151380Y-28704888D01*
X14211469Y-28740540D01*
X14222289Y-28753912D01*
X14239956Y-28779143D01*
X14400858Y-28940045D01*
X14400861Y-28940047D01*
X14587266Y-29070568D01*
X14793504Y-29166739D01*
X15013308Y-29225635D01*
X15175230Y-29239801D01*
X15239998Y-29245468D01*
X15240000Y-29245468D01*
X15240002Y-29245468D01*
X15302511Y-29239999D01*
X15466692Y-29225635D01*
X15686496Y-29166739D01*
X15892734Y-29070568D01*
X16079139Y-28940047D01*
X16240047Y-28779139D01*
X16370568Y-28592734D01*
X16397618Y-28534724D01*
X16443790Y-28482285D01*
X16510983Y-28463133D01*
X16577865Y-28483348D01*
X16622382Y-28534725D01*
X16649429Y-28592728D01*
X16649432Y-28592734D01*
X16779954Y-28779141D01*
X16940858Y-28940045D01*
X16940861Y-28940047D01*
X17127266Y-29070568D01*
X17333504Y-29166739D01*
X17553308Y-29225635D01*
X17715230Y-29239801D01*
X17779998Y-29245468D01*
X17780000Y-29245468D01*
X17780002Y-29245468D01*
X17842511Y-29239999D01*
X18006692Y-29225635D01*
X18226496Y-29166739D01*
X18432734Y-29070568D01*
X18619139Y-28940047D01*
X18780047Y-28779139D01*
X18910568Y-28592734D01*
X18937618Y-28534724D01*
X18983790Y-28482285D01*
X19050983Y-28463133D01*
X19117865Y-28483348D01*
X19162382Y-28534725D01*
X19189429Y-28592728D01*
X19189432Y-28592734D01*
X19319954Y-28779141D01*
X19480858Y-28940045D01*
X19480861Y-28940047D01*
X19667266Y-29070568D01*
X19873504Y-29166739D01*
X20093308Y-29225635D01*
X20255230Y-29239801D01*
X20319998Y-29245468D01*
X20320000Y-29245468D01*
X20320002Y-29245468D01*
X20382511Y-29239999D01*
X20546692Y-29225635D01*
X20766496Y-29166739D01*
X20972734Y-29070568D01*
X21159139Y-28940047D01*
X21320047Y-28779139D01*
X21450568Y-28592734D01*
X21477618Y-28534724D01*
X21523790Y-28482285D01*
X21590983Y-28463133D01*
X21657865Y-28483348D01*
X21702382Y-28534725D01*
X21729429Y-28592728D01*
X21729432Y-28592734D01*
X21859954Y-28779141D01*
X22020858Y-28940045D01*
X22020861Y-28940047D01*
X22207266Y-29070568D01*
X22413504Y-29166739D01*
X22633308Y-29225635D01*
X22795230Y-29239801D01*
X22859998Y-29245468D01*
X22860000Y-29245468D01*
X22860002Y-29245468D01*
X22922511Y-29239999D01*
X23086692Y-29225635D01*
X23306496Y-29166739D01*
X23512734Y-29070568D01*
X23699139Y-28940047D01*
X23860047Y-28779139D01*
X23990568Y-28592734D01*
X24017618Y-28534724D01*
X24063790Y-28482285D01*
X24130983Y-28463133D01*
X24197865Y-28483348D01*
X24242382Y-28534725D01*
X24269429Y-28592728D01*
X24269432Y-28592734D01*
X24399954Y-28779141D01*
X24560858Y-28940045D01*
X24560861Y-28940047D01*
X24747266Y-29070568D01*
X24953504Y-29166739D01*
X25173308Y-29225635D01*
X25335230Y-29239801D01*
X25399998Y-29245468D01*
X25400000Y-29245468D01*
X25400002Y-29245468D01*
X25462511Y-29239999D01*
X25626692Y-29225635D01*
X25846496Y-29166739D01*
X26052734Y-29070568D01*
X26195213Y-28970804D01*
X26243574Y-28936942D01*
X26244919Y-28938863D01*
X26299784Y-28914843D01*
X26368778Y-28925872D01*
X26420856Y-28972451D01*
X26439500Y-29037843D01*
X26439500Y-31395500D01*
X26419815Y-31462539D01*
X26367011Y-31508294D01*
X26315500Y-31519500D01*
X22957018Y-31519500D01*
X22949342Y-31519023D01*
X22926307Y-31516152D01*
X22922221Y-31515643D01*
X22922220Y-31515643D01*
X22828974Y-31519500D01*
X22797933Y-31519500D01*
X22773181Y-31521550D01*
X22766993Y-31522063D01*
X22673765Y-31525919D01*
X22647020Y-31531527D01*
X22639412Y-31532635D01*
X22612179Y-31534891D01*
X22539984Y-31553173D01*
X22521702Y-31557803D01*
X22501581Y-31562022D01*
X22430392Y-31576949D01*
X22430380Y-31576953D01*
X22404935Y-31586881D01*
X22397616Y-31589226D01*
X22371120Y-31595936D01*
X22371115Y-31595937D01*
X22285651Y-31633425D01*
X22214374Y-31661238D01*
X22198726Y-31667345D01*
X22198724Y-31667345D01*
X22198724Y-31667346D01*
X22198717Y-31667349D01*
X22175248Y-31681332D01*
X22168417Y-31684848D01*
X22143395Y-31695826D01*
X22065272Y-31746865D01*
X21985103Y-31794635D01*
X21964250Y-31812297D01*
X21958087Y-31816892D01*
X21935215Y-31831835D01*
X21935212Y-31831838D01*
X21866552Y-31895044D01*
X21842870Y-31915102D01*
X21820934Y-31937038D01*
X21752261Y-32000257D01*
X21752256Y-32000262D01*
X21735472Y-32021826D01*
X21730383Y-32027589D01*
X21080930Y-32677041D01*
X21012261Y-32740257D01*
X21012256Y-32740262D01*
X20995472Y-32761826D01*
X20990383Y-32767589D01*
X19327588Y-34430382D01*
X19321827Y-34435471D01*
X19300256Y-34452262D01*
X19237049Y-34520922D01*
X19215102Y-34542869D01*
X19215098Y-34542874D01*
X19195033Y-34566564D01*
X19165099Y-34599081D01*
X19131834Y-34635216D01*
X19116892Y-34658087D01*
X19112297Y-34664250D01*
X19094635Y-34685104D01*
X19046860Y-34765278D01*
X18995828Y-34843390D01*
X18995824Y-34843397D01*
X18984853Y-34868409D01*
X18981335Y-34875244D01*
X18967348Y-34898717D01*
X18967343Y-34898726D01*
X18933420Y-34985663D01*
X18895935Y-35071123D01*
X18889226Y-35097616D01*
X18886881Y-35104935D01*
X18876953Y-35130379D01*
X18876948Y-35130395D01*
X18857801Y-35221711D01*
X18834892Y-35312175D01*
X18834890Y-35312185D01*
X18832635Y-35339408D01*
X18831526Y-35347016D01*
X18825920Y-35373750D01*
X18825919Y-35373763D01*
X18822062Y-35467009D01*
X18821278Y-35476479D01*
X18819500Y-35497936D01*
X18819500Y-35528964D01*
X18815642Y-35622219D01*
X18815642Y-35622220D01*
X18819023Y-35649342D01*
X18819500Y-35657018D01*
X18819500Y-46317109D01*
X18799815Y-46384148D01*
X18783181Y-46404790D01*
X18464791Y-46723181D01*
X18403468Y-46756666D01*
X18377110Y-46759500D01*
X14205649Y-46759500D01*
X14197977Y-46759024D01*
X14170851Y-46755643D01*
X14170849Y-46755643D01*
X14077595Y-46759500D01*
X14046563Y-46759500D01*
X14015638Y-46762062D01*
X14015639Y-46762062D01*
X13922395Y-46765918D01*
X13922381Y-46765920D01*
X13895647Y-46771526D01*
X13888039Y-46772635D01*
X13860815Y-46774890D01*
X13860805Y-46774892D01*
X13788445Y-46793216D01*
X13770355Y-46797797D01*
X13756385Y-46800726D01*
X13679020Y-46816948D01*
X13679005Y-46816953D01*
X13653550Y-46826886D01*
X13646229Y-46829231D01*
X13619749Y-46835937D01*
X13619743Y-46835939D01*
X13534297Y-46873419D01*
X13447353Y-46907345D01*
X13423877Y-46921333D01*
X13417043Y-46924851D01*
X13392018Y-46935829D01*
X13392015Y-46935830D01*
X13313905Y-46986862D01*
X13233731Y-47034637D01*
X13212880Y-47052297D01*
X13206717Y-47056892D01*
X13183845Y-47071835D01*
X13183842Y-47071838D01*
X13115184Y-47135042D01*
X13091501Y-47155101D01*
X13069564Y-47177038D01*
X13000891Y-47240257D01*
X13000886Y-47240262D01*
X12984102Y-47261826D01*
X12979013Y-47267589D01*
X11707588Y-48539012D01*
X11701827Y-48544101D01*
X11680256Y-48560892D01*
X11617049Y-48629552D01*
X11595102Y-48651499D01*
X11595098Y-48651504D01*
X11575033Y-48675194D01*
X11544641Y-48708208D01*
X11511834Y-48743846D01*
X11496892Y-48766717D01*
X11492297Y-48772880D01*
X11474635Y-48793734D01*
X11426860Y-48873908D01*
X11375828Y-48952020D01*
X11375824Y-48952027D01*
X11364853Y-48977039D01*
X11361335Y-48983874D01*
X11347348Y-49007347D01*
X11347343Y-49007356D01*
X11313420Y-49094293D01*
X11275935Y-49179753D01*
X11269226Y-49206246D01*
X11266881Y-49213565D01*
X11256953Y-49239009D01*
X11256948Y-49239025D01*
X11237801Y-49330341D01*
X11214892Y-49420805D01*
X11214890Y-49420815D01*
X11212635Y-49448038D01*
X11211526Y-49455646D01*
X11205920Y-49482380D01*
X11205919Y-49482393D01*
X11202062Y-49575639D01*
X11199500Y-49606566D01*
X11199500Y-49637594D01*
X11195642Y-49730849D01*
X11195642Y-49730850D01*
X11199023Y-49757972D01*
X11199500Y-49765648D01*
X11199500Y-50862065D01*
X11214890Y-51047813D01*
X11214892Y-51047824D01*
X11275936Y-51288881D01*
X11375826Y-51516606D01*
X11511833Y-51724782D01*
X11511836Y-51724785D01*
X11680256Y-51907738D01*
X11876491Y-52060474D01*
X12095190Y-52178828D01*
X12330386Y-52259571D01*
X12575665Y-52300500D01*
X12824335Y-52300500D01*
X13069614Y-52259571D01*
X13304810Y-52178828D01*
X13523509Y-52060474D01*
X13719744Y-51907738D01*
X13888164Y-51724785D01*
X13986957Y-51573569D01*
X14040103Y-51528213D01*
X14109334Y-51518789D01*
X14172670Y-51548291D01*
X14192341Y-51570268D01*
X14240339Y-51638817D01*
X14401179Y-51799657D01*
X14587517Y-51930134D01*
X14793673Y-52026265D01*
X14793682Y-52026269D01*
X14989999Y-52078872D01*
X14990000Y-52078871D01*
X14990000Y-51115686D01*
X15001955Y-51127641D01*
X15114852Y-51185165D01*
X15208519Y-51200000D01*
X15271481Y-51200000D01*
X15365148Y-51185165D01*
X15478045Y-51127641D01*
X15490000Y-51115686D01*
X15490000Y-52078872D01*
X15686317Y-52026269D01*
X15686326Y-52026265D01*
X15892482Y-51930134D01*
X16078820Y-51799657D01*
X16239657Y-51638820D01*
X16370132Y-51452484D01*
X16397341Y-51394134D01*
X16443513Y-51341695D01*
X16510707Y-51322542D01*
X16577588Y-51342757D01*
X16622105Y-51394132D01*
X16644088Y-51441275D01*
X16649431Y-51452732D01*
X16649432Y-51452734D01*
X16779954Y-51639141D01*
X16940858Y-51800045D01*
X16940861Y-51800047D01*
X17127266Y-51930568D01*
X17333504Y-52026739D01*
X17553308Y-52085635D01*
X17715230Y-52099801D01*
X17779998Y-52105468D01*
X17780000Y-52105468D01*
X17780002Y-52105468D01*
X17836673Y-52100509D01*
X18006692Y-52085635D01*
X18226496Y-52026739D01*
X18432734Y-51930568D01*
X18619139Y-51800047D01*
X18780047Y-51639139D01*
X18910568Y-51452734D01*
X18937618Y-51394724D01*
X18983790Y-51342285D01*
X19050983Y-51323133D01*
X19117865Y-51343348D01*
X19162381Y-51394724D01*
X19176517Y-51425038D01*
X19189429Y-51452728D01*
X19189432Y-51452734D01*
X19319954Y-51639141D01*
X19480858Y-51800045D01*
X19480861Y-51800047D01*
X19667266Y-51930568D01*
X19873504Y-52026739D01*
X20093308Y-52085635D01*
X20255230Y-52099801D01*
X20319998Y-52105468D01*
X20320000Y-52105468D01*
X20320002Y-52105468D01*
X20376673Y-52100509D01*
X20546692Y-52085635D01*
X20766496Y-52026739D01*
X20972734Y-51930568D01*
X21159139Y-51800047D01*
X21320047Y-51639139D01*
X21450568Y-51452734D01*
X21477619Y-51394721D01*
X21523788Y-51342286D01*
X21590981Y-51323133D01*
X21657862Y-51343348D01*
X21702380Y-51394722D01*
X21729432Y-51452734D01*
X21785317Y-51532546D01*
X21859954Y-51639141D01*
X22020858Y-51800045D01*
X22020861Y-51800047D01*
X22207266Y-51930568D01*
X22413504Y-52026739D01*
X22633308Y-52085635D01*
X22795230Y-52099801D01*
X22859998Y-52105468D01*
X22860000Y-52105468D01*
X22860002Y-52105468D01*
X22916673Y-52100509D01*
X23086692Y-52085635D01*
X23306496Y-52026739D01*
X23512734Y-51930568D01*
X23699139Y-51800047D01*
X23860047Y-51639139D01*
X23990568Y-51452734D01*
X24017618Y-51394724D01*
X24063790Y-51342285D01*
X24130983Y-51323133D01*
X24197865Y-51343348D01*
X24242381Y-51394724D01*
X24256517Y-51425038D01*
X24269429Y-51452728D01*
X24269432Y-51452734D01*
X24399954Y-51639141D01*
X24560858Y-51800045D01*
X24560861Y-51800047D01*
X24747266Y-51930568D01*
X24953504Y-52026739D01*
X25173308Y-52085635D01*
X25335230Y-52099801D01*
X25399998Y-52105468D01*
X25400000Y-52105468D01*
X25400002Y-52105468D01*
X25456672Y-52100509D01*
X25626692Y-52085635D01*
X25846496Y-52026739D01*
X26052734Y-51930568D01*
X26239139Y-51800047D01*
X26400047Y-51639139D01*
X26530568Y-51452734D01*
X26557619Y-51394721D01*
X26603788Y-51342286D01*
X26670981Y-51323133D01*
X26737862Y-51343348D01*
X26782380Y-51394722D01*
X26809432Y-51452734D01*
X26865317Y-51532546D01*
X26939954Y-51639141D01*
X27100858Y-51800045D01*
X27100861Y-51800047D01*
X27287266Y-51930568D01*
X27493504Y-52026739D01*
X27713308Y-52085635D01*
X27875230Y-52099801D01*
X27939998Y-52105468D01*
X27940000Y-52105468D01*
X27940002Y-52105468D01*
X27996673Y-52100509D01*
X28166692Y-52085635D01*
X28386496Y-52026739D01*
X28592734Y-51930568D01*
X28779139Y-51800047D01*
X28940047Y-51639139D01*
X29070568Y-51452734D01*
X29097618Y-51394724D01*
X29143790Y-51342285D01*
X29210983Y-51323133D01*
X29277865Y-51343348D01*
X29322381Y-51394724D01*
X29336517Y-51425038D01*
X29349429Y-51452728D01*
X29349432Y-51452734D01*
X29479954Y-51639141D01*
X29640858Y-51800045D01*
X29640861Y-51800047D01*
X29827266Y-51930568D01*
X30033504Y-52026739D01*
X30253308Y-52085635D01*
X30415230Y-52099801D01*
X30479998Y-52105468D01*
X30480000Y-52105468D01*
X30480002Y-52105468D01*
X30536673Y-52100509D01*
X30706692Y-52085635D01*
X30926496Y-52026739D01*
X31132734Y-51930568D01*
X31319139Y-51800047D01*
X31480047Y-51639139D01*
X31610568Y-51452734D01*
X31637618Y-51394724D01*
X31683790Y-51342285D01*
X31750983Y-51323133D01*
X31817865Y-51343348D01*
X31862381Y-51394724D01*
X31876517Y-51425038D01*
X31889429Y-51452728D01*
X31889432Y-51452734D01*
X32019954Y-51639141D01*
X32180858Y-51800045D01*
X32180861Y-51800047D01*
X32367266Y-51930568D01*
X32573504Y-52026739D01*
X32793308Y-52085635D01*
X32955230Y-52099801D01*
X33019998Y-52105468D01*
X33020000Y-52105468D01*
X33020002Y-52105468D01*
X33076673Y-52100509D01*
X33246692Y-52085635D01*
X33466496Y-52026739D01*
X33672734Y-51930568D01*
X33859139Y-51800047D01*
X34020047Y-51639139D01*
X34150568Y-51452734D01*
X34177618Y-51394724D01*
X34223790Y-51342285D01*
X34290983Y-51323133D01*
X34357865Y-51343348D01*
X34402381Y-51394724D01*
X34416517Y-51425038D01*
X34429429Y-51452728D01*
X34429432Y-51452734D01*
X34559954Y-51639141D01*
X34720858Y-51800045D01*
X34720861Y-51800047D01*
X34907266Y-51930568D01*
X35113504Y-52026739D01*
X35333308Y-52085635D01*
X35495230Y-52099801D01*
X35559998Y-52105468D01*
X35560000Y-52105468D01*
X35560002Y-52105468D01*
X35616672Y-52100509D01*
X35786692Y-52085635D01*
X36006496Y-52026739D01*
X36212734Y-51930568D01*
X36399139Y-51800047D01*
X36560047Y-51639139D01*
X36690568Y-51452734D01*
X36717618Y-51394724D01*
X36763790Y-51342285D01*
X36830983Y-51323133D01*
X36897865Y-51343348D01*
X36942381Y-51394724D01*
X36956517Y-51425038D01*
X36969429Y-51452728D01*
X36969432Y-51452734D01*
X37099954Y-51639141D01*
X37260858Y-51800045D01*
X37260861Y-51800047D01*
X37447266Y-51930568D01*
X37653504Y-52026739D01*
X37873308Y-52085635D01*
X38035230Y-52099801D01*
X38099998Y-52105468D01*
X38100000Y-52105468D01*
X38100002Y-52105468D01*
X38156673Y-52100509D01*
X38326692Y-52085635D01*
X38546496Y-52026739D01*
X38752734Y-51930568D01*
X38939139Y-51800047D01*
X39100047Y-51639139D01*
X39230568Y-51452734D01*
X39257618Y-51394724D01*
X39303790Y-51342285D01*
X39370983Y-51323133D01*
X39437865Y-51343348D01*
X39482381Y-51394724D01*
X39496517Y-51425038D01*
X39509429Y-51452728D01*
X39509432Y-51452734D01*
X39639954Y-51639141D01*
X39800858Y-51800045D01*
X39800861Y-51800047D01*
X39987266Y-51930568D01*
X40193504Y-52026739D01*
X40413308Y-52085635D01*
X40575230Y-52099801D01*
X40639998Y-52105468D01*
X40640000Y-52105468D01*
X40640002Y-52105468D01*
X40696673Y-52100509D01*
X40866692Y-52085635D01*
X41086496Y-52026739D01*
X41292734Y-51930568D01*
X41479139Y-51800047D01*
X41640047Y-51639139D01*
X41770568Y-51452734D01*
X41797618Y-51394724D01*
X41843790Y-51342285D01*
X41910983Y-51323133D01*
X41977865Y-51343348D01*
X42022381Y-51394724D01*
X42036517Y-51425038D01*
X42049429Y-51452728D01*
X42049432Y-51452734D01*
X42179954Y-51639141D01*
X42340858Y-51800045D01*
X42340861Y-51800047D01*
X42527266Y-51930568D01*
X42733504Y-52026739D01*
X42953308Y-52085635D01*
X43115230Y-52099801D01*
X43179998Y-52105468D01*
X43180000Y-52105468D01*
X43180002Y-52105468D01*
X43236673Y-52100509D01*
X43406692Y-52085635D01*
X43626496Y-52026739D01*
X43832734Y-51930568D01*
X44019139Y-51800047D01*
X44180047Y-51639139D01*
X44310568Y-51452734D01*
X44337618Y-51394724D01*
X44383790Y-51342285D01*
X44450983Y-51323133D01*
X44517865Y-51343348D01*
X44562381Y-51394724D01*
X44576517Y-51425038D01*
X44589429Y-51452728D01*
X44589432Y-51452734D01*
X44719954Y-51639141D01*
X44880858Y-51800045D01*
X44880861Y-51800047D01*
X45067266Y-51930568D01*
X45273504Y-52026739D01*
X45493308Y-52085635D01*
X45655230Y-52099801D01*
X45719998Y-52105468D01*
X45720000Y-52105468D01*
X45720002Y-52105468D01*
X45776672Y-52100509D01*
X45946692Y-52085635D01*
X46166496Y-52026739D01*
X46372734Y-51930568D01*
X46559139Y-51800047D01*
X46720047Y-51639139D01*
X46850568Y-51452734D01*
X46877895Y-51394129D01*
X46924064Y-51341695D01*
X46991257Y-51322542D01*
X47058139Y-51342757D01*
X47102657Y-51394133D01*
X47129865Y-51452482D01*
X47260342Y-51638820D01*
X47421179Y-51799657D01*
X47607517Y-51930134D01*
X47813673Y-52026265D01*
X47813682Y-52026269D01*
X48009999Y-52078872D01*
X48010000Y-52078871D01*
X48009999Y-51115685D01*
X48021955Y-51127641D01*
X48134852Y-51185165D01*
X48228519Y-51200000D01*
X48291481Y-51200000D01*
X48385148Y-51185165D01*
X48498045Y-51127641D01*
X48510000Y-51115686D01*
X48510000Y-52078872D01*
X48706317Y-52026269D01*
X48706326Y-52026265D01*
X48912482Y-51930134D01*
X49098820Y-51799657D01*
X49259657Y-51638820D01*
X49390132Y-51452484D01*
X49417341Y-51394134D01*
X49463513Y-51341695D01*
X49530707Y-51322542D01*
X49597588Y-51342757D01*
X49642105Y-51394132D01*
X49664088Y-51441275D01*
X49669431Y-51452732D01*
X49669432Y-51452734D01*
X49799954Y-51639141D01*
X49960858Y-51800045D01*
X49960861Y-51800047D01*
X50147266Y-51930568D01*
X50353504Y-52026739D01*
X50573308Y-52085635D01*
X50735230Y-52099801D01*
X50799998Y-52105468D01*
X50800000Y-52105468D01*
X50800002Y-52105468D01*
X50856673Y-52100509D01*
X51026692Y-52085635D01*
X51246496Y-52026739D01*
X51452734Y-51930568D01*
X51639139Y-51800047D01*
X51800047Y-51639139D01*
X51930568Y-51452734D01*
X51957619Y-51394721D01*
X52003788Y-51342286D01*
X52070981Y-51323133D01*
X52137862Y-51343348D01*
X52182380Y-51394722D01*
X52209432Y-51452734D01*
X52265317Y-51532546D01*
X52339954Y-51639141D01*
X52500858Y-51800045D01*
X52500861Y-51800047D01*
X52687266Y-51930568D01*
X52893504Y-52026739D01*
X53113308Y-52085635D01*
X53275230Y-52099801D01*
X53339998Y-52105468D01*
X53340000Y-52105468D01*
X53340002Y-52105468D01*
X53396673Y-52100509D01*
X53566692Y-52085635D01*
X53786496Y-52026739D01*
X53992734Y-51930568D01*
X54179139Y-51800047D01*
X54340047Y-51639139D01*
X54470568Y-51452734D01*
X54497618Y-51394724D01*
X54543790Y-51342285D01*
X54610983Y-51323133D01*
X54677865Y-51343348D01*
X54722381Y-51394724D01*
X54736517Y-51425038D01*
X54749429Y-51452728D01*
X54749432Y-51452734D01*
X54879954Y-51639141D01*
X55040858Y-51800045D01*
X55040861Y-51800047D01*
X55227266Y-51930568D01*
X55433504Y-52026739D01*
X55653308Y-52085635D01*
X55815230Y-52099801D01*
X55879998Y-52105468D01*
X55880000Y-52105468D01*
X55880002Y-52105468D01*
X55936672Y-52100509D01*
X56106692Y-52085635D01*
X56326496Y-52026739D01*
X56532734Y-51930568D01*
X56719139Y-51800047D01*
X56880047Y-51639139D01*
X57010568Y-51452734D01*
X57037618Y-51394724D01*
X57083790Y-51342285D01*
X57150983Y-51323133D01*
X57217865Y-51343348D01*
X57262381Y-51394724D01*
X57276517Y-51425038D01*
X57289429Y-51452728D01*
X57289432Y-51452734D01*
X57419954Y-51639141D01*
X57580858Y-51800045D01*
X57580861Y-51800047D01*
X57767266Y-51930568D01*
X57973504Y-52026739D01*
X58193308Y-52085635D01*
X58355230Y-52099801D01*
X58419998Y-52105468D01*
X58420000Y-52105468D01*
X58420002Y-52105468D01*
X58476673Y-52100509D01*
X58646692Y-52085635D01*
X58866496Y-52026739D01*
X59072734Y-51930568D01*
X59259139Y-51800047D01*
X59420047Y-51639139D01*
X59550568Y-51452734D01*
X59577618Y-51394724D01*
X59623790Y-51342285D01*
X59690983Y-51323133D01*
X59757865Y-51343348D01*
X59802381Y-51394724D01*
X59816517Y-51425038D01*
X59829429Y-51452728D01*
X59829432Y-51452734D01*
X59959954Y-51639141D01*
X60120858Y-51800045D01*
X60120861Y-51800047D01*
X60307266Y-51930568D01*
X60513504Y-52026739D01*
X60733308Y-52085635D01*
X60895230Y-52099801D01*
X60959998Y-52105468D01*
X60960000Y-52105468D01*
X60960002Y-52105468D01*
X61016673Y-52100509D01*
X61186692Y-52085635D01*
X61406496Y-52026739D01*
X61612734Y-51930568D01*
X61799139Y-51800047D01*
X61960047Y-51639139D01*
X62090568Y-51452734D01*
X62186739Y-51246496D01*
X62245635Y-51026692D01*
X62265468Y-50800000D01*
X62245635Y-50573308D01*
X62186739Y-50353504D01*
X62090568Y-50147266D01*
X61960047Y-49960861D01*
X61960045Y-49960858D01*
X61799141Y-49799954D01*
X61612734Y-49669432D01*
X61612732Y-49669431D01*
X61406497Y-49573261D01*
X61406488Y-49573258D01*
X61186697Y-49514366D01*
X61186693Y-49514365D01*
X61186692Y-49514365D01*
X61186691Y-49514364D01*
X61186686Y-49514364D01*
X60960002Y-49494532D01*
X60959998Y-49494532D01*
X60733313Y-49514364D01*
X60733302Y-49514366D01*
X60513511Y-49573258D01*
X60513502Y-49573261D01*
X60307267Y-49669431D01*
X60307265Y-49669432D01*
X60120858Y-49799954D01*
X59959954Y-49960858D01*
X59829432Y-50147265D01*
X59829431Y-50147267D01*
X59802382Y-50205275D01*
X59756209Y-50257714D01*
X59689016Y-50276866D01*
X59622135Y-50256650D01*
X59577618Y-50205275D01*
X59550686Y-50147520D01*
X59550568Y-50147266D01*
X59420047Y-49960861D01*
X59420045Y-49960858D01*
X59259141Y-49799954D01*
X59072734Y-49669432D01*
X59072732Y-49669431D01*
X58866497Y-49573261D01*
X58866488Y-49573258D01*
X58646697Y-49514366D01*
X58646693Y-49514365D01*
X58646692Y-49514365D01*
X58646691Y-49514364D01*
X58646686Y-49514364D01*
X58420002Y-49494532D01*
X58419998Y-49494532D01*
X58193313Y-49514364D01*
X58193302Y-49514366D01*
X57973511Y-49573258D01*
X57973502Y-49573261D01*
X57767267Y-49669431D01*
X57767265Y-49669432D01*
X57580858Y-49799954D01*
X57419954Y-49960858D01*
X57289432Y-50147265D01*
X57289431Y-50147267D01*
X57262382Y-50205275D01*
X57216209Y-50257714D01*
X57149016Y-50276866D01*
X57082135Y-50256650D01*
X57037618Y-50205275D01*
X57010686Y-50147520D01*
X57010568Y-50147266D01*
X56880047Y-49960861D01*
X56880045Y-49960858D01*
X56719141Y-49799954D01*
X56532734Y-49669432D01*
X56532732Y-49669431D01*
X56326497Y-49573261D01*
X56326488Y-49573258D01*
X56106697Y-49514366D01*
X56106693Y-49514365D01*
X56106692Y-49514365D01*
X56106691Y-49514364D01*
X56106686Y-49514364D01*
X55880002Y-49494532D01*
X55879998Y-49494532D01*
X55653313Y-49514364D01*
X55653302Y-49514366D01*
X55433511Y-49573258D01*
X55433502Y-49573261D01*
X55227267Y-49669431D01*
X55227265Y-49669432D01*
X55040858Y-49799954D01*
X54879954Y-49960858D01*
X54749432Y-50147265D01*
X54749431Y-50147267D01*
X54722382Y-50205275D01*
X54676209Y-50257714D01*
X54609016Y-50276866D01*
X54542135Y-50256650D01*
X54497618Y-50205275D01*
X54470686Y-50147520D01*
X54470568Y-50147266D01*
X54340047Y-49960861D01*
X54340045Y-49960858D01*
X54179141Y-49799954D01*
X53992734Y-49669432D01*
X53992732Y-49669431D01*
X53786497Y-49573261D01*
X53786488Y-49573258D01*
X53566697Y-49514366D01*
X53566693Y-49514365D01*
X53566692Y-49514365D01*
X53566691Y-49514364D01*
X53566686Y-49514364D01*
X53340002Y-49494532D01*
X53339998Y-49494532D01*
X53113313Y-49514364D01*
X53113302Y-49514366D01*
X52893511Y-49573258D01*
X52893502Y-49573261D01*
X52687267Y-49669431D01*
X52687265Y-49669432D01*
X52500858Y-49799954D01*
X52339954Y-49960858D01*
X52209432Y-50147265D01*
X52209431Y-50147267D01*
X52182382Y-50205275D01*
X52136209Y-50257714D01*
X52069016Y-50276866D01*
X52002135Y-50256650D01*
X51957618Y-50205275D01*
X51930686Y-50147520D01*
X51930568Y-50147266D01*
X51800047Y-49960861D01*
X51800045Y-49960858D01*
X51639141Y-49799954D01*
X51452734Y-49669432D01*
X51452732Y-49669431D01*
X51246497Y-49573261D01*
X51246488Y-49573258D01*
X51026697Y-49514366D01*
X51026693Y-49514365D01*
X51026692Y-49514365D01*
X51026691Y-49514364D01*
X51026686Y-49514364D01*
X50800002Y-49494532D01*
X50799998Y-49494532D01*
X50573313Y-49514364D01*
X50573302Y-49514366D01*
X50353511Y-49573258D01*
X50353502Y-49573261D01*
X50147267Y-49669431D01*
X50147265Y-49669432D01*
X49960858Y-49799954D01*
X49799954Y-49960858D01*
X49669434Y-50147263D01*
X49669432Y-50147266D01*
X49642383Y-50205274D01*
X49642106Y-50205867D01*
X49595933Y-50258306D01*
X49528739Y-50277457D01*
X49461858Y-50257241D01*
X49417342Y-50205865D01*
X49390135Y-50147520D01*
X49390134Y-50147518D01*
X49259657Y-49961179D01*
X49098820Y-49800342D01*
X48912482Y-49669865D01*
X48706328Y-49573734D01*
X48510000Y-49521127D01*
X48510000Y-50484313D01*
X48498045Y-50472359D01*
X48385148Y-50414835D01*
X48291481Y-50400000D01*
X48228519Y-50400000D01*
X48134852Y-50414835D01*
X48021955Y-50472359D01*
X48009999Y-50484314D01*
X48010000Y-49521127D01*
X47813671Y-49573734D01*
X47607517Y-49669865D01*
X47421179Y-49800342D01*
X47260342Y-49961179D01*
X47129867Y-50147515D01*
X47102657Y-50205867D01*
X47056484Y-50258306D01*
X46989290Y-50277457D01*
X46922409Y-50257241D01*
X46877893Y-50205865D01*
X46877617Y-50205274D01*
X46850568Y-50147266D01*
X46720047Y-49960861D01*
X46720045Y-49960858D01*
X46559141Y-49799954D01*
X46372734Y-49669432D01*
X46372732Y-49669431D01*
X46166497Y-49573261D01*
X46166488Y-49573258D01*
X45946697Y-49514366D01*
X45946693Y-49514365D01*
X45946692Y-49514365D01*
X45946691Y-49514364D01*
X45946686Y-49514364D01*
X45720002Y-49494532D01*
X45719998Y-49494532D01*
X45493313Y-49514364D01*
X45493302Y-49514366D01*
X45273511Y-49573258D01*
X45273502Y-49573261D01*
X45067267Y-49669431D01*
X45067265Y-49669432D01*
X44880858Y-49799954D01*
X44719954Y-49960858D01*
X44589432Y-50147265D01*
X44589431Y-50147267D01*
X44562382Y-50205275D01*
X44516209Y-50257714D01*
X44449016Y-50276866D01*
X44382135Y-50256650D01*
X44337618Y-50205275D01*
X44310686Y-50147520D01*
X44310568Y-50147266D01*
X44180047Y-49960861D01*
X44180045Y-49960858D01*
X44019141Y-49799954D01*
X43832734Y-49669432D01*
X43832732Y-49669431D01*
X43626497Y-49573261D01*
X43626488Y-49573258D01*
X43406697Y-49514366D01*
X43406693Y-49514365D01*
X43406692Y-49514365D01*
X43406691Y-49514364D01*
X43406686Y-49514364D01*
X43180002Y-49494532D01*
X43179998Y-49494532D01*
X42953313Y-49514364D01*
X42953302Y-49514366D01*
X42733511Y-49573258D01*
X42733502Y-49573261D01*
X42527267Y-49669431D01*
X42527265Y-49669432D01*
X42340858Y-49799954D01*
X42179954Y-49960858D01*
X42049432Y-50147265D01*
X42049431Y-50147267D01*
X42022382Y-50205275D01*
X41976209Y-50257714D01*
X41909016Y-50276866D01*
X41842135Y-50256650D01*
X41797618Y-50205275D01*
X41770686Y-50147520D01*
X41770568Y-50147266D01*
X41640047Y-49960861D01*
X41640045Y-49960858D01*
X41479141Y-49799954D01*
X41292734Y-49669432D01*
X41292732Y-49669431D01*
X41086497Y-49573261D01*
X41086488Y-49573258D01*
X40866697Y-49514366D01*
X40866693Y-49514365D01*
X40866692Y-49514365D01*
X40866691Y-49514364D01*
X40866686Y-49514364D01*
X40640002Y-49494532D01*
X40639998Y-49494532D01*
X40413313Y-49514364D01*
X40413302Y-49514366D01*
X40193511Y-49573258D01*
X40193502Y-49573261D01*
X39987267Y-49669431D01*
X39987265Y-49669432D01*
X39800858Y-49799954D01*
X39639954Y-49960858D01*
X39509432Y-50147265D01*
X39509431Y-50147267D01*
X39482382Y-50205275D01*
X39436209Y-50257714D01*
X39369016Y-50276866D01*
X39302135Y-50256650D01*
X39257618Y-50205275D01*
X39230686Y-50147520D01*
X39230568Y-50147266D01*
X39100047Y-49960861D01*
X39100045Y-49960858D01*
X38939141Y-49799954D01*
X38752734Y-49669432D01*
X38752732Y-49669431D01*
X38546497Y-49573261D01*
X38546488Y-49573258D01*
X38326697Y-49514366D01*
X38326693Y-49514365D01*
X38326692Y-49514365D01*
X38326691Y-49514364D01*
X38326686Y-49514364D01*
X38100002Y-49494532D01*
X38099998Y-49494532D01*
X37873313Y-49514364D01*
X37873302Y-49514366D01*
X37653511Y-49573258D01*
X37653502Y-49573261D01*
X37447267Y-49669431D01*
X37447265Y-49669432D01*
X37260858Y-49799954D01*
X37099954Y-49960858D01*
X36969432Y-50147265D01*
X36969431Y-50147267D01*
X36942382Y-50205275D01*
X36896209Y-50257714D01*
X36829016Y-50276866D01*
X36762135Y-50256650D01*
X36717618Y-50205275D01*
X36690686Y-50147520D01*
X36690568Y-50147266D01*
X36560047Y-49960861D01*
X36560045Y-49960858D01*
X36399141Y-49799954D01*
X36212734Y-49669432D01*
X36212732Y-49669431D01*
X36006497Y-49573261D01*
X36006488Y-49573258D01*
X35786697Y-49514366D01*
X35786693Y-49514365D01*
X35786692Y-49514365D01*
X35786691Y-49514364D01*
X35786686Y-49514364D01*
X35560002Y-49494532D01*
X35559998Y-49494532D01*
X35333313Y-49514364D01*
X35333302Y-49514366D01*
X35113511Y-49573258D01*
X35113502Y-49573261D01*
X34907267Y-49669431D01*
X34907265Y-49669432D01*
X34720858Y-49799954D01*
X34559954Y-49960858D01*
X34429432Y-50147265D01*
X34429431Y-50147267D01*
X34402382Y-50205275D01*
X34356209Y-50257714D01*
X34289016Y-50276866D01*
X34222135Y-50256650D01*
X34177618Y-50205275D01*
X34150686Y-50147520D01*
X34150568Y-50147266D01*
X34020047Y-49960861D01*
X34020045Y-49960858D01*
X33859141Y-49799954D01*
X33672734Y-49669432D01*
X33672732Y-49669431D01*
X33466497Y-49573261D01*
X33466488Y-49573258D01*
X33246697Y-49514366D01*
X33246693Y-49514365D01*
X33246692Y-49514365D01*
X33246691Y-49514364D01*
X33246686Y-49514364D01*
X33020002Y-49494532D01*
X33019998Y-49494532D01*
X32793313Y-49514364D01*
X32793302Y-49514366D01*
X32573511Y-49573258D01*
X32573502Y-49573261D01*
X32367267Y-49669431D01*
X32367265Y-49669432D01*
X32180858Y-49799954D01*
X32019954Y-49960858D01*
X31889432Y-50147265D01*
X31889431Y-50147267D01*
X31862382Y-50205275D01*
X31816209Y-50257714D01*
X31749016Y-50276866D01*
X31682135Y-50256650D01*
X31637618Y-50205275D01*
X31610686Y-50147520D01*
X31610568Y-50147266D01*
X31480047Y-49960861D01*
X31480045Y-49960858D01*
X31319141Y-49799954D01*
X31132734Y-49669432D01*
X31132732Y-49669431D01*
X30926497Y-49573261D01*
X30926488Y-49573258D01*
X30706697Y-49514366D01*
X30706693Y-49514365D01*
X30706692Y-49514365D01*
X30706691Y-49514364D01*
X30706686Y-49514364D01*
X30480002Y-49494532D01*
X30479998Y-49494532D01*
X30253313Y-49514364D01*
X30253302Y-49514366D01*
X30033511Y-49573258D01*
X30033502Y-49573261D01*
X29827267Y-49669431D01*
X29827265Y-49669432D01*
X29640858Y-49799954D01*
X29479954Y-49960858D01*
X29349432Y-50147265D01*
X29349431Y-50147267D01*
X29322382Y-50205275D01*
X29276209Y-50257714D01*
X29209016Y-50276866D01*
X29142135Y-50256650D01*
X29097618Y-50205275D01*
X29070686Y-50147520D01*
X29070568Y-50147266D01*
X28940047Y-49960861D01*
X28940045Y-49960858D01*
X28779141Y-49799954D01*
X28592734Y-49669432D01*
X28592732Y-49669431D01*
X28386497Y-49573261D01*
X28386488Y-49573258D01*
X28166697Y-49514366D01*
X28166693Y-49514365D01*
X28166692Y-49514365D01*
X28166691Y-49514364D01*
X28166686Y-49514364D01*
X27940002Y-49494532D01*
X27939998Y-49494532D01*
X27713313Y-49514364D01*
X27713302Y-49514366D01*
X27493511Y-49573258D01*
X27493502Y-49573261D01*
X27287267Y-49669431D01*
X27287265Y-49669432D01*
X27100858Y-49799954D01*
X26939954Y-49960858D01*
X26809432Y-50147265D01*
X26809430Y-50147268D01*
X26782380Y-50205277D01*
X26736207Y-50257715D01*
X26669013Y-50276866D01*
X26602132Y-50256649D01*
X26557619Y-50205277D01*
X26530568Y-50147266D01*
X26400047Y-49960861D01*
X26400045Y-49960858D01*
X26239141Y-49799954D01*
X26052734Y-49669432D01*
X26052732Y-49669431D01*
X25846497Y-49573261D01*
X25846488Y-49573258D01*
X25626697Y-49514366D01*
X25626693Y-49514365D01*
X25626692Y-49514365D01*
X25626691Y-49514364D01*
X25626686Y-49514364D01*
X25400002Y-49494532D01*
X25399998Y-49494532D01*
X25173313Y-49514364D01*
X25173302Y-49514366D01*
X24953511Y-49573258D01*
X24953502Y-49573261D01*
X24747267Y-49669431D01*
X24747265Y-49669432D01*
X24560858Y-49799954D01*
X24399954Y-49960858D01*
X24269432Y-50147265D01*
X24269431Y-50147267D01*
X24242382Y-50205275D01*
X24196209Y-50257714D01*
X24129016Y-50276866D01*
X24062135Y-50256650D01*
X24017618Y-50205275D01*
X23990686Y-50147520D01*
X23990568Y-50147266D01*
X23860047Y-49960861D01*
X23860045Y-49960858D01*
X23699141Y-49799954D01*
X23512734Y-49669432D01*
X23512732Y-49669431D01*
X23306497Y-49573261D01*
X23306488Y-49573258D01*
X23086697Y-49514366D01*
X23086693Y-49514365D01*
X23086692Y-49514365D01*
X23086691Y-49514364D01*
X23086686Y-49514364D01*
X22860002Y-49494532D01*
X22859998Y-49494532D01*
X22633313Y-49514364D01*
X22633302Y-49514366D01*
X22413511Y-49573258D01*
X22413502Y-49573261D01*
X22207267Y-49669431D01*
X22207265Y-49669432D01*
X22020858Y-49799954D01*
X21859954Y-49960858D01*
X21729432Y-50147265D01*
X21729430Y-50147268D01*
X21702380Y-50205277D01*
X21656207Y-50257715D01*
X21589013Y-50276866D01*
X21522132Y-50256649D01*
X21477619Y-50205277D01*
X21450568Y-50147266D01*
X21320047Y-49960861D01*
X21320045Y-49960858D01*
X21159141Y-49799954D01*
X20972734Y-49669432D01*
X20972732Y-49669431D01*
X20766497Y-49573261D01*
X20766488Y-49573258D01*
X20546697Y-49514366D01*
X20546693Y-49514365D01*
X20546692Y-49514365D01*
X20546691Y-49514364D01*
X20546686Y-49514364D01*
X20320002Y-49494532D01*
X20319998Y-49494532D01*
X20245405Y-49501058D01*
X20176905Y-49487291D01*
X20126722Y-49438676D01*
X20110789Y-49370647D01*
X20134164Y-49304804D01*
X20150610Y-49286304D01*
X20157738Y-49279744D01*
X20174530Y-49258167D01*
X20179604Y-49252422D01*
X21312422Y-48119604D01*
X21318167Y-48114530D01*
X21339744Y-48097738D01*
X21402949Y-48029078D01*
X21424902Y-48007126D01*
X21444966Y-47983435D01*
X21508164Y-47914785D01*
X21523117Y-47891894D01*
X21527697Y-47885754D01*
X21545366Y-47864894D01*
X21593139Y-47784720D01*
X21644173Y-47706607D01*
X21655149Y-47681581D01*
X21658659Y-47674761D01*
X21672656Y-47651274D01*
X21706579Y-47564335D01*
X21744063Y-47478881D01*
X21750774Y-47452374D01*
X21753112Y-47445077D01*
X21763049Y-47419614D01*
X21782196Y-47328297D01*
X21805108Y-47237821D01*
X21807364Y-47210583D01*
X21808471Y-47202980D01*
X21814080Y-47176237D01*
X21817936Y-47083005D01*
X21820500Y-47052067D01*
X21820500Y-47021026D01*
X21824357Y-46927779D01*
X21820975Y-46900653D01*
X21820500Y-46892981D01*
X21820500Y-38020002D01*
X26635034Y-38020002D01*
X26654858Y-38246599D01*
X26654860Y-38246610D01*
X26713730Y-38466317D01*
X26713734Y-38466326D01*
X26809865Y-38672481D01*
X26809866Y-38672483D01*
X26860973Y-38745471D01*
X26860974Y-38745472D01*
X27542046Y-38064399D01*
X27554835Y-38145148D01*
X27612359Y-38258045D01*
X27701955Y-38347641D01*
X27814852Y-38405165D01*
X27895599Y-38417953D01*
X27214526Y-39099025D01*
X27214526Y-39099026D01*
X27287512Y-39150131D01*
X27287516Y-39150133D01*
X27493673Y-39246265D01*
X27493682Y-39246269D01*
X27713389Y-39305139D01*
X27713400Y-39305141D01*
X27939998Y-39324966D01*
X27940002Y-39324966D01*
X28166599Y-39305141D01*
X28166610Y-39305139D01*
X28386317Y-39246269D01*
X28386331Y-39246264D01*
X28592478Y-39150136D01*
X28665472Y-39099025D01*
X27984401Y-38417953D01*
X28065148Y-38405165D01*
X28178045Y-38347641D01*
X28267641Y-38258045D01*
X28325165Y-38145148D01*
X28337953Y-38064400D01*
X29019025Y-38745472D01*
X29070136Y-38672478D01*
X29166264Y-38466331D01*
X29166269Y-38466317D01*
X29225139Y-38246610D01*
X29225141Y-38246599D01*
X29244966Y-38020002D01*
X29244966Y-38019997D01*
X29225141Y-37793400D01*
X29225139Y-37793389D01*
X29166269Y-37573682D01*
X29166265Y-37573673D01*
X29070133Y-37367516D01*
X29070131Y-37367512D01*
X29019026Y-37294526D01*
X29019025Y-37294526D01*
X28337953Y-37975598D01*
X28325165Y-37894852D01*
X28267641Y-37781955D01*
X28178045Y-37692359D01*
X28065148Y-37634835D01*
X27984399Y-37622045D01*
X28665472Y-36940973D01*
X28592483Y-36889866D01*
X28592481Y-36889865D01*
X28386326Y-36793734D01*
X28386317Y-36793730D01*
X28166610Y-36734860D01*
X28166599Y-36734858D01*
X27940002Y-36715034D01*
X27939998Y-36715034D01*
X27713400Y-36734858D01*
X27713389Y-36734860D01*
X27493682Y-36793730D01*
X27493673Y-36793734D01*
X27287513Y-36889868D01*
X27214526Y-36940973D01*
X27895598Y-37622046D01*
X27814852Y-37634835D01*
X27701955Y-37692359D01*
X27612359Y-37781955D01*
X27554835Y-37894852D01*
X27542046Y-37975599D01*
X26860973Y-37294526D01*
X26860972Y-37294527D01*
X26809868Y-37367513D01*
X26713734Y-37573673D01*
X26713730Y-37573682D01*
X26654860Y-37793389D01*
X26654858Y-37793400D01*
X26635034Y-38019997D01*
X26635034Y-38020002D01*
X21820500Y-38020002D01*
X21820500Y-36494240D01*
X23549310Y-36494240D01*
X23549311Y-36494241D01*
X23637581Y-36548895D01*
X23637588Y-36548899D01*
X23827678Y-36622539D01*
X24028072Y-36660000D01*
X24231928Y-36660000D01*
X24432321Y-36622539D01*
X24622414Y-36548897D01*
X24710688Y-36494240D01*
X24130001Y-35913553D01*
X24130000Y-35913553D01*
X23549310Y-36494240D01*
X21820500Y-36494240D01*
X21820500Y-36232889D01*
X21840185Y-36165850D01*
X21856819Y-36145208D01*
X22705208Y-35296819D01*
X22766531Y-35263334D01*
X22792889Y-35260500D01*
X22917018Y-35260500D01*
X22984057Y-35280185D01*
X23029812Y-35332989D01*
X23040489Y-35395941D01*
X23025287Y-35559999D01*
X23025287Y-35560000D01*
X23044096Y-35762989D01*
X23044097Y-35762992D01*
X23099883Y-35959063D01*
X23099886Y-35959069D01*
X23190754Y-36141556D01*
X23190755Y-36141557D01*
X23192533Y-36143912D01*
X23834654Y-35501792D01*
X23826105Y-35531840D01*
X23836454Y-35643521D01*
X23886448Y-35743922D01*
X23969334Y-35819484D01*
X24073920Y-35860000D01*
X24157802Y-35860000D01*
X24240250Y-35844588D01*
X24335610Y-35785543D01*
X24403201Y-35696038D01*
X24433895Y-35588160D01*
X24425947Y-35502394D01*
X25067465Y-36143912D01*
X25069247Y-36141552D01*
X25069249Y-36141550D01*
X25160113Y-35959069D01*
X25160116Y-35959063D01*
X25215902Y-35762992D01*
X25215903Y-35762989D01*
X25234713Y-35560000D01*
X25234713Y-35559999D01*
X25215903Y-35357010D01*
X25215902Y-35357008D01*
X25160115Y-35160936D01*
X25160114Y-35160935D01*
X25122310Y-35085015D01*
X25110048Y-35016229D01*
X25134041Y-34955435D01*
X25173796Y-34902331D01*
X25199623Y-34833083D01*
X25231825Y-34785186D01*
X25237738Y-34779744D01*
X25390474Y-34583509D01*
X25390476Y-34583503D01*
X25393284Y-34579208D01*
X25394709Y-34580139D01*
X25438627Y-34535891D01*
X25498461Y-34520500D01*
X28064330Y-34520500D01*
X28064335Y-34520500D01*
X28123233Y-34510670D01*
X28128309Y-34510038D01*
X28187821Y-34505108D01*
X28245722Y-34490445D01*
X28250708Y-34489400D01*
X28309614Y-34479571D01*
X28366096Y-34460179D01*
X28370984Y-34458723D01*
X28428881Y-34444063D01*
X28483560Y-34420077D01*
X28488323Y-34418218D01*
X28544810Y-34398828D01*
X28597327Y-34370405D01*
X28601920Y-34368159D01*
X28656607Y-34344173D01*
X28706593Y-34311515D01*
X28710983Y-34308898D01*
X28763509Y-34280474D01*
X28810649Y-34243782D01*
X28814795Y-34240822D01*
X28864785Y-34208164D01*
X28908720Y-34167717D01*
X28912613Y-34164419D01*
X28959744Y-34127738D01*
X29000206Y-34083783D01*
X29003783Y-34080206D01*
X29047738Y-34039744D01*
X29084419Y-33992613D01*
X29087722Y-33988715D01*
X29098062Y-33977483D01*
X29128164Y-33944785D01*
X29160822Y-33894795D01*
X29163782Y-33890649D01*
X29200474Y-33843509D01*
X29228898Y-33790983D01*
X29231515Y-33786593D01*
X29264172Y-33736608D01*
X29264173Y-33736607D01*
X29288159Y-33681920D01*
X29290406Y-33677327D01*
X29297259Y-33664664D01*
X29318828Y-33624810D01*
X29338218Y-33568323D01*
X29340077Y-33563560D01*
X29364063Y-33508881D01*
X29378723Y-33450984D01*
X29380181Y-33446092D01*
X29387414Y-33425024D01*
X29399571Y-33389614D01*
X29409400Y-33330708D01*
X29410445Y-33325722D01*
X29425108Y-33267821D01*
X29430038Y-33208309D01*
X29430672Y-33203225D01*
X29440500Y-33144335D01*
X29440500Y-32895665D01*
X29440500Y-29037842D01*
X29460185Y-28970804D01*
X29512989Y-28925049D01*
X29582147Y-28915105D01*
X29635126Y-28938798D01*
X29636426Y-28936942D01*
X29684787Y-28970804D01*
X29827266Y-29070568D01*
X30033504Y-29166739D01*
X30253308Y-29225635D01*
X30415230Y-29239801D01*
X30479998Y-29245468D01*
X30480000Y-29245468D01*
X30480002Y-29245468D01*
X30542511Y-29239999D01*
X30706692Y-29225635D01*
X30926496Y-29166739D01*
X31132734Y-29070568D01*
X31319139Y-28940047D01*
X31480047Y-28779139D01*
X31610568Y-28592734D01*
X31637618Y-28534724D01*
X31683790Y-28482285D01*
X31750983Y-28463133D01*
X31817865Y-28483348D01*
X31862382Y-28534725D01*
X31889429Y-28592728D01*
X31889432Y-28592734D01*
X32019954Y-28779141D01*
X32180858Y-28940045D01*
X32180861Y-28940047D01*
X32367266Y-29070568D01*
X32573504Y-29166739D01*
X32793308Y-29225635D01*
X32955230Y-29239801D01*
X33019998Y-29245468D01*
X33020000Y-29245468D01*
X33020002Y-29245468D01*
X33082511Y-29239999D01*
X33246692Y-29225635D01*
X33466496Y-29166739D01*
X33672734Y-29070568D01*
X33859139Y-28940047D01*
X34020047Y-28779139D01*
X34150568Y-28592734D01*
X34177618Y-28534724D01*
X34223790Y-28482285D01*
X34290983Y-28463133D01*
X34357865Y-28483348D01*
X34402382Y-28534725D01*
X34429429Y-28592728D01*
X34429432Y-28592734D01*
X34559954Y-28779141D01*
X34720858Y-28940045D01*
X34720861Y-28940047D01*
X34907266Y-29070568D01*
X35113504Y-29166739D01*
X35333308Y-29225635D01*
X35495230Y-29239801D01*
X35559998Y-29245468D01*
X35560000Y-29245468D01*
X35560002Y-29245468D01*
X35622511Y-29239999D01*
X35786692Y-29225635D01*
X36006496Y-29166739D01*
X36212734Y-29070568D01*
X36399139Y-28940047D01*
X36560047Y-28779139D01*
X36690568Y-28592734D01*
X36717618Y-28534724D01*
X36763790Y-28482285D01*
X36830983Y-28463133D01*
X36897865Y-28483348D01*
X36942382Y-28534725D01*
X36969429Y-28592728D01*
X36969432Y-28592734D01*
X37099954Y-28779141D01*
X37260858Y-28940045D01*
X37260861Y-28940047D01*
X37447266Y-29070568D01*
X37653504Y-29166739D01*
X37873308Y-29225635D01*
X38035230Y-29239801D01*
X38099998Y-29245468D01*
X38100000Y-29245468D01*
X38100002Y-29245468D01*
X38162511Y-29239999D01*
X38326692Y-29225635D01*
X38546496Y-29166739D01*
X38752734Y-29070568D01*
X38939139Y-28940047D01*
X39100047Y-28779139D01*
X39230568Y-28592734D01*
X39257618Y-28534724D01*
X39303790Y-28482285D01*
X39370983Y-28463133D01*
X39437865Y-28483348D01*
X39482382Y-28534725D01*
X39509429Y-28592728D01*
X39509432Y-28592734D01*
X39639954Y-28779141D01*
X39800858Y-28940045D01*
X39800861Y-28940047D01*
X39987266Y-29070568D01*
X40193504Y-29166739D01*
X40413308Y-29225635D01*
X40575230Y-29239801D01*
X40639998Y-29245468D01*
X40640000Y-29245468D01*
X40640002Y-29245468D01*
X40702511Y-29239999D01*
X40866692Y-29225635D01*
X41086496Y-29166739D01*
X41292734Y-29070568D01*
X41479139Y-28940047D01*
X41640047Y-28779139D01*
X41770568Y-28592734D01*
X41797618Y-28534724D01*
X41843790Y-28482285D01*
X41910983Y-28463133D01*
X41977865Y-28483348D01*
X42022382Y-28534725D01*
X42049429Y-28592728D01*
X42049432Y-28592734D01*
X42179954Y-28779141D01*
X42340858Y-28940045D01*
X42340861Y-28940047D01*
X42527266Y-29070568D01*
X42733504Y-29166739D01*
X42953308Y-29225635D01*
X43115230Y-29239801D01*
X43179998Y-29245468D01*
X43180000Y-29245468D01*
X43180002Y-29245468D01*
X43242511Y-29239999D01*
X43406692Y-29225635D01*
X43626496Y-29166739D01*
X43832734Y-29070568D01*
X44019139Y-28940047D01*
X44180047Y-28779139D01*
X44310568Y-28592734D01*
X44337618Y-28534724D01*
X44383790Y-28482285D01*
X44450983Y-28463133D01*
X44517865Y-28483348D01*
X44562382Y-28534725D01*
X44589429Y-28592728D01*
X44589432Y-28592734D01*
X44719954Y-28779141D01*
X44880858Y-28940045D01*
X44880861Y-28940047D01*
X45067266Y-29070568D01*
X45273504Y-29166739D01*
X45493308Y-29225635D01*
X45655230Y-29239801D01*
X45719998Y-29245468D01*
X45720000Y-29245468D01*
X45720002Y-29245468D01*
X45782511Y-29239999D01*
X45946692Y-29225635D01*
X46166496Y-29166739D01*
X46372734Y-29070568D01*
X46559139Y-28940047D01*
X46720047Y-28779139D01*
X46850568Y-28592734D01*
X46877618Y-28534724D01*
X46923790Y-28482285D01*
X46990983Y-28463133D01*
X47057865Y-28483348D01*
X47102382Y-28534725D01*
X47129429Y-28592728D01*
X47129432Y-28592734D01*
X47259954Y-28779141D01*
X47420858Y-28940045D01*
X47420861Y-28940047D01*
X47607266Y-29070568D01*
X47813504Y-29166739D01*
X48033308Y-29225635D01*
X48195230Y-29239801D01*
X48259998Y-29245468D01*
X48260000Y-29245468D01*
X48260002Y-29245468D01*
X48322511Y-29239999D01*
X48486692Y-29225635D01*
X48706496Y-29166739D01*
X48912734Y-29070568D01*
X49099139Y-28940047D01*
X49260047Y-28779139D01*
X49390568Y-28592734D01*
X49417619Y-28534721D01*
X49463788Y-28482286D01*
X49530981Y-28463133D01*
X49597862Y-28483348D01*
X49642380Y-28534722D01*
X49669432Y-28592734D01*
X49669433Y-28592735D01*
X49799954Y-28779141D01*
X49960858Y-28940045D01*
X49960861Y-28940047D01*
X50147266Y-29070568D01*
X50353504Y-29166739D01*
X50573308Y-29225635D01*
X50735230Y-29239801D01*
X50799998Y-29245468D01*
X50800000Y-29245468D01*
X50800002Y-29245468D01*
X50862511Y-29239999D01*
X51026692Y-29225635D01*
X51246496Y-29166739D01*
X51452734Y-29070568D01*
X51639139Y-28940047D01*
X51800047Y-28779139D01*
X51930568Y-28592734D01*
X51957619Y-28534721D01*
X52003788Y-28482286D01*
X52070981Y-28463133D01*
X52137862Y-28483348D01*
X52182380Y-28534722D01*
X52209432Y-28592734D01*
X52209433Y-28592735D01*
X52339954Y-28779141D01*
X52500858Y-28940045D01*
X52500861Y-28940047D01*
X52687266Y-29070568D01*
X52893504Y-29166739D01*
X53113308Y-29225635D01*
X53275230Y-29239801D01*
X53339998Y-29245468D01*
X53340000Y-29245468D01*
X53340002Y-29245468D01*
X53402511Y-29239999D01*
X53566692Y-29225635D01*
X53786496Y-29166739D01*
X53992734Y-29070568D01*
X54179139Y-28940047D01*
X54340047Y-28779139D01*
X54470568Y-28592734D01*
X54497618Y-28534724D01*
X54543790Y-28482285D01*
X54610983Y-28463133D01*
X54677865Y-28483348D01*
X54722382Y-28534725D01*
X54749429Y-28592728D01*
X54749432Y-28592734D01*
X54879954Y-28779141D01*
X55040858Y-28940045D01*
X55040861Y-28940047D01*
X55227266Y-29070568D01*
X55433504Y-29166739D01*
X55653308Y-29225635D01*
X55815230Y-29239801D01*
X55879998Y-29245468D01*
X55880000Y-29245468D01*
X55880002Y-29245468D01*
X55942511Y-29239999D01*
X56106692Y-29225635D01*
X56326496Y-29166739D01*
X56532734Y-29070568D01*
X56719139Y-28940047D01*
X56880047Y-28779139D01*
X57010568Y-28592734D01*
X57037618Y-28534724D01*
X57083790Y-28482285D01*
X57150983Y-28463133D01*
X57217865Y-28483348D01*
X57262382Y-28534725D01*
X57289429Y-28592728D01*
X57289432Y-28592734D01*
X57419954Y-28779141D01*
X57580858Y-28940045D01*
X57580861Y-28940047D01*
X57767266Y-29070568D01*
X57973504Y-29166739D01*
X58193308Y-29225635D01*
X58355230Y-29239801D01*
X58419998Y-29245468D01*
X58420000Y-29245468D01*
X58420002Y-29245468D01*
X58482511Y-29239999D01*
X58646692Y-29225635D01*
X58866496Y-29166739D01*
X59072734Y-29070568D01*
X59259139Y-28940047D01*
X59420047Y-28779139D01*
X59550568Y-28592734D01*
X59577618Y-28534724D01*
X59623790Y-28482285D01*
X59690983Y-28463133D01*
X59757865Y-28483348D01*
X59802382Y-28534725D01*
X59829429Y-28592728D01*
X59829432Y-28592734D01*
X59959954Y-28779141D01*
X60120858Y-28940045D01*
X60120861Y-28940047D01*
X60307266Y-29070568D01*
X60513504Y-29166739D01*
X60733308Y-29225635D01*
X60895230Y-29239801D01*
X60959998Y-29245468D01*
X60960000Y-29245468D01*
X60960002Y-29245468D01*
X61022511Y-29239999D01*
X61186692Y-29225635D01*
X61406496Y-29166739D01*
X61612734Y-29070568D01*
X61799139Y-28940047D01*
X61960047Y-28779139D01*
X62090568Y-28592734D01*
X62186739Y-28386496D01*
X62245635Y-28166692D01*
X62265468Y-27940000D01*
X62245635Y-27713308D01*
X62186739Y-27493504D01*
X62090568Y-27287266D01*
X61960047Y-27100861D01*
X61960045Y-27100858D01*
X61799141Y-26939954D01*
X61612735Y-26809433D01*
X61612736Y-26809433D01*
X61612734Y-26809432D01*
X61554722Y-26782380D01*
X61502284Y-26736208D01*
X61483133Y-26669014D01*
X61503349Y-26602133D01*
X61554721Y-26557619D01*
X61612734Y-26530568D01*
X61799139Y-26400047D01*
X61960047Y-26239139D01*
X62090568Y-26052734D01*
X62186739Y-25846496D01*
X62245635Y-25626692D01*
X62265468Y-25400000D01*
X62245635Y-25173308D01*
X62186739Y-24953504D01*
X62090568Y-24747266D01*
X61960047Y-24560861D01*
X61960045Y-24560858D01*
X61799141Y-24399954D01*
X61612734Y-24269432D01*
X61612732Y-24269431D01*
X61406497Y-24173261D01*
X61406488Y-24173258D01*
X61186697Y-24114366D01*
X61186693Y-24114365D01*
X61186692Y-24114365D01*
X61186691Y-24114364D01*
X61186686Y-24114364D01*
X60960002Y-24094532D01*
X60959998Y-24094532D01*
X60733313Y-24114364D01*
X60733302Y-24114366D01*
X60513511Y-24173258D01*
X60513502Y-24173261D01*
X60307267Y-24269431D01*
X60307265Y-24269432D01*
X60120858Y-24399954D01*
X59959954Y-24560858D01*
X59829432Y-24747265D01*
X59829431Y-24747267D01*
X59802382Y-24805275D01*
X59756209Y-24857714D01*
X59689016Y-24876866D01*
X59622135Y-24856650D01*
X59577618Y-24805275D01*
X59577618Y-24805274D01*
X59550568Y-24747266D01*
X59420047Y-24560861D01*
X59420045Y-24560858D01*
X59259141Y-24399954D01*
X59072734Y-24269432D01*
X59072732Y-24269431D01*
X58866497Y-24173261D01*
X58866488Y-24173258D01*
X58646697Y-24114366D01*
X58646693Y-24114365D01*
X58646692Y-24114365D01*
X58646691Y-24114364D01*
X58646686Y-24114364D01*
X58420002Y-24094532D01*
X58419998Y-24094532D01*
X58193313Y-24114364D01*
X58193302Y-24114366D01*
X57973511Y-24173258D01*
X57973502Y-24173261D01*
X57767267Y-24269431D01*
X57767265Y-24269432D01*
X57580858Y-24399954D01*
X57419954Y-24560858D01*
X57289432Y-24747265D01*
X57289431Y-24747267D01*
X57262382Y-24805275D01*
X57216209Y-24857714D01*
X57149016Y-24876866D01*
X57082135Y-24856650D01*
X57037618Y-24805275D01*
X57037618Y-24805274D01*
X57010568Y-24747266D01*
X56880047Y-24560861D01*
X56880045Y-24560858D01*
X56719141Y-24399954D01*
X56532734Y-24269432D01*
X56532732Y-24269431D01*
X56326497Y-24173261D01*
X56326488Y-24173258D01*
X56106697Y-24114366D01*
X56106693Y-24114365D01*
X56106692Y-24114365D01*
X56106691Y-24114364D01*
X56106686Y-24114364D01*
X55880002Y-24094532D01*
X55879998Y-24094532D01*
X55653313Y-24114364D01*
X55653302Y-24114366D01*
X55433511Y-24173258D01*
X55433502Y-24173261D01*
X55227267Y-24269431D01*
X55227265Y-24269432D01*
X55040858Y-24399954D01*
X54879954Y-24560858D01*
X54749432Y-24747265D01*
X54749431Y-24747267D01*
X54722382Y-24805275D01*
X54676209Y-24857714D01*
X54609016Y-24876866D01*
X54542135Y-24856650D01*
X54497618Y-24805275D01*
X54497618Y-24805274D01*
X54470568Y-24747266D01*
X54340047Y-24560861D01*
X54340045Y-24560858D01*
X54179141Y-24399954D01*
X53992734Y-24269432D01*
X53992732Y-24269431D01*
X53786497Y-24173261D01*
X53786488Y-24173258D01*
X53566697Y-24114366D01*
X53566693Y-24114365D01*
X53566692Y-24114365D01*
X53566691Y-24114364D01*
X53566686Y-24114364D01*
X53340002Y-24094532D01*
X53339998Y-24094532D01*
X53113313Y-24114364D01*
X53113302Y-24114366D01*
X52893511Y-24173258D01*
X52893502Y-24173261D01*
X52687267Y-24269431D01*
X52687265Y-24269432D01*
X52500858Y-24399954D01*
X52339954Y-24560858D01*
X52209432Y-24747265D01*
X52209431Y-24747267D01*
X52182382Y-24805275D01*
X52136209Y-24857714D01*
X52069016Y-24876866D01*
X52002135Y-24856650D01*
X51957618Y-24805275D01*
X51957618Y-24805274D01*
X51930568Y-24747266D01*
X51800047Y-24560861D01*
X51800045Y-24560858D01*
X51639141Y-24399954D01*
X51452734Y-24269432D01*
X51452732Y-24269431D01*
X51246497Y-24173261D01*
X51246488Y-24173258D01*
X51026697Y-24114366D01*
X51026693Y-24114365D01*
X51026692Y-24114365D01*
X51026691Y-24114364D01*
X51026686Y-24114364D01*
X50800002Y-24094532D01*
X50799998Y-24094532D01*
X50573313Y-24114364D01*
X50573302Y-24114366D01*
X50353511Y-24173258D01*
X50353502Y-24173261D01*
X50147267Y-24269431D01*
X50147265Y-24269432D01*
X49960858Y-24399954D01*
X49799954Y-24560858D01*
X49669432Y-24747265D01*
X49669431Y-24747267D01*
X49642382Y-24805275D01*
X49596209Y-24857714D01*
X49529016Y-24876866D01*
X49462135Y-24856650D01*
X49417618Y-24805275D01*
X49417618Y-24805274D01*
X49390568Y-24747266D01*
X49260047Y-24560861D01*
X49260045Y-24560858D01*
X49099141Y-24399954D01*
X48912734Y-24269432D01*
X48912732Y-24269431D01*
X48706497Y-24173261D01*
X48706488Y-24173258D01*
X48486697Y-24114366D01*
X48486693Y-24114365D01*
X48486692Y-24114365D01*
X48486691Y-24114364D01*
X48486686Y-24114364D01*
X48260002Y-24094532D01*
X48259998Y-24094532D01*
X48033313Y-24114364D01*
X48033302Y-24114366D01*
X47813511Y-24173258D01*
X47813502Y-24173261D01*
X47607267Y-24269431D01*
X47607265Y-24269432D01*
X47420858Y-24399954D01*
X47259954Y-24560858D01*
X47129432Y-24747265D01*
X47129431Y-24747267D01*
X47102382Y-24805275D01*
X47056209Y-24857714D01*
X46989016Y-24876866D01*
X46922135Y-24856650D01*
X46877618Y-24805275D01*
X46877618Y-24805274D01*
X46850568Y-24747266D01*
X46720047Y-24560861D01*
X46720045Y-24560858D01*
X46559141Y-24399954D01*
X46372734Y-24269432D01*
X46372732Y-24269431D01*
X46166497Y-24173261D01*
X46166488Y-24173258D01*
X45946697Y-24114366D01*
X45946693Y-24114365D01*
X45946692Y-24114365D01*
X45946691Y-24114364D01*
X45946686Y-24114364D01*
X45720002Y-24094532D01*
X45719998Y-24094532D01*
X45493313Y-24114364D01*
X45493302Y-24114366D01*
X45273511Y-24173258D01*
X45273502Y-24173261D01*
X45067267Y-24269431D01*
X45067265Y-24269432D01*
X44880858Y-24399954D01*
X44719954Y-24560858D01*
X44589432Y-24747265D01*
X44589431Y-24747267D01*
X44562382Y-24805275D01*
X44516209Y-24857714D01*
X44449016Y-24876866D01*
X44382135Y-24856650D01*
X44337618Y-24805275D01*
X44337618Y-24805274D01*
X44310568Y-24747266D01*
X44180047Y-24560861D01*
X44180045Y-24560858D01*
X44019141Y-24399954D01*
X43832734Y-24269432D01*
X43832732Y-24269431D01*
X43626497Y-24173261D01*
X43626488Y-24173258D01*
X43406697Y-24114366D01*
X43406693Y-24114365D01*
X43406692Y-24114365D01*
X43406691Y-24114364D01*
X43406686Y-24114364D01*
X43180002Y-24094532D01*
X43179998Y-24094532D01*
X42953313Y-24114364D01*
X42953302Y-24114366D01*
X42733511Y-24173258D01*
X42733502Y-24173261D01*
X42527267Y-24269431D01*
X42527265Y-24269432D01*
X42340858Y-24399954D01*
X42179954Y-24560858D01*
X42049432Y-24747265D01*
X42049431Y-24747267D01*
X42022382Y-24805275D01*
X41976209Y-24857714D01*
X41909016Y-24876866D01*
X41842135Y-24856650D01*
X41797618Y-24805275D01*
X41797618Y-24805274D01*
X41770568Y-24747266D01*
X41640047Y-24560861D01*
X41640045Y-24560858D01*
X41479141Y-24399954D01*
X41292734Y-24269432D01*
X41292732Y-24269431D01*
X41086497Y-24173261D01*
X41086488Y-24173258D01*
X40866697Y-24114366D01*
X40866693Y-24114365D01*
X40866692Y-24114365D01*
X40866691Y-24114364D01*
X40866686Y-24114364D01*
X40640002Y-24094532D01*
X40639998Y-24094532D01*
X40413313Y-24114364D01*
X40413302Y-24114366D01*
X40193511Y-24173258D01*
X40193502Y-24173261D01*
X39987267Y-24269431D01*
X39987265Y-24269432D01*
X39800858Y-24399954D01*
X39639954Y-24560858D01*
X39509432Y-24747265D01*
X39509431Y-24747267D01*
X39482382Y-24805275D01*
X39436209Y-24857714D01*
X39369016Y-24876866D01*
X39302135Y-24856650D01*
X39257618Y-24805275D01*
X39257618Y-24805274D01*
X39230568Y-24747266D01*
X39100047Y-24560861D01*
X39100045Y-24560858D01*
X38939141Y-24399954D01*
X38752734Y-24269432D01*
X38752732Y-24269431D01*
X38546497Y-24173261D01*
X38546488Y-24173258D01*
X38326697Y-24114366D01*
X38326693Y-24114365D01*
X38326692Y-24114365D01*
X38326691Y-24114364D01*
X38326686Y-24114364D01*
X38100002Y-24094532D01*
X38099998Y-24094532D01*
X37873313Y-24114364D01*
X37873302Y-24114366D01*
X37653511Y-24173258D01*
X37653502Y-24173261D01*
X37447267Y-24269431D01*
X37447265Y-24269432D01*
X37260858Y-24399954D01*
X37099954Y-24560858D01*
X36969432Y-24747265D01*
X36969431Y-24747267D01*
X36942382Y-24805275D01*
X36896209Y-24857714D01*
X36829016Y-24876866D01*
X36762135Y-24856650D01*
X36717618Y-24805275D01*
X36717618Y-24805274D01*
X36690568Y-24747266D01*
X36560047Y-24560861D01*
X36560045Y-24560858D01*
X36399141Y-24399954D01*
X36212734Y-24269432D01*
X36212732Y-24269431D01*
X36006497Y-24173261D01*
X36006488Y-24173258D01*
X35786697Y-24114366D01*
X35786693Y-24114365D01*
X35786692Y-24114365D01*
X35786691Y-24114364D01*
X35786686Y-24114364D01*
X35560002Y-24094532D01*
X35559998Y-24094532D01*
X35333313Y-24114364D01*
X35333302Y-24114366D01*
X35113511Y-24173258D01*
X35113502Y-24173261D01*
X34907267Y-24269431D01*
X34907265Y-24269432D01*
X34720858Y-24399954D01*
X34559954Y-24560858D01*
X34429432Y-24747265D01*
X34429431Y-24747267D01*
X34402382Y-24805275D01*
X34356209Y-24857714D01*
X34289016Y-24876866D01*
X34222135Y-24856650D01*
X34177618Y-24805275D01*
X34177618Y-24805274D01*
X34150568Y-24747266D01*
X34020047Y-24560861D01*
X34020045Y-24560858D01*
X33859141Y-24399954D01*
X33672734Y-24269432D01*
X33672732Y-24269431D01*
X33466497Y-24173261D01*
X33466488Y-24173258D01*
X33246697Y-24114366D01*
X33246693Y-24114365D01*
X33246692Y-24114365D01*
X33246691Y-24114364D01*
X33246686Y-24114364D01*
X33020002Y-24094532D01*
X33019998Y-24094532D01*
X32793313Y-24114364D01*
X32793302Y-24114366D01*
X32573511Y-24173258D01*
X32573502Y-24173261D01*
X32367267Y-24269431D01*
X32367265Y-24269432D01*
X32180858Y-24399954D01*
X32019954Y-24560858D01*
X31889432Y-24747265D01*
X31889431Y-24747267D01*
X31862382Y-24805275D01*
X31816209Y-24857714D01*
X31749016Y-24876866D01*
X31682135Y-24856650D01*
X31637618Y-24805275D01*
X31637618Y-24805274D01*
X31610568Y-24747266D01*
X31480047Y-24560861D01*
X31480045Y-24560858D01*
X31319141Y-24399954D01*
X31132734Y-24269432D01*
X31132732Y-24269431D01*
X30926497Y-24173261D01*
X30926488Y-24173258D01*
X30706697Y-24114366D01*
X30706693Y-24114365D01*
X30706692Y-24114365D01*
X30706691Y-24114364D01*
X30706686Y-24114364D01*
X30480002Y-24094532D01*
X30479998Y-24094532D01*
X30253313Y-24114364D01*
X30253302Y-24114366D01*
X30033511Y-24173258D01*
X30033502Y-24173261D01*
X29827267Y-24269431D01*
X29827265Y-24269432D01*
X29640858Y-24399954D01*
X29479953Y-24560859D01*
X29432046Y-24629279D01*
X29377469Y-24672904D01*
X29307971Y-24680098D01*
X29245616Y-24648575D01*
X29226662Y-24625978D01*
X29213205Y-24605380D01*
X29128164Y-24475215D01*
X28959744Y-24292262D01*
X28763509Y-24139526D01*
X28763507Y-24139525D01*
X28763506Y-24139524D01*
X28544811Y-24021172D01*
X28544802Y-24021169D01*
X28309616Y-23940429D01*
X28064335Y-23899500D01*
X27815665Y-23899500D01*
X27570383Y-23940429D01*
X27335197Y-24021169D01*
X27335188Y-24021172D01*
X27116493Y-24139524D01*
X26920257Y-24292261D01*
X26751832Y-24475219D01*
X26653336Y-24625978D01*
X26600190Y-24671335D01*
X26530959Y-24680758D01*
X26467623Y-24651256D01*
X26447953Y-24629279D01*
X26400047Y-24560861D01*
X26400045Y-24560859D01*
X26400044Y-24560857D01*
X26239141Y-24399954D01*
X26052734Y-24269432D01*
X26052732Y-24269431D01*
X25846497Y-24173261D01*
X25846488Y-24173258D01*
X25626697Y-24114366D01*
X25626693Y-24114365D01*
X25626692Y-24114365D01*
X25626691Y-24114364D01*
X25626686Y-24114364D01*
X25400002Y-24094532D01*
X25399998Y-24094532D01*
X25173313Y-24114364D01*
X25173302Y-24114366D01*
X24953511Y-24173258D01*
X24953502Y-24173261D01*
X24747267Y-24269431D01*
X24747265Y-24269432D01*
X24560858Y-24399954D01*
X24399954Y-24560858D01*
X24269432Y-24747265D01*
X24269431Y-24747267D01*
X24242382Y-24805275D01*
X24196209Y-24857714D01*
X24129016Y-24876866D01*
X24062135Y-24856650D01*
X24017618Y-24805275D01*
X24017618Y-24805274D01*
X23990568Y-24747266D01*
X23860047Y-24560861D01*
X23860045Y-24560858D01*
X23699141Y-24399954D01*
X23512734Y-24269432D01*
X23512732Y-24269431D01*
X23306497Y-24173261D01*
X23306488Y-24173258D01*
X23086697Y-24114366D01*
X23086693Y-24114365D01*
X23086692Y-24114365D01*
X23086691Y-24114364D01*
X23086686Y-24114364D01*
X22860002Y-24094532D01*
X22859998Y-24094532D01*
X22633313Y-24114364D01*
X22633302Y-24114366D01*
X22413511Y-24173258D01*
X22413502Y-24173261D01*
X22207267Y-24269431D01*
X22207265Y-24269432D01*
X22020858Y-24399954D01*
X21859954Y-24560858D01*
X21729432Y-24747265D01*
X21729431Y-24747267D01*
X21702382Y-24805275D01*
X21656209Y-24857714D01*
X21589016Y-24876866D01*
X21522135Y-24856650D01*
X21477618Y-24805275D01*
X21477618Y-24805274D01*
X21450568Y-24747266D01*
X21320047Y-24560861D01*
X21320045Y-24560858D01*
X21159141Y-24399954D01*
X20998376Y-24287386D01*
X20954751Y-24232809D01*
X20945499Y-24185815D01*
X20945499Y-22307749D01*
X20947224Y-22292128D01*
X20946938Y-22292101D01*
X20947671Y-22284341D01*
X20947673Y-22284333D01*
X20945500Y-22215171D01*
X20945500Y-22185650D01*
X20944631Y-22178779D01*
X20944173Y-22172952D01*
X20942710Y-22126373D01*
X20937119Y-22107130D01*
X20933173Y-22088078D01*
X20930664Y-22068208D01*
X20913504Y-22024867D01*
X20911624Y-22019379D01*
X20898618Y-21974610D01*
X20888422Y-21957370D01*
X20879861Y-21939894D01*
X20872487Y-21921270D01*
X20872486Y-21921268D01*
X20845079Y-21883545D01*
X20841888Y-21878686D01*
X20828895Y-21856716D01*
X20818170Y-21838580D01*
X20818168Y-21838578D01*
X20818165Y-21838574D01*
X20804006Y-21824415D01*
X20791368Y-21809619D01*
X20779594Y-21793413D01*
X20743688Y-21763709D01*
X20739376Y-21759786D01*
X19613702Y-20634111D01*
X19603879Y-20621849D01*
X19603658Y-20622033D01*
X19598685Y-20616022D01*
X19548263Y-20568672D01*
X19537818Y-20558227D01*
X19527374Y-20547782D01*
X19521885Y-20543524D01*
X19517460Y-20539746D01*
X19483481Y-20507837D01*
X19483479Y-20507835D01*
X19483476Y-20507834D01*
X19465928Y-20498187D01*
X19449662Y-20487503D01*
X19433832Y-20475224D01*
X19391067Y-20456717D01*
X19385821Y-20454147D01*
X19344992Y-20431702D01*
X19344991Y-20431701D01*
X19325592Y-20426721D01*
X19307180Y-20420417D01*
X19288797Y-20412461D01*
X19288791Y-20412459D01*
X19242773Y-20405171D01*
X19237051Y-20403986D01*
X19191920Y-20392399D01*
X19191918Y-20392399D01*
X19171883Y-20392399D01*
X19152485Y-20390872D01*
X19145061Y-20389696D01*
X19132704Y-20387739D01*
X19132703Y-20387739D01*
X19086315Y-20392124D01*
X19080477Y-20392399D01*
X10589248Y-20392399D01*
X10522209Y-20372714D01*
X10497100Y-20351373D01*
X10491373Y-20345013D01*
X10491369Y-20345009D01*
X10338234Y-20233750D01*
X10338229Y-20233747D01*
X10165307Y-20156756D01*
X10165302Y-20156754D01*
X10019501Y-20125764D01*
X9980146Y-20117399D01*
X9790854Y-20117399D01*
X9758397Y-20124297D01*
X9605697Y-20156754D01*
X9605692Y-20156756D01*
X9432770Y-20233747D01*
X9432765Y-20233750D01*
X9279629Y-20345010D01*
X9152966Y-20485684D01*
X9058321Y-20649614D01*
X9058318Y-20649621D01*
X8999827Y-20829639D01*
X8999826Y-20829643D01*
X8980040Y-21017899D01*
X8997869Y-21187540D01*
X8985300Y-21256268D01*
X8937568Y-21307292D01*
X8874549Y-21324500D01*
X8795354Y-21324500D01*
X8762897Y-21331398D01*
X8610197Y-21363855D01*
X8610192Y-21363857D01*
X8437270Y-21440848D01*
X8437265Y-21440851D01*
X8284129Y-21552111D01*
X8157466Y-21692785D01*
X8062821Y-21856715D01*
X8062818Y-21856722D01*
X8009977Y-22019351D01*
X8004326Y-22036744D01*
X7984540Y-22225000D01*
X8004326Y-22413256D01*
X8004327Y-22413259D01*
X8062818Y-22593277D01*
X8062821Y-22593284D01*
X8114907Y-22683500D01*
X8131380Y-22751401D01*
X8108527Y-22817427D01*
X8053606Y-22860618D01*
X8007520Y-22869500D01*
X7053748Y-22869500D01*
X6986709Y-22849815D01*
X6961600Y-22828474D01*
X6955873Y-22822114D01*
X6955869Y-22822110D01*
X6802734Y-22710851D01*
X6802729Y-22710848D01*
X6629807Y-22633857D01*
X6629802Y-22633855D01*
X6484001Y-22602865D01*
X6444646Y-22594500D01*
X6255354Y-22594500D01*
X6222897Y-22601398D01*
X6070197Y-22633855D01*
X6070192Y-22633857D01*
X5897270Y-22710848D01*
X5897265Y-22710851D01*
X5744129Y-22822111D01*
X5617466Y-22962785D01*
X5522821Y-23126715D01*
X5522818Y-23126722D01*
X5469064Y-23292162D01*
X5464326Y-23306744D01*
X5444540Y-23495000D01*
X635000Y-23495000D01*
X635000Y-17780001D01*
X1234532Y-17780001D01*
X1254364Y-18006686D01*
X1254366Y-18006697D01*
X1313258Y-18226488D01*
X1313261Y-18226497D01*
X1409431Y-18432732D01*
X1409432Y-18432734D01*
X1539954Y-18619141D01*
X1700858Y-18780045D01*
X1700861Y-18780047D01*
X1887266Y-18910568D01*
X2093504Y-19006739D01*
X2313308Y-19065635D01*
X2475230Y-19079801D01*
X2539998Y-19085468D01*
X2540000Y-19085468D01*
X2540002Y-19085468D01*
X2596672Y-19080509D01*
X2766692Y-19065635D01*
X2986496Y-19006739D01*
X3192734Y-18910568D01*
X3379139Y-18780047D01*
X3540047Y-18619139D01*
X3652612Y-18458377D01*
X3707189Y-18414752D01*
X3754188Y-18405500D01*
X5159853Y-18405500D01*
X5226892Y-18425185D01*
X5247534Y-18441819D01*
X6239502Y-19433788D01*
X6249327Y-19446051D01*
X6249548Y-19445869D01*
X6254519Y-19451878D01*
X6280522Y-19476295D01*
X6304940Y-19499226D01*
X6325834Y-19520120D01*
X6331316Y-19524373D01*
X6335748Y-19528157D01*
X6369723Y-19560062D01*
X6387281Y-19569714D01*
X6403540Y-19580395D01*
X6419369Y-19592673D01*
X6462143Y-19611182D01*
X6467361Y-19613738D01*
X6508213Y-19636197D01*
X6527621Y-19641180D01*
X6546022Y-19647480D01*
X6564409Y-19655437D01*
X6607793Y-19662308D01*
X6610424Y-19662725D01*
X6616144Y-19663909D01*
X6661286Y-19675500D01*
X6681321Y-19675500D01*
X6700719Y-19677026D01*
X6720499Y-19680159D01*
X6720500Y-19680160D01*
X6720500Y-19680159D01*
X6720501Y-19680160D01*
X6766888Y-19675775D01*
X6772727Y-19675500D01*
X27236252Y-19675500D01*
X27303291Y-19695185D01*
X27328400Y-19716526D01*
X27334126Y-19722885D01*
X27334130Y-19722889D01*
X27487265Y-19834148D01*
X27487270Y-19834151D01*
X27660192Y-19911142D01*
X27660197Y-19911144D01*
X27845354Y-19950500D01*
X27845355Y-19950500D01*
X28034644Y-19950500D01*
X28034646Y-19950500D01*
X28219803Y-19911144D01*
X28392730Y-19834151D01*
X28545871Y-19722888D01*
X28672533Y-19582216D01*
X28767179Y-19418284D01*
X28825674Y-19238256D01*
X28845460Y-19050000D01*
X28825674Y-18861744D01*
X28767179Y-18681716D01*
X28715093Y-18591500D01*
X28698620Y-18523599D01*
X28721473Y-18457573D01*
X28776394Y-18414382D01*
X28822480Y-18405500D01*
X29762257Y-18405500D01*
X29777877Y-18407224D01*
X29777904Y-18406939D01*
X29785660Y-18407671D01*
X29785667Y-18407673D01*
X29854814Y-18405500D01*
X29884350Y-18405500D01*
X29891228Y-18404630D01*
X29897041Y-18404172D01*
X29943627Y-18402709D01*
X29962869Y-18397117D01*
X29981912Y-18393174D01*
X30001792Y-18390664D01*
X30045122Y-18373507D01*
X30050646Y-18371617D01*
X30054396Y-18370527D01*
X30095390Y-18358618D01*
X30112629Y-18348422D01*
X30130103Y-18339862D01*
X30148727Y-18332488D01*
X30148727Y-18332487D01*
X30148732Y-18332486D01*
X30186449Y-18305082D01*
X30191305Y-18301892D01*
X30231420Y-18278170D01*
X30245589Y-18263999D01*
X30260379Y-18251368D01*
X30276587Y-18239594D01*
X30306299Y-18203676D01*
X30310212Y-18199376D01*
X30863786Y-17645802D01*
X30876048Y-17635980D01*
X30875865Y-17635759D01*
X30881867Y-17630792D01*
X30881877Y-17630786D01*
X30929241Y-17580348D01*
X30950120Y-17559470D01*
X30954373Y-17553986D01*
X30958150Y-17549563D01*
X30990062Y-17515582D01*
X30999714Y-17498023D01*
X31010389Y-17481772D01*
X31022674Y-17465936D01*
X31041186Y-17423152D01*
X31043742Y-17417935D01*
X31066197Y-17377092D01*
X31071180Y-17357680D01*
X31077477Y-17339291D01*
X31085438Y-17320895D01*
X31092729Y-17274853D01*
X31093908Y-17269162D01*
X31105500Y-17224019D01*
X31105500Y-17203982D01*
X31107027Y-17184582D01*
X31108614Y-17174562D01*
X31110160Y-17164804D01*
X31105775Y-17118415D01*
X31105500Y-17112577D01*
X31105500Y-11374188D01*
X31125185Y-11307149D01*
X31158377Y-11272613D01*
X31206836Y-11238681D01*
X31319139Y-11160047D01*
X31480047Y-10999139D01*
X31610568Y-10812734D01*
X31637619Y-10754721D01*
X31683788Y-10702286D01*
X31750981Y-10683133D01*
X31817862Y-10703348D01*
X31862380Y-10754722D01*
X31889432Y-10812734D01*
X31945316Y-10892546D01*
X32019954Y-10999141D01*
X32180858Y-11160045D01*
X32180861Y-11160047D01*
X32367266Y-11290568D01*
X32573504Y-11386739D01*
X32793308Y-11445635D01*
X32955230Y-11459801D01*
X33019998Y-11465468D01*
X33020000Y-11465468D01*
X33020002Y-11465468D01*
X33076672Y-11460509D01*
X33246692Y-11445635D01*
X33466496Y-11386739D01*
X33672734Y-11290568D01*
X33859139Y-11160047D01*
X34020047Y-10999139D01*
X34150568Y-10812734D01*
X34177618Y-10754724D01*
X34223790Y-10702285D01*
X34290983Y-10683133D01*
X34357865Y-10703348D01*
X34402382Y-10754725D01*
X34429429Y-10812728D01*
X34429432Y-10812734D01*
X34559954Y-10999141D01*
X34720858Y-11160045D01*
X34720861Y-11160047D01*
X34907266Y-11290568D01*
X35113504Y-11386739D01*
X35333308Y-11445635D01*
X35495230Y-11459801D01*
X35559998Y-11465468D01*
X35560000Y-11465468D01*
X35560002Y-11465468D01*
X35616673Y-11460509D01*
X35786692Y-11445635D01*
X36006496Y-11386739D01*
X36212734Y-11290568D01*
X36399139Y-11160047D01*
X36560047Y-10999139D01*
X36690568Y-10812734D01*
X36717618Y-10754724D01*
X36763790Y-10702285D01*
X36830983Y-10683133D01*
X36897865Y-10703348D01*
X36942382Y-10754725D01*
X36969429Y-10812728D01*
X36969432Y-10812734D01*
X37099954Y-10999141D01*
X37260858Y-11160045D01*
X37260861Y-11160047D01*
X37447266Y-11290568D01*
X37653504Y-11386739D01*
X37873308Y-11445635D01*
X38035230Y-11459801D01*
X38099998Y-11465468D01*
X38100000Y-11465468D01*
X38100002Y-11465468D01*
X38156672Y-11460509D01*
X38326692Y-11445635D01*
X38546496Y-11386739D01*
X38752734Y-11290568D01*
X38939139Y-11160047D01*
X39100047Y-10999139D01*
X39230568Y-10812734D01*
X39257618Y-10754724D01*
X39303790Y-10702285D01*
X39370983Y-10683133D01*
X39437865Y-10703348D01*
X39482382Y-10754725D01*
X39509429Y-10812728D01*
X39509432Y-10812734D01*
X39639954Y-10999141D01*
X39800858Y-11160045D01*
X39800861Y-11160047D01*
X39987266Y-11290568D01*
X40193504Y-11386739D01*
X40413308Y-11445635D01*
X40575230Y-11459801D01*
X40639998Y-11465468D01*
X40640000Y-11465468D01*
X40640002Y-11465468D01*
X40696673Y-11460509D01*
X40866692Y-11445635D01*
X41086496Y-11386739D01*
X41292734Y-11290568D01*
X41479139Y-11160047D01*
X41640047Y-10999139D01*
X41770568Y-10812734D01*
X41797618Y-10754724D01*
X41843790Y-10702285D01*
X41910983Y-10683133D01*
X41977865Y-10703348D01*
X42022382Y-10754725D01*
X42049429Y-10812728D01*
X42049432Y-10812734D01*
X42179954Y-10999141D01*
X42340858Y-11160045D01*
X42340861Y-11160047D01*
X42527266Y-11290568D01*
X42733504Y-11386739D01*
X42953308Y-11445635D01*
X43115230Y-11459801D01*
X43179998Y-11465468D01*
X43180000Y-11465468D01*
X43180002Y-11465468D01*
X43236672Y-11460509D01*
X43406692Y-11445635D01*
X43626496Y-11386739D01*
X43832734Y-11290568D01*
X44019139Y-11160047D01*
X44180047Y-10999139D01*
X44310568Y-10812734D01*
X44337618Y-10754724D01*
X44383790Y-10702285D01*
X44450983Y-10683133D01*
X44517865Y-10703348D01*
X44562382Y-10754725D01*
X44589429Y-10812728D01*
X44589432Y-10812734D01*
X44719954Y-10999141D01*
X44880858Y-11160045D01*
X44880861Y-11160047D01*
X45067266Y-11290568D01*
X45273504Y-11386739D01*
X45493308Y-11445635D01*
X45655230Y-11459801D01*
X45719998Y-11465468D01*
X45720000Y-11465468D01*
X45720002Y-11465468D01*
X45776673Y-11460509D01*
X45946692Y-11445635D01*
X46166496Y-11386739D01*
X46372734Y-11290568D01*
X46559139Y-11160047D01*
X46720047Y-10999139D01*
X46850568Y-10812734D01*
X46877618Y-10754724D01*
X46923790Y-10702285D01*
X46990983Y-10683133D01*
X47057865Y-10703348D01*
X47102382Y-10754725D01*
X47129429Y-10812728D01*
X47129432Y-10812734D01*
X47259954Y-10999141D01*
X47420858Y-11160045D01*
X47420861Y-11160047D01*
X47607266Y-11290568D01*
X47813504Y-11386739D01*
X48033308Y-11445635D01*
X48195230Y-11459801D01*
X48259998Y-11465468D01*
X48260000Y-11465468D01*
X48260002Y-11465468D01*
X48316672Y-11460509D01*
X48486692Y-11445635D01*
X48706496Y-11386739D01*
X48912734Y-11290568D01*
X49099139Y-11160047D01*
X49260047Y-10999139D01*
X49390568Y-10812734D01*
X49417618Y-10754724D01*
X49463790Y-10702285D01*
X49530983Y-10683133D01*
X49597865Y-10703348D01*
X49642382Y-10754725D01*
X49669429Y-10812728D01*
X49669432Y-10812734D01*
X49799954Y-10999141D01*
X49960858Y-11160045D01*
X49960861Y-11160047D01*
X50147266Y-11290568D01*
X50353504Y-11386739D01*
X50573308Y-11445635D01*
X50735230Y-11459801D01*
X50799998Y-11465468D01*
X50800000Y-11465468D01*
X50800002Y-11465468D01*
X50856673Y-11460509D01*
X51026692Y-11445635D01*
X51246496Y-11386739D01*
X51452734Y-11290568D01*
X51639139Y-11160047D01*
X51800047Y-10999139D01*
X51930568Y-10812734D01*
X51957619Y-10754721D01*
X52003788Y-10702286D01*
X52070981Y-10683133D01*
X52137862Y-10703348D01*
X52182380Y-10754722D01*
X52209432Y-10812734D01*
X52265316Y-10892546D01*
X52339954Y-10999141D01*
X52500858Y-11160045D01*
X52500861Y-11160047D01*
X52687266Y-11290568D01*
X52893504Y-11386739D01*
X53113308Y-11445635D01*
X53275230Y-11459801D01*
X53339998Y-11465468D01*
X53340000Y-11465468D01*
X53340002Y-11465468D01*
X53396672Y-11460509D01*
X53566692Y-11445635D01*
X53786496Y-11386739D01*
X53992734Y-11290568D01*
X54179139Y-11160047D01*
X54340047Y-10999139D01*
X54470568Y-10812734D01*
X54497618Y-10754724D01*
X54543790Y-10702285D01*
X54610983Y-10683133D01*
X54677865Y-10703348D01*
X54722382Y-10754725D01*
X54749429Y-10812728D01*
X54749432Y-10812734D01*
X54879954Y-10999141D01*
X55040858Y-11160045D01*
X55040861Y-11160047D01*
X55227266Y-11290568D01*
X55433504Y-11386739D01*
X55653308Y-11445635D01*
X55815230Y-11459801D01*
X55879998Y-11465468D01*
X55880000Y-11465468D01*
X55880002Y-11465468D01*
X55936673Y-11460509D01*
X56106692Y-11445635D01*
X56326496Y-11386739D01*
X56532734Y-11290568D01*
X56719139Y-11160047D01*
X56880047Y-10999139D01*
X57010568Y-10812734D01*
X57037618Y-10754724D01*
X57083790Y-10702285D01*
X57150983Y-10683133D01*
X57217865Y-10703348D01*
X57262382Y-10754725D01*
X57289429Y-10812728D01*
X57289432Y-10812734D01*
X57419954Y-10999141D01*
X57580858Y-11160045D01*
X57580861Y-11160047D01*
X57767266Y-11290568D01*
X57973504Y-11386739D01*
X58193308Y-11445635D01*
X58355230Y-11459801D01*
X58419998Y-11465468D01*
X58420000Y-11465468D01*
X58420002Y-11465468D01*
X58476672Y-11460509D01*
X58646692Y-11445635D01*
X58866496Y-11386739D01*
X59072734Y-11290568D01*
X59259139Y-11160047D01*
X59420047Y-10999139D01*
X59550568Y-10812734D01*
X59577618Y-10754724D01*
X59623790Y-10702285D01*
X59690983Y-10683133D01*
X59757865Y-10703348D01*
X59802382Y-10754725D01*
X59829429Y-10812728D01*
X59829432Y-10812734D01*
X59959954Y-10999141D01*
X60120858Y-11160045D01*
X60120861Y-11160047D01*
X60307266Y-11290568D01*
X60513504Y-11386739D01*
X60733308Y-11445635D01*
X60895230Y-11459801D01*
X60959998Y-11465468D01*
X60960000Y-11465468D01*
X60960002Y-11465468D01*
X61016673Y-11460509D01*
X61186692Y-11445635D01*
X61406496Y-11386739D01*
X61612734Y-11290568D01*
X61799139Y-11160047D01*
X61960047Y-10999139D01*
X62090568Y-10812734D01*
X62186739Y-10606496D01*
X62245635Y-10386692D01*
X62265468Y-10160000D01*
X62245635Y-9933308D01*
X62186739Y-9713504D01*
X62090568Y-9507266D01*
X61960047Y-9320861D01*
X61960045Y-9320858D01*
X61799141Y-9159954D01*
X61612734Y-9029432D01*
X61612728Y-9029429D01*
X61554725Y-9002382D01*
X61502285Y-8956210D01*
X61483133Y-8889017D01*
X61503348Y-8822135D01*
X61554725Y-8777618D01*
X61612734Y-8750568D01*
X61799139Y-8620047D01*
X61960047Y-8459139D01*
X62090568Y-8272734D01*
X62186739Y-8066496D01*
X62245635Y-7846692D01*
X62265468Y-7620000D01*
X62245635Y-7393308D01*
X62186739Y-7173504D01*
X62090568Y-6967266D01*
X61960047Y-6780861D01*
X61960045Y-6780858D01*
X61799141Y-6619954D01*
X61612734Y-6489432D01*
X61612732Y-6489431D01*
X61406497Y-6393261D01*
X61406488Y-6393258D01*
X61186697Y-6334366D01*
X61186693Y-6334365D01*
X61186692Y-6334365D01*
X61186691Y-6334364D01*
X61186686Y-6334364D01*
X60960002Y-6314532D01*
X60959998Y-6314532D01*
X60733313Y-6334364D01*
X60733302Y-6334366D01*
X60513511Y-6393258D01*
X60513502Y-6393261D01*
X60307267Y-6489431D01*
X60307265Y-6489432D01*
X60120858Y-6619954D01*
X59959954Y-6780858D01*
X59829432Y-6967265D01*
X59829431Y-6967267D01*
X59802382Y-7025275D01*
X59756209Y-7077714D01*
X59689016Y-7096866D01*
X59622135Y-7076650D01*
X59577618Y-7025275D01*
X59550686Y-6967520D01*
X59550568Y-6967266D01*
X59420047Y-6780861D01*
X59420045Y-6780858D01*
X59259141Y-6619954D01*
X59072734Y-6489432D01*
X59072732Y-6489431D01*
X58866497Y-6393261D01*
X58866488Y-6393258D01*
X58646697Y-6334366D01*
X58646693Y-6334365D01*
X58646692Y-6334365D01*
X58646691Y-6334364D01*
X58646686Y-6334364D01*
X58420002Y-6314532D01*
X58419998Y-6314532D01*
X58193313Y-6334364D01*
X58193302Y-6334366D01*
X57973511Y-6393258D01*
X57973502Y-6393261D01*
X57767267Y-6489431D01*
X57767265Y-6489432D01*
X57580858Y-6619954D01*
X57419954Y-6780858D01*
X57289432Y-6967265D01*
X57289431Y-6967267D01*
X57262382Y-7025275D01*
X57216209Y-7077714D01*
X57149016Y-7096866D01*
X57082135Y-7076650D01*
X57037618Y-7025275D01*
X57010686Y-6967520D01*
X57010568Y-6967266D01*
X56880047Y-6780861D01*
X56880045Y-6780858D01*
X56719141Y-6619954D01*
X56532734Y-6489432D01*
X56532732Y-6489431D01*
X56326497Y-6393261D01*
X56326488Y-6393258D01*
X56106697Y-6334366D01*
X56106693Y-6334365D01*
X56106692Y-6334365D01*
X56106691Y-6334364D01*
X56106686Y-6334364D01*
X55880002Y-6314532D01*
X55879998Y-6314532D01*
X55653313Y-6334364D01*
X55653302Y-6334366D01*
X55433511Y-6393258D01*
X55433502Y-6393261D01*
X55227267Y-6489431D01*
X55227265Y-6489432D01*
X55040858Y-6619954D01*
X54879954Y-6780858D01*
X54749432Y-6967265D01*
X54749431Y-6967267D01*
X54722382Y-7025275D01*
X54676209Y-7077714D01*
X54609016Y-7096866D01*
X54542135Y-7076650D01*
X54497618Y-7025275D01*
X54470686Y-6967520D01*
X54470568Y-6967266D01*
X54340047Y-6780861D01*
X54340045Y-6780858D01*
X54179141Y-6619954D01*
X53992734Y-6489432D01*
X53992732Y-6489431D01*
X53786497Y-6393261D01*
X53786488Y-6393258D01*
X53566697Y-6334366D01*
X53566693Y-6334365D01*
X53566692Y-6334365D01*
X53566691Y-6334364D01*
X53566686Y-6334364D01*
X53340002Y-6314532D01*
X53339998Y-6314532D01*
X53113313Y-6334364D01*
X53113302Y-6334366D01*
X52893511Y-6393258D01*
X52893502Y-6393261D01*
X52687267Y-6489431D01*
X52687265Y-6489432D01*
X52500858Y-6619954D01*
X52339954Y-6780858D01*
X52209432Y-6967265D01*
X52209431Y-6967267D01*
X52182382Y-7025275D01*
X52136209Y-7077714D01*
X52069016Y-7096866D01*
X52002135Y-7076650D01*
X51957618Y-7025275D01*
X51930686Y-6967520D01*
X51930568Y-6967266D01*
X51800047Y-6780861D01*
X51800045Y-6780858D01*
X51639141Y-6619954D01*
X51452734Y-6489432D01*
X51452732Y-6489431D01*
X51246497Y-6393261D01*
X51246488Y-6393258D01*
X51026697Y-6334366D01*
X51026693Y-6334365D01*
X51026692Y-6334365D01*
X51026691Y-6334364D01*
X51026686Y-6334364D01*
X50800002Y-6314532D01*
X50799998Y-6314532D01*
X50573313Y-6334364D01*
X50573302Y-6334366D01*
X50353511Y-6393258D01*
X50353502Y-6393261D01*
X50147267Y-6489431D01*
X50147265Y-6489432D01*
X49960858Y-6619954D01*
X49799954Y-6780858D01*
X49669432Y-6967265D01*
X49669431Y-6967267D01*
X49642382Y-7025275D01*
X49596209Y-7077714D01*
X49529016Y-7096866D01*
X49462135Y-7076650D01*
X49417618Y-7025275D01*
X49390686Y-6967520D01*
X49390568Y-6967266D01*
X49260047Y-6780861D01*
X49260045Y-6780858D01*
X49099141Y-6619954D01*
X48912734Y-6489432D01*
X48912732Y-6489431D01*
X48706497Y-6393261D01*
X48706488Y-6393258D01*
X48486697Y-6334366D01*
X48486693Y-6334365D01*
X48486692Y-6334365D01*
X48486691Y-6334364D01*
X48486686Y-6334364D01*
X48260002Y-6314532D01*
X48259998Y-6314532D01*
X48033313Y-6334364D01*
X48033302Y-6334366D01*
X47813511Y-6393258D01*
X47813502Y-6393261D01*
X47607267Y-6489431D01*
X47607265Y-6489432D01*
X47420858Y-6619954D01*
X47259954Y-6780858D01*
X47129432Y-6967265D01*
X47129431Y-6967267D01*
X47102382Y-7025275D01*
X47056209Y-7077714D01*
X46989016Y-7096866D01*
X46922135Y-7076650D01*
X46877618Y-7025275D01*
X46850686Y-6967520D01*
X46850568Y-6967266D01*
X46720047Y-6780861D01*
X46720045Y-6780858D01*
X46559141Y-6619954D01*
X46372734Y-6489432D01*
X46372732Y-6489431D01*
X46166497Y-6393261D01*
X46166488Y-6393258D01*
X45946697Y-6334366D01*
X45946693Y-6334365D01*
X45946692Y-6334365D01*
X45946691Y-6334364D01*
X45946686Y-6334364D01*
X45720002Y-6314532D01*
X45719998Y-6314532D01*
X45493313Y-6334364D01*
X45493302Y-6334366D01*
X45273511Y-6393258D01*
X45273502Y-6393261D01*
X45067267Y-6489431D01*
X45067265Y-6489432D01*
X44880858Y-6619954D01*
X44719954Y-6780858D01*
X44589432Y-6967265D01*
X44589431Y-6967267D01*
X44562382Y-7025275D01*
X44516209Y-7077714D01*
X44449016Y-7096866D01*
X44382135Y-7076650D01*
X44337618Y-7025275D01*
X44310686Y-6967520D01*
X44310568Y-6967266D01*
X44180047Y-6780861D01*
X44180045Y-6780858D01*
X44019141Y-6619954D01*
X43832734Y-6489432D01*
X43832732Y-6489431D01*
X43626497Y-6393261D01*
X43626488Y-6393258D01*
X43406697Y-6334366D01*
X43406693Y-6334365D01*
X43406692Y-6334365D01*
X43406691Y-6334364D01*
X43406686Y-6334364D01*
X43180002Y-6314532D01*
X43179998Y-6314532D01*
X42953313Y-6334364D01*
X42953302Y-6334366D01*
X42733511Y-6393258D01*
X42733502Y-6393261D01*
X42527267Y-6489431D01*
X42527265Y-6489432D01*
X42340858Y-6619954D01*
X42179954Y-6780858D01*
X42049432Y-6967265D01*
X42049431Y-6967267D01*
X42022382Y-7025275D01*
X41976209Y-7077714D01*
X41909016Y-7096866D01*
X41842135Y-7076650D01*
X41797618Y-7025275D01*
X41770686Y-6967520D01*
X41770568Y-6967266D01*
X41640047Y-6780861D01*
X41640045Y-6780858D01*
X41479141Y-6619954D01*
X41292734Y-6489432D01*
X41292732Y-6489431D01*
X41086497Y-6393261D01*
X41086488Y-6393258D01*
X40866697Y-6334366D01*
X40866693Y-6334365D01*
X40866692Y-6334365D01*
X40866691Y-6334364D01*
X40866686Y-6334364D01*
X40640002Y-6314532D01*
X40639998Y-6314532D01*
X40413313Y-6334364D01*
X40413302Y-6334366D01*
X40193511Y-6393258D01*
X40193502Y-6393261D01*
X39987267Y-6489431D01*
X39987265Y-6489432D01*
X39800858Y-6619954D01*
X39639954Y-6780858D01*
X39509432Y-6967265D01*
X39509431Y-6967267D01*
X39482382Y-7025275D01*
X39436209Y-7077714D01*
X39369016Y-7096866D01*
X39302135Y-7076650D01*
X39257618Y-7025275D01*
X39230686Y-6967520D01*
X39230568Y-6967266D01*
X39100047Y-6780861D01*
X39100045Y-6780858D01*
X38939141Y-6619954D01*
X38752734Y-6489432D01*
X38752732Y-6489431D01*
X38546497Y-6393261D01*
X38546488Y-6393258D01*
X38326697Y-6334366D01*
X38326693Y-6334365D01*
X38326692Y-6334365D01*
X38326691Y-6334364D01*
X38326686Y-6334364D01*
X38100002Y-6314532D01*
X38099998Y-6314532D01*
X37873313Y-6334364D01*
X37873302Y-6334366D01*
X37653511Y-6393258D01*
X37653502Y-6393261D01*
X37447267Y-6489431D01*
X37447265Y-6489432D01*
X37260858Y-6619954D01*
X37099954Y-6780858D01*
X36969432Y-6967265D01*
X36969431Y-6967267D01*
X36942382Y-7025275D01*
X36896209Y-7077714D01*
X36829016Y-7096866D01*
X36762135Y-7076650D01*
X36717618Y-7025275D01*
X36690686Y-6967520D01*
X36690568Y-6967266D01*
X36560047Y-6780861D01*
X36560045Y-6780858D01*
X36399141Y-6619954D01*
X36212734Y-6489432D01*
X36212732Y-6489431D01*
X36006497Y-6393261D01*
X36006488Y-6393258D01*
X35786697Y-6334366D01*
X35786693Y-6334365D01*
X35786692Y-6334365D01*
X35786691Y-6334364D01*
X35786686Y-6334364D01*
X35560002Y-6314532D01*
X35559998Y-6314532D01*
X35333313Y-6334364D01*
X35333302Y-6334366D01*
X35113511Y-6393258D01*
X35113502Y-6393261D01*
X34907267Y-6489431D01*
X34907265Y-6489432D01*
X34720858Y-6619954D01*
X34559954Y-6780858D01*
X34429432Y-6967265D01*
X34429431Y-6967267D01*
X34402382Y-7025275D01*
X34356209Y-7077714D01*
X34289016Y-7096866D01*
X34222135Y-7076650D01*
X34177618Y-7025275D01*
X34150686Y-6967520D01*
X34150568Y-6967266D01*
X34020047Y-6780861D01*
X34020045Y-6780858D01*
X33859141Y-6619954D01*
X33672734Y-6489432D01*
X33672732Y-6489431D01*
X33466497Y-6393261D01*
X33466488Y-6393258D01*
X33246697Y-6334366D01*
X33246693Y-6334365D01*
X33246692Y-6334365D01*
X33246691Y-6334364D01*
X33246686Y-6334364D01*
X33020002Y-6314532D01*
X33019998Y-6314532D01*
X32793313Y-6334364D01*
X32793302Y-6334366D01*
X32573511Y-6393258D01*
X32573502Y-6393261D01*
X32367267Y-6489431D01*
X32367265Y-6489432D01*
X32180858Y-6619954D01*
X32019954Y-6780858D01*
X31889432Y-6967265D01*
X31889431Y-6967267D01*
X31862382Y-7025275D01*
X31816209Y-7077714D01*
X31749016Y-7096866D01*
X31682135Y-7076650D01*
X31637618Y-7025275D01*
X31610686Y-6967520D01*
X31610568Y-6967266D01*
X31480047Y-6780861D01*
X31480045Y-6780858D01*
X31319141Y-6619954D01*
X31132734Y-6489432D01*
X31132732Y-6489431D01*
X30926497Y-6393261D01*
X30926488Y-6393258D01*
X30706697Y-6334366D01*
X30706693Y-6334365D01*
X30706692Y-6334365D01*
X30706691Y-6334364D01*
X30706686Y-6334364D01*
X30480002Y-6314532D01*
X30479998Y-6314532D01*
X30253313Y-6334364D01*
X30253302Y-6334366D01*
X30033511Y-6393258D01*
X30033502Y-6393261D01*
X29827267Y-6489431D01*
X29827265Y-6489432D01*
X29640858Y-6619954D01*
X29479954Y-6780858D01*
X29349432Y-6967265D01*
X29349431Y-6967267D01*
X29322382Y-7025275D01*
X29276209Y-7077714D01*
X29209016Y-7096866D01*
X29142135Y-7076650D01*
X29097618Y-7025275D01*
X29070686Y-6967520D01*
X29070568Y-6967266D01*
X28940047Y-6780861D01*
X28940045Y-6780858D01*
X28779141Y-6619954D01*
X28592734Y-6489432D01*
X28592732Y-6489431D01*
X28386497Y-6393261D01*
X28386488Y-6393258D01*
X28166697Y-6334366D01*
X28166693Y-6334365D01*
X28166692Y-6334365D01*
X28166691Y-6334364D01*
X28166686Y-6334364D01*
X27940002Y-6314532D01*
X27939998Y-6314532D01*
X27713313Y-6334364D01*
X27713302Y-6334366D01*
X27493511Y-6393258D01*
X27493502Y-6393261D01*
X27287267Y-6489431D01*
X27287265Y-6489432D01*
X27100858Y-6619954D01*
X26939954Y-6780858D01*
X26809432Y-6967265D01*
X26809430Y-6967268D01*
X26782380Y-7025277D01*
X26736207Y-7077715D01*
X26669013Y-7096866D01*
X26602132Y-7076649D01*
X26557619Y-7025277D01*
X26530568Y-6967266D01*
X26400047Y-6780861D01*
X26400045Y-6780858D01*
X26239141Y-6619954D01*
X26052734Y-6489432D01*
X26052732Y-6489431D01*
X25846497Y-6393261D01*
X25846488Y-6393258D01*
X25626697Y-6334366D01*
X25626693Y-6334365D01*
X25626692Y-6334365D01*
X25626691Y-6334364D01*
X25626686Y-6334364D01*
X25400002Y-6314532D01*
X25399998Y-6314532D01*
X25173313Y-6334364D01*
X25173302Y-6334366D01*
X24953511Y-6393258D01*
X24953502Y-6393261D01*
X24747267Y-6489431D01*
X24747265Y-6489432D01*
X24560858Y-6619954D01*
X24399954Y-6780858D01*
X24269432Y-6967265D01*
X24269431Y-6967267D01*
X24242382Y-7025275D01*
X24196209Y-7077714D01*
X24129016Y-7096866D01*
X24062135Y-7076650D01*
X24017618Y-7025275D01*
X23990686Y-6967520D01*
X23990568Y-6967266D01*
X23860047Y-6780861D01*
X23860045Y-6780858D01*
X23699141Y-6619954D01*
X23512734Y-6489432D01*
X23512732Y-6489431D01*
X23306497Y-6393261D01*
X23306488Y-6393258D01*
X23086697Y-6334366D01*
X23086693Y-6334365D01*
X23086692Y-6334365D01*
X23086691Y-6334364D01*
X23086686Y-6334364D01*
X22860002Y-6314532D01*
X22859998Y-6314532D01*
X22633313Y-6334364D01*
X22633302Y-6334366D01*
X22413511Y-6393258D01*
X22413502Y-6393261D01*
X22207267Y-6489431D01*
X22207265Y-6489432D01*
X22020858Y-6619954D01*
X21859954Y-6780858D01*
X21729432Y-6967265D01*
X21729431Y-6967267D01*
X21702382Y-7025275D01*
X21656209Y-7077714D01*
X21589016Y-7096866D01*
X21522135Y-7076650D01*
X21477618Y-7025275D01*
X21450686Y-6967520D01*
X21450568Y-6967266D01*
X21320047Y-6780861D01*
X21320045Y-6780858D01*
X21159141Y-6619954D01*
X20972734Y-6489432D01*
X20972732Y-6489431D01*
X20766497Y-6393261D01*
X20766488Y-6393258D01*
X20546697Y-6334366D01*
X20546693Y-6334365D01*
X20546692Y-6334365D01*
X20546691Y-6334364D01*
X20546686Y-6334364D01*
X20320002Y-6314532D01*
X20319998Y-6314532D01*
X20093313Y-6334364D01*
X20093302Y-6334366D01*
X19873511Y-6393258D01*
X19873502Y-6393261D01*
X19667267Y-6489431D01*
X19667265Y-6489432D01*
X19480858Y-6619954D01*
X19319954Y-6780858D01*
X19189432Y-6967265D01*
X19189431Y-6967267D01*
X19162382Y-7025275D01*
X19116209Y-7077714D01*
X19049016Y-7096866D01*
X18982135Y-7076650D01*
X18937618Y-7025275D01*
X18910686Y-6967520D01*
X18910568Y-6967266D01*
X18780047Y-6780861D01*
X18780045Y-6780858D01*
X18619141Y-6619954D01*
X18432734Y-6489432D01*
X18432732Y-6489431D01*
X18226497Y-6393261D01*
X18226488Y-6393258D01*
X18006697Y-6334366D01*
X18006693Y-6334365D01*
X18006692Y-6334365D01*
X18006691Y-6334364D01*
X18006686Y-6334364D01*
X17780002Y-6314532D01*
X17779998Y-6314532D01*
X17553313Y-6334364D01*
X17553302Y-6334366D01*
X17333511Y-6393258D01*
X17333502Y-6393261D01*
X17127267Y-6489431D01*
X17127265Y-6489432D01*
X16940858Y-6619954D01*
X16779954Y-6780858D01*
X16649434Y-6967263D01*
X16649432Y-6967266D01*
X16622383Y-7025274D01*
X16622106Y-7025867D01*
X16575933Y-7078306D01*
X16508739Y-7097457D01*
X16441858Y-7077241D01*
X16397342Y-7025865D01*
X16370135Y-6967520D01*
X16370134Y-6967518D01*
X16239657Y-6781179D01*
X16078820Y-6620342D01*
X15892482Y-6489865D01*
X15686328Y-6393734D01*
X15490000Y-6341127D01*
X15490000Y-7304313D01*
X15478045Y-7292359D01*
X15365148Y-7234835D01*
X15271481Y-7220000D01*
X15208519Y-7220000D01*
X15114852Y-7234835D01*
X15001955Y-7292359D01*
X14990000Y-7304314D01*
X14990000Y-6341127D01*
X14793671Y-6393734D01*
X14587517Y-6489865D01*
X14401179Y-6620342D01*
X14240342Y-6781179D01*
X14109867Y-6967515D01*
X14082657Y-7025867D01*
X14036484Y-7078306D01*
X13969290Y-7097457D01*
X13902409Y-7077241D01*
X13857893Y-7025865D01*
X13857617Y-7025274D01*
X13830568Y-6967266D01*
X13700047Y-6780861D01*
X13700045Y-6780858D01*
X13539141Y-6619954D01*
X13352734Y-6489432D01*
X13352732Y-6489431D01*
X13146497Y-6393261D01*
X13146488Y-6393258D01*
X12926697Y-6334366D01*
X12926693Y-6334365D01*
X12926692Y-6334365D01*
X12926691Y-6334364D01*
X12926686Y-6334364D01*
X12700002Y-6314532D01*
X12699998Y-6314532D01*
X12473313Y-6334364D01*
X12473302Y-6334366D01*
X12253511Y-6393258D01*
X12253502Y-6393261D01*
X12047267Y-6489431D01*
X12047265Y-6489432D01*
X11860858Y-6619954D01*
X11699954Y-6780858D01*
X11569432Y-6967265D01*
X11569431Y-6967267D01*
X11473261Y-7173502D01*
X11473258Y-7173511D01*
X11414366Y-7393302D01*
X11414364Y-7393313D01*
X11394532Y-7619998D01*
X11394532Y-7620001D01*
X11414364Y-7846686D01*
X11414366Y-7846697D01*
X11473258Y-8066488D01*
X11473261Y-8066497D01*
X11569431Y-8272732D01*
X11569432Y-8272734D01*
X11699954Y-8459141D01*
X11860858Y-8620045D01*
X11860861Y-8620047D01*
X12047266Y-8750568D01*
X12105275Y-8777618D01*
X12157714Y-8823791D01*
X12176866Y-8890984D01*
X12156650Y-8957865D01*
X12105275Y-9002382D01*
X12047267Y-9029431D01*
X12047265Y-9029432D01*
X11860858Y-9159954D01*
X11699954Y-9320858D01*
X11569432Y-9507265D01*
X11569431Y-9507267D01*
X11473261Y-9713502D01*
X11473258Y-9713511D01*
X11414366Y-9933302D01*
X11414364Y-9933313D01*
X11394532Y-10159998D01*
X11394532Y-10160001D01*
X11414364Y-10386686D01*
X11414366Y-10386697D01*
X11473258Y-10606488D01*
X11473261Y-10606497D01*
X11569431Y-10812732D01*
X11569432Y-10812734D01*
X11699954Y-10999141D01*
X11860858Y-11160045D01*
X11860861Y-11160047D01*
X12047266Y-11290568D01*
X12253504Y-11386739D01*
X12473308Y-11445635D01*
X12635230Y-11459801D01*
X12699998Y-11465468D01*
X12700000Y-11465468D01*
X12700002Y-11465468D01*
X12756672Y-11460509D01*
X12926692Y-11445635D01*
X13146496Y-11386739D01*
X13352734Y-11290568D01*
X13539139Y-11160047D01*
X13700047Y-10999139D01*
X13830568Y-10812734D01*
X13857895Y-10754129D01*
X13904064Y-10701695D01*
X13971257Y-10682542D01*
X14038139Y-10702757D01*
X14082657Y-10754133D01*
X14109865Y-10812482D01*
X14240342Y-10998820D01*
X14401179Y-11159657D01*
X14587517Y-11290134D01*
X14793673Y-11386265D01*
X14793682Y-11386269D01*
X14989999Y-11438872D01*
X14990000Y-11438871D01*
X14990000Y-10475686D01*
X15001955Y-10487641D01*
X15114852Y-10545165D01*
X15208519Y-10560000D01*
X15271481Y-10560000D01*
X15365148Y-10545165D01*
X15478045Y-10487641D01*
X15490000Y-10475686D01*
X15490000Y-11438872D01*
X15686317Y-11386269D01*
X15686326Y-11386265D01*
X15892482Y-11290134D01*
X16078820Y-11159657D01*
X16239657Y-10998820D01*
X16370132Y-10812484D01*
X16397341Y-10754134D01*
X16443513Y-10701695D01*
X16510707Y-10682542D01*
X16577588Y-10702757D01*
X16622105Y-10754132D01*
X16644088Y-10801275D01*
X16649431Y-10812732D01*
X16649432Y-10812734D01*
X16779954Y-10999141D01*
X16940858Y-11160045D01*
X16940861Y-11160047D01*
X17127266Y-11290568D01*
X17333504Y-11386739D01*
X17553308Y-11445635D01*
X17715230Y-11459801D01*
X17779998Y-11465468D01*
X17780000Y-11465468D01*
X17780002Y-11465468D01*
X17836672Y-11460509D01*
X18006692Y-11445635D01*
X18226496Y-11386739D01*
X18432734Y-11290568D01*
X18619139Y-11160047D01*
X18780047Y-10999139D01*
X18910568Y-10812734D01*
X18937618Y-10754724D01*
X18983790Y-10702285D01*
X19050983Y-10683133D01*
X19117865Y-10703348D01*
X19162382Y-10754725D01*
X19189429Y-10812728D01*
X19189432Y-10812734D01*
X19319954Y-10999141D01*
X19480858Y-11160045D01*
X19641623Y-11272613D01*
X19685248Y-11327189D01*
X19694500Y-11374188D01*
X19694500Y-11754547D01*
X19674815Y-11821586D01*
X19658181Y-11842228D01*
X19462228Y-12038181D01*
X19400905Y-12071666D01*
X19374547Y-12074500D01*
X15943748Y-12074500D01*
X15876709Y-12054815D01*
X15851600Y-12033474D01*
X15845873Y-12027114D01*
X15845869Y-12027110D01*
X15692734Y-11915851D01*
X15692729Y-11915848D01*
X15519807Y-11838857D01*
X15519802Y-11838855D01*
X15364798Y-11805909D01*
X15334646Y-11799500D01*
X15145354Y-11799500D01*
X15115202Y-11805909D01*
X14960197Y-11838855D01*
X14960192Y-11838857D01*
X14787270Y-11915848D01*
X14787265Y-11915851D01*
X14634130Y-12027110D01*
X14634126Y-12027114D01*
X14628400Y-12033474D01*
X14568913Y-12070121D01*
X14536252Y-12074500D01*
X11374188Y-12074500D01*
X11307149Y-12054815D01*
X11272613Y-12021623D01*
X11160045Y-11860858D01*
X10999141Y-11699954D01*
X10812734Y-11569432D01*
X10812732Y-11569431D01*
X10606497Y-11473261D01*
X10606488Y-11473258D01*
X10386697Y-11414366D01*
X10386693Y-11414365D01*
X10386692Y-11414365D01*
X10386691Y-11414364D01*
X10386686Y-11414364D01*
X10160002Y-11394532D01*
X10159998Y-11394532D01*
X9933313Y-11414364D01*
X9933302Y-11414366D01*
X9713511Y-11473258D01*
X9713502Y-11473261D01*
X9507267Y-11569431D01*
X9507265Y-11569432D01*
X9320858Y-11699954D01*
X9159954Y-11860858D01*
X9029432Y-12047265D01*
X9029431Y-12047267D01*
X8933261Y-12253502D01*
X8933258Y-12253511D01*
X8874366Y-12473302D01*
X8874364Y-12473313D01*
X8854532Y-12699998D01*
X8854532Y-12700001D01*
X8874364Y-12926686D01*
X8874366Y-12926697D01*
X8933258Y-13146488D01*
X8933261Y-13146497D01*
X9029431Y-13352732D01*
X9029432Y-13352734D01*
X9159954Y-13539141D01*
X9320858Y-13700045D01*
X9320861Y-13700047D01*
X9507266Y-13830568D01*
X9565275Y-13857618D01*
X9617714Y-13903791D01*
X9636866Y-13970984D01*
X9616650Y-14037865D01*
X9565275Y-14082382D01*
X9507267Y-14109431D01*
X9507265Y-14109432D01*
X9320858Y-14239954D01*
X9159954Y-14400858D01*
X9029432Y-14587265D01*
X9029431Y-14587267D01*
X8933261Y-14793502D01*
X8933258Y-14793511D01*
X8874366Y-15013302D01*
X8874364Y-15013313D01*
X8854532Y-15239998D01*
X8854532Y-15240001D01*
X8874364Y-15466686D01*
X8874366Y-15466697D01*
X8933258Y-15686488D01*
X8933261Y-15686497D01*
X9029431Y-15892732D01*
X9029432Y-15892734D01*
X9159954Y-16079141D01*
X9320858Y-16240045D01*
X9320861Y-16240047D01*
X9507266Y-16370568D01*
X9565275Y-16397618D01*
X9617714Y-16443791D01*
X9636866Y-16510984D01*
X9616650Y-16577865D01*
X9565275Y-16622382D01*
X9507267Y-16649431D01*
X9507265Y-16649432D01*
X9320858Y-16779954D01*
X9159954Y-16940858D01*
X9029432Y-17127265D01*
X9029431Y-17127267D01*
X8933261Y-17333502D01*
X8933258Y-17333511D01*
X8874366Y-17553302D01*
X8874364Y-17553313D01*
X8854532Y-17779998D01*
X8854532Y-17780001D01*
X8874364Y-18006686D01*
X8874366Y-18006697D01*
X8933258Y-18226488D01*
X8933260Y-18226492D01*
X8933261Y-18226496D01*
X8943333Y-18248095D01*
X8953825Y-18317173D01*
X8925305Y-18380957D01*
X8866829Y-18419196D01*
X8830951Y-18424500D01*
X7050758Y-18424500D01*
X6983719Y-18404815D01*
X6963077Y-18388181D01*
X5971108Y-17396212D01*
X5961285Y-17383950D01*
X5961064Y-17384134D01*
X5956091Y-17378123D01*
X5924268Y-17348239D01*
X5905669Y-17330773D01*
X5895224Y-17320328D01*
X5884780Y-17309883D01*
X5879291Y-17305625D01*
X5874866Y-17301847D01*
X5840887Y-17269938D01*
X5840885Y-17269936D01*
X5840882Y-17269935D01*
X5823334Y-17260288D01*
X5807068Y-17249604D01*
X5791238Y-17237325D01*
X5748473Y-17218818D01*
X5743227Y-17216248D01*
X5702398Y-17193803D01*
X5702397Y-17193802D01*
X5682998Y-17188822D01*
X5664586Y-17182518D01*
X5646203Y-17174562D01*
X5646197Y-17174560D01*
X5600179Y-17167272D01*
X5594457Y-17166087D01*
X5549326Y-17154500D01*
X5549324Y-17154500D01*
X5529289Y-17154500D01*
X5509891Y-17152973D01*
X5501638Y-17151666D01*
X5490110Y-17149840D01*
X5490109Y-17149840D01*
X5443721Y-17154225D01*
X5437883Y-17154500D01*
X3754188Y-17154500D01*
X3687149Y-17134815D01*
X3652613Y-17101623D01*
X3540045Y-16940858D01*
X3379141Y-16779954D01*
X3192735Y-16649433D01*
X3192736Y-16649433D01*
X3192734Y-16649432D01*
X3134722Y-16622380D01*
X3082284Y-16576208D01*
X3063133Y-16509014D01*
X3083349Y-16442133D01*
X3134721Y-16397619D01*
X3192734Y-16370568D01*
X3379139Y-16240047D01*
X3540047Y-16079139D01*
X3670568Y-15892734D01*
X3766739Y-15686496D01*
X3825635Y-15466692D01*
X3845468Y-15240000D01*
X3825635Y-15013308D01*
X3766739Y-14793504D01*
X3670568Y-14587266D01*
X3540047Y-14400861D01*
X3540045Y-14400858D01*
X3379141Y-14239954D01*
X3192734Y-14109432D01*
X3192728Y-14109429D01*
X3134725Y-14082382D01*
X3082285Y-14036210D01*
X3063133Y-13969017D01*
X3083348Y-13902135D01*
X3134725Y-13857618D01*
X3192734Y-13830568D01*
X3379139Y-13700047D01*
X3540047Y-13539139D01*
X3670568Y-13352734D01*
X3766739Y-13146496D01*
X3825635Y-12926692D01*
X3845468Y-12700000D01*
X3825635Y-12473308D01*
X3766739Y-12253504D01*
X3670568Y-12047266D01*
X3540047Y-11860861D01*
X3540045Y-11860858D01*
X3379141Y-11699954D01*
X3192734Y-11569432D01*
X3192732Y-11569431D01*
X2986497Y-11473261D01*
X2986488Y-11473258D01*
X2766697Y-11414366D01*
X2766693Y-11414365D01*
X2766692Y-11414365D01*
X2766691Y-11414364D01*
X2766686Y-11414364D01*
X2540002Y-11394532D01*
X2539998Y-11394532D01*
X2313313Y-11414364D01*
X2313302Y-11414366D01*
X2093511Y-11473258D01*
X2093502Y-11473261D01*
X1887267Y-11569431D01*
X1887265Y-11569432D01*
X1700858Y-11699954D01*
X1539954Y-11860858D01*
X1409432Y-12047265D01*
X1409431Y-12047267D01*
X1313261Y-12253502D01*
X1313258Y-12253511D01*
X1254366Y-12473302D01*
X1254364Y-12473313D01*
X1234532Y-12699998D01*
X1234532Y-12700001D01*
X1254364Y-12926686D01*
X1254366Y-12926697D01*
X1313258Y-13146488D01*
X1313261Y-13146497D01*
X1409431Y-13352732D01*
X1409432Y-13352734D01*
X1539954Y-13539141D01*
X1700858Y-13700045D01*
X1700861Y-13700047D01*
X1887266Y-13830568D01*
X1945275Y-13857618D01*
X1997714Y-13903791D01*
X2016866Y-13970984D01*
X1996650Y-14037865D01*
X1945275Y-14082382D01*
X1887267Y-14109431D01*
X1887265Y-14109432D01*
X1700858Y-14239954D01*
X1539954Y-14400858D01*
X1409432Y-14587265D01*
X1409431Y-14587267D01*
X1313261Y-14793502D01*
X1313258Y-14793511D01*
X1254366Y-15013302D01*
X1254364Y-15013313D01*
X1234532Y-15239998D01*
X1234532Y-15240001D01*
X1254364Y-15466686D01*
X1254366Y-15466697D01*
X1313258Y-15686488D01*
X1313261Y-15686497D01*
X1409431Y-15892732D01*
X1409432Y-15892734D01*
X1539954Y-16079141D01*
X1700858Y-16240045D01*
X1700861Y-16240047D01*
X1887266Y-16370568D01*
X1945278Y-16397619D01*
X1997713Y-16443788D01*
X2016866Y-16510982D01*
X1996651Y-16577863D01*
X1945277Y-16622380D01*
X1887268Y-16649430D01*
X1887265Y-16649432D01*
X1700858Y-16779954D01*
X1539954Y-16940858D01*
X1409432Y-17127265D01*
X1409431Y-17127267D01*
X1313261Y-17333502D01*
X1313258Y-17333511D01*
X1254366Y-17553302D01*
X1254364Y-17553313D01*
X1234532Y-17779998D01*
X1234532Y-17780001D01*
X635000Y-17780001D01*
X635000Y-9014000D01*
X654685Y-8946961D01*
X707489Y-8901206D01*
X759000Y-8890000D01*
X6350000Y-8890000D01*
X8890000Y-6350000D01*
X8890000Y-758999D01*
X8909685Y-691961D01*
X8962489Y-646206D01*
X9014000Y-635000D01*
X64646000Y-635000D01*
X64713039Y-654685D01*
G37*
%TD.AperFunction*%
%TD*%
M02*
