%TF.GenerationSoftware,KiCad,Pcbnew,7.0.6*%
%TF.CreationDate,2023-07-19T18:48:30+09:00*%
%TF.ProjectId,TangNano6809MEM,54616e67-4e61-46e6-9f36-3830394d454d,rev?*%
%TF.SameCoordinates,Original*%
%TF.FileFunction,Soldermask,Bot*%
%TF.FilePolarity,Negative*%
%FSLAX46Y46*%
G04 Gerber Fmt 4.6, Leading zero omitted, Abs format (unit mm)*
G04 Created by KiCad (PCBNEW 7.0.6) date 2023-07-19 18:48:30*
%MOMM*%
%LPD*%
G01*
G04 APERTURE LIST*
%ADD10R,1.600000X1.600000*%
%ADD11O,1.600000X1.600000*%
%ADD12R,1.200000X1.200000*%
%ADD13C,1.200000*%
%ADD14C,3.000000*%
%ADD15R,1.700000X1.700000*%
%ADD16O,1.700000X1.700000*%
%ADD17C,1.600000*%
G04 APERTURE END LIST*
D10*
%TO.C,J1*%
X12700000Y-66040000D03*
D11*
X15240000Y-66040000D03*
X17780000Y-66040000D03*
X20320000Y-66040000D03*
X22860000Y-66040000D03*
X25400000Y-66040000D03*
X27940000Y-66040000D03*
X30480000Y-66040000D03*
X33020000Y-66040000D03*
X35560000Y-66040000D03*
X38100000Y-66040000D03*
X40640000Y-66040000D03*
X43180000Y-66040000D03*
X45720000Y-66040000D03*
X48260000Y-66040000D03*
X50800000Y-66040000D03*
X53340000Y-66040000D03*
X55880000Y-66040000D03*
X58420000Y-66040000D03*
X60960000Y-66040000D03*
X60960000Y-50800000D03*
X58420000Y-50800000D03*
X55880000Y-50800000D03*
X53340000Y-50800000D03*
X50800000Y-50800000D03*
X48260000Y-50800000D03*
X45720000Y-50800000D03*
X43180000Y-50800000D03*
X40640000Y-50800000D03*
X38100000Y-50800000D03*
X35560000Y-50800000D03*
X33020000Y-50800000D03*
X30480000Y-50800000D03*
X27940000Y-50800000D03*
X25400000Y-50800000D03*
X22860000Y-50800000D03*
X20320000Y-50800000D03*
X17780000Y-50800000D03*
X15240000Y-50800000D03*
X12700000Y-50800000D03*
%TD*%
D12*
%TO.C,C2*%
X24130000Y-34060000D03*
D13*
X24130000Y-35560000D03*
%TD*%
D14*
%TO.C,REF\u002A\u002A*%
X68580000Y-68580000D03*
%TD*%
D15*
%TO.C,J3*%
X5080000Y-43180000D03*
D16*
X7620000Y-43180000D03*
%TD*%
D17*
%TO.C,R3*%
X20320000Y-40640000D03*
D11*
X12700000Y-40640000D03*
%TD*%
D17*
%TO.C,R1*%
X2540000Y-12700000D03*
D11*
X10160000Y-12700000D03*
%TD*%
D15*
%TO.C,J8*%
X5080000Y-40640000D03*
D16*
X7620000Y-40640000D03*
%TD*%
D17*
%TO.C,R4*%
X20320000Y-43180000D03*
D11*
X12700000Y-43180000D03*
%TD*%
D17*
%TO.C,R2*%
X20320000Y-38100000D03*
D11*
X12700000Y-38100000D03*
%TD*%
D14*
%TO.C,REF\u002A\u002A*%
X5080000Y-5080000D03*
%TD*%
D17*
%TO.C,R7*%
X2540000Y-15240000D03*
D11*
X10160000Y-15240000D03*
%TD*%
D15*
%TO.C,J4*%
X5080000Y-30480000D03*
D16*
X7620000Y-30480000D03*
%TD*%
D15*
%TO.C,J5*%
X5080000Y-33020000D03*
D16*
X7620000Y-33020000D03*
%TD*%
D17*
%TO.C,R5*%
X2540000Y-17780000D03*
D11*
X10160000Y-17780000D03*
%TD*%
D17*
%TO.C,C1*%
X27940000Y-33020000D03*
X27940000Y-38020000D03*
%TD*%
D10*
%TO.C,U1*%
X12700000Y-25400000D03*
D11*
X15240000Y-25400000D03*
X17780000Y-25400000D03*
X20320000Y-25400000D03*
X22860000Y-25400000D03*
X25400000Y-25400000D03*
X27940000Y-25400000D03*
X30480000Y-25400000D03*
X33020000Y-25400000D03*
X35560000Y-25400000D03*
X38100000Y-25400000D03*
X40640000Y-25400000D03*
X43180000Y-25400000D03*
X45720000Y-25400000D03*
X48260000Y-25400000D03*
X50800000Y-25400000D03*
X53340000Y-25400000D03*
X55880000Y-25400000D03*
X58420000Y-25400000D03*
X60960000Y-25400000D03*
X60960000Y-10160000D03*
X58420000Y-10160000D03*
X55880000Y-10160000D03*
X53340000Y-10160000D03*
X50800000Y-10160000D03*
X48260000Y-10160000D03*
X45720000Y-10160000D03*
X43180000Y-10160000D03*
X40640000Y-10160000D03*
X38100000Y-10160000D03*
X35560000Y-10160000D03*
X33020000Y-10160000D03*
X30480000Y-10160000D03*
X27940000Y-10160000D03*
X25400000Y-10160000D03*
X22860000Y-10160000D03*
X20320000Y-10160000D03*
X17780000Y-10160000D03*
X15240000Y-10160000D03*
X12700000Y-10160000D03*
%TD*%
D10*
%TO.C,J2*%
X12700000Y-27940000D03*
D11*
X15240000Y-27940000D03*
X17780000Y-27940000D03*
X20320000Y-27940000D03*
X22860000Y-27940000D03*
X25400000Y-27940000D03*
X27940000Y-27940000D03*
X30480000Y-27940000D03*
X33020000Y-27940000D03*
X35560000Y-27940000D03*
X38100000Y-27940000D03*
X40640000Y-27940000D03*
X43180000Y-27940000D03*
X45720000Y-27940000D03*
X48260000Y-27940000D03*
X50800000Y-27940000D03*
X53340000Y-27940000D03*
X55880000Y-27940000D03*
X58420000Y-27940000D03*
X60960000Y-27940000D03*
X60960000Y-7620000D03*
X58420000Y-7620000D03*
X55880000Y-7620000D03*
X53340000Y-7620000D03*
X50800000Y-7620000D03*
X48260000Y-7620000D03*
X45720000Y-7620000D03*
X43180000Y-7620000D03*
X40640000Y-7620000D03*
X38100000Y-7620000D03*
X35560000Y-7620000D03*
X33020000Y-7620000D03*
X30480000Y-7620000D03*
X27940000Y-7620000D03*
X25400000Y-7620000D03*
X22860000Y-7620000D03*
X20320000Y-7620000D03*
X17780000Y-7620000D03*
X15240000Y-7620000D03*
X12700000Y-7620000D03*
%TD*%
D15*
%TO.C,J7*%
X5080000Y-38100000D03*
D16*
X7620000Y-38100000D03*
%TD*%
D14*
%TO.C,REF\u002A\u002A*%
X5080000Y-68580000D03*
%TD*%
D17*
%TO.C,R6*%
X20320000Y-35560000D03*
D11*
X12700000Y-35560000D03*
%TD*%
D14*
%TO.C,REF\u002A\u002A*%
X68580000Y-5080000D03*
%TD*%
D15*
%TO.C,J6*%
X5080000Y-35560000D03*
D16*
X7620000Y-35560000D03*
%TD*%
M02*
