%TF.GenerationSoftware,KiCad,Pcbnew,7.0.6*%
%TF.CreationDate,2023-07-11T11:54:07+09:00*%
%TF.ProjectId,TangNano5V,54616e67-4e61-46e6-9f35-562e6b696361,rev?*%
%TF.SameCoordinates,Original*%
%TF.FileFunction,Copper,L4,Bot*%
%TF.FilePolarity,Positive*%
%FSLAX46Y46*%
G04 Gerber Fmt 4.6, Leading zero omitted, Abs format (unit mm)*
G04 Created by KiCad (PCBNEW 7.0.6) date 2023-07-11 11:54:07*
%MOMM*%
%LPD*%
G01*
G04 APERTURE LIST*
%ADD10C,0.120000*%
%TA.AperFunction,NonConductor*%
%ADD11C,0.120000*%
%TD*%
%TA.AperFunction,ComponentPad*%
%ADD12O,1.700000X1.700000*%
%TD*%
%TA.AperFunction,ComponentPad*%
%ADD13R,1.700000X1.700000*%
%TD*%
%TA.AperFunction,ViaPad*%
%ADD14C,0.800000*%
%TD*%
%TA.AperFunction,Conductor*%
%ADD15C,0.250000*%
%TD*%
%TA.AperFunction,Conductor*%
%ADD16C,1.000000*%
%TD*%
G04 APERTURE END LIST*
D10*
D11*
X52308576Y-10491855D02*
X52308576Y-9691855D01*
X52308576Y-9691855D02*
X52118100Y-9691855D01*
X52118100Y-9691855D02*
X52003814Y-9729950D01*
X52003814Y-9729950D02*
X51927624Y-9806140D01*
X51927624Y-9806140D02*
X51889529Y-9882331D01*
X51889529Y-9882331D02*
X51851433Y-10034712D01*
X51851433Y-10034712D02*
X51851433Y-10148998D01*
X51851433Y-10148998D02*
X51889529Y-10301379D01*
X51889529Y-10301379D02*
X51927624Y-10377569D01*
X51927624Y-10377569D02*
X52003814Y-10453760D01*
X52003814Y-10453760D02*
X52118100Y-10491855D01*
X52118100Y-10491855D02*
X52308576Y-10491855D01*
X51203814Y-10453760D02*
X51280005Y-10491855D01*
X51280005Y-10491855D02*
X51432386Y-10491855D01*
X51432386Y-10491855D02*
X51508576Y-10453760D01*
X51508576Y-10453760D02*
X51546672Y-10377569D01*
X51546672Y-10377569D02*
X51546672Y-10072807D01*
X51546672Y-10072807D02*
X51508576Y-9996617D01*
X51508576Y-9996617D02*
X51432386Y-9958521D01*
X51432386Y-9958521D02*
X51280005Y-9958521D01*
X51280005Y-9958521D02*
X51203814Y-9996617D01*
X51203814Y-9996617D02*
X51165719Y-10072807D01*
X51165719Y-10072807D02*
X51165719Y-10148998D01*
X51165719Y-10148998D02*
X51546672Y-10225188D01*
X50860958Y-10453760D02*
X50784767Y-10491855D01*
X50784767Y-10491855D02*
X50632386Y-10491855D01*
X50632386Y-10491855D02*
X50556196Y-10453760D01*
X50556196Y-10453760D02*
X50518100Y-10377569D01*
X50518100Y-10377569D02*
X50518100Y-10339474D01*
X50518100Y-10339474D02*
X50556196Y-10263283D01*
X50556196Y-10263283D02*
X50632386Y-10225188D01*
X50632386Y-10225188D02*
X50746672Y-10225188D01*
X50746672Y-10225188D02*
X50822862Y-10187093D01*
X50822862Y-10187093D02*
X50860958Y-10110902D01*
X50860958Y-10110902D02*
X50860958Y-10072807D01*
X50860958Y-10072807D02*
X50822862Y-9996617D01*
X50822862Y-9996617D02*
X50746672Y-9958521D01*
X50746672Y-9958521D02*
X50632386Y-9958521D01*
X50632386Y-9958521D02*
X50556196Y-9996617D01*
X50175243Y-10491855D02*
X50175243Y-9958521D01*
X50175243Y-9691855D02*
X50213339Y-9729950D01*
X50213339Y-9729950D02*
X50175243Y-9768045D01*
X50175243Y-9768045D02*
X50137148Y-9729950D01*
X50137148Y-9729950D02*
X50175243Y-9691855D01*
X50175243Y-9691855D02*
X50175243Y-9768045D01*
X49451434Y-9958521D02*
X49451434Y-10606140D01*
X49451434Y-10606140D02*
X49489529Y-10682331D01*
X49489529Y-10682331D02*
X49527625Y-10720426D01*
X49527625Y-10720426D02*
X49603815Y-10758521D01*
X49603815Y-10758521D02*
X49718101Y-10758521D01*
X49718101Y-10758521D02*
X49794291Y-10720426D01*
X49451434Y-10453760D02*
X49527625Y-10491855D01*
X49527625Y-10491855D02*
X49680006Y-10491855D01*
X49680006Y-10491855D02*
X49756196Y-10453760D01*
X49756196Y-10453760D02*
X49794291Y-10415664D01*
X49794291Y-10415664D02*
X49832387Y-10339474D01*
X49832387Y-10339474D02*
X49832387Y-10110902D01*
X49832387Y-10110902D02*
X49794291Y-10034712D01*
X49794291Y-10034712D02*
X49756196Y-9996617D01*
X49756196Y-9996617D02*
X49680006Y-9958521D01*
X49680006Y-9958521D02*
X49527625Y-9958521D01*
X49527625Y-9958521D02*
X49451434Y-9996617D01*
X49070481Y-9958521D02*
X49070481Y-10491855D01*
X49070481Y-10034712D02*
X49032386Y-9996617D01*
X49032386Y-9996617D02*
X48956196Y-9958521D01*
X48956196Y-9958521D02*
X48841910Y-9958521D01*
X48841910Y-9958521D02*
X48765719Y-9996617D01*
X48765719Y-9996617D02*
X48727624Y-10072807D01*
X48727624Y-10072807D02*
X48727624Y-10491855D01*
X48041909Y-10453760D02*
X48118100Y-10491855D01*
X48118100Y-10491855D02*
X48270481Y-10491855D01*
X48270481Y-10491855D02*
X48346671Y-10453760D01*
X48346671Y-10453760D02*
X48384767Y-10377569D01*
X48384767Y-10377569D02*
X48384767Y-10072807D01*
X48384767Y-10072807D02*
X48346671Y-9996617D01*
X48346671Y-9996617D02*
X48270481Y-9958521D01*
X48270481Y-9958521D02*
X48118100Y-9958521D01*
X48118100Y-9958521D02*
X48041909Y-9996617D01*
X48041909Y-9996617D02*
X48003814Y-10072807D01*
X48003814Y-10072807D02*
X48003814Y-10148998D01*
X48003814Y-10148998D02*
X48384767Y-10225188D01*
X47318100Y-10491855D02*
X47318100Y-9691855D01*
X47318100Y-10453760D02*
X47394291Y-10491855D01*
X47394291Y-10491855D02*
X47546672Y-10491855D01*
X47546672Y-10491855D02*
X47622862Y-10453760D01*
X47622862Y-10453760D02*
X47660957Y-10415664D01*
X47660957Y-10415664D02*
X47699053Y-10339474D01*
X47699053Y-10339474D02*
X47699053Y-10110902D01*
X47699053Y-10110902D02*
X47660957Y-10034712D01*
X47660957Y-10034712D02*
X47622862Y-9996617D01*
X47622862Y-9996617D02*
X47546672Y-9958521D01*
X47546672Y-9958521D02*
X47394291Y-9958521D01*
X47394291Y-9958521D02*
X47318100Y-9996617D01*
X46327623Y-10491855D02*
X46327623Y-9691855D01*
X46327623Y-9996617D02*
X46251433Y-9958521D01*
X46251433Y-9958521D02*
X46099052Y-9958521D01*
X46099052Y-9958521D02*
X46022861Y-9996617D01*
X46022861Y-9996617D02*
X45984766Y-10034712D01*
X45984766Y-10034712D02*
X45946671Y-10110902D01*
X45946671Y-10110902D02*
X45946671Y-10339474D01*
X45946671Y-10339474D02*
X45984766Y-10415664D01*
X45984766Y-10415664D02*
X46022861Y-10453760D01*
X46022861Y-10453760D02*
X46099052Y-10491855D01*
X46099052Y-10491855D02*
X46251433Y-10491855D01*
X46251433Y-10491855D02*
X46327623Y-10453760D01*
X45680004Y-9958521D02*
X45489528Y-10491855D01*
X45299051Y-9958521D02*
X45489528Y-10491855D01*
X45489528Y-10491855D02*
X45565718Y-10682331D01*
X45565718Y-10682331D02*
X45603813Y-10720426D01*
X45603813Y-10720426D02*
X45680004Y-10758521D01*
X51851433Y-11779855D02*
X52118100Y-11398902D01*
X52308576Y-11779855D02*
X52308576Y-10979855D01*
X52308576Y-10979855D02*
X52003814Y-10979855D01*
X52003814Y-10979855D02*
X51927624Y-11017950D01*
X51927624Y-11017950D02*
X51889529Y-11056045D01*
X51889529Y-11056045D02*
X51851433Y-11132236D01*
X51851433Y-11132236D02*
X51851433Y-11246521D01*
X51851433Y-11246521D02*
X51889529Y-11322712D01*
X51889529Y-11322712D02*
X51927624Y-11360807D01*
X51927624Y-11360807D02*
X52003814Y-11398902D01*
X52003814Y-11398902D02*
X52308576Y-11398902D01*
X51584767Y-11246521D02*
X51394291Y-11779855D01*
X51203814Y-11246521D02*
X51394291Y-11779855D01*
X51394291Y-11779855D02*
X51470481Y-11970331D01*
X51470481Y-11970331D02*
X51508576Y-12008426D01*
X51508576Y-12008426D02*
X51584767Y-12046521D01*
X50784767Y-11779855D02*
X50860957Y-11741760D01*
X50860957Y-11741760D02*
X50899052Y-11703664D01*
X50899052Y-11703664D02*
X50937148Y-11627474D01*
X50937148Y-11627474D02*
X50937148Y-11398902D01*
X50937148Y-11398902D02*
X50899052Y-11322712D01*
X50899052Y-11322712D02*
X50860957Y-11284617D01*
X50860957Y-11284617D02*
X50784767Y-11246521D01*
X50784767Y-11246521D02*
X50670481Y-11246521D01*
X50670481Y-11246521D02*
X50594290Y-11284617D01*
X50594290Y-11284617D02*
X50556195Y-11322712D01*
X50556195Y-11322712D02*
X50518100Y-11398902D01*
X50518100Y-11398902D02*
X50518100Y-11627474D01*
X50518100Y-11627474D02*
X50556195Y-11703664D01*
X50556195Y-11703664D02*
X50594290Y-11741760D01*
X50594290Y-11741760D02*
X50670481Y-11779855D01*
X50670481Y-11779855D02*
X50784767Y-11779855D01*
X49565718Y-11779855D02*
X49565718Y-10979855D01*
X49565718Y-10979855D02*
X49299052Y-11551283D01*
X49299052Y-11551283D02*
X49032385Y-10979855D01*
X49032385Y-10979855D02*
X49032385Y-11779855D01*
X48308575Y-11246521D02*
X48308575Y-11779855D01*
X48651432Y-11246521D02*
X48651432Y-11665569D01*
X48651432Y-11665569D02*
X48613337Y-11741760D01*
X48613337Y-11741760D02*
X48537147Y-11779855D01*
X48537147Y-11779855D02*
X48422861Y-11779855D01*
X48422861Y-11779855D02*
X48346670Y-11741760D01*
X48346670Y-11741760D02*
X48308575Y-11703664D01*
X47927622Y-11779855D02*
X47927622Y-10979855D01*
X47851432Y-11475093D02*
X47622860Y-11779855D01*
X47622860Y-11246521D02*
X47927622Y-11551283D01*
X46937146Y-11779855D02*
X46937146Y-11360807D01*
X46937146Y-11360807D02*
X46975241Y-11284617D01*
X46975241Y-11284617D02*
X47051432Y-11246521D01*
X47051432Y-11246521D02*
X47203813Y-11246521D01*
X47203813Y-11246521D02*
X47280003Y-11284617D01*
X46937146Y-11741760D02*
X47013337Y-11779855D01*
X47013337Y-11779855D02*
X47203813Y-11779855D01*
X47203813Y-11779855D02*
X47280003Y-11741760D01*
X47280003Y-11741760D02*
X47318099Y-11665569D01*
X47318099Y-11665569D02*
X47318099Y-11589379D01*
X47318099Y-11589379D02*
X47280003Y-11513188D01*
X47280003Y-11513188D02*
X47203813Y-11475093D01*
X47203813Y-11475093D02*
X47013337Y-11475093D01*
X47013337Y-11475093D02*
X46937146Y-11436998D01*
X46556193Y-11779855D02*
X46556193Y-11246521D01*
X46556193Y-10979855D02*
X46594289Y-11017950D01*
X46594289Y-11017950D02*
X46556193Y-11056045D01*
X46556193Y-11056045D02*
X46518098Y-11017950D01*
X46518098Y-11017950D02*
X46556193Y-10979855D01*
X46556193Y-10979855D02*
X46556193Y-11056045D01*
X52346672Y-12344045D02*
X52308576Y-12305950D01*
X52308576Y-12305950D02*
X52232386Y-12267855D01*
X52232386Y-12267855D02*
X52041910Y-12267855D01*
X52041910Y-12267855D02*
X51965719Y-12305950D01*
X51965719Y-12305950D02*
X51927624Y-12344045D01*
X51927624Y-12344045D02*
X51889529Y-12420236D01*
X51889529Y-12420236D02*
X51889529Y-12496426D01*
X51889529Y-12496426D02*
X51927624Y-12610712D01*
X51927624Y-12610712D02*
X52384767Y-13067855D01*
X52384767Y-13067855D02*
X51889529Y-13067855D01*
X51394290Y-12267855D02*
X51318100Y-12267855D01*
X51318100Y-12267855D02*
X51241909Y-12305950D01*
X51241909Y-12305950D02*
X51203814Y-12344045D01*
X51203814Y-12344045D02*
X51165719Y-12420236D01*
X51165719Y-12420236D02*
X51127624Y-12572617D01*
X51127624Y-12572617D02*
X51127624Y-12763093D01*
X51127624Y-12763093D02*
X51165719Y-12915474D01*
X51165719Y-12915474D02*
X51203814Y-12991664D01*
X51203814Y-12991664D02*
X51241909Y-13029760D01*
X51241909Y-13029760D02*
X51318100Y-13067855D01*
X51318100Y-13067855D02*
X51394290Y-13067855D01*
X51394290Y-13067855D02*
X51470481Y-13029760D01*
X51470481Y-13029760D02*
X51508576Y-12991664D01*
X51508576Y-12991664D02*
X51546671Y-12915474D01*
X51546671Y-12915474D02*
X51584767Y-12763093D01*
X51584767Y-12763093D02*
X51584767Y-12572617D01*
X51584767Y-12572617D02*
X51546671Y-12420236D01*
X51546671Y-12420236D02*
X51508576Y-12344045D01*
X51508576Y-12344045D02*
X51470481Y-12305950D01*
X51470481Y-12305950D02*
X51394290Y-12267855D01*
X50822862Y-12344045D02*
X50784766Y-12305950D01*
X50784766Y-12305950D02*
X50708576Y-12267855D01*
X50708576Y-12267855D02*
X50518100Y-12267855D01*
X50518100Y-12267855D02*
X50441909Y-12305950D01*
X50441909Y-12305950D02*
X50403814Y-12344045D01*
X50403814Y-12344045D02*
X50365719Y-12420236D01*
X50365719Y-12420236D02*
X50365719Y-12496426D01*
X50365719Y-12496426D02*
X50403814Y-12610712D01*
X50403814Y-12610712D02*
X50860957Y-13067855D01*
X50860957Y-13067855D02*
X50365719Y-13067855D01*
X50099052Y-12267855D02*
X49603814Y-12267855D01*
X49603814Y-12267855D02*
X49870480Y-12572617D01*
X49870480Y-12572617D02*
X49756195Y-12572617D01*
X49756195Y-12572617D02*
X49680004Y-12610712D01*
X49680004Y-12610712D02*
X49641909Y-12648807D01*
X49641909Y-12648807D02*
X49603814Y-12724998D01*
X49603814Y-12724998D02*
X49603814Y-12915474D01*
X49603814Y-12915474D02*
X49641909Y-12991664D01*
X49641909Y-12991664D02*
X49680004Y-13029760D01*
X49680004Y-13029760D02*
X49756195Y-13067855D01*
X49756195Y-13067855D02*
X49984766Y-13067855D01*
X49984766Y-13067855D02*
X50060957Y-13029760D01*
X50060957Y-13029760D02*
X50099052Y-12991664D01*
X52308576Y-14355855D02*
X52308576Y-13555855D01*
X51965719Y-14355855D02*
X51965719Y-13936807D01*
X51965719Y-13936807D02*
X52003814Y-13860617D01*
X52003814Y-13860617D02*
X52080005Y-13822521D01*
X52080005Y-13822521D02*
X52194291Y-13822521D01*
X52194291Y-13822521D02*
X52270481Y-13860617D01*
X52270481Y-13860617D02*
X52308576Y-13898712D01*
X51699052Y-13822521D02*
X51394290Y-13822521D01*
X51584766Y-13555855D02*
X51584766Y-14241569D01*
X51584766Y-14241569D02*
X51546671Y-14317760D01*
X51546671Y-14317760D02*
X51470481Y-14355855D01*
X51470481Y-14355855D02*
X51394290Y-14355855D01*
X51241909Y-13822521D02*
X50937147Y-13822521D01*
X51127623Y-13555855D02*
X51127623Y-14241569D01*
X51127623Y-14241569D02*
X51089528Y-14317760D01*
X51089528Y-14317760D02*
X51013338Y-14355855D01*
X51013338Y-14355855D02*
X50937147Y-14355855D01*
X50670480Y-13822521D02*
X50670480Y-14622521D01*
X50670480Y-13860617D02*
X50594290Y-13822521D01*
X50594290Y-13822521D02*
X50441909Y-13822521D01*
X50441909Y-13822521D02*
X50365718Y-13860617D01*
X50365718Y-13860617D02*
X50327623Y-13898712D01*
X50327623Y-13898712D02*
X50289528Y-13974902D01*
X50289528Y-13974902D02*
X50289528Y-14203474D01*
X50289528Y-14203474D02*
X50327623Y-14279664D01*
X50327623Y-14279664D02*
X50365718Y-14317760D01*
X50365718Y-14317760D02*
X50441909Y-14355855D01*
X50441909Y-14355855D02*
X50594290Y-14355855D01*
X50594290Y-14355855D02*
X50670480Y-14317760D01*
X49984766Y-14317760D02*
X49908575Y-14355855D01*
X49908575Y-14355855D02*
X49756194Y-14355855D01*
X49756194Y-14355855D02*
X49680004Y-14317760D01*
X49680004Y-14317760D02*
X49641908Y-14241569D01*
X49641908Y-14241569D02*
X49641908Y-14203474D01*
X49641908Y-14203474D02*
X49680004Y-14127283D01*
X49680004Y-14127283D02*
X49756194Y-14089188D01*
X49756194Y-14089188D02*
X49870480Y-14089188D01*
X49870480Y-14089188D02*
X49946670Y-14051093D01*
X49946670Y-14051093D02*
X49984766Y-13974902D01*
X49984766Y-13974902D02*
X49984766Y-13936807D01*
X49984766Y-13936807D02*
X49946670Y-13860617D01*
X49946670Y-13860617D02*
X49870480Y-13822521D01*
X49870480Y-13822521D02*
X49756194Y-13822521D01*
X49756194Y-13822521D02*
X49680004Y-13860617D01*
X49299051Y-14279664D02*
X49260956Y-14317760D01*
X49260956Y-14317760D02*
X49299051Y-14355855D01*
X49299051Y-14355855D02*
X49337147Y-14317760D01*
X49337147Y-14317760D02*
X49299051Y-14279664D01*
X49299051Y-14279664D02*
X49299051Y-14355855D01*
X49299051Y-13860617D02*
X49260956Y-13898712D01*
X49260956Y-13898712D02*
X49299051Y-13936807D01*
X49299051Y-13936807D02*
X49337147Y-13898712D01*
X49337147Y-13898712D02*
X49299051Y-13860617D01*
X49299051Y-13860617D02*
X49299051Y-13936807D01*
X48346671Y-13517760D02*
X49032385Y-14546331D01*
X47508576Y-13517760D02*
X48194290Y-14546331D01*
X51965719Y-15110521D02*
X51965719Y-15758140D01*
X51965719Y-15758140D02*
X52003814Y-15834331D01*
X52003814Y-15834331D02*
X52041910Y-15872426D01*
X52041910Y-15872426D02*
X52118100Y-15910521D01*
X52118100Y-15910521D02*
X52232386Y-15910521D01*
X52232386Y-15910521D02*
X52308576Y-15872426D01*
X51965719Y-15605760D02*
X52041910Y-15643855D01*
X52041910Y-15643855D02*
X52194291Y-15643855D01*
X52194291Y-15643855D02*
X52270481Y-15605760D01*
X52270481Y-15605760D02*
X52308576Y-15567664D01*
X52308576Y-15567664D02*
X52346672Y-15491474D01*
X52346672Y-15491474D02*
X52346672Y-15262902D01*
X52346672Y-15262902D02*
X52308576Y-15186712D01*
X52308576Y-15186712D02*
X52270481Y-15148617D01*
X52270481Y-15148617D02*
X52194291Y-15110521D01*
X52194291Y-15110521D02*
X52041910Y-15110521D01*
X52041910Y-15110521D02*
X51965719Y-15148617D01*
X51584766Y-15643855D02*
X51584766Y-15110521D01*
X51584766Y-14843855D02*
X51622862Y-14881950D01*
X51622862Y-14881950D02*
X51584766Y-14920045D01*
X51584766Y-14920045D02*
X51546671Y-14881950D01*
X51546671Y-14881950D02*
X51584766Y-14843855D01*
X51584766Y-14843855D02*
X51584766Y-14920045D01*
X51318100Y-15110521D02*
X51013338Y-15110521D01*
X51203814Y-14843855D02*
X51203814Y-15529569D01*
X51203814Y-15529569D02*
X51165719Y-15605760D01*
X51165719Y-15605760D02*
X51089529Y-15643855D01*
X51089529Y-15643855D02*
X51013338Y-15643855D01*
X50746671Y-15643855D02*
X50746671Y-14843855D01*
X50403814Y-15643855D02*
X50403814Y-15224807D01*
X50403814Y-15224807D02*
X50441909Y-15148617D01*
X50441909Y-15148617D02*
X50518100Y-15110521D01*
X50518100Y-15110521D02*
X50632386Y-15110521D01*
X50632386Y-15110521D02*
X50708576Y-15148617D01*
X50708576Y-15148617D02*
X50746671Y-15186712D01*
X49680004Y-15110521D02*
X49680004Y-15643855D01*
X50022861Y-15110521D02*
X50022861Y-15529569D01*
X50022861Y-15529569D02*
X49984766Y-15605760D01*
X49984766Y-15605760D02*
X49908576Y-15643855D01*
X49908576Y-15643855D02*
X49794290Y-15643855D01*
X49794290Y-15643855D02*
X49718099Y-15605760D01*
X49718099Y-15605760D02*
X49680004Y-15567664D01*
X49299051Y-15643855D02*
X49299051Y-14843855D01*
X49299051Y-15148617D02*
X49222861Y-15110521D01*
X49222861Y-15110521D02*
X49070480Y-15110521D01*
X49070480Y-15110521D02*
X48994289Y-15148617D01*
X48994289Y-15148617D02*
X48956194Y-15186712D01*
X48956194Y-15186712D02*
X48918099Y-15262902D01*
X48918099Y-15262902D02*
X48918099Y-15491474D01*
X48918099Y-15491474D02*
X48956194Y-15567664D01*
X48956194Y-15567664D02*
X48994289Y-15605760D01*
X48994289Y-15605760D02*
X49070480Y-15643855D01*
X49070480Y-15643855D02*
X49222861Y-15643855D01*
X49222861Y-15643855D02*
X49299051Y-15605760D01*
X48575241Y-15567664D02*
X48537146Y-15605760D01*
X48537146Y-15605760D02*
X48575241Y-15643855D01*
X48575241Y-15643855D02*
X48613337Y-15605760D01*
X48613337Y-15605760D02*
X48575241Y-15567664D01*
X48575241Y-15567664D02*
X48575241Y-15643855D01*
X47851432Y-15605760D02*
X47927623Y-15643855D01*
X47927623Y-15643855D02*
X48080004Y-15643855D01*
X48080004Y-15643855D02*
X48156194Y-15605760D01*
X48156194Y-15605760D02*
X48194289Y-15567664D01*
X48194289Y-15567664D02*
X48232385Y-15491474D01*
X48232385Y-15491474D02*
X48232385Y-15262902D01*
X48232385Y-15262902D02*
X48194289Y-15186712D01*
X48194289Y-15186712D02*
X48156194Y-15148617D01*
X48156194Y-15148617D02*
X48080004Y-15110521D01*
X48080004Y-15110521D02*
X47927623Y-15110521D01*
X47927623Y-15110521D02*
X47851432Y-15148617D01*
X47394290Y-15643855D02*
X47470480Y-15605760D01*
X47470480Y-15605760D02*
X47508575Y-15567664D01*
X47508575Y-15567664D02*
X47546671Y-15491474D01*
X47546671Y-15491474D02*
X47546671Y-15262902D01*
X47546671Y-15262902D02*
X47508575Y-15186712D01*
X47508575Y-15186712D02*
X47470480Y-15148617D01*
X47470480Y-15148617D02*
X47394290Y-15110521D01*
X47394290Y-15110521D02*
X47280004Y-15110521D01*
X47280004Y-15110521D02*
X47203813Y-15148617D01*
X47203813Y-15148617D02*
X47165718Y-15186712D01*
X47165718Y-15186712D02*
X47127623Y-15262902D01*
X47127623Y-15262902D02*
X47127623Y-15491474D01*
X47127623Y-15491474D02*
X47165718Y-15567664D01*
X47165718Y-15567664D02*
X47203813Y-15605760D01*
X47203813Y-15605760D02*
X47280004Y-15643855D01*
X47280004Y-15643855D02*
X47394290Y-15643855D01*
X46784765Y-15643855D02*
X46784765Y-15110521D01*
X46784765Y-15186712D02*
X46746670Y-15148617D01*
X46746670Y-15148617D02*
X46670480Y-15110521D01*
X46670480Y-15110521D02*
X46556194Y-15110521D01*
X46556194Y-15110521D02*
X46480003Y-15148617D01*
X46480003Y-15148617D02*
X46441908Y-15224807D01*
X46441908Y-15224807D02*
X46441908Y-15643855D01*
X46441908Y-15224807D02*
X46403813Y-15148617D01*
X46403813Y-15148617D02*
X46327622Y-15110521D01*
X46327622Y-15110521D02*
X46213337Y-15110521D01*
X46213337Y-15110521D02*
X46137146Y-15148617D01*
X46137146Y-15148617D02*
X46099051Y-15224807D01*
X46099051Y-15224807D02*
X46099051Y-15643855D01*
X45146670Y-14805760D02*
X45832384Y-15834331D01*
X44880003Y-15643855D02*
X44880003Y-15110521D01*
X44880003Y-15262902D02*
X44841908Y-15186712D01*
X44841908Y-15186712D02*
X44803813Y-15148617D01*
X44803813Y-15148617D02*
X44727622Y-15110521D01*
X44727622Y-15110521D02*
X44651432Y-15110521D01*
X44460956Y-15110521D02*
X44270480Y-15643855D01*
X44080003Y-15110521D02*
X44270480Y-15643855D01*
X44270480Y-15643855D02*
X44346670Y-15834331D01*
X44346670Y-15834331D02*
X44384765Y-15872426D01*
X44384765Y-15872426D02*
X44460956Y-15910521D01*
X43660956Y-15643855D02*
X43737146Y-15605760D01*
X43737146Y-15605760D02*
X43775241Y-15567664D01*
X43775241Y-15567664D02*
X43813337Y-15491474D01*
X43813337Y-15491474D02*
X43813337Y-15262902D01*
X43813337Y-15262902D02*
X43775241Y-15186712D01*
X43775241Y-15186712D02*
X43737146Y-15148617D01*
X43737146Y-15148617D02*
X43660956Y-15110521D01*
X43660956Y-15110521D02*
X43546670Y-15110521D01*
X43546670Y-15110521D02*
X43470479Y-15148617D01*
X43470479Y-15148617D02*
X43432384Y-15186712D01*
X43432384Y-15186712D02*
X43394289Y-15262902D01*
X43394289Y-15262902D02*
X43394289Y-15491474D01*
X43394289Y-15491474D02*
X43432384Y-15567664D01*
X43432384Y-15567664D02*
X43470479Y-15605760D01*
X43470479Y-15605760D02*
X43546670Y-15643855D01*
X43546670Y-15643855D02*
X43660956Y-15643855D01*
X43051431Y-15643855D02*
X43051431Y-15110521D01*
X43051431Y-15186712D02*
X43013336Y-15148617D01*
X43013336Y-15148617D02*
X42937146Y-15110521D01*
X42937146Y-15110521D02*
X42822860Y-15110521D01*
X42822860Y-15110521D02*
X42746669Y-15148617D01*
X42746669Y-15148617D02*
X42708574Y-15224807D01*
X42708574Y-15224807D02*
X42708574Y-15643855D01*
X42708574Y-15224807D02*
X42670479Y-15148617D01*
X42670479Y-15148617D02*
X42594288Y-15110521D01*
X42594288Y-15110521D02*
X42480003Y-15110521D01*
X42480003Y-15110521D02*
X42403812Y-15148617D01*
X42403812Y-15148617D02*
X42365717Y-15224807D01*
X42365717Y-15224807D02*
X42365717Y-15643855D01*
X41641907Y-15110521D02*
X41641907Y-15643855D01*
X41984764Y-15110521D02*
X41984764Y-15529569D01*
X41984764Y-15529569D02*
X41946669Y-15605760D01*
X41946669Y-15605760D02*
X41870479Y-15643855D01*
X41870479Y-15643855D02*
X41756193Y-15643855D01*
X41756193Y-15643855D02*
X41680002Y-15605760D01*
X41680002Y-15605760D02*
X41641907Y-15567664D01*
X41260954Y-15643855D02*
X41260954Y-14843855D01*
X41184764Y-15339093D02*
X40956192Y-15643855D01*
X40956192Y-15110521D02*
X41260954Y-15415283D01*
D12*
%TO.P,J2,20,Pin_20*%
%TO.N,PIN52*%
X50800000Y-2540000D03*
%TO.P,J2,19,Pin_19*%
%TO.N,PIN53*%
X48260000Y-2540000D03*
%TO.P,J2,18,Pin_18*%
%TO.N,PIN71*%
X45720000Y-2540000D03*
%TO.P,J2,17,Pin_17*%
%TO.N,PIN72*%
X43180000Y-2540000D03*
%TO.P,J2,16,Pin_16*%
%TO.N,+3.3V*%
X40640000Y-2540000D03*
%TO.P,J2,15,Pin_15*%
%TO.N,GND*%
X38100000Y-2540000D03*
%TO.P,J2,14,Pin_14*%
%TO.N,PIN79*%
X35560000Y-2540000D03*
%TO.P,J2,13,Pin_13*%
%TO.N,PIN86*%
X33020000Y-2540000D03*
%TO.P,J2,12,Pin_12*%
%TO.N,PIN49*%
X30480000Y-2540000D03*
%TO.P,J2,11,Pin_11*%
%TO.N,PIN55*%
X27940000Y-2540000D03*
%TO.P,J2,10,Pin_10*%
%TO.N,PIN48*%
X25400000Y-2540000D03*
%TO.P,J2,9,Pin_9*%
%TO.N,PIN51*%
X22860000Y-2540000D03*
%TO.P,J2,8,Pin_8*%
%TO.N,PIN54*%
X20320000Y-2540000D03*
%TO.P,J2,7,Pin_7*%
%TO.N,PIN56*%
X17780000Y-2540000D03*
%TO.P,J2,6,Pin_6*%
%TO.N,PIN41*%
X15240000Y-2540000D03*
%TO.P,J2,5,Pin_5*%
%TO.N,PIN42*%
X12700000Y-2540000D03*
%TO.P,J2,4,Pin_4*%
%TO.N,PIN80*%
X10160000Y-2540000D03*
%TO.P,J2,3,Pin_3*%
%TO.N,PIN76*%
X7620000Y-2540000D03*
%TO.P,J2,2,Pin_2*%
%TO.N,GND*%
X5080000Y-2540000D03*
D13*
%TO.P,J2,1,Pin_1*%
%TO.N,+5V*%
X2540000Y-2540000D03*
%TD*%
%TO.P,J1,1,Pin_1*%
%TO.N,PIN73*%
X2540000Y-22860000D03*
D12*
%TO.P,J1,2,Pin_2*%
%TO.N,PIN74*%
X5080000Y-22860000D03*
%TO.P,J1,3,Pin_3*%
%TO.N,PIN75*%
X7620000Y-22860000D03*
%TO.P,J1,4,Pin_4*%
%TO.N,PIN85*%
X10160000Y-22860000D03*
%TO.P,J1,5,Pin_5*%
%TO.N,PIN77*%
X12700000Y-22860000D03*
%TO.P,J1,6,Pin_6*%
%TO.N,PIN15*%
X15240000Y-22860000D03*
%TO.P,J1,7,Pin_7*%
%TO.N,PIN16*%
X17780000Y-22860000D03*
%TO.P,J1,8,Pin_8*%
%TO.N,PIN27*%
X20320000Y-22860000D03*
%TO.P,J1,9,Pin_9*%
%TO.N,PIN28*%
X22860000Y-22860000D03*
%TO.P,J1,10,Pin_10*%
%TO.N,PIN25*%
X25400000Y-22860000D03*
%TO.P,J1,11,Pin_11*%
%TO.N,PIN26*%
X27940000Y-22860000D03*
%TO.P,J1,12,Pin_12*%
%TO.N,PIN29*%
X30480000Y-22860000D03*
%TO.P,J1,13,Pin_13*%
%TO.N,PIN30*%
X33020000Y-22860000D03*
%TO.P,J1,14,Pin_14*%
%TO.N,PIN31*%
X35560000Y-22860000D03*
%TO.P,J1,15,Pin_15*%
%TO.N,PIN17*%
X38100000Y-22860000D03*
%TO.P,J1,16,Pin_16*%
%TO.N,PIN20*%
X40640000Y-22860000D03*
%TO.P,J1,17,Pin_17*%
%TO.N,PIN19*%
X43180000Y-22860000D03*
%TO.P,J1,18,Pin_18*%
%TO.N,PIN18*%
X45720000Y-22860000D03*
%TO.P,J1,19,Pin_19*%
%TO.N,+3.3V*%
X48260000Y-22860000D03*
%TO.P,J1,20,Pin_20*%
%TO.N,GND*%
X50800000Y-22860000D03*
%TD*%
D13*
%TO.P,J4,1,Pin_1*%
%TO.N,+5V*%
X2540000Y-5080000D03*
D12*
%TO.P,J4,2,Pin_2*%
%TO.N,GND*%
X5080000Y-5080000D03*
%TO.P,J4,3,Pin_3*%
%TO.N,PIN76_H*%
X7620000Y-5080000D03*
%TO.P,J4,4,Pin_4*%
%TO.N,PIN80_H*%
X10160000Y-5080000D03*
%TO.P,J4,5,Pin_5*%
%TO.N,PIN42_H*%
X12700000Y-5080000D03*
%TO.P,J4,6,Pin_6*%
%TO.N,PIN41_H*%
X15240000Y-5080000D03*
%TO.P,J4,7,Pin_7*%
%TO.N,PIN56_H*%
X17780000Y-5080000D03*
%TO.P,J4,8,Pin_8*%
%TO.N,PIN54_H*%
X20320000Y-5080000D03*
%TO.P,J4,9,Pin_9*%
%TO.N,PIN51_H*%
X22860000Y-5080000D03*
%TO.P,J4,10,Pin_10*%
%TO.N,PIN48_H*%
X25400000Y-5080000D03*
%TO.P,J4,11,Pin_11*%
%TO.N,PIN55_H*%
X27940000Y-5080000D03*
%TO.P,J4,12,Pin_12*%
%TO.N,PIN49_H*%
X30480000Y-5080000D03*
%TO.P,J4,13,Pin_13*%
%TO.N,PIN86_H*%
X33020000Y-5080000D03*
%TO.P,J4,14,Pin_14*%
%TO.N,PIN79_H*%
X35560000Y-5080000D03*
%TO.P,J4,15,Pin_15*%
%TO.N,GND*%
X38100000Y-5080000D03*
%TO.P,J4,16,Pin_16*%
%TO.N,+3.3V*%
X40640000Y-5080000D03*
%TO.P,J4,17,Pin_17*%
%TO.N,PIN72_H*%
X43180000Y-5080000D03*
%TO.P,J4,18,Pin_18*%
%TO.N,PIN71_H*%
X45720000Y-5080000D03*
%TO.P,J4,19,Pin_19*%
%TO.N,PIN53_H*%
X48260000Y-5080000D03*
%TO.P,J4,20,Pin_20*%
%TO.N,PIN52_H*%
X50800000Y-5080000D03*
%TD*%
D13*
%TO.P,J3,1,Pin_1*%
%TO.N,PIN73_H*%
X2540000Y-20320000D03*
D12*
%TO.P,J3,2,Pin_2*%
%TO.N,PIN74_H*%
X5080000Y-20320000D03*
%TO.P,J3,3,Pin_3*%
%TO.N,PIN75_H*%
X7620000Y-20320000D03*
%TO.P,J3,4,Pin_4*%
%TO.N,PIN85_H*%
X10160000Y-20320000D03*
%TO.P,J3,5,Pin_5*%
%TO.N,PIN77_H*%
X12700000Y-20320000D03*
%TO.P,J3,6,Pin_6*%
%TO.N,PIN15_H*%
X15240000Y-20320000D03*
%TO.P,J3,7,Pin_7*%
%TO.N,PIN16_H*%
X17780000Y-20320000D03*
%TO.P,J3,8,Pin_8*%
%TO.N,PIN27_H*%
X20320000Y-20320000D03*
%TO.P,J3,9,Pin_9*%
%TO.N,PIN28_H*%
X22860000Y-20320000D03*
%TO.P,J3,10,Pin_10*%
%TO.N,PIN25_H*%
X25400000Y-20320000D03*
%TO.P,J3,11,Pin_11*%
%TO.N,PIN26_H*%
X27940000Y-20320000D03*
%TO.P,J3,12,Pin_12*%
%TO.N,PIN29_H*%
X30480000Y-20320000D03*
%TO.P,J3,13,Pin_13*%
%TO.N,PIN30_H*%
X33020000Y-20320000D03*
%TO.P,J3,14,Pin_14*%
%TO.N,PIN31_H*%
X35560000Y-20320000D03*
%TO.P,J3,15,Pin_15*%
%TO.N,PIN17_H*%
X38100000Y-20320000D03*
%TO.P,J3,16,Pin_16*%
%TO.N,PIN20_H*%
X40640000Y-20320000D03*
%TO.P,J3,17,Pin_17*%
%TO.N,PIN19_H*%
X43180000Y-20320000D03*
%TO.P,J3,18,Pin_18*%
%TO.N,PIN18_H*%
X45720000Y-20320000D03*
%TO.P,J3,19,Pin_19*%
%TO.N,+3.3V*%
X48260000Y-20320000D03*
%TO.P,J3,20,Pin_20*%
%TO.N,GND*%
X50800000Y-20320000D03*
%TD*%
D14*
%TO.N,PIN74*%
X3048000Y-13716000D03*
%TO.N,PIN75*%
X5588000Y-14224000D03*
%TO.N,PIN85*%
X6604000Y-13716000D03*
%TO.N,PIN77*%
X7620000Y-13208000D03*
%TO.N,PIN15*%
X11684000Y-12700000D03*
%TO.N,PIN16*%
X12700000Y-13716000D03*
%TO.N,PIN27*%
X15748000Y-13716000D03*
%TO.N,PIN28*%
X17526000Y-13716000D03*
%TO.N,PIN26*%
X22606000Y-14986000D03*
%TO.N,PIN25*%
X21844000Y-13716000D03*
%TO.N,PIN29*%
X24892000Y-14986000D03*
%TO.N,PIN30*%
X26162000Y-14986000D03*
%TO.N,PIN31*%
X31750000Y-12700000D03*
%TO.N,PIN17*%
X32512000Y-13716000D03*
%TO.N,PIN20*%
X34544000Y-14986000D03*
%TO.N,PIN19*%
X36322000Y-14986000D03*
%TO.N,PIN18*%
X37600598Y-13716000D03*
%TO.N,+3.3V*%
X43942000Y-11176000D03*
X33782000Y-11176000D03*
X3302000Y-11176000D03*
X13462000Y-11176000D03*
X23622000Y-11176000D03*
%TO.N,GND*%
X3302000Y-9144000D03*
X23622000Y-9144000D03*
X43942000Y-9144000D03*
X33782000Y-9144000D03*
X13462000Y-9144000D03*
X10668000Y-16764000D03*
X30988000Y-16764000D03*
X41148000Y-16764000D03*
X20828000Y-16764000D03*
%TO.N,PIN76_H*%
X8631701Y-14219701D03*
%TO.N,PIN80_H*%
X9652000Y-13208000D03*
%TO.N,PIN41_H*%
X15023500Y-14986000D03*
%TO.N,PIN56_H*%
X18250500Y-14986000D03*
%TO.N,PIN54_H*%
X19304000Y-13716000D03*
%TO.N,PIN51_H*%
X20320000Y-13716000D03*
%TO.N,PIN48_H*%
X27759149Y-14912850D03*
%TO.N,PIN55_H*%
X28702000Y-13716000D03*
%TO.N,PIN49_H*%
X29464000Y-12700000D03*
%TO.N,PIN86_H*%
X30226000Y-13716000D03*
%TO.N,PIN79_H*%
X37846000Y-14986000D03*
%TO.N,PIN72_H*%
X38862000Y-13716000D03*
%TO.N,PIN71_H*%
X39878000Y-14986000D03*
%TO.N,PIN53_H*%
X42926000Y-12700000D03*
%TO.N,PIN52_H*%
X43946299Y-12695701D03*
%TD*%
D15*
%TO.N,PIN74*%
X3905000Y-19145000D02*
X3905000Y-21685000D01*
X3048000Y-13716000D02*
X3048000Y-18288000D01*
X3048000Y-18288000D02*
X3905000Y-19145000D01*
X3905000Y-21685000D02*
X5080000Y-22860000D01*
%TO.N,PIN75*%
X5588000Y-18976299D02*
X6445000Y-19833299D01*
X5588000Y-14224000D02*
X5588000Y-18976299D01*
X6445000Y-19833299D02*
X6445000Y-21685000D01*
X6445000Y-21685000D02*
X7620000Y-22860000D01*
%TO.N,PIN85*%
X6604000Y-17452299D02*
X8985000Y-19833299D01*
X6604000Y-13716000D02*
X6604000Y-17452299D01*
X8985000Y-19833299D02*
X8985000Y-21685000D01*
X8985000Y-21685000D02*
X10160000Y-22860000D01*
%TO.N,PIN77*%
X11335000Y-19833299D02*
X11335000Y-21495000D01*
X7620000Y-16118299D02*
X11335000Y-19833299D01*
X7620000Y-13208000D02*
X7620000Y-16118299D01*
X11335000Y-21495000D02*
X12700000Y-22860000D01*
%TO.N,PIN15*%
X11684000Y-17272000D02*
X11684000Y-12700000D01*
X13875000Y-19463000D02*
X11684000Y-17272000D01*
X13875000Y-21495000D02*
X13875000Y-19463000D01*
X15240000Y-22860000D02*
X13875000Y-21495000D01*
%TO.N,PIN16*%
X16415000Y-21495000D02*
X16415000Y-19833299D01*
X16415000Y-19833299D02*
X15377701Y-18796000D01*
X14224000Y-18796000D02*
X12700000Y-17272000D01*
X17780000Y-22860000D02*
X16415000Y-21495000D01*
X15377701Y-18796000D02*
X14224000Y-18796000D01*
X12700000Y-17272000D02*
X12700000Y-13716000D01*
%TO.N,PIN27*%
X19145000Y-20023299D02*
X19145000Y-21685000D01*
X15748000Y-16626299D02*
X19145000Y-20023299D01*
X15748000Y-13716000D02*
X15748000Y-16626299D01*
X19145000Y-21685000D02*
X20320000Y-22860000D01*
%TO.N,PIN28*%
X21685000Y-21685000D02*
X22860000Y-22860000D01*
X17526000Y-15864299D02*
X21685000Y-20023299D01*
X21685000Y-20023299D02*
X21685000Y-21685000D01*
X17526000Y-13716000D02*
X17526000Y-15864299D01*
%TO.N,PIN26*%
X26765000Y-20023299D02*
X26765000Y-21685000D01*
X22606000Y-14986000D02*
X22606000Y-15864299D01*
X22606000Y-15864299D02*
X26765000Y-20023299D01*
X26765000Y-21685000D02*
X27940000Y-22860000D01*
%TO.N,PIN25*%
X24225000Y-19907000D02*
X24225000Y-21685000D01*
X24225000Y-21685000D02*
X25400000Y-22860000D01*
X21844000Y-13716000D02*
X21844000Y-17526000D01*
X21844000Y-17526000D02*
X24225000Y-19907000D01*
%TO.N,PIN29*%
X29115000Y-21495000D02*
X30480000Y-22860000D01*
X24892000Y-14986000D02*
X29115000Y-19209000D01*
X29115000Y-19209000D02*
X29115000Y-21495000D01*
%TO.N,PIN30*%
X26807701Y-14986000D02*
X31845000Y-20023299D01*
X26162000Y-14986000D02*
X26807701Y-14986000D01*
X31845000Y-20023299D02*
X31845000Y-21685000D01*
X31845000Y-21685000D02*
X33020000Y-22860000D01*
%TO.N,PIN31*%
X31750000Y-17388299D02*
X34385000Y-20023299D01*
X34385000Y-21685000D02*
X35560000Y-22860000D01*
X34385000Y-20023299D02*
X34385000Y-21685000D01*
X31750000Y-12700000D02*
X31750000Y-17388299D01*
%TO.N,PIN17*%
X36925000Y-20023299D02*
X36925000Y-21685000D01*
X36925000Y-21685000D02*
X38100000Y-22860000D01*
X32512000Y-13716000D02*
X32512000Y-15610299D01*
X32512000Y-15610299D02*
X36925000Y-20023299D01*
%TO.N,PIN20*%
X39465000Y-21685000D02*
X40640000Y-22860000D01*
X34544000Y-17005903D02*
X36582049Y-19043952D01*
X38675653Y-19043952D02*
X39465000Y-19833299D01*
X34544000Y-14986000D02*
X34544000Y-17005903D01*
X39465000Y-19833299D02*
X39465000Y-21685000D01*
X36582049Y-19043952D02*
X38675653Y-19043952D01*
%TO.N,PIN19*%
X40386000Y-18288000D02*
X42005000Y-19907000D01*
X42005000Y-21685000D02*
X43180000Y-22860000D01*
X37592000Y-18288000D02*
X40386000Y-18288000D01*
X36322000Y-14986000D02*
X36322000Y-17018000D01*
X42005000Y-19907000D02*
X42005000Y-21685000D01*
X36322000Y-17018000D02*
X37592000Y-18288000D01*
%TO.N,PIN18*%
X38571000Y-17235000D02*
X39116000Y-17780000D01*
X42301701Y-17780000D02*
X44545000Y-20023299D01*
X44545000Y-21685000D02*
X45720000Y-22860000D01*
X44545000Y-20023299D02*
X44545000Y-21685000D01*
X39116000Y-17780000D02*
X42301701Y-17780000D01*
X38571000Y-14686402D02*
X38571000Y-17235000D01*
X37600598Y-13716000D02*
X38571000Y-14686402D01*
D16*
%TO.N,+3.3V*%
X48260000Y-22860000D02*
X48260000Y-20320000D01*
X40640000Y-5080000D02*
X40640000Y-2540000D01*
%TO.N,GND*%
X5080000Y-5080000D02*
X5080000Y-2540000D01*
X38100000Y-5080000D02*
X38100000Y-2540000D01*
X50800000Y-22860000D02*
X50800000Y-20320000D01*
%TO.N,+5V*%
X2540000Y-5080000D02*
X2540000Y-2540000D01*
D15*
%TO.N,PIN76_H*%
X8631701Y-6091701D02*
X7620000Y-5080000D01*
X8631701Y-14219701D02*
X8631701Y-6091701D01*
%TO.N,PIN80_H*%
X9652000Y-13208000D02*
X9652000Y-5588000D01*
X9652000Y-5588000D02*
X10160000Y-5080000D01*
%TO.N,PIN41_H*%
X15023500Y-5296500D02*
X15240000Y-5080000D01*
X15023500Y-14986000D02*
X15023500Y-5296500D01*
%TO.N,PIN56_H*%
X18250500Y-14986000D02*
X18250500Y-5550500D01*
X18250500Y-5550500D02*
X17780000Y-5080000D01*
%TO.N,PIN54_H*%
X19304000Y-13716000D02*
X19304000Y-6096000D01*
X19304000Y-6096000D02*
X20320000Y-5080000D01*
%TO.N,PIN51_H*%
X20320000Y-7620000D02*
X22860000Y-5080000D01*
X20320000Y-13716000D02*
X20320000Y-7620000D01*
%TO.N,PIN48_H*%
X25400000Y-12553701D02*
X25400000Y-5080000D01*
X27759149Y-14912850D02*
X25400000Y-12553701D01*
%TO.N,PIN55_H*%
X27940000Y-12954000D02*
X27940000Y-5080000D01*
X28702000Y-13716000D02*
X27940000Y-12954000D01*
%TO.N,PIN49_H*%
X29464000Y-12700000D02*
X29464000Y-6096000D01*
X29464000Y-6096000D02*
X30480000Y-5080000D01*
%TO.N,PIN86_H*%
X30226000Y-13716000D02*
X30226000Y-7874000D01*
X30226000Y-7874000D02*
X33020000Y-5080000D01*
%TO.N,PIN79_H*%
X37846000Y-14986000D02*
X35560000Y-12700000D01*
X35560000Y-12700000D02*
X35560000Y-5080000D01*
%TO.N,PIN72_H*%
X38862000Y-13716000D02*
X38862000Y-8128000D01*
X41402000Y-6858000D02*
X43180000Y-5080000D01*
X38862000Y-8128000D02*
X40132000Y-6858000D01*
X40132000Y-6858000D02*
X41402000Y-6858000D01*
%TO.N,PIN71_H*%
X39878000Y-14986000D02*
X39878000Y-8128000D01*
X39878000Y-8128000D02*
X41148000Y-8128000D01*
X42418000Y-6858000D02*
X43942000Y-6858000D01*
X43942000Y-6858000D02*
X45720000Y-5080000D01*
X41148000Y-8128000D02*
X42418000Y-6858000D01*
%TO.N,PIN53_H*%
X45805695Y-6255000D02*
X47085000Y-6255000D01*
X42926000Y-9134695D02*
X45805695Y-6255000D01*
X42926000Y-12700000D02*
X42926000Y-9134695D01*
X47085000Y-6255000D02*
X48260000Y-5080000D01*
%TO.N,PIN52_H*%
X46482000Y-6858000D02*
X49022000Y-6858000D01*
X49022000Y-6858000D02*
X50800000Y-5080000D01*
X44667000Y-8673000D02*
X46482000Y-6858000D01*
X43946299Y-12695701D02*
X44667000Y-11975000D01*
X44667000Y-11975000D02*
X44667000Y-8673000D01*
%TD*%
M02*
