%TF.GenerationSoftware,KiCad,Pcbnew,7.0.6*%
%TF.CreationDate,2023-07-11T11:54:07+09:00*%
%TF.ProjectId,TangNano5V,54616e67-4e61-46e6-9f35-562e6b696361,rev?*%
%TF.SameCoordinates,Original*%
%TF.FileFunction,Copper,L2,Inr*%
%TF.FilePolarity,Positive*%
%FSLAX46Y46*%
G04 Gerber Fmt 4.6, Leading zero omitted, Abs format (unit mm)*
G04 Created by KiCad (PCBNEW 7.0.6) date 2023-07-11 11:54:07*
%MOMM*%
%LPD*%
G01*
G04 APERTURE LIST*
%TA.AperFunction,ComponentPad*%
%ADD10O,1.700000X1.700000*%
%TD*%
%TA.AperFunction,ComponentPad*%
%ADD11R,1.700000X1.700000*%
%TD*%
%TA.AperFunction,ViaPad*%
%ADD12C,0.800000*%
%TD*%
G04 APERTURE END LIST*
D10*
%TO.N,PIN52*%
%TO.C,J2*%
X50800000Y-2540000D03*
%TO.N,PIN53*%
X48260000Y-2540000D03*
%TO.N,PIN71*%
X45720000Y-2540000D03*
%TO.N,PIN72*%
X43180000Y-2540000D03*
%TO.N,+3.3V*%
X40640000Y-2540000D03*
%TO.N,GND*%
X38100000Y-2540000D03*
%TO.N,PIN79*%
X35560000Y-2540000D03*
%TO.N,PIN86*%
X33020000Y-2540000D03*
%TO.N,PIN49*%
X30480000Y-2540000D03*
%TO.N,PIN55*%
X27940000Y-2540000D03*
%TO.N,PIN48*%
X25400000Y-2540000D03*
%TO.N,PIN51*%
X22860000Y-2540000D03*
%TO.N,PIN54*%
X20320000Y-2540000D03*
%TO.N,PIN56*%
X17780000Y-2540000D03*
%TO.N,PIN41*%
X15240000Y-2540000D03*
%TO.N,PIN42*%
X12700000Y-2540000D03*
%TO.N,PIN80*%
X10160000Y-2540000D03*
%TO.N,PIN76*%
X7620000Y-2540000D03*
%TO.N,GND*%
X5080000Y-2540000D03*
D11*
%TO.N,+5V*%
X2540000Y-2540000D03*
%TD*%
%TO.N,PIN73*%
%TO.C,J1*%
X2540000Y-22860000D03*
D10*
%TO.N,PIN74*%
X5080000Y-22860000D03*
%TO.N,PIN75*%
X7620000Y-22860000D03*
%TO.N,PIN85*%
X10160000Y-22860000D03*
%TO.N,PIN77*%
X12700000Y-22860000D03*
%TO.N,PIN15*%
X15240000Y-22860000D03*
%TO.N,PIN16*%
X17780000Y-22860000D03*
%TO.N,PIN27*%
X20320000Y-22860000D03*
%TO.N,PIN28*%
X22860000Y-22860000D03*
%TO.N,PIN25*%
X25400000Y-22860000D03*
%TO.N,PIN26*%
X27940000Y-22860000D03*
%TO.N,PIN29*%
X30480000Y-22860000D03*
%TO.N,PIN30*%
X33020000Y-22860000D03*
%TO.N,PIN31*%
X35560000Y-22860000D03*
%TO.N,PIN17*%
X38100000Y-22860000D03*
%TO.N,PIN20*%
X40640000Y-22860000D03*
%TO.N,PIN19*%
X43180000Y-22860000D03*
%TO.N,PIN18*%
X45720000Y-22860000D03*
%TO.N,+3.3V*%
X48260000Y-22860000D03*
%TO.N,GND*%
X50800000Y-22860000D03*
%TD*%
D11*
%TO.N,+5V*%
%TO.C,J4*%
X2540000Y-5080000D03*
D10*
%TO.N,GND*%
X5080000Y-5080000D03*
%TO.N,PIN76_H*%
X7620000Y-5080000D03*
%TO.N,PIN80_H*%
X10160000Y-5080000D03*
%TO.N,PIN42_H*%
X12700000Y-5080000D03*
%TO.N,PIN41_H*%
X15240000Y-5080000D03*
%TO.N,PIN56_H*%
X17780000Y-5080000D03*
%TO.N,PIN54_H*%
X20320000Y-5080000D03*
%TO.N,PIN51_H*%
X22860000Y-5080000D03*
%TO.N,PIN48_H*%
X25400000Y-5080000D03*
%TO.N,PIN55_H*%
X27940000Y-5080000D03*
%TO.N,PIN49_H*%
X30480000Y-5080000D03*
%TO.N,PIN86_H*%
X33020000Y-5080000D03*
%TO.N,PIN79_H*%
X35560000Y-5080000D03*
%TO.N,GND*%
X38100000Y-5080000D03*
%TO.N,+3.3V*%
X40640000Y-5080000D03*
%TO.N,PIN72_H*%
X43180000Y-5080000D03*
%TO.N,PIN71_H*%
X45720000Y-5080000D03*
%TO.N,PIN53_H*%
X48260000Y-5080000D03*
%TO.N,PIN52_H*%
X50800000Y-5080000D03*
%TD*%
D11*
%TO.N,PIN73_H*%
%TO.C,J3*%
X2540000Y-20320000D03*
D10*
%TO.N,PIN74_H*%
X5080000Y-20320000D03*
%TO.N,PIN75_H*%
X7620000Y-20320000D03*
%TO.N,PIN85_H*%
X10160000Y-20320000D03*
%TO.N,PIN77_H*%
X12700000Y-20320000D03*
%TO.N,PIN15_H*%
X15240000Y-20320000D03*
%TO.N,PIN16_H*%
X17780000Y-20320000D03*
%TO.N,PIN27_H*%
X20320000Y-20320000D03*
%TO.N,PIN28_H*%
X22860000Y-20320000D03*
%TO.N,PIN25_H*%
X25400000Y-20320000D03*
%TO.N,PIN26_H*%
X27940000Y-20320000D03*
%TO.N,PIN29_H*%
X30480000Y-20320000D03*
%TO.N,PIN30_H*%
X33020000Y-20320000D03*
%TO.N,PIN31_H*%
X35560000Y-20320000D03*
%TO.N,PIN17_H*%
X38100000Y-20320000D03*
%TO.N,PIN20_H*%
X40640000Y-20320000D03*
%TO.N,PIN19_H*%
X43180000Y-20320000D03*
%TO.N,PIN18_H*%
X45720000Y-20320000D03*
%TO.N,+3.3V*%
X48260000Y-20320000D03*
%TO.N,GND*%
X50800000Y-20320000D03*
%TD*%
D12*
%TO.N,PIN74*%
X3048000Y-13716000D03*
%TO.N,PIN75*%
X5588000Y-14224000D03*
%TO.N,PIN85*%
X6604000Y-13716000D03*
%TO.N,PIN77*%
X7620000Y-13208000D03*
%TO.N,PIN15*%
X11684000Y-12700000D03*
%TO.N,PIN16*%
X12700000Y-13716000D03*
%TO.N,PIN27*%
X15748000Y-13716000D03*
%TO.N,PIN28*%
X17526000Y-13716000D03*
%TO.N,PIN26*%
X22606000Y-14986000D03*
%TO.N,PIN25*%
X21844000Y-13716000D03*
%TO.N,PIN29*%
X24892000Y-14986000D03*
%TO.N,PIN30*%
X26162000Y-14986000D03*
%TO.N,PIN31*%
X31750000Y-12700000D03*
%TO.N,PIN17*%
X32512000Y-13716000D03*
%TO.N,PIN20*%
X34544000Y-14986000D03*
%TO.N,PIN19*%
X36322000Y-14986000D03*
%TO.N,PIN18*%
X37600598Y-13716000D03*
%TO.N,+3.3V*%
X43942000Y-11176000D03*
X33782000Y-11176000D03*
X3302000Y-11176000D03*
X13462000Y-11176000D03*
X23622000Y-11176000D03*
%TO.N,GND*%
X3302000Y-9144000D03*
X23622000Y-9144000D03*
X43942000Y-9144000D03*
X33782000Y-9144000D03*
X13462000Y-9144000D03*
X10668000Y-16764000D03*
X30988000Y-16764000D03*
X41148000Y-16764000D03*
X20828000Y-16764000D03*
%TO.N,PIN76_H*%
X8631701Y-14219701D03*
%TO.N,PIN80_H*%
X9652000Y-13208000D03*
%TO.N,PIN41_H*%
X15023500Y-14986000D03*
%TO.N,PIN56_H*%
X18250500Y-14986000D03*
%TO.N,PIN54_H*%
X19304000Y-13716000D03*
%TO.N,PIN51_H*%
X20320000Y-13716000D03*
%TO.N,PIN48_H*%
X27759149Y-14912850D03*
%TO.N,PIN55_H*%
X28702000Y-13716000D03*
%TO.N,PIN49_H*%
X29464000Y-12700000D03*
%TO.N,PIN86_H*%
X30226000Y-13716000D03*
%TO.N,PIN79_H*%
X37846000Y-14986000D03*
%TO.N,PIN72_H*%
X38862000Y-13716000D03*
%TO.N,PIN71_H*%
X39878000Y-14986000D03*
%TO.N,PIN53_H*%
X42926000Y-12700000D03*
%TO.N,PIN52_H*%
X43946299Y-12695701D03*
%TD*%
%TA.AperFunction,Conductor*%
%TO.N,GND*%
G36*
X51050000Y-22424498D02*
G01*
X50942315Y-22375320D01*
X50835763Y-22360000D01*
X50764237Y-22360000D01*
X50657685Y-22375320D01*
X50550000Y-22424498D01*
X50550000Y-20755501D01*
X50657685Y-20804680D01*
X50764237Y-20820000D01*
X50835763Y-20820000D01*
X50942315Y-20804680D01*
X51050000Y-20755501D01*
X51050000Y-22424498D01*
G37*
%TD.AperFunction*%
%TA.AperFunction,Conductor*%
G36*
X5330000Y-4644498D02*
G01*
X5222315Y-4595320D01*
X5115763Y-4580000D01*
X5044237Y-4580000D01*
X4937685Y-4595320D01*
X4830000Y-4644498D01*
X4830000Y-2975501D01*
X4937685Y-3024680D01*
X5044237Y-3040000D01*
X5115763Y-3040000D01*
X5222315Y-3024680D01*
X5330000Y-2975501D01*
X5330000Y-4644498D01*
G37*
%TD.AperFunction*%
%TA.AperFunction,Conductor*%
G36*
X38350000Y-4644498D02*
G01*
X38242315Y-4595320D01*
X38135763Y-4580000D01*
X38064237Y-4580000D01*
X37957685Y-4595320D01*
X37850000Y-4644498D01*
X37850000Y-2975501D01*
X37957685Y-3024680D01*
X38064237Y-3040000D01*
X38135763Y-3040000D01*
X38242315Y-3024680D01*
X38350000Y-2975501D01*
X38350000Y-4644498D01*
G37*
%TD.AperFunction*%
%TA.AperFunction,Conductor*%
G36*
X52329039Y-273685D02*
G01*
X52361200Y-303600D01*
X53061200Y-1236933D01*
X53085676Y-1302375D01*
X53086000Y-1311333D01*
X53086000Y-24078638D01*
X53066315Y-24145677D01*
X53049681Y-24166319D01*
X52106319Y-25109681D01*
X52044996Y-25143166D01*
X52018638Y-25146000D01*
X1321362Y-25146000D01*
X1254323Y-25126315D01*
X1233681Y-25109681D01*
X290319Y-24166319D01*
X256834Y-24104996D01*
X254000Y-24078638D01*
X254000Y-23757870D01*
X1189500Y-23757870D01*
X1189501Y-23757876D01*
X1195908Y-23817483D01*
X1246202Y-23952328D01*
X1246206Y-23952335D01*
X1332452Y-24067544D01*
X1332455Y-24067547D01*
X1447664Y-24153793D01*
X1447671Y-24153797D01*
X1582517Y-24204091D01*
X1582516Y-24204091D01*
X1589444Y-24204835D01*
X1642127Y-24210500D01*
X3437872Y-24210499D01*
X3497483Y-24204091D01*
X3632331Y-24153796D01*
X3747546Y-24067546D01*
X3833796Y-23952331D01*
X3882810Y-23820916D01*
X3924681Y-23764984D01*
X3990145Y-23740566D01*
X4058418Y-23755417D01*
X4086673Y-23776569D01*
X4208599Y-23898495D01*
X4305384Y-23966264D01*
X4402165Y-24034032D01*
X4402167Y-24034033D01*
X4402170Y-24034035D01*
X4616337Y-24133903D01*
X4844592Y-24195063D01*
X5021034Y-24210500D01*
X5079999Y-24215659D01*
X5080000Y-24215659D01*
X5080001Y-24215659D01*
X5138966Y-24210500D01*
X5315408Y-24195063D01*
X5543663Y-24133903D01*
X5757830Y-24034035D01*
X5951401Y-23898495D01*
X6118495Y-23731401D01*
X6248424Y-23545842D01*
X6303002Y-23502217D01*
X6372500Y-23495023D01*
X6434855Y-23526546D01*
X6451575Y-23545842D01*
X6581281Y-23731082D01*
X6581505Y-23731401D01*
X6748599Y-23898495D01*
X6845384Y-23966264D01*
X6942165Y-24034032D01*
X6942167Y-24034033D01*
X6942170Y-24034035D01*
X7156337Y-24133903D01*
X7384592Y-24195063D01*
X7561034Y-24210500D01*
X7619999Y-24215659D01*
X7620000Y-24215659D01*
X7620001Y-24215659D01*
X7678966Y-24210500D01*
X7855408Y-24195063D01*
X8083663Y-24133903D01*
X8297830Y-24034035D01*
X8491401Y-23898495D01*
X8658495Y-23731401D01*
X8788424Y-23545842D01*
X8843002Y-23502217D01*
X8912500Y-23495023D01*
X8974855Y-23526546D01*
X8991575Y-23545842D01*
X9121281Y-23731082D01*
X9121505Y-23731401D01*
X9288599Y-23898495D01*
X9385384Y-23966264D01*
X9482165Y-24034032D01*
X9482167Y-24034033D01*
X9482170Y-24034035D01*
X9696337Y-24133903D01*
X9924592Y-24195063D01*
X10101034Y-24210500D01*
X10159999Y-24215659D01*
X10160000Y-24215659D01*
X10160001Y-24215659D01*
X10218966Y-24210500D01*
X10395408Y-24195063D01*
X10623663Y-24133903D01*
X10837830Y-24034035D01*
X11031401Y-23898495D01*
X11198495Y-23731401D01*
X11328424Y-23545842D01*
X11383002Y-23502217D01*
X11452500Y-23495023D01*
X11514855Y-23526546D01*
X11531575Y-23545842D01*
X11661281Y-23731082D01*
X11661505Y-23731401D01*
X11828599Y-23898495D01*
X11925384Y-23966264D01*
X12022165Y-24034032D01*
X12022167Y-24034033D01*
X12022170Y-24034035D01*
X12236337Y-24133903D01*
X12464592Y-24195063D01*
X12641034Y-24210500D01*
X12699999Y-24215659D01*
X12700000Y-24215659D01*
X12700001Y-24215659D01*
X12758966Y-24210500D01*
X12935408Y-24195063D01*
X13163663Y-24133903D01*
X13377830Y-24034035D01*
X13571401Y-23898495D01*
X13738495Y-23731401D01*
X13868424Y-23545842D01*
X13923002Y-23502217D01*
X13992500Y-23495023D01*
X14054855Y-23526546D01*
X14071575Y-23545842D01*
X14201281Y-23731082D01*
X14201505Y-23731401D01*
X14368599Y-23898495D01*
X14465384Y-23966264D01*
X14562165Y-24034032D01*
X14562167Y-24034033D01*
X14562170Y-24034035D01*
X14776337Y-24133903D01*
X15004592Y-24195063D01*
X15181034Y-24210500D01*
X15239999Y-24215659D01*
X15240000Y-24215659D01*
X15240001Y-24215659D01*
X15298966Y-24210500D01*
X15475408Y-24195063D01*
X15703663Y-24133903D01*
X15917830Y-24034035D01*
X16111401Y-23898495D01*
X16278495Y-23731401D01*
X16408424Y-23545842D01*
X16463002Y-23502217D01*
X16532500Y-23495023D01*
X16594855Y-23526546D01*
X16611575Y-23545842D01*
X16741281Y-23731082D01*
X16741505Y-23731401D01*
X16908599Y-23898495D01*
X17005384Y-23966264D01*
X17102165Y-24034032D01*
X17102167Y-24034033D01*
X17102170Y-24034035D01*
X17316337Y-24133903D01*
X17544592Y-24195063D01*
X17721034Y-24210500D01*
X17779999Y-24215659D01*
X17780000Y-24215659D01*
X17780001Y-24215659D01*
X17838966Y-24210500D01*
X18015408Y-24195063D01*
X18243663Y-24133903D01*
X18457830Y-24034035D01*
X18651401Y-23898495D01*
X18818495Y-23731401D01*
X18948424Y-23545842D01*
X19003002Y-23502217D01*
X19072500Y-23495023D01*
X19134855Y-23526546D01*
X19151575Y-23545842D01*
X19281281Y-23731082D01*
X19281505Y-23731401D01*
X19448599Y-23898495D01*
X19545384Y-23966264D01*
X19642165Y-24034032D01*
X19642167Y-24034033D01*
X19642170Y-24034035D01*
X19856337Y-24133903D01*
X20084592Y-24195063D01*
X20261034Y-24210500D01*
X20319999Y-24215659D01*
X20320000Y-24215659D01*
X20320001Y-24215659D01*
X20378966Y-24210500D01*
X20555408Y-24195063D01*
X20783663Y-24133903D01*
X20997830Y-24034035D01*
X21191401Y-23898495D01*
X21358495Y-23731401D01*
X21488424Y-23545842D01*
X21543002Y-23502217D01*
X21612500Y-23495023D01*
X21674855Y-23526546D01*
X21691575Y-23545842D01*
X21821281Y-23731082D01*
X21821505Y-23731401D01*
X21988599Y-23898495D01*
X22085384Y-23966264D01*
X22182165Y-24034032D01*
X22182167Y-24034033D01*
X22182170Y-24034035D01*
X22396337Y-24133903D01*
X22624592Y-24195063D01*
X22801034Y-24210500D01*
X22859999Y-24215659D01*
X22860000Y-24215659D01*
X22860001Y-24215659D01*
X22918966Y-24210500D01*
X23095408Y-24195063D01*
X23323663Y-24133903D01*
X23537830Y-24034035D01*
X23731401Y-23898495D01*
X23898495Y-23731401D01*
X24028424Y-23545842D01*
X24083002Y-23502217D01*
X24152500Y-23495023D01*
X24214855Y-23526546D01*
X24231575Y-23545842D01*
X24361281Y-23731082D01*
X24361505Y-23731401D01*
X24528599Y-23898495D01*
X24625384Y-23966264D01*
X24722165Y-24034032D01*
X24722167Y-24034033D01*
X24722170Y-24034035D01*
X24936337Y-24133903D01*
X25164592Y-24195063D01*
X25341034Y-24210500D01*
X25399999Y-24215659D01*
X25400000Y-24215659D01*
X25400001Y-24215659D01*
X25458966Y-24210500D01*
X25635408Y-24195063D01*
X25863663Y-24133903D01*
X26077830Y-24034035D01*
X26271401Y-23898495D01*
X26438495Y-23731401D01*
X26568424Y-23545842D01*
X26623002Y-23502217D01*
X26692500Y-23495023D01*
X26754855Y-23526546D01*
X26771575Y-23545842D01*
X26901281Y-23731082D01*
X26901505Y-23731401D01*
X27068599Y-23898495D01*
X27165384Y-23966265D01*
X27262165Y-24034032D01*
X27262167Y-24034033D01*
X27262170Y-24034035D01*
X27476337Y-24133903D01*
X27704592Y-24195063D01*
X27881034Y-24210500D01*
X27939999Y-24215659D01*
X27940000Y-24215659D01*
X27940001Y-24215659D01*
X27998966Y-24210500D01*
X28175408Y-24195063D01*
X28403663Y-24133903D01*
X28617830Y-24034035D01*
X28811401Y-23898495D01*
X28978495Y-23731401D01*
X29108424Y-23545842D01*
X29163002Y-23502217D01*
X29232500Y-23495023D01*
X29294855Y-23526546D01*
X29311575Y-23545842D01*
X29441281Y-23731082D01*
X29441505Y-23731401D01*
X29608599Y-23898495D01*
X29705384Y-23966265D01*
X29802165Y-24034032D01*
X29802167Y-24034033D01*
X29802170Y-24034035D01*
X30016337Y-24133903D01*
X30244592Y-24195063D01*
X30421034Y-24210500D01*
X30479999Y-24215659D01*
X30480000Y-24215659D01*
X30480001Y-24215659D01*
X30538966Y-24210500D01*
X30715408Y-24195063D01*
X30943663Y-24133903D01*
X31157830Y-24034035D01*
X31351401Y-23898495D01*
X31518495Y-23731401D01*
X31648424Y-23545842D01*
X31703002Y-23502217D01*
X31772500Y-23495023D01*
X31834855Y-23526546D01*
X31851575Y-23545842D01*
X31981281Y-23731082D01*
X31981505Y-23731401D01*
X32148599Y-23898495D01*
X32245384Y-23966265D01*
X32342165Y-24034032D01*
X32342167Y-24034033D01*
X32342170Y-24034035D01*
X32556337Y-24133903D01*
X32784592Y-24195063D01*
X32961034Y-24210500D01*
X33019999Y-24215659D01*
X33020000Y-24215659D01*
X33020001Y-24215659D01*
X33078966Y-24210500D01*
X33255408Y-24195063D01*
X33483663Y-24133903D01*
X33697830Y-24034035D01*
X33891401Y-23898495D01*
X34058495Y-23731401D01*
X34188424Y-23545842D01*
X34243002Y-23502217D01*
X34312500Y-23495023D01*
X34374855Y-23526546D01*
X34391575Y-23545842D01*
X34521281Y-23731082D01*
X34521505Y-23731401D01*
X34688599Y-23898495D01*
X34785384Y-23966265D01*
X34882165Y-24034032D01*
X34882167Y-24034033D01*
X34882170Y-24034035D01*
X35096337Y-24133903D01*
X35324592Y-24195063D01*
X35501034Y-24210500D01*
X35559999Y-24215659D01*
X35560000Y-24215659D01*
X35560001Y-24215659D01*
X35618966Y-24210500D01*
X35795408Y-24195063D01*
X36023663Y-24133903D01*
X36237830Y-24034035D01*
X36431401Y-23898495D01*
X36598495Y-23731401D01*
X36728424Y-23545842D01*
X36783002Y-23502217D01*
X36852500Y-23495023D01*
X36914855Y-23526546D01*
X36931575Y-23545842D01*
X37061281Y-23731082D01*
X37061505Y-23731401D01*
X37228599Y-23898495D01*
X37325384Y-23966265D01*
X37422165Y-24034032D01*
X37422167Y-24034033D01*
X37422170Y-24034035D01*
X37636337Y-24133903D01*
X37864592Y-24195063D01*
X38041034Y-24210500D01*
X38099999Y-24215659D01*
X38100000Y-24215659D01*
X38100001Y-24215659D01*
X38158966Y-24210500D01*
X38335408Y-24195063D01*
X38563663Y-24133903D01*
X38777830Y-24034035D01*
X38971401Y-23898495D01*
X39138495Y-23731401D01*
X39268424Y-23545842D01*
X39323002Y-23502217D01*
X39392500Y-23495023D01*
X39454855Y-23526546D01*
X39471575Y-23545842D01*
X39601281Y-23731082D01*
X39601505Y-23731401D01*
X39768599Y-23898495D01*
X39865384Y-23966265D01*
X39962165Y-24034032D01*
X39962167Y-24034033D01*
X39962170Y-24034035D01*
X40176337Y-24133903D01*
X40404592Y-24195063D01*
X40581034Y-24210500D01*
X40639999Y-24215659D01*
X40640000Y-24215659D01*
X40640001Y-24215659D01*
X40698966Y-24210500D01*
X40875408Y-24195063D01*
X41103663Y-24133903D01*
X41317830Y-24034035D01*
X41511401Y-23898495D01*
X41678495Y-23731401D01*
X41808424Y-23545842D01*
X41863002Y-23502217D01*
X41932500Y-23495023D01*
X41994855Y-23526546D01*
X42011575Y-23545842D01*
X42141281Y-23731082D01*
X42141505Y-23731401D01*
X42308599Y-23898495D01*
X42405384Y-23966264D01*
X42502165Y-24034032D01*
X42502167Y-24034033D01*
X42502170Y-24034035D01*
X42716337Y-24133903D01*
X42944592Y-24195063D01*
X43121034Y-24210500D01*
X43179999Y-24215659D01*
X43180000Y-24215659D01*
X43180001Y-24215659D01*
X43238966Y-24210500D01*
X43415408Y-24195063D01*
X43643663Y-24133903D01*
X43857830Y-24034035D01*
X44051401Y-23898495D01*
X44218495Y-23731401D01*
X44348424Y-23545842D01*
X44403002Y-23502217D01*
X44472500Y-23495023D01*
X44534855Y-23526546D01*
X44551575Y-23545842D01*
X44681281Y-23731082D01*
X44681505Y-23731401D01*
X44848599Y-23898495D01*
X44945384Y-23966264D01*
X45042165Y-24034032D01*
X45042167Y-24034033D01*
X45042170Y-24034035D01*
X45256337Y-24133903D01*
X45484592Y-24195063D01*
X45661034Y-24210500D01*
X45719999Y-24215659D01*
X45720000Y-24215659D01*
X45720001Y-24215659D01*
X45778966Y-24210500D01*
X45955408Y-24195063D01*
X46183663Y-24133903D01*
X46397830Y-24034035D01*
X46591401Y-23898495D01*
X46758495Y-23731401D01*
X46888424Y-23545842D01*
X46943002Y-23502217D01*
X47012500Y-23495023D01*
X47074855Y-23526546D01*
X47091575Y-23545842D01*
X47221281Y-23731082D01*
X47221505Y-23731401D01*
X47388599Y-23898495D01*
X47485384Y-23966264D01*
X47582165Y-24034032D01*
X47582167Y-24034033D01*
X47582170Y-24034035D01*
X47796337Y-24133903D01*
X48024592Y-24195063D01*
X48201034Y-24210500D01*
X48259999Y-24215659D01*
X48260000Y-24215659D01*
X48260001Y-24215659D01*
X48318966Y-24210500D01*
X48495408Y-24195063D01*
X48723663Y-24133903D01*
X48937830Y-24034035D01*
X49131401Y-23898495D01*
X49298495Y-23731401D01*
X49428730Y-23545405D01*
X49483307Y-23501781D01*
X49552805Y-23494587D01*
X49615160Y-23526110D01*
X49631879Y-23545405D01*
X49761890Y-23731078D01*
X49928917Y-23898105D01*
X50122421Y-24033600D01*
X50336507Y-24133429D01*
X50336516Y-24133433D01*
X50550000Y-24190634D01*
X50550000Y-23295501D01*
X50657685Y-23344680D01*
X50764237Y-23360000D01*
X50835763Y-23360000D01*
X50942315Y-23344680D01*
X51049999Y-23295501D01*
X51049999Y-24190634D01*
X51263483Y-24133433D01*
X51263492Y-24133429D01*
X51477578Y-24033600D01*
X51671082Y-23898105D01*
X51838105Y-23731082D01*
X51973600Y-23537578D01*
X52073429Y-23323492D01*
X52073432Y-23323486D01*
X52130636Y-23110000D01*
X51233686Y-23110000D01*
X51259493Y-23069844D01*
X51300000Y-22931889D01*
X51300000Y-22788111D01*
X51259493Y-22650156D01*
X51233686Y-22610000D01*
X52130636Y-22610000D01*
X52130635Y-22609999D01*
X52073432Y-22396513D01*
X52073429Y-22396507D01*
X51973600Y-22182422D01*
X51973599Y-22182420D01*
X51838113Y-21988926D01*
X51838108Y-21988920D01*
X51671082Y-21821894D01*
X51484968Y-21691575D01*
X51441344Y-21636998D01*
X51434151Y-21567499D01*
X51465673Y-21505145D01*
X51484968Y-21488425D01*
X51671082Y-21358105D01*
X51838105Y-21191082D01*
X51973600Y-20997578D01*
X52073429Y-20783492D01*
X52073432Y-20783486D01*
X52130636Y-20570000D01*
X51233686Y-20570000D01*
X51259493Y-20529844D01*
X51300000Y-20391889D01*
X51300000Y-20248111D01*
X51259493Y-20110156D01*
X51233686Y-20070000D01*
X52130636Y-20070000D01*
X52130635Y-20069999D01*
X52073432Y-19856513D01*
X52073429Y-19856507D01*
X51973600Y-19642422D01*
X51973599Y-19642420D01*
X51838113Y-19448926D01*
X51838108Y-19448920D01*
X51671082Y-19281894D01*
X51477578Y-19146399D01*
X51263492Y-19046570D01*
X51263486Y-19046567D01*
X51049999Y-18989364D01*
X51049999Y-19884498D01*
X50942315Y-19835320D01*
X50835763Y-19820000D01*
X50764237Y-19820000D01*
X50657685Y-19835320D01*
X50550000Y-19884498D01*
X50550000Y-18989364D01*
X50549999Y-18989364D01*
X50336513Y-19046567D01*
X50336507Y-19046570D01*
X50122422Y-19146399D01*
X50122420Y-19146400D01*
X49928926Y-19281886D01*
X49928920Y-19281891D01*
X49761891Y-19448920D01*
X49761890Y-19448922D01*
X49631880Y-19634595D01*
X49577303Y-19678219D01*
X49507804Y-19685412D01*
X49445450Y-19653890D01*
X49428730Y-19634594D01*
X49298494Y-19448597D01*
X49131402Y-19281506D01*
X49131395Y-19281501D01*
X48937834Y-19145967D01*
X48937830Y-19145965D01*
X48937828Y-19145964D01*
X48723663Y-19046097D01*
X48723659Y-19046096D01*
X48723655Y-19046094D01*
X48495413Y-18984938D01*
X48495403Y-18984936D01*
X48260001Y-18964341D01*
X48259999Y-18964341D01*
X48024596Y-18984936D01*
X48024586Y-18984938D01*
X47796344Y-19046094D01*
X47796335Y-19046098D01*
X47582171Y-19145964D01*
X47582169Y-19145965D01*
X47388597Y-19281505D01*
X47221505Y-19448597D01*
X47091575Y-19634158D01*
X47036998Y-19677783D01*
X46967500Y-19684977D01*
X46905145Y-19653454D01*
X46888425Y-19634158D01*
X46758494Y-19448597D01*
X46591402Y-19281506D01*
X46591395Y-19281501D01*
X46397834Y-19145967D01*
X46397830Y-19145965D01*
X46397828Y-19145964D01*
X46183663Y-19046097D01*
X46183659Y-19046096D01*
X46183655Y-19046094D01*
X45955413Y-18984938D01*
X45955403Y-18984936D01*
X45720001Y-18964341D01*
X45719999Y-18964341D01*
X45484596Y-18984936D01*
X45484586Y-18984938D01*
X45256344Y-19046094D01*
X45256335Y-19046098D01*
X45042171Y-19145964D01*
X45042169Y-19145965D01*
X44848597Y-19281505D01*
X44681505Y-19448597D01*
X44551575Y-19634158D01*
X44496998Y-19677783D01*
X44427500Y-19684977D01*
X44365145Y-19653454D01*
X44348425Y-19634158D01*
X44218494Y-19448597D01*
X44051402Y-19281506D01*
X44051395Y-19281501D01*
X43857834Y-19145967D01*
X43857830Y-19145965D01*
X43857828Y-19145964D01*
X43643663Y-19046097D01*
X43643659Y-19046096D01*
X43643655Y-19046094D01*
X43415413Y-18984938D01*
X43415403Y-18984936D01*
X43180001Y-18964341D01*
X43179999Y-18964341D01*
X42944596Y-18984936D01*
X42944586Y-18984938D01*
X42716344Y-19046094D01*
X42716335Y-19046098D01*
X42502171Y-19145964D01*
X42502169Y-19145965D01*
X42308597Y-19281505D01*
X42141505Y-19448597D01*
X42011575Y-19634158D01*
X41956998Y-19677783D01*
X41887500Y-19684977D01*
X41825145Y-19653454D01*
X41808425Y-19634158D01*
X41678494Y-19448597D01*
X41511402Y-19281506D01*
X41511395Y-19281501D01*
X41317834Y-19145967D01*
X41317830Y-19145965D01*
X41317828Y-19145964D01*
X41103663Y-19046097D01*
X41103659Y-19046096D01*
X41103655Y-19046094D01*
X40875413Y-18984938D01*
X40875403Y-18984936D01*
X40640001Y-18964341D01*
X40639999Y-18964341D01*
X40404596Y-18984936D01*
X40404586Y-18984938D01*
X40176344Y-19046094D01*
X40176335Y-19046098D01*
X39962171Y-19145964D01*
X39962169Y-19145965D01*
X39768597Y-19281505D01*
X39601505Y-19448597D01*
X39471575Y-19634158D01*
X39416998Y-19677783D01*
X39347500Y-19684977D01*
X39285145Y-19653454D01*
X39268425Y-19634158D01*
X39138494Y-19448597D01*
X38971402Y-19281506D01*
X38971395Y-19281501D01*
X38777834Y-19145967D01*
X38777830Y-19145965D01*
X38777828Y-19145964D01*
X38563663Y-19046097D01*
X38563659Y-19046096D01*
X38563655Y-19046094D01*
X38335413Y-18984938D01*
X38335403Y-18984936D01*
X38100001Y-18964341D01*
X38099999Y-18964341D01*
X37864596Y-18984936D01*
X37864586Y-18984938D01*
X37636344Y-19046094D01*
X37636335Y-19046098D01*
X37422171Y-19145964D01*
X37422169Y-19145965D01*
X37228597Y-19281505D01*
X37061505Y-19448597D01*
X36931575Y-19634158D01*
X36876998Y-19677783D01*
X36807500Y-19684977D01*
X36745145Y-19653454D01*
X36728425Y-19634158D01*
X36598494Y-19448597D01*
X36431402Y-19281506D01*
X36431395Y-19281501D01*
X36237834Y-19145967D01*
X36237830Y-19145965D01*
X36237828Y-19145964D01*
X36023663Y-19046097D01*
X36023659Y-19046096D01*
X36023655Y-19046094D01*
X35795413Y-18984938D01*
X35795403Y-18984936D01*
X35560001Y-18964341D01*
X35559999Y-18964341D01*
X35324596Y-18984936D01*
X35324586Y-18984938D01*
X35096344Y-19046094D01*
X35096335Y-19046098D01*
X34882171Y-19145964D01*
X34882169Y-19145965D01*
X34688597Y-19281505D01*
X34521505Y-19448597D01*
X34391575Y-19634158D01*
X34336998Y-19677783D01*
X34267500Y-19684977D01*
X34205145Y-19653454D01*
X34188425Y-19634158D01*
X34058494Y-19448597D01*
X33891402Y-19281506D01*
X33891395Y-19281501D01*
X33697834Y-19145967D01*
X33697830Y-19145965D01*
X33697828Y-19145964D01*
X33483663Y-19046097D01*
X33483659Y-19046096D01*
X33483655Y-19046094D01*
X33255413Y-18984938D01*
X33255403Y-18984936D01*
X33020001Y-18964341D01*
X33019999Y-18964341D01*
X32784596Y-18984936D01*
X32784586Y-18984938D01*
X32556344Y-19046094D01*
X32556335Y-19046098D01*
X32342171Y-19145964D01*
X32342169Y-19145965D01*
X32148597Y-19281505D01*
X31981505Y-19448597D01*
X31851575Y-19634158D01*
X31796998Y-19677783D01*
X31727500Y-19684977D01*
X31665145Y-19653454D01*
X31648425Y-19634158D01*
X31518494Y-19448597D01*
X31351402Y-19281506D01*
X31351395Y-19281501D01*
X31157834Y-19145967D01*
X31157830Y-19145965D01*
X31157828Y-19145964D01*
X30943663Y-19046097D01*
X30943659Y-19046096D01*
X30943655Y-19046094D01*
X30715413Y-18984938D01*
X30715403Y-18984936D01*
X30480001Y-18964341D01*
X30479999Y-18964341D01*
X30244596Y-18984936D01*
X30244586Y-18984938D01*
X30016344Y-19046094D01*
X30016335Y-19046098D01*
X29802171Y-19145964D01*
X29802169Y-19145965D01*
X29608597Y-19281505D01*
X29441508Y-19448594D01*
X29311574Y-19634159D01*
X29256997Y-19677784D01*
X29187498Y-19684976D01*
X29125144Y-19653454D01*
X29108424Y-19634158D01*
X28978494Y-19448597D01*
X28811402Y-19281506D01*
X28811395Y-19281501D01*
X28617834Y-19145967D01*
X28617830Y-19145965D01*
X28617828Y-19145964D01*
X28403663Y-19046097D01*
X28403659Y-19046096D01*
X28403655Y-19046094D01*
X28175413Y-18984938D01*
X28175403Y-18984936D01*
X27940001Y-18964341D01*
X27939999Y-18964341D01*
X27704596Y-18984936D01*
X27704586Y-18984938D01*
X27476344Y-19046094D01*
X27476335Y-19046098D01*
X27262171Y-19145964D01*
X27262169Y-19145965D01*
X27068597Y-19281505D01*
X26901505Y-19448597D01*
X26771575Y-19634158D01*
X26716998Y-19677783D01*
X26647500Y-19684977D01*
X26585145Y-19653454D01*
X26568425Y-19634158D01*
X26438494Y-19448597D01*
X26271402Y-19281506D01*
X26271395Y-19281501D01*
X26077834Y-19145967D01*
X26077830Y-19145965D01*
X26077830Y-19145964D01*
X25863663Y-19046097D01*
X25863659Y-19046096D01*
X25863655Y-19046094D01*
X25635413Y-18984938D01*
X25635403Y-18984936D01*
X25400001Y-18964341D01*
X25399999Y-18964341D01*
X25164596Y-18984936D01*
X25164586Y-18984938D01*
X24936344Y-19046094D01*
X24936335Y-19046098D01*
X24722171Y-19145964D01*
X24722169Y-19145965D01*
X24528597Y-19281505D01*
X24361505Y-19448597D01*
X24231575Y-19634158D01*
X24176998Y-19677783D01*
X24107500Y-19684977D01*
X24045145Y-19653454D01*
X24028425Y-19634158D01*
X23898494Y-19448597D01*
X23731402Y-19281506D01*
X23731395Y-19281501D01*
X23537834Y-19145967D01*
X23537830Y-19145965D01*
X23537829Y-19145964D01*
X23323663Y-19046097D01*
X23323659Y-19046096D01*
X23323655Y-19046094D01*
X23095413Y-18984938D01*
X23095403Y-18984936D01*
X22860001Y-18964341D01*
X22859999Y-18964341D01*
X22624596Y-18984936D01*
X22624586Y-18984938D01*
X22396344Y-19046094D01*
X22396335Y-19046098D01*
X22182171Y-19145964D01*
X22182169Y-19145965D01*
X21988597Y-19281505D01*
X21821505Y-19448597D01*
X21691575Y-19634158D01*
X21636998Y-19677783D01*
X21567500Y-19684977D01*
X21505145Y-19653454D01*
X21488425Y-19634158D01*
X21358494Y-19448597D01*
X21191402Y-19281506D01*
X21191395Y-19281501D01*
X20997834Y-19145967D01*
X20997830Y-19145965D01*
X20997830Y-19145964D01*
X20783663Y-19046097D01*
X20783659Y-19046096D01*
X20783655Y-19046094D01*
X20555413Y-18984938D01*
X20555403Y-18984936D01*
X20320001Y-18964341D01*
X20319999Y-18964341D01*
X20084596Y-18984936D01*
X20084586Y-18984938D01*
X19856344Y-19046094D01*
X19856335Y-19046098D01*
X19642171Y-19145964D01*
X19642169Y-19145965D01*
X19448597Y-19281505D01*
X19281505Y-19448597D01*
X19151575Y-19634158D01*
X19096998Y-19677783D01*
X19027500Y-19684977D01*
X18965145Y-19653454D01*
X18948425Y-19634158D01*
X18818494Y-19448597D01*
X18651402Y-19281506D01*
X18651395Y-19281501D01*
X18457834Y-19145967D01*
X18457830Y-19145965D01*
X18457829Y-19145964D01*
X18243663Y-19046097D01*
X18243659Y-19046096D01*
X18243655Y-19046094D01*
X18015413Y-18984938D01*
X18015403Y-18984936D01*
X17780001Y-18964341D01*
X17779999Y-18964341D01*
X17544596Y-18984936D01*
X17544586Y-18984938D01*
X17316344Y-19046094D01*
X17316335Y-19046098D01*
X17102171Y-19145964D01*
X17102169Y-19145965D01*
X16908597Y-19281505D01*
X16741505Y-19448597D01*
X16611575Y-19634158D01*
X16556998Y-19677783D01*
X16487500Y-19684977D01*
X16425145Y-19653454D01*
X16408425Y-19634158D01*
X16278494Y-19448597D01*
X16111402Y-19281506D01*
X16111395Y-19281501D01*
X15917834Y-19145967D01*
X15917830Y-19145965D01*
X15917830Y-19145964D01*
X15703663Y-19046097D01*
X15703659Y-19046096D01*
X15703655Y-19046094D01*
X15475413Y-18984938D01*
X15475403Y-18984936D01*
X15240001Y-18964341D01*
X15239999Y-18964341D01*
X15004596Y-18984936D01*
X15004586Y-18984938D01*
X14776344Y-19046094D01*
X14776335Y-19046098D01*
X14562171Y-19145964D01*
X14562169Y-19145965D01*
X14368597Y-19281505D01*
X14201508Y-19448594D01*
X14071574Y-19634159D01*
X14016997Y-19677784D01*
X13947498Y-19684976D01*
X13885144Y-19653454D01*
X13868424Y-19634158D01*
X13738494Y-19448597D01*
X13571402Y-19281506D01*
X13571395Y-19281501D01*
X13377834Y-19145967D01*
X13377830Y-19145965D01*
X13377830Y-19145964D01*
X13163663Y-19046097D01*
X13163659Y-19046096D01*
X13163655Y-19046094D01*
X12935413Y-18984938D01*
X12935403Y-18984936D01*
X12700001Y-18964341D01*
X12699999Y-18964341D01*
X12464596Y-18984936D01*
X12464586Y-18984938D01*
X12236344Y-19046094D01*
X12236335Y-19046098D01*
X12022171Y-19145964D01*
X12022169Y-19145965D01*
X11828597Y-19281505D01*
X11661505Y-19448597D01*
X11531575Y-19634158D01*
X11476998Y-19677783D01*
X11407500Y-19684977D01*
X11345145Y-19653454D01*
X11328425Y-19634158D01*
X11198494Y-19448597D01*
X11031402Y-19281506D01*
X11031395Y-19281501D01*
X10837834Y-19145967D01*
X10837830Y-19145965D01*
X10837829Y-19145964D01*
X10623663Y-19046097D01*
X10623659Y-19046096D01*
X10623655Y-19046094D01*
X10395413Y-18984938D01*
X10395403Y-18984936D01*
X10160001Y-18964341D01*
X10159999Y-18964341D01*
X9924596Y-18984936D01*
X9924586Y-18984938D01*
X9696344Y-19046094D01*
X9696335Y-19046098D01*
X9482171Y-19145964D01*
X9482169Y-19145965D01*
X9288597Y-19281505D01*
X9121508Y-19448594D01*
X8991574Y-19634159D01*
X8936997Y-19677784D01*
X8867498Y-19684976D01*
X8805144Y-19653454D01*
X8788424Y-19634158D01*
X8658494Y-19448597D01*
X8491402Y-19281506D01*
X8491395Y-19281501D01*
X8297834Y-19145967D01*
X8297830Y-19145965D01*
X8297829Y-19145964D01*
X8083663Y-19046097D01*
X8083659Y-19046096D01*
X8083655Y-19046094D01*
X7855413Y-18984938D01*
X7855403Y-18984936D01*
X7620001Y-18964341D01*
X7619999Y-18964341D01*
X7384596Y-18984936D01*
X7384586Y-18984938D01*
X7156344Y-19046094D01*
X7156335Y-19046098D01*
X6942171Y-19145964D01*
X6942169Y-19145965D01*
X6748597Y-19281505D01*
X6581505Y-19448597D01*
X6451575Y-19634158D01*
X6396998Y-19677783D01*
X6327500Y-19684977D01*
X6265145Y-19653454D01*
X6248425Y-19634158D01*
X6118494Y-19448597D01*
X5951402Y-19281506D01*
X5951395Y-19281501D01*
X5757834Y-19145967D01*
X5757830Y-19145965D01*
X5757830Y-19145964D01*
X5543663Y-19046097D01*
X5543659Y-19046096D01*
X5543655Y-19046094D01*
X5315413Y-18984938D01*
X5315403Y-18984936D01*
X5080001Y-18964341D01*
X5079999Y-18964341D01*
X4844596Y-18984936D01*
X4844586Y-18984938D01*
X4616344Y-19046094D01*
X4616335Y-19046098D01*
X4402171Y-19145964D01*
X4402169Y-19145965D01*
X4208600Y-19281503D01*
X4086673Y-19403430D01*
X4025350Y-19436914D01*
X3955658Y-19431930D01*
X3899725Y-19390058D01*
X3882810Y-19359081D01*
X3833797Y-19227671D01*
X3833793Y-19227664D01*
X3747547Y-19112455D01*
X3747544Y-19112452D01*
X3632335Y-19026206D01*
X3632328Y-19026202D01*
X3497482Y-18975908D01*
X3497483Y-18975908D01*
X3437883Y-18969501D01*
X3437881Y-18969500D01*
X3437873Y-18969500D01*
X3437864Y-18969500D01*
X1642129Y-18969500D01*
X1642123Y-18969501D01*
X1582516Y-18975908D01*
X1447671Y-19026202D01*
X1447664Y-19026206D01*
X1332455Y-19112452D01*
X1332452Y-19112455D01*
X1246206Y-19227664D01*
X1246202Y-19227671D01*
X1195908Y-19362517D01*
X1189501Y-19422116D01*
X1189500Y-19422135D01*
X1189500Y-21217870D01*
X1189501Y-21217876D01*
X1195908Y-21277483D01*
X1246202Y-21412328D01*
X1246203Y-21412330D01*
X1323578Y-21515689D01*
X1347995Y-21581153D01*
X1333144Y-21649426D01*
X1323578Y-21664311D01*
X1246203Y-21767669D01*
X1246202Y-21767671D01*
X1195908Y-21902517D01*
X1189501Y-21962116D01*
X1189500Y-21962135D01*
X1189500Y-23757870D01*
X254000Y-23757870D01*
X254000Y-13716000D01*
X2142540Y-13716000D01*
X2162326Y-13904256D01*
X2162327Y-13904258D01*
X2162327Y-13904259D01*
X2220818Y-14084277D01*
X2220821Y-14084284D01*
X2315467Y-14248216D01*
X2373899Y-14313111D01*
X2442129Y-14388888D01*
X2595265Y-14500148D01*
X2595270Y-14500151D01*
X2768192Y-14577142D01*
X2768197Y-14577144D01*
X2953354Y-14616500D01*
X2953355Y-14616500D01*
X3142644Y-14616500D01*
X3142646Y-14616500D01*
X3327803Y-14577144D01*
X3500730Y-14500151D01*
X3653871Y-14388888D01*
X3780533Y-14248216D01*
X3794514Y-14224000D01*
X4682540Y-14224000D01*
X4702326Y-14412256D01*
X4702327Y-14412259D01*
X4760818Y-14592277D01*
X4760821Y-14592284D01*
X4855467Y-14756216D01*
X4978258Y-14892589D01*
X4982129Y-14896888D01*
X5135265Y-15008148D01*
X5135270Y-15008151D01*
X5308192Y-15085142D01*
X5308197Y-15085144D01*
X5493354Y-15124500D01*
X5493355Y-15124500D01*
X5682644Y-15124500D01*
X5682646Y-15124500D01*
X5867803Y-15085144D01*
X6040730Y-15008151D01*
X6193871Y-14896888D01*
X6320533Y-14756216D01*
X6367974Y-14674043D01*
X6418540Y-14625829D01*
X6487147Y-14612605D01*
X6501140Y-14614754D01*
X6509354Y-14616500D01*
X6698644Y-14616500D01*
X6698646Y-14616500D01*
X6883803Y-14577144D01*
X7056730Y-14500151D01*
X7209871Y-14388888D01*
X7336533Y-14248216D01*
X7383974Y-14166043D01*
X7434540Y-14117829D01*
X7503147Y-14104605D01*
X7517140Y-14106754D01*
X7525354Y-14108500D01*
X7602903Y-14108500D01*
X7669942Y-14128185D01*
X7715697Y-14180989D01*
X7726224Y-14219538D01*
X7726241Y-14219700D01*
X7726241Y-14219701D01*
X7746027Y-14407957D01*
X7746028Y-14407960D01*
X7804519Y-14587978D01*
X7804522Y-14587985D01*
X7899168Y-14751917D01*
X8025829Y-14892589D01*
X8025830Y-14892589D01*
X8178966Y-15003849D01*
X8178971Y-15003852D01*
X8351893Y-15080843D01*
X8351898Y-15080845D01*
X8537055Y-15120201D01*
X8537056Y-15120201D01*
X8726345Y-15120201D01*
X8726347Y-15120201D01*
X8911504Y-15080845D01*
X9084431Y-15003852D01*
X9109002Y-14986000D01*
X14118040Y-14986000D01*
X14137826Y-15174256D01*
X14137827Y-15174259D01*
X14196318Y-15354277D01*
X14196321Y-15354284D01*
X14290967Y-15518216D01*
X14353650Y-15587832D01*
X14417629Y-15658888D01*
X14570765Y-15770148D01*
X14570770Y-15770151D01*
X14743692Y-15847142D01*
X14743697Y-15847144D01*
X14928854Y-15886500D01*
X14928855Y-15886500D01*
X15118144Y-15886500D01*
X15118146Y-15886500D01*
X15303303Y-15847144D01*
X15476230Y-15770151D01*
X15629371Y-15658888D01*
X15756033Y-15518216D01*
X15850679Y-15354284D01*
X15909174Y-15174256D01*
X15928960Y-14986000D01*
X15909174Y-14797744D01*
X15892347Y-14745956D01*
X15890352Y-14676115D01*
X15926432Y-14616282D01*
X15984494Y-14586349D01*
X16027803Y-14577144D01*
X16027807Y-14577142D01*
X16027808Y-14577142D01*
X16086058Y-14551206D01*
X16200730Y-14500151D01*
X16353871Y-14388888D01*
X16480533Y-14248216D01*
X16529613Y-14163205D01*
X16580179Y-14114991D01*
X16648786Y-14101767D01*
X16713651Y-14127735D01*
X16744385Y-14163203D01*
X16776910Y-14219538D01*
X16793467Y-14248216D01*
X16920129Y-14388888D01*
X17073265Y-14500148D01*
X17073270Y-14500151D01*
X17246192Y-14577142D01*
X17246193Y-14577142D01*
X17246197Y-14577144D01*
X17289503Y-14586349D01*
X17350982Y-14619539D01*
X17384760Y-14680701D01*
X17381653Y-14745954D01*
X17364826Y-14797741D01*
X17354406Y-14896888D01*
X17345040Y-14986000D01*
X17364826Y-15174256D01*
X17364827Y-15174259D01*
X17423318Y-15354277D01*
X17423321Y-15354284D01*
X17517967Y-15518216D01*
X17580650Y-15587832D01*
X17644629Y-15658888D01*
X17797765Y-15770148D01*
X17797770Y-15770151D01*
X17970692Y-15847142D01*
X17970697Y-15847144D01*
X18155854Y-15886500D01*
X18155855Y-15886500D01*
X18345144Y-15886500D01*
X18345146Y-15886500D01*
X18530303Y-15847144D01*
X18703230Y-15770151D01*
X18856371Y-15658888D01*
X18983033Y-15518216D01*
X19077679Y-15354284D01*
X19136174Y-15174256D01*
X19155960Y-14986000D01*
X19136174Y-14797744D01*
X19130024Y-14778816D01*
X19128030Y-14708975D01*
X19164112Y-14649143D01*
X19226813Y-14618316D01*
X19247956Y-14616500D01*
X19398644Y-14616500D01*
X19398646Y-14616500D01*
X19583803Y-14577144D01*
X19756730Y-14500151D01*
X19756734Y-14500148D01*
X19761563Y-14497998D01*
X19830813Y-14488712D01*
X19862437Y-14497998D01*
X19867265Y-14500148D01*
X19867270Y-14500151D01*
X20040197Y-14577144D01*
X20225354Y-14616500D01*
X20225355Y-14616500D01*
X20414644Y-14616500D01*
X20414646Y-14616500D01*
X20599803Y-14577144D01*
X20772730Y-14500151D01*
X20925871Y-14388888D01*
X20989850Y-14317831D01*
X21049337Y-14281183D01*
X21119194Y-14282514D01*
X21174150Y-14317832D01*
X21238129Y-14388888D01*
X21391265Y-14500148D01*
X21391270Y-14500151D01*
X21564191Y-14577142D01*
X21564193Y-14577142D01*
X21564197Y-14577144D01*
X21642583Y-14593805D01*
X21704061Y-14626995D01*
X21737838Y-14688158D01*
X21734730Y-14753411D01*
X21720327Y-14797739D01*
X21720327Y-14797740D01*
X21720326Y-14797744D01*
X21700540Y-14986000D01*
X21720326Y-15174256D01*
X21720327Y-15174259D01*
X21778818Y-15354277D01*
X21778821Y-15354284D01*
X21873467Y-15518216D01*
X21936150Y-15587832D01*
X22000129Y-15658888D01*
X22153265Y-15770148D01*
X22153270Y-15770151D01*
X22326192Y-15847142D01*
X22326197Y-15847144D01*
X22511354Y-15886500D01*
X22511355Y-15886500D01*
X22700644Y-15886500D01*
X22700646Y-15886500D01*
X22885803Y-15847144D01*
X23058730Y-15770151D01*
X23211871Y-15658888D01*
X23338533Y-15518216D01*
X23433179Y-15354284D01*
X23491674Y-15174256D01*
X23511460Y-14986000D01*
X23986540Y-14986000D01*
X24006326Y-15174256D01*
X24006327Y-15174259D01*
X24064818Y-15354277D01*
X24064821Y-15354284D01*
X24159467Y-15518216D01*
X24222150Y-15587832D01*
X24286129Y-15658888D01*
X24439265Y-15770148D01*
X24439270Y-15770151D01*
X24612192Y-15847142D01*
X24612197Y-15847144D01*
X24797354Y-15886500D01*
X24797355Y-15886500D01*
X24986644Y-15886500D01*
X24986646Y-15886500D01*
X25171803Y-15847144D01*
X25344730Y-15770151D01*
X25454117Y-15690676D01*
X25519920Y-15667198D01*
X25587974Y-15683023D01*
X25599871Y-15690668D01*
X25709266Y-15770148D01*
X25709270Y-15770151D01*
X25882192Y-15847142D01*
X25882197Y-15847144D01*
X26067354Y-15886500D01*
X26067355Y-15886500D01*
X26256644Y-15886500D01*
X26256646Y-15886500D01*
X26441803Y-15847144D01*
X26614730Y-15770151D01*
X26767871Y-15658888D01*
X26894533Y-15518216D01*
X26894533Y-15518215D01*
X26898881Y-15513387D01*
X26900348Y-15514708D01*
X26948239Y-15477770D01*
X27017852Y-15471782D01*
X27079651Y-15504380D01*
X27085389Y-15510340D01*
X27123363Y-15552514D01*
X27153278Y-15585738D01*
X27306414Y-15696998D01*
X27306419Y-15697001D01*
X27479341Y-15773992D01*
X27479346Y-15773994D01*
X27664503Y-15813350D01*
X27664504Y-15813350D01*
X27853793Y-15813350D01*
X27853795Y-15813350D01*
X28038952Y-15773994D01*
X28211879Y-15697001D01*
X28365020Y-15585738D01*
X28491682Y-15445066D01*
X28586328Y-15281134D01*
X28644823Y-15101106D01*
X28656921Y-14986000D01*
X33638540Y-14986000D01*
X33658326Y-15174256D01*
X33658327Y-15174259D01*
X33716818Y-15354277D01*
X33716821Y-15354284D01*
X33811467Y-15518216D01*
X33874150Y-15587832D01*
X33938129Y-15658888D01*
X34091265Y-15770148D01*
X34091270Y-15770151D01*
X34264192Y-15847142D01*
X34264197Y-15847144D01*
X34449354Y-15886500D01*
X34449355Y-15886500D01*
X34638644Y-15886500D01*
X34638646Y-15886500D01*
X34823803Y-15847144D01*
X34996730Y-15770151D01*
X35149871Y-15658888D01*
X35276533Y-15518216D01*
X35325613Y-15433205D01*
X35376179Y-15384991D01*
X35444786Y-15371767D01*
X35509651Y-15397735D01*
X35540385Y-15433203D01*
X35566116Y-15477770D01*
X35589467Y-15518216D01*
X35716129Y-15658888D01*
X35869265Y-15770148D01*
X35869270Y-15770151D01*
X36042192Y-15847142D01*
X36042197Y-15847144D01*
X36227354Y-15886500D01*
X36227355Y-15886500D01*
X36416644Y-15886500D01*
X36416646Y-15886500D01*
X36601803Y-15847144D01*
X36774730Y-15770151D01*
X36927871Y-15658888D01*
X36991850Y-15587831D01*
X37051337Y-15551183D01*
X37121194Y-15552514D01*
X37176150Y-15587832D01*
X37240129Y-15658888D01*
X37393265Y-15770148D01*
X37393270Y-15770151D01*
X37566192Y-15847142D01*
X37566197Y-15847144D01*
X37751354Y-15886500D01*
X37751355Y-15886500D01*
X37940644Y-15886500D01*
X37940646Y-15886500D01*
X38125803Y-15847144D01*
X38298730Y-15770151D01*
X38451871Y-15658888D01*
X38578533Y-15518216D01*
X38673179Y-15354284D01*
X38731674Y-15174256D01*
X38738679Y-15107597D01*
X38765263Y-15042985D01*
X38822561Y-15003000D01*
X38892380Y-15000340D01*
X38952553Y-15035849D01*
X38983977Y-15098254D01*
X38985318Y-15107583D01*
X38992326Y-15174256D01*
X38992327Y-15174259D01*
X39050818Y-15354277D01*
X39050821Y-15354284D01*
X39145467Y-15518216D01*
X39208150Y-15587832D01*
X39272129Y-15658888D01*
X39425265Y-15770148D01*
X39425270Y-15770151D01*
X39598192Y-15847142D01*
X39598197Y-15847144D01*
X39783354Y-15886500D01*
X39783355Y-15886500D01*
X39972644Y-15886500D01*
X39972646Y-15886500D01*
X40157803Y-15847144D01*
X40330730Y-15770151D01*
X40483871Y-15658888D01*
X40610533Y-15518216D01*
X40705179Y-15354284D01*
X40763674Y-15174256D01*
X40783460Y-14986000D01*
X40763674Y-14797744D01*
X40705179Y-14617716D01*
X40610533Y-14453784D01*
X40483871Y-14313112D01*
X40472432Y-14304801D01*
X40330734Y-14201851D01*
X40330729Y-14201848D01*
X40157807Y-14124857D01*
X40157802Y-14124855D01*
X40005395Y-14092461D01*
X39972646Y-14085500D01*
X39859456Y-14085500D01*
X39792417Y-14065815D01*
X39746662Y-14013011D01*
X39736718Y-13943853D01*
X39741524Y-13923184D01*
X39743069Y-13918427D01*
X39747674Y-13904256D01*
X39767460Y-13716000D01*
X39747674Y-13527744D01*
X39689179Y-13347716D01*
X39594533Y-13183784D01*
X39467871Y-13043112D01*
X39435708Y-13019744D01*
X39314734Y-12931851D01*
X39314729Y-12931848D01*
X39141807Y-12854857D01*
X39141802Y-12854855D01*
X38964860Y-12817246D01*
X38956646Y-12815500D01*
X38767354Y-12815500D01*
X38759140Y-12817246D01*
X38582197Y-12854855D01*
X38582192Y-12854857D01*
X38409270Y-12931848D01*
X38409265Y-12931851D01*
X38304184Y-13008197D01*
X38238377Y-13031677D01*
X38170324Y-13015851D01*
X38158414Y-13008197D01*
X38053332Y-12931851D01*
X38053327Y-12931848D01*
X37880405Y-12854857D01*
X37880400Y-12854855D01*
X37703458Y-12817246D01*
X37695244Y-12815500D01*
X37505952Y-12815500D01*
X37497738Y-12817246D01*
X37320795Y-12854855D01*
X37320790Y-12854857D01*
X37147868Y-12931848D01*
X37147863Y-12931851D01*
X36994727Y-13043111D01*
X36868064Y-13183785D01*
X36773419Y-13347715D01*
X36773416Y-13347722D01*
X36729543Y-13482751D01*
X36714924Y-13527744D01*
X36695138Y-13716000D01*
X36714924Y-13904256D01*
X36714925Y-13904258D01*
X36714925Y-13904259D01*
X36733942Y-13962787D01*
X36735937Y-14032628D01*
X36699857Y-14092461D01*
X36637156Y-14123289D01*
X36590231Y-14122396D01*
X36523418Y-14108195D01*
X36416646Y-14085500D01*
X36227354Y-14085500D01*
X36194897Y-14092398D01*
X36042197Y-14124855D01*
X36042192Y-14124857D01*
X35869270Y-14201848D01*
X35869265Y-14201851D01*
X35716129Y-14313111D01*
X35589466Y-14453785D01*
X35540387Y-14538793D01*
X35489820Y-14587008D01*
X35421213Y-14600232D01*
X35356349Y-14574264D01*
X35325613Y-14538793D01*
X35302060Y-14497998D01*
X35276533Y-14453784D01*
X35149871Y-14313112D01*
X35138432Y-14304801D01*
X34996734Y-14201851D01*
X34996729Y-14201848D01*
X34823807Y-14124857D01*
X34823802Y-14124855D01*
X34671395Y-14092461D01*
X34638646Y-14085500D01*
X34449354Y-14085500D01*
X34416897Y-14092398D01*
X34264197Y-14124855D01*
X34264192Y-14124857D01*
X34091270Y-14201848D01*
X34091265Y-14201851D01*
X33938129Y-14313111D01*
X33811466Y-14453785D01*
X33716821Y-14617715D01*
X33716818Y-14617722D01*
X33658327Y-14797740D01*
X33658326Y-14797744D01*
X33638540Y-14986000D01*
X28656921Y-14986000D01*
X28664609Y-14912850D01*
X28647856Y-14753458D01*
X28660425Y-14684732D01*
X28708157Y-14633708D01*
X28771177Y-14616500D01*
X28796644Y-14616500D01*
X28796646Y-14616500D01*
X28981803Y-14577144D01*
X29154730Y-14500151D01*
X29307871Y-14388888D01*
X29371850Y-14317831D01*
X29431337Y-14281183D01*
X29501194Y-14282514D01*
X29556150Y-14317832D01*
X29620129Y-14388888D01*
X29773265Y-14500148D01*
X29773270Y-14500151D01*
X29946192Y-14577142D01*
X29946197Y-14577144D01*
X30131354Y-14616500D01*
X30131355Y-14616500D01*
X30320644Y-14616500D01*
X30320646Y-14616500D01*
X30505803Y-14577144D01*
X30678730Y-14500151D01*
X30831871Y-14388888D01*
X30958533Y-14248216D01*
X31053179Y-14084284D01*
X31111674Y-13904256D01*
X31131460Y-13716000D01*
X31120205Y-13608914D01*
X31132773Y-13540190D01*
X31180505Y-13489165D01*
X31248245Y-13472047D01*
X31293961Y-13482678D01*
X31470191Y-13561142D01*
X31470193Y-13561142D01*
X31470197Y-13561144D01*
X31510271Y-13569661D01*
X31571750Y-13602852D01*
X31605528Y-13664014D01*
X31607810Y-13703907D01*
X31606540Y-13715995D01*
X31606540Y-13715997D01*
X31606540Y-13716000D01*
X31626326Y-13904256D01*
X31626327Y-13904258D01*
X31626327Y-13904259D01*
X31684818Y-14084277D01*
X31684821Y-14084284D01*
X31779467Y-14248216D01*
X31837899Y-14313111D01*
X31906129Y-14388888D01*
X32059265Y-14500148D01*
X32059270Y-14500151D01*
X32232192Y-14577142D01*
X32232197Y-14577144D01*
X32417354Y-14616500D01*
X32417355Y-14616500D01*
X32606644Y-14616500D01*
X32606646Y-14616500D01*
X32791803Y-14577144D01*
X32964730Y-14500151D01*
X33117871Y-14388888D01*
X33244533Y-14248216D01*
X33339179Y-14084284D01*
X33397674Y-13904256D01*
X33417460Y-13716000D01*
X33397674Y-13527744D01*
X33339179Y-13347716D01*
X33244533Y-13183784D01*
X33117871Y-13043112D01*
X33085708Y-13019744D01*
X32964734Y-12931851D01*
X32964729Y-12931848D01*
X32791807Y-12854857D01*
X32791802Y-12854855D01*
X32751729Y-12846338D01*
X32690248Y-12813146D01*
X32656471Y-12751983D01*
X32654190Y-12712084D01*
X32655460Y-12700003D01*
X32655460Y-12700002D01*
X32655460Y-12700000D01*
X42020540Y-12700000D01*
X42040326Y-12888256D01*
X42040327Y-12888259D01*
X42098818Y-13068277D01*
X42098821Y-13068284D01*
X42193467Y-13232216D01*
X42311095Y-13362855D01*
X42320129Y-13372888D01*
X42473265Y-13484148D01*
X42473270Y-13484151D01*
X42646192Y-13561142D01*
X42646197Y-13561144D01*
X42831354Y-13600500D01*
X42831355Y-13600500D01*
X43020644Y-13600500D01*
X43020646Y-13600500D01*
X43205803Y-13561144D01*
X43367469Y-13489165D01*
X43384667Y-13481508D01*
X43385220Y-13482751D01*
X43446103Y-13467973D01*
X43490654Y-13478554D01*
X43493568Y-13479851D01*
X43493569Y-13479852D01*
X43499916Y-13482678D01*
X43666491Y-13556843D01*
X43666496Y-13556845D01*
X43851653Y-13596201D01*
X43851654Y-13596201D01*
X44040943Y-13596201D01*
X44040945Y-13596201D01*
X44226102Y-13556845D01*
X44399029Y-13479852D01*
X44552170Y-13368589D01*
X44678832Y-13227917D01*
X44773478Y-13063985D01*
X44831973Y-12883957D01*
X44851759Y-12695701D01*
X44831973Y-12507445D01*
X44773478Y-12327417D01*
X44678832Y-12163485D01*
X44552170Y-12022813D01*
X44552169Y-12022812D01*
X44547821Y-12017983D01*
X44549650Y-12016336D01*
X44518818Y-11966315D01*
X44520132Y-11896458D01*
X44546281Y-11850652D01*
X44547866Y-11848891D01*
X44547871Y-11848888D01*
X44674533Y-11708216D01*
X44769179Y-11544284D01*
X44827674Y-11364256D01*
X44847460Y-11176000D01*
X44827674Y-10987744D01*
X44769179Y-10807716D01*
X44674533Y-10643784D01*
X44547871Y-10503112D01*
X44547870Y-10503111D01*
X44394734Y-10391851D01*
X44394729Y-10391848D01*
X44221807Y-10314857D01*
X44221802Y-10314855D01*
X44076000Y-10283865D01*
X44036646Y-10275500D01*
X43847354Y-10275500D01*
X43814897Y-10282398D01*
X43662197Y-10314855D01*
X43662192Y-10314857D01*
X43489270Y-10391848D01*
X43489265Y-10391851D01*
X43336129Y-10503111D01*
X43209466Y-10643785D01*
X43114821Y-10807715D01*
X43114818Y-10807722D01*
X43056327Y-10987740D01*
X43056326Y-10987744D01*
X43036540Y-11176000D01*
X43056326Y-11364256D01*
X43056327Y-11364259D01*
X43114818Y-11544277D01*
X43114820Y-11544282D01*
X43156702Y-11616825D01*
X43173173Y-11684726D01*
X43150321Y-11750752D01*
X43095399Y-11793942D01*
X43025845Y-11800583D01*
X43023609Y-11800129D01*
X43020646Y-11799500D01*
X42831354Y-11799500D01*
X42798897Y-11806398D01*
X42646197Y-11838855D01*
X42646192Y-11838857D01*
X42473270Y-11915848D01*
X42473265Y-11915851D01*
X42320129Y-12027111D01*
X42193466Y-12167785D01*
X42098821Y-12331715D01*
X42098818Y-12331722D01*
X42068884Y-12423851D01*
X42040326Y-12511744D01*
X42020540Y-12700000D01*
X32655460Y-12700000D01*
X32652915Y-12675785D01*
X32635674Y-12511744D01*
X32577179Y-12331716D01*
X32482533Y-12167784D01*
X32355871Y-12027112D01*
X32343306Y-12017983D01*
X32202734Y-11915851D01*
X32202729Y-11915848D01*
X32029807Y-11838857D01*
X32029802Y-11838855D01*
X31884000Y-11807865D01*
X31844646Y-11799500D01*
X31655354Y-11799500D01*
X31622897Y-11806398D01*
X31470197Y-11838855D01*
X31470192Y-11838857D01*
X31297270Y-11915848D01*
X31297265Y-11915851D01*
X31144129Y-12027111D01*
X31017466Y-12167785D01*
X30922821Y-12331715D01*
X30922818Y-12331722D01*
X30892884Y-12423851D01*
X30864326Y-12511744D01*
X30844540Y-12700000D01*
X30855794Y-12807082D01*
X30843226Y-12875810D01*
X30795494Y-12926834D01*
X30727753Y-12943952D01*
X30682038Y-12933321D01*
X30505807Y-12854857D01*
X30505802Y-12854855D01*
X30465729Y-12846338D01*
X30404248Y-12813146D01*
X30370471Y-12751983D01*
X30368190Y-12712084D01*
X30369460Y-12700003D01*
X30369460Y-12700002D01*
X30366915Y-12675785D01*
X30349674Y-12511744D01*
X30291179Y-12331716D01*
X30196533Y-12167784D01*
X30069871Y-12027112D01*
X30057306Y-12017983D01*
X29916734Y-11915851D01*
X29916729Y-11915848D01*
X29743807Y-11838857D01*
X29743802Y-11838855D01*
X29598001Y-11807865D01*
X29558646Y-11799500D01*
X29369354Y-11799500D01*
X29336897Y-11806398D01*
X29184197Y-11838855D01*
X29184192Y-11838857D01*
X29011270Y-11915848D01*
X29011265Y-11915851D01*
X28858129Y-12027111D01*
X28731466Y-12167785D01*
X28636821Y-12331715D01*
X28636818Y-12331722D01*
X28606884Y-12423851D01*
X28578326Y-12511744D01*
X28561085Y-12675784D01*
X28558540Y-12700002D01*
X28559810Y-12712089D01*
X28547239Y-12780819D01*
X28499505Y-12831841D01*
X28462273Y-12846337D01*
X28430146Y-12853166D01*
X28422197Y-12854856D01*
X28422196Y-12854856D01*
X28422193Y-12854857D01*
X28422192Y-12854857D01*
X28249270Y-12931848D01*
X28249265Y-12931851D01*
X28096129Y-13043111D01*
X27969466Y-13183785D01*
X27874821Y-13347715D01*
X27874818Y-13347722D01*
X27830945Y-13482751D01*
X27816326Y-13527744D01*
X27802004Y-13664014D01*
X27796541Y-13715995D01*
X27796540Y-13716000D01*
X27813292Y-13875391D01*
X27800724Y-13944118D01*
X27752992Y-13995142D01*
X27689972Y-14012350D01*
X27664503Y-14012350D01*
X27632046Y-14019248D01*
X27479346Y-14051705D01*
X27479341Y-14051707D01*
X27306419Y-14128698D01*
X27306414Y-14128701D01*
X27153278Y-14239961D01*
X27022268Y-14385463D01*
X27020806Y-14384147D01*
X26972866Y-14421096D01*
X26903251Y-14427058D01*
X26841464Y-14394437D01*
X26835756Y-14388506D01*
X26767870Y-14313111D01*
X26614734Y-14201851D01*
X26614729Y-14201848D01*
X26441807Y-14124857D01*
X26441802Y-14124855D01*
X26289395Y-14092461D01*
X26256646Y-14085500D01*
X26067354Y-14085500D01*
X26034897Y-14092398D01*
X25882197Y-14124855D01*
X25882192Y-14124857D01*
X25709270Y-14201848D01*
X25709265Y-14201851D01*
X25599885Y-14281321D01*
X25534079Y-14304801D01*
X25466025Y-14288975D01*
X25454115Y-14281321D01*
X25344734Y-14201851D01*
X25344729Y-14201848D01*
X25171807Y-14124857D01*
X25171802Y-14124855D01*
X25019395Y-14092461D01*
X24986646Y-14085500D01*
X24797354Y-14085500D01*
X24764897Y-14092398D01*
X24612197Y-14124855D01*
X24612192Y-14124857D01*
X24439270Y-14201848D01*
X24439265Y-14201851D01*
X24286129Y-14313111D01*
X24159466Y-14453785D01*
X24064821Y-14617715D01*
X24064818Y-14617722D01*
X24006327Y-14797740D01*
X24006326Y-14797744D01*
X23986540Y-14986000D01*
X23511460Y-14986000D01*
X23491674Y-14797744D01*
X23433179Y-14617716D01*
X23338533Y-14453784D01*
X23211871Y-14313112D01*
X23200432Y-14304801D01*
X23058734Y-14201851D01*
X23058729Y-14201848D01*
X22885807Y-14124857D01*
X22885802Y-14124855D01*
X22807419Y-14108195D01*
X22745937Y-14075003D01*
X22712161Y-14013840D01*
X22715269Y-13948586D01*
X22729674Y-13904256D01*
X22749460Y-13716000D01*
X22729674Y-13527744D01*
X22671179Y-13347716D01*
X22576533Y-13183784D01*
X22449871Y-13043112D01*
X22417708Y-13019744D01*
X22296734Y-12931851D01*
X22296729Y-12931848D01*
X22123807Y-12854857D01*
X22123802Y-12854855D01*
X21946860Y-12817246D01*
X21938646Y-12815500D01*
X21749354Y-12815500D01*
X21741140Y-12817246D01*
X21564197Y-12854855D01*
X21564192Y-12854857D01*
X21391270Y-12931848D01*
X21391265Y-12931851D01*
X21238129Y-13043111D01*
X21238128Y-13043112D01*
X21174149Y-13114168D01*
X21114663Y-13150816D01*
X21044806Y-13149485D01*
X20989851Y-13114168D01*
X20925871Y-13043112D01*
X20925870Y-13043111D01*
X20772734Y-12931851D01*
X20772729Y-12931848D01*
X20599807Y-12854857D01*
X20599802Y-12854855D01*
X20422860Y-12817246D01*
X20414646Y-12815500D01*
X20225354Y-12815500D01*
X20217140Y-12817246D01*
X20040197Y-12854855D01*
X20040192Y-12854857D01*
X19862436Y-12934001D01*
X19793186Y-12943286D01*
X19761564Y-12934001D01*
X19583807Y-12854857D01*
X19583802Y-12854855D01*
X19406860Y-12817246D01*
X19398646Y-12815500D01*
X19209354Y-12815500D01*
X19201140Y-12817246D01*
X19024197Y-12854855D01*
X19024192Y-12854857D01*
X18851270Y-12931848D01*
X18851265Y-12931851D01*
X18698129Y-13043111D01*
X18571466Y-13183785D01*
X18522387Y-13268793D01*
X18471820Y-13317008D01*
X18403213Y-13330232D01*
X18338349Y-13304264D01*
X18307613Y-13268793D01*
X18264233Y-13193657D01*
X18258533Y-13183784D01*
X18131871Y-13043112D01*
X18099708Y-13019744D01*
X17978734Y-12931851D01*
X17978729Y-12931848D01*
X17805807Y-12854857D01*
X17805802Y-12854855D01*
X17628860Y-12817246D01*
X17620646Y-12815500D01*
X17431354Y-12815500D01*
X17423140Y-12817246D01*
X17246197Y-12854855D01*
X17246192Y-12854857D01*
X17073270Y-12931848D01*
X17073265Y-12931851D01*
X16920129Y-13043111D01*
X16793466Y-13183785D01*
X16744387Y-13268793D01*
X16693820Y-13317008D01*
X16625213Y-13330232D01*
X16560349Y-13304264D01*
X16529613Y-13268793D01*
X16486233Y-13193657D01*
X16480533Y-13183784D01*
X16353871Y-13043112D01*
X16321708Y-13019744D01*
X16200734Y-12931851D01*
X16200729Y-12931848D01*
X16027807Y-12854857D01*
X16027802Y-12854855D01*
X15850860Y-12817246D01*
X15842646Y-12815500D01*
X15653354Y-12815500D01*
X15645140Y-12817246D01*
X15468197Y-12854855D01*
X15468192Y-12854857D01*
X15295270Y-12931848D01*
X15295265Y-12931851D01*
X15142129Y-13043111D01*
X15015466Y-13183785D01*
X14920821Y-13347715D01*
X14920818Y-13347722D01*
X14876945Y-13482751D01*
X14862326Y-13527744D01*
X14848004Y-13664014D01*
X14842541Y-13715995D01*
X14842540Y-13716000D01*
X14862326Y-13904256D01*
X14862327Y-13904258D01*
X14862327Y-13904259D01*
X14879152Y-13956042D01*
X14881147Y-14025884D01*
X14845066Y-14085716D01*
X14787004Y-14115650D01*
X14743695Y-14124856D01*
X14743692Y-14124857D01*
X14570770Y-14201848D01*
X14570765Y-14201851D01*
X14417629Y-14313111D01*
X14290966Y-14453785D01*
X14196321Y-14617715D01*
X14196318Y-14617722D01*
X14137827Y-14797740D01*
X14137826Y-14797744D01*
X14118040Y-14986000D01*
X9109002Y-14986000D01*
X9237572Y-14892589D01*
X9364234Y-14751917D01*
X9458880Y-14587985D01*
X9517375Y-14407957D01*
X9537161Y-14219701D01*
X9537160Y-14219700D01*
X9537178Y-14219538D01*
X9563763Y-14154924D01*
X9621060Y-14114939D01*
X9660499Y-14108500D01*
X9746644Y-14108500D01*
X9746646Y-14108500D01*
X9931803Y-14069144D01*
X10104730Y-13992151D01*
X10257871Y-13880888D01*
X10384533Y-13740216D01*
X10479179Y-13576284D01*
X10537674Y-13396256D01*
X10557460Y-13208000D01*
X10537674Y-13019744D01*
X10479179Y-12839716D01*
X10398514Y-12700000D01*
X10778540Y-12700000D01*
X10798326Y-12888256D01*
X10798327Y-12888259D01*
X10856818Y-13068277D01*
X10856821Y-13068284D01*
X10951467Y-13232216D01*
X11069095Y-13362855D01*
X11078129Y-13372888D01*
X11231265Y-13484148D01*
X11231270Y-13484151D01*
X11404192Y-13561142D01*
X11404197Y-13561144D01*
X11589354Y-13600500D01*
X11589355Y-13600500D01*
X11670750Y-13600500D01*
X11737789Y-13620185D01*
X11783544Y-13672989D01*
X11794071Y-13711538D01*
X11794540Y-13715997D01*
X11794540Y-13716000D01*
X11814326Y-13904256D01*
X11814327Y-13904258D01*
X11814327Y-13904259D01*
X11872818Y-14084277D01*
X11872821Y-14084284D01*
X11967467Y-14248216D01*
X12025899Y-14313111D01*
X12094129Y-14388888D01*
X12247265Y-14500148D01*
X12247270Y-14500151D01*
X12420192Y-14577142D01*
X12420197Y-14577144D01*
X12605354Y-14616500D01*
X12605355Y-14616500D01*
X12794644Y-14616500D01*
X12794646Y-14616500D01*
X12979803Y-14577144D01*
X13152730Y-14500151D01*
X13305871Y-14388888D01*
X13432533Y-14248216D01*
X13527179Y-14084284D01*
X13585674Y-13904256D01*
X13605460Y-13716000D01*
X13585674Y-13527744D01*
X13527179Y-13347716D01*
X13432533Y-13183784D01*
X13305871Y-13043112D01*
X13273708Y-13019744D01*
X13152734Y-12931851D01*
X13152729Y-12931848D01*
X12979807Y-12854857D01*
X12979802Y-12854855D01*
X12802860Y-12817246D01*
X12794646Y-12815500D01*
X12713250Y-12815500D01*
X12646211Y-12795815D01*
X12600456Y-12743011D01*
X12589929Y-12704462D01*
X12586915Y-12675784D01*
X12569674Y-12511744D01*
X12511179Y-12331716D01*
X12416533Y-12167784D01*
X12289871Y-12027112D01*
X12277306Y-12017983D01*
X12136734Y-11915851D01*
X12136729Y-11915848D01*
X11963807Y-11838857D01*
X11963802Y-11838855D01*
X11818000Y-11807865D01*
X11778646Y-11799500D01*
X11589354Y-11799500D01*
X11556897Y-11806398D01*
X11404197Y-11838855D01*
X11404192Y-11838857D01*
X11231270Y-11915848D01*
X11231265Y-11915851D01*
X11078129Y-12027111D01*
X10951466Y-12167785D01*
X10856821Y-12331715D01*
X10856818Y-12331722D01*
X10826884Y-12423851D01*
X10798326Y-12511744D01*
X10778540Y-12700000D01*
X10398514Y-12700000D01*
X10384533Y-12675784D01*
X10257871Y-12535112D01*
X10225708Y-12511744D01*
X10104734Y-12423851D01*
X10104729Y-12423848D01*
X9931807Y-12346857D01*
X9931802Y-12346855D01*
X9786000Y-12315865D01*
X9746646Y-12307500D01*
X9557354Y-12307500D01*
X9524897Y-12314398D01*
X9372197Y-12346855D01*
X9372192Y-12346857D01*
X9199270Y-12423848D01*
X9199265Y-12423851D01*
X9046129Y-12535111D01*
X8919466Y-12675785D01*
X8824821Y-12839715D01*
X8824818Y-12839722D01*
X8770078Y-13008197D01*
X8766326Y-13019744D01*
X8765072Y-13031677D01*
X8759320Y-13086400D01*
X8732734Y-13151015D01*
X8675436Y-13190998D01*
X8605617Y-13193657D01*
X8545444Y-13158147D01*
X8514022Y-13095742D01*
X8512682Y-13086431D01*
X8505674Y-13019744D01*
X8447179Y-12839716D01*
X8352533Y-12675784D01*
X8225871Y-12535112D01*
X8193708Y-12511744D01*
X8072734Y-12423851D01*
X8072729Y-12423848D01*
X7899807Y-12346857D01*
X7899802Y-12346855D01*
X7754000Y-12315865D01*
X7714646Y-12307500D01*
X7525354Y-12307500D01*
X7492897Y-12314398D01*
X7340197Y-12346855D01*
X7340192Y-12346857D01*
X7167270Y-12423848D01*
X7167265Y-12423851D01*
X7014129Y-12535111D01*
X6887465Y-12675785D01*
X6840025Y-12757955D01*
X6789458Y-12806171D01*
X6720851Y-12819393D01*
X6706861Y-12817246D01*
X6703960Y-12816629D01*
X6698646Y-12815500D01*
X6509354Y-12815500D01*
X6501140Y-12817246D01*
X6324197Y-12854855D01*
X6324192Y-12854857D01*
X6151270Y-12931848D01*
X6151265Y-12931851D01*
X5998129Y-13043111D01*
X5871465Y-13183785D01*
X5824025Y-13265955D01*
X5773458Y-13314171D01*
X5704851Y-13327393D01*
X5690861Y-13325246D01*
X5686231Y-13324262D01*
X5682646Y-13323500D01*
X5493354Y-13323500D01*
X5475039Y-13327393D01*
X5308197Y-13362855D01*
X5308192Y-13362857D01*
X5135270Y-13439848D01*
X5135265Y-13439851D01*
X4982129Y-13551111D01*
X4855466Y-13691785D01*
X4760821Y-13855715D01*
X4760818Y-13855722D01*
X4703338Y-14032628D01*
X4702326Y-14035744D01*
X4682540Y-14224000D01*
X3794514Y-14224000D01*
X3875179Y-14084284D01*
X3933674Y-13904256D01*
X3953460Y-13716000D01*
X3933674Y-13527744D01*
X3875179Y-13347716D01*
X3780533Y-13183784D01*
X3653871Y-13043112D01*
X3621708Y-13019744D01*
X3500734Y-12931851D01*
X3500729Y-12931848D01*
X3327807Y-12854857D01*
X3327802Y-12854855D01*
X3150860Y-12817246D01*
X3142646Y-12815500D01*
X2953354Y-12815500D01*
X2945140Y-12817246D01*
X2768197Y-12854855D01*
X2768192Y-12854857D01*
X2595270Y-12931848D01*
X2595265Y-12931851D01*
X2442129Y-13043111D01*
X2315466Y-13183785D01*
X2220821Y-13347715D01*
X2220818Y-13347722D01*
X2176945Y-13482751D01*
X2162326Y-13527744D01*
X2142540Y-13716000D01*
X254000Y-13716000D01*
X254000Y-11176000D01*
X2396540Y-11176000D01*
X2416326Y-11364256D01*
X2416327Y-11364259D01*
X2474818Y-11544277D01*
X2474820Y-11544282D01*
X2474821Y-11544284D01*
X2569467Y-11708216D01*
X2651660Y-11799500D01*
X2696129Y-11848888D01*
X2849265Y-11960148D01*
X2849270Y-11960151D01*
X3022192Y-12037142D01*
X3022197Y-12037144D01*
X3207354Y-12076500D01*
X3207355Y-12076500D01*
X3396644Y-12076500D01*
X3396646Y-12076500D01*
X3581803Y-12037144D01*
X3754730Y-11960151D01*
X3907871Y-11848888D01*
X4034533Y-11708216D01*
X4129179Y-11544284D01*
X4187674Y-11364256D01*
X4207460Y-11176000D01*
X12556540Y-11176000D01*
X12576326Y-11364256D01*
X12576327Y-11364259D01*
X12634818Y-11544277D01*
X12634820Y-11544282D01*
X12634821Y-11544284D01*
X12729467Y-11708216D01*
X12811660Y-11799500D01*
X12856129Y-11848888D01*
X13009265Y-11960148D01*
X13009270Y-11960151D01*
X13182192Y-12037142D01*
X13182197Y-12037144D01*
X13367354Y-12076500D01*
X13367355Y-12076500D01*
X13556644Y-12076500D01*
X13556646Y-12076500D01*
X13741803Y-12037144D01*
X13914730Y-11960151D01*
X14067871Y-11848888D01*
X14194533Y-11708216D01*
X14289179Y-11544284D01*
X14347674Y-11364256D01*
X14367460Y-11176000D01*
X22716540Y-11176000D01*
X22736326Y-11364256D01*
X22736327Y-11364259D01*
X22794818Y-11544277D01*
X22794820Y-11544282D01*
X22794821Y-11544284D01*
X22889467Y-11708216D01*
X22971660Y-11799500D01*
X23016129Y-11848888D01*
X23169265Y-11960148D01*
X23169270Y-11960151D01*
X23342192Y-12037142D01*
X23342197Y-12037144D01*
X23527354Y-12076500D01*
X23527355Y-12076500D01*
X23716644Y-12076500D01*
X23716646Y-12076500D01*
X23901803Y-12037144D01*
X24074730Y-11960151D01*
X24227871Y-11848888D01*
X24354533Y-11708216D01*
X24449179Y-11544284D01*
X24507674Y-11364256D01*
X24527460Y-11176000D01*
X32876540Y-11176000D01*
X32896326Y-11364256D01*
X32896327Y-11364259D01*
X32954818Y-11544277D01*
X32954820Y-11544282D01*
X32954821Y-11544284D01*
X33049467Y-11708216D01*
X33131660Y-11799500D01*
X33176129Y-11848888D01*
X33329265Y-11960148D01*
X33329270Y-11960151D01*
X33502192Y-12037142D01*
X33502197Y-12037144D01*
X33687354Y-12076500D01*
X33687355Y-12076500D01*
X33876644Y-12076500D01*
X33876646Y-12076500D01*
X34061803Y-12037144D01*
X34234730Y-11960151D01*
X34387871Y-11848888D01*
X34514533Y-11708216D01*
X34609179Y-11544284D01*
X34667674Y-11364256D01*
X34687460Y-11176000D01*
X34667674Y-10987744D01*
X34609179Y-10807716D01*
X34514533Y-10643784D01*
X34387871Y-10503112D01*
X34387870Y-10503111D01*
X34234734Y-10391851D01*
X34234729Y-10391848D01*
X34061807Y-10314857D01*
X34061802Y-10314855D01*
X33916001Y-10283865D01*
X33876646Y-10275500D01*
X33687354Y-10275500D01*
X33654897Y-10282398D01*
X33502197Y-10314855D01*
X33502192Y-10314857D01*
X33329270Y-10391848D01*
X33329265Y-10391851D01*
X33176129Y-10503111D01*
X33049466Y-10643785D01*
X32954821Y-10807715D01*
X32954818Y-10807722D01*
X32896327Y-10987740D01*
X32896326Y-10987744D01*
X32876540Y-11176000D01*
X24527460Y-11176000D01*
X24507674Y-10987744D01*
X24449179Y-10807716D01*
X24354533Y-10643784D01*
X24227871Y-10503112D01*
X24227870Y-10503111D01*
X24074734Y-10391851D01*
X24074729Y-10391848D01*
X23901807Y-10314857D01*
X23901802Y-10314855D01*
X23756000Y-10283865D01*
X23716646Y-10275500D01*
X23527354Y-10275500D01*
X23494897Y-10282398D01*
X23342197Y-10314855D01*
X23342192Y-10314857D01*
X23169270Y-10391848D01*
X23169265Y-10391851D01*
X23016129Y-10503111D01*
X22889466Y-10643785D01*
X22794821Y-10807715D01*
X22794818Y-10807722D01*
X22736327Y-10987740D01*
X22736326Y-10987744D01*
X22716540Y-11176000D01*
X14367460Y-11176000D01*
X14347674Y-10987744D01*
X14289179Y-10807716D01*
X14194533Y-10643784D01*
X14067871Y-10503112D01*
X14067870Y-10503111D01*
X13914734Y-10391851D01*
X13914729Y-10391848D01*
X13741807Y-10314857D01*
X13741802Y-10314855D01*
X13596000Y-10283865D01*
X13556646Y-10275500D01*
X13367354Y-10275500D01*
X13334897Y-10282398D01*
X13182197Y-10314855D01*
X13182192Y-10314857D01*
X13009270Y-10391848D01*
X13009265Y-10391851D01*
X12856129Y-10503111D01*
X12729466Y-10643785D01*
X12634821Y-10807715D01*
X12634818Y-10807722D01*
X12576327Y-10987740D01*
X12576326Y-10987744D01*
X12556540Y-11176000D01*
X4207460Y-11176000D01*
X4187674Y-10987744D01*
X4129179Y-10807716D01*
X4034533Y-10643784D01*
X3907871Y-10503112D01*
X3907870Y-10503111D01*
X3754734Y-10391851D01*
X3754729Y-10391848D01*
X3581807Y-10314857D01*
X3581802Y-10314855D01*
X3436001Y-10283865D01*
X3396646Y-10275500D01*
X3207354Y-10275500D01*
X3174897Y-10282398D01*
X3022197Y-10314855D01*
X3022192Y-10314857D01*
X2849270Y-10391848D01*
X2849265Y-10391851D01*
X2696129Y-10503111D01*
X2569466Y-10643785D01*
X2474821Y-10807715D01*
X2474818Y-10807722D01*
X2416327Y-10987740D01*
X2416326Y-10987744D01*
X2396540Y-11176000D01*
X254000Y-11176000D01*
X254000Y-5977870D01*
X1189500Y-5977870D01*
X1189501Y-5977876D01*
X1195908Y-6037483D01*
X1246202Y-6172328D01*
X1246206Y-6172335D01*
X1332452Y-6287544D01*
X1332455Y-6287547D01*
X1447664Y-6373793D01*
X1447671Y-6373797D01*
X1582517Y-6424091D01*
X1582516Y-6424091D01*
X1589444Y-6424835D01*
X1642127Y-6430500D01*
X3437872Y-6430499D01*
X3497483Y-6424091D01*
X3632331Y-6373796D01*
X3747546Y-6287546D01*
X3833796Y-6172331D01*
X3883002Y-6040401D01*
X3924872Y-5984468D01*
X3990337Y-5960050D01*
X4058610Y-5974901D01*
X4086865Y-5996053D01*
X4208917Y-6118105D01*
X4402421Y-6253600D01*
X4616507Y-6353429D01*
X4616516Y-6353433D01*
X4830000Y-6410634D01*
X4830000Y-5515501D01*
X4937685Y-5564680D01*
X5044237Y-5580000D01*
X5115763Y-5580000D01*
X5222315Y-5564680D01*
X5330000Y-5515501D01*
X5330000Y-6410633D01*
X5543483Y-6353433D01*
X5543492Y-6353429D01*
X5757578Y-6253600D01*
X5951082Y-6118105D01*
X6118105Y-5951082D01*
X6248119Y-5765405D01*
X6302696Y-5721781D01*
X6372195Y-5714588D01*
X6434549Y-5746110D01*
X6451269Y-5765405D01*
X6581505Y-5951401D01*
X6748599Y-6118495D01*
X6845384Y-6186265D01*
X6942165Y-6254032D01*
X6942167Y-6254033D01*
X6942170Y-6254035D01*
X7156337Y-6353903D01*
X7384592Y-6415063D01*
X7561034Y-6430500D01*
X7619999Y-6435659D01*
X7620000Y-6435659D01*
X7620001Y-6435659D01*
X7678966Y-6430500D01*
X7855408Y-6415063D01*
X8083663Y-6353903D01*
X8297830Y-6254035D01*
X8491401Y-6118495D01*
X8658495Y-5951401D01*
X8788424Y-5765842D01*
X8843002Y-5722217D01*
X8912500Y-5715023D01*
X8974855Y-5746546D01*
X8991575Y-5765842D01*
X9121500Y-5951395D01*
X9121505Y-5951401D01*
X9288599Y-6118495D01*
X9385384Y-6186265D01*
X9482165Y-6254032D01*
X9482167Y-6254033D01*
X9482170Y-6254035D01*
X9696337Y-6353903D01*
X9924592Y-6415063D01*
X10101034Y-6430500D01*
X10159999Y-6435659D01*
X10160000Y-6435659D01*
X10160001Y-6435659D01*
X10218966Y-6430500D01*
X10395408Y-6415063D01*
X10623663Y-6353903D01*
X10837830Y-6254035D01*
X11031401Y-6118495D01*
X11198495Y-5951401D01*
X11328424Y-5765842D01*
X11383002Y-5722217D01*
X11452500Y-5715023D01*
X11514855Y-5746546D01*
X11531575Y-5765842D01*
X11661500Y-5951395D01*
X11661505Y-5951401D01*
X11828599Y-6118495D01*
X11925384Y-6186265D01*
X12022165Y-6254032D01*
X12022167Y-6254033D01*
X12022170Y-6254035D01*
X12236337Y-6353903D01*
X12464592Y-6415063D01*
X12641034Y-6430500D01*
X12699999Y-6435659D01*
X12700000Y-6435659D01*
X12700001Y-6435659D01*
X12758966Y-6430500D01*
X12935408Y-6415063D01*
X13163663Y-6353903D01*
X13377830Y-6254035D01*
X13571401Y-6118495D01*
X13738495Y-5951401D01*
X13868424Y-5765842D01*
X13923002Y-5722217D01*
X13992500Y-5715023D01*
X14054855Y-5746546D01*
X14071575Y-5765842D01*
X14201500Y-5951395D01*
X14201505Y-5951401D01*
X14368599Y-6118495D01*
X14465384Y-6186265D01*
X14562165Y-6254032D01*
X14562167Y-6254033D01*
X14562170Y-6254035D01*
X14776337Y-6353903D01*
X15004592Y-6415063D01*
X15181034Y-6430500D01*
X15239999Y-6435659D01*
X15240000Y-6435659D01*
X15240001Y-6435659D01*
X15298966Y-6430500D01*
X15475408Y-6415063D01*
X15703663Y-6353903D01*
X15917830Y-6254035D01*
X16111401Y-6118495D01*
X16278495Y-5951401D01*
X16408424Y-5765842D01*
X16463002Y-5722217D01*
X16532500Y-5715023D01*
X16594855Y-5746546D01*
X16611575Y-5765842D01*
X16741500Y-5951395D01*
X16741505Y-5951401D01*
X16908599Y-6118495D01*
X17005384Y-6186264D01*
X17102165Y-6254032D01*
X17102167Y-6254033D01*
X17102170Y-6254035D01*
X17316337Y-6353903D01*
X17544592Y-6415063D01*
X17721034Y-6430500D01*
X17779999Y-6435659D01*
X17780000Y-6435659D01*
X17780001Y-6435659D01*
X17838966Y-6430500D01*
X18015408Y-6415063D01*
X18243663Y-6353903D01*
X18457830Y-6254035D01*
X18651401Y-6118495D01*
X18818495Y-5951401D01*
X18948424Y-5765842D01*
X19003002Y-5722217D01*
X19072500Y-5715023D01*
X19134855Y-5746546D01*
X19151575Y-5765842D01*
X19281500Y-5951395D01*
X19281505Y-5951401D01*
X19448599Y-6118495D01*
X19545384Y-6186264D01*
X19642165Y-6254032D01*
X19642167Y-6254033D01*
X19642170Y-6254035D01*
X19856337Y-6353903D01*
X20084592Y-6415063D01*
X20261034Y-6430500D01*
X20319999Y-6435659D01*
X20320000Y-6435659D01*
X20320001Y-6435659D01*
X20378966Y-6430500D01*
X20555408Y-6415063D01*
X20783663Y-6353903D01*
X20997830Y-6254035D01*
X21191401Y-6118495D01*
X21358495Y-5951401D01*
X21488424Y-5765842D01*
X21543002Y-5722217D01*
X21612500Y-5715023D01*
X21674855Y-5746546D01*
X21691575Y-5765842D01*
X21821500Y-5951395D01*
X21821505Y-5951401D01*
X21988599Y-6118495D01*
X22085384Y-6186264D01*
X22182165Y-6254032D01*
X22182167Y-6254033D01*
X22182170Y-6254035D01*
X22396337Y-6353903D01*
X22624592Y-6415063D01*
X22801034Y-6430500D01*
X22859999Y-6435659D01*
X22860000Y-6435659D01*
X22860001Y-6435659D01*
X22918966Y-6430500D01*
X23095408Y-6415063D01*
X23323663Y-6353903D01*
X23537830Y-6254035D01*
X23731401Y-6118495D01*
X23898495Y-5951401D01*
X24028424Y-5765842D01*
X24083002Y-5722217D01*
X24152500Y-5715023D01*
X24214855Y-5746546D01*
X24231575Y-5765842D01*
X24361500Y-5951395D01*
X24361505Y-5951401D01*
X24528599Y-6118495D01*
X24625384Y-6186264D01*
X24722165Y-6254032D01*
X24722167Y-6254033D01*
X24722170Y-6254035D01*
X24936337Y-6353903D01*
X25164592Y-6415063D01*
X25341034Y-6430500D01*
X25399999Y-6435659D01*
X25400000Y-6435659D01*
X25400001Y-6435659D01*
X25458966Y-6430500D01*
X25635408Y-6415063D01*
X25863663Y-6353903D01*
X26077830Y-6254035D01*
X26271401Y-6118495D01*
X26438495Y-5951401D01*
X26568424Y-5765842D01*
X26623002Y-5722217D01*
X26692500Y-5715023D01*
X26754855Y-5746546D01*
X26771575Y-5765842D01*
X26901500Y-5951395D01*
X26901505Y-5951401D01*
X27068599Y-6118495D01*
X27165384Y-6186264D01*
X27262165Y-6254032D01*
X27262167Y-6254033D01*
X27262170Y-6254035D01*
X27476337Y-6353903D01*
X27704592Y-6415063D01*
X27881034Y-6430500D01*
X27939999Y-6435659D01*
X27940000Y-6435659D01*
X27940001Y-6435659D01*
X27998966Y-6430500D01*
X28175408Y-6415063D01*
X28403663Y-6353903D01*
X28617830Y-6254035D01*
X28811401Y-6118495D01*
X28978495Y-5951401D01*
X29108424Y-5765842D01*
X29163002Y-5722217D01*
X29232500Y-5715023D01*
X29294855Y-5746546D01*
X29311575Y-5765842D01*
X29441500Y-5951395D01*
X29441505Y-5951401D01*
X29608599Y-6118495D01*
X29705384Y-6186264D01*
X29802165Y-6254032D01*
X29802167Y-6254033D01*
X29802170Y-6254035D01*
X30016337Y-6353903D01*
X30244592Y-6415063D01*
X30421034Y-6430500D01*
X30479999Y-6435659D01*
X30480000Y-6435659D01*
X30480001Y-6435659D01*
X30538966Y-6430500D01*
X30715408Y-6415063D01*
X30943663Y-6353903D01*
X31157830Y-6254035D01*
X31351401Y-6118495D01*
X31518495Y-5951401D01*
X31648424Y-5765842D01*
X31703002Y-5722217D01*
X31772500Y-5715023D01*
X31834855Y-5746546D01*
X31851575Y-5765842D01*
X31981500Y-5951395D01*
X31981505Y-5951401D01*
X32148599Y-6118495D01*
X32245384Y-6186264D01*
X32342165Y-6254032D01*
X32342167Y-6254033D01*
X32342170Y-6254035D01*
X32556337Y-6353903D01*
X32784592Y-6415063D01*
X32961034Y-6430500D01*
X33019999Y-6435659D01*
X33020000Y-6435659D01*
X33020001Y-6435659D01*
X33078966Y-6430500D01*
X33255408Y-6415063D01*
X33483663Y-6353903D01*
X33697830Y-6254035D01*
X33891401Y-6118495D01*
X34058495Y-5951401D01*
X34188424Y-5765842D01*
X34243002Y-5722217D01*
X34312500Y-5715023D01*
X34374855Y-5746546D01*
X34391575Y-5765842D01*
X34521500Y-5951395D01*
X34521505Y-5951401D01*
X34688599Y-6118495D01*
X34785384Y-6186264D01*
X34882165Y-6254032D01*
X34882167Y-6254033D01*
X34882170Y-6254035D01*
X35096337Y-6353903D01*
X35324592Y-6415063D01*
X35501034Y-6430500D01*
X35559999Y-6435659D01*
X35560000Y-6435659D01*
X35560001Y-6435659D01*
X35618966Y-6430500D01*
X35795408Y-6415063D01*
X36023663Y-6353903D01*
X36237830Y-6254035D01*
X36431401Y-6118495D01*
X36598495Y-5951401D01*
X36728730Y-5765405D01*
X36783307Y-5721781D01*
X36852805Y-5714587D01*
X36915160Y-5746110D01*
X36931879Y-5765405D01*
X37061890Y-5951078D01*
X37228917Y-6118105D01*
X37422421Y-6253600D01*
X37636507Y-6353429D01*
X37636516Y-6353433D01*
X37850000Y-6410634D01*
X37850000Y-5515501D01*
X37957685Y-5564680D01*
X38064237Y-5580000D01*
X38135763Y-5580000D01*
X38242315Y-5564680D01*
X38350000Y-5515501D01*
X38350000Y-6410633D01*
X38563483Y-6353433D01*
X38563492Y-6353429D01*
X38777578Y-6253600D01*
X38971082Y-6118105D01*
X39138105Y-5951082D01*
X39268119Y-5765405D01*
X39322696Y-5721781D01*
X39392195Y-5714588D01*
X39454549Y-5746110D01*
X39471269Y-5765405D01*
X39601505Y-5951401D01*
X39768599Y-6118495D01*
X39865384Y-6186264D01*
X39962165Y-6254032D01*
X39962167Y-6254033D01*
X39962170Y-6254035D01*
X40176337Y-6353903D01*
X40404592Y-6415063D01*
X40581034Y-6430500D01*
X40639999Y-6435659D01*
X40640000Y-6435659D01*
X40640001Y-6435659D01*
X40698966Y-6430500D01*
X40875408Y-6415063D01*
X41103663Y-6353903D01*
X41317830Y-6254035D01*
X41511401Y-6118495D01*
X41678495Y-5951401D01*
X41808424Y-5765842D01*
X41863002Y-5722217D01*
X41932500Y-5715023D01*
X41994855Y-5746546D01*
X42011575Y-5765842D01*
X42141500Y-5951395D01*
X42141505Y-5951401D01*
X42308599Y-6118495D01*
X42405384Y-6186265D01*
X42502165Y-6254032D01*
X42502167Y-6254033D01*
X42502170Y-6254035D01*
X42716337Y-6353903D01*
X42944592Y-6415063D01*
X43121034Y-6430500D01*
X43179999Y-6435659D01*
X43180000Y-6435659D01*
X43180001Y-6435659D01*
X43238966Y-6430500D01*
X43415408Y-6415063D01*
X43643663Y-6353903D01*
X43857830Y-6254035D01*
X44051401Y-6118495D01*
X44218495Y-5951401D01*
X44348424Y-5765842D01*
X44403002Y-5722217D01*
X44472500Y-5715023D01*
X44534855Y-5746546D01*
X44551575Y-5765842D01*
X44681500Y-5951395D01*
X44681505Y-5951401D01*
X44848599Y-6118495D01*
X44945384Y-6186265D01*
X45042165Y-6254032D01*
X45042167Y-6254033D01*
X45042170Y-6254035D01*
X45256337Y-6353903D01*
X45484592Y-6415063D01*
X45661034Y-6430500D01*
X45719999Y-6435659D01*
X45720000Y-6435659D01*
X45720001Y-6435659D01*
X45778966Y-6430500D01*
X45955408Y-6415063D01*
X46183663Y-6353903D01*
X46397830Y-6254035D01*
X46591401Y-6118495D01*
X46758495Y-5951401D01*
X46888424Y-5765842D01*
X46943002Y-5722217D01*
X47012500Y-5715023D01*
X47074855Y-5746546D01*
X47091575Y-5765842D01*
X47221500Y-5951395D01*
X47221505Y-5951401D01*
X47388599Y-6118495D01*
X47485384Y-6186265D01*
X47582165Y-6254032D01*
X47582167Y-6254033D01*
X47582170Y-6254035D01*
X47796337Y-6353903D01*
X48024592Y-6415063D01*
X48201034Y-6430500D01*
X48259999Y-6435659D01*
X48260000Y-6435659D01*
X48260001Y-6435659D01*
X48318966Y-6430500D01*
X48495408Y-6415063D01*
X48723663Y-6353903D01*
X48937830Y-6254035D01*
X49131401Y-6118495D01*
X49298495Y-5951401D01*
X49428424Y-5765842D01*
X49483002Y-5722217D01*
X49552500Y-5715023D01*
X49614855Y-5746546D01*
X49631575Y-5765842D01*
X49761500Y-5951395D01*
X49761505Y-5951401D01*
X49928599Y-6118495D01*
X50025384Y-6186265D01*
X50122165Y-6254032D01*
X50122167Y-6254033D01*
X50122170Y-6254035D01*
X50336337Y-6353903D01*
X50564592Y-6415063D01*
X50741034Y-6430500D01*
X50799999Y-6435659D01*
X50800000Y-6435659D01*
X50800001Y-6435659D01*
X50858966Y-6430500D01*
X51035408Y-6415063D01*
X51263663Y-6353903D01*
X51477830Y-6254035D01*
X51671401Y-6118495D01*
X51838495Y-5951401D01*
X51974035Y-5757830D01*
X52073903Y-5543663D01*
X52135063Y-5315408D01*
X52155659Y-5080000D01*
X52135063Y-4844592D01*
X52073903Y-4616337D01*
X51974035Y-4402171D01*
X51968731Y-4394595D01*
X51838494Y-4208597D01*
X51671402Y-4041506D01*
X51671396Y-4041501D01*
X51485842Y-3911575D01*
X51442217Y-3856998D01*
X51435023Y-3787500D01*
X51466546Y-3725145D01*
X51485842Y-3708425D01*
X51594515Y-3632331D01*
X51671401Y-3578495D01*
X51838495Y-3411401D01*
X51974035Y-3217830D01*
X52073903Y-3003663D01*
X52135063Y-2775408D01*
X52155659Y-2540000D01*
X52135063Y-2304592D01*
X52073903Y-2076337D01*
X51974035Y-1862171D01*
X51968731Y-1854595D01*
X51838494Y-1668597D01*
X51671402Y-1501506D01*
X51671395Y-1501501D01*
X51477834Y-1365967D01*
X51477830Y-1365965D01*
X51477828Y-1365964D01*
X51263663Y-1266097D01*
X51263659Y-1266096D01*
X51263655Y-1266094D01*
X51035413Y-1204938D01*
X51035403Y-1204936D01*
X50800001Y-1184341D01*
X50799999Y-1184341D01*
X50564596Y-1204936D01*
X50564586Y-1204938D01*
X50336344Y-1266094D01*
X50336335Y-1266098D01*
X50122171Y-1365964D01*
X50122169Y-1365965D01*
X49928597Y-1501505D01*
X49761505Y-1668597D01*
X49631575Y-1854158D01*
X49576998Y-1897783D01*
X49507500Y-1904977D01*
X49445145Y-1873454D01*
X49428425Y-1854158D01*
X49298494Y-1668597D01*
X49131402Y-1501506D01*
X49131395Y-1501501D01*
X48937834Y-1365967D01*
X48937830Y-1365965D01*
X48937828Y-1365964D01*
X48723663Y-1266097D01*
X48723659Y-1266096D01*
X48723655Y-1266094D01*
X48495413Y-1204938D01*
X48495403Y-1204936D01*
X48260001Y-1184341D01*
X48259999Y-1184341D01*
X48024596Y-1204936D01*
X48024586Y-1204938D01*
X47796344Y-1266094D01*
X47796335Y-1266098D01*
X47582171Y-1365964D01*
X47582169Y-1365965D01*
X47388597Y-1501505D01*
X47221505Y-1668597D01*
X47091575Y-1854158D01*
X47036998Y-1897783D01*
X46967500Y-1904977D01*
X46905145Y-1873454D01*
X46888425Y-1854158D01*
X46758494Y-1668597D01*
X46591402Y-1501506D01*
X46591395Y-1501501D01*
X46397834Y-1365967D01*
X46397830Y-1365965D01*
X46397828Y-1365964D01*
X46183663Y-1266097D01*
X46183659Y-1266096D01*
X46183655Y-1266094D01*
X45955413Y-1204938D01*
X45955403Y-1204936D01*
X45720001Y-1184341D01*
X45719999Y-1184341D01*
X45484596Y-1204936D01*
X45484586Y-1204938D01*
X45256344Y-1266094D01*
X45256335Y-1266098D01*
X45042171Y-1365964D01*
X45042169Y-1365965D01*
X44848597Y-1501505D01*
X44681505Y-1668597D01*
X44551575Y-1854158D01*
X44496998Y-1897783D01*
X44427500Y-1904977D01*
X44365145Y-1873454D01*
X44348425Y-1854158D01*
X44218494Y-1668597D01*
X44051402Y-1501506D01*
X44051395Y-1501501D01*
X43857834Y-1365967D01*
X43857830Y-1365965D01*
X43857828Y-1365964D01*
X43643663Y-1266097D01*
X43643659Y-1266096D01*
X43643655Y-1266094D01*
X43415413Y-1204938D01*
X43415403Y-1204936D01*
X43180001Y-1184341D01*
X43179999Y-1184341D01*
X42944596Y-1204936D01*
X42944586Y-1204938D01*
X42716344Y-1266094D01*
X42716335Y-1266098D01*
X42502171Y-1365964D01*
X42502169Y-1365965D01*
X42308597Y-1501505D01*
X42141505Y-1668597D01*
X42011575Y-1854158D01*
X41956998Y-1897783D01*
X41887500Y-1904977D01*
X41825145Y-1873454D01*
X41808425Y-1854158D01*
X41678494Y-1668597D01*
X41511402Y-1501506D01*
X41511395Y-1501501D01*
X41317834Y-1365967D01*
X41317830Y-1365965D01*
X41317828Y-1365964D01*
X41103663Y-1266097D01*
X41103659Y-1266096D01*
X41103655Y-1266094D01*
X40875413Y-1204938D01*
X40875403Y-1204936D01*
X40640001Y-1184341D01*
X40639999Y-1184341D01*
X40404596Y-1204936D01*
X40404586Y-1204938D01*
X40176344Y-1266094D01*
X40176335Y-1266098D01*
X39962171Y-1365964D01*
X39962169Y-1365965D01*
X39768597Y-1501505D01*
X39601508Y-1668594D01*
X39471269Y-1854595D01*
X39416692Y-1898219D01*
X39347193Y-1905412D01*
X39284839Y-1873890D01*
X39268119Y-1854594D01*
X39138113Y-1668926D01*
X39138108Y-1668920D01*
X38971082Y-1501894D01*
X38777578Y-1366399D01*
X38563492Y-1266570D01*
X38563486Y-1266567D01*
X38350000Y-1209364D01*
X38350000Y-2104498D01*
X38242315Y-2055320D01*
X38135763Y-2040000D01*
X38064237Y-2040000D01*
X37957685Y-2055320D01*
X37850000Y-2104498D01*
X37850000Y-1209364D01*
X37849999Y-1209364D01*
X37636513Y-1266567D01*
X37636507Y-1266570D01*
X37422422Y-1366399D01*
X37422420Y-1366400D01*
X37228926Y-1501886D01*
X37228920Y-1501891D01*
X37061891Y-1668920D01*
X37061890Y-1668922D01*
X36931880Y-1854595D01*
X36877303Y-1898219D01*
X36807804Y-1905412D01*
X36745450Y-1873890D01*
X36728730Y-1854594D01*
X36598494Y-1668597D01*
X36431402Y-1501506D01*
X36431395Y-1501501D01*
X36237834Y-1365967D01*
X36237830Y-1365965D01*
X36237828Y-1365964D01*
X36023663Y-1266097D01*
X36023659Y-1266096D01*
X36023655Y-1266094D01*
X35795413Y-1204938D01*
X35795403Y-1204936D01*
X35560001Y-1184341D01*
X35559999Y-1184341D01*
X35324596Y-1204936D01*
X35324586Y-1204938D01*
X35096344Y-1266094D01*
X35096335Y-1266098D01*
X34882171Y-1365964D01*
X34882169Y-1365965D01*
X34688597Y-1501505D01*
X34521505Y-1668597D01*
X34391575Y-1854158D01*
X34336998Y-1897783D01*
X34267500Y-1904977D01*
X34205145Y-1873454D01*
X34188425Y-1854158D01*
X34058494Y-1668597D01*
X33891402Y-1501506D01*
X33891395Y-1501501D01*
X33697834Y-1365967D01*
X33697830Y-1365965D01*
X33697828Y-1365964D01*
X33483663Y-1266097D01*
X33483659Y-1266096D01*
X33483655Y-1266094D01*
X33255413Y-1204938D01*
X33255403Y-1204936D01*
X33020001Y-1184341D01*
X33019999Y-1184341D01*
X32784596Y-1204936D01*
X32784586Y-1204938D01*
X32556344Y-1266094D01*
X32556335Y-1266098D01*
X32342171Y-1365964D01*
X32342169Y-1365965D01*
X32148597Y-1501505D01*
X31981505Y-1668597D01*
X31851575Y-1854158D01*
X31796998Y-1897783D01*
X31727500Y-1904977D01*
X31665145Y-1873454D01*
X31648425Y-1854158D01*
X31518494Y-1668597D01*
X31351402Y-1501506D01*
X31351395Y-1501501D01*
X31157834Y-1365967D01*
X31157830Y-1365965D01*
X31157829Y-1365964D01*
X30943663Y-1266097D01*
X30943659Y-1266096D01*
X30943655Y-1266094D01*
X30715413Y-1204938D01*
X30715403Y-1204936D01*
X30480001Y-1184341D01*
X30479999Y-1184341D01*
X30244596Y-1204936D01*
X30244586Y-1204938D01*
X30016344Y-1266094D01*
X30016335Y-1266098D01*
X29802171Y-1365964D01*
X29802169Y-1365965D01*
X29608597Y-1501505D01*
X29441508Y-1668594D01*
X29311574Y-1854159D01*
X29256997Y-1897784D01*
X29187498Y-1904976D01*
X29125144Y-1873454D01*
X29108424Y-1854158D01*
X28978494Y-1668597D01*
X28811402Y-1501506D01*
X28811395Y-1501501D01*
X28617834Y-1365967D01*
X28617830Y-1365965D01*
X28617829Y-1365964D01*
X28403663Y-1266097D01*
X28403659Y-1266096D01*
X28403655Y-1266094D01*
X28175413Y-1204938D01*
X28175403Y-1204936D01*
X27940001Y-1184341D01*
X27939999Y-1184341D01*
X27704596Y-1204936D01*
X27704586Y-1204938D01*
X27476344Y-1266094D01*
X27476335Y-1266098D01*
X27262171Y-1365964D01*
X27262169Y-1365965D01*
X27068597Y-1501505D01*
X26901505Y-1668597D01*
X26771575Y-1854158D01*
X26716998Y-1897783D01*
X26647500Y-1904977D01*
X26585145Y-1873454D01*
X26568425Y-1854158D01*
X26438494Y-1668597D01*
X26271402Y-1501506D01*
X26271395Y-1501501D01*
X26077834Y-1365967D01*
X26077830Y-1365965D01*
X26077830Y-1365964D01*
X25863663Y-1266097D01*
X25863659Y-1266096D01*
X25863655Y-1266094D01*
X25635413Y-1204938D01*
X25635403Y-1204936D01*
X25400001Y-1184341D01*
X25399999Y-1184341D01*
X25164596Y-1204936D01*
X25164586Y-1204938D01*
X24936344Y-1266094D01*
X24936335Y-1266098D01*
X24722171Y-1365964D01*
X24722169Y-1365965D01*
X24528597Y-1501505D01*
X24361505Y-1668597D01*
X24231575Y-1854158D01*
X24176998Y-1897783D01*
X24107500Y-1904977D01*
X24045145Y-1873454D01*
X24028425Y-1854158D01*
X23898494Y-1668597D01*
X23731402Y-1501506D01*
X23731395Y-1501501D01*
X23537834Y-1365967D01*
X23537830Y-1365965D01*
X23537829Y-1365964D01*
X23323663Y-1266097D01*
X23323659Y-1266096D01*
X23323655Y-1266094D01*
X23095413Y-1204938D01*
X23095403Y-1204936D01*
X22860001Y-1184341D01*
X22859999Y-1184341D01*
X22624596Y-1204936D01*
X22624586Y-1204938D01*
X22396344Y-1266094D01*
X22396335Y-1266098D01*
X22182171Y-1365964D01*
X22182169Y-1365965D01*
X21988597Y-1501505D01*
X21821505Y-1668597D01*
X21691575Y-1854158D01*
X21636998Y-1897783D01*
X21567500Y-1904977D01*
X21505145Y-1873454D01*
X21488425Y-1854158D01*
X21358494Y-1668597D01*
X21191402Y-1501506D01*
X21191395Y-1501501D01*
X20997834Y-1365967D01*
X20997830Y-1365965D01*
X20997830Y-1365964D01*
X20783663Y-1266097D01*
X20783659Y-1266096D01*
X20783655Y-1266094D01*
X20555413Y-1204938D01*
X20555403Y-1204936D01*
X20320001Y-1184341D01*
X20319999Y-1184341D01*
X20084596Y-1204936D01*
X20084586Y-1204938D01*
X19856344Y-1266094D01*
X19856335Y-1266098D01*
X19642171Y-1365964D01*
X19642169Y-1365965D01*
X19448597Y-1501505D01*
X19281505Y-1668597D01*
X19151575Y-1854158D01*
X19096998Y-1897783D01*
X19027500Y-1904977D01*
X18965145Y-1873454D01*
X18948425Y-1854158D01*
X18818494Y-1668597D01*
X18651402Y-1501506D01*
X18651395Y-1501501D01*
X18457834Y-1365967D01*
X18457830Y-1365965D01*
X18457829Y-1365964D01*
X18243663Y-1266097D01*
X18243659Y-1266096D01*
X18243655Y-1266094D01*
X18015413Y-1204938D01*
X18015403Y-1204936D01*
X17780001Y-1184341D01*
X17779999Y-1184341D01*
X17544596Y-1204936D01*
X17544586Y-1204938D01*
X17316344Y-1266094D01*
X17316335Y-1266098D01*
X17102171Y-1365964D01*
X17102169Y-1365965D01*
X16908597Y-1501505D01*
X16741508Y-1668594D01*
X16611574Y-1854159D01*
X16556997Y-1897784D01*
X16487498Y-1904976D01*
X16425144Y-1873454D01*
X16408424Y-1854158D01*
X16278494Y-1668597D01*
X16111402Y-1501506D01*
X16111395Y-1501501D01*
X15917834Y-1365967D01*
X15917830Y-1365965D01*
X15917828Y-1365964D01*
X15703663Y-1266097D01*
X15703659Y-1266096D01*
X15703655Y-1266094D01*
X15475413Y-1204938D01*
X15475403Y-1204936D01*
X15240001Y-1184341D01*
X15239999Y-1184341D01*
X15004596Y-1204936D01*
X15004586Y-1204938D01*
X14776344Y-1266094D01*
X14776335Y-1266098D01*
X14562171Y-1365964D01*
X14562169Y-1365965D01*
X14368597Y-1501505D01*
X14201505Y-1668597D01*
X14071575Y-1854158D01*
X14016998Y-1897783D01*
X13947500Y-1904977D01*
X13885145Y-1873454D01*
X13868425Y-1854158D01*
X13738494Y-1668597D01*
X13571402Y-1501506D01*
X13571395Y-1501501D01*
X13377834Y-1365967D01*
X13377830Y-1365965D01*
X13377828Y-1365964D01*
X13163663Y-1266097D01*
X13163659Y-1266096D01*
X13163655Y-1266094D01*
X12935413Y-1204938D01*
X12935403Y-1204936D01*
X12700001Y-1184341D01*
X12699999Y-1184341D01*
X12464596Y-1204936D01*
X12464586Y-1204938D01*
X12236344Y-1266094D01*
X12236335Y-1266098D01*
X12022171Y-1365964D01*
X12022169Y-1365965D01*
X11828597Y-1501505D01*
X11661508Y-1668594D01*
X11531574Y-1854159D01*
X11476997Y-1897784D01*
X11407498Y-1904976D01*
X11345144Y-1873454D01*
X11328424Y-1854158D01*
X11198494Y-1668597D01*
X11031402Y-1501506D01*
X11031395Y-1501501D01*
X10837834Y-1365967D01*
X10837830Y-1365965D01*
X10837828Y-1365964D01*
X10623663Y-1266097D01*
X10623659Y-1266096D01*
X10623655Y-1266094D01*
X10395413Y-1204938D01*
X10395403Y-1204936D01*
X10160001Y-1184341D01*
X10159999Y-1184341D01*
X9924596Y-1204936D01*
X9924586Y-1204938D01*
X9696344Y-1266094D01*
X9696335Y-1266098D01*
X9482171Y-1365964D01*
X9482169Y-1365965D01*
X9288597Y-1501505D01*
X9121505Y-1668597D01*
X8991575Y-1854158D01*
X8936998Y-1897783D01*
X8867500Y-1904977D01*
X8805145Y-1873454D01*
X8788425Y-1854158D01*
X8658494Y-1668597D01*
X8491402Y-1501506D01*
X8491395Y-1501501D01*
X8297834Y-1365967D01*
X8297830Y-1365965D01*
X8297828Y-1365964D01*
X8083663Y-1266097D01*
X8083659Y-1266096D01*
X8083655Y-1266094D01*
X7855413Y-1204938D01*
X7855403Y-1204936D01*
X7620001Y-1184341D01*
X7619999Y-1184341D01*
X7384596Y-1204936D01*
X7384586Y-1204938D01*
X7156344Y-1266094D01*
X7156335Y-1266098D01*
X6942171Y-1365964D01*
X6942169Y-1365965D01*
X6748597Y-1501505D01*
X6581508Y-1668594D01*
X6451269Y-1854595D01*
X6396692Y-1898219D01*
X6327193Y-1905412D01*
X6264839Y-1873890D01*
X6248119Y-1854594D01*
X6118113Y-1668926D01*
X6118108Y-1668920D01*
X5951082Y-1501894D01*
X5757578Y-1366399D01*
X5543492Y-1266570D01*
X5543486Y-1266567D01*
X5330000Y-1209364D01*
X5330000Y-2104498D01*
X5222315Y-2055320D01*
X5115763Y-2040000D01*
X5044237Y-2040000D01*
X4937685Y-2055320D01*
X4830000Y-2104498D01*
X4830000Y-1209364D01*
X4829999Y-1209364D01*
X4616513Y-1266567D01*
X4616507Y-1266570D01*
X4402422Y-1366399D01*
X4402420Y-1366400D01*
X4208926Y-1501886D01*
X4086865Y-1623947D01*
X4025542Y-1657431D01*
X3955850Y-1652447D01*
X3899917Y-1610575D01*
X3883002Y-1579598D01*
X3833797Y-1447671D01*
X3833793Y-1447664D01*
X3747547Y-1332455D01*
X3747544Y-1332452D01*
X3632335Y-1246206D01*
X3632328Y-1246202D01*
X3497482Y-1195908D01*
X3497483Y-1195908D01*
X3437883Y-1189501D01*
X3437881Y-1189500D01*
X3437873Y-1189500D01*
X3437864Y-1189500D01*
X1642129Y-1189500D01*
X1642123Y-1189501D01*
X1582516Y-1195908D01*
X1447671Y-1246202D01*
X1447664Y-1246206D01*
X1332455Y-1332452D01*
X1332452Y-1332455D01*
X1246206Y-1447664D01*
X1246202Y-1447671D01*
X1195908Y-1582517D01*
X1189501Y-1642116D01*
X1189500Y-1642135D01*
X1189500Y-3437870D01*
X1189501Y-3437876D01*
X1195908Y-3497483D01*
X1246202Y-3632328D01*
X1246203Y-3632330D01*
X1323578Y-3735689D01*
X1347995Y-3801153D01*
X1333144Y-3869426D01*
X1323578Y-3884311D01*
X1246203Y-3987669D01*
X1246202Y-3987671D01*
X1195908Y-4122517D01*
X1189501Y-4182116D01*
X1189500Y-4182135D01*
X1189500Y-5977870D01*
X254000Y-5977870D01*
X254000Y-1321361D01*
X273685Y-1254322D01*
X290314Y-1233685D01*
X1233681Y-290319D01*
X1295004Y-256834D01*
X1321362Y-254000D01*
X52262000Y-254000D01*
X52329039Y-273685D01*
G37*
%TD.AperFunction*%
%TD*%
M02*
