%TF.GenerationSoftware,KiCad,Pcbnew,7.0.6*%
%TF.CreationDate,2023-07-11T11:54:07+09:00*%
%TF.ProjectId,TangNano5V,54616e67-4e61-46e6-9f35-562e6b696361,rev?*%
%TF.SameCoordinates,Original*%
%TF.FileFunction,Legend,Top*%
%TF.FilePolarity,Positive*%
%FSLAX46Y46*%
G04 Gerber Fmt 4.6, Leading zero omitted, Abs format (unit mm)*
G04 Created by KiCad (PCBNEW 7.0.6) date 2023-07-11 11:54:07*
%MOMM*%
%LPD*%
G01*
G04 APERTURE LIST*
%ADD10C,0.120000*%
%ADD11C,0.150000*%
%ADD12C,0.200000*%
%ADD13C,0.100000*%
%ADD14C,0.152400*%
G04 APERTURE END LIST*
D10*
X9603899Y-639331D02*
X9508661Y-596474D01*
X9508661Y-596474D02*
X9461042Y-553617D01*
X9461042Y-553617D02*
X9413423Y-467902D01*
X9413423Y-467902D02*
X9413423Y-425045D01*
X9413423Y-425045D02*
X9461042Y-339331D01*
X9461042Y-339331D02*
X9508661Y-296474D01*
X9508661Y-296474D02*
X9603899Y-253617D01*
X9603899Y-253617D02*
X9794375Y-253617D01*
X9794375Y-253617D02*
X9889613Y-296474D01*
X9889613Y-296474D02*
X9937232Y-339331D01*
X9937232Y-339331D02*
X9984851Y-425045D01*
X9984851Y-425045D02*
X9984851Y-467902D01*
X9984851Y-467902D02*
X9937232Y-553617D01*
X9937232Y-553617D02*
X9889613Y-596474D01*
X9889613Y-596474D02*
X9794375Y-639331D01*
X9794375Y-639331D02*
X9603899Y-639331D01*
X9603899Y-639331D02*
X9508661Y-682188D01*
X9508661Y-682188D02*
X9461042Y-725045D01*
X9461042Y-725045D02*
X9413423Y-810760D01*
X9413423Y-810760D02*
X9413423Y-982188D01*
X9413423Y-982188D02*
X9461042Y-1067902D01*
X9461042Y-1067902D02*
X9508661Y-1110760D01*
X9508661Y-1110760D02*
X9603899Y-1153617D01*
X9603899Y-1153617D02*
X9794375Y-1153617D01*
X9794375Y-1153617D02*
X9889613Y-1110760D01*
X9889613Y-1110760D02*
X9937232Y-1067902D01*
X9937232Y-1067902D02*
X9984851Y-982188D01*
X9984851Y-982188D02*
X9984851Y-810760D01*
X9984851Y-810760D02*
X9937232Y-725045D01*
X9937232Y-725045D02*
X9889613Y-682188D01*
X9889613Y-682188D02*
X9794375Y-639331D01*
X10603899Y-253617D02*
X10699137Y-253617D01*
X10699137Y-253617D02*
X10794375Y-296474D01*
X10794375Y-296474D02*
X10841994Y-339331D01*
X10841994Y-339331D02*
X10889613Y-425045D01*
X10889613Y-425045D02*
X10937232Y-596474D01*
X10937232Y-596474D02*
X10937232Y-810760D01*
X10937232Y-810760D02*
X10889613Y-982188D01*
X10889613Y-982188D02*
X10841994Y-1067902D01*
X10841994Y-1067902D02*
X10794375Y-1110760D01*
X10794375Y-1110760D02*
X10699137Y-1153617D01*
X10699137Y-1153617D02*
X10603899Y-1153617D01*
X10603899Y-1153617D02*
X10508661Y-1110760D01*
X10508661Y-1110760D02*
X10461042Y-1067902D01*
X10461042Y-1067902D02*
X10413423Y-982188D01*
X10413423Y-982188D02*
X10365804Y-810760D01*
X10365804Y-810760D02*
X10365804Y-596474D01*
X10365804Y-596474D02*
X10413423Y-425045D01*
X10413423Y-425045D02*
X10461042Y-339331D01*
X10461042Y-339331D02*
X10508661Y-296474D01*
X10508661Y-296474D02*
X10603899Y-253617D01*
X20097232Y-253617D02*
X19621042Y-253617D01*
X19621042Y-253617D02*
X19573423Y-682188D01*
X19573423Y-682188D02*
X19621042Y-639331D01*
X19621042Y-639331D02*
X19716280Y-596474D01*
X19716280Y-596474D02*
X19954375Y-596474D01*
X19954375Y-596474D02*
X20049613Y-639331D01*
X20049613Y-639331D02*
X20097232Y-682188D01*
X20097232Y-682188D02*
X20144851Y-767902D01*
X20144851Y-767902D02*
X20144851Y-982188D01*
X20144851Y-982188D02*
X20097232Y-1067902D01*
X20097232Y-1067902D02*
X20049613Y-1110760D01*
X20049613Y-1110760D02*
X19954375Y-1153617D01*
X19954375Y-1153617D02*
X19716280Y-1153617D01*
X19716280Y-1153617D02*
X19621042Y-1110760D01*
X19621042Y-1110760D02*
X19573423Y-1067902D01*
X21001994Y-553617D02*
X21001994Y-1153617D01*
X20763899Y-210760D02*
X20525804Y-853617D01*
X20525804Y-853617D02*
X21144851Y-853617D01*
X4600089Y-296474D02*
X4542947Y-253617D01*
X4542947Y-253617D02*
X4457232Y-253617D01*
X4457232Y-253617D02*
X4371518Y-296474D01*
X4371518Y-296474D02*
X4314375Y-382188D01*
X4314375Y-382188D02*
X4285804Y-467902D01*
X4285804Y-467902D02*
X4257232Y-639331D01*
X4257232Y-639331D02*
X4257232Y-767902D01*
X4257232Y-767902D02*
X4285804Y-939331D01*
X4285804Y-939331D02*
X4314375Y-1025045D01*
X4314375Y-1025045D02*
X4371518Y-1110760D01*
X4371518Y-1110760D02*
X4457232Y-1153617D01*
X4457232Y-1153617D02*
X4514375Y-1153617D01*
X4514375Y-1153617D02*
X4600089Y-1110760D01*
X4600089Y-1110760D02*
X4628661Y-1067902D01*
X4628661Y-1067902D02*
X4628661Y-767902D01*
X4628661Y-767902D02*
X4514375Y-767902D01*
X4885804Y-1153617D02*
X4885804Y-253617D01*
X4885804Y-253617D02*
X5228661Y-1153617D01*
X5228661Y-1153617D02*
X5228661Y-253617D01*
X5514375Y-1153617D02*
X5514375Y-253617D01*
X5514375Y-253617D02*
X5657232Y-253617D01*
X5657232Y-253617D02*
X5742946Y-296474D01*
X5742946Y-296474D02*
X5800089Y-382188D01*
X5800089Y-382188D02*
X5828660Y-467902D01*
X5828660Y-467902D02*
X5857232Y-639331D01*
X5857232Y-639331D02*
X5857232Y-767902D01*
X5857232Y-767902D02*
X5828660Y-939331D01*
X5828660Y-939331D02*
X5800089Y-1025045D01*
X5800089Y-1025045D02*
X5742946Y-1110760D01*
X5742946Y-1110760D02*
X5657232Y-1153617D01*
X5657232Y-1153617D02*
X5514375Y-1153617D01*
X48037232Y-253617D02*
X47561042Y-253617D01*
X47561042Y-253617D02*
X47513423Y-682188D01*
X47513423Y-682188D02*
X47561042Y-639331D01*
X47561042Y-639331D02*
X47656280Y-596474D01*
X47656280Y-596474D02*
X47894375Y-596474D01*
X47894375Y-596474D02*
X47989613Y-639331D01*
X47989613Y-639331D02*
X48037232Y-682188D01*
X48037232Y-682188D02*
X48084851Y-767902D01*
X48084851Y-767902D02*
X48084851Y-982188D01*
X48084851Y-982188D02*
X48037232Y-1067902D01*
X48037232Y-1067902D02*
X47989613Y-1110760D01*
X47989613Y-1110760D02*
X47894375Y-1153617D01*
X47894375Y-1153617D02*
X47656280Y-1153617D01*
X47656280Y-1153617D02*
X47561042Y-1110760D01*
X47561042Y-1110760D02*
X47513423Y-1067902D01*
X48418185Y-253617D02*
X49037232Y-253617D01*
X49037232Y-253617D02*
X48703899Y-596474D01*
X48703899Y-596474D02*
X48846756Y-596474D01*
X48846756Y-596474D02*
X48941994Y-639331D01*
X48941994Y-639331D02*
X48989613Y-682188D01*
X48989613Y-682188D02*
X49037232Y-767902D01*
X49037232Y-767902D02*
X49037232Y-982188D01*
X49037232Y-982188D02*
X48989613Y-1067902D01*
X48989613Y-1067902D02*
X48941994Y-1110760D01*
X48941994Y-1110760D02*
X48846756Y-1153617D01*
X48846756Y-1153617D02*
X48561042Y-1153617D01*
X48561042Y-1153617D02*
X48465804Y-1110760D01*
X48465804Y-1110760D02*
X48418185Y-1067902D01*
X50577232Y-253617D02*
X50101042Y-253617D01*
X50101042Y-253617D02*
X50053423Y-682188D01*
X50053423Y-682188D02*
X50101042Y-639331D01*
X50101042Y-639331D02*
X50196280Y-596474D01*
X50196280Y-596474D02*
X50434375Y-596474D01*
X50434375Y-596474D02*
X50529613Y-639331D01*
X50529613Y-639331D02*
X50577232Y-682188D01*
X50577232Y-682188D02*
X50624851Y-767902D01*
X50624851Y-767902D02*
X50624851Y-982188D01*
X50624851Y-982188D02*
X50577232Y-1067902D01*
X50577232Y-1067902D02*
X50529613Y-1110760D01*
X50529613Y-1110760D02*
X50434375Y-1153617D01*
X50434375Y-1153617D02*
X50196280Y-1153617D01*
X50196280Y-1153617D02*
X50101042Y-1110760D01*
X50101042Y-1110760D02*
X50053423Y-1067902D01*
X51005804Y-339331D02*
X51053423Y-296474D01*
X51053423Y-296474D02*
X51148661Y-253617D01*
X51148661Y-253617D02*
X51386756Y-253617D01*
X51386756Y-253617D02*
X51481994Y-296474D01*
X51481994Y-296474D02*
X51529613Y-339331D01*
X51529613Y-339331D02*
X51577232Y-425045D01*
X51577232Y-425045D02*
X51577232Y-510760D01*
X51577232Y-510760D02*
X51529613Y-639331D01*
X51529613Y-639331D02*
X50958185Y-1153617D01*
X50958185Y-1153617D02*
X51577232Y-1153617D01*
X44925804Y-253617D02*
X45592470Y-253617D01*
X45592470Y-253617D02*
X45163899Y-1153617D01*
X46497232Y-1153617D02*
X45925804Y-1153617D01*
X46211518Y-1153617D02*
X46211518Y-253617D01*
X46211518Y-253617D02*
X46116280Y-382188D01*
X46116280Y-382188D02*
X46021042Y-467902D01*
X46021042Y-467902D02*
X45925804Y-510760D01*
X30209613Y-553617D02*
X30209613Y-1153617D01*
X29971518Y-210760D02*
X29733423Y-853617D01*
X29733423Y-853617D02*
X30352470Y-853617D01*
X30781042Y-1153617D02*
X30971518Y-1153617D01*
X30971518Y-1153617D02*
X31066756Y-1110760D01*
X31066756Y-1110760D02*
X31114375Y-1067902D01*
X31114375Y-1067902D02*
X31209613Y-939331D01*
X31209613Y-939331D02*
X31257232Y-767902D01*
X31257232Y-767902D02*
X31257232Y-425045D01*
X31257232Y-425045D02*
X31209613Y-339331D01*
X31209613Y-339331D02*
X31161994Y-296474D01*
X31161994Y-296474D02*
X31066756Y-253617D01*
X31066756Y-253617D02*
X30876280Y-253617D01*
X30876280Y-253617D02*
X30781042Y-296474D01*
X30781042Y-296474D02*
X30733423Y-339331D01*
X30733423Y-339331D02*
X30685804Y-425045D01*
X30685804Y-425045D02*
X30685804Y-639331D01*
X30685804Y-639331D02*
X30733423Y-725045D01*
X30733423Y-725045D02*
X30781042Y-767902D01*
X30781042Y-767902D02*
X30876280Y-810760D01*
X30876280Y-810760D02*
X31066756Y-810760D01*
X31066756Y-810760D02*
X31161994Y-767902D01*
X31161994Y-767902D02*
X31209613Y-725045D01*
X31209613Y-725045D02*
X31257232Y-639331D01*
X17557232Y-253617D02*
X17081042Y-253617D01*
X17081042Y-253617D02*
X17033423Y-682188D01*
X17033423Y-682188D02*
X17081042Y-639331D01*
X17081042Y-639331D02*
X17176280Y-596474D01*
X17176280Y-596474D02*
X17414375Y-596474D01*
X17414375Y-596474D02*
X17509613Y-639331D01*
X17509613Y-639331D02*
X17557232Y-682188D01*
X17557232Y-682188D02*
X17604851Y-767902D01*
X17604851Y-767902D02*
X17604851Y-982188D01*
X17604851Y-982188D02*
X17557232Y-1067902D01*
X17557232Y-1067902D02*
X17509613Y-1110760D01*
X17509613Y-1110760D02*
X17414375Y-1153617D01*
X17414375Y-1153617D02*
X17176280Y-1153617D01*
X17176280Y-1153617D02*
X17081042Y-1110760D01*
X17081042Y-1110760D02*
X17033423Y-1067902D01*
X18461994Y-253617D02*
X18271518Y-253617D01*
X18271518Y-253617D02*
X18176280Y-296474D01*
X18176280Y-296474D02*
X18128661Y-339331D01*
X18128661Y-339331D02*
X18033423Y-467902D01*
X18033423Y-467902D02*
X17985804Y-639331D01*
X17985804Y-639331D02*
X17985804Y-982188D01*
X17985804Y-982188D02*
X18033423Y-1067902D01*
X18033423Y-1067902D02*
X18081042Y-1110760D01*
X18081042Y-1110760D02*
X18176280Y-1153617D01*
X18176280Y-1153617D02*
X18366756Y-1153617D01*
X18366756Y-1153617D02*
X18461994Y-1110760D01*
X18461994Y-1110760D02*
X18509613Y-1067902D01*
X18509613Y-1067902D02*
X18557232Y-982188D01*
X18557232Y-982188D02*
X18557232Y-767902D01*
X18557232Y-767902D02*
X18509613Y-682188D01*
X18509613Y-682188D02*
X18461994Y-639331D01*
X18461994Y-639331D02*
X18366756Y-596474D01*
X18366756Y-596474D02*
X18176280Y-596474D01*
X18176280Y-596474D02*
X18081042Y-639331D01*
X18081042Y-639331D02*
X18033423Y-682188D01*
X18033423Y-682188D02*
X17985804Y-767902D01*
X2428375Y-253617D02*
X2047423Y-253617D01*
X2047423Y-253617D02*
X2009327Y-682188D01*
X2009327Y-682188D02*
X2047423Y-639331D01*
X2047423Y-639331D02*
X2123613Y-596474D01*
X2123613Y-596474D02*
X2314089Y-596474D01*
X2314089Y-596474D02*
X2390280Y-639331D01*
X2390280Y-639331D02*
X2428375Y-682188D01*
X2428375Y-682188D02*
X2466470Y-767902D01*
X2466470Y-767902D02*
X2466470Y-982188D01*
X2466470Y-982188D02*
X2428375Y-1067902D01*
X2428375Y-1067902D02*
X2390280Y-1110760D01*
X2390280Y-1110760D02*
X2314089Y-1153617D01*
X2314089Y-1153617D02*
X2123613Y-1153617D01*
X2123613Y-1153617D02*
X2047423Y-1110760D01*
X2047423Y-1110760D02*
X2009327Y-1067902D01*
X2695042Y-253617D02*
X2961709Y-1153617D01*
X2961709Y-1153617D02*
X3228375Y-253617D01*
X37620089Y-296474D02*
X37562947Y-253617D01*
X37562947Y-253617D02*
X37477232Y-253617D01*
X37477232Y-253617D02*
X37391518Y-296474D01*
X37391518Y-296474D02*
X37334375Y-382188D01*
X37334375Y-382188D02*
X37305804Y-467902D01*
X37305804Y-467902D02*
X37277232Y-639331D01*
X37277232Y-639331D02*
X37277232Y-767902D01*
X37277232Y-767902D02*
X37305804Y-939331D01*
X37305804Y-939331D02*
X37334375Y-1025045D01*
X37334375Y-1025045D02*
X37391518Y-1110760D01*
X37391518Y-1110760D02*
X37477232Y-1153617D01*
X37477232Y-1153617D02*
X37534375Y-1153617D01*
X37534375Y-1153617D02*
X37620089Y-1110760D01*
X37620089Y-1110760D02*
X37648661Y-1067902D01*
X37648661Y-1067902D02*
X37648661Y-767902D01*
X37648661Y-767902D02*
X37534375Y-767902D01*
X37905804Y-1153617D02*
X37905804Y-253617D01*
X37905804Y-253617D02*
X38248661Y-1153617D01*
X38248661Y-1153617D02*
X38248661Y-253617D01*
X38534375Y-1153617D02*
X38534375Y-253617D01*
X38534375Y-253617D02*
X38677232Y-253617D01*
X38677232Y-253617D02*
X38762946Y-296474D01*
X38762946Y-296474D02*
X38820089Y-382188D01*
X38820089Y-382188D02*
X38848660Y-467902D01*
X38848660Y-467902D02*
X38877232Y-639331D01*
X38877232Y-639331D02*
X38877232Y-767902D01*
X38877232Y-767902D02*
X38848660Y-939331D01*
X38848660Y-939331D02*
X38820089Y-1025045D01*
X38820089Y-1025045D02*
X38762946Y-1110760D01*
X38762946Y-1110760D02*
X38677232Y-1153617D01*
X38677232Y-1153617D02*
X38534375Y-1153617D01*
X12429613Y-553617D02*
X12429613Y-1153617D01*
X12191518Y-210760D02*
X11953423Y-853617D01*
X11953423Y-853617D02*
X12572470Y-853617D01*
X12905804Y-339331D02*
X12953423Y-296474D01*
X12953423Y-296474D02*
X13048661Y-253617D01*
X13048661Y-253617D02*
X13286756Y-253617D01*
X13286756Y-253617D02*
X13381994Y-296474D01*
X13381994Y-296474D02*
X13429613Y-339331D01*
X13429613Y-339331D02*
X13477232Y-425045D01*
X13477232Y-425045D02*
X13477232Y-510760D01*
X13477232Y-510760D02*
X13429613Y-639331D01*
X13429613Y-639331D02*
X12858185Y-1153617D01*
X12858185Y-1153617D02*
X13477232Y-1153617D01*
X32463899Y-639331D02*
X32368661Y-596474D01*
X32368661Y-596474D02*
X32321042Y-553617D01*
X32321042Y-553617D02*
X32273423Y-467902D01*
X32273423Y-467902D02*
X32273423Y-425045D01*
X32273423Y-425045D02*
X32321042Y-339331D01*
X32321042Y-339331D02*
X32368661Y-296474D01*
X32368661Y-296474D02*
X32463899Y-253617D01*
X32463899Y-253617D02*
X32654375Y-253617D01*
X32654375Y-253617D02*
X32749613Y-296474D01*
X32749613Y-296474D02*
X32797232Y-339331D01*
X32797232Y-339331D02*
X32844851Y-425045D01*
X32844851Y-425045D02*
X32844851Y-467902D01*
X32844851Y-467902D02*
X32797232Y-553617D01*
X32797232Y-553617D02*
X32749613Y-596474D01*
X32749613Y-596474D02*
X32654375Y-639331D01*
X32654375Y-639331D02*
X32463899Y-639331D01*
X32463899Y-639331D02*
X32368661Y-682188D01*
X32368661Y-682188D02*
X32321042Y-725045D01*
X32321042Y-725045D02*
X32273423Y-810760D01*
X32273423Y-810760D02*
X32273423Y-982188D01*
X32273423Y-982188D02*
X32321042Y-1067902D01*
X32321042Y-1067902D02*
X32368661Y-1110760D01*
X32368661Y-1110760D02*
X32463899Y-1153617D01*
X32463899Y-1153617D02*
X32654375Y-1153617D01*
X32654375Y-1153617D02*
X32749613Y-1110760D01*
X32749613Y-1110760D02*
X32797232Y-1067902D01*
X32797232Y-1067902D02*
X32844851Y-982188D01*
X32844851Y-982188D02*
X32844851Y-810760D01*
X32844851Y-810760D02*
X32797232Y-725045D01*
X32797232Y-725045D02*
X32749613Y-682188D01*
X32749613Y-682188D02*
X32654375Y-639331D01*
X33701994Y-253617D02*
X33511518Y-253617D01*
X33511518Y-253617D02*
X33416280Y-296474D01*
X33416280Y-296474D02*
X33368661Y-339331D01*
X33368661Y-339331D02*
X33273423Y-467902D01*
X33273423Y-467902D02*
X33225804Y-639331D01*
X33225804Y-639331D02*
X33225804Y-982188D01*
X33225804Y-982188D02*
X33273423Y-1067902D01*
X33273423Y-1067902D02*
X33321042Y-1110760D01*
X33321042Y-1110760D02*
X33416280Y-1153617D01*
X33416280Y-1153617D02*
X33606756Y-1153617D01*
X33606756Y-1153617D02*
X33701994Y-1110760D01*
X33701994Y-1110760D02*
X33749613Y-1067902D01*
X33749613Y-1067902D02*
X33797232Y-982188D01*
X33797232Y-982188D02*
X33797232Y-767902D01*
X33797232Y-767902D02*
X33749613Y-682188D01*
X33749613Y-682188D02*
X33701994Y-639331D01*
X33701994Y-639331D02*
X33606756Y-596474D01*
X33606756Y-596474D02*
X33416280Y-596474D01*
X33416280Y-596474D02*
X33321042Y-639331D01*
X33321042Y-639331D02*
X33273423Y-682188D01*
X33273423Y-682188D02*
X33225804Y-767902D01*
X42385804Y-253617D02*
X43052470Y-253617D01*
X43052470Y-253617D02*
X42623899Y-1153617D01*
X43385804Y-339331D02*
X43433423Y-296474D01*
X43433423Y-296474D02*
X43528661Y-253617D01*
X43528661Y-253617D02*
X43766756Y-253617D01*
X43766756Y-253617D02*
X43861994Y-296474D01*
X43861994Y-296474D02*
X43909613Y-339331D01*
X43909613Y-339331D02*
X43957232Y-425045D01*
X43957232Y-425045D02*
X43957232Y-510760D01*
X43957232Y-510760D02*
X43909613Y-639331D01*
X43909613Y-639331D02*
X43338185Y-1153617D01*
X43338185Y-1153617D02*
X43957232Y-1153617D01*
X39788661Y-253617D02*
X40160089Y-253617D01*
X40160089Y-253617D02*
X39960089Y-596474D01*
X39960089Y-596474D02*
X40045804Y-596474D01*
X40045804Y-596474D02*
X40102947Y-639331D01*
X40102947Y-639331D02*
X40131518Y-682188D01*
X40131518Y-682188D02*
X40160089Y-767902D01*
X40160089Y-767902D02*
X40160089Y-982188D01*
X40160089Y-982188D02*
X40131518Y-1067902D01*
X40131518Y-1067902D02*
X40102947Y-1110760D01*
X40102947Y-1110760D02*
X40045804Y-1153617D01*
X40045804Y-1153617D02*
X39874375Y-1153617D01*
X39874375Y-1153617D02*
X39817232Y-1110760D01*
X39817232Y-1110760D02*
X39788661Y-1067902D01*
X40331518Y-253617D02*
X40531518Y-1153617D01*
X40531518Y-1153617D02*
X40731518Y-253617D01*
X40874376Y-253617D02*
X41245804Y-253617D01*
X41245804Y-253617D02*
X41045804Y-596474D01*
X41045804Y-596474D02*
X41131519Y-596474D01*
X41131519Y-596474D02*
X41188662Y-639331D01*
X41188662Y-639331D02*
X41217233Y-682188D01*
X41217233Y-682188D02*
X41245804Y-767902D01*
X41245804Y-767902D02*
X41245804Y-982188D01*
X41245804Y-982188D02*
X41217233Y-1067902D01*
X41217233Y-1067902D02*
X41188662Y-1110760D01*
X41188662Y-1110760D02*
X41131519Y-1153617D01*
X41131519Y-1153617D02*
X40960090Y-1153617D01*
X40960090Y-1153617D02*
X40902947Y-1110760D01*
X40902947Y-1110760D02*
X40874376Y-1067902D01*
X6825804Y-253617D02*
X7492470Y-253617D01*
X7492470Y-253617D02*
X7063899Y-1153617D01*
X8301994Y-253617D02*
X8111518Y-253617D01*
X8111518Y-253617D02*
X8016280Y-296474D01*
X8016280Y-296474D02*
X7968661Y-339331D01*
X7968661Y-339331D02*
X7873423Y-467902D01*
X7873423Y-467902D02*
X7825804Y-639331D01*
X7825804Y-639331D02*
X7825804Y-982188D01*
X7825804Y-982188D02*
X7873423Y-1067902D01*
X7873423Y-1067902D02*
X7921042Y-1110760D01*
X7921042Y-1110760D02*
X8016280Y-1153617D01*
X8016280Y-1153617D02*
X8206756Y-1153617D01*
X8206756Y-1153617D02*
X8301994Y-1110760D01*
X8301994Y-1110760D02*
X8349613Y-1067902D01*
X8349613Y-1067902D02*
X8397232Y-982188D01*
X8397232Y-982188D02*
X8397232Y-767902D01*
X8397232Y-767902D02*
X8349613Y-682188D01*
X8349613Y-682188D02*
X8301994Y-639331D01*
X8301994Y-639331D02*
X8206756Y-596474D01*
X8206756Y-596474D02*
X8016280Y-596474D01*
X8016280Y-596474D02*
X7921042Y-639331D01*
X7921042Y-639331D02*
X7873423Y-682188D01*
X7873423Y-682188D02*
X7825804Y-767902D01*
X22637232Y-253617D02*
X22161042Y-253617D01*
X22161042Y-253617D02*
X22113423Y-682188D01*
X22113423Y-682188D02*
X22161042Y-639331D01*
X22161042Y-639331D02*
X22256280Y-596474D01*
X22256280Y-596474D02*
X22494375Y-596474D01*
X22494375Y-596474D02*
X22589613Y-639331D01*
X22589613Y-639331D02*
X22637232Y-682188D01*
X22637232Y-682188D02*
X22684851Y-767902D01*
X22684851Y-767902D02*
X22684851Y-982188D01*
X22684851Y-982188D02*
X22637232Y-1067902D01*
X22637232Y-1067902D02*
X22589613Y-1110760D01*
X22589613Y-1110760D02*
X22494375Y-1153617D01*
X22494375Y-1153617D02*
X22256280Y-1153617D01*
X22256280Y-1153617D02*
X22161042Y-1110760D01*
X22161042Y-1110760D02*
X22113423Y-1067902D01*
X23637232Y-1153617D02*
X23065804Y-1153617D01*
X23351518Y-1153617D02*
X23351518Y-253617D01*
X23351518Y-253617D02*
X23256280Y-382188D01*
X23256280Y-382188D02*
X23161042Y-467902D01*
X23161042Y-467902D02*
X23065804Y-510760D01*
X27717232Y-253617D02*
X27241042Y-253617D01*
X27241042Y-253617D02*
X27193423Y-682188D01*
X27193423Y-682188D02*
X27241042Y-639331D01*
X27241042Y-639331D02*
X27336280Y-596474D01*
X27336280Y-596474D02*
X27574375Y-596474D01*
X27574375Y-596474D02*
X27669613Y-639331D01*
X27669613Y-639331D02*
X27717232Y-682188D01*
X27717232Y-682188D02*
X27764851Y-767902D01*
X27764851Y-767902D02*
X27764851Y-982188D01*
X27764851Y-982188D02*
X27717232Y-1067902D01*
X27717232Y-1067902D02*
X27669613Y-1110760D01*
X27669613Y-1110760D02*
X27574375Y-1153617D01*
X27574375Y-1153617D02*
X27336280Y-1153617D01*
X27336280Y-1153617D02*
X27241042Y-1110760D01*
X27241042Y-1110760D02*
X27193423Y-1067902D01*
X28669613Y-253617D02*
X28193423Y-253617D01*
X28193423Y-253617D02*
X28145804Y-682188D01*
X28145804Y-682188D02*
X28193423Y-639331D01*
X28193423Y-639331D02*
X28288661Y-596474D01*
X28288661Y-596474D02*
X28526756Y-596474D01*
X28526756Y-596474D02*
X28621994Y-639331D01*
X28621994Y-639331D02*
X28669613Y-682188D01*
X28669613Y-682188D02*
X28717232Y-767902D01*
X28717232Y-767902D02*
X28717232Y-982188D01*
X28717232Y-982188D02*
X28669613Y-1067902D01*
X28669613Y-1067902D02*
X28621994Y-1110760D01*
X28621994Y-1110760D02*
X28526756Y-1153617D01*
X28526756Y-1153617D02*
X28288661Y-1153617D01*
X28288661Y-1153617D02*
X28193423Y-1110760D01*
X28193423Y-1110760D02*
X28145804Y-1067902D01*
X25129613Y-553617D02*
X25129613Y-1153617D01*
X24891518Y-210760D02*
X24653423Y-853617D01*
X24653423Y-853617D02*
X25272470Y-853617D01*
X25796280Y-639331D02*
X25701042Y-596474D01*
X25701042Y-596474D02*
X25653423Y-553617D01*
X25653423Y-553617D02*
X25605804Y-467902D01*
X25605804Y-467902D02*
X25605804Y-425045D01*
X25605804Y-425045D02*
X25653423Y-339331D01*
X25653423Y-339331D02*
X25701042Y-296474D01*
X25701042Y-296474D02*
X25796280Y-253617D01*
X25796280Y-253617D02*
X25986756Y-253617D01*
X25986756Y-253617D02*
X26081994Y-296474D01*
X26081994Y-296474D02*
X26129613Y-339331D01*
X26129613Y-339331D02*
X26177232Y-425045D01*
X26177232Y-425045D02*
X26177232Y-467902D01*
X26177232Y-467902D02*
X26129613Y-553617D01*
X26129613Y-553617D02*
X26081994Y-596474D01*
X26081994Y-596474D02*
X25986756Y-639331D01*
X25986756Y-639331D02*
X25796280Y-639331D01*
X25796280Y-639331D02*
X25701042Y-682188D01*
X25701042Y-682188D02*
X25653423Y-725045D01*
X25653423Y-725045D02*
X25605804Y-810760D01*
X25605804Y-810760D02*
X25605804Y-982188D01*
X25605804Y-982188D02*
X25653423Y-1067902D01*
X25653423Y-1067902D02*
X25701042Y-1110760D01*
X25701042Y-1110760D02*
X25796280Y-1153617D01*
X25796280Y-1153617D02*
X25986756Y-1153617D01*
X25986756Y-1153617D02*
X26081994Y-1110760D01*
X26081994Y-1110760D02*
X26129613Y-1067902D01*
X26129613Y-1067902D02*
X26177232Y-982188D01*
X26177232Y-982188D02*
X26177232Y-810760D01*
X26177232Y-810760D02*
X26129613Y-725045D01*
X26129613Y-725045D02*
X26081994Y-682188D01*
X26081994Y-682188D02*
X25986756Y-639331D01*
X14969613Y-553617D02*
X14969613Y-1153617D01*
X14731518Y-210760D02*
X14493423Y-853617D01*
X14493423Y-853617D02*
X15112470Y-853617D01*
X16017232Y-1153617D02*
X15445804Y-1153617D01*
X15731518Y-1153617D02*
X15731518Y-253617D01*
X15731518Y-253617D02*
X15636280Y-382188D01*
X15636280Y-382188D02*
X15541042Y-467902D01*
X15541042Y-467902D02*
X15445804Y-510760D01*
X34765804Y-253617D02*
X35432470Y-253617D01*
X35432470Y-253617D02*
X35003899Y-1153617D01*
X35861042Y-1153617D02*
X36051518Y-1153617D01*
X36051518Y-1153617D02*
X36146756Y-1110760D01*
X36146756Y-1110760D02*
X36194375Y-1067902D01*
X36194375Y-1067902D02*
X36289613Y-939331D01*
X36289613Y-939331D02*
X36337232Y-767902D01*
X36337232Y-767902D02*
X36337232Y-425045D01*
X36337232Y-425045D02*
X36289613Y-339331D01*
X36289613Y-339331D02*
X36241994Y-296474D01*
X36241994Y-296474D02*
X36146756Y-253617D01*
X36146756Y-253617D02*
X35956280Y-253617D01*
X35956280Y-253617D02*
X35861042Y-296474D01*
X35861042Y-296474D02*
X35813423Y-339331D01*
X35813423Y-339331D02*
X35765804Y-425045D01*
X35765804Y-425045D02*
X35765804Y-639331D01*
X35765804Y-639331D02*
X35813423Y-725045D01*
X35813423Y-725045D02*
X35861042Y-767902D01*
X35861042Y-767902D02*
X35956280Y-810760D01*
X35956280Y-810760D02*
X36146756Y-810760D01*
X36146756Y-810760D02*
X36241994Y-767902D01*
X36241994Y-767902D02*
X36289613Y-725045D01*
X36289613Y-725045D02*
X36337232Y-639331D01*
X19573423Y-24342331D02*
X19621042Y-24299474D01*
X19621042Y-24299474D02*
X19716280Y-24256617D01*
X19716280Y-24256617D02*
X19954375Y-24256617D01*
X19954375Y-24256617D02*
X20049613Y-24299474D01*
X20049613Y-24299474D02*
X20097232Y-24342331D01*
X20097232Y-24342331D02*
X20144851Y-24428045D01*
X20144851Y-24428045D02*
X20144851Y-24513760D01*
X20144851Y-24513760D02*
X20097232Y-24642331D01*
X20097232Y-24642331D02*
X19525804Y-25156617D01*
X19525804Y-25156617D02*
X20144851Y-25156617D01*
X20478185Y-24256617D02*
X21144851Y-24256617D01*
X21144851Y-24256617D02*
X20716280Y-25156617D01*
X15064851Y-25156617D02*
X14493423Y-25156617D01*
X14779137Y-25156617D02*
X14779137Y-24256617D01*
X14779137Y-24256617D02*
X14683899Y-24385188D01*
X14683899Y-24385188D02*
X14588661Y-24470902D01*
X14588661Y-24470902D02*
X14493423Y-24513760D01*
X15969613Y-24256617D02*
X15493423Y-24256617D01*
X15493423Y-24256617D02*
X15445804Y-24685188D01*
X15445804Y-24685188D02*
X15493423Y-24642331D01*
X15493423Y-24642331D02*
X15588661Y-24599474D01*
X15588661Y-24599474D02*
X15826756Y-24599474D01*
X15826756Y-24599474D02*
X15921994Y-24642331D01*
X15921994Y-24642331D02*
X15969613Y-24685188D01*
X15969613Y-24685188D02*
X16017232Y-24770902D01*
X16017232Y-24770902D02*
X16017232Y-24985188D01*
X16017232Y-24985188D02*
X15969613Y-25070902D01*
X15969613Y-25070902D02*
X15921994Y-25113760D01*
X15921994Y-25113760D02*
X15826756Y-25156617D01*
X15826756Y-25156617D02*
X15588661Y-25156617D01*
X15588661Y-25156617D02*
X15493423Y-25113760D01*
X15493423Y-25113760D02*
X15445804Y-25070902D01*
X11905804Y-24256617D02*
X12572470Y-24256617D01*
X12572470Y-24256617D02*
X12143899Y-25156617D01*
X12858185Y-24256617D02*
X13524851Y-24256617D01*
X13524851Y-24256617D02*
X13096280Y-25156617D01*
X50447089Y-24299474D02*
X50389947Y-24256617D01*
X50389947Y-24256617D02*
X50304232Y-24256617D01*
X50304232Y-24256617D02*
X50218518Y-24299474D01*
X50218518Y-24299474D02*
X50161375Y-24385188D01*
X50161375Y-24385188D02*
X50132804Y-24470902D01*
X50132804Y-24470902D02*
X50104232Y-24642331D01*
X50104232Y-24642331D02*
X50104232Y-24770902D01*
X50104232Y-24770902D02*
X50132804Y-24942331D01*
X50132804Y-24942331D02*
X50161375Y-25028045D01*
X50161375Y-25028045D02*
X50218518Y-25113760D01*
X50218518Y-25113760D02*
X50304232Y-25156617D01*
X50304232Y-25156617D02*
X50361375Y-25156617D01*
X50361375Y-25156617D02*
X50447089Y-25113760D01*
X50447089Y-25113760D02*
X50475661Y-25070902D01*
X50475661Y-25070902D02*
X50475661Y-24770902D01*
X50475661Y-24770902D02*
X50361375Y-24770902D01*
X50732804Y-25156617D02*
X50732804Y-24256617D01*
X50732804Y-24256617D02*
X51075661Y-25156617D01*
X51075661Y-25156617D02*
X51075661Y-24256617D01*
X51361375Y-25156617D02*
X51361375Y-24256617D01*
X51361375Y-24256617D02*
X51504232Y-24256617D01*
X51504232Y-24256617D02*
X51589946Y-24299474D01*
X51589946Y-24299474D02*
X51647089Y-24385188D01*
X51647089Y-24385188D02*
X51675660Y-24470902D01*
X51675660Y-24470902D02*
X51704232Y-24642331D01*
X51704232Y-24642331D02*
X51704232Y-24770902D01*
X51704232Y-24770902D02*
X51675660Y-24942331D01*
X51675660Y-24942331D02*
X51647089Y-25028045D01*
X51647089Y-25028045D02*
X51589946Y-25113760D01*
X51589946Y-25113760D02*
X51504232Y-25156617D01*
X51504232Y-25156617D02*
X51361375Y-25156617D01*
X24653423Y-24342331D02*
X24701042Y-24299474D01*
X24701042Y-24299474D02*
X24796280Y-24256617D01*
X24796280Y-24256617D02*
X25034375Y-24256617D01*
X25034375Y-24256617D02*
X25129613Y-24299474D01*
X25129613Y-24299474D02*
X25177232Y-24342331D01*
X25177232Y-24342331D02*
X25224851Y-24428045D01*
X25224851Y-24428045D02*
X25224851Y-24513760D01*
X25224851Y-24513760D02*
X25177232Y-24642331D01*
X25177232Y-24642331D02*
X24605804Y-25156617D01*
X24605804Y-25156617D02*
X25224851Y-25156617D01*
X26129613Y-24256617D02*
X25653423Y-24256617D01*
X25653423Y-24256617D02*
X25605804Y-24685188D01*
X25605804Y-24685188D02*
X25653423Y-24642331D01*
X25653423Y-24642331D02*
X25748661Y-24599474D01*
X25748661Y-24599474D02*
X25986756Y-24599474D01*
X25986756Y-24599474D02*
X26081994Y-24642331D01*
X26081994Y-24642331D02*
X26129613Y-24685188D01*
X26129613Y-24685188D02*
X26177232Y-24770902D01*
X26177232Y-24770902D02*
X26177232Y-24985188D01*
X26177232Y-24985188D02*
X26129613Y-25070902D01*
X26129613Y-25070902D02*
X26081994Y-25113760D01*
X26081994Y-25113760D02*
X25986756Y-25156617D01*
X25986756Y-25156617D02*
X25748661Y-25156617D01*
X25748661Y-25156617D02*
X25653423Y-25113760D01*
X25653423Y-25113760D02*
X25605804Y-25070902D01*
X39893423Y-24342331D02*
X39941042Y-24299474D01*
X39941042Y-24299474D02*
X40036280Y-24256617D01*
X40036280Y-24256617D02*
X40274375Y-24256617D01*
X40274375Y-24256617D02*
X40369613Y-24299474D01*
X40369613Y-24299474D02*
X40417232Y-24342331D01*
X40417232Y-24342331D02*
X40464851Y-24428045D01*
X40464851Y-24428045D02*
X40464851Y-24513760D01*
X40464851Y-24513760D02*
X40417232Y-24642331D01*
X40417232Y-24642331D02*
X39845804Y-25156617D01*
X39845804Y-25156617D02*
X40464851Y-25156617D01*
X41083899Y-24256617D02*
X41179137Y-24256617D01*
X41179137Y-24256617D02*
X41274375Y-24299474D01*
X41274375Y-24299474D02*
X41321994Y-24342331D01*
X41321994Y-24342331D02*
X41369613Y-24428045D01*
X41369613Y-24428045D02*
X41417232Y-24599474D01*
X41417232Y-24599474D02*
X41417232Y-24813760D01*
X41417232Y-24813760D02*
X41369613Y-24985188D01*
X41369613Y-24985188D02*
X41321994Y-25070902D01*
X41321994Y-25070902D02*
X41274375Y-25113760D01*
X41274375Y-25113760D02*
X41179137Y-25156617D01*
X41179137Y-25156617D02*
X41083899Y-25156617D01*
X41083899Y-25156617D02*
X40988661Y-25113760D01*
X40988661Y-25113760D02*
X40941042Y-25070902D01*
X40941042Y-25070902D02*
X40893423Y-24985188D01*
X40893423Y-24985188D02*
X40845804Y-24813760D01*
X40845804Y-24813760D02*
X40845804Y-24599474D01*
X40845804Y-24599474D02*
X40893423Y-24428045D01*
X40893423Y-24428045D02*
X40941042Y-24342331D01*
X40941042Y-24342331D02*
X40988661Y-24299474D01*
X40988661Y-24299474D02*
X41083899Y-24256617D01*
X45544851Y-25156617D02*
X44973423Y-25156617D01*
X45259137Y-25156617D02*
X45259137Y-24256617D01*
X45259137Y-24256617D02*
X45163899Y-24385188D01*
X45163899Y-24385188D02*
X45068661Y-24470902D01*
X45068661Y-24470902D02*
X44973423Y-24513760D01*
X46116280Y-24642331D02*
X46021042Y-24599474D01*
X46021042Y-24599474D02*
X45973423Y-24556617D01*
X45973423Y-24556617D02*
X45925804Y-24470902D01*
X45925804Y-24470902D02*
X45925804Y-24428045D01*
X45925804Y-24428045D02*
X45973423Y-24342331D01*
X45973423Y-24342331D02*
X46021042Y-24299474D01*
X46021042Y-24299474D02*
X46116280Y-24256617D01*
X46116280Y-24256617D02*
X46306756Y-24256617D01*
X46306756Y-24256617D02*
X46401994Y-24299474D01*
X46401994Y-24299474D02*
X46449613Y-24342331D01*
X46449613Y-24342331D02*
X46497232Y-24428045D01*
X46497232Y-24428045D02*
X46497232Y-24470902D01*
X46497232Y-24470902D02*
X46449613Y-24556617D01*
X46449613Y-24556617D02*
X46401994Y-24599474D01*
X46401994Y-24599474D02*
X46306756Y-24642331D01*
X46306756Y-24642331D02*
X46116280Y-24642331D01*
X46116280Y-24642331D02*
X46021042Y-24685188D01*
X46021042Y-24685188D02*
X45973423Y-24728045D01*
X45973423Y-24728045D02*
X45925804Y-24813760D01*
X45925804Y-24813760D02*
X45925804Y-24985188D01*
X45925804Y-24985188D02*
X45973423Y-25070902D01*
X45973423Y-25070902D02*
X46021042Y-25113760D01*
X46021042Y-25113760D02*
X46116280Y-25156617D01*
X46116280Y-25156617D02*
X46306756Y-25156617D01*
X46306756Y-25156617D02*
X46401994Y-25113760D01*
X46401994Y-25113760D02*
X46449613Y-25070902D01*
X46449613Y-25070902D02*
X46497232Y-24985188D01*
X46497232Y-24985188D02*
X46497232Y-24813760D01*
X46497232Y-24813760D02*
X46449613Y-24728045D01*
X46449613Y-24728045D02*
X46401994Y-24685188D01*
X46401994Y-24685188D02*
X46306756Y-24642331D01*
X22113423Y-24342331D02*
X22161042Y-24299474D01*
X22161042Y-24299474D02*
X22256280Y-24256617D01*
X22256280Y-24256617D02*
X22494375Y-24256617D01*
X22494375Y-24256617D02*
X22589613Y-24299474D01*
X22589613Y-24299474D02*
X22637232Y-24342331D01*
X22637232Y-24342331D02*
X22684851Y-24428045D01*
X22684851Y-24428045D02*
X22684851Y-24513760D01*
X22684851Y-24513760D02*
X22637232Y-24642331D01*
X22637232Y-24642331D02*
X22065804Y-25156617D01*
X22065804Y-25156617D02*
X22684851Y-25156617D01*
X23256280Y-24642331D02*
X23161042Y-24599474D01*
X23161042Y-24599474D02*
X23113423Y-24556617D01*
X23113423Y-24556617D02*
X23065804Y-24470902D01*
X23065804Y-24470902D02*
X23065804Y-24428045D01*
X23065804Y-24428045D02*
X23113423Y-24342331D01*
X23113423Y-24342331D02*
X23161042Y-24299474D01*
X23161042Y-24299474D02*
X23256280Y-24256617D01*
X23256280Y-24256617D02*
X23446756Y-24256617D01*
X23446756Y-24256617D02*
X23541994Y-24299474D01*
X23541994Y-24299474D02*
X23589613Y-24342331D01*
X23589613Y-24342331D02*
X23637232Y-24428045D01*
X23637232Y-24428045D02*
X23637232Y-24470902D01*
X23637232Y-24470902D02*
X23589613Y-24556617D01*
X23589613Y-24556617D02*
X23541994Y-24599474D01*
X23541994Y-24599474D02*
X23446756Y-24642331D01*
X23446756Y-24642331D02*
X23256280Y-24642331D01*
X23256280Y-24642331D02*
X23161042Y-24685188D01*
X23161042Y-24685188D02*
X23113423Y-24728045D01*
X23113423Y-24728045D02*
X23065804Y-24813760D01*
X23065804Y-24813760D02*
X23065804Y-24985188D01*
X23065804Y-24985188D02*
X23113423Y-25070902D01*
X23113423Y-25070902D02*
X23161042Y-25113760D01*
X23161042Y-25113760D02*
X23256280Y-25156617D01*
X23256280Y-25156617D02*
X23446756Y-25156617D01*
X23446756Y-25156617D02*
X23541994Y-25113760D01*
X23541994Y-25113760D02*
X23589613Y-25070902D01*
X23589613Y-25070902D02*
X23637232Y-24985188D01*
X23637232Y-24985188D02*
X23637232Y-24813760D01*
X23637232Y-24813760D02*
X23589613Y-24728045D01*
X23589613Y-24728045D02*
X23541994Y-24685188D01*
X23541994Y-24685188D02*
X23446756Y-24642331D01*
X6825804Y-24256617D02*
X7492470Y-24256617D01*
X7492470Y-24256617D02*
X7063899Y-25156617D01*
X8349613Y-24256617D02*
X7873423Y-24256617D01*
X7873423Y-24256617D02*
X7825804Y-24685188D01*
X7825804Y-24685188D02*
X7873423Y-24642331D01*
X7873423Y-24642331D02*
X7968661Y-24599474D01*
X7968661Y-24599474D02*
X8206756Y-24599474D01*
X8206756Y-24599474D02*
X8301994Y-24642331D01*
X8301994Y-24642331D02*
X8349613Y-24685188D01*
X8349613Y-24685188D02*
X8397232Y-24770902D01*
X8397232Y-24770902D02*
X8397232Y-24985188D01*
X8397232Y-24985188D02*
X8349613Y-25070902D01*
X8349613Y-25070902D02*
X8301994Y-25113760D01*
X8301994Y-25113760D02*
X8206756Y-25156617D01*
X8206756Y-25156617D02*
X7968661Y-25156617D01*
X7968661Y-25156617D02*
X7873423Y-25113760D01*
X7873423Y-25113760D02*
X7825804Y-25070902D01*
X37924851Y-25156617D02*
X37353423Y-25156617D01*
X37639137Y-25156617D02*
X37639137Y-24256617D01*
X37639137Y-24256617D02*
X37543899Y-24385188D01*
X37543899Y-24385188D02*
X37448661Y-24470902D01*
X37448661Y-24470902D02*
X37353423Y-24513760D01*
X38258185Y-24256617D02*
X38924851Y-24256617D01*
X38924851Y-24256617D02*
X38496280Y-25156617D01*
X43004851Y-25156617D02*
X42433423Y-25156617D01*
X42719137Y-25156617D02*
X42719137Y-24256617D01*
X42719137Y-24256617D02*
X42623899Y-24385188D01*
X42623899Y-24385188D02*
X42528661Y-24470902D01*
X42528661Y-24470902D02*
X42433423Y-24513760D01*
X43481042Y-25156617D02*
X43671518Y-25156617D01*
X43671518Y-25156617D02*
X43766756Y-25113760D01*
X43766756Y-25113760D02*
X43814375Y-25070902D01*
X43814375Y-25070902D02*
X43909613Y-24942331D01*
X43909613Y-24942331D02*
X43957232Y-24770902D01*
X43957232Y-24770902D02*
X43957232Y-24428045D01*
X43957232Y-24428045D02*
X43909613Y-24342331D01*
X43909613Y-24342331D02*
X43861994Y-24299474D01*
X43861994Y-24299474D02*
X43766756Y-24256617D01*
X43766756Y-24256617D02*
X43576280Y-24256617D01*
X43576280Y-24256617D02*
X43481042Y-24299474D01*
X43481042Y-24299474D02*
X43433423Y-24342331D01*
X43433423Y-24342331D02*
X43385804Y-24428045D01*
X43385804Y-24428045D02*
X43385804Y-24642331D01*
X43385804Y-24642331D02*
X43433423Y-24728045D01*
X43433423Y-24728045D02*
X43481042Y-24770902D01*
X43481042Y-24770902D02*
X43576280Y-24813760D01*
X43576280Y-24813760D02*
X43766756Y-24813760D01*
X43766756Y-24813760D02*
X43861994Y-24770902D01*
X43861994Y-24770902D02*
X43909613Y-24728045D01*
X43909613Y-24728045D02*
X43957232Y-24642331D01*
X1745804Y-24256617D02*
X2412470Y-24256617D01*
X2412470Y-24256617D02*
X1983899Y-25156617D01*
X2698185Y-24256617D02*
X3317232Y-24256617D01*
X3317232Y-24256617D02*
X2983899Y-24599474D01*
X2983899Y-24599474D02*
X3126756Y-24599474D01*
X3126756Y-24599474D02*
X3221994Y-24642331D01*
X3221994Y-24642331D02*
X3269613Y-24685188D01*
X3269613Y-24685188D02*
X3317232Y-24770902D01*
X3317232Y-24770902D02*
X3317232Y-24985188D01*
X3317232Y-24985188D02*
X3269613Y-25070902D01*
X3269613Y-25070902D02*
X3221994Y-25113760D01*
X3221994Y-25113760D02*
X3126756Y-25156617D01*
X3126756Y-25156617D02*
X2841042Y-25156617D01*
X2841042Y-25156617D02*
X2745804Y-25113760D01*
X2745804Y-25113760D02*
X2698185Y-25070902D01*
X29733423Y-24342331D02*
X29781042Y-24299474D01*
X29781042Y-24299474D02*
X29876280Y-24256617D01*
X29876280Y-24256617D02*
X30114375Y-24256617D01*
X30114375Y-24256617D02*
X30209613Y-24299474D01*
X30209613Y-24299474D02*
X30257232Y-24342331D01*
X30257232Y-24342331D02*
X30304851Y-24428045D01*
X30304851Y-24428045D02*
X30304851Y-24513760D01*
X30304851Y-24513760D02*
X30257232Y-24642331D01*
X30257232Y-24642331D02*
X29685804Y-25156617D01*
X29685804Y-25156617D02*
X30304851Y-25156617D01*
X30781042Y-25156617D02*
X30971518Y-25156617D01*
X30971518Y-25156617D02*
X31066756Y-25113760D01*
X31066756Y-25113760D02*
X31114375Y-25070902D01*
X31114375Y-25070902D02*
X31209613Y-24942331D01*
X31209613Y-24942331D02*
X31257232Y-24770902D01*
X31257232Y-24770902D02*
X31257232Y-24428045D01*
X31257232Y-24428045D02*
X31209613Y-24342331D01*
X31209613Y-24342331D02*
X31161994Y-24299474D01*
X31161994Y-24299474D02*
X31066756Y-24256617D01*
X31066756Y-24256617D02*
X30876280Y-24256617D01*
X30876280Y-24256617D02*
X30781042Y-24299474D01*
X30781042Y-24299474D02*
X30733423Y-24342331D01*
X30733423Y-24342331D02*
X30685804Y-24428045D01*
X30685804Y-24428045D02*
X30685804Y-24642331D01*
X30685804Y-24642331D02*
X30733423Y-24728045D01*
X30733423Y-24728045D02*
X30781042Y-24770902D01*
X30781042Y-24770902D02*
X30876280Y-24813760D01*
X30876280Y-24813760D02*
X31066756Y-24813760D01*
X31066756Y-24813760D02*
X31161994Y-24770902D01*
X31161994Y-24770902D02*
X31209613Y-24728045D01*
X31209613Y-24728045D02*
X31257232Y-24642331D01*
X27193423Y-24342331D02*
X27241042Y-24299474D01*
X27241042Y-24299474D02*
X27336280Y-24256617D01*
X27336280Y-24256617D02*
X27574375Y-24256617D01*
X27574375Y-24256617D02*
X27669613Y-24299474D01*
X27669613Y-24299474D02*
X27717232Y-24342331D01*
X27717232Y-24342331D02*
X27764851Y-24428045D01*
X27764851Y-24428045D02*
X27764851Y-24513760D01*
X27764851Y-24513760D02*
X27717232Y-24642331D01*
X27717232Y-24642331D02*
X27145804Y-25156617D01*
X27145804Y-25156617D02*
X27764851Y-25156617D01*
X28621994Y-24256617D02*
X28431518Y-24256617D01*
X28431518Y-24256617D02*
X28336280Y-24299474D01*
X28336280Y-24299474D02*
X28288661Y-24342331D01*
X28288661Y-24342331D02*
X28193423Y-24470902D01*
X28193423Y-24470902D02*
X28145804Y-24642331D01*
X28145804Y-24642331D02*
X28145804Y-24985188D01*
X28145804Y-24985188D02*
X28193423Y-25070902D01*
X28193423Y-25070902D02*
X28241042Y-25113760D01*
X28241042Y-25113760D02*
X28336280Y-25156617D01*
X28336280Y-25156617D02*
X28526756Y-25156617D01*
X28526756Y-25156617D02*
X28621994Y-25113760D01*
X28621994Y-25113760D02*
X28669613Y-25070902D01*
X28669613Y-25070902D02*
X28717232Y-24985188D01*
X28717232Y-24985188D02*
X28717232Y-24770902D01*
X28717232Y-24770902D02*
X28669613Y-24685188D01*
X28669613Y-24685188D02*
X28621994Y-24642331D01*
X28621994Y-24642331D02*
X28526756Y-24599474D01*
X28526756Y-24599474D02*
X28336280Y-24599474D01*
X28336280Y-24599474D02*
X28241042Y-24642331D01*
X28241042Y-24642331D02*
X28193423Y-24685188D01*
X28193423Y-24685188D02*
X28145804Y-24770902D01*
X4285804Y-24256617D02*
X4952470Y-24256617D01*
X4952470Y-24256617D02*
X4523899Y-25156617D01*
X5761994Y-24556617D02*
X5761994Y-25156617D01*
X5523899Y-24213760D02*
X5285804Y-24856617D01*
X5285804Y-24856617D02*
X5904851Y-24856617D01*
X47662661Y-24256617D02*
X48034089Y-24256617D01*
X48034089Y-24256617D02*
X47834089Y-24599474D01*
X47834089Y-24599474D02*
X47919804Y-24599474D01*
X47919804Y-24599474D02*
X47976947Y-24642331D01*
X47976947Y-24642331D02*
X48005518Y-24685188D01*
X48005518Y-24685188D02*
X48034089Y-24770902D01*
X48034089Y-24770902D02*
X48034089Y-24985188D01*
X48034089Y-24985188D02*
X48005518Y-25070902D01*
X48005518Y-25070902D02*
X47976947Y-25113760D01*
X47976947Y-25113760D02*
X47919804Y-25156617D01*
X47919804Y-25156617D02*
X47748375Y-25156617D01*
X47748375Y-25156617D02*
X47691232Y-25113760D01*
X47691232Y-25113760D02*
X47662661Y-25070902D01*
X48205518Y-24256617D02*
X48405518Y-25156617D01*
X48405518Y-25156617D02*
X48605518Y-24256617D01*
X48748376Y-24256617D02*
X49119804Y-24256617D01*
X49119804Y-24256617D02*
X48919804Y-24599474D01*
X48919804Y-24599474D02*
X49005519Y-24599474D01*
X49005519Y-24599474D02*
X49062662Y-24642331D01*
X49062662Y-24642331D02*
X49091233Y-24685188D01*
X49091233Y-24685188D02*
X49119804Y-24770902D01*
X49119804Y-24770902D02*
X49119804Y-24985188D01*
X49119804Y-24985188D02*
X49091233Y-25070902D01*
X49091233Y-25070902D02*
X49062662Y-25113760D01*
X49062662Y-25113760D02*
X49005519Y-25156617D01*
X49005519Y-25156617D02*
X48834090Y-25156617D01*
X48834090Y-25156617D02*
X48776947Y-25113760D01*
X48776947Y-25113760D02*
X48748376Y-25070902D01*
X9603899Y-24642331D02*
X9508661Y-24599474D01*
X9508661Y-24599474D02*
X9461042Y-24556617D01*
X9461042Y-24556617D02*
X9413423Y-24470902D01*
X9413423Y-24470902D02*
X9413423Y-24428045D01*
X9413423Y-24428045D02*
X9461042Y-24342331D01*
X9461042Y-24342331D02*
X9508661Y-24299474D01*
X9508661Y-24299474D02*
X9603899Y-24256617D01*
X9603899Y-24256617D02*
X9794375Y-24256617D01*
X9794375Y-24256617D02*
X9889613Y-24299474D01*
X9889613Y-24299474D02*
X9937232Y-24342331D01*
X9937232Y-24342331D02*
X9984851Y-24428045D01*
X9984851Y-24428045D02*
X9984851Y-24470902D01*
X9984851Y-24470902D02*
X9937232Y-24556617D01*
X9937232Y-24556617D02*
X9889613Y-24599474D01*
X9889613Y-24599474D02*
X9794375Y-24642331D01*
X9794375Y-24642331D02*
X9603899Y-24642331D01*
X9603899Y-24642331D02*
X9508661Y-24685188D01*
X9508661Y-24685188D02*
X9461042Y-24728045D01*
X9461042Y-24728045D02*
X9413423Y-24813760D01*
X9413423Y-24813760D02*
X9413423Y-24985188D01*
X9413423Y-24985188D02*
X9461042Y-25070902D01*
X9461042Y-25070902D02*
X9508661Y-25113760D01*
X9508661Y-25113760D02*
X9603899Y-25156617D01*
X9603899Y-25156617D02*
X9794375Y-25156617D01*
X9794375Y-25156617D02*
X9889613Y-25113760D01*
X9889613Y-25113760D02*
X9937232Y-25070902D01*
X9937232Y-25070902D02*
X9984851Y-24985188D01*
X9984851Y-24985188D02*
X9984851Y-24813760D01*
X9984851Y-24813760D02*
X9937232Y-24728045D01*
X9937232Y-24728045D02*
X9889613Y-24685188D01*
X9889613Y-24685188D02*
X9794375Y-24642331D01*
X10889613Y-24256617D02*
X10413423Y-24256617D01*
X10413423Y-24256617D02*
X10365804Y-24685188D01*
X10365804Y-24685188D02*
X10413423Y-24642331D01*
X10413423Y-24642331D02*
X10508661Y-24599474D01*
X10508661Y-24599474D02*
X10746756Y-24599474D01*
X10746756Y-24599474D02*
X10841994Y-24642331D01*
X10841994Y-24642331D02*
X10889613Y-24685188D01*
X10889613Y-24685188D02*
X10937232Y-24770902D01*
X10937232Y-24770902D02*
X10937232Y-24985188D01*
X10937232Y-24985188D02*
X10889613Y-25070902D01*
X10889613Y-25070902D02*
X10841994Y-25113760D01*
X10841994Y-25113760D02*
X10746756Y-25156617D01*
X10746756Y-25156617D02*
X10508661Y-25156617D01*
X10508661Y-25156617D02*
X10413423Y-25113760D01*
X10413423Y-25113760D02*
X10365804Y-25070902D01*
X17604851Y-25156617D02*
X17033423Y-25156617D01*
X17319137Y-25156617D02*
X17319137Y-24256617D01*
X17319137Y-24256617D02*
X17223899Y-24385188D01*
X17223899Y-24385188D02*
X17128661Y-24470902D01*
X17128661Y-24470902D02*
X17033423Y-24513760D01*
X18461994Y-24256617D02*
X18271518Y-24256617D01*
X18271518Y-24256617D02*
X18176280Y-24299474D01*
X18176280Y-24299474D02*
X18128661Y-24342331D01*
X18128661Y-24342331D02*
X18033423Y-24470902D01*
X18033423Y-24470902D02*
X17985804Y-24642331D01*
X17985804Y-24642331D02*
X17985804Y-24985188D01*
X17985804Y-24985188D02*
X18033423Y-25070902D01*
X18033423Y-25070902D02*
X18081042Y-25113760D01*
X18081042Y-25113760D02*
X18176280Y-25156617D01*
X18176280Y-25156617D02*
X18366756Y-25156617D01*
X18366756Y-25156617D02*
X18461994Y-25113760D01*
X18461994Y-25113760D02*
X18509613Y-25070902D01*
X18509613Y-25070902D02*
X18557232Y-24985188D01*
X18557232Y-24985188D02*
X18557232Y-24770902D01*
X18557232Y-24770902D02*
X18509613Y-24685188D01*
X18509613Y-24685188D02*
X18461994Y-24642331D01*
X18461994Y-24642331D02*
X18366756Y-24599474D01*
X18366756Y-24599474D02*
X18176280Y-24599474D01*
X18176280Y-24599474D02*
X18081042Y-24642331D01*
X18081042Y-24642331D02*
X18033423Y-24685188D01*
X18033423Y-24685188D02*
X17985804Y-24770902D01*
X34765804Y-24256617D02*
X35384851Y-24256617D01*
X35384851Y-24256617D02*
X35051518Y-24599474D01*
X35051518Y-24599474D02*
X35194375Y-24599474D01*
X35194375Y-24599474D02*
X35289613Y-24642331D01*
X35289613Y-24642331D02*
X35337232Y-24685188D01*
X35337232Y-24685188D02*
X35384851Y-24770902D01*
X35384851Y-24770902D02*
X35384851Y-24985188D01*
X35384851Y-24985188D02*
X35337232Y-25070902D01*
X35337232Y-25070902D02*
X35289613Y-25113760D01*
X35289613Y-25113760D02*
X35194375Y-25156617D01*
X35194375Y-25156617D02*
X34908661Y-25156617D01*
X34908661Y-25156617D02*
X34813423Y-25113760D01*
X34813423Y-25113760D02*
X34765804Y-25070902D01*
X36337232Y-25156617D02*
X35765804Y-25156617D01*
X36051518Y-25156617D02*
X36051518Y-24256617D01*
X36051518Y-24256617D02*
X35956280Y-24385188D01*
X35956280Y-24385188D02*
X35861042Y-24470902D01*
X35861042Y-24470902D02*
X35765804Y-24513760D01*
X32225804Y-24256617D02*
X32844851Y-24256617D01*
X32844851Y-24256617D02*
X32511518Y-24599474D01*
X32511518Y-24599474D02*
X32654375Y-24599474D01*
X32654375Y-24599474D02*
X32749613Y-24642331D01*
X32749613Y-24642331D02*
X32797232Y-24685188D01*
X32797232Y-24685188D02*
X32844851Y-24770902D01*
X32844851Y-24770902D02*
X32844851Y-24985188D01*
X32844851Y-24985188D02*
X32797232Y-25070902D01*
X32797232Y-25070902D02*
X32749613Y-25113760D01*
X32749613Y-25113760D02*
X32654375Y-25156617D01*
X32654375Y-25156617D02*
X32368661Y-25156617D01*
X32368661Y-25156617D02*
X32273423Y-25113760D01*
X32273423Y-25113760D02*
X32225804Y-25070902D01*
X33463899Y-24256617D02*
X33559137Y-24256617D01*
X33559137Y-24256617D02*
X33654375Y-24299474D01*
X33654375Y-24299474D02*
X33701994Y-24342331D01*
X33701994Y-24342331D02*
X33749613Y-24428045D01*
X33749613Y-24428045D02*
X33797232Y-24599474D01*
X33797232Y-24599474D02*
X33797232Y-24813760D01*
X33797232Y-24813760D02*
X33749613Y-24985188D01*
X33749613Y-24985188D02*
X33701994Y-25070902D01*
X33701994Y-25070902D02*
X33654375Y-25113760D01*
X33654375Y-25113760D02*
X33559137Y-25156617D01*
X33559137Y-25156617D02*
X33463899Y-25156617D01*
X33463899Y-25156617D02*
X33368661Y-25113760D01*
X33368661Y-25113760D02*
X33321042Y-25070902D01*
X33321042Y-25070902D02*
X33273423Y-24985188D01*
X33273423Y-24985188D02*
X33225804Y-24813760D01*
X33225804Y-24813760D02*
X33225804Y-24599474D01*
X33225804Y-24599474D02*
X33273423Y-24428045D01*
X33273423Y-24428045D02*
X33321042Y-24342331D01*
X33321042Y-24342331D02*
X33368661Y-24299474D01*
X33368661Y-24299474D02*
X33463899Y-24256617D01*
D11*
X254000Y-9525000D02*
X1778000Y-9525000D01*
X1778000Y-15875000D01*
X254000Y-15875000D01*
X254000Y-9525000D01*
X51308000Y-6350000D02*
X53086000Y-6350000D01*
X53086000Y-19050000D01*
X51308000Y-19050000D01*
X51308000Y-6350000D01*
D10*
X45201994Y-8272521D02*
X45011518Y-8272521D01*
X45011518Y-8272521D02*
X45011518Y-7129664D01*
X45011518Y-7129664D02*
X45201994Y-7129664D01*
X45392470Y-7205855D02*
X45849613Y-7205855D01*
X45621041Y-8005855D02*
X45621041Y-7205855D01*
X46116280Y-8005855D02*
X46116280Y-7205855D01*
X46116280Y-7205855D02*
X46573423Y-8005855D01*
X46573423Y-8005855D02*
X46573423Y-7205855D01*
X46916279Y-7282045D02*
X46954375Y-7243950D01*
X46954375Y-7243950D02*
X47030565Y-7205855D01*
X47030565Y-7205855D02*
X47221041Y-7205855D01*
X47221041Y-7205855D02*
X47297232Y-7243950D01*
X47297232Y-7243950D02*
X47335327Y-7282045D01*
X47335327Y-7282045D02*
X47373422Y-7358236D01*
X47373422Y-7358236D02*
X47373422Y-7434426D01*
X47373422Y-7434426D02*
X47335327Y-7548712D01*
X47335327Y-7548712D02*
X46878184Y-8005855D01*
X46878184Y-8005855D02*
X47373422Y-8005855D01*
X47868661Y-7205855D02*
X47944851Y-7205855D01*
X47944851Y-7205855D02*
X48021042Y-7243950D01*
X48021042Y-7243950D02*
X48059137Y-7282045D01*
X48059137Y-7282045D02*
X48097232Y-7358236D01*
X48097232Y-7358236D02*
X48135327Y-7510617D01*
X48135327Y-7510617D02*
X48135327Y-7701093D01*
X48135327Y-7701093D02*
X48097232Y-7853474D01*
X48097232Y-7853474D02*
X48059137Y-7929664D01*
X48059137Y-7929664D02*
X48021042Y-7967760D01*
X48021042Y-7967760D02*
X47944851Y-8005855D01*
X47944851Y-8005855D02*
X47868661Y-8005855D01*
X47868661Y-8005855D02*
X47792470Y-7967760D01*
X47792470Y-7967760D02*
X47754375Y-7929664D01*
X47754375Y-7929664D02*
X47716280Y-7853474D01*
X47716280Y-7853474D02*
X47678184Y-7701093D01*
X47678184Y-7701093D02*
X47678184Y-7510617D01*
X47678184Y-7510617D02*
X47716280Y-7358236D01*
X47716280Y-7358236D02*
X47754375Y-7282045D01*
X47754375Y-7282045D02*
X47792470Y-7243950D01*
X47792470Y-7243950D02*
X47868661Y-7205855D01*
X48478185Y-8005855D02*
X48478185Y-7205855D01*
X48935328Y-8005855D02*
X48592470Y-7548712D01*
X48935328Y-7205855D02*
X48478185Y-7662998D01*
X49659137Y-7205855D02*
X49278185Y-7205855D01*
X49278185Y-7205855D02*
X49240089Y-7586807D01*
X49240089Y-7586807D02*
X49278185Y-7548712D01*
X49278185Y-7548712D02*
X49354375Y-7510617D01*
X49354375Y-7510617D02*
X49544851Y-7510617D01*
X49544851Y-7510617D02*
X49621042Y-7548712D01*
X49621042Y-7548712D02*
X49659137Y-7586807D01*
X49659137Y-7586807D02*
X49697232Y-7662998D01*
X49697232Y-7662998D02*
X49697232Y-7853474D01*
X49697232Y-7853474D02*
X49659137Y-7929664D01*
X49659137Y-7929664D02*
X49621042Y-7967760D01*
X49621042Y-7967760D02*
X49544851Y-8005855D01*
X49544851Y-8005855D02*
X49354375Y-8005855D01*
X49354375Y-8005855D02*
X49278185Y-7967760D01*
X49278185Y-7967760D02*
X49240089Y-7929664D01*
X49925804Y-7205855D02*
X50192471Y-8005855D01*
X50192471Y-8005855D02*
X50459137Y-7205855D01*
X50649613Y-8272521D02*
X50840089Y-8272521D01*
X50840089Y-8272521D02*
X50840089Y-7129664D01*
X50840089Y-7129664D02*
X50649613Y-7129664D01*
X45430566Y-9293855D02*
X45163899Y-8912902D01*
X44973423Y-9293855D02*
X44973423Y-8493855D01*
X44973423Y-8493855D02*
X45278185Y-8493855D01*
X45278185Y-8493855D02*
X45354375Y-8531950D01*
X45354375Y-8531950D02*
X45392470Y-8570045D01*
X45392470Y-8570045D02*
X45430566Y-8646236D01*
X45430566Y-8646236D02*
X45430566Y-8760521D01*
X45430566Y-8760521D02*
X45392470Y-8836712D01*
X45392470Y-8836712D02*
X45354375Y-8874807D01*
X45354375Y-8874807D02*
X45278185Y-8912902D01*
X45278185Y-8912902D02*
X44973423Y-8912902D01*
X46078185Y-9255760D02*
X46001994Y-9293855D01*
X46001994Y-9293855D02*
X45849613Y-9293855D01*
X45849613Y-9293855D02*
X45773423Y-9255760D01*
X45773423Y-9255760D02*
X45735327Y-9179569D01*
X45735327Y-9179569D02*
X45735327Y-8874807D01*
X45735327Y-8874807D02*
X45773423Y-8798617D01*
X45773423Y-8798617D02*
X45849613Y-8760521D01*
X45849613Y-8760521D02*
X46001994Y-8760521D01*
X46001994Y-8760521D02*
X46078185Y-8798617D01*
X46078185Y-8798617D02*
X46116280Y-8874807D01*
X46116280Y-8874807D02*
X46116280Y-8950998D01*
X46116280Y-8950998D02*
X45735327Y-9027188D01*
X46382946Y-8760521D02*
X46573422Y-9293855D01*
X46573422Y-9293855D02*
X46763899Y-8760521D01*
X47068661Y-9217664D02*
X47106756Y-9255760D01*
X47106756Y-9255760D02*
X47068661Y-9293855D01*
X47068661Y-9293855D02*
X47030565Y-9255760D01*
X47030565Y-9255760D02*
X47068661Y-9217664D01*
X47068661Y-9217664D02*
X47068661Y-9293855D01*
X47868660Y-9293855D02*
X47411517Y-9293855D01*
X47640089Y-9293855D02*
X47640089Y-8493855D01*
X47640089Y-8493855D02*
X47563898Y-8608140D01*
X47563898Y-8608140D02*
X47487708Y-8684331D01*
X47487708Y-8684331D02*
X47411517Y-8722426D01*
X48211518Y-9217664D02*
X48249613Y-9255760D01*
X48249613Y-9255760D02*
X48211518Y-9293855D01*
X48211518Y-9293855D02*
X48173422Y-9255760D01*
X48173422Y-9255760D02*
X48211518Y-9217664D01*
X48211518Y-9217664D02*
X48211518Y-9293855D01*
X49011517Y-9293855D02*
X48554374Y-9293855D01*
X48782946Y-9293855D02*
X48782946Y-8493855D01*
X48782946Y-8493855D02*
X48706755Y-8608140D01*
X48706755Y-8608140D02*
X48630565Y-8684331D01*
X48630565Y-8684331D02*
X48554374Y-8722426D01*
X49697232Y-9293855D02*
X49697232Y-8874807D01*
X49697232Y-8874807D02*
X49659137Y-8798617D01*
X49659137Y-8798617D02*
X49582946Y-8760521D01*
X49582946Y-8760521D02*
X49430565Y-8760521D01*
X49430565Y-8760521D02*
X49354375Y-8798617D01*
X49697232Y-9255760D02*
X49621041Y-9293855D01*
X49621041Y-9293855D02*
X49430565Y-9293855D01*
X49430565Y-9293855D02*
X49354375Y-9255760D01*
X49354375Y-9255760D02*
X49316279Y-9179569D01*
X49316279Y-9179569D02*
X49316279Y-9103379D01*
X49316279Y-9103379D02*
X49354375Y-9027188D01*
X49354375Y-9027188D02*
X49430565Y-8989093D01*
X49430565Y-8989093D02*
X49621041Y-8989093D01*
X49621041Y-8989093D02*
X49697232Y-8950998D01*
D12*
X7338720Y-6995219D02*
X6767292Y-6995219D01*
X6767292Y-6995219D02*
X6710149Y-7471409D01*
X6710149Y-7471409D02*
X6767292Y-7423790D01*
X6767292Y-7423790D02*
X6881578Y-7376171D01*
X6881578Y-7376171D02*
X7167292Y-7376171D01*
X7167292Y-7376171D02*
X7281578Y-7423790D01*
X7281578Y-7423790D02*
X7338720Y-7471409D01*
X7338720Y-7471409D02*
X7395863Y-7566647D01*
X7395863Y-7566647D02*
X7395863Y-7804742D01*
X7395863Y-7804742D02*
X7338720Y-7899980D01*
X7338720Y-7899980D02*
X7281578Y-7947600D01*
X7281578Y-7947600D02*
X7167292Y-7995219D01*
X7167292Y-7995219D02*
X6881578Y-7995219D01*
X6881578Y-7995219D02*
X6767292Y-7947600D01*
X6767292Y-7947600D02*
X6710149Y-7899980D01*
X7738720Y-6995219D02*
X8138720Y-7995219D01*
X8138720Y-7995219D02*
X8538720Y-6995219D01*
X9681577Y-6995219D02*
X10367292Y-6995219D01*
X10024434Y-7995219D02*
X10024434Y-6995219D01*
X10938720Y-7995219D02*
X10824435Y-7947600D01*
X10824435Y-7947600D02*
X10767292Y-7899980D01*
X10767292Y-7899980D02*
X10710149Y-7804742D01*
X10710149Y-7804742D02*
X10710149Y-7519028D01*
X10710149Y-7519028D02*
X10767292Y-7423790D01*
X10767292Y-7423790D02*
X10824435Y-7376171D01*
X10824435Y-7376171D02*
X10938720Y-7328552D01*
X10938720Y-7328552D02*
X11110149Y-7328552D01*
X11110149Y-7328552D02*
X11224435Y-7376171D01*
X11224435Y-7376171D02*
X11281578Y-7423790D01*
X11281578Y-7423790D02*
X11338720Y-7519028D01*
X11338720Y-7519028D02*
X11338720Y-7804742D01*
X11338720Y-7804742D02*
X11281578Y-7899980D01*
X11281578Y-7899980D02*
X11224435Y-7947600D01*
X11224435Y-7947600D02*
X11110149Y-7995219D01*
X11110149Y-7995219D02*
X10938720Y-7995219D01*
X12024434Y-7995219D02*
X11910149Y-7947600D01*
X11910149Y-7947600D02*
X11853006Y-7852361D01*
X11853006Y-7852361D02*
X11853006Y-6995219D01*
X12938720Y-7947600D02*
X12824434Y-7995219D01*
X12824434Y-7995219D02*
X12595863Y-7995219D01*
X12595863Y-7995219D02*
X12481577Y-7947600D01*
X12481577Y-7947600D02*
X12424434Y-7852361D01*
X12424434Y-7852361D02*
X12424434Y-7471409D01*
X12424434Y-7471409D02*
X12481577Y-7376171D01*
X12481577Y-7376171D02*
X12595863Y-7328552D01*
X12595863Y-7328552D02*
X12824434Y-7328552D01*
X12824434Y-7328552D02*
X12938720Y-7376171D01*
X12938720Y-7376171D02*
X12995863Y-7471409D01*
X12995863Y-7471409D02*
X12995863Y-7566647D01*
X12995863Y-7566647D02*
X12424434Y-7661885D01*
X13510148Y-7995219D02*
X13510148Y-7328552D01*
X13510148Y-7519028D02*
X13567291Y-7423790D01*
X13567291Y-7423790D02*
X13624434Y-7376171D01*
X13624434Y-7376171D02*
X13738719Y-7328552D01*
X13738719Y-7328552D02*
X13853005Y-7328552D01*
X14767291Y-7995219D02*
X14767291Y-7471409D01*
X14767291Y-7471409D02*
X14710148Y-7376171D01*
X14710148Y-7376171D02*
X14595862Y-7328552D01*
X14595862Y-7328552D02*
X14367291Y-7328552D01*
X14367291Y-7328552D02*
X14253005Y-7376171D01*
X14767291Y-7947600D02*
X14653005Y-7995219D01*
X14653005Y-7995219D02*
X14367291Y-7995219D01*
X14367291Y-7995219D02*
X14253005Y-7947600D01*
X14253005Y-7947600D02*
X14195862Y-7852361D01*
X14195862Y-7852361D02*
X14195862Y-7757123D01*
X14195862Y-7757123D02*
X14253005Y-7661885D01*
X14253005Y-7661885D02*
X14367291Y-7614266D01*
X14367291Y-7614266D02*
X14653005Y-7614266D01*
X14653005Y-7614266D02*
X14767291Y-7566647D01*
X15338719Y-7328552D02*
X15338719Y-7995219D01*
X15338719Y-7423790D02*
X15395862Y-7376171D01*
X15395862Y-7376171D02*
X15510147Y-7328552D01*
X15510147Y-7328552D02*
X15681576Y-7328552D01*
X15681576Y-7328552D02*
X15795862Y-7376171D01*
X15795862Y-7376171D02*
X15853005Y-7471409D01*
X15853005Y-7471409D02*
X15853005Y-7995219D01*
X16253004Y-7328552D02*
X16710147Y-7328552D01*
X16424433Y-6995219D02*
X16424433Y-7852361D01*
X16424433Y-7852361D02*
X16481576Y-7947600D01*
X16481576Y-7947600D02*
X16595861Y-7995219D01*
X16595861Y-7995219D02*
X16710147Y-7995219D01*
X18024433Y-7995219D02*
X18024433Y-6995219D01*
X18595862Y-7328552D02*
X18595862Y-7995219D01*
X18595862Y-7423790D02*
X18653005Y-7376171D01*
X18653005Y-7376171D02*
X18767290Y-7328552D01*
X18767290Y-7328552D02*
X18938719Y-7328552D01*
X18938719Y-7328552D02*
X19053005Y-7376171D01*
X19053005Y-7376171D02*
X19110148Y-7471409D01*
X19110148Y-7471409D02*
X19110148Y-7995219D01*
X19510147Y-7328552D02*
X19967290Y-7328552D01*
X19681576Y-6995219D02*
X19681576Y-7852361D01*
X19681576Y-7852361D02*
X19738719Y-7947600D01*
X19738719Y-7947600D02*
X19853004Y-7995219D01*
X19853004Y-7995219D02*
X19967290Y-7995219D01*
X20824433Y-7947600D02*
X20710147Y-7995219D01*
X20710147Y-7995219D02*
X20481576Y-7995219D01*
X20481576Y-7995219D02*
X20367290Y-7947600D01*
X20367290Y-7947600D02*
X20310147Y-7852361D01*
X20310147Y-7852361D02*
X20310147Y-7471409D01*
X20310147Y-7471409D02*
X20367290Y-7376171D01*
X20367290Y-7376171D02*
X20481576Y-7328552D01*
X20481576Y-7328552D02*
X20710147Y-7328552D01*
X20710147Y-7328552D02*
X20824433Y-7376171D01*
X20824433Y-7376171D02*
X20881576Y-7471409D01*
X20881576Y-7471409D02*
X20881576Y-7566647D01*
X20881576Y-7566647D02*
X20310147Y-7661885D01*
X21395861Y-7995219D02*
X21395861Y-7328552D01*
X21395861Y-7519028D02*
X21453004Y-7423790D01*
X21453004Y-7423790D02*
X21510147Y-7376171D01*
X21510147Y-7376171D02*
X21624432Y-7328552D01*
X21624432Y-7328552D02*
X21738718Y-7328552D01*
X21967289Y-7328552D02*
X22424432Y-7328552D01*
X22138718Y-7995219D02*
X22138718Y-7138076D01*
X22138718Y-7138076D02*
X22195861Y-7042838D01*
X22195861Y-7042838D02*
X22310146Y-6995219D01*
X22310146Y-6995219D02*
X22424432Y-6995219D01*
X23338718Y-7995219D02*
X23338718Y-7471409D01*
X23338718Y-7471409D02*
X23281575Y-7376171D01*
X23281575Y-7376171D02*
X23167289Y-7328552D01*
X23167289Y-7328552D02*
X22938718Y-7328552D01*
X22938718Y-7328552D02*
X22824432Y-7376171D01*
X23338718Y-7947600D02*
X23224432Y-7995219D01*
X23224432Y-7995219D02*
X22938718Y-7995219D01*
X22938718Y-7995219D02*
X22824432Y-7947600D01*
X22824432Y-7947600D02*
X22767289Y-7852361D01*
X22767289Y-7852361D02*
X22767289Y-7757123D01*
X22767289Y-7757123D02*
X22824432Y-7661885D01*
X22824432Y-7661885D02*
X22938718Y-7614266D01*
X22938718Y-7614266D02*
X23224432Y-7614266D01*
X23224432Y-7614266D02*
X23338718Y-7566647D01*
X24424432Y-7947600D02*
X24310146Y-7995219D01*
X24310146Y-7995219D02*
X24081574Y-7995219D01*
X24081574Y-7995219D02*
X23967289Y-7947600D01*
X23967289Y-7947600D02*
X23910146Y-7899980D01*
X23910146Y-7899980D02*
X23853003Y-7804742D01*
X23853003Y-7804742D02*
X23853003Y-7519028D01*
X23853003Y-7519028D02*
X23910146Y-7423790D01*
X23910146Y-7423790D02*
X23967289Y-7376171D01*
X23967289Y-7376171D02*
X24081574Y-7328552D01*
X24081574Y-7328552D02*
X24310146Y-7328552D01*
X24310146Y-7328552D02*
X24424432Y-7376171D01*
X25395860Y-7947600D02*
X25281574Y-7995219D01*
X25281574Y-7995219D02*
X25053003Y-7995219D01*
X25053003Y-7995219D02*
X24938717Y-7947600D01*
X24938717Y-7947600D02*
X24881574Y-7852361D01*
X24881574Y-7852361D02*
X24881574Y-7471409D01*
X24881574Y-7471409D02*
X24938717Y-7376171D01*
X24938717Y-7376171D02*
X25053003Y-7328552D01*
X25053003Y-7328552D02*
X25281574Y-7328552D01*
X25281574Y-7328552D02*
X25395860Y-7376171D01*
X25395860Y-7376171D02*
X25453003Y-7471409D01*
X25453003Y-7471409D02*
X25453003Y-7566647D01*
X25453003Y-7566647D02*
X24881574Y-7661885D01*
X26710145Y-7328552D02*
X27167288Y-7328552D01*
X26881574Y-7995219D02*
X26881574Y-7138076D01*
X26881574Y-7138076D02*
X26938717Y-7042838D01*
X26938717Y-7042838D02*
X27053002Y-6995219D01*
X27053002Y-6995219D02*
X27167288Y-6995219D01*
X27738716Y-7995219D02*
X27624431Y-7947600D01*
X27624431Y-7947600D02*
X27567288Y-7899980D01*
X27567288Y-7899980D02*
X27510145Y-7804742D01*
X27510145Y-7804742D02*
X27510145Y-7519028D01*
X27510145Y-7519028D02*
X27567288Y-7423790D01*
X27567288Y-7423790D02*
X27624431Y-7376171D01*
X27624431Y-7376171D02*
X27738716Y-7328552D01*
X27738716Y-7328552D02*
X27910145Y-7328552D01*
X27910145Y-7328552D02*
X28024431Y-7376171D01*
X28024431Y-7376171D02*
X28081574Y-7423790D01*
X28081574Y-7423790D02*
X28138716Y-7519028D01*
X28138716Y-7519028D02*
X28138716Y-7804742D01*
X28138716Y-7804742D02*
X28081574Y-7899980D01*
X28081574Y-7899980D02*
X28024431Y-7947600D01*
X28024431Y-7947600D02*
X27910145Y-7995219D01*
X27910145Y-7995219D02*
X27738716Y-7995219D01*
X28653002Y-7995219D02*
X28653002Y-7328552D01*
X28653002Y-7519028D02*
X28710145Y-7423790D01*
X28710145Y-7423790D02*
X28767288Y-7376171D01*
X28767288Y-7376171D02*
X28881573Y-7328552D01*
X28881573Y-7328552D02*
X28995859Y-7328552D01*
X30138716Y-6995219D02*
X30824431Y-6995219D01*
X30481573Y-7995219D02*
X30481573Y-6995219D01*
X31738717Y-7995219D02*
X31738717Y-7471409D01*
X31738717Y-7471409D02*
X31681574Y-7376171D01*
X31681574Y-7376171D02*
X31567288Y-7328552D01*
X31567288Y-7328552D02*
X31338717Y-7328552D01*
X31338717Y-7328552D02*
X31224431Y-7376171D01*
X31738717Y-7947600D02*
X31624431Y-7995219D01*
X31624431Y-7995219D02*
X31338717Y-7995219D01*
X31338717Y-7995219D02*
X31224431Y-7947600D01*
X31224431Y-7947600D02*
X31167288Y-7852361D01*
X31167288Y-7852361D02*
X31167288Y-7757123D01*
X31167288Y-7757123D02*
X31224431Y-7661885D01*
X31224431Y-7661885D02*
X31338717Y-7614266D01*
X31338717Y-7614266D02*
X31624431Y-7614266D01*
X31624431Y-7614266D02*
X31738717Y-7566647D01*
X32310145Y-7328552D02*
X32310145Y-7995219D01*
X32310145Y-7423790D02*
X32367288Y-7376171D01*
X32367288Y-7376171D02*
X32481573Y-7328552D01*
X32481573Y-7328552D02*
X32653002Y-7328552D01*
X32653002Y-7328552D02*
X32767288Y-7376171D01*
X32767288Y-7376171D02*
X32824431Y-7471409D01*
X32824431Y-7471409D02*
X32824431Y-7995219D01*
X33910145Y-7328552D02*
X33910145Y-8138076D01*
X33910145Y-8138076D02*
X33853002Y-8233314D01*
X33853002Y-8233314D02*
X33795859Y-8280933D01*
X33795859Y-8280933D02*
X33681573Y-8328552D01*
X33681573Y-8328552D02*
X33510145Y-8328552D01*
X33510145Y-8328552D02*
X33395859Y-8280933D01*
X33910145Y-7947600D02*
X33795859Y-7995219D01*
X33795859Y-7995219D02*
X33567287Y-7995219D01*
X33567287Y-7995219D02*
X33453002Y-7947600D01*
X33453002Y-7947600D02*
X33395859Y-7899980D01*
X33395859Y-7899980D02*
X33338716Y-7804742D01*
X33338716Y-7804742D02*
X33338716Y-7519028D01*
X33338716Y-7519028D02*
X33395859Y-7423790D01*
X33395859Y-7423790D02*
X33453002Y-7376171D01*
X33453002Y-7376171D02*
X33567287Y-7328552D01*
X33567287Y-7328552D02*
X33795859Y-7328552D01*
X33795859Y-7328552D02*
X33910145Y-7376171D01*
X35395859Y-7995219D02*
X35395859Y-6995219D01*
X35395859Y-6995219D02*
X36081573Y-7995219D01*
X36081573Y-7995219D02*
X36081573Y-6995219D01*
X37167288Y-7995219D02*
X37167288Y-7471409D01*
X37167288Y-7471409D02*
X37110145Y-7376171D01*
X37110145Y-7376171D02*
X36995859Y-7328552D01*
X36995859Y-7328552D02*
X36767288Y-7328552D01*
X36767288Y-7328552D02*
X36653002Y-7376171D01*
X37167288Y-7947600D02*
X37053002Y-7995219D01*
X37053002Y-7995219D02*
X36767288Y-7995219D01*
X36767288Y-7995219D02*
X36653002Y-7947600D01*
X36653002Y-7947600D02*
X36595859Y-7852361D01*
X36595859Y-7852361D02*
X36595859Y-7757123D01*
X36595859Y-7757123D02*
X36653002Y-7661885D01*
X36653002Y-7661885D02*
X36767288Y-7614266D01*
X36767288Y-7614266D02*
X37053002Y-7614266D01*
X37053002Y-7614266D02*
X37167288Y-7566647D01*
X37738716Y-7328552D02*
X37738716Y-7995219D01*
X37738716Y-7423790D02*
X37795859Y-7376171D01*
X37795859Y-7376171D02*
X37910144Y-7328552D01*
X37910144Y-7328552D02*
X38081573Y-7328552D01*
X38081573Y-7328552D02*
X38195859Y-7376171D01*
X38195859Y-7376171D02*
X38253002Y-7471409D01*
X38253002Y-7471409D02*
X38253002Y-7995219D01*
X38995858Y-7995219D02*
X38881573Y-7947600D01*
X38881573Y-7947600D02*
X38824430Y-7899980D01*
X38824430Y-7899980D02*
X38767287Y-7804742D01*
X38767287Y-7804742D02*
X38767287Y-7519028D01*
X38767287Y-7519028D02*
X38824430Y-7423790D01*
X38824430Y-7423790D02*
X38881573Y-7376171D01*
X38881573Y-7376171D02*
X38995858Y-7328552D01*
X38995858Y-7328552D02*
X39167287Y-7328552D01*
X39167287Y-7328552D02*
X39281573Y-7376171D01*
X39281573Y-7376171D02*
X39338716Y-7423790D01*
X39338716Y-7423790D02*
X39395858Y-7519028D01*
X39395858Y-7519028D02*
X39395858Y-7804742D01*
X39395858Y-7804742D02*
X39338716Y-7899980D01*
X39338716Y-7899980D02*
X39281573Y-7947600D01*
X39281573Y-7947600D02*
X39167287Y-7995219D01*
X39167287Y-7995219D02*
X38995858Y-7995219D01*
X40767287Y-7090457D02*
X40824430Y-7042838D01*
X40824430Y-7042838D02*
X40938716Y-6995219D01*
X40938716Y-6995219D02*
X41224430Y-6995219D01*
X41224430Y-6995219D02*
X41338716Y-7042838D01*
X41338716Y-7042838D02*
X41395858Y-7090457D01*
X41395858Y-7090457D02*
X41453001Y-7185695D01*
X41453001Y-7185695D02*
X41453001Y-7280933D01*
X41453001Y-7280933D02*
X41395858Y-7423790D01*
X41395858Y-7423790D02*
X40710144Y-7995219D01*
X40710144Y-7995219D02*
X41453001Y-7995219D01*
X42195858Y-6995219D02*
X42310144Y-6995219D01*
X42310144Y-6995219D02*
X42424430Y-7042838D01*
X42424430Y-7042838D02*
X42481573Y-7090457D01*
X42481573Y-7090457D02*
X42538715Y-7185695D01*
X42538715Y-7185695D02*
X42595858Y-7376171D01*
X42595858Y-7376171D02*
X42595858Y-7614266D01*
X42595858Y-7614266D02*
X42538715Y-7804742D01*
X42538715Y-7804742D02*
X42481573Y-7899980D01*
X42481573Y-7899980D02*
X42424430Y-7947600D01*
X42424430Y-7947600D02*
X42310144Y-7995219D01*
X42310144Y-7995219D02*
X42195858Y-7995219D01*
X42195858Y-7995219D02*
X42081573Y-7947600D01*
X42081573Y-7947600D02*
X42024430Y-7899980D01*
X42024430Y-7899980D02*
X41967287Y-7804742D01*
X41967287Y-7804742D02*
X41910144Y-7614266D01*
X41910144Y-7614266D02*
X41910144Y-7376171D01*
X41910144Y-7376171D02*
X41967287Y-7185695D01*
X41967287Y-7185695D02*
X42024430Y-7090457D01*
X42024430Y-7090457D02*
X42081573Y-7042838D01*
X42081573Y-7042838D02*
X42195858Y-6995219D01*
X43110144Y-7995219D02*
X43110144Y-6995219D01*
X43795858Y-7995219D02*
X43281572Y-7423790D01*
X43795858Y-6995219D02*
X43110144Y-7566647D01*
D11*
X46698819Y-14096904D02*
X47508342Y-14096904D01*
X47508342Y-14096904D02*
X47603580Y-14049285D01*
X47603580Y-14049285D02*
X47651200Y-14001666D01*
X47651200Y-14001666D02*
X47698819Y-13906428D01*
X47698819Y-13906428D02*
X47698819Y-13715952D01*
X47698819Y-13715952D02*
X47651200Y-13620714D01*
X47651200Y-13620714D02*
X47603580Y-13573095D01*
X47603580Y-13573095D02*
X47508342Y-13525476D01*
X47508342Y-13525476D02*
X46698819Y-13525476D01*
X46698819Y-12573095D02*
X46698819Y-13049285D01*
X46698819Y-13049285D02*
X47175009Y-13096904D01*
X47175009Y-13096904D02*
X47127390Y-13049285D01*
X47127390Y-13049285D02*
X47079771Y-12954047D01*
X47079771Y-12954047D02*
X47079771Y-12715952D01*
X47079771Y-12715952D02*
X47127390Y-12620714D01*
X47127390Y-12620714D02*
X47175009Y-12573095D01*
X47175009Y-12573095D02*
X47270247Y-12525476D01*
X47270247Y-12525476D02*
X47508342Y-12525476D01*
X47508342Y-12525476D02*
X47603580Y-12573095D01*
X47603580Y-12573095D02*
X47651200Y-12620714D01*
X47651200Y-12620714D02*
X47698819Y-12715952D01*
X47698819Y-12715952D02*
X47698819Y-12954047D01*
X47698819Y-12954047D02*
X47651200Y-13049285D01*
X47651200Y-13049285D02*
X47603580Y-13096904D01*
D13*
X45241695Y-18703704D02*
X45203599Y-18741800D01*
X45203599Y-18741800D02*
X45089314Y-18779895D01*
X45089314Y-18779895D02*
X45013123Y-18779895D01*
X45013123Y-18779895D02*
X44898837Y-18741800D01*
X44898837Y-18741800D02*
X44822647Y-18665609D01*
X44822647Y-18665609D02*
X44784552Y-18589419D01*
X44784552Y-18589419D02*
X44746456Y-18437038D01*
X44746456Y-18437038D02*
X44746456Y-18322752D01*
X44746456Y-18322752D02*
X44784552Y-18170371D01*
X44784552Y-18170371D02*
X44822647Y-18094180D01*
X44822647Y-18094180D02*
X44898837Y-18017990D01*
X44898837Y-18017990D02*
X45013123Y-17979895D01*
X45013123Y-17979895D02*
X45089314Y-17979895D01*
X45089314Y-17979895D02*
X45203599Y-18017990D01*
X45203599Y-18017990D02*
X45241695Y-18056085D01*
X45851218Y-18360847D02*
X45965504Y-18398942D01*
X45965504Y-18398942D02*
X46003599Y-18437038D01*
X46003599Y-18437038D02*
X46041695Y-18513228D01*
X46041695Y-18513228D02*
X46041695Y-18627514D01*
X46041695Y-18627514D02*
X46003599Y-18703704D01*
X46003599Y-18703704D02*
X45965504Y-18741800D01*
X45965504Y-18741800D02*
X45889314Y-18779895D01*
X45889314Y-18779895D02*
X45584552Y-18779895D01*
X45584552Y-18779895D02*
X45584552Y-17979895D01*
X45584552Y-17979895D02*
X45851218Y-17979895D01*
X45851218Y-17979895D02*
X45927409Y-18017990D01*
X45927409Y-18017990D02*
X45965504Y-18056085D01*
X45965504Y-18056085D02*
X46003599Y-18132276D01*
X46003599Y-18132276D02*
X46003599Y-18208466D01*
X46003599Y-18208466D02*
X45965504Y-18284657D01*
X45965504Y-18284657D02*
X45927409Y-18322752D01*
X45927409Y-18322752D02*
X45851218Y-18360847D01*
X45851218Y-18360847D02*
X45584552Y-18360847D01*
X46308361Y-17979895D02*
X46803599Y-17979895D01*
X46803599Y-17979895D02*
X46536933Y-18284657D01*
X46536933Y-18284657D02*
X46651218Y-18284657D01*
X46651218Y-18284657D02*
X46727409Y-18322752D01*
X46727409Y-18322752D02*
X46765504Y-18360847D01*
X46765504Y-18360847D02*
X46803599Y-18437038D01*
X46803599Y-18437038D02*
X46803599Y-18627514D01*
X46803599Y-18627514D02*
X46765504Y-18703704D01*
X46765504Y-18703704D02*
X46727409Y-18741800D01*
X46727409Y-18741800D02*
X46651218Y-18779895D01*
X46651218Y-18779895D02*
X46422647Y-18779895D01*
X46422647Y-18779895D02*
X46346456Y-18741800D01*
X46346456Y-18741800D02*
X46308361Y-18703704D01*
X47032171Y-17979895D02*
X47489314Y-17979895D01*
X47260742Y-18779895D02*
X47260742Y-17979895D01*
X47679790Y-17979895D02*
X48175028Y-17979895D01*
X48175028Y-17979895D02*
X47908362Y-18284657D01*
X47908362Y-18284657D02*
X48022647Y-18284657D01*
X48022647Y-18284657D02*
X48098838Y-18322752D01*
X48098838Y-18322752D02*
X48136933Y-18360847D01*
X48136933Y-18360847D02*
X48175028Y-18437038D01*
X48175028Y-18437038D02*
X48175028Y-18627514D01*
X48175028Y-18627514D02*
X48136933Y-18703704D01*
X48136933Y-18703704D02*
X48098838Y-18741800D01*
X48098838Y-18741800D02*
X48022647Y-18779895D01*
X48022647Y-18779895D02*
X47794076Y-18779895D01*
X47794076Y-18779895D02*
X47717885Y-18741800D01*
X47717885Y-18741800D02*
X47679790Y-18703704D01*
X48479790Y-18056085D02*
X48517886Y-18017990D01*
X48517886Y-18017990D02*
X48594076Y-17979895D01*
X48594076Y-17979895D02*
X48784552Y-17979895D01*
X48784552Y-17979895D02*
X48860743Y-18017990D01*
X48860743Y-18017990D02*
X48898838Y-18056085D01*
X48898838Y-18056085D02*
X48936933Y-18132276D01*
X48936933Y-18132276D02*
X48936933Y-18208466D01*
X48936933Y-18208466D02*
X48898838Y-18322752D01*
X48898838Y-18322752D02*
X48441695Y-18779895D01*
X48441695Y-18779895D02*
X48936933Y-18779895D01*
X49622648Y-18246561D02*
X49622648Y-18779895D01*
X49432172Y-17941800D02*
X49241695Y-18513228D01*
X49241695Y-18513228D02*
X49736934Y-18513228D01*
X50422648Y-17979895D02*
X50041696Y-17979895D01*
X50041696Y-17979895D02*
X50003600Y-18360847D01*
X50003600Y-18360847D02*
X50041696Y-18322752D01*
X50041696Y-18322752D02*
X50117886Y-18284657D01*
X50117886Y-18284657D02*
X50308362Y-18284657D01*
X50308362Y-18284657D02*
X50384553Y-18322752D01*
X50384553Y-18322752D02*
X50422648Y-18360847D01*
X50422648Y-18360847D02*
X50460743Y-18437038D01*
X50460743Y-18437038D02*
X50460743Y-18627514D01*
X50460743Y-18627514D02*
X50422648Y-18703704D01*
X50422648Y-18703704D02*
X50384553Y-18741800D01*
X50384553Y-18741800D02*
X50308362Y-18779895D01*
X50308362Y-18779895D02*
X50117886Y-18779895D01*
X50117886Y-18779895D02*
X50041696Y-18741800D01*
X50041696Y-18741800D02*
X50003600Y-18703704D01*
D11*
X43781819Y-17144999D02*
X44019914Y-17144999D01*
X43924676Y-17383094D02*
X44019914Y-17144999D01*
X44019914Y-17144999D02*
X43924676Y-16906904D01*
X44210390Y-17287856D02*
X44019914Y-17144999D01*
X44019914Y-17144999D02*
X44210390Y-17002142D01*
X197295Y-2806666D02*
X768723Y-2806666D01*
X768723Y-2806666D02*
X883009Y-2844761D01*
X883009Y-2844761D02*
X959200Y-2920952D01*
X959200Y-2920952D02*
X997295Y-3035237D01*
X997295Y-3035237D02*
X997295Y-3111428D01*
X273485Y-2463809D02*
X235390Y-2425713D01*
X235390Y-2425713D02*
X197295Y-2349523D01*
X197295Y-2349523D02*
X197295Y-2159047D01*
X197295Y-2159047D02*
X235390Y-2082856D01*
X235390Y-2082856D02*
X273485Y-2044761D01*
X273485Y-2044761D02*
X349676Y-2006666D01*
X349676Y-2006666D02*
X425866Y-2006666D01*
X425866Y-2006666D02*
X540152Y-2044761D01*
X540152Y-2044761D02*
X997295Y-2501904D01*
X997295Y-2501904D02*
X997295Y-2006666D01*
X16218819Y-14071504D02*
X17028342Y-14071504D01*
X17028342Y-14071504D02*
X17123580Y-14023885D01*
X17123580Y-14023885D02*
X17171200Y-13976266D01*
X17171200Y-13976266D02*
X17218819Y-13881028D01*
X17218819Y-13881028D02*
X17218819Y-13690552D01*
X17218819Y-13690552D02*
X17171200Y-13595314D01*
X17171200Y-13595314D02*
X17123580Y-13547695D01*
X17123580Y-13547695D02*
X17028342Y-13500076D01*
X17028342Y-13500076D02*
X16218819Y-13500076D01*
X16314057Y-13071504D02*
X16266438Y-13023885D01*
X16266438Y-13023885D02*
X16218819Y-12928647D01*
X16218819Y-12928647D02*
X16218819Y-12690552D01*
X16218819Y-12690552D02*
X16266438Y-12595314D01*
X16266438Y-12595314D02*
X16314057Y-12547695D01*
X16314057Y-12547695D02*
X16409295Y-12500076D01*
X16409295Y-12500076D02*
X16504533Y-12500076D01*
X16504533Y-12500076D02*
X16647390Y-12547695D01*
X16647390Y-12547695D02*
X17218819Y-13119123D01*
X17218819Y-13119123D02*
X17218819Y-12500076D01*
D13*
X14761695Y-18678304D02*
X14723599Y-18716400D01*
X14723599Y-18716400D02*
X14609314Y-18754495D01*
X14609314Y-18754495D02*
X14533123Y-18754495D01*
X14533123Y-18754495D02*
X14418837Y-18716400D01*
X14418837Y-18716400D02*
X14342647Y-18640209D01*
X14342647Y-18640209D02*
X14304552Y-18564019D01*
X14304552Y-18564019D02*
X14266456Y-18411638D01*
X14266456Y-18411638D02*
X14266456Y-18297352D01*
X14266456Y-18297352D02*
X14304552Y-18144971D01*
X14304552Y-18144971D02*
X14342647Y-18068780D01*
X14342647Y-18068780D02*
X14418837Y-17992590D01*
X14418837Y-17992590D02*
X14533123Y-17954495D01*
X14533123Y-17954495D02*
X14609314Y-17954495D01*
X14609314Y-17954495D02*
X14723599Y-17992590D01*
X14723599Y-17992590D02*
X14761695Y-18030685D01*
X15371218Y-18335447D02*
X15485504Y-18373542D01*
X15485504Y-18373542D02*
X15523599Y-18411638D01*
X15523599Y-18411638D02*
X15561695Y-18487828D01*
X15561695Y-18487828D02*
X15561695Y-18602114D01*
X15561695Y-18602114D02*
X15523599Y-18678304D01*
X15523599Y-18678304D02*
X15485504Y-18716400D01*
X15485504Y-18716400D02*
X15409314Y-18754495D01*
X15409314Y-18754495D02*
X15104552Y-18754495D01*
X15104552Y-18754495D02*
X15104552Y-17954495D01*
X15104552Y-17954495D02*
X15371218Y-17954495D01*
X15371218Y-17954495D02*
X15447409Y-17992590D01*
X15447409Y-17992590D02*
X15485504Y-18030685D01*
X15485504Y-18030685D02*
X15523599Y-18106876D01*
X15523599Y-18106876D02*
X15523599Y-18183066D01*
X15523599Y-18183066D02*
X15485504Y-18259257D01*
X15485504Y-18259257D02*
X15447409Y-18297352D01*
X15447409Y-18297352D02*
X15371218Y-18335447D01*
X15371218Y-18335447D02*
X15104552Y-18335447D01*
X15828361Y-17954495D02*
X16323599Y-17954495D01*
X16323599Y-17954495D02*
X16056933Y-18259257D01*
X16056933Y-18259257D02*
X16171218Y-18259257D01*
X16171218Y-18259257D02*
X16247409Y-18297352D01*
X16247409Y-18297352D02*
X16285504Y-18335447D01*
X16285504Y-18335447D02*
X16323599Y-18411638D01*
X16323599Y-18411638D02*
X16323599Y-18602114D01*
X16323599Y-18602114D02*
X16285504Y-18678304D01*
X16285504Y-18678304D02*
X16247409Y-18716400D01*
X16247409Y-18716400D02*
X16171218Y-18754495D01*
X16171218Y-18754495D02*
X15942647Y-18754495D01*
X15942647Y-18754495D02*
X15866456Y-18716400D01*
X15866456Y-18716400D02*
X15828361Y-18678304D01*
X16552171Y-17954495D02*
X17009314Y-17954495D01*
X16780742Y-18754495D02*
X16780742Y-17954495D01*
X17199790Y-17954495D02*
X17695028Y-17954495D01*
X17695028Y-17954495D02*
X17428362Y-18259257D01*
X17428362Y-18259257D02*
X17542647Y-18259257D01*
X17542647Y-18259257D02*
X17618838Y-18297352D01*
X17618838Y-18297352D02*
X17656933Y-18335447D01*
X17656933Y-18335447D02*
X17695028Y-18411638D01*
X17695028Y-18411638D02*
X17695028Y-18602114D01*
X17695028Y-18602114D02*
X17656933Y-18678304D01*
X17656933Y-18678304D02*
X17618838Y-18716400D01*
X17618838Y-18716400D02*
X17542647Y-18754495D01*
X17542647Y-18754495D02*
X17314076Y-18754495D01*
X17314076Y-18754495D02*
X17237885Y-18716400D01*
X17237885Y-18716400D02*
X17199790Y-18678304D01*
X17999790Y-18030685D02*
X18037886Y-17992590D01*
X18037886Y-17992590D02*
X18114076Y-17954495D01*
X18114076Y-17954495D02*
X18304552Y-17954495D01*
X18304552Y-17954495D02*
X18380743Y-17992590D01*
X18380743Y-17992590D02*
X18418838Y-18030685D01*
X18418838Y-18030685D02*
X18456933Y-18106876D01*
X18456933Y-18106876D02*
X18456933Y-18183066D01*
X18456933Y-18183066D02*
X18418838Y-18297352D01*
X18418838Y-18297352D02*
X17961695Y-18754495D01*
X17961695Y-18754495D02*
X18456933Y-18754495D01*
X19142648Y-18221161D02*
X19142648Y-18754495D01*
X18952172Y-17916400D02*
X18761695Y-18487828D01*
X18761695Y-18487828D02*
X19256934Y-18487828D01*
X19942648Y-17954495D02*
X19561696Y-17954495D01*
X19561696Y-17954495D02*
X19523600Y-18335447D01*
X19523600Y-18335447D02*
X19561696Y-18297352D01*
X19561696Y-18297352D02*
X19637886Y-18259257D01*
X19637886Y-18259257D02*
X19828362Y-18259257D01*
X19828362Y-18259257D02*
X19904553Y-18297352D01*
X19904553Y-18297352D02*
X19942648Y-18335447D01*
X19942648Y-18335447D02*
X19980743Y-18411638D01*
X19980743Y-18411638D02*
X19980743Y-18602114D01*
X19980743Y-18602114D02*
X19942648Y-18678304D01*
X19942648Y-18678304D02*
X19904553Y-18716400D01*
X19904553Y-18716400D02*
X19828362Y-18754495D01*
X19828362Y-18754495D02*
X19637886Y-18754495D01*
X19637886Y-18754495D02*
X19561696Y-18716400D01*
X19561696Y-18716400D02*
X19523600Y-18678304D01*
D11*
X13301819Y-17119599D02*
X13539914Y-17119599D01*
X13444676Y-17357694D02*
X13539914Y-17119599D01*
X13539914Y-17119599D02*
X13444676Y-16881504D01*
X13730390Y-17262456D02*
X13539914Y-17119599D01*
X13539914Y-17119599D02*
X13730390Y-16976742D01*
D13*
X42325704Y-10039332D02*
X42363800Y-10077428D01*
X42363800Y-10077428D02*
X42401895Y-10191713D01*
X42401895Y-10191713D02*
X42401895Y-10267904D01*
X42401895Y-10267904D02*
X42363800Y-10382190D01*
X42363800Y-10382190D02*
X42287609Y-10458380D01*
X42287609Y-10458380D02*
X42211419Y-10496475D01*
X42211419Y-10496475D02*
X42059038Y-10534571D01*
X42059038Y-10534571D02*
X41944752Y-10534571D01*
X41944752Y-10534571D02*
X41792371Y-10496475D01*
X41792371Y-10496475D02*
X41716180Y-10458380D01*
X41716180Y-10458380D02*
X41639990Y-10382190D01*
X41639990Y-10382190D02*
X41601895Y-10267904D01*
X41601895Y-10267904D02*
X41601895Y-10191713D01*
X41601895Y-10191713D02*
X41639990Y-10077428D01*
X41639990Y-10077428D02*
X41678085Y-10039332D01*
X41601895Y-9315523D02*
X41601895Y-9696475D01*
X41601895Y-9696475D02*
X41982847Y-9734571D01*
X41982847Y-9734571D02*
X41944752Y-9696475D01*
X41944752Y-9696475D02*
X41906657Y-9620285D01*
X41906657Y-9620285D02*
X41906657Y-9429809D01*
X41906657Y-9429809D02*
X41944752Y-9353618D01*
X41944752Y-9353618D02*
X41982847Y-9315523D01*
X41982847Y-9315523D02*
X42059038Y-9277428D01*
X42059038Y-9277428D02*
X42249514Y-9277428D01*
X42249514Y-9277428D02*
X42325704Y-9315523D01*
X42325704Y-9315523D02*
X42363800Y-9353618D01*
X42363800Y-9353618D02*
X42401895Y-9429809D01*
X42401895Y-9429809D02*
X42401895Y-9620285D01*
X42401895Y-9620285D02*
X42363800Y-9696475D01*
X42363800Y-9696475D02*
X42325704Y-9734571D01*
X11845704Y-10039332D02*
X11883800Y-10077428D01*
X11883800Y-10077428D02*
X11921895Y-10191713D01*
X11921895Y-10191713D02*
X11921895Y-10267904D01*
X11921895Y-10267904D02*
X11883800Y-10382190D01*
X11883800Y-10382190D02*
X11807609Y-10458380D01*
X11807609Y-10458380D02*
X11731419Y-10496475D01*
X11731419Y-10496475D02*
X11579038Y-10534571D01*
X11579038Y-10534571D02*
X11464752Y-10534571D01*
X11464752Y-10534571D02*
X11312371Y-10496475D01*
X11312371Y-10496475D02*
X11236180Y-10458380D01*
X11236180Y-10458380D02*
X11159990Y-10382190D01*
X11159990Y-10382190D02*
X11121895Y-10267904D01*
X11121895Y-10267904D02*
X11121895Y-10191713D01*
X11121895Y-10191713D02*
X11159990Y-10077428D01*
X11159990Y-10077428D02*
X11198085Y-10039332D01*
X11198085Y-9734571D02*
X11159990Y-9696475D01*
X11159990Y-9696475D02*
X11121895Y-9620285D01*
X11121895Y-9620285D02*
X11121895Y-9429809D01*
X11121895Y-9429809D02*
X11159990Y-9353618D01*
X11159990Y-9353618D02*
X11198085Y-9315523D01*
X11198085Y-9315523D02*
X11274276Y-9277428D01*
X11274276Y-9277428D02*
X11350466Y-9277428D01*
X11350466Y-9277428D02*
X11464752Y-9315523D01*
X11464752Y-9315523D02*
X11921895Y-9772666D01*
X11921895Y-9772666D02*
X11921895Y-9277428D01*
D11*
X197295Y-23126666D02*
X768723Y-23126666D01*
X768723Y-23126666D02*
X883009Y-23164761D01*
X883009Y-23164761D02*
X959200Y-23240952D01*
X959200Y-23240952D02*
X997295Y-23355237D01*
X997295Y-23355237D02*
X997295Y-23431428D01*
X997295Y-22326666D02*
X997295Y-22783809D01*
X997295Y-22555237D02*
X197295Y-22555237D01*
X197295Y-22555237D02*
X311580Y-22631428D01*
X311580Y-22631428D02*
X387771Y-22707618D01*
X387771Y-22707618D02*
X425866Y-22783809D01*
D13*
X32165704Y-10039332D02*
X32203800Y-10077428D01*
X32203800Y-10077428D02*
X32241895Y-10191713D01*
X32241895Y-10191713D02*
X32241895Y-10267904D01*
X32241895Y-10267904D02*
X32203800Y-10382190D01*
X32203800Y-10382190D02*
X32127609Y-10458380D01*
X32127609Y-10458380D02*
X32051419Y-10496475D01*
X32051419Y-10496475D02*
X31899038Y-10534571D01*
X31899038Y-10534571D02*
X31784752Y-10534571D01*
X31784752Y-10534571D02*
X31632371Y-10496475D01*
X31632371Y-10496475D02*
X31556180Y-10458380D01*
X31556180Y-10458380D02*
X31479990Y-10382190D01*
X31479990Y-10382190D02*
X31441895Y-10267904D01*
X31441895Y-10267904D02*
X31441895Y-10191713D01*
X31441895Y-10191713D02*
X31479990Y-10077428D01*
X31479990Y-10077428D02*
X31518085Y-10039332D01*
X31708561Y-9353618D02*
X32241895Y-9353618D01*
X31403800Y-9544094D02*
X31975228Y-9734571D01*
X31975228Y-9734571D02*
X31975228Y-9239332D01*
X4098704Y-8261332D02*
X4136800Y-8299428D01*
X4136800Y-8299428D02*
X4174895Y-8413713D01*
X4174895Y-8413713D02*
X4174895Y-8489904D01*
X4174895Y-8489904D02*
X4136800Y-8604190D01*
X4136800Y-8604190D02*
X4060609Y-8680380D01*
X4060609Y-8680380D02*
X3984419Y-8718475D01*
X3984419Y-8718475D02*
X3832038Y-8756571D01*
X3832038Y-8756571D02*
X3717752Y-8756571D01*
X3717752Y-8756571D02*
X3565371Y-8718475D01*
X3565371Y-8718475D02*
X3489180Y-8680380D01*
X3489180Y-8680380D02*
X3412990Y-8604190D01*
X3412990Y-8604190D02*
X3374895Y-8489904D01*
X3374895Y-8489904D02*
X3374895Y-8413713D01*
X3374895Y-8413713D02*
X3412990Y-8299428D01*
X3412990Y-8299428D02*
X3451085Y-8261332D01*
X4174895Y-7499428D02*
X4174895Y-7956571D01*
X4174895Y-7727999D02*
X3374895Y-7727999D01*
X3374895Y-7727999D02*
X3489180Y-7804190D01*
X3489180Y-7804190D02*
X3565371Y-7880380D01*
X3565371Y-7880380D02*
X3603466Y-7956571D01*
D11*
X6058819Y-14071504D02*
X6868342Y-14071504D01*
X6868342Y-14071504D02*
X6963580Y-14023885D01*
X6963580Y-14023885D02*
X7011200Y-13976266D01*
X7011200Y-13976266D02*
X7058819Y-13881028D01*
X7058819Y-13881028D02*
X7058819Y-13690552D01*
X7058819Y-13690552D02*
X7011200Y-13595314D01*
X7011200Y-13595314D02*
X6963580Y-13547695D01*
X6963580Y-13547695D02*
X6868342Y-13500076D01*
X6868342Y-13500076D02*
X6058819Y-13500076D01*
X7058819Y-12500076D02*
X7058819Y-13071504D01*
X7058819Y-12785790D02*
X6058819Y-12785790D01*
X6058819Y-12785790D02*
X6201676Y-12881028D01*
X6201676Y-12881028D02*
X6296914Y-12976266D01*
X6296914Y-12976266D02*
X6344533Y-13071504D01*
D13*
X4750095Y-18678304D02*
X4711999Y-18716400D01*
X4711999Y-18716400D02*
X4597714Y-18754495D01*
X4597714Y-18754495D02*
X4521523Y-18754495D01*
X4521523Y-18754495D02*
X4407237Y-18716400D01*
X4407237Y-18716400D02*
X4331047Y-18640209D01*
X4331047Y-18640209D02*
X4292952Y-18564019D01*
X4292952Y-18564019D02*
X4254856Y-18411638D01*
X4254856Y-18411638D02*
X4254856Y-18297352D01*
X4254856Y-18297352D02*
X4292952Y-18144971D01*
X4292952Y-18144971D02*
X4331047Y-18068780D01*
X4331047Y-18068780D02*
X4407237Y-17992590D01*
X4407237Y-17992590D02*
X4521523Y-17954495D01*
X4521523Y-17954495D02*
X4597714Y-17954495D01*
X4597714Y-17954495D02*
X4711999Y-17992590D01*
X4711999Y-17992590D02*
X4750095Y-18030685D01*
X5359618Y-18335447D02*
X5473904Y-18373542D01*
X5473904Y-18373542D02*
X5511999Y-18411638D01*
X5511999Y-18411638D02*
X5550095Y-18487828D01*
X5550095Y-18487828D02*
X5550095Y-18602114D01*
X5550095Y-18602114D02*
X5511999Y-18678304D01*
X5511999Y-18678304D02*
X5473904Y-18716400D01*
X5473904Y-18716400D02*
X5397714Y-18754495D01*
X5397714Y-18754495D02*
X5092952Y-18754495D01*
X5092952Y-18754495D02*
X5092952Y-17954495D01*
X5092952Y-17954495D02*
X5359618Y-17954495D01*
X5359618Y-17954495D02*
X5435809Y-17992590D01*
X5435809Y-17992590D02*
X5473904Y-18030685D01*
X5473904Y-18030685D02*
X5511999Y-18106876D01*
X5511999Y-18106876D02*
X5511999Y-18183066D01*
X5511999Y-18183066D02*
X5473904Y-18259257D01*
X5473904Y-18259257D02*
X5435809Y-18297352D01*
X5435809Y-18297352D02*
X5359618Y-18335447D01*
X5359618Y-18335447D02*
X5092952Y-18335447D01*
X5816761Y-17954495D02*
X6311999Y-17954495D01*
X6311999Y-17954495D02*
X6045333Y-18259257D01*
X6045333Y-18259257D02*
X6159618Y-18259257D01*
X6159618Y-18259257D02*
X6235809Y-18297352D01*
X6235809Y-18297352D02*
X6273904Y-18335447D01*
X6273904Y-18335447D02*
X6311999Y-18411638D01*
X6311999Y-18411638D02*
X6311999Y-18602114D01*
X6311999Y-18602114D02*
X6273904Y-18678304D01*
X6273904Y-18678304D02*
X6235809Y-18716400D01*
X6235809Y-18716400D02*
X6159618Y-18754495D01*
X6159618Y-18754495D02*
X5931047Y-18754495D01*
X5931047Y-18754495D02*
X5854856Y-18716400D01*
X5854856Y-18716400D02*
X5816761Y-18678304D01*
X6540571Y-17954495D02*
X6997714Y-17954495D01*
X6769142Y-18754495D02*
X6769142Y-17954495D01*
X7188190Y-17954495D02*
X7683428Y-17954495D01*
X7683428Y-17954495D02*
X7416762Y-18259257D01*
X7416762Y-18259257D02*
X7531047Y-18259257D01*
X7531047Y-18259257D02*
X7607238Y-18297352D01*
X7607238Y-18297352D02*
X7645333Y-18335447D01*
X7645333Y-18335447D02*
X7683428Y-18411638D01*
X7683428Y-18411638D02*
X7683428Y-18602114D01*
X7683428Y-18602114D02*
X7645333Y-18678304D01*
X7645333Y-18678304D02*
X7607238Y-18716400D01*
X7607238Y-18716400D02*
X7531047Y-18754495D01*
X7531047Y-18754495D02*
X7302476Y-18754495D01*
X7302476Y-18754495D02*
X7226285Y-18716400D01*
X7226285Y-18716400D02*
X7188190Y-18678304D01*
X7988190Y-18030685D02*
X8026286Y-17992590D01*
X8026286Y-17992590D02*
X8102476Y-17954495D01*
X8102476Y-17954495D02*
X8292952Y-17954495D01*
X8292952Y-17954495D02*
X8369143Y-17992590D01*
X8369143Y-17992590D02*
X8407238Y-18030685D01*
X8407238Y-18030685D02*
X8445333Y-18106876D01*
X8445333Y-18106876D02*
X8445333Y-18183066D01*
X8445333Y-18183066D02*
X8407238Y-18297352D01*
X8407238Y-18297352D02*
X7950095Y-18754495D01*
X7950095Y-18754495D02*
X8445333Y-18754495D01*
X9131048Y-18221161D02*
X9131048Y-18754495D01*
X8940572Y-17916400D02*
X8750095Y-18487828D01*
X8750095Y-18487828D02*
X9245334Y-18487828D01*
X9931048Y-17954495D02*
X9550096Y-17954495D01*
X9550096Y-17954495D02*
X9512000Y-18335447D01*
X9512000Y-18335447D02*
X9550096Y-18297352D01*
X9550096Y-18297352D02*
X9626286Y-18259257D01*
X9626286Y-18259257D02*
X9816762Y-18259257D01*
X9816762Y-18259257D02*
X9892953Y-18297352D01*
X9892953Y-18297352D02*
X9931048Y-18335447D01*
X9931048Y-18335447D02*
X9969143Y-18411638D01*
X9969143Y-18411638D02*
X9969143Y-18602114D01*
X9969143Y-18602114D02*
X9931048Y-18678304D01*
X9931048Y-18678304D02*
X9892953Y-18716400D01*
X9892953Y-18716400D02*
X9816762Y-18754495D01*
X9816762Y-18754495D02*
X9626286Y-18754495D01*
X9626286Y-18754495D02*
X9550096Y-18716400D01*
X9550096Y-18716400D02*
X9512000Y-18678304D01*
D11*
X3141819Y-17119599D02*
X3379914Y-17119599D01*
X3284676Y-17357694D02*
X3379914Y-17119599D01*
X3379914Y-17119599D02*
X3284676Y-16881504D01*
X3570390Y-17262456D02*
X3379914Y-17119599D01*
X3379914Y-17119599D02*
X3570390Y-16976742D01*
X36538819Y-14096904D02*
X37348342Y-14096904D01*
X37348342Y-14096904D02*
X37443580Y-14049285D01*
X37443580Y-14049285D02*
X37491200Y-14001666D01*
X37491200Y-14001666D02*
X37538819Y-13906428D01*
X37538819Y-13906428D02*
X37538819Y-13715952D01*
X37538819Y-13715952D02*
X37491200Y-13620714D01*
X37491200Y-13620714D02*
X37443580Y-13573095D01*
X37443580Y-13573095D02*
X37348342Y-13525476D01*
X37348342Y-13525476D02*
X36538819Y-13525476D01*
X36872152Y-12620714D02*
X37538819Y-12620714D01*
X36491200Y-12858809D02*
X37205485Y-13096904D01*
X37205485Y-13096904D02*
X37205485Y-12477857D01*
D13*
X35081695Y-18703704D02*
X35043599Y-18741800D01*
X35043599Y-18741800D02*
X34929314Y-18779895D01*
X34929314Y-18779895D02*
X34853123Y-18779895D01*
X34853123Y-18779895D02*
X34738837Y-18741800D01*
X34738837Y-18741800D02*
X34662647Y-18665609D01*
X34662647Y-18665609D02*
X34624552Y-18589419D01*
X34624552Y-18589419D02*
X34586456Y-18437038D01*
X34586456Y-18437038D02*
X34586456Y-18322752D01*
X34586456Y-18322752D02*
X34624552Y-18170371D01*
X34624552Y-18170371D02*
X34662647Y-18094180D01*
X34662647Y-18094180D02*
X34738837Y-18017990D01*
X34738837Y-18017990D02*
X34853123Y-17979895D01*
X34853123Y-17979895D02*
X34929314Y-17979895D01*
X34929314Y-17979895D02*
X35043599Y-18017990D01*
X35043599Y-18017990D02*
X35081695Y-18056085D01*
X35691218Y-18360847D02*
X35805504Y-18398942D01*
X35805504Y-18398942D02*
X35843599Y-18437038D01*
X35843599Y-18437038D02*
X35881695Y-18513228D01*
X35881695Y-18513228D02*
X35881695Y-18627514D01*
X35881695Y-18627514D02*
X35843599Y-18703704D01*
X35843599Y-18703704D02*
X35805504Y-18741800D01*
X35805504Y-18741800D02*
X35729314Y-18779895D01*
X35729314Y-18779895D02*
X35424552Y-18779895D01*
X35424552Y-18779895D02*
X35424552Y-17979895D01*
X35424552Y-17979895D02*
X35691218Y-17979895D01*
X35691218Y-17979895D02*
X35767409Y-18017990D01*
X35767409Y-18017990D02*
X35805504Y-18056085D01*
X35805504Y-18056085D02*
X35843599Y-18132276D01*
X35843599Y-18132276D02*
X35843599Y-18208466D01*
X35843599Y-18208466D02*
X35805504Y-18284657D01*
X35805504Y-18284657D02*
X35767409Y-18322752D01*
X35767409Y-18322752D02*
X35691218Y-18360847D01*
X35691218Y-18360847D02*
X35424552Y-18360847D01*
X36148361Y-17979895D02*
X36643599Y-17979895D01*
X36643599Y-17979895D02*
X36376933Y-18284657D01*
X36376933Y-18284657D02*
X36491218Y-18284657D01*
X36491218Y-18284657D02*
X36567409Y-18322752D01*
X36567409Y-18322752D02*
X36605504Y-18360847D01*
X36605504Y-18360847D02*
X36643599Y-18437038D01*
X36643599Y-18437038D02*
X36643599Y-18627514D01*
X36643599Y-18627514D02*
X36605504Y-18703704D01*
X36605504Y-18703704D02*
X36567409Y-18741800D01*
X36567409Y-18741800D02*
X36491218Y-18779895D01*
X36491218Y-18779895D02*
X36262647Y-18779895D01*
X36262647Y-18779895D02*
X36186456Y-18741800D01*
X36186456Y-18741800D02*
X36148361Y-18703704D01*
X36872171Y-17979895D02*
X37329314Y-17979895D01*
X37100742Y-18779895D02*
X37100742Y-17979895D01*
X37519790Y-17979895D02*
X38015028Y-17979895D01*
X38015028Y-17979895D02*
X37748362Y-18284657D01*
X37748362Y-18284657D02*
X37862647Y-18284657D01*
X37862647Y-18284657D02*
X37938838Y-18322752D01*
X37938838Y-18322752D02*
X37976933Y-18360847D01*
X37976933Y-18360847D02*
X38015028Y-18437038D01*
X38015028Y-18437038D02*
X38015028Y-18627514D01*
X38015028Y-18627514D02*
X37976933Y-18703704D01*
X37976933Y-18703704D02*
X37938838Y-18741800D01*
X37938838Y-18741800D02*
X37862647Y-18779895D01*
X37862647Y-18779895D02*
X37634076Y-18779895D01*
X37634076Y-18779895D02*
X37557885Y-18741800D01*
X37557885Y-18741800D02*
X37519790Y-18703704D01*
X38319790Y-18056085D02*
X38357886Y-18017990D01*
X38357886Y-18017990D02*
X38434076Y-17979895D01*
X38434076Y-17979895D02*
X38624552Y-17979895D01*
X38624552Y-17979895D02*
X38700743Y-18017990D01*
X38700743Y-18017990D02*
X38738838Y-18056085D01*
X38738838Y-18056085D02*
X38776933Y-18132276D01*
X38776933Y-18132276D02*
X38776933Y-18208466D01*
X38776933Y-18208466D02*
X38738838Y-18322752D01*
X38738838Y-18322752D02*
X38281695Y-18779895D01*
X38281695Y-18779895D02*
X38776933Y-18779895D01*
X39462648Y-18246561D02*
X39462648Y-18779895D01*
X39272172Y-17941800D02*
X39081695Y-18513228D01*
X39081695Y-18513228D02*
X39576934Y-18513228D01*
X40262648Y-17979895D02*
X39881696Y-17979895D01*
X39881696Y-17979895D02*
X39843600Y-18360847D01*
X39843600Y-18360847D02*
X39881696Y-18322752D01*
X39881696Y-18322752D02*
X39957886Y-18284657D01*
X39957886Y-18284657D02*
X40148362Y-18284657D01*
X40148362Y-18284657D02*
X40224553Y-18322752D01*
X40224553Y-18322752D02*
X40262648Y-18360847D01*
X40262648Y-18360847D02*
X40300743Y-18437038D01*
X40300743Y-18437038D02*
X40300743Y-18627514D01*
X40300743Y-18627514D02*
X40262648Y-18703704D01*
X40262648Y-18703704D02*
X40224553Y-18741800D01*
X40224553Y-18741800D02*
X40148362Y-18779895D01*
X40148362Y-18779895D02*
X39957886Y-18779895D01*
X39957886Y-18779895D02*
X39881696Y-18741800D01*
X39881696Y-18741800D02*
X39843600Y-18703704D01*
D11*
X33621819Y-17144999D02*
X33859914Y-17144999D01*
X33764676Y-17383094D02*
X33859914Y-17144999D01*
X33859914Y-17144999D02*
X33764676Y-16906904D01*
X34050390Y-17287856D02*
X33859914Y-17144999D01*
X33859914Y-17144999D02*
X34050390Y-17002142D01*
X26378819Y-14071504D02*
X27188342Y-14071504D01*
X27188342Y-14071504D02*
X27283580Y-14023885D01*
X27283580Y-14023885D02*
X27331200Y-13976266D01*
X27331200Y-13976266D02*
X27378819Y-13881028D01*
X27378819Y-13881028D02*
X27378819Y-13690552D01*
X27378819Y-13690552D02*
X27331200Y-13595314D01*
X27331200Y-13595314D02*
X27283580Y-13547695D01*
X27283580Y-13547695D02*
X27188342Y-13500076D01*
X27188342Y-13500076D02*
X26378819Y-13500076D01*
X26378819Y-13119123D02*
X26378819Y-12500076D01*
X26378819Y-12500076D02*
X26759771Y-12833409D01*
X26759771Y-12833409D02*
X26759771Y-12690552D01*
X26759771Y-12690552D02*
X26807390Y-12595314D01*
X26807390Y-12595314D02*
X26855009Y-12547695D01*
X26855009Y-12547695D02*
X26950247Y-12500076D01*
X26950247Y-12500076D02*
X27188342Y-12500076D01*
X27188342Y-12500076D02*
X27283580Y-12547695D01*
X27283580Y-12547695D02*
X27331200Y-12595314D01*
X27331200Y-12595314D02*
X27378819Y-12690552D01*
X27378819Y-12690552D02*
X27378819Y-12976266D01*
X27378819Y-12976266D02*
X27331200Y-13071504D01*
X27331200Y-13071504D02*
X27283580Y-13119123D01*
D13*
X24921695Y-18678304D02*
X24883599Y-18716400D01*
X24883599Y-18716400D02*
X24769314Y-18754495D01*
X24769314Y-18754495D02*
X24693123Y-18754495D01*
X24693123Y-18754495D02*
X24578837Y-18716400D01*
X24578837Y-18716400D02*
X24502647Y-18640209D01*
X24502647Y-18640209D02*
X24464552Y-18564019D01*
X24464552Y-18564019D02*
X24426456Y-18411638D01*
X24426456Y-18411638D02*
X24426456Y-18297352D01*
X24426456Y-18297352D02*
X24464552Y-18144971D01*
X24464552Y-18144971D02*
X24502647Y-18068780D01*
X24502647Y-18068780D02*
X24578837Y-17992590D01*
X24578837Y-17992590D02*
X24693123Y-17954495D01*
X24693123Y-17954495D02*
X24769314Y-17954495D01*
X24769314Y-17954495D02*
X24883599Y-17992590D01*
X24883599Y-17992590D02*
X24921695Y-18030685D01*
X25531218Y-18335447D02*
X25645504Y-18373542D01*
X25645504Y-18373542D02*
X25683599Y-18411638D01*
X25683599Y-18411638D02*
X25721695Y-18487828D01*
X25721695Y-18487828D02*
X25721695Y-18602114D01*
X25721695Y-18602114D02*
X25683599Y-18678304D01*
X25683599Y-18678304D02*
X25645504Y-18716400D01*
X25645504Y-18716400D02*
X25569314Y-18754495D01*
X25569314Y-18754495D02*
X25264552Y-18754495D01*
X25264552Y-18754495D02*
X25264552Y-17954495D01*
X25264552Y-17954495D02*
X25531218Y-17954495D01*
X25531218Y-17954495D02*
X25607409Y-17992590D01*
X25607409Y-17992590D02*
X25645504Y-18030685D01*
X25645504Y-18030685D02*
X25683599Y-18106876D01*
X25683599Y-18106876D02*
X25683599Y-18183066D01*
X25683599Y-18183066D02*
X25645504Y-18259257D01*
X25645504Y-18259257D02*
X25607409Y-18297352D01*
X25607409Y-18297352D02*
X25531218Y-18335447D01*
X25531218Y-18335447D02*
X25264552Y-18335447D01*
X25988361Y-17954495D02*
X26483599Y-17954495D01*
X26483599Y-17954495D02*
X26216933Y-18259257D01*
X26216933Y-18259257D02*
X26331218Y-18259257D01*
X26331218Y-18259257D02*
X26407409Y-18297352D01*
X26407409Y-18297352D02*
X26445504Y-18335447D01*
X26445504Y-18335447D02*
X26483599Y-18411638D01*
X26483599Y-18411638D02*
X26483599Y-18602114D01*
X26483599Y-18602114D02*
X26445504Y-18678304D01*
X26445504Y-18678304D02*
X26407409Y-18716400D01*
X26407409Y-18716400D02*
X26331218Y-18754495D01*
X26331218Y-18754495D02*
X26102647Y-18754495D01*
X26102647Y-18754495D02*
X26026456Y-18716400D01*
X26026456Y-18716400D02*
X25988361Y-18678304D01*
X26712171Y-17954495D02*
X27169314Y-17954495D01*
X26940742Y-18754495D02*
X26940742Y-17954495D01*
X27359790Y-17954495D02*
X27855028Y-17954495D01*
X27855028Y-17954495D02*
X27588362Y-18259257D01*
X27588362Y-18259257D02*
X27702647Y-18259257D01*
X27702647Y-18259257D02*
X27778838Y-18297352D01*
X27778838Y-18297352D02*
X27816933Y-18335447D01*
X27816933Y-18335447D02*
X27855028Y-18411638D01*
X27855028Y-18411638D02*
X27855028Y-18602114D01*
X27855028Y-18602114D02*
X27816933Y-18678304D01*
X27816933Y-18678304D02*
X27778838Y-18716400D01*
X27778838Y-18716400D02*
X27702647Y-18754495D01*
X27702647Y-18754495D02*
X27474076Y-18754495D01*
X27474076Y-18754495D02*
X27397885Y-18716400D01*
X27397885Y-18716400D02*
X27359790Y-18678304D01*
X28159790Y-18030685D02*
X28197886Y-17992590D01*
X28197886Y-17992590D02*
X28274076Y-17954495D01*
X28274076Y-17954495D02*
X28464552Y-17954495D01*
X28464552Y-17954495D02*
X28540743Y-17992590D01*
X28540743Y-17992590D02*
X28578838Y-18030685D01*
X28578838Y-18030685D02*
X28616933Y-18106876D01*
X28616933Y-18106876D02*
X28616933Y-18183066D01*
X28616933Y-18183066D02*
X28578838Y-18297352D01*
X28578838Y-18297352D02*
X28121695Y-18754495D01*
X28121695Y-18754495D02*
X28616933Y-18754495D01*
X29302648Y-18221161D02*
X29302648Y-18754495D01*
X29112172Y-17916400D02*
X28921695Y-18487828D01*
X28921695Y-18487828D02*
X29416934Y-18487828D01*
X30102648Y-17954495D02*
X29721696Y-17954495D01*
X29721696Y-17954495D02*
X29683600Y-18335447D01*
X29683600Y-18335447D02*
X29721696Y-18297352D01*
X29721696Y-18297352D02*
X29797886Y-18259257D01*
X29797886Y-18259257D02*
X29988362Y-18259257D01*
X29988362Y-18259257D02*
X30064553Y-18297352D01*
X30064553Y-18297352D02*
X30102648Y-18335447D01*
X30102648Y-18335447D02*
X30140743Y-18411638D01*
X30140743Y-18411638D02*
X30140743Y-18602114D01*
X30140743Y-18602114D02*
X30102648Y-18678304D01*
X30102648Y-18678304D02*
X30064553Y-18716400D01*
X30064553Y-18716400D02*
X29988362Y-18754495D01*
X29988362Y-18754495D02*
X29797886Y-18754495D01*
X29797886Y-18754495D02*
X29721696Y-18716400D01*
X29721696Y-18716400D02*
X29683600Y-18678304D01*
D11*
X23461819Y-17119599D02*
X23699914Y-17119599D01*
X23604676Y-17357694D02*
X23699914Y-17119599D01*
X23699914Y-17119599D02*
X23604676Y-16881504D01*
X23890390Y-17262456D02*
X23699914Y-17119599D01*
X23699914Y-17119599D02*
X23890390Y-16976742D01*
D13*
X22005704Y-10039332D02*
X22043800Y-10077428D01*
X22043800Y-10077428D02*
X22081895Y-10191713D01*
X22081895Y-10191713D02*
X22081895Y-10267904D01*
X22081895Y-10267904D02*
X22043800Y-10382190D01*
X22043800Y-10382190D02*
X21967609Y-10458380D01*
X21967609Y-10458380D02*
X21891419Y-10496475D01*
X21891419Y-10496475D02*
X21739038Y-10534571D01*
X21739038Y-10534571D02*
X21624752Y-10534571D01*
X21624752Y-10534571D02*
X21472371Y-10496475D01*
X21472371Y-10496475D02*
X21396180Y-10458380D01*
X21396180Y-10458380D02*
X21319990Y-10382190D01*
X21319990Y-10382190D02*
X21281895Y-10267904D01*
X21281895Y-10267904D02*
X21281895Y-10191713D01*
X21281895Y-10191713D02*
X21319990Y-10077428D01*
X21319990Y-10077428D02*
X21358085Y-10039332D01*
X21281895Y-9772666D02*
X21281895Y-9277428D01*
X21281895Y-9277428D02*
X21586657Y-9544094D01*
X21586657Y-9544094D02*
X21586657Y-9429809D01*
X21586657Y-9429809D02*
X21624752Y-9353618D01*
X21624752Y-9353618D02*
X21662847Y-9315523D01*
X21662847Y-9315523D02*
X21739038Y-9277428D01*
X21739038Y-9277428D02*
X21929514Y-9277428D01*
X21929514Y-9277428D02*
X22005704Y-9315523D01*
X22005704Y-9315523D02*
X22043800Y-9353618D01*
X22043800Y-9353618D02*
X22081895Y-9429809D01*
X22081895Y-9429809D02*
X22081895Y-9658380D01*
X22081895Y-9658380D02*
X22043800Y-9734571D01*
X22043800Y-9734571D02*
X22005704Y-9772666D01*
D14*
%TO.C,U5*%
X50931000Y-15684677D02*
X50931000Y-12255325D01*
X44327000Y-12255323D02*
X44327000Y-15684675D01*
X44327000Y-14274800D02*
G75*
G03*
X44327000Y-13665200I0J304800D01*
G01*
D10*
%TO.C,J2*%
X3810000Y-1524000D02*
X52130000Y-1524000D01*
X1210000Y-1524000D02*
X2540000Y-1524000D01*
X1210000Y-2854000D02*
X1210000Y-1524000D01*
X52130000Y-3556000D02*
X52130000Y-1524000D01*
X3810000Y-3556000D02*
X3810000Y-1524000D01*
X3810000Y-3556000D02*
X52130000Y-3556000D01*
D14*
%TO.C,U2*%
X20451000Y-15659277D02*
X20451000Y-12229925D01*
X13847000Y-12229923D02*
X13847000Y-15659275D01*
X13847000Y-14249400D02*
G75*
G03*
X13847000Y-13639800I0J304800D01*
G01*
D10*
%TO.C,C5*%
X42543000Y-10078767D02*
X42543000Y-9786233D01*
X43563000Y-10078767D02*
X43563000Y-9786233D01*
%TO.C,C2*%
X12063000Y-10078767D02*
X12063000Y-9786233D01*
X13083000Y-10078767D02*
X13083000Y-9786233D01*
%TO.C,J1*%
X3810000Y-23876000D02*
X52130000Y-23876000D01*
X3810000Y-23876000D02*
X3810000Y-21844000D01*
X52130000Y-23876000D02*
X52130000Y-21844000D01*
X1210000Y-23174000D02*
X1210000Y-21844000D01*
X1210000Y-21844000D02*
X2540000Y-21844000D01*
X3810000Y-21844000D02*
X52130000Y-21844000D01*
%TO.C,C4*%
X32383000Y-10078767D02*
X32383000Y-9786233D01*
X33403000Y-10078767D02*
X33403000Y-9786233D01*
%TO.C,C1*%
X2030000Y-10078767D02*
X2030000Y-9786233D01*
X3050000Y-10078767D02*
X3050000Y-9786233D01*
D14*
%TO.C,U1*%
X10291000Y-15659277D02*
X10291000Y-12229925D01*
X3687000Y-12229923D02*
X3687000Y-15659275D01*
X3687000Y-14249400D02*
G75*
G03*
X3687000Y-13639800I0J304800D01*
G01*
%TO.C,U4*%
X40771000Y-15684677D02*
X40771000Y-12255325D01*
X34167000Y-12255323D02*
X34167000Y-15684675D01*
X34167000Y-14274800D02*
G75*
G03*
X34167000Y-13665200I0J304800D01*
G01*
%TO.C,U3*%
X30611000Y-15659277D02*
X30611000Y-12229925D01*
X24007000Y-12229923D02*
X24007000Y-15659275D01*
X24007000Y-14249400D02*
G75*
G03*
X24007000Y-13639800I0J304800D01*
G01*
D10*
%TO.C,C3*%
X22223000Y-10078767D02*
X22223000Y-9786233D01*
X23243000Y-10078767D02*
X23243000Y-9786233D01*
%TD*%
M02*
