%TF.GenerationSoftware,KiCad,Pcbnew,7.0.6*%
%TF.CreationDate,2023-07-11T11:54:07+09:00*%
%TF.ProjectId,TangNano5V,54616e67-4e61-46e6-9f35-562e6b696361,rev?*%
%TF.SameCoordinates,Original*%
%TF.FileFunction,Soldermask,Top*%
%TF.FilePolarity,Negative*%
%FSLAX46Y46*%
G04 Gerber Fmt 4.6, Leading zero omitted, Abs format (unit mm)*
G04 Created by KiCad (PCBNEW 7.0.6) date 2023-07-11 11:54:07*
%MOMM*%
%LPD*%
G01*
G04 APERTURE LIST*
G04 Aperture macros list*
%AMRoundRect*
0 Rectangle with rounded corners*
0 $1 Rounding radius*
0 $2 $3 $4 $5 $6 $7 $8 $9 X,Y pos of 4 corners*
0 Add a 4 corners polygon primitive as box body*
4,1,4,$2,$3,$4,$5,$6,$7,$8,$9,$2,$3,0*
0 Add four circle primitives for the rounded corners*
1,1,$1+$1,$2,$3*
1,1,$1+$1,$4,$5*
1,1,$1+$1,$6,$7*
1,1,$1+$1,$8,$9*
0 Add four rect primitives between the rounded corners*
20,1,$1+$1,$2,$3,$4,$5,0*
20,1,$1+$1,$4,$5,$6,$7,0*
20,1,$1+$1,$6,$7,$8,$9,0*
20,1,$1+$1,$8,$9,$2,$3,0*%
G04 Aperture macros list end*
%ADD10R,0.355600X1.676400*%
%ADD11O,1.700000X1.700000*%
%ADD12R,1.700000X1.700000*%
%ADD13RoundRect,0.237500X0.237500X-0.300000X0.237500X0.300000X-0.237500X0.300000X-0.237500X-0.300000X0*%
G04 APERTURE END LIST*
D10*
%TO.C,U5*%
X44704000Y-16789400D03*
X45354001Y-16789400D03*
X46003999Y-16789400D03*
X46654001Y-16789400D03*
X47303999Y-16789400D03*
X47953998Y-16789400D03*
X48603999Y-16789400D03*
X49253998Y-16789400D03*
X49903999Y-16789400D03*
X50553998Y-16789400D03*
X50554000Y-11150600D03*
X49904002Y-11150600D03*
X49254001Y-11150600D03*
X48604002Y-11150600D03*
X47954001Y-11150600D03*
X47304002Y-11150600D03*
X46654001Y-11150600D03*
X46004002Y-11150600D03*
X45354001Y-11150600D03*
X44704002Y-11150600D03*
%TD*%
D11*
%TO.C,J2*%
X50800000Y-2540000D03*
X48260000Y-2540000D03*
X45720000Y-2540000D03*
X43180000Y-2540000D03*
X40640000Y-2540000D03*
X38100000Y-2540000D03*
X35560000Y-2540000D03*
X33020000Y-2540000D03*
X30480000Y-2540000D03*
X27940000Y-2540000D03*
X25400000Y-2540000D03*
X22860000Y-2540000D03*
X20320000Y-2540000D03*
X17780000Y-2540000D03*
X15240000Y-2540000D03*
X12700000Y-2540000D03*
X10160000Y-2540000D03*
X7620000Y-2540000D03*
X5080000Y-2540000D03*
D12*
X2540000Y-2540000D03*
%TD*%
D10*
%TO.C,U2*%
X14224000Y-16764000D03*
X14874001Y-16764000D03*
X15523999Y-16764000D03*
X16174001Y-16764000D03*
X16823999Y-16764000D03*
X17473998Y-16764000D03*
X18123999Y-16764000D03*
X18773998Y-16764000D03*
X19423999Y-16764000D03*
X20073998Y-16764000D03*
X20074000Y-11125200D03*
X19424002Y-11125200D03*
X18774001Y-11125200D03*
X18124002Y-11125200D03*
X17474001Y-11125200D03*
X16824002Y-11125200D03*
X16174001Y-11125200D03*
X15524002Y-11125200D03*
X14874001Y-11125200D03*
X14224002Y-11125200D03*
%TD*%
D13*
%TO.C,C5*%
X43053000Y-10795000D03*
X43053000Y-9070000D03*
%TD*%
%TO.C,C2*%
X12573000Y-10795000D03*
X12573000Y-9070000D03*
%TD*%
D12*
%TO.C,J1*%
X2540000Y-22860000D03*
D11*
X5080000Y-22860000D03*
X7620000Y-22860000D03*
X10160000Y-22860000D03*
X12700000Y-22860000D03*
X15240000Y-22860000D03*
X17780000Y-22860000D03*
X20320000Y-22860000D03*
X22860000Y-22860000D03*
X25400000Y-22860000D03*
X27940000Y-22860000D03*
X30480000Y-22860000D03*
X33020000Y-22860000D03*
X35560000Y-22860000D03*
X38100000Y-22860000D03*
X40640000Y-22860000D03*
X43180000Y-22860000D03*
X45720000Y-22860000D03*
X48260000Y-22860000D03*
X50800000Y-22860000D03*
%TD*%
D13*
%TO.C,C4*%
X32893000Y-10795000D03*
X32893000Y-9070000D03*
%TD*%
%TO.C,C1*%
X2540000Y-10795000D03*
X2540000Y-9070000D03*
%TD*%
D10*
%TO.C,U1*%
X4064000Y-16764000D03*
X4714001Y-16764000D03*
X5363999Y-16764000D03*
X6014001Y-16764000D03*
X6663999Y-16764000D03*
X7313998Y-16764000D03*
X7963999Y-16764000D03*
X8613998Y-16764000D03*
X9263999Y-16764000D03*
X9913998Y-16764000D03*
X9914000Y-11125200D03*
X9264002Y-11125200D03*
X8614001Y-11125200D03*
X7964002Y-11125200D03*
X7314001Y-11125200D03*
X6664002Y-11125200D03*
X6014001Y-11125200D03*
X5364002Y-11125200D03*
X4714001Y-11125200D03*
X4064002Y-11125200D03*
%TD*%
%TO.C,U4*%
X34544000Y-16789400D03*
X35194001Y-16789400D03*
X35843999Y-16789400D03*
X36494001Y-16789400D03*
X37143999Y-16789400D03*
X37793998Y-16789400D03*
X38443999Y-16789400D03*
X39093998Y-16789400D03*
X39743999Y-16789400D03*
X40393998Y-16789400D03*
X40394000Y-11150600D03*
X39744002Y-11150600D03*
X39094001Y-11150600D03*
X38444002Y-11150600D03*
X37794001Y-11150600D03*
X37144002Y-11150600D03*
X36494001Y-11150600D03*
X35844002Y-11150600D03*
X35194001Y-11150600D03*
X34544002Y-11150600D03*
%TD*%
%TO.C,U3*%
X24384000Y-16764000D03*
X25034001Y-16764000D03*
X25683999Y-16764000D03*
X26334001Y-16764000D03*
X26983999Y-16764000D03*
X27633998Y-16764000D03*
X28283999Y-16764000D03*
X28933998Y-16764000D03*
X29583999Y-16764000D03*
X30233998Y-16764000D03*
X30234000Y-11125200D03*
X29584002Y-11125200D03*
X28934001Y-11125200D03*
X28284002Y-11125200D03*
X27634001Y-11125200D03*
X26984002Y-11125200D03*
X26334001Y-11125200D03*
X25684002Y-11125200D03*
X25034001Y-11125200D03*
X24384002Y-11125200D03*
%TD*%
D13*
%TO.C,C3*%
X22733000Y-10795000D03*
X22733000Y-9070000D03*
%TD*%
D12*
%TO.C,J4*%
X2540000Y-5080000D03*
D11*
X5080000Y-5080000D03*
X7620000Y-5080000D03*
X10160000Y-5080000D03*
X12700000Y-5080000D03*
X15240000Y-5080000D03*
X17780000Y-5080000D03*
X20320000Y-5080000D03*
X22860000Y-5080000D03*
X25400000Y-5080000D03*
X27940000Y-5080000D03*
X30480000Y-5080000D03*
X33020000Y-5080000D03*
X35560000Y-5080000D03*
X38100000Y-5080000D03*
X40640000Y-5080000D03*
X43180000Y-5080000D03*
X45720000Y-5080000D03*
X48260000Y-5080000D03*
X50800000Y-5080000D03*
%TD*%
D12*
%TO.C,J3*%
X2540000Y-20320000D03*
D11*
X5080000Y-20320000D03*
X7620000Y-20320000D03*
X10160000Y-20320000D03*
X12700000Y-20320000D03*
X15240000Y-20320000D03*
X17780000Y-20320000D03*
X20320000Y-20320000D03*
X22860000Y-20320000D03*
X25400000Y-20320000D03*
X27940000Y-20320000D03*
X30480000Y-20320000D03*
X33020000Y-20320000D03*
X35560000Y-20320000D03*
X38100000Y-20320000D03*
X40640000Y-20320000D03*
X43180000Y-20320000D03*
X45720000Y-20320000D03*
X48260000Y-20320000D03*
X50800000Y-20320000D03*
%TD*%
M02*
