%TF.GenerationSoftware,KiCad,Pcbnew,7.0.2*%
%TF.CreationDate,2023-06-26T15:47:55+09:00*%
%TF.ProjectId,TangNanoZ80MEM,54616e67-4e61-46e6-9f5a-38304d454d2e,rev?*%
%TF.SameCoordinates,Original*%
%TF.FileFunction,Legend,Top*%
%TF.FilePolarity,Positive*%
%FSLAX46Y46*%
G04 Gerber Fmt 4.6, Leading zero omitted, Abs format (unit mm)*
G04 Created by KiCad (PCBNEW 7.0.2) date 2023-06-26 15:47:55*
%MOMM*%
%LPD*%
G01*
G04 APERTURE LIST*
%ADD10C,0.200000*%
%ADD11C,0.150000*%
%ADD12C,0.120000*%
%ADD13C,0.100000*%
G04 APERTURE END LIST*
D10*
X10160000Y-40640000D02*
X9525000Y-40640000D01*
X9525000Y-38100000D02*
X10160000Y-38100000D01*
X10160000Y-38100000D02*
X10160000Y-40640000D01*
D11*
X28085285Y-5613428D02*
X28085285Y-5042000D01*
X28428142Y-5727714D02*
X27228142Y-5327714D01*
X27228142Y-5327714D02*
X28428142Y-4927714D01*
X27628142Y-4013429D02*
X28428142Y-4013429D01*
X27171000Y-4299143D02*
X28028142Y-4584857D01*
X28028142Y-4584857D02*
X28028142Y-3842000D01*
X36048142Y-31521142D02*
X34848142Y-31521142D01*
X34848142Y-31521142D02*
X34848142Y-31235428D01*
X34848142Y-31235428D02*
X34905285Y-31063999D01*
X34905285Y-31063999D02*
X35019571Y-30949714D01*
X35019571Y-30949714D02*
X35133857Y-30892571D01*
X35133857Y-30892571D02*
X35362428Y-30835428D01*
X35362428Y-30835428D02*
X35533857Y-30835428D01*
X35533857Y-30835428D02*
X35762428Y-30892571D01*
X35762428Y-30892571D02*
X35876714Y-30949714D01*
X35876714Y-30949714D02*
X35991000Y-31063999D01*
X35991000Y-31063999D02*
X36048142Y-31235428D01*
X36048142Y-31235428D02*
X36048142Y-31521142D01*
X34848142Y-29806857D02*
X34848142Y-30035428D01*
X34848142Y-30035428D02*
X34905285Y-30149714D01*
X34905285Y-30149714D02*
X34962428Y-30206857D01*
X34962428Y-30206857D02*
X35133857Y-30321142D01*
X35133857Y-30321142D02*
X35362428Y-30378285D01*
X35362428Y-30378285D02*
X35819571Y-30378285D01*
X35819571Y-30378285D02*
X35933857Y-30321142D01*
X35933857Y-30321142D02*
X35991000Y-30263999D01*
X35991000Y-30263999D02*
X36048142Y-30149714D01*
X36048142Y-30149714D02*
X36048142Y-29921142D01*
X36048142Y-29921142D02*
X35991000Y-29806857D01*
X35991000Y-29806857D02*
X35933857Y-29749714D01*
X35933857Y-29749714D02*
X35819571Y-29692571D01*
X35819571Y-29692571D02*
X35533857Y-29692571D01*
X35533857Y-29692571D02*
X35419571Y-29749714D01*
X35419571Y-29749714D02*
X35362428Y-29806857D01*
X35362428Y-29806857D02*
X35305285Y-29921142D01*
X35305285Y-29921142D02*
X35305285Y-30149714D01*
X35305285Y-30149714D02*
X35362428Y-30263999D01*
X35362428Y-30263999D02*
X35419571Y-30321142D01*
X35419571Y-30321142D02*
X35533857Y-30378285D01*
X28428142Y-31521142D02*
X27228142Y-31521142D01*
X27228142Y-31521142D02*
X27228142Y-31235428D01*
X27228142Y-31235428D02*
X27285285Y-31063999D01*
X27285285Y-31063999D02*
X27399571Y-30949714D01*
X27399571Y-30949714D02*
X27513857Y-30892571D01*
X27513857Y-30892571D02*
X27742428Y-30835428D01*
X27742428Y-30835428D02*
X27913857Y-30835428D01*
X27913857Y-30835428D02*
X28142428Y-30892571D01*
X28142428Y-30892571D02*
X28256714Y-30949714D01*
X28256714Y-30949714D02*
X28371000Y-31063999D01*
X28371000Y-31063999D02*
X28428142Y-31235428D01*
X28428142Y-31235428D02*
X28428142Y-31521142D01*
X27628142Y-29806857D02*
X28428142Y-29806857D01*
X27171000Y-30092571D02*
X28028142Y-30378285D01*
X28028142Y-30378285D02*
X28028142Y-29635428D01*
X41128142Y-31521142D02*
X39928142Y-31521142D01*
X39928142Y-31521142D02*
X39928142Y-31235428D01*
X39928142Y-31235428D02*
X39985285Y-31063999D01*
X39985285Y-31063999D02*
X40099571Y-30949714D01*
X40099571Y-30949714D02*
X40213857Y-30892571D01*
X40213857Y-30892571D02*
X40442428Y-30835428D01*
X40442428Y-30835428D02*
X40613857Y-30835428D01*
X40613857Y-30835428D02*
X40842428Y-30892571D01*
X40842428Y-30892571D02*
X40956714Y-30949714D01*
X40956714Y-30949714D02*
X41071000Y-31063999D01*
X41071000Y-31063999D02*
X41128142Y-31235428D01*
X41128142Y-31235428D02*
X41128142Y-31521142D01*
X40042428Y-30378285D02*
X39985285Y-30321142D01*
X39985285Y-30321142D02*
X39928142Y-30206857D01*
X39928142Y-30206857D02*
X39928142Y-29921142D01*
X39928142Y-29921142D02*
X39985285Y-29806857D01*
X39985285Y-29806857D02*
X40042428Y-29749714D01*
X40042428Y-29749714D02*
X40156714Y-29692571D01*
X40156714Y-29692571D02*
X40271000Y-29692571D01*
X40271000Y-29692571D02*
X40442428Y-29749714D01*
X40442428Y-29749714D02*
X41128142Y-30435428D01*
X41128142Y-30435428D02*
X41128142Y-29692571D01*
X30968142Y-31521142D02*
X29768142Y-31521142D01*
X29768142Y-31521142D02*
X29768142Y-31235428D01*
X29768142Y-31235428D02*
X29825285Y-31063999D01*
X29825285Y-31063999D02*
X29939571Y-30949714D01*
X29939571Y-30949714D02*
X30053857Y-30892571D01*
X30053857Y-30892571D02*
X30282428Y-30835428D01*
X30282428Y-30835428D02*
X30453857Y-30835428D01*
X30453857Y-30835428D02*
X30682428Y-30892571D01*
X30682428Y-30892571D02*
X30796714Y-30949714D01*
X30796714Y-30949714D02*
X30911000Y-31063999D01*
X30911000Y-31063999D02*
X30968142Y-31235428D01*
X30968142Y-31235428D02*
X30968142Y-31521142D01*
X29768142Y-30435428D02*
X29768142Y-29692571D01*
X29768142Y-29692571D02*
X30225285Y-30092571D01*
X30225285Y-30092571D02*
X30225285Y-29921142D01*
X30225285Y-29921142D02*
X30282428Y-29806857D01*
X30282428Y-29806857D02*
X30339571Y-29749714D01*
X30339571Y-29749714D02*
X30453857Y-29692571D01*
X30453857Y-29692571D02*
X30739571Y-29692571D01*
X30739571Y-29692571D02*
X30853857Y-29749714D01*
X30853857Y-29749714D02*
X30911000Y-29806857D01*
X30911000Y-29806857D02*
X30968142Y-29921142D01*
X30968142Y-29921142D02*
X30968142Y-30263999D01*
X30968142Y-30263999D02*
X30911000Y-30378285D01*
X30911000Y-30378285D02*
X30853857Y-30435428D01*
X23005285Y-32549713D02*
X23005285Y-31978285D01*
X23348142Y-32663999D02*
X22148142Y-32263999D01*
X22148142Y-32263999D02*
X23348142Y-31863999D01*
X23348142Y-30835428D02*
X23348142Y-31521142D01*
X23348142Y-31178285D02*
X22148142Y-31178285D01*
X22148142Y-31178285D02*
X22319571Y-31292571D01*
X22319571Y-31292571D02*
X22433857Y-31406856D01*
X22433857Y-31406856D02*
X22491000Y-31521142D01*
X22148142Y-29749714D02*
X22148142Y-30321142D01*
X22148142Y-30321142D02*
X22719571Y-30378285D01*
X22719571Y-30378285D02*
X22662428Y-30321142D01*
X22662428Y-30321142D02*
X22605285Y-30206857D01*
X22605285Y-30206857D02*
X22605285Y-29921142D01*
X22605285Y-29921142D02*
X22662428Y-29806857D01*
X22662428Y-29806857D02*
X22719571Y-29749714D01*
X22719571Y-29749714D02*
X22833857Y-29692571D01*
X22833857Y-29692571D02*
X23119571Y-29692571D01*
X23119571Y-29692571D02*
X23233857Y-29749714D01*
X23233857Y-29749714D02*
X23291000Y-29806857D01*
X23291000Y-29806857D02*
X23348142Y-29921142D01*
X23348142Y-29921142D02*
X23348142Y-30206857D01*
X23348142Y-30206857D02*
X23291000Y-30321142D01*
X23291000Y-30321142D02*
X23233857Y-30378285D01*
X7715238Y-35453619D02*
X8048571Y-36453619D01*
X8048571Y-36453619D02*
X8381904Y-35453619D01*
X9286666Y-36358380D02*
X9239047Y-36406000D01*
X9239047Y-36406000D02*
X9096190Y-36453619D01*
X9096190Y-36453619D02*
X9000952Y-36453619D01*
X9000952Y-36453619D02*
X8858095Y-36406000D01*
X8858095Y-36406000D02*
X8762857Y-36310761D01*
X8762857Y-36310761D02*
X8715238Y-36215523D01*
X8715238Y-36215523D02*
X8667619Y-36025047D01*
X8667619Y-36025047D02*
X8667619Y-35882190D01*
X8667619Y-35882190D02*
X8715238Y-35691714D01*
X8715238Y-35691714D02*
X8762857Y-35596476D01*
X8762857Y-35596476D02*
X8858095Y-35501238D01*
X8858095Y-35501238D02*
X9000952Y-35453619D01*
X9000952Y-35453619D02*
X9096190Y-35453619D01*
X9096190Y-35453619D02*
X9239047Y-35501238D01*
X9239047Y-35501238D02*
X9286666Y-35548857D01*
X10286666Y-36358380D02*
X10239047Y-36406000D01*
X10239047Y-36406000D02*
X10096190Y-36453619D01*
X10096190Y-36453619D02*
X10000952Y-36453619D01*
X10000952Y-36453619D02*
X9858095Y-36406000D01*
X9858095Y-36406000D02*
X9762857Y-36310761D01*
X9762857Y-36310761D02*
X9715238Y-36215523D01*
X9715238Y-36215523D02*
X9667619Y-36025047D01*
X9667619Y-36025047D02*
X9667619Y-35882190D01*
X9667619Y-35882190D02*
X9715238Y-35691714D01*
X9715238Y-35691714D02*
X9762857Y-35596476D01*
X9762857Y-35596476D02*
X9858095Y-35501238D01*
X9858095Y-35501238D02*
X10000952Y-35453619D01*
X10000952Y-35453619D02*
X10096190Y-35453619D01*
X10096190Y-35453619D02*
X10239047Y-35501238D01*
X10239047Y-35501238D02*
X10286666Y-35548857D01*
X39867856Y-72643142D02*
X39582142Y-72643142D01*
X39582142Y-72643142D02*
X39582142Y-70928857D01*
X39582142Y-70928857D02*
X39867856Y-70928857D01*
X40153570Y-71043142D02*
X40839285Y-71043142D01*
X40496427Y-72243142D02*
X40496427Y-71043142D01*
X41239285Y-72243142D02*
X41239285Y-71043142D01*
X41239285Y-71043142D02*
X41924999Y-72243142D01*
X41924999Y-72243142D02*
X41924999Y-71043142D01*
X42439285Y-71157428D02*
X42496428Y-71100285D01*
X42496428Y-71100285D02*
X42610714Y-71043142D01*
X42610714Y-71043142D02*
X42896428Y-71043142D01*
X42896428Y-71043142D02*
X43010714Y-71100285D01*
X43010714Y-71100285D02*
X43067856Y-71157428D01*
X43067856Y-71157428D02*
X43124999Y-71271714D01*
X43124999Y-71271714D02*
X43124999Y-71386000D01*
X43124999Y-71386000D02*
X43067856Y-71557428D01*
X43067856Y-71557428D02*
X42382142Y-72243142D01*
X42382142Y-72243142D02*
X43124999Y-72243142D01*
X43867856Y-71043142D02*
X43982142Y-71043142D01*
X43982142Y-71043142D02*
X44096428Y-71100285D01*
X44096428Y-71100285D02*
X44153571Y-71157428D01*
X44153571Y-71157428D02*
X44210713Y-71271714D01*
X44210713Y-71271714D02*
X44267856Y-71500285D01*
X44267856Y-71500285D02*
X44267856Y-71786000D01*
X44267856Y-71786000D02*
X44210713Y-72014571D01*
X44210713Y-72014571D02*
X44153571Y-72128857D01*
X44153571Y-72128857D02*
X44096428Y-72186000D01*
X44096428Y-72186000D02*
X43982142Y-72243142D01*
X43982142Y-72243142D02*
X43867856Y-72243142D01*
X43867856Y-72243142D02*
X43753571Y-72186000D01*
X43753571Y-72186000D02*
X43696428Y-72128857D01*
X43696428Y-72128857D02*
X43639285Y-72014571D01*
X43639285Y-72014571D02*
X43582142Y-71786000D01*
X43582142Y-71786000D02*
X43582142Y-71500285D01*
X43582142Y-71500285D02*
X43639285Y-71271714D01*
X43639285Y-71271714D02*
X43696428Y-71157428D01*
X43696428Y-71157428D02*
X43753571Y-71100285D01*
X43753571Y-71100285D02*
X43867856Y-71043142D01*
X44782142Y-72243142D02*
X44782142Y-71043142D01*
X45467856Y-72243142D02*
X44953570Y-71557428D01*
X45467856Y-71043142D02*
X44782142Y-71728857D01*
X45867856Y-71043142D02*
X46667856Y-71043142D01*
X46667856Y-71043142D02*
X45867856Y-72243142D01*
X45867856Y-72243142D02*
X46667856Y-72243142D01*
X47296427Y-71557428D02*
X47182142Y-71500285D01*
X47182142Y-71500285D02*
X47124999Y-71443142D01*
X47124999Y-71443142D02*
X47067856Y-71328857D01*
X47067856Y-71328857D02*
X47067856Y-71271714D01*
X47067856Y-71271714D02*
X47124999Y-71157428D01*
X47124999Y-71157428D02*
X47182142Y-71100285D01*
X47182142Y-71100285D02*
X47296427Y-71043142D01*
X47296427Y-71043142D02*
X47524999Y-71043142D01*
X47524999Y-71043142D02*
X47639285Y-71100285D01*
X47639285Y-71100285D02*
X47696427Y-71157428D01*
X47696427Y-71157428D02*
X47753570Y-71271714D01*
X47753570Y-71271714D02*
X47753570Y-71328857D01*
X47753570Y-71328857D02*
X47696427Y-71443142D01*
X47696427Y-71443142D02*
X47639285Y-71500285D01*
X47639285Y-71500285D02*
X47524999Y-71557428D01*
X47524999Y-71557428D02*
X47296427Y-71557428D01*
X47296427Y-71557428D02*
X47182142Y-71614571D01*
X47182142Y-71614571D02*
X47124999Y-71671714D01*
X47124999Y-71671714D02*
X47067856Y-71786000D01*
X47067856Y-71786000D02*
X47067856Y-72014571D01*
X47067856Y-72014571D02*
X47124999Y-72128857D01*
X47124999Y-72128857D02*
X47182142Y-72186000D01*
X47182142Y-72186000D02*
X47296427Y-72243142D01*
X47296427Y-72243142D02*
X47524999Y-72243142D01*
X47524999Y-72243142D02*
X47639285Y-72186000D01*
X47639285Y-72186000D02*
X47696427Y-72128857D01*
X47696427Y-72128857D02*
X47753570Y-72014571D01*
X47753570Y-72014571D02*
X47753570Y-71786000D01*
X47753570Y-71786000D02*
X47696427Y-71671714D01*
X47696427Y-71671714D02*
X47639285Y-71614571D01*
X47639285Y-71614571D02*
X47524999Y-71557428D01*
X48496427Y-71043142D02*
X48610713Y-71043142D01*
X48610713Y-71043142D02*
X48724999Y-71100285D01*
X48724999Y-71100285D02*
X48782142Y-71157428D01*
X48782142Y-71157428D02*
X48839284Y-71271714D01*
X48839284Y-71271714D02*
X48896427Y-71500285D01*
X48896427Y-71500285D02*
X48896427Y-71786000D01*
X48896427Y-71786000D02*
X48839284Y-72014571D01*
X48839284Y-72014571D02*
X48782142Y-72128857D01*
X48782142Y-72128857D02*
X48724999Y-72186000D01*
X48724999Y-72186000D02*
X48610713Y-72243142D01*
X48610713Y-72243142D02*
X48496427Y-72243142D01*
X48496427Y-72243142D02*
X48382142Y-72186000D01*
X48382142Y-72186000D02*
X48324999Y-72128857D01*
X48324999Y-72128857D02*
X48267856Y-72014571D01*
X48267856Y-72014571D02*
X48210713Y-71786000D01*
X48210713Y-71786000D02*
X48210713Y-71500285D01*
X48210713Y-71500285D02*
X48267856Y-71271714D01*
X48267856Y-71271714D02*
X48324999Y-71157428D01*
X48324999Y-71157428D02*
X48382142Y-71100285D01*
X48382142Y-71100285D02*
X48496427Y-71043142D01*
X49410713Y-72243142D02*
X49410713Y-71043142D01*
X49410713Y-71043142D02*
X49810713Y-71900285D01*
X49810713Y-71900285D02*
X50210713Y-71043142D01*
X50210713Y-71043142D02*
X50210713Y-72243142D01*
X50782142Y-71614571D02*
X51182142Y-71614571D01*
X51353570Y-72243142D02*
X50782142Y-72243142D01*
X50782142Y-72243142D02*
X50782142Y-71043142D01*
X50782142Y-71043142D02*
X51353570Y-71043142D01*
X51867856Y-72243142D02*
X51867856Y-71043142D01*
X51867856Y-71043142D02*
X52267856Y-71900285D01*
X52267856Y-71900285D02*
X52667856Y-71043142D01*
X52667856Y-71043142D02*
X52667856Y-72243142D01*
X53124999Y-72643142D02*
X53410713Y-72643142D01*
X53410713Y-72643142D02*
X53410713Y-70928857D01*
X53410713Y-70928857D02*
X53124999Y-70928857D01*
X54724999Y-72243142D02*
X54324999Y-71671714D01*
X54039285Y-72243142D02*
X54039285Y-71043142D01*
X54039285Y-71043142D02*
X54496428Y-71043142D01*
X54496428Y-71043142D02*
X54610713Y-71100285D01*
X54610713Y-71100285D02*
X54667856Y-71157428D01*
X54667856Y-71157428D02*
X54724999Y-71271714D01*
X54724999Y-71271714D02*
X54724999Y-71443142D01*
X54724999Y-71443142D02*
X54667856Y-71557428D01*
X54667856Y-71557428D02*
X54610713Y-71614571D01*
X54610713Y-71614571D02*
X54496428Y-71671714D01*
X54496428Y-71671714D02*
X54039285Y-71671714D01*
X55696428Y-72186000D02*
X55582142Y-72243142D01*
X55582142Y-72243142D02*
X55353571Y-72243142D01*
X55353571Y-72243142D02*
X55239285Y-72186000D01*
X55239285Y-72186000D02*
X55182142Y-72071714D01*
X55182142Y-72071714D02*
X55182142Y-71614571D01*
X55182142Y-71614571D02*
X55239285Y-71500285D01*
X55239285Y-71500285D02*
X55353571Y-71443142D01*
X55353571Y-71443142D02*
X55582142Y-71443142D01*
X55582142Y-71443142D02*
X55696428Y-71500285D01*
X55696428Y-71500285D02*
X55753571Y-71614571D01*
X55753571Y-71614571D02*
X55753571Y-71728857D01*
X55753571Y-71728857D02*
X55182142Y-71843142D01*
X56153570Y-71443142D02*
X56439284Y-72243142D01*
X56439284Y-72243142D02*
X56724999Y-71443142D01*
X57182142Y-72128857D02*
X57239285Y-72186000D01*
X57239285Y-72186000D02*
X57182142Y-72243142D01*
X57182142Y-72243142D02*
X57124999Y-72186000D01*
X57124999Y-72186000D02*
X57182142Y-72128857D01*
X57182142Y-72128857D02*
X57182142Y-72243142D01*
X58382142Y-72243142D02*
X57696428Y-72243142D01*
X58039285Y-72243142D02*
X58039285Y-71043142D01*
X58039285Y-71043142D02*
X57924999Y-71214571D01*
X57924999Y-71214571D02*
X57810714Y-71328857D01*
X57810714Y-71328857D02*
X57696428Y-71386000D01*
X58896428Y-72128857D02*
X58953571Y-72186000D01*
X58953571Y-72186000D02*
X58896428Y-72243142D01*
X58896428Y-72243142D02*
X58839285Y-72186000D01*
X58839285Y-72186000D02*
X58896428Y-72128857D01*
X58896428Y-72128857D02*
X58896428Y-72243142D01*
X60096428Y-72243142D02*
X59410714Y-72243142D01*
X59753571Y-72243142D02*
X59753571Y-71043142D01*
X59753571Y-71043142D02*
X59639285Y-71214571D01*
X59639285Y-71214571D02*
X59525000Y-71328857D01*
X59525000Y-71328857D02*
X59410714Y-71386000D01*
X56368142Y-33349714D02*
X55168142Y-33349714D01*
X55739571Y-33349714D02*
X55739571Y-32664000D01*
X56368142Y-32664000D02*
X55168142Y-32664000D01*
X56025285Y-32149714D02*
X56025285Y-31578286D01*
X56368142Y-32264000D02*
X55168142Y-31864000D01*
X55168142Y-31864000D02*
X56368142Y-31464000D01*
X56368142Y-30492572D02*
X56368142Y-31064000D01*
X56368142Y-31064000D02*
X55168142Y-31064000D01*
X55168142Y-30264000D02*
X55168142Y-29578286D01*
X56368142Y-29921143D02*
X55168142Y-29921143D01*
X54631000Y-33515429D02*
X54631000Y-29584000D01*
X15385285Y-32549713D02*
X15385285Y-31978285D01*
X15728142Y-32663999D02*
X14528142Y-32263999D01*
X14528142Y-32263999D02*
X15728142Y-31863999D01*
X15728142Y-30835428D02*
X15728142Y-31521142D01*
X15728142Y-31178285D02*
X14528142Y-31178285D01*
X14528142Y-31178285D02*
X14699571Y-31292571D01*
X14699571Y-31292571D02*
X14813857Y-31406856D01*
X14813857Y-31406856D02*
X14871000Y-31521142D01*
X14642428Y-30378285D02*
X14585285Y-30321142D01*
X14585285Y-30321142D02*
X14528142Y-30206857D01*
X14528142Y-30206857D02*
X14528142Y-29921142D01*
X14528142Y-29921142D02*
X14585285Y-29806857D01*
X14585285Y-29806857D02*
X14642428Y-29749714D01*
X14642428Y-29749714D02*
X14756714Y-29692571D01*
X14756714Y-29692571D02*
X14871000Y-29692571D01*
X14871000Y-29692571D02*
X15042428Y-29749714D01*
X15042428Y-29749714D02*
X15728142Y-30435428D01*
X15728142Y-30435428D02*
X15728142Y-29692571D01*
X52628142Y-5670571D02*
X53828142Y-5384857D01*
X53828142Y-5384857D02*
X52971000Y-5156285D01*
X52971000Y-5156285D02*
X53828142Y-4927714D01*
X53828142Y-4927714D02*
X52628142Y-4642000D01*
X53485285Y-4241999D02*
X53485285Y-3670571D01*
X53828142Y-4356285D02*
X52628142Y-3956285D01*
X52628142Y-3956285D02*
X53828142Y-3556285D01*
X53828142Y-3156285D02*
X52628142Y-3156285D01*
X52628142Y-2756285D02*
X52628142Y-2070571D01*
X53828142Y-2413428D02*
X52628142Y-2413428D01*
X52091000Y-5722000D02*
X52091000Y-2076285D01*
X39985285Y-4927714D02*
X39928142Y-5042000D01*
X39928142Y-5042000D02*
X39928142Y-5213428D01*
X39928142Y-5213428D02*
X39985285Y-5384857D01*
X39985285Y-5384857D02*
X40099571Y-5499142D01*
X40099571Y-5499142D02*
X40213857Y-5556285D01*
X40213857Y-5556285D02*
X40442428Y-5613428D01*
X40442428Y-5613428D02*
X40613857Y-5613428D01*
X40613857Y-5613428D02*
X40842428Y-5556285D01*
X40842428Y-5556285D02*
X40956714Y-5499142D01*
X40956714Y-5499142D02*
X41071000Y-5384857D01*
X41071000Y-5384857D02*
X41128142Y-5213428D01*
X41128142Y-5213428D02*
X41128142Y-5099142D01*
X41128142Y-5099142D02*
X41071000Y-4927714D01*
X41071000Y-4927714D02*
X41013857Y-4870571D01*
X41013857Y-4870571D02*
X40613857Y-4870571D01*
X40613857Y-4870571D02*
X40613857Y-5099142D01*
X41128142Y-4356285D02*
X39928142Y-4356285D01*
X39928142Y-4356285D02*
X41128142Y-3670571D01*
X41128142Y-3670571D02*
X39928142Y-3670571D01*
X41128142Y-3099142D02*
X39928142Y-3099142D01*
X39928142Y-3099142D02*
X39928142Y-2813428D01*
X39928142Y-2813428D02*
X39985285Y-2641999D01*
X39985285Y-2641999D02*
X40099571Y-2527714D01*
X40099571Y-2527714D02*
X40213857Y-2470571D01*
X40213857Y-2470571D02*
X40442428Y-2413428D01*
X40442428Y-2413428D02*
X40613857Y-2413428D01*
X40613857Y-2413428D02*
X40842428Y-2470571D01*
X40842428Y-2470571D02*
X40956714Y-2527714D01*
X40956714Y-2527714D02*
X41071000Y-2641999D01*
X41071000Y-2641999D02*
X41128142Y-2813428D01*
X41128142Y-2813428D02*
X41128142Y-3099142D01*
X39293142Y-35151285D02*
X40493142Y-34751285D01*
X40493142Y-34751285D02*
X39293142Y-34351285D01*
X40378857Y-33265571D02*
X40436000Y-33322714D01*
X40436000Y-33322714D02*
X40493142Y-33494142D01*
X40493142Y-33494142D02*
X40493142Y-33608428D01*
X40493142Y-33608428D02*
X40436000Y-33779857D01*
X40436000Y-33779857D02*
X40321714Y-33894142D01*
X40321714Y-33894142D02*
X40207428Y-33951285D01*
X40207428Y-33951285D02*
X39978857Y-34008428D01*
X39978857Y-34008428D02*
X39807428Y-34008428D01*
X39807428Y-34008428D02*
X39578857Y-33951285D01*
X39578857Y-33951285D02*
X39464571Y-33894142D01*
X39464571Y-33894142D02*
X39350285Y-33779857D01*
X39350285Y-33779857D02*
X39293142Y-33608428D01*
X39293142Y-33608428D02*
X39293142Y-33494142D01*
X39293142Y-33494142D02*
X39350285Y-33322714D01*
X39350285Y-33322714D02*
X39407428Y-33265571D01*
X40378857Y-32065571D02*
X40436000Y-32122714D01*
X40436000Y-32122714D02*
X40493142Y-32294142D01*
X40493142Y-32294142D02*
X40493142Y-32408428D01*
X40493142Y-32408428D02*
X40436000Y-32579857D01*
X40436000Y-32579857D02*
X40321714Y-32694142D01*
X40321714Y-32694142D02*
X40207428Y-32751285D01*
X40207428Y-32751285D02*
X39978857Y-32808428D01*
X39978857Y-32808428D02*
X39807428Y-32808428D01*
X39807428Y-32808428D02*
X39578857Y-32751285D01*
X39578857Y-32751285D02*
X39464571Y-32694142D01*
X39464571Y-32694142D02*
X39350285Y-32579857D01*
X39350285Y-32579857D02*
X39293142Y-32408428D01*
X39293142Y-32408428D02*
X39293142Y-32294142D01*
X39293142Y-32294142D02*
X39350285Y-32122714D01*
X39350285Y-32122714D02*
X39407428Y-32065571D01*
X12845285Y-5613428D02*
X12845285Y-5042000D01*
X13188142Y-5727714D02*
X11988142Y-5327714D01*
X11988142Y-5327714D02*
X13188142Y-4927714D01*
X13188142Y-3899143D02*
X13188142Y-4584857D01*
X13188142Y-4242000D02*
X11988142Y-4242000D01*
X11988142Y-4242000D02*
X12159571Y-4356286D01*
X12159571Y-4356286D02*
X12273857Y-4470571D01*
X12273857Y-4470571D02*
X12331000Y-4584857D01*
X11988142Y-3156286D02*
X11988142Y-3042000D01*
X11988142Y-3042000D02*
X12045285Y-2927714D01*
X12045285Y-2927714D02*
X12102428Y-2870572D01*
X12102428Y-2870572D02*
X12216714Y-2813429D01*
X12216714Y-2813429D02*
X12445285Y-2756286D01*
X12445285Y-2756286D02*
X12731000Y-2756286D01*
X12731000Y-2756286D02*
X12959571Y-2813429D01*
X12959571Y-2813429D02*
X13073857Y-2870572D01*
X13073857Y-2870572D02*
X13131000Y-2927714D01*
X13131000Y-2927714D02*
X13188142Y-3042000D01*
X13188142Y-3042000D02*
X13188142Y-3156286D01*
X13188142Y-3156286D02*
X13131000Y-3270572D01*
X13131000Y-3270572D02*
X13073857Y-3327714D01*
X13073857Y-3327714D02*
X12959571Y-3384857D01*
X12959571Y-3384857D02*
X12731000Y-3442000D01*
X12731000Y-3442000D02*
X12445285Y-3442000D01*
X12445285Y-3442000D02*
X12216714Y-3384857D01*
X12216714Y-3384857D02*
X12102428Y-3327714D01*
X12102428Y-3327714D02*
X12045285Y-3270572D01*
X12045285Y-3270572D02*
X11988142Y-3156286D01*
X20465285Y-5613428D02*
X20465285Y-5042000D01*
X20808142Y-5727714D02*
X19608142Y-5327714D01*
X19608142Y-5327714D02*
X20808142Y-4927714D01*
X19608142Y-4642000D02*
X19608142Y-3842000D01*
X19608142Y-3842000D02*
X20808142Y-4356286D01*
X23005285Y-5613428D02*
X23005285Y-5042000D01*
X23348142Y-5727714D02*
X22148142Y-5327714D01*
X22148142Y-5327714D02*
X23348142Y-4927714D01*
X22148142Y-4013429D02*
X22148142Y-4242000D01*
X22148142Y-4242000D02*
X22205285Y-4356286D01*
X22205285Y-4356286D02*
X22262428Y-4413429D01*
X22262428Y-4413429D02*
X22433857Y-4527714D01*
X22433857Y-4527714D02*
X22662428Y-4584857D01*
X22662428Y-4584857D02*
X23119571Y-4584857D01*
X23119571Y-4584857D02*
X23233857Y-4527714D01*
X23233857Y-4527714D02*
X23291000Y-4470571D01*
X23291000Y-4470571D02*
X23348142Y-4356286D01*
X23348142Y-4356286D02*
X23348142Y-4127714D01*
X23348142Y-4127714D02*
X23291000Y-4013429D01*
X23291000Y-4013429D02*
X23233857Y-3956286D01*
X23233857Y-3956286D02*
X23119571Y-3899143D01*
X23119571Y-3899143D02*
X22833857Y-3899143D01*
X22833857Y-3899143D02*
X22719571Y-3956286D01*
X22719571Y-3956286D02*
X22662428Y-4013429D01*
X22662428Y-4013429D02*
X22605285Y-4127714D01*
X22605285Y-4127714D02*
X22605285Y-4356286D01*
X22605285Y-4356286D02*
X22662428Y-4470571D01*
X22662428Y-4470571D02*
X22719571Y-4527714D01*
X22719571Y-4527714D02*
X22833857Y-4584857D01*
X25773857Y-31864000D02*
X25831000Y-31921143D01*
X25831000Y-31921143D02*
X25888142Y-32092571D01*
X25888142Y-32092571D02*
X25888142Y-32206857D01*
X25888142Y-32206857D02*
X25831000Y-32378286D01*
X25831000Y-32378286D02*
X25716714Y-32492571D01*
X25716714Y-32492571D02*
X25602428Y-32549714D01*
X25602428Y-32549714D02*
X25373857Y-32606857D01*
X25373857Y-32606857D02*
X25202428Y-32606857D01*
X25202428Y-32606857D02*
X24973857Y-32549714D01*
X24973857Y-32549714D02*
X24859571Y-32492571D01*
X24859571Y-32492571D02*
X24745285Y-32378286D01*
X24745285Y-32378286D02*
X24688142Y-32206857D01*
X24688142Y-32206857D02*
X24688142Y-32092571D01*
X24688142Y-32092571D02*
X24745285Y-31921143D01*
X24745285Y-31921143D02*
X24802428Y-31864000D01*
X25888142Y-30778286D02*
X25888142Y-31349714D01*
X25888142Y-31349714D02*
X24688142Y-31349714D01*
X25888142Y-30378285D02*
X24688142Y-30378285D01*
X25888142Y-29692571D02*
X25202428Y-30206857D01*
X24688142Y-29692571D02*
X25373857Y-30378285D01*
X17925285Y-32549713D02*
X17925285Y-31978285D01*
X18268142Y-32663999D02*
X17068142Y-32263999D01*
X17068142Y-32263999D02*
X18268142Y-31863999D01*
X18268142Y-30835428D02*
X18268142Y-31521142D01*
X18268142Y-31178285D02*
X17068142Y-31178285D01*
X17068142Y-31178285D02*
X17239571Y-31292571D01*
X17239571Y-31292571D02*
X17353857Y-31406856D01*
X17353857Y-31406856D02*
X17411000Y-31521142D01*
X17068142Y-30435428D02*
X17068142Y-29692571D01*
X17068142Y-29692571D02*
X17525285Y-30092571D01*
X17525285Y-30092571D02*
X17525285Y-29921142D01*
X17525285Y-29921142D02*
X17582428Y-29806857D01*
X17582428Y-29806857D02*
X17639571Y-29749714D01*
X17639571Y-29749714D02*
X17753857Y-29692571D01*
X17753857Y-29692571D02*
X18039571Y-29692571D01*
X18039571Y-29692571D02*
X18153857Y-29749714D01*
X18153857Y-29749714D02*
X18211000Y-29806857D01*
X18211000Y-29806857D02*
X18268142Y-29921142D01*
X18268142Y-29921142D02*
X18268142Y-30263999D01*
X18268142Y-30263999D02*
X18211000Y-30378285D01*
X18211000Y-30378285D02*
X18153857Y-30435428D01*
X61448142Y-4870571D02*
X60876714Y-5270571D01*
X61448142Y-5556285D02*
X60248142Y-5556285D01*
X60248142Y-5556285D02*
X60248142Y-5099142D01*
X60248142Y-5099142D02*
X60305285Y-4984857D01*
X60305285Y-4984857D02*
X60362428Y-4927714D01*
X60362428Y-4927714D02*
X60476714Y-4870571D01*
X60476714Y-4870571D02*
X60648142Y-4870571D01*
X60648142Y-4870571D02*
X60762428Y-4927714D01*
X60762428Y-4927714D02*
X60819571Y-4984857D01*
X60819571Y-4984857D02*
X60876714Y-5099142D01*
X60876714Y-5099142D02*
X60876714Y-5556285D01*
X61448142Y-4356285D02*
X60248142Y-4356285D01*
X60248142Y-4356285D02*
X60248142Y-4070571D01*
X60248142Y-4070571D02*
X60305285Y-3899142D01*
X60305285Y-3899142D02*
X60419571Y-3784857D01*
X60419571Y-3784857D02*
X60533857Y-3727714D01*
X60533857Y-3727714D02*
X60762428Y-3670571D01*
X60762428Y-3670571D02*
X60933857Y-3670571D01*
X60933857Y-3670571D02*
X61162428Y-3727714D01*
X61162428Y-3727714D02*
X61276714Y-3784857D01*
X61276714Y-3784857D02*
X61391000Y-3899142D01*
X61391000Y-3899142D02*
X61448142Y-4070571D01*
X61448142Y-4070571D02*
X61448142Y-4356285D01*
X59711000Y-5722000D02*
X59711000Y-3562000D01*
X51288142Y-31921143D02*
X50088142Y-31921143D01*
X51288142Y-31349714D02*
X50088142Y-31349714D01*
X50088142Y-31349714D02*
X51288142Y-30664000D01*
X51288142Y-30664000D02*
X50088142Y-30664000D01*
X50088142Y-30264000D02*
X50088142Y-29578286D01*
X51288142Y-29921143D02*
X50088142Y-29921143D01*
X49551000Y-32086858D02*
X49551000Y-29584000D01*
X15385285Y-5613428D02*
X15385285Y-5042000D01*
X15728142Y-5727714D02*
X14528142Y-5327714D01*
X14528142Y-5327714D02*
X15728142Y-4927714D01*
X15728142Y-4470571D02*
X15728142Y-4242000D01*
X15728142Y-4242000D02*
X15671000Y-4127714D01*
X15671000Y-4127714D02*
X15613857Y-4070571D01*
X15613857Y-4070571D02*
X15442428Y-3956286D01*
X15442428Y-3956286D02*
X15213857Y-3899143D01*
X15213857Y-3899143D02*
X14756714Y-3899143D01*
X14756714Y-3899143D02*
X14642428Y-3956286D01*
X14642428Y-3956286D02*
X14585285Y-4013429D01*
X14585285Y-4013429D02*
X14528142Y-4127714D01*
X14528142Y-4127714D02*
X14528142Y-4356286D01*
X14528142Y-4356286D02*
X14585285Y-4470571D01*
X14585285Y-4470571D02*
X14642428Y-4527714D01*
X14642428Y-4527714D02*
X14756714Y-4584857D01*
X14756714Y-4584857D02*
X15042428Y-4584857D01*
X15042428Y-4584857D02*
X15156714Y-4527714D01*
X15156714Y-4527714D02*
X15213857Y-4470571D01*
X15213857Y-4470571D02*
X15271000Y-4356286D01*
X15271000Y-4356286D02*
X15271000Y-4127714D01*
X15271000Y-4127714D02*
X15213857Y-4013429D01*
X15213857Y-4013429D02*
X15156714Y-3956286D01*
X15156714Y-3956286D02*
X15042428Y-3899143D01*
X48748142Y-31521142D02*
X47548142Y-31521142D01*
X47548142Y-31521142D02*
X47548142Y-31235428D01*
X47548142Y-31235428D02*
X47605285Y-31063999D01*
X47605285Y-31063999D02*
X47719571Y-30949714D01*
X47719571Y-30949714D02*
X47833857Y-30892571D01*
X47833857Y-30892571D02*
X48062428Y-30835428D01*
X48062428Y-30835428D02*
X48233857Y-30835428D01*
X48233857Y-30835428D02*
X48462428Y-30892571D01*
X48462428Y-30892571D02*
X48576714Y-30949714D01*
X48576714Y-30949714D02*
X48691000Y-31063999D01*
X48691000Y-31063999D02*
X48748142Y-31235428D01*
X48748142Y-31235428D02*
X48748142Y-31521142D01*
X48748142Y-29692571D02*
X48748142Y-30378285D01*
X48748142Y-30035428D02*
X47548142Y-30035428D01*
X47548142Y-30035428D02*
X47719571Y-30149714D01*
X47719571Y-30149714D02*
X47833857Y-30263999D01*
X47833857Y-30263999D02*
X47891000Y-30378285D01*
D10*
X14819285Y-68166428D02*
X15819285Y-68166428D01*
X15819285Y-68166428D02*
X14819285Y-69666428D01*
X14819285Y-69666428D02*
X15819285Y-69666428D01*
X16604999Y-68809285D02*
X16462142Y-68737857D01*
X16462142Y-68737857D02*
X16390713Y-68666428D01*
X16390713Y-68666428D02*
X16319285Y-68523571D01*
X16319285Y-68523571D02*
X16319285Y-68452142D01*
X16319285Y-68452142D02*
X16390713Y-68309285D01*
X16390713Y-68309285D02*
X16462142Y-68237857D01*
X16462142Y-68237857D02*
X16604999Y-68166428D01*
X16604999Y-68166428D02*
X16890713Y-68166428D01*
X16890713Y-68166428D02*
X17033571Y-68237857D01*
X17033571Y-68237857D02*
X17104999Y-68309285D01*
X17104999Y-68309285D02*
X17176428Y-68452142D01*
X17176428Y-68452142D02*
X17176428Y-68523571D01*
X17176428Y-68523571D02*
X17104999Y-68666428D01*
X17104999Y-68666428D02*
X17033571Y-68737857D01*
X17033571Y-68737857D02*
X16890713Y-68809285D01*
X16890713Y-68809285D02*
X16604999Y-68809285D01*
X16604999Y-68809285D02*
X16462142Y-68880714D01*
X16462142Y-68880714D02*
X16390713Y-68952142D01*
X16390713Y-68952142D02*
X16319285Y-69095000D01*
X16319285Y-69095000D02*
X16319285Y-69380714D01*
X16319285Y-69380714D02*
X16390713Y-69523571D01*
X16390713Y-69523571D02*
X16462142Y-69595000D01*
X16462142Y-69595000D02*
X16604999Y-69666428D01*
X16604999Y-69666428D02*
X16890713Y-69666428D01*
X16890713Y-69666428D02*
X17033571Y-69595000D01*
X17033571Y-69595000D02*
X17104999Y-69523571D01*
X17104999Y-69523571D02*
X17176428Y-69380714D01*
X17176428Y-69380714D02*
X17176428Y-69095000D01*
X17176428Y-69095000D02*
X17104999Y-68952142D01*
X17104999Y-68952142D02*
X17033571Y-68880714D01*
X17033571Y-68880714D02*
X16890713Y-68809285D01*
X18104999Y-68166428D02*
X18247856Y-68166428D01*
X18247856Y-68166428D02*
X18390713Y-68237857D01*
X18390713Y-68237857D02*
X18462142Y-68309285D01*
X18462142Y-68309285D02*
X18533570Y-68452142D01*
X18533570Y-68452142D02*
X18604999Y-68737857D01*
X18604999Y-68737857D02*
X18604999Y-69095000D01*
X18604999Y-69095000D02*
X18533570Y-69380714D01*
X18533570Y-69380714D02*
X18462142Y-69523571D01*
X18462142Y-69523571D02*
X18390713Y-69595000D01*
X18390713Y-69595000D02*
X18247856Y-69666428D01*
X18247856Y-69666428D02*
X18104999Y-69666428D01*
X18104999Y-69666428D02*
X17962142Y-69595000D01*
X17962142Y-69595000D02*
X17890713Y-69523571D01*
X17890713Y-69523571D02*
X17819284Y-69380714D01*
X17819284Y-69380714D02*
X17747856Y-69095000D01*
X17747856Y-69095000D02*
X17747856Y-68737857D01*
X17747856Y-68737857D02*
X17819284Y-68452142D01*
X17819284Y-68452142D02*
X17890713Y-68309285D01*
X17890713Y-68309285D02*
X17962142Y-68237857D01*
X17962142Y-68237857D02*
X18104999Y-68166428D01*
X20390712Y-69666428D02*
X20390712Y-68166428D01*
X20390712Y-68166428D02*
X20890712Y-69237857D01*
X20890712Y-69237857D02*
X21390712Y-68166428D01*
X21390712Y-68166428D02*
X21390712Y-69666428D01*
X22676427Y-69595000D02*
X22533570Y-69666428D01*
X22533570Y-69666428D02*
X22247856Y-69666428D01*
X22247856Y-69666428D02*
X22104998Y-69595000D01*
X22104998Y-69595000D02*
X22033570Y-69452142D01*
X22033570Y-69452142D02*
X22033570Y-68880714D01*
X22033570Y-68880714D02*
X22104998Y-68737857D01*
X22104998Y-68737857D02*
X22247856Y-68666428D01*
X22247856Y-68666428D02*
X22533570Y-68666428D01*
X22533570Y-68666428D02*
X22676427Y-68737857D01*
X22676427Y-68737857D02*
X22747856Y-68880714D01*
X22747856Y-68880714D02*
X22747856Y-69023571D01*
X22747856Y-69023571D02*
X22033570Y-69166428D01*
X23390712Y-69666428D02*
X23390712Y-68666428D01*
X23390712Y-68809285D02*
X23462141Y-68737857D01*
X23462141Y-68737857D02*
X23604998Y-68666428D01*
X23604998Y-68666428D02*
X23819284Y-68666428D01*
X23819284Y-68666428D02*
X23962141Y-68737857D01*
X23962141Y-68737857D02*
X24033570Y-68880714D01*
X24033570Y-68880714D02*
X24033570Y-69666428D01*
X24033570Y-68880714D02*
X24104998Y-68737857D01*
X24104998Y-68737857D02*
X24247855Y-68666428D01*
X24247855Y-68666428D02*
X24462141Y-68666428D01*
X24462141Y-68666428D02*
X24604998Y-68737857D01*
X24604998Y-68737857D02*
X24676427Y-68880714D01*
X24676427Y-68880714D02*
X24676427Y-69666428D01*
X25604998Y-69666428D02*
X25462141Y-69595000D01*
X25462141Y-69595000D02*
X25390712Y-69523571D01*
X25390712Y-69523571D02*
X25319284Y-69380714D01*
X25319284Y-69380714D02*
X25319284Y-68952142D01*
X25319284Y-68952142D02*
X25390712Y-68809285D01*
X25390712Y-68809285D02*
X25462141Y-68737857D01*
X25462141Y-68737857D02*
X25604998Y-68666428D01*
X25604998Y-68666428D02*
X25819284Y-68666428D01*
X25819284Y-68666428D02*
X25962141Y-68737857D01*
X25962141Y-68737857D02*
X26033570Y-68809285D01*
X26033570Y-68809285D02*
X26104998Y-68952142D01*
X26104998Y-68952142D02*
X26104998Y-69380714D01*
X26104998Y-69380714D02*
X26033570Y-69523571D01*
X26033570Y-69523571D02*
X25962141Y-69595000D01*
X25962141Y-69595000D02*
X25819284Y-69666428D01*
X25819284Y-69666428D02*
X25604998Y-69666428D01*
X26747855Y-69666428D02*
X26747855Y-68666428D01*
X26747855Y-68952142D02*
X26819284Y-68809285D01*
X26819284Y-68809285D02*
X26890713Y-68737857D01*
X26890713Y-68737857D02*
X27033570Y-68666428D01*
X27033570Y-68666428D02*
X27176427Y-68666428D01*
X27533569Y-68666428D02*
X27890712Y-69666428D01*
X28247855Y-68666428D02*
X27890712Y-69666428D01*
X27890712Y-69666428D02*
X27747855Y-70023571D01*
X27747855Y-70023571D02*
X27676426Y-70095000D01*
X27676426Y-70095000D02*
X27533569Y-70166428D01*
X29890712Y-69595000D02*
X30104998Y-69666428D01*
X30104998Y-69666428D02*
X30462140Y-69666428D01*
X30462140Y-69666428D02*
X30604998Y-69595000D01*
X30604998Y-69595000D02*
X30676426Y-69523571D01*
X30676426Y-69523571D02*
X30747855Y-69380714D01*
X30747855Y-69380714D02*
X30747855Y-69237857D01*
X30747855Y-69237857D02*
X30676426Y-69095000D01*
X30676426Y-69095000D02*
X30604998Y-69023571D01*
X30604998Y-69023571D02*
X30462140Y-68952142D01*
X30462140Y-68952142D02*
X30176426Y-68880714D01*
X30176426Y-68880714D02*
X30033569Y-68809285D01*
X30033569Y-68809285D02*
X29962140Y-68737857D01*
X29962140Y-68737857D02*
X29890712Y-68595000D01*
X29890712Y-68595000D02*
X29890712Y-68452142D01*
X29890712Y-68452142D02*
X29962140Y-68309285D01*
X29962140Y-68309285D02*
X30033569Y-68237857D01*
X30033569Y-68237857D02*
X30176426Y-68166428D01*
X30176426Y-68166428D02*
X30533569Y-68166428D01*
X30533569Y-68166428D02*
X30747855Y-68237857D01*
X31247854Y-68666428D02*
X31604997Y-69666428D01*
X31962140Y-68666428D02*
X31604997Y-69666428D01*
X31604997Y-69666428D02*
X31462140Y-70023571D01*
X31462140Y-70023571D02*
X31390711Y-70095000D01*
X31390711Y-70095000D02*
X31247854Y-70166428D01*
X32462140Y-69595000D02*
X32604997Y-69666428D01*
X32604997Y-69666428D02*
X32890711Y-69666428D01*
X32890711Y-69666428D02*
X33033568Y-69595000D01*
X33033568Y-69595000D02*
X33104997Y-69452142D01*
X33104997Y-69452142D02*
X33104997Y-69380714D01*
X33104997Y-69380714D02*
X33033568Y-69237857D01*
X33033568Y-69237857D02*
X32890711Y-69166428D01*
X32890711Y-69166428D02*
X32676426Y-69166428D01*
X32676426Y-69166428D02*
X32533568Y-69095000D01*
X32533568Y-69095000D02*
X32462140Y-68952142D01*
X32462140Y-68952142D02*
X32462140Y-68880714D01*
X32462140Y-68880714D02*
X32533568Y-68737857D01*
X32533568Y-68737857D02*
X32676426Y-68666428D01*
X32676426Y-68666428D02*
X32890711Y-68666428D01*
X32890711Y-68666428D02*
X33033568Y-68737857D01*
X33533569Y-68666428D02*
X34104997Y-68666428D01*
X33747854Y-68166428D02*
X33747854Y-69452142D01*
X33747854Y-69452142D02*
X33819283Y-69595000D01*
X33819283Y-69595000D02*
X33962140Y-69666428D01*
X33962140Y-69666428D02*
X34104997Y-69666428D01*
X35176426Y-69595000D02*
X35033569Y-69666428D01*
X35033569Y-69666428D02*
X34747855Y-69666428D01*
X34747855Y-69666428D02*
X34604997Y-69595000D01*
X34604997Y-69595000D02*
X34533569Y-69452142D01*
X34533569Y-69452142D02*
X34533569Y-68880714D01*
X34533569Y-68880714D02*
X34604997Y-68737857D01*
X34604997Y-68737857D02*
X34747855Y-68666428D01*
X34747855Y-68666428D02*
X35033569Y-68666428D01*
X35033569Y-68666428D02*
X35176426Y-68737857D01*
X35176426Y-68737857D02*
X35247855Y-68880714D01*
X35247855Y-68880714D02*
X35247855Y-69023571D01*
X35247855Y-69023571D02*
X34533569Y-69166428D01*
X35890711Y-69666428D02*
X35890711Y-68666428D01*
X35890711Y-68809285D02*
X35962140Y-68737857D01*
X35962140Y-68737857D02*
X36104997Y-68666428D01*
X36104997Y-68666428D02*
X36319283Y-68666428D01*
X36319283Y-68666428D02*
X36462140Y-68737857D01*
X36462140Y-68737857D02*
X36533569Y-68880714D01*
X36533569Y-68880714D02*
X36533569Y-69666428D01*
X36533569Y-68880714D02*
X36604997Y-68737857D01*
X36604997Y-68737857D02*
X36747854Y-68666428D01*
X36747854Y-68666428D02*
X36962140Y-68666428D01*
X36962140Y-68666428D02*
X37104997Y-68737857D01*
X37104997Y-68737857D02*
X37176426Y-68880714D01*
X37176426Y-68880714D02*
X37176426Y-69666428D01*
X39247854Y-69666428D02*
X39104997Y-69595000D01*
X39104997Y-69595000D02*
X39033568Y-69523571D01*
X39033568Y-69523571D02*
X38962140Y-69380714D01*
X38962140Y-69380714D02*
X38962140Y-68952142D01*
X38962140Y-68952142D02*
X39033568Y-68809285D01*
X39033568Y-68809285D02*
X39104997Y-68737857D01*
X39104997Y-68737857D02*
X39247854Y-68666428D01*
X39247854Y-68666428D02*
X39462140Y-68666428D01*
X39462140Y-68666428D02*
X39604997Y-68737857D01*
X39604997Y-68737857D02*
X39676426Y-68809285D01*
X39676426Y-68809285D02*
X39747854Y-68952142D01*
X39747854Y-68952142D02*
X39747854Y-69380714D01*
X39747854Y-69380714D02*
X39676426Y-69523571D01*
X39676426Y-69523571D02*
X39604997Y-69595000D01*
X39604997Y-69595000D02*
X39462140Y-69666428D01*
X39462140Y-69666428D02*
X39247854Y-69666428D01*
X40390711Y-68666428D02*
X40390711Y-69666428D01*
X40390711Y-68809285D02*
X40462140Y-68737857D01*
X40462140Y-68737857D02*
X40604997Y-68666428D01*
X40604997Y-68666428D02*
X40819283Y-68666428D01*
X40819283Y-68666428D02*
X40962140Y-68737857D01*
X40962140Y-68737857D02*
X41033569Y-68880714D01*
X41033569Y-68880714D02*
X41033569Y-69666428D01*
X42676426Y-68166428D02*
X43533569Y-68166428D01*
X43104997Y-69666428D02*
X43104997Y-68166428D01*
X44676426Y-69666428D02*
X44676426Y-68880714D01*
X44676426Y-68880714D02*
X44604997Y-68737857D01*
X44604997Y-68737857D02*
X44462140Y-68666428D01*
X44462140Y-68666428D02*
X44176426Y-68666428D01*
X44176426Y-68666428D02*
X44033568Y-68737857D01*
X44676426Y-69595000D02*
X44533568Y-69666428D01*
X44533568Y-69666428D02*
X44176426Y-69666428D01*
X44176426Y-69666428D02*
X44033568Y-69595000D01*
X44033568Y-69595000D02*
X43962140Y-69452142D01*
X43962140Y-69452142D02*
X43962140Y-69309285D01*
X43962140Y-69309285D02*
X44033568Y-69166428D01*
X44033568Y-69166428D02*
X44176426Y-69095000D01*
X44176426Y-69095000D02*
X44533568Y-69095000D01*
X44533568Y-69095000D02*
X44676426Y-69023571D01*
X45390711Y-68666428D02*
X45390711Y-69666428D01*
X45390711Y-68809285D02*
X45462140Y-68737857D01*
X45462140Y-68737857D02*
X45604997Y-68666428D01*
X45604997Y-68666428D02*
X45819283Y-68666428D01*
X45819283Y-68666428D02*
X45962140Y-68737857D01*
X45962140Y-68737857D02*
X46033569Y-68880714D01*
X46033569Y-68880714D02*
X46033569Y-69666428D01*
X47390712Y-68666428D02*
X47390712Y-69880714D01*
X47390712Y-69880714D02*
X47319283Y-70023571D01*
X47319283Y-70023571D02*
X47247854Y-70095000D01*
X47247854Y-70095000D02*
X47104997Y-70166428D01*
X47104997Y-70166428D02*
X46890712Y-70166428D01*
X46890712Y-70166428D02*
X46747854Y-70095000D01*
X47390712Y-69595000D02*
X47247854Y-69666428D01*
X47247854Y-69666428D02*
X46962140Y-69666428D01*
X46962140Y-69666428D02*
X46819283Y-69595000D01*
X46819283Y-69595000D02*
X46747854Y-69523571D01*
X46747854Y-69523571D02*
X46676426Y-69380714D01*
X46676426Y-69380714D02*
X46676426Y-68952142D01*
X46676426Y-68952142D02*
X46747854Y-68809285D01*
X46747854Y-68809285D02*
X46819283Y-68737857D01*
X46819283Y-68737857D02*
X46962140Y-68666428D01*
X46962140Y-68666428D02*
X47247854Y-68666428D01*
X47247854Y-68666428D02*
X47390712Y-68737857D01*
X49247854Y-69666428D02*
X49247854Y-68166428D01*
X49247854Y-68166428D02*
X50104997Y-69666428D01*
X50104997Y-69666428D02*
X50104997Y-68166428D01*
X51462141Y-69666428D02*
X51462141Y-68880714D01*
X51462141Y-68880714D02*
X51390712Y-68737857D01*
X51390712Y-68737857D02*
X51247855Y-68666428D01*
X51247855Y-68666428D02*
X50962141Y-68666428D01*
X50962141Y-68666428D02*
X50819283Y-68737857D01*
X51462141Y-69595000D02*
X51319283Y-69666428D01*
X51319283Y-69666428D02*
X50962141Y-69666428D01*
X50962141Y-69666428D02*
X50819283Y-69595000D01*
X50819283Y-69595000D02*
X50747855Y-69452142D01*
X50747855Y-69452142D02*
X50747855Y-69309285D01*
X50747855Y-69309285D02*
X50819283Y-69166428D01*
X50819283Y-69166428D02*
X50962141Y-69095000D01*
X50962141Y-69095000D02*
X51319283Y-69095000D01*
X51319283Y-69095000D02*
X51462141Y-69023571D01*
X52176426Y-68666428D02*
X52176426Y-69666428D01*
X52176426Y-68809285D02*
X52247855Y-68737857D01*
X52247855Y-68737857D02*
X52390712Y-68666428D01*
X52390712Y-68666428D02*
X52604998Y-68666428D01*
X52604998Y-68666428D02*
X52747855Y-68737857D01*
X52747855Y-68737857D02*
X52819284Y-68880714D01*
X52819284Y-68880714D02*
X52819284Y-69666428D01*
X53747855Y-69666428D02*
X53604998Y-69595000D01*
X53604998Y-69595000D02*
X53533569Y-69523571D01*
X53533569Y-69523571D02*
X53462141Y-69380714D01*
X53462141Y-69380714D02*
X53462141Y-68952142D01*
X53462141Y-68952142D02*
X53533569Y-68809285D01*
X53533569Y-68809285D02*
X53604998Y-68737857D01*
X53604998Y-68737857D02*
X53747855Y-68666428D01*
X53747855Y-68666428D02*
X53962141Y-68666428D01*
X53962141Y-68666428D02*
X54104998Y-68737857D01*
X54104998Y-68737857D02*
X54176427Y-68809285D01*
X54176427Y-68809285D02*
X54247855Y-68952142D01*
X54247855Y-68952142D02*
X54247855Y-69380714D01*
X54247855Y-69380714D02*
X54176427Y-69523571D01*
X54176427Y-69523571D02*
X54104998Y-69595000D01*
X54104998Y-69595000D02*
X53962141Y-69666428D01*
X53962141Y-69666428D02*
X53747855Y-69666428D01*
X55962141Y-68309285D02*
X56033569Y-68237857D01*
X56033569Y-68237857D02*
X56176427Y-68166428D01*
X56176427Y-68166428D02*
X56533569Y-68166428D01*
X56533569Y-68166428D02*
X56676427Y-68237857D01*
X56676427Y-68237857D02*
X56747855Y-68309285D01*
X56747855Y-68309285D02*
X56819284Y-68452142D01*
X56819284Y-68452142D02*
X56819284Y-68595000D01*
X56819284Y-68595000D02*
X56747855Y-68809285D01*
X56747855Y-68809285D02*
X55890712Y-69666428D01*
X55890712Y-69666428D02*
X56819284Y-69666428D01*
X57747855Y-68166428D02*
X57890712Y-68166428D01*
X57890712Y-68166428D02*
X58033569Y-68237857D01*
X58033569Y-68237857D02*
X58104998Y-68309285D01*
X58104998Y-68309285D02*
X58176426Y-68452142D01*
X58176426Y-68452142D02*
X58247855Y-68737857D01*
X58247855Y-68737857D02*
X58247855Y-69095000D01*
X58247855Y-69095000D02*
X58176426Y-69380714D01*
X58176426Y-69380714D02*
X58104998Y-69523571D01*
X58104998Y-69523571D02*
X58033569Y-69595000D01*
X58033569Y-69595000D02*
X57890712Y-69666428D01*
X57890712Y-69666428D02*
X57747855Y-69666428D01*
X57747855Y-69666428D02*
X57604998Y-69595000D01*
X57604998Y-69595000D02*
X57533569Y-69523571D01*
X57533569Y-69523571D02*
X57462140Y-69380714D01*
X57462140Y-69380714D02*
X57390712Y-69095000D01*
X57390712Y-69095000D02*
X57390712Y-68737857D01*
X57390712Y-68737857D02*
X57462140Y-68452142D01*
X57462140Y-68452142D02*
X57533569Y-68309285D01*
X57533569Y-68309285D02*
X57604998Y-68237857D01*
X57604998Y-68237857D02*
X57747855Y-68166428D01*
X58890711Y-69666428D02*
X58890711Y-68166428D01*
X59747854Y-69666428D02*
X59104997Y-68809285D01*
X59747854Y-68166428D02*
X58890711Y-69023571D01*
D11*
X29305238Y-62377619D02*
X29876666Y-62377619D01*
X29590952Y-63377619D02*
X29590952Y-62377619D01*
X30638571Y-63377619D02*
X30638571Y-62853809D01*
X30638571Y-62853809D02*
X30590952Y-62758571D01*
X30590952Y-62758571D02*
X30495714Y-62710952D01*
X30495714Y-62710952D02*
X30305238Y-62710952D01*
X30305238Y-62710952D02*
X30210000Y-62758571D01*
X30638571Y-63330000D02*
X30543333Y-63377619D01*
X30543333Y-63377619D02*
X30305238Y-63377619D01*
X30305238Y-63377619D02*
X30210000Y-63330000D01*
X30210000Y-63330000D02*
X30162381Y-63234761D01*
X30162381Y-63234761D02*
X30162381Y-63139523D01*
X30162381Y-63139523D02*
X30210000Y-63044285D01*
X30210000Y-63044285D02*
X30305238Y-62996666D01*
X30305238Y-62996666D02*
X30543333Y-62996666D01*
X30543333Y-62996666D02*
X30638571Y-62949047D01*
X31114762Y-62710952D02*
X31114762Y-63377619D01*
X31114762Y-62806190D02*
X31162381Y-62758571D01*
X31162381Y-62758571D02*
X31257619Y-62710952D01*
X31257619Y-62710952D02*
X31400476Y-62710952D01*
X31400476Y-62710952D02*
X31495714Y-62758571D01*
X31495714Y-62758571D02*
X31543333Y-62853809D01*
X31543333Y-62853809D02*
X31543333Y-63377619D01*
X32448095Y-62710952D02*
X32448095Y-63520476D01*
X32448095Y-63520476D02*
X32400476Y-63615714D01*
X32400476Y-63615714D02*
X32352857Y-63663333D01*
X32352857Y-63663333D02*
X32257619Y-63710952D01*
X32257619Y-63710952D02*
X32114762Y-63710952D01*
X32114762Y-63710952D02*
X32019524Y-63663333D01*
X32448095Y-63330000D02*
X32352857Y-63377619D01*
X32352857Y-63377619D02*
X32162381Y-63377619D01*
X32162381Y-63377619D02*
X32067143Y-63330000D01*
X32067143Y-63330000D02*
X32019524Y-63282380D01*
X32019524Y-63282380D02*
X31971905Y-63187142D01*
X31971905Y-63187142D02*
X31971905Y-62901428D01*
X31971905Y-62901428D02*
X32019524Y-62806190D01*
X32019524Y-62806190D02*
X32067143Y-62758571D01*
X32067143Y-62758571D02*
X32162381Y-62710952D01*
X32162381Y-62710952D02*
X32352857Y-62710952D01*
X32352857Y-62710952D02*
X32448095Y-62758571D01*
X32924286Y-63377619D02*
X32924286Y-62377619D01*
X32924286Y-62377619D02*
X33495714Y-63377619D01*
X33495714Y-63377619D02*
X33495714Y-62377619D01*
X34400476Y-63377619D02*
X34400476Y-62853809D01*
X34400476Y-62853809D02*
X34352857Y-62758571D01*
X34352857Y-62758571D02*
X34257619Y-62710952D01*
X34257619Y-62710952D02*
X34067143Y-62710952D01*
X34067143Y-62710952D02*
X33971905Y-62758571D01*
X34400476Y-63330000D02*
X34305238Y-63377619D01*
X34305238Y-63377619D02*
X34067143Y-63377619D01*
X34067143Y-63377619D02*
X33971905Y-63330000D01*
X33971905Y-63330000D02*
X33924286Y-63234761D01*
X33924286Y-63234761D02*
X33924286Y-63139523D01*
X33924286Y-63139523D02*
X33971905Y-63044285D01*
X33971905Y-63044285D02*
X34067143Y-62996666D01*
X34067143Y-62996666D02*
X34305238Y-62996666D01*
X34305238Y-62996666D02*
X34400476Y-62949047D01*
X34876667Y-62710952D02*
X34876667Y-63377619D01*
X34876667Y-62806190D02*
X34924286Y-62758571D01*
X34924286Y-62758571D02*
X35019524Y-62710952D01*
X35019524Y-62710952D02*
X35162381Y-62710952D01*
X35162381Y-62710952D02*
X35257619Y-62758571D01*
X35257619Y-62758571D02*
X35305238Y-62853809D01*
X35305238Y-62853809D02*
X35305238Y-63377619D01*
X35924286Y-63377619D02*
X35829048Y-63330000D01*
X35829048Y-63330000D02*
X35781429Y-63282380D01*
X35781429Y-63282380D02*
X35733810Y-63187142D01*
X35733810Y-63187142D02*
X35733810Y-62901428D01*
X35733810Y-62901428D02*
X35781429Y-62806190D01*
X35781429Y-62806190D02*
X35829048Y-62758571D01*
X35829048Y-62758571D02*
X35924286Y-62710952D01*
X35924286Y-62710952D02*
X36067143Y-62710952D01*
X36067143Y-62710952D02*
X36162381Y-62758571D01*
X36162381Y-62758571D02*
X36210000Y-62806190D01*
X36210000Y-62806190D02*
X36257619Y-62901428D01*
X36257619Y-62901428D02*
X36257619Y-63187142D01*
X36257619Y-63187142D02*
X36210000Y-63282380D01*
X36210000Y-63282380D02*
X36162381Y-63330000D01*
X36162381Y-63330000D02*
X36067143Y-63377619D01*
X36067143Y-63377619D02*
X35924286Y-63377619D01*
X36638572Y-62472857D02*
X36686191Y-62425238D01*
X36686191Y-62425238D02*
X36781429Y-62377619D01*
X36781429Y-62377619D02*
X37019524Y-62377619D01*
X37019524Y-62377619D02*
X37114762Y-62425238D01*
X37114762Y-62425238D02*
X37162381Y-62472857D01*
X37162381Y-62472857D02*
X37210000Y-62568095D01*
X37210000Y-62568095D02*
X37210000Y-62663333D01*
X37210000Y-62663333D02*
X37162381Y-62806190D01*
X37162381Y-62806190D02*
X36590953Y-63377619D01*
X36590953Y-63377619D02*
X37210000Y-63377619D01*
X37829048Y-62377619D02*
X37924286Y-62377619D01*
X37924286Y-62377619D02*
X38019524Y-62425238D01*
X38019524Y-62425238D02*
X38067143Y-62472857D01*
X38067143Y-62472857D02*
X38114762Y-62568095D01*
X38114762Y-62568095D02*
X38162381Y-62758571D01*
X38162381Y-62758571D02*
X38162381Y-62996666D01*
X38162381Y-62996666D02*
X38114762Y-63187142D01*
X38114762Y-63187142D02*
X38067143Y-63282380D01*
X38067143Y-63282380D02*
X38019524Y-63330000D01*
X38019524Y-63330000D02*
X37924286Y-63377619D01*
X37924286Y-63377619D02*
X37829048Y-63377619D01*
X37829048Y-63377619D02*
X37733810Y-63330000D01*
X37733810Y-63330000D02*
X37686191Y-63282380D01*
X37686191Y-63282380D02*
X37638572Y-63187142D01*
X37638572Y-63187142D02*
X37590953Y-62996666D01*
X37590953Y-62996666D02*
X37590953Y-62758571D01*
X37590953Y-62758571D02*
X37638572Y-62568095D01*
X37638572Y-62568095D02*
X37686191Y-62472857D01*
X37686191Y-62472857D02*
X37733810Y-62425238D01*
X37733810Y-62425238D02*
X37829048Y-62377619D01*
X38590953Y-63377619D02*
X38590953Y-62377619D01*
X39162381Y-63377619D02*
X38733810Y-62806190D01*
X39162381Y-62377619D02*
X38590953Y-62949047D01*
X40257620Y-62710952D02*
X40448096Y-63377619D01*
X40448096Y-63377619D02*
X40638572Y-62901428D01*
X40638572Y-62901428D02*
X40829048Y-63377619D01*
X40829048Y-63377619D02*
X41019524Y-62710952D01*
X41400477Y-63377619D02*
X41400477Y-62710952D01*
X41400477Y-62377619D02*
X41352858Y-62425238D01*
X41352858Y-62425238D02*
X41400477Y-62472857D01*
X41400477Y-62472857D02*
X41448096Y-62425238D01*
X41448096Y-62425238D02*
X41400477Y-62377619D01*
X41400477Y-62377619D02*
X41400477Y-62472857D01*
X41733810Y-62710952D02*
X42114762Y-62710952D01*
X41876667Y-62377619D02*
X41876667Y-63234761D01*
X41876667Y-63234761D02*
X41924286Y-63330000D01*
X41924286Y-63330000D02*
X42019524Y-63377619D01*
X42019524Y-63377619D02*
X42114762Y-63377619D01*
X42448096Y-63377619D02*
X42448096Y-62377619D01*
X42876667Y-63377619D02*
X42876667Y-62853809D01*
X42876667Y-62853809D02*
X42829048Y-62758571D01*
X42829048Y-62758571D02*
X42733810Y-62710952D01*
X42733810Y-62710952D02*
X42590953Y-62710952D01*
X42590953Y-62710952D02*
X42495715Y-62758571D01*
X42495715Y-62758571D02*
X42448096Y-62806190D01*
X44590953Y-62377619D02*
X44114763Y-62377619D01*
X44114763Y-62377619D02*
X44067144Y-62853809D01*
X44067144Y-62853809D02*
X44114763Y-62806190D01*
X44114763Y-62806190D02*
X44210001Y-62758571D01*
X44210001Y-62758571D02*
X44448096Y-62758571D01*
X44448096Y-62758571D02*
X44543334Y-62806190D01*
X44543334Y-62806190D02*
X44590953Y-62853809D01*
X44590953Y-62853809D02*
X44638572Y-62949047D01*
X44638572Y-62949047D02*
X44638572Y-63187142D01*
X44638572Y-63187142D02*
X44590953Y-63282380D01*
X44590953Y-63282380D02*
X44543334Y-63330000D01*
X44543334Y-63330000D02*
X44448096Y-63377619D01*
X44448096Y-63377619D02*
X44210001Y-63377619D01*
X44210001Y-63377619D02*
X44114763Y-63330000D01*
X44114763Y-63330000D02*
X44067144Y-63282380D01*
X44924287Y-62377619D02*
X45257620Y-63377619D01*
X45257620Y-63377619D02*
X45590953Y-62377619D01*
X46543335Y-62377619D02*
X47114763Y-62377619D01*
X46829049Y-63377619D02*
X46829049Y-62377619D01*
X47590954Y-63377619D02*
X47495716Y-63330000D01*
X47495716Y-63330000D02*
X47448097Y-63282380D01*
X47448097Y-63282380D02*
X47400478Y-63187142D01*
X47400478Y-63187142D02*
X47400478Y-62901428D01*
X47400478Y-62901428D02*
X47448097Y-62806190D01*
X47448097Y-62806190D02*
X47495716Y-62758571D01*
X47495716Y-62758571D02*
X47590954Y-62710952D01*
X47590954Y-62710952D02*
X47733811Y-62710952D01*
X47733811Y-62710952D02*
X47829049Y-62758571D01*
X47829049Y-62758571D02*
X47876668Y-62806190D01*
X47876668Y-62806190D02*
X47924287Y-62901428D01*
X47924287Y-62901428D02*
X47924287Y-63187142D01*
X47924287Y-63187142D02*
X47876668Y-63282380D01*
X47876668Y-63282380D02*
X47829049Y-63330000D01*
X47829049Y-63330000D02*
X47733811Y-63377619D01*
X47733811Y-63377619D02*
X47590954Y-63377619D01*
X48495716Y-63377619D02*
X48400478Y-63330000D01*
X48400478Y-63330000D02*
X48352859Y-63234761D01*
X48352859Y-63234761D02*
X48352859Y-62377619D01*
X49257621Y-63330000D02*
X49162383Y-63377619D01*
X49162383Y-63377619D02*
X48971907Y-63377619D01*
X48971907Y-63377619D02*
X48876669Y-63330000D01*
X48876669Y-63330000D02*
X48829050Y-63234761D01*
X48829050Y-63234761D02*
X48829050Y-62853809D01*
X48829050Y-62853809D02*
X48876669Y-62758571D01*
X48876669Y-62758571D02*
X48971907Y-62710952D01*
X48971907Y-62710952D02*
X49162383Y-62710952D01*
X49162383Y-62710952D02*
X49257621Y-62758571D01*
X49257621Y-62758571D02*
X49305240Y-62853809D01*
X49305240Y-62853809D02*
X49305240Y-62949047D01*
X49305240Y-62949047D02*
X48829050Y-63044285D01*
X49733812Y-63377619D02*
X49733812Y-62710952D01*
X49733812Y-62901428D02*
X49781431Y-62806190D01*
X49781431Y-62806190D02*
X49829050Y-62758571D01*
X49829050Y-62758571D02*
X49924288Y-62710952D01*
X49924288Y-62710952D02*
X50019526Y-62710952D01*
X50781431Y-63377619D02*
X50781431Y-62853809D01*
X50781431Y-62853809D02*
X50733812Y-62758571D01*
X50733812Y-62758571D02*
X50638574Y-62710952D01*
X50638574Y-62710952D02*
X50448098Y-62710952D01*
X50448098Y-62710952D02*
X50352860Y-62758571D01*
X50781431Y-63330000D02*
X50686193Y-63377619D01*
X50686193Y-63377619D02*
X50448098Y-63377619D01*
X50448098Y-63377619D02*
X50352860Y-63330000D01*
X50352860Y-63330000D02*
X50305241Y-63234761D01*
X50305241Y-63234761D02*
X50305241Y-63139523D01*
X50305241Y-63139523D02*
X50352860Y-63044285D01*
X50352860Y-63044285D02*
X50448098Y-62996666D01*
X50448098Y-62996666D02*
X50686193Y-62996666D01*
X50686193Y-62996666D02*
X50781431Y-62949047D01*
X51257622Y-62710952D02*
X51257622Y-63377619D01*
X51257622Y-62806190D02*
X51305241Y-62758571D01*
X51305241Y-62758571D02*
X51400479Y-62710952D01*
X51400479Y-62710952D02*
X51543336Y-62710952D01*
X51543336Y-62710952D02*
X51638574Y-62758571D01*
X51638574Y-62758571D02*
X51686193Y-62853809D01*
X51686193Y-62853809D02*
X51686193Y-63377619D01*
X52019527Y-62710952D02*
X52400479Y-62710952D01*
X52162384Y-62377619D02*
X52162384Y-63234761D01*
X52162384Y-63234761D02*
X52210003Y-63330000D01*
X52210003Y-63330000D02*
X52305241Y-63377619D01*
X52305241Y-63377619D02*
X52400479Y-63377619D01*
X53495718Y-63377619D02*
X53495718Y-62377619D01*
X53971908Y-62710952D02*
X53971908Y-63377619D01*
X53971908Y-62806190D02*
X54019527Y-62758571D01*
X54019527Y-62758571D02*
X54114765Y-62710952D01*
X54114765Y-62710952D02*
X54257622Y-62710952D01*
X54257622Y-62710952D02*
X54352860Y-62758571D01*
X54352860Y-62758571D02*
X54400479Y-62853809D01*
X54400479Y-62853809D02*
X54400479Y-63377619D01*
X54733813Y-62710952D02*
X55114765Y-62710952D01*
X54876670Y-62377619D02*
X54876670Y-63234761D01*
X54876670Y-63234761D02*
X54924289Y-63330000D01*
X54924289Y-63330000D02*
X55019527Y-63377619D01*
X55019527Y-63377619D02*
X55114765Y-63377619D01*
X55829051Y-63330000D02*
X55733813Y-63377619D01*
X55733813Y-63377619D02*
X55543337Y-63377619D01*
X55543337Y-63377619D02*
X55448099Y-63330000D01*
X55448099Y-63330000D02*
X55400480Y-63234761D01*
X55400480Y-63234761D02*
X55400480Y-62853809D01*
X55400480Y-62853809D02*
X55448099Y-62758571D01*
X55448099Y-62758571D02*
X55543337Y-62710952D01*
X55543337Y-62710952D02*
X55733813Y-62710952D01*
X55733813Y-62710952D02*
X55829051Y-62758571D01*
X55829051Y-62758571D02*
X55876670Y-62853809D01*
X55876670Y-62853809D02*
X55876670Y-62949047D01*
X55876670Y-62949047D02*
X55400480Y-63044285D01*
X56305242Y-63377619D02*
X56305242Y-62710952D01*
X56305242Y-62901428D02*
X56352861Y-62806190D01*
X56352861Y-62806190D02*
X56400480Y-62758571D01*
X56400480Y-62758571D02*
X56495718Y-62710952D01*
X56495718Y-62710952D02*
X56590956Y-62710952D01*
X56781433Y-62710952D02*
X57162385Y-62710952D01*
X56924290Y-63377619D02*
X56924290Y-62520476D01*
X56924290Y-62520476D02*
X56971909Y-62425238D01*
X56971909Y-62425238D02*
X57067147Y-62377619D01*
X57067147Y-62377619D02*
X57162385Y-62377619D01*
X57924290Y-63377619D02*
X57924290Y-62853809D01*
X57924290Y-62853809D02*
X57876671Y-62758571D01*
X57876671Y-62758571D02*
X57781433Y-62710952D01*
X57781433Y-62710952D02*
X57590957Y-62710952D01*
X57590957Y-62710952D02*
X57495719Y-62758571D01*
X57924290Y-63330000D02*
X57829052Y-63377619D01*
X57829052Y-63377619D02*
X57590957Y-63377619D01*
X57590957Y-63377619D02*
X57495719Y-63330000D01*
X57495719Y-63330000D02*
X57448100Y-63234761D01*
X57448100Y-63234761D02*
X57448100Y-63139523D01*
X57448100Y-63139523D02*
X57495719Y-63044285D01*
X57495719Y-63044285D02*
X57590957Y-62996666D01*
X57590957Y-62996666D02*
X57829052Y-62996666D01*
X57829052Y-62996666D02*
X57924290Y-62949047D01*
X58829052Y-63330000D02*
X58733814Y-63377619D01*
X58733814Y-63377619D02*
X58543338Y-63377619D01*
X58543338Y-63377619D02*
X58448100Y-63330000D01*
X58448100Y-63330000D02*
X58400481Y-63282380D01*
X58400481Y-63282380D02*
X58352862Y-63187142D01*
X58352862Y-63187142D02*
X58352862Y-62901428D01*
X58352862Y-62901428D02*
X58400481Y-62806190D01*
X58400481Y-62806190D02*
X58448100Y-62758571D01*
X58448100Y-62758571D02*
X58543338Y-62710952D01*
X58543338Y-62710952D02*
X58733814Y-62710952D01*
X58733814Y-62710952D02*
X58829052Y-62758571D01*
X59638576Y-63330000D02*
X59543338Y-63377619D01*
X59543338Y-63377619D02*
X59352862Y-63377619D01*
X59352862Y-63377619D02*
X59257624Y-63330000D01*
X59257624Y-63330000D02*
X59210005Y-63234761D01*
X59210005Y-63234761D02*
X59210005Y-62853809D01*
X59210005Y-62853809D02*
X59257624Y-62758571D01*
X59257624Y-62758571D02*
X59352862Y-62710952D01*
X59352862Y-62710952D02*
X59543338Y-62710952D01*
X59543338Y-62710952D02*
X59638576Y-62758571D01*
X59638576Y-62758571D02*
X59686195Y-62853809D01*
X59686195Y-62853809D02*
X59686195Y-62949047D01*
X59686195Y-62949047D02*
X59210005Y-63044285D01*
X46208142Y-5556285D02*
X45008142Y-5556285D01*
X45008142Y-5556285D02*
X45865285Y-5156285D01*
X45865285Y-5156285D02*
X45008142Y-4756285D01*
X45008142Y-4756285D02*
X46208142Y-4756285D01*
X46208142Y-3556285D02*
X46208142Y-4241999D01*
X46208142Y-3899142D02*
X45008142Y-3899142D01*
X45008142Y-3899142D02*
X45179571Y-4013428D01*
X45179571Y-4013428D02*
X45293857Y-4127713D01*
X45293857Y-4127713D02*
X45351000Y-4241999D01*
X44471000Y-5722000D02*
X44471000Y-3447714D01*
X11294000Y-41376666D02*
X11332095Y-41452857D01*
X11332095Y-41452857D02*
X11332095Y-41605238D01*
X11332095Y-41605238D02*
X11294000Y-41681428D01*
X11294000Y-41681428D02*
X11255904Y-41719523D01*
X11255904Y-41719523D02*
X11179714Y-41757619D01*
X11179714Y-41757619D02*
X10951142Y-41757619D01*
X10951142Y-41757619D02*
X10874952Y-41719523D01*
X10874952Y-41719523D02*
X10836857Y-41681428D01*
X10836857Y-41681428D02*
X10798761Y-41605238D01*
X10798761Y-41605238D02*
X10798761Y-41452857D01*
X10798761Y-41452857D02*
X10836857Y-41376666D01*
X11332095Y-40919524D02*
X11294000Y-40995714D01*
X11294000Y-40995714D02*
X11255904Y-41033809D01*
X11255904Y-41033809D02*
X11179714Y-41071905D01*
X11179714Y-41071905D02*
X10951142Y-41071905D01*
X10951142Y-41071905D02*
X10874952Y-41033809D01*
X10874952Y-41033809D02*
X10836857Y-40995714D01*
X10836857Y-40995714D02*
X10798761Y-40919524D01*
X10798761Y-40919524D02*
X10798761Y-40805238D01*
X10798761Y-40805238D02*
X10836857Y-40729047D01*
X10836857Y-40729047D02*
X10874952Y-40690952D01*
X10874952Y-40690952D02*
X10951142Y-40652857D01*
X10951142Y-40652857D02*
X11179714Y-40652857D01*
X11179714Y-40652857D02*
X11255904Y-40690952D01*
X11255904Y-40690952D02*
X11294000Y-40729047D01*
X11294000Y-40729047D02*
X11332095Y-40805238D01*
X11332095Y-40805238D02*
X11332095Y-40919524D01*
X10798761Y-40309999D02*
X11332095Y-40309999D01*
X10874952Y-40309999D02*
X10836857Y-40271904D01*
X10836857Y-40271904D02*
X10798761Y-40195714D01*
X10798761Y-40195714D02*
X10798761Y-40081428D01*
X10798761Y-40081428D02*
X10836857Y-40005237D01*
X10836857Y-40005237D02*
X10913047Y-39967142D01*
X10913047Y-39967142D02*
X11332095Y-39967142D01*
X10798761Y-39586189D02*
X11332095Y-39586189D01*
X10874952Y-39586189D02*
X10836857Y-39548094D01*
X10836857Y-39548094D02*
X10798761Y-39471904D01*
X10798761Y-39471904D02*
X10798761Y-39357618D01*
X10798761Y-39357618D02*
X10836857Y-39281427D01*
X10836857Y-39281427D02*
X10913047Y-39243332D01*
X10913047Y-39243332D02*
X11332095Y-39243332D01*
X11294000Y-38557617D02*
X11332095Y-38633808D01*
X11332095Y-38633808D02*
X11332095Y-38786189D01*
X11332095Y-38786189D02*
X11294000Y-38862379D01*
X11294000Y-38862379D02*
X11217809Y-38900475D01*
X11217809Y-38900475D02*
X10913047Y-38900475D01*
X10913047Y-38900475D02*
X10836857Y-38862379D01*
X10836857Y-38862379D02*
X10798761Y-38786189D01*
X10798761Y-38786189D02*
X10798761Y-38633808D01*
X10798761Y-38633808D02*
X10836857Y-38557617D01*
X10836857Y-38557617D02*
X10913047Y-38519522D01*
X10913047Y-38519522D02*
X10989238Y-38519522D01*
X10989238Y-38519522D02*
X11065428Y-38900475D01*
X11294000Y-37833808D02*
X11332095Y-37909999D01*
X11332095Y-37909999D02*
X11332095Y-38062380D01*
X11332095Y-38062380D02*
X11294000Y-38138570D01*
X11294000Y-38138570D02*
X11255904Y-38176665D01*
X11255904Y-38176665D02*
X11179714Y-38214761D01*
X11179714Y-38214761D02*
X10951142Y-38214761D01*
X10951142Y-38214761D02*
X10874952Y-38176665D01*
X10874952Y-38176665D02*
X10836857Y-38138570D01*
X10836857Y-38138570D02*
X10798761Y-38062380D01*
X10798761Y-38062380D02*
X10798761Y-37909999D01*
X10798761Y-37909999D02*
X10836857Y-37833808D01*
X10798761Y-37605237D02*
X10798761Y-37300475D01*
X10532095Y-37490951D02*
X11217809Y-37490951D01*
X11217809Y-37490951D02*
X11294000Y-37452856D01*
X11294000Y-37452856D02*
X11332095Y-37376666D01*
X11332095Y-37376666D02*
X11332095Y-37300475D01*
X58165904Y-44899238D02*
X58070666Y-44851619D01*
X58070666Y-44851619D02*
X57927809Y-44851619D01*
X57927809Y-44851619D02*
X57784952Y-44899238D01*
X57784952Y-44899238D02*
X57689714Y-44994476D01*
X57689714Y-44994476D02*
X57642095Y-45089714D01*
X57642095Y-45089714D02*
X57594476Y-45280190D01*
X57594476Y-45280190D02*
X57594476Y-45423047D01*
X57594476Y-45423047D02*
X57642095Y-45613523D01*
X57642095Y-45613523D02*
X57689714Y-45708761D01*
X57689714Y-45708761D02*
X57784952Y-45804000D01*
X57784952Y-45804000D02*
X57927809Y-45851619D01*
X57927809Y-45851619D02*
X58023047Y-45851619D01*
X58023047Y-45851619D02*
X58165904Y-45804000D01*
X58165904Y-45804000D02*
X58213523Y-45756380D01*
X58213523Y-45756380D02*
X58213523Y-45423047D01*
X58213523Y-45423047D02*
X58023047Y-45423047D01*
X58642095Y-45851619D02*
X58642095Y-44851619D01*
X58642095Y-44851619D02*
X59213523Y-45851619D01*
X59213523Y-45851619D02*
X59213523Y-44851619D01*
X59689714Y-45851619D02*
X59689714Y-44851619D01*
X59689714Y-44851619D02*
X59927809Y-44851619D01*
X59927809Y-44851619D02*
X60070666Y-44899238D01*
X60070666Y-44899238D02*
X60165904Y-44994476D01*
X60165904Y-44994476D02*
X60213523Y-45089714D01*
X60213523Y-45089714D02*
X60261142Y-45280190D01*
X60261142Y-45280190D02*
X60261142Y-45423047D01*
X60261142Y-45423047D02*
X60213523Y-45613523D01*
X60213523Y-45613523D02*
X60165904Y-45708761D01*
X60165904Y-45708761D02*
X60070666Y-45804000D01*
X60070666Y-45804000D02*
X59927809Y-45851619D01*
X59927809Y-45851619D02*
X59689714Y-45851619D01*
X43668142Y-4870571D02*
X43096714Y-5270571D01*
X43668142Y-5556285D02*
X42468142Y-5556285D01*
X42468142Y-5556285D02*
X42468142Y-5099142D01*
X42468142Y-5099142D02*
X42525285Y-4984857D01*
X42525285Y-4984857D02*
X42582428Y-4927714D01*
X42582428Y-4927714D02*
X42696714Y-4870571D01*
X42696714Y-4870571D02*
X42868142Y-4870571D01*
X42868142Y-4870571D02*
X42982428Y-4927714D01*
X42982428Y-4927714D02*
X43039571Y-4984857D01*
X43039571Y-4984857D02*
X43096714Y-5099142D01*
X43096714Y-5099142D02*
X43096714Y-5556285D01*
X43039571Y-3956285D02*
X43039571Y-4356285D01*
X43668142Y-4356285D02*
X42468142Y-4356285D01*
X42468142Y-4356285D02*
X42468142Y-3784857D01*
X43611000Y-3384857D02*
X43668142Y-3213429D01*
X43668142Y-3213429D02*
X43668142Y-2927714D01*
X43668142Y-2927714D02*
X43611000Y-2813429D01*
X43611000Y-2813429D02*
X43553857Y-2756286D01*
X43553857Y-2756286D02*
X43439571Y-2699143D01*
X43439571Y-2699143D02*
X43325285Y-2699143D01*
X43325285Y-2699143D02*
X43211000Y-2756286D01*
X43211000Y-2756286D02*
X43153857Y-2813429D01*
X43153857Y-2813429D02*
X43096714Y-2927714D01*
X43096714Y-2927714D02*
X43039571Y-3156286D01*
X43039571Y-3156286D02*
X42982428Y-3270571D01*
X42982428Y-3270571D02*
X42925285Y-3327714D01*
X42925285Y-3327714D02*
X42811000Y-3384857D01*
X42811000Y-3384857D02*
X42696714Y-3384857D01*
X42696714Y-3384857D02*
X42582428Y-3327714D01*
X42582428Y-3327714D02*
X42525285Y-3270571D01*
X42525285Y-3270571D02*
X42468142Y-3156286D01*
X42468142Y-3156286D02*
X42468142Y-2870571D01*
X42468142Y-2870571D02*
X42525285Y-2699143D01*
X43668142Y-2184857D02*
X42468142Y-2184857D01*
X43039571Y-2184857D02*
X43039571Y-1499143D01*
X43668142Y-1499143D02*
X42468142Y-1499143D01*
X41931000Y-5722000D02*
X41931000Y-1333429D01*
X25545285Y-5613428D02*
X25545285Y-5042000D01*
X25888142Y-5727714D02*
X24688142Y-5327714D01*
X24688142Y-5327714D02*
X25888142Y-4927714D01*
X24688142Y-3956286D02*
X24688142Y-4527714D01*
X24688142Y-4527714D02*
X25259571Y-4584857D01*
X25259571Y-4584857D02*
X25202428Y-4527714D01*
X25202428Y-4527714D02*
X25145285Y-4413429D01*
X25145285Y-4413429D02*
X25145285Y-4127714D01*
X25145285Y-4127714D02*
X25202428Y-4013429D01*
X25202428Y-4013429D02*
X25259571Y-3956286D01*
X25259571Y-3956286D02*
X25373857Y-3899143D01*
X25373857Y-3899143D02*
X25659571Y-3899143D01*
X25659571Y-3899143D02*
X25773857Y-3956286D01*
X25773857Y-3956286D02*
X25831000Y-4013429D01*
X25831000Y-4013429D02*
X25888142Y-4127714D01*
X25888142Y-4127714D02*
X25888142Y-4413429D01*
X25888142Y-4413429D02*
X25831000Y-4527714D01*
X25831000Y-4527714D02*
X25773857Y-4584857D01*
X30625285Y-5613428D02*
X30625285Y-5042000D01*
X30968142Y-5727714D02*
X29768142Y-5327714D01*
X29768142Y-5327714D02*
X30968142Y-4927714D01*
X29768142Y-4642000D02*
X29768142Y-3899143D01*
X29768142Y-3899143D02*
X30225285Y-4299143D01*
X30225285Y-4299143D02*
X30225285Y-4127714D01*
X30225285Y-4127714D02*
X30282428Y-4013429D01*
X30282428Y-4013429D02*
X30339571Y-3956286D01*
X30339571Y-3956286D02*
X30453857Y-3899143D01*
X30453857Y-3899143D02*
X30739571Y-3899143D01*
X30739571Y-3899143D02*
X30853857Y-3956286D01*
X30853857Y-3956286D02*
X30911000Y-4013429D01*
X30911000Y-4013429D02*
X30968142Y-4127714D01*
X30968142Y-4127714D02*
X30968142Y-4470571D01*
X30968142Y-4470571D02*
X30911000Y-4584857D01*
X30911000Y-4584857D02*
X30853857Y-4642000D01*
X48748142Y-4870571D02*
X48176714Y-5270571D01*
X48748142Y-5556285D02*
X47548142Y-5556285D01*
X47548142Y-5556285D02*
X47548142Y-5099142D01*
X47548142Y-5099142D02*
X47605285Y-4984857D01*
X47605285Y-4984857D02*
X47662428Y-4927714D01*
X47662428Y-4927714D02*
X47776714Y-4870571D01*
X47776714Y-4870571D02*
X47948142Y-4870571D01*
X47948142Y-4870571D02*
X48062428Y-4927714D01*
X48062428Y-4927714D02*
X48119571Y-4984857D01*
X48119571Y-4984857D02*
X48176714Y-5099142D01*
X48176714Y-5099142D02*
X48176714Y-5556285D01*
X48119571Y-4356285D02*
X48119571Y-3956285D01*
X48748142Y-3784857D02*
X48748142Y-4356285D01*
X48748142Y-4356285D02*
X47548142Y-4356285D01*
X47548142Y-4356285D02*
X47548142Y-3784857D01*
X48691000Y-3327714D02*
X48748142Y-3156286D01*
X48748142Y-3156286D02*
X48748142Y-2870571D01*
X48748142Y-2870571D02*
X48691000Y-2756286D01*
X48691000Y-2756286D02*
X48633857Y-2699143D01*
X48633857Y-2699143D02*
X48519571Y-2642000D01*
X48519571Y-2642000D02*
X48405285Y-2642000D01*
X48405285Y-2642000D02*
X48291000Y-2699143D01*
X48291000Y-2699143D02*
X48233857Y-2756286D01*
X48233857Y-2756286D02*
X48176714Y-2870571D01*
X48176714Y-2870571D02*
X48119571Y-3099143D01*
X48119571Y-3099143D02*
X48062428Y-3213428D01*
X48062428Y-3213428D02*
X48005285Y-3270571D01*
X48005285Y-3270571D02*
X47891000Y-3327714D01*
X47891000Y-3327714D02*
X47776714Y-3327714D01*
X47776714Y-3327714D02*
X47662428Y-3270571D01*
X47662428Y-3270571D02*
X47605285Y-3213428D01*
X47605285Y-3213428D02*
X47548142Y-3099143D01*
X47548142Y-3099143D02*
X47548142Y-2813428D01*
X47548142Y-2813428D02*
X47605285Y-2642000D01*
X48119571Y-2127714D02*
X48119571Y-1727714D01*
X48748142Y-1556286D02*
X48748142Y-2127714D01*
X48748142Y-2127714D02*
X47548142Y-2127714D01*
X47548142Y-2127714D02*
X47548142Y-1556286D01*
X47548142Y-1213429D02*
X47548142Y-527715D01*
X48748142Y-870572D02*
X47548142Y-870572D01*
X47011000Y-5722000D02*
X47011000Y-533429D01*
X50659571Y-5327714D02*
X50716714Y-5199142D01*
X50716714Y-5199142D02*
X50773857Y-5156285D01*
X50773857Y-5156285D02*
X50888142Y-5113428D01*
X50888142Y-5113428D02*
X51059571Y-5113428D01*
X51059571Y-5113428D02*
X51173857Y-5156285D01*
X51173857Y-5156285D02*
X51231000Y-5199142D01*
X51231000Y-5199142D02*
X51288142Y-5284857D01*
X51288142Y-5284857D02*
X51288142Y-5627714D01*
X51288142Y-5627714D02*
X50088142Y-5627714D01*
X50088142Y-5627714D02*
X50088142Y-5327714D01*
X50088142Y-5327714D02*
X50145285Y-5242000D01*
X50145285Y-5242000D02*
X50202428Y-5199142D01*
X50202428Y-5199142D02*
X50316714Y-5156285D01*
X50316714Y-5156285D02*
X50431000Y-5156285D01*
X50431000Y-5156285D02*
X50545285Y-5199142D01*
X50545285Y-5199142D02*
X50602428Y-5242000D01*
X50602428Y-5242000D02*
X50659571Y-5327714D01*
X50659571Y-5327714D02*
X50659571Y-5627714D01*
X50088142Y-4727714D02*
X51059571Y-4727714D01*
X51059571Y-4727714D02*
X51173857Y-4684857D01*
X51173857Y-4684857D02*
X51231000Y-4642000D01*
X51231000Y-4642000D02*
X51288142Y-4556285D01*
X51288142Y-4556285D02*
X51288142Y-4384857D01*
X51288142Y-4384857D02*
X51231000Y-4299142D01*
X51231000Y-4299142D02*
X51173857Y-4256285D01*
X51173857Y-4256285D02*
X51059571Y-4213428D01*
X51059571Y-4213428D02*
X50088142Y-4213428D01*
X51231000Y-3827714D02*
X51288142Y-3699143D01*
X51288142Y-3699143D02*
X51288142Y-3484857D01*
X51288142Y-3484857D02*
X51231000Y-3399143D01*
X51231000Y-3399143D02*
X51173857Y-3356285D01*
X51173857Y-3356285D02*
X51059571Y-3313428D01*
X51059571Y-3313428D02*
X50945285Y-3313428D01*
X50945285Y-3313428D02*
X50831000Y-3356285D01*
X50831000Y-3356285D02*
X50773857Y-3399143D01*
X50773857Y-3399143D02*
X50716714Y-3484857D01*
X50716714Y-3484857D02*
X50659571Y-3656285D01*
X50659571Y-3656285D02*
X50602428Y-3742000D01*
X50602428Y-3742000D02*
X50545285Y-3784857D01*
X50545285Y-3784857D02*
X50431000Y-3827714D01*
X50431000Y-3827714D02*
X50316714Y-3827714D01*
X50316714Y-3827714D02*
X50202428Y-3784857D01*
X50202428Y-3784857D02*
X50145285Y-3742000D01*
X50145285Y-3742000D02*
X50088142Y-3656285D01*
X50088142Y-3656285D02*
X50088142Y-3442000D01*
X50088142Y-3442000D02*
X50145285Y-3313428D01*
X51288142Y-2413428D02*
X50716714Y-2713428D01*
X51288142Y-2927714D02*
X50088142Y-2927714D01*
X50088142Y-2927714D02*
X50088142Y-2584857D01*
X50088142Y-2584857D02*
X50145285Y-2499142D01*
X50145285Y-2499142D02*
X50202428Y-2456285D01*
X50202428Y-2456285D02*
X50316714Y-2413428D01*
X50316714Y-2413428D02*
X50488142Y-2413428D01*
X50488142Y-2413428D02*
X50602428Y-2456285D01*
X50602428Y-2456285D02*
X50659571Y-2499142D01*
X50659571Y-2499142D02*
X50716714Y-2584857D01*
X50716714Y-2584857D02*
X50716714Y-2927714D01*
X50659571Y-2027714D02*
X50659571Y-1727714D01*
X51288142Y-1599142D02*
X51288142Y-2027714D01*
X51288142Y-2027714D02*
X50088142Y-2027714D01*
X50088142Y-2027714D02*
X50088142Y-1599142D01*
X51402428Y-613428D02*
X51345285Y-699142D01*
X51345285Y-699142D02*
X51231000Y-784856D01*
X51231000Y-784856D02*
X51059571Y-913428D01*
X51059571Y-913428D02*
X51002428Y-999142D01*
X51002428Y-999142D02*
X51002428Y-1084856D01*
X51288142Y-1041999D02*
X51231000Y-1127714D01*
X51231000Y-1127714D02*
X51116714Y-1213428D01*
X51116714Y-1213428D02*
X50888142Y-1256285D01*
X50888142Y-1256285D02*
X50488142Y-1256285D01*
X50488142Y-1256285D02*
X50259571Y-1213428D01*
X50259571Y-1213428D02*
X50145285Y-1127714D01*
X50145285Y-1127714D02*
X50088142Y-1041999D01*
X50088142Y-1041999D02*
X50088142Y-870571D01*
X50088142Y-870571D02*
X50145285Y-784856D01*
X50145285Y-784856D02*
X50259571Y-699142D01*
X50259571Y-699142D02*
X50488142Y-656285D01*
X50488142Y-656285D02*
X50888142Y-656285D01*
X50888142Y-656285D02*
X51116714Y-699142D01*
X51116714Y-699142D02*
X51231000Y-784856D01*
X51231000Y-784856D02*
X51288142Y-870571D01*
X51288142Y-870571D02*
X51288142Y-1041999D01*
X49551000Y-5752000D02*
X49551000Y-574857D01*
X57708142Y-5670571D02*
X58908142Y-5384857D01*
X58908142Y-5384857D02*
X58051000Y-5156285D01*
X58051000Y-5156285D02*
X58908142Y-4927714D01*
X58908142Y-4927714D02*
X57708142Y-4642000D01*
X58908142Y-3499142D02*
X58336714Y-3899142D01*
X58908142Y-4184856D02*
X57708142Y-4184856D01*
X57708142Y-4184856D02*
X57708142Y-3727713D01*
X57708142Y-3727713D02*
X57765285Y-3613428D01*
X57765285Y-3613428D02*
X57822428Y-3556285D01*
X57822428Y-3556285D02*
X57936714Y-3499142D01*
X57936714Y-3499142D02*
X58108142Y-3499142D01*
X58108142Y-3499142D02*
X58222428Y-3556285D01*
X58222428Y-3556285D02*
X58279571Y-3613428D01*
X58279571Y-3613428D02*
X58336714Y-3727713D01*
X58336714Y-3727713D02*
X58336714Y-4184856D01*
X57171000Y-5722000D02*
X57171000Y-3390571D01*
X7429523Y-42469619D02*
X6953333Y-42469619D01*
X6953333Y-42469619D02*
X6905714Y-42945809D01*
X6905714Y-42945809D02*
X6953333Y-42898190D01*
X6953333Y-42898190D02*
X7048571Y-42850571D01*
X7048571Y-42850571D02*
X7286666Y-42850571D01*
X7286666Y-42850571D02*
X7381904Y-42898190D01*
X7381904Y-42898190D02*
X7429523Y-42945809D01*
X7429523Y-42945809D02*
X7477142Y-43041047D01*
X7477142Y-43041047D02*
X7477142Y-43279142D01*
X7477142Y-43279142D02*
X7429523Y-43374380D01*
X7429523Y-43374380D02*
X7381904Y-43422000D01*
X7381904Y-43422000D02*
X7286666Y-43469619D01*
X7286666Y-43469619D02*
X7048571Y-43469619D01*
X7048571Y-43469619D02*
X6953333Y-43422000D01*
X6953333Y-43422000D02*
X6905714Y-43374380D01*
X7762857Y-42469619D02*
X8096190Y-43469619D01*
X8096190Y-43469619D02*
X8429523Y-42469619D01*
X3858094Y-45470571D02*
X3810475Y-45422952D01*
X3810475Y-45422952D02*
X3715237Y-45280095D01*
X3715237Y-45280095D02*
X3667618Y-45184857D01*
X3667618Y-45184857D02*
X3619999Y-45042000D01*
X3619999Y-45042000D02*
X3572380Y-44803904D01*
X3572380Y-44803904D02*
X3572380Y-44613428D01*
X3572380Y-44613428D02*
X3619999Y-44375333D01*
X3619999Y-44375333D02*
X3667618Y-44232476D01*
X3667618Y-44232476D02*
X3715237Y-44137238D01*
X3715237Y-44137238D02*
X3810475Y-43994380D01*
X3810475Y-43994380D02*
X3858094Y-43946761D01*
X4096190Y-44089619D02*
X4667618Y-44089619D01*
X4381904Y-45089619D02*
X4381904Y-44089619D01*
X5429523Y-45089619D02*
X5429523Y-44565809D01*
X5429523Y-44565809D02*
X5381904Y-44470571D01*
X5381904Y-44470571D02*
X5286666Y-44422952D01*
X5286666Y-44422952D02*
X5096190Y-44422952D01*
X5096190Y-44422952D02*
X5000952Y-44470571D01*
X5429523Y-45042000D02*
X5334285Y-45089619D01*
X5334285Y-45089619D02*
X5096190Y-45089619D01*
X5096190Y-45089619D02*
X5000952Y-45042000D01*
X5000952Y-45042000D02*
X4953333Y-44946761D01*
X4953333Y-44946761D02*
X4953333Y-44851523D01*
X4953333Y-44851523D02*
X5000952Y-44756285D01*
X5000952Y-44756285D02*
X5096190Y-44708666D01*
X5096190Y-44708666D02*
X5334285Y-44708666D01*
X5334285Y-44708666D02*
X5429523Y-44661047D01*
X5905714Y-44422952D02*
X5905714Y-45089619D01*
X5905714Y-44518190D02*
X5953333Y-44470571D01*
X5953333Y-44470571D02*
X6048571Y-44422952D01*
X6048571Y-44422952D02*
X6191428Y-44422952D01*
X6191428Y-44422952D02*
X6286666Y-44470571D01*
X6286666Y-44470571D02*
X6334285Y-44565809D01*
X6334285Y-44565809D02*
X6334285Y-45089619D01*
X7239047Y-44422952D02*
X7239047Y-45232476D01*
X7239047Y-45232476D02*
X7191428Y-45327714D01*
X7191428Y-45327714D02*
X7143809Y-45375333D01*
X7143809Y-45375333D02*
X7048571Y-45422952D01*
X7048571Y-45422952D02*
X6905714Y-45422952D01*
X6905714Y-45422952D02*
X6810476Y-45375333D01*
X7239047Y-45042000D02*
X7143809Y-45089619D01*
X7143809Y-45089619D02*
X6953333Y-45089619D01*
X6953333Y-45089619D02*
X6858095Y-45042000D01*
X6858095Y-45042000D02*
X6810476Y-44994380D01*
X6810476Y-44994380D02*
X6762857Y-44899142D01*
X6762857Y-44899142D02*
X6762857Y-44613428D01*
X6762857Y-44613428D02*
X6810476Y-44518190D01*
X6810476Y-44518190D02*
X6858095Y-44470571D01*
X6858095Y-44470571D02*
X6953333Y-44422952D01*
X6953333Y-44422952D02*
X7143809Y-44422952D01*
X7143809Y-44422952D02*
X7239047Y-44470571D01*
X7715238Y-45089619D02*
X7715238Y-44089619D01*
X7715238Y-44089619D02*
X8286666Y-45089619D01*
X8286666Y-45089619D02*
X8286666Y-44089619D01*
X9191428Y-45089619D02*
X9191428Y-44565809D01*
X9191428Y-44565809D02*
X9143809Y-44470571D01*
X9143809Y-44470571D02*
X9048571Y-44422952D01*
X9048571Y-44422952D02*
X8858095Y-44422952D01*
X8858095Y-44422952D02*
X8762857Y-44470571D01*
X9191428Y-45042000D02*
X9096190Y-45089619D01*
X9096190Y-45089619D02*
X8858095Y-45089619D01*
X8858095Y-45089619D02*
X8762857Y-45042000D01*
X8762857Y-45042000D02*
X8715238Y-44946761D01*
X8715238Y-44946761D02*
X8715238Y-44851523D01*
X8715238Y-44851523D02*
X8762857Y-44756285D01*
X8762857Y-44756285D02*
X8858095Y-44708666D01*
X8858095Y-44708666D02*
X9096190Y-44708666D01*
X9096190Y-44708666D02*
X9191428Y-44661047D01*
X9667619Y-44422952D02*
X9667619Y-45089619D01*
X9667619Y-44518190D02*
X9715238Y-44470571D01*
X9715238Y-44470571D02*
X9810476Y-44422952D01*
X9810476Y-44422952D02*
X9953333Y-44422952D01*
X9953333Y-44422952D02*
X10048571Y-44470571D01*
X10048571Y-44470571D02*
X10096190Y-44565809D01*
X10096190Y-44565809D02*
X10096190Y-45089619D01*
X10715238Y-45089619D02*
X10620000Y-45042000D01*
X10620000Y-45042000D02*
X10572381Y-44994380D01*
X10572381Y-44994380D02*
X10524762Y-44899142D01*
X10524762Y-44899142D02*
X10524762Y-44613428D01*
X10524762Y-44613428D02*
X10572381Y-44518190D01*
X10572381Y-44518190D02*
X10620000Y-44470571D01*
X10620000Y-44470571D02*
X10715238Y-44422952D01*
X10715238Y-44422952D02*
X10858095Y-44422952D01*
X10858095Y-44422952D02*
X10953333Y-44470571D01*
X10953333Y-44470571D02*
X11000952Y-44518190D01*
X11000952Y-44518190D02*
X11048571Y-44613428D01*
X11048571Y-44613428D02*
X11048571Y-44899142D01*
X11048571Y-44899142D02*
X11000952Y-44994380D01*
X11000952Y-44994380D02*
X10953333Y-45042000D01*
X10953333Y-45042000D02*
X10858095Y-45089619D01*
X10858095Y-45089619D02*
X10715238Y-45089619D01*
X11381905Y-45470571D02*
X11429524Y-45422952D01*
X11429524Y-45422952D02*
X11524762Y-45280095D01*
X11524762Y-45280095D02*
X11572381Y-45184857D01*
X11572381Y-45184857D02*
X11620000Y-45042000D01*
X11620000Y-45042000D02*
X11667619Y-44803904D01*
X11667619Y-44803904D02*
X11667619Y-44613428D01*
X11667619Y-44613428D02*
X11620000Y-44375333D01*
X11620000Y-44375333D02*
X11572381Y-44232476D01*
X11572381Y-44232476D02*
X11524762Y-44137238D01*
X11524762Y-44137238D02*
X11429524Y-43994380D01*
X11429524Y-43994380D02*
X11381905Y-43946761D01*
X38245285Y-5613428D02*
X38245285Y-5042000D01*
X38588142Y-5727714D02*
X37388142Y-5327714D01*
X37388142Y-5327714D02*
X38588142Y-4927714D01*
X37388142Y-4299143D02*
X37388142Y-4184857D01*
X37388142Y-4184857D02*
X37445285Y-4070571D01*
X37445285Y-4070571D02*
X37502428Y-4013429D01*
X37502428Y-4013429D02*
X37616714Y-3956286D01*
X37616714Y-3956286D02*
X37845285Y-3899143D01*
X37845285Y-3899143D02*
X38131000Y-3899143D01*
X38131000Y-3899143D02*
X38359571Y-3956286D01*
X38359571Y-3956286D02*
X38473857Y-4013429D01*
X38473857Y-4013429D02*
X38531000Y-4070571D01*
X38531000Y-4070571D02*
X38588142Y-4184857D01*
X38588142Y-4184857D02*
X38588142Y-4299143D01*
X38588142Y-4299143D02*
X38531000Y-4413429D01*
X38531000Y-4413429D02*
X38473857Y-4470571D01*
X38473857Y-4470571D02*
X38359571Y-4527714D01*
X38359571Y-4527714D02*
X38131000Y-4584857D01*
X38131000Y-4584857D02*
X37845285Y-4584857D01*
X37845285Y-4584857D02*
X37616714Y-4527714D01*
X37616714Y-4527714D02*
X37502428Y-4470571D01*
X37502428Y-4470571D02*
X37445285Y-4413429D01*
X37445285Y-4413429D02*
X37388142Y-4299143D01*
X55739571Y-5327714D02*
X55796714Y-5199142D01*
X55796714Y-5199142D02*
X55853857Y-5156285D01*
X55853857Y-5156285D02*
X55968142Y-5113428D01*
X55968142Y-5113428D02*
X56139571Y-5113428D01*
X56139571Y-5113428D02*
X56253857Y-5156285D01*
X56253857Y-5156285D02*
X56311000Y-5199142D01*
X56311000Y-5199142D02*
X56368142Y-5284857D01*
X56368142Y-5284857D02*
X56368142Y-5627714D01*
X56368142Y-5627714D02*
X55168142Y-5627714D01*
X55168142Y-5627714D02*
X55168142Y-5327714D01*
X55168142Y-5327714D02*
X55225285Y-5242000D01*
X55225285Y-5242000D02*
X55282428Y-5199142D01*
X55282428Y-5199142D02*
X55396714Y-5156285D01*
X55396714Y-5156285D02*
X55511000Y-5156285D01*
X55511000Y-5156285D02*
X55625285Y-5199142D01*
X55625285Y-5199142D02*
X55682428Y-5242000D01*
X55682428Y-5242000D02*
X55739571Y-5327714D01*
X55739571Y-5327714D02*
X55739571Y-5627714D01*
X55168142Y-4727714D02*
X56139571Y-4727714D01*
X56139571Y-4727714D02*
X56253857Y-4684857D01*
X56253857Y-4684857D02*
X56311000Y-4642000D01*
X56311000Y-4642000D02*
X56368142Y-4556285D01*
X56368142Y-4556285D02*
X56368142Y-4384857D01*
X56368142Y-4384857D02*
X56311000Y-4299142D01*
X56311000Y-4299142D02*
X56253857Y-4256285D01*
X56253857Y-4256285D02*
X56139571Y-4213428D01*
X56139571Y-4213428D02*
X55168142Y-4213428D01*
X56311000Y-3827714D02*
X56368142Y-3699143D01*
X56368142Y-3699143D02*
X56368142Y-3484857D01*
X56368142Y-3484857D02*
X56311000Y-3399143D01*
X56311000Y-3399143D02*
X56253857Y-3356285D01*
X56253857Y-3356285D02*
X56139571Y-3313428D01*
X56139571Y-3313428D02*
X56025285Y-3313428D01*
X56025285Y-3313428D02*
X55911000Y-3356285D01*
X55911000Y-3356285D02*
X55853857Y-3399143D01*
X55853857Y-3399143D02*
X55796714Y-3484857D01*
X55796714Y-3484857D02*
X55739571Y-3656285D01*
X55739571Y-3656285D02*
X55682428Y-3742000D01*
X55682428Y-3742000D02*
X55625285Y-3784857D01*
X55625285Y-3784857D02*
X55511000Y-3827714D01*
X55511000Y-3827714D02*
X55396714Y-3827714D01*
X55396714Y-3827714D02*
X55282428Y-3784857D01*
X55282428Y-3784857D02*
X55225285Y-3742000D01*
X55225285Y-3742000D02*
X55168142Y-3656285D01*
X55168142Y-3656285D02*
X55168142Y-3442000D01*
X55168142Y-3442000D02*
X55225285Y-3313428D01*
X56025285Y-2970571D02*
X56025285Y-2542000D01*
X56368142Y-3056285D02*
X55168142Y-2756285D01*
X55168142Y-2756285D02*
X56368142Y-2456285D01*
X56253857Y-1641999D02*
X56311000Y-1684856D01*
X56311000Y-1684856D02*
X56368142Y-1813428D01*
X56368142Y-1813428D02*
X56368142Y-1899142D01*
X56368142Y-1899142D02*
X56311000Y-2027713D01*
X56311000Y-2027713D02*
X56196714Y-2113428D01*
X56196714Y-2113428D02*
X56082428Y-2156285D01*
X56082428Y-2156285D02*
X55853857Y-2199142D01*
X55853857Y-2199142D02*
X55682428Y-2199142D01*
X55682428Y-2199142D02*
X55453857Y-2156285D01*
X55453857Y-2156285D02*
X55339571Y-2113428D01*
X55339571Y-2113428D02*
X55225285Y-2027713D01*
X55225285Y-2027713D02*
X55168142Y-1899142D01*
X55168142Y-1899142D02*
X55168142Y-1813428D01*
X55168142Y-1813428D02*
X55225285Y-1684856D01*
X55225285Y-1684856D02*
X55282428Y-1641999D01*
X56368142Y-1256285D02*
X55168142Y-1256285D01*
X56368142Y-741999D02*
X55682428Y-1127713D01*
X55168142Y-741999D02*
X55853857Y-1256285D01*
X54631000Y-5752000D02*
X54631000Y-660571D01*
X33165285Y-5613428D02*
X33165285Y-5042000D01*
X33508142Y-5727714D02*
X32308142Y-5327714D01*
X32308142Y-5327714D02*
X33508142Y-4927714D01*
X32422428Y-4584857D02*
X32365285Y-4527714D01*
X32365285Y-4527714D02*
X32308142Y-4413429D01*
X32308142Y-4413429D02*
X32308142Y-4127714D01*
X32308142Y-4127714D02*
X32365285Y-4013429D01*
X32365285Y-4013429D02*
X32422428Y-3956286D01*
X32422428Y-3956286D02*
X32536714Y-3899143D01*
X32536714Y-3899143D02*
X32651000Y-3899143D01*
X32651000Y-3899143D02*
X32822428Y-3956286D01*
X32822428Y-3956286D02*
X33508142Y-4642000D01*
X33508142Y-4642000D02*
X33508142Y-3899143D01*
X54609904Y-44899238D02*
X54514666Y-44851619D01*
X54514666Y-44851619D02*
X54371809Y-44851619D01*
X54371809Y-44851619D02*
X54228952Y-44899238D01*
X54228952Y-44899238D02*
X54133714Y-44994476D01*
X54133714Y-44994476D02*
X54086095Y-45089714D01*
X54086095Y-45089714D02*
X54038476Y-45280190D01*
X54038476Y-45280190D02*
X54038476Y-45423047D01*
X54038476Y-45423047D02*
X54086095Y-45613523D01*
X54086095Y-45613523D02*
X54133714Y-45708761D01*
X54133714Y-45708761D02*
X54228952Y-45804000D01*
X54228952Y-45804000D02*
X54371809Y-45851619D01*
X54371809Y-45851619D02*
X54467047Y-45851619D01*
X54467047Y-45851619D02*
X54609904Y-45804000D01*
X54609904Y-45804000D02*
X54657523Y-45756380D01*
X54657523Y-45756380D02*
X54657523Y-45423047D01*
X54657523Y-45423047D02*
X54467047Y-45423047D01*
X55086095Y-45851619D02*
X55086095Y-44851619D01*
X55086095Y-44851619D02*
X55657523Y-45851619D01*
X55657523Y-45851619D02*
X55657523Y-44851619D01*
X56133714Y-45851619D02*
X56133714Y-44851619D01*
X56133714Y-44851619D02*
X56371809Y-44851619D01*
X56371809Y-44851619D02*
X56514666Y-44899238D01*
X56514666Y-44899238D02*
X56609904Y-44994476D01*
X56609904Y-44994476D02*
X56657523Y-45089714D01*
X56657523Y-45089714D02*
X56705142Y-45280190D01*
X56705142Y-45280190D02*
X56705142Y-45423047D01*
X56705142Y-45423047D02*
X56657523Y-45613523D01*
X56657523Y-45613523D02*
X56609904Y-45708761D01*
X56609904Y-45708761D02*
X56514666Y-45804000D01*
X56514666Y-45804000D02*
X56371809Y-45851619D01*
X56371809Y-45851619D02*
X56133714Y-45851619D01*
X20465285Y-32549713D02*
X20465285Y-31978285D01*
X20808142Y-32663999D02*
X19608142Y-32263999D01*
X19608142Y-32263999D02*
X20808142Y-31863999D01*
X20808142Y-30835428D02*
X20808142Y-31521142D01*
X20808142Y-31178285D02*
X19608142Y-31178285D01*
X19608142Y-31178285D02*
X19779571Y-31292571D01*
X19779571Y-31292571D02*
X19893857Y-31406856D01*
X19893857Y-31406856D02*
X19951000Y-31521142D01*
X20008142Y-29806857D02*
X20808142Y-29806857D01*
X19551000Y-30092571D02*
X20408142Y-30378285D01*
X20408142Y-30378285D02*
X20408142Y-29635428D01*
X46208142Y-31521142D02*
X45008142Y-31521142D01*
X45008142Y-31521142D02*
X45008142Y-31235428D01*
X45008142Y-31235428D02*
X45065285Y-31063999D01*
X45065285Y-31063999D02*
X45179571Y-30949714D01*
X45179571Y-30949714D02*
X45293857Y-30892571D01*
X45293857Y-30892571D02*
X45522428Y-30835428D01*
X45522428Y-30835428D02*
X45693857Y-30835428D01*
X45693857Y-30835428D02*
X45922428Y-30892571D01*
X45922428Y-30892571D02*
X46036714Y-30949714D01*
X46036714Y-30949714D02*
X46151000Y-31063999D01*
X46151000Y-31063999D02*
X46208142Y-31235428D01*
X46208142Y-31235428D02*
X46208142Y-31521142D01*
X45008142Y-30092571D02*
X45008142Y-29978285D01*
X45008142Y-29978285D02*
X45065285Y-29863999D01*
X45065285Y-29863999D02*
X45122428Y-29806857D01*
X45122428Y-29806857D02*
X45236714Y-29749714D01*
X45236714Y-29749714D02*
X45465285Y-29692571D01*
X45465285Y-29692571D02*
X45751000Y-29692571D01*
X45751000Y-29692571D02*
X45979571Y-29749714D01*
X45979571Y-29749714D02*
X46093857Y-29806857D01*
X46093857Y-29806857D02*
X46151000Y-29863999D01*
X46151000Y-29863999D02*
X46208142Y-29978285D01*
X46208142Y-29978285D02*
X46208142Y-30092571D01*
X46208142Y-30092571D02*
X46151000Y-30206857D01*
X46151000Y-30206857D02*
X46093857Y-30263999D01*
X46093857Y-30263999D02*
X45979571Y-30321142D01*
X45979571Y-30321142D02*
X45751000Y-30378285D01*
X45751000Y-30378285D02*
X45465285Y-30378285D01*
X45465285Y-30378285D02*
X45236714Y-30321142D01*
X45236714Y-30321142D02*
X45122428Y-30263999D01*
X45122428Y-30263999D02*
X45065285Y-30206857D01*
X45065285Y-30206857D02*
X45008142Y-30092571D01*
X43668142Y-31521142D02*
X42468142Y-31521142D01*
X42468142Y-31521142D02*
X42468142Y-31235428D01*
X42468142Y-31235428D02*
X42525285Y-31063999D01*
X42525285Y-31063999D02*
X42639571Y-30949714D01*
X42639571Y-30949714D02*
X42753857Y-30892571D01*
X42753857Y-30892571D02*
X42982428Y-30835428D01*
X42982428Y-30835428D02*
X43153857Y-30835428D01*
X43153857Y-30835428D02*
X43382428Y-30892571D01*
X43382428Y-30892571D02*
X43496714Y-30949714D01*
X43496714Y-30949714D02*
X43611000Y-31063999D01*
X43611000Y-31063999D02*
X43668142Y-31235428D01*
X43668142Y-31235428D02*
X43668142Y-31521142D01*
X42468142Y-30435428D02*
X42468142Y-29635428D01*
X42468142Y-29635428D02*
X43668142Y-30149714D01*
X58908142Y-33321142D02*
X57708142Y-33321142D01*
X57708142Y-33321142D02*
X58565285Y-32987809D01*
X58565285Y-32987809D02*
X57708142Y-32654476D01*
X57708142Y-32654476D02*
X58908142Y-32654476D01*
X58908142Y-31606857D02*
X58336714Y-31940190D01*
X58908142Y-32178285D02*
X57708142Y-32178285D01*
X57708142Y-32178285D02*
X57708142Y-31797333D01*
X57708142Y-31797333D02*
X57765285Y-31702095D01*
X57765285Y-31702095D02*
X57822428Y-31654476D01*
X57822428Y-31654476D02*
X57936714Y-31606857D01*
X57936714Y-31606857D02*
X58108142Y-31606857D01*
X58108142Y-31606857D02*
X58222428Y-31654476D01*
X58222428Y-31654476D02*
X58279571Y-31702095D01*
X58279571Y-31702095D02*
X58336714Y-31797333D01*
X58336714Y-31797333D02*
X58336714Y-32178285D01*
X58279571Y-31178285D02*
X58279571Y-30844952D01*
X58908142Y-30702095D02*
X58908142Y-31178285D01*
X58908142Y-31178285D02*
X57708142Y-31178285D01*
X57708142Y-31178285D02*
X57708142Y-30702095D01*
X59022428Y-29606857D02*
X58965285Y-29702095D01*
X58965285Y-29702095D02*
X58851000Y-29797333D01*
X58851000Y-29797333D02*
X58679571Y-29940190D01*
X58679571Y-29940190D02*
X58622428Y-30035428D01*
X58622428Y-30035428D02*
X58622428Y-30130666D01*
X58908142Y-30083047D02*
X58851000Y-30178285D01*
X58851000Y-30178285D02*
X58736714Y-30273523D01*
X58736714Y-30273523D02*
X58508142Y-30321142D01*
X58508142Y-30321142D02*
X58108142Y-30321142D01*
X58108142Y-30321142D02*
X57879571Y-30273523D01*
X57879571Y-30273523D02*
X57765285Y-30178285D01*
X57765285Y-30178285D02*
X57708142Y-30083047D01*
X57708142Y-30083047D02*
X57708142Y-29892571D01*
X57708142Y-29892571D02*
X57765285Y-29797333D01*
X57765285Y-29797333D02*
X57879571Y-29702095D01*
X57879571Y-29702095D02*
X58108142Y-29654476D01*
X58108142Y-29654476D02*
X58508142Y-29654476D01*
X58508142Y-29654476D02*
X58736714Y-29702095D01*
X58736714Y-29702095D02*
X58851000Y-29797333D01*
X58851000Y-29797333D02*
X58908142Y-29892571D01*
X58908142Y-29892571D02*
X58908142Y-30083047D01*
X57171000Y-33459238D02*
X57171000Y-29564000D01*
X53828142Y-32378286D02*
X52628142Y-32378286D01*
X52628142Y-32378286D02*
X53828142Y-31692572D01*
X53828142Y-31692572D02*
X52628142Y-31692572D01*
X53828142Y-31121143D02*
X52628142Y-31121143D01*
X52628142Y-31121143D02*
X53485285Y-30721143D01*
X53485285Y-30721143D02*
X52628142Y-30321143D01*
X52628142Y-30321143D02*
X53828142Y-30321143D01*
X53828142Y-29749714D02*
X52628142Y-29749714D01*
X52091000Y-32544001D02*
X52091000Y-29584000D01*
X33508142Y-31521142D02*
X32308142Y-31521142D01*
X32308142Y-31521142D02*
X32308142Y-31235428D01*
X32308142Y-31235428D02*
X32365285Y-31063999D01*
X32365285Y-31063999D02*
X32479571Y-30949714D01*
X32479571Y-30949714D02*
X32593857Y-30892571D01*
X32593857Y-30892571D02*
X32822428Y-30835428D01*
X32822428Y-30835428D02*
X32993857Y-30835428D01*
X32993857Y-30835428D02*
X33222428Y-30892571D01*
X33222428Y-30892571D02*
X33336714Y-30949714D01*
X33336714Y-30949714D02*
X33451000Y-31063999D01*
X33451000Y-31063999D02*
X33508142Y-31235428D01*
X33508142Y-31235428D02*
X33508142Y-31521142D01*
X32308142Y-29749714D02*
X32308142Y-30321142D01*
X32308142Y-30321142D02*
X32879571Y-30378285D01*
X32879571Y-30378285D02*
X32822428Y-30321142D01*
X32822428Y-30321142D02*
X32765285Y-30206857D01*
X32765285Y-30206857D02*
X32765285Y-29921142D01*
X32765285Y-29921142D02*
X32822428Y-29806857D01*
X32822428Y-29806857D02*
X32879571Y-29749714D01*
X32879571Y-29749714D02*
X32993857Y-29692571D01*
X32993857Y-29692571D02*
X33279571Y-29692571D01*
X33279571Y-29692571D02*
X33393857Y-29749714D01*
X33393857Y-29749714D02*
X33451000Y-29806857D01*
X33451000Y-29806857D02*
X33508142Y-29921142D01*
X33508142Y-29921142D02*
X33508142Y-30206857D01*
X33508142Y-30206857D02*
X33451000Y-30321142D01*
X33451000Y-30321142D02*
X33393857Y-30378285D01*
X35705285Y-5613428D02*
X35705285Y-5042000D01*
X36048142Y-5727714D02*
X34848142Y-5327714D01*
X34848142Y-5327714D02*
X36048142Y-4927714D01*
X36048142Y-3899143D02*
X36048142Y-4584857D01*
X36048142Y-4242000D02*
X34848142Y-4242000D01*
X34848142Y-4242000D02*
X35019571Y-4356286D01*
X35019571Y-4356286D02*
X35133857Y-4470571D01*
X35133857Y-4470571D02*
X35191000Y-4584857D01*
X12845285Y-32549713D02*
X12845285Y-31978285D01*
X13188142Y-32663999D02*
X11988142Y-32263999D01*
X11988142Y-32263999D02*
X13188142Y-31863999D01*
X13188142Y-30835428D02*
X13188142Y-31521142D01*
X13188142Y-31178285D02*
X11988142Y-31178285D01*
X11988142Y-31178285D02*
X12159571Y-31292571D01*
X12159571Y-31292571D02*
X12273857Y-31406856D01*
X12273857Y-31406856D02*
X12331000Y-31521142D01*
X13188142Y-29692571D02*
X13188142Y-30378285D01*
X13188142Y-30035428D02*
X11988142Y-30035428D01*
X11988142Y-30035428D02*
X12159571Y-30149714D01*
X12159571Y-30149714D02*
X12273857Y-30263999D01*
X12273857Y-30263999D02*
X12331000Y-30378285D01*
X61448142Y-33464000D02*
X60248142Y-33464000D01*
X60248142Y-32664000D02*
X60248142Y-32435428D01*
X60248142Y-32435428D02*
X60305285Y-32321143D01*
X60305285Y-32321143D02*
X60419571Y-32206857D01*
X60419571Y-32206857D02*
X60648142Y-32149714D01*
X60648142Y-32149714D02*
X61048142Y-32149714D01*
X61048142Y-32149714D02*
X61276714Y-32206857D01*
X61276714Y-32206857D02*
X61391000Y-32321143D01*
X61391000Y-32321143D02*
X61448142Y-32435428D01*
X61448142Y-32435428D02*
X61448142Y-32664000D01*
X61448142Y-32664000D02*
X61391000Y-32778286D01*
X61391000Y-32778286D02*
X61276714Y-32892571D01*
X61276714Y-32892571D02*
X61048142Y-32949714D01*
X61048142Y-32949714D02*
X60648142Y-32949714D01*
X60648142Y-32949714D02*
X60419571Y-32892571D01*
X60419571Y-32892571D02*
X60305285Y-32778286D01*
X60305285Y-32778286D02*
X60248142Y-32664000D01*
X61448142Y-30949714D02*
X60876714Y-31349714D01*
X61448142Y-31635428D02*
X60248142Y-31635428D01*
X60248142Y-31635428D02*
X60248142Y-31178285D01*
X60248142Y-31178285D02*
X60305285Y-31064000D01*
X60305285Y-31064000D02*
X60362428Y-31006857D01*
X60362428Y-31006857D02*
X60476714Y-30949714D01*
X60476714Y-30949714D02*
X60648142Y-30949714D01*
X60648142Y-30949714D02*
X60762428Y-31006857D01*
X60762428Y-31006857D02*
X60819571Y-31064000D01*
X60819571Y-31064000D02*
X60876714Y-31178285D01*
X60876714Y-31178285D02*
X60876714Y-31635428D01*
X61562428Y-29635428D02*
X61505285Y-29749714D01*
X61505285Y-29749714D02*
X61391000Y-29864000D01*
X61391000Y-29864000D02*
X61219571Y-30035428D01*
X61219571Y-30035428D02*
X61162428Y-30149714D01*
X61162428Y-30149714D02*
X61162428Y-30264000D01*
X61448142Y-30206857D02*
X61391000Y-30321143D01*
X61391000Y-30321143D02*
X61276714Y-30435428D01*
X61276714Y-30435428D02*
X61048142Y-30492571D01*
X61048142Y-30492571D02*
X60648142Y-30492571D01*
X60648142Y-30492571D02*
X60419571Y-30435428D01*
X60419571Y-30435428D02*
X60305285Y-30321143D01*
X60305285Y-30321143D02*
X60248142Y-30206857D01*
X60248142Y-30206857D02*
X60248142Y-29978285D01*
X60248142Y-29978285D02*
X60305285Y-29864000D01*
X60305285Y-29864000D02*
X60419571Y-29749714D01*
X60419571Y-29749714D02*
X60648142Y-29692571D01*
X60648142Y-29692571D02*
X61048142Y-29692571D01*
X61048142Y-29692571D02*
X61276714Y-29749714D01*
X61276714Y-29749714D02*
X61391000Y-29864000D01*
X61391000Y-29864000D02*
X61448142Y-29978285D01*
X61448142Y-29978285D02*
X61448142Y-30206857D01*
X59711000Y-33629715D02*
X59711000Y-29584000D01*
X17925285Y-5613428D02*
X17925285Y-5042000D01*
X18268142Y-5727714D02*
X17068142Y-5327714D01*
X17068142Y-5327714D02*
X18268142Y-4927714D01*
X17582428Y-4356286D02*
X17525285Y-4470571D01*
X17525285Y-4470571D02*
X17468142Y-4527714D01*
X17468142Y-4527714D02*
X17353857Y-4584857D01*
X17353857Y-4584857D02*
X17296714Y-4584857D01*
X17296714Y-4584857D02*
X17182428Y-4527714D01*
X17182428Y-4527714D02*
X17125285Y-4470571D01*
X17125285Y-4470571D02*
X17068142Y-4356286D01*
X17068142Y-4356286D02*
X17068142Y-4127714D01*
X17068142Y-4127714D02*
X17125285Y-4013429D01*
X17125285Y-4013429D02*
X17182428Y-3956286D01*
X17182428Y-3956286D02*
X17296714Y-3899143D01*
X17296714Y-3899143D02*
X17353857Y-3899143D01*
X17353857Y-3899143D02*
X17468142Y-3956286D01*
X17468142Y-3956286D02*
X17525285Y-4013429D01*
X17525285Y-4013429D02*
X17582428Y-4127714D01*
X17582428Y-4127714D02*
X17582428Y-4356286D01*
X17582428Y-4356286D02*
X17639571Y-4470571D01*
X17639571Y-4470571D02*
X17696714Y-4527714D01*
X17696714Y-4527714D02*
X17811000Y-4584857D01*
X17811000Y-4584857D02*
X18039571Y-4584857D01*
X18039571Y-4584857D02*
X18153857Y-4527714D01*
X18153857Y-4527714D02*
X18211000Y-4470571D01*
X18211000Y-4470571D02*
X18268142Y-4356286D01*
X18268142Y-4356286D02*
X18268142Y-4127714D01*
X18268142Y-4127714D02*
X18211000Y-4013429D01*
X18211000Y-4013429D02*
X18153857Y-3956286D01*
X18153857Y-3956286D02*
X18039571Y-3899143D01*
X18039571Y-3899143D02*
X17811000Y-3899143D01*
X17811000Y-3899143D02*
X17696714Y-3956286D01*
X17696714Y-3956286D02*
X17639571Y-4013429D01*
X17639571Y-4013429D02*
X17582428Y-4127714D01*
%TO.C,J5*%
X50570190Y-39070619D02*
X50570190Y-38070619D01*
X50570190Y-38070619D02*
X50808285Y-38070619D01*
X50808285Y-38070619D02*
X50951142Y-38118238D01*
X50951142Y-38118238D02*
X51046380Y-38213476D01*
X51046380Y-38213476D02*
X51093999Y-38308714D01*
X51093999Y-38308714D02*
X51141618Y-38499190D01*
X51141618Y-38499190D02*
X51141618Y-38642047D01*
X51141618Y-38642047D02*
X51093999Y-38832523D01*
X51093999Y-38832523D02*
X51046380Y-38927761D01*
X51046380Y-38927761D02*
X50951142Y-39023000D01*
X50951142Y-39023000D02*
X50808285Y-39070619D01*
X50808285Y-39070619D02*
X50570190Y-39070619D01*
X51903523Y-38546809D02*
X52046380Y-38594428D01*
X52046380Y-38594428D02*
X52093999Y-38642047D01*
X52093999Y-38642047D02*
X52141618Y-38737285D01*
X52141618Y-38737285D02*
X52141618Y-38880142D01*
X52141618Y-38880142D02*
X52093999Y-38975380D01*
X52093999Y-38975380D02*
X52046380Y-39023000D01*
X52046380Y-39023000D02*
X51951142Y-39070619D01*
X51951142Y-39070619D02*
X51570190Y-39070619D01*
X51570190Y-39070619D02*
X51570190Y-38070619D01*
X51570190Y-38070619D02*
X51903523Y-38070619D01*
X51903523Y-38070619D02*
X51998761Y-38118238D01*
X51998761Y-38118238D02*
X52046380Y-38165857D01*
X52046380Y-38165857D02*
X52093999Y-38261095D01*
X52093999Y-38261095D02*
X52093999Y-38356333D01*
X52093999Y-38356333D02*
X52046380Y-38451571D01*
X52046380Y-38451571D02*
X51998761Y-38499190D01*
X51998761Y-38499190D02*
X51903523Y-38546809D01*
X51903523Y-38546809D02*
X51570190Y-38546809D01*
X53093999Y-38118238D02*
X52998761Y-38070619D01*
X52998761Y-38070619D02*
X52855904Y-38070619D01*
X52855904Y-38070619D02*
X52713047Y-38118238D01*
X52713047Y-38118238D02*
X52617809Y-38213476D01*
X52617809Y-38213476D02*
X52570190Y-38308714D01*
X52570190Y-38308714D02*
X52522571Y-38499190D01*
X52522571Y-38499190D02*
X52522571Y-38642047D01*
X52522571Y-38642047D02*
X52570190Y-38832523D01*
X52570190Y-38832523D02*
X52617809Y-38927761D01*
X52617809Y-38927761D02*
X52713047Y-39023000D01*
X52713047Y-39023000D02*
X52855904Y-39070619D01*
X52855904Y-39070619D02*
X52951142Y-39070619D01*
X52951142Y-39070619D02*
X53093999Y-39023000D01*
X53093999Y-39023000D02*
X53141618Y-38975380D01*
X53141618Y-38975380D02*
X53141618Y-38642047D01*
X53141618Y-38642047D02*
X52951142Y-38642047D01*
X53332095Y-39165857D02*
X54093999Y-39165857D01*
X54189238Y-38070619D02*
X54760666Y-38070619D01*
X54474952Y-39070619D02*
X54474952Y-38070619D01*
X55665428Y-39070619D02*
X55332095Y-38594428D01*
X55094000Y-39070619D02*
X55094000Y-38070619D01*
X55094000Y-38070619D02*
X55474952Y-38070619D01*
X55474952Y-38070619D02*
X55570190Y-38118238D01*
X55570190Y-38118238D02*
X55617809Y-38165857D01*
X55617809Y-38165857D02*
X55665428Y-38261095D01*
X55665428Y-38261095D02*
X55665428Y-38403952D01*
X55665428Y-38403952D02*
X55617809Y-38499190D01*
X55617809Y-38499190D02*
X55570190Y-38546809D01*
X55570190Y-38546809D02*
X55474952Y-38594428D01*
X55474952Y-38594428D02*
X55094000Y-38594428D01*
X56617809Y-38118238D02*
X56522571Y-38070619D01*
X56522571Y-38070619D02*
X56379714Y-38070619D01*
X56379714Y-38070619D02*
X56236857Y-38118238D01*
X56236857Y-38118238D02*
X56141619Y-38213476D01*
X56141619Y-38213476D02*
X56094000Y-38308714D01*
X56094000Y-38308714D02*
X56046381Y-38499190D01*
X56046381Y-38499190D02*
X56046381Y-38642047D01*
X56046381Y-38642047D02*
X56094000Y-38832523D01*
X56094000Y-38832523D02*
X56141619Y-38927761D01*
X56141619Y-38927761D02*
X56236857Y-39023000D01*
X56236857Y-39023000D02*
X56379714Y-39070619D01*
X56379714Y-39070619D02*
X56474952Y-39070619D01*
X56474952Y-39070619D02*
X56617809Y-39023000D01*
X56617809Y-39023000D02*
X56665428Y-38975380D01*
X56665428Y-38975380D02*
X56665428Y-38642047D01*
X56665428Y-38642047D02*
X56474952Y-38642047D01*
%TO.C,J6*%
X58182190Y-39070619D02*
X57706000Y-39070619D01*
X57706000Y-39070619D02*
X57706000Y-38070619D01*
X58515524Y-38546809D02*
X58848857Y-38546809D01*
X58991714Y-39070619D02*
X58515524Y-39070619D01*
X58515524Y-39070619D02*
X58515524Y-38070619D01*
X58515524Y-38070619D02*
X58991714Y-38070619D01*
X59420286Y-39070619D02*
X59420286Y-38070619D01*
X59420286Y-38070619D02*
X59658381Y-38070619D01*
X59658381Y-38070619D02*
X59801238Y-38118238D01*
X59801238Y-38118238D02*
X59896476Y-38213476D01*
X59896476Y-38213476D02*
X59944095Y-38308714D01*
X59944095Y-38308714D02*
X59991714Y-38499190D01*
X59991714Y-38499190D02*
X59991714Y-38642047D01*
X59991714Y-38642047D02*
X59944095Y-38832523D01*
X59944095Y-38832523D02*
X59896476Y-38927761D01*
X59896476Y-38927761D02*
X59801238Y-39023000D01*
X59801238Y-39023000D02*
X59658381Y-39070619D01*
X59658381Y-39070619D02*
X59420286Y-39070619D01*
X60182191Y-39165857D02*
X60944095Y-39165857D01*
X61753619Y-39070619D02*
X61420286Y-38594428D01*
X61182191Y-39070619D02*
X61182191Y-38070619D01*
X61182191Y-38070619D02*
X61563143Y-38070619D01*
X61563143Y-38070619D02*
X61658381Y-38118238D01*
X61658381Y-38118238D02*
X61706000Y-38165857D01*
X61706000Y-38165857D02*
X61753619Y-38261095D01*
X61753619Y-38261095D02*
X61753619Y-38403952D01*
X61753619Y-38403952D02*
X61706000Y-38499190D01*
X61706000Y-38499190D02*
X61658381Y-38546809D01*
X61658381Y-38546809D02*
X61563143Y-38594428D01*
X61563143Y-38594428D02*
X61182191Y-38594428D01*
X62706000Y-38118238D02*
X62610762Y-38070619D01*
X62610762Y-38070619D02*
X62467905Y-38070619D01*
X62467905Y-38070619D02*
X62325048Y-38118238D01*
X62325048Y-38118238D02*
X62229810Y-38213476D01*
X62229810Y-38213476D02*
X62182191Y-38308714D01*
X62182191Y-38308714D02*
X62134572Y-38499190D01*
X62134572Y-38499190D02*
X62134572Y-38642047D01*
X62134572Y-38642047D02*
X62182191Y-38832523D01*
X62182191Y-38832523D02*
X62229810Y-38927761D01*
X62229810Y-38927761D02*
X62325048Y-39023000D01*
X62325048Y-39023000D02*
X62467905Y-39070619D01*
X62467905Y-39070619D02*
X62563143Y-39070619D01*
X62563143Y-39070619D02*
X62706000Y-39023000D01*
X62706000Y-39023000D02*
X62753619Y-38975380D01*
X62753619Y-38975380D02*
X62753619Y-38642047D01*
X62753619Y-38642047D02*
X62563143Y-38642047D01*
X63515524Y-38546809D02*
X63658381Y-38594428D01*
X63658381Y-38594428D02*
X63706000Y-38642047D01*
X63706000Y-38642047D02*
X63753619Y-38737285D01*
X63753619Y-38737285D02*
X63753619Y-38880142D01*
X63753619Y-38880142D02*
X63706000Y-38975380D01*
X63706000Y-38975380D02*
X63658381Y-39023000D01*
X63658381Y-39023000D02*
X63563143Y-39070619D01*
X63563143Y-39070619D02*
X63182191Y-39070619D01*
X63182191Y-39070619D02*
X63182191Y-38070619D01*
X63182191Y-38070619D02*
X63515524Y-38070619D01*
X63515524Y-38070619D02*
X63610762Y-38118238D01*
X63610762Y-38118238D02*
X63658381Y-38165857D01*
X63658381Y-38165857D02*
X63706000Y-38261095D01*
X63706000Y-38261095D02*
X63706000Y-38356333D01*
X63706000Y-38356333D02*
X63658381Y-38451571D01*
X63658381Y-38451571D02*
X63610762Y-38499190D01*
X63610762Y-38499190D02*
X63515524Y-38546809D01*
X63515524Y-38546809D02*
X63182191Y-38546809D01*
%TO.C,RN1*%
X63708619Y-36250476D02*
X63232428Y-36583809D01*
X63708619Y-36821904D02*
X62708619Y-36821904D01*
X62708619Y-36821904D02*
X62708619Y-36440952D01*
X62708619Y-36440952D02*
X62756238Y-36345714D01*
X62756238Y-36345714D02*
X62803857Y-36298095D01*
X62803857Y-36298095D02*
X62899095Y-36250476D01*
X62899095Y-36250476D02*
X63041952Y-36250476D01*
X63041952Y-36250476D02*
X63137190Y-36298095D01*
X63137190Y-36298095D02*
X63184809Y-36345714D01*
X63184809Y-36345714D02*
X63232428Y-36440952D01*
X63232428Y-36440952D02*
X63232428Y-36821904D01*
X63708619Y-35821904D02*
X62708619Y-35821904D01*
X62708619Y-35821904D02*
X63708619Y-35250476D01*
X63708619Y-35250476D02*
X62708619Y-35250476D01*
X63708619Y-34250476D02*
X63708619Y-34821904D01*
X63708619Y-34536190D02*
X62708619Y-34536190D01*
X62708619Y-34536190D02*
X62851476Y-34631428D01*
X62851476Y-34631428D02*
X62946714Y-34726666D01*
X62946714Y-34726666D02*
X62994333Y-34821904D01*
%TO.C,U2*%
X12372619Y-40131904D02*
X13182142Y-40131904D01*
X13182142Y-40131904D02*
X13277380Y-40084285D01*
X13277380Y-40084285D02*
X13325000Y-40036666D01*
X13325000Y-40036666D02*
X13372619Y-39941428D01*
X13372619Y-39941428D02*
X13372619Y-39750952D01*
X13372619Y-39750952D02*
X13325000Y-39655714D01*
X13325000Y-39655714D02*
X13277380Y-39608095D01*
X13277380Y-39608095D02*
X13182142Y-39560476D01*
X13182142Y-39560476D02*
X12372619Y-39560476D01*
X12467857Y-39131904D02*
X12420238Y-39084285D01*
X12420238Y-39084285D02*
X12372619Y-38989047D01*
X12372619Y-38989047D02*
X12372619Y-38750952D01*
X12372619Y-38750952D02*
X12420238Y-38655714D01*
X12420238Y-38655714D02*
X12467857Y-38608095D01*
X12467857Y-38608095D02*
X12563095Y-38560476D01*
X12563095Y-38560476D02*
X12658333Y-38560476D01*
X12658333Y-38560476D02*
X12801190Y-38608095D01*
X12801190Y-38608095D02*
X13372619Y-39179523D01*
X13372619Y-39179523D02*
X13372619Y-38560476D01*
X32272619Y-42965237D02*
X32272619Y-42298571D01*
X32272619Y-42298571D02*
X33272619Y-42727142D01*
X32605952Y-41489047D02*
X33272619Y-41489047D01*
X32225000Y-41727142D02*
X32939285Y-41965237D01*
X32939285Y-41965237D02*
X32939285Y-41346190D01*
X32986904Y-41012856D02*
X32986904Y-40536666D01*
X33272619Y-41108094D02*
X32272619Y-40774761D01*
X32272619Y-40774761D02*
X33272619Y-40441428D01*
X33272619Y-40108094D02*
X32272619Y-40108094D01*
X32748809Y-40108094D02*
X32748809Y-39536666D01*
X33272619Y-39536666D02*
X32272619Y-39536666D01*
X33177380Y-38489047D02*
X33225000Y-38536666D01*
X33225000Y-38536666D02*
X33272619Y-38679523D01*
X33272619Y-38679523D02*
X33272619Y-38774761D01*
X33272619Y-38774761D02*
X33225000Y-38917618D01*
X33225000Y-38917618D02*
X33129761Y-39012856D01*
X33129761Y-39012856D02*
X33034523Y-39060475D01*
X33034523Y-39060475D02*
X32844047Y-39108094D01*
X32844047Y-39108094D02*
X32701190Y-39108094D01*
X32701190Y-39108094D02*
X32510714Y-39060475D01*
X32510714Y-39060475D02*
X32415476Y-39012856D01*
X32415476Y-39012856D02*
X32320238Y-38917618D01*
X32320238Y-38917618D02*
X32272619Y-38774761D01*
X32272619Y-38774761D02*
X32272619Y-38679523D01*
X32272619Y-38679523D02*
X32320238Y-38536666D01*
X32320238Y-38536666D02*
X32367857Y-38489047D01*
X32272619Y-38203332D02*
X32272619Y-37631904D01*
X33272619Y-37917618D02*
X32272619Y-37917618D01*
X32272619Y-37108094D02*
X32272619Y-37012856D01*
X32272619Y-37012856D02*
X32320238Y-36917618D01*
X32320238Y-36917618D02*
X32367857Y-36869999D01*
X32367857Y-36869999D02*
X32463095Y-36822380D01*
X32463095Y-36822380D02*
X32653571Y-36774761D01*
X32653571Y-36774761D02*
X32891666Y-36774761D01*
X32891666Y-36774761D02*
X33082142Y-36822380D01*
X33082142Y-36822380D02*
X33177380Y-36869999D01*
X33177380Y-36869999D02*
X33225000Y-36917618D01*
X33225000Y-36917618D02*
X33272619Y-37012856D01*
X33272619Y-37012856D02*
X33272619Y-37108094D01*
X33272619Y-37108094D02*
X33225000Y-37203332D01*
X33225000Y-37203332D02*
X33177380Y-37250951D01*
X33177380Y-37250951D02*
X33082142Y-37298570D01*
X33082142Y-37298570D02*
X32891666Y-37346189D01*
X32891666Y-37346189D02*
X32653571Y-37346189D01*
X32653571Y-37346189D02*
X32463095Y-37298570D01*
X32463095Y-37298570D02*
X32367857Y-37250951D01*
X32367857Y-37250951D02*
X32320238Y-37203332D01*
X32320238Y-37203332D02*
X32272619Y-37108094D01*
X32605952Y-35917618D02*
X33272619Y-35917618D01*
X32225000Y-36155713D02*
X32939285Y-36393808D01*
X32939285Y-36393808D02*
X32939285Y-35774761D01*
%TO.C,C2*%
X4177380Y-33186666D02*
X4225000Y-33234285D01*
X4225000Y-33234285D02*
X4272619Y-33377142D01*
X4272619Y-33377142D02*
X4272619Y-33472380D01*
X4272619Y-33472380D02*
X4225000Y-33615237D01*
X4225000Y-33615237D02*
X4129761Y-33710475D01*
X4129761Y-33710475D02*
X4034523Y-33758094D01*
X4034523Y-33758094D02*
X3844047Y-33805713D01*
X3844047Y-33805713D02*
X3701190Y-33805713D01*
X3701190Y-33805713D02*
X3510714Y-33758094D01*
X3510714Y-33758094D02*
X3415476Y-33710475D01*
X3415476Y-33710475D02*
X3320238Y-33615237D01*
X3320238Y-33615237D02*
X3272619Y-33472380D01*
X3272619Y-33472380D02*
X3272619Y-33377142D01*
X3272619Y-33377142D02*
X3320238Y-33234285D01*
X3320238Y-33234285D02*
X3367857Y-33186666D01*
X3367857Y-32805713D02*
X3320238Y-32758094D01*
X3320238Y-32758094D02*
X3272619Y-32662856D01*
X3272619Y-32662856D02*
X3272619Y-32424761D01*
X3272619Y-32424761D02*
X3320238Y-32329523D01*
X3320238Y-32329523D02*
X3367857Y-32281904D01*
X3367857Y-32281904D02*
X3463095Y-32234285D01*
X3463095Y-32234285D02*
X3558333Y-32234285D01*
X3558333Y-32234285D02*
X3701190Y-32281904D01*
X3701190Y-32281904D02*
X4272619Y-32853332D01*
X4272619Y-32853332D02*
X4272619Y-32234285D01*
%TO.C,R1*%
X36022619Y-39536666D02*
X35546428Y-39869999D01*
X36022619Y-40108094D02*
X35022619Y-40108094D01*
X35022619Y-40108094D02*
X35022619Y-39727142D01*
X35022619Y-39727142D02*
X35070238Y-39631904D01*
X35070238Y-39631904D02*
X35117857Y-39584285D01*
X35117857Y-39584285D02*
X35213095Y-39536666D01*
X35213095Y-39536666D02*
X35355952Y-39536666D01*
X35355952Y-39536666D02*
X35451190Y-39584285D01*
X35451190Y-39584285D02*
X35498809Y-39631904D01*
X35498809Y-39631904D02*
X35546428Y-39727142D01*
X35546428Y-39727142D02*
X35546428Y-40108094D01*
X36022619Y-38584285D02*
X36022619Y-39155713D01*
X36022619Y-38869999D02*
X35022619Y-38869999D01*
X35022619Y-38869999D02*
X35165476Y-38965237D01*
X35165476Y-38965237D02*
X35260714Y-39060475D01*
X35260714Y-39060475D02*
X35308333Y-39155713D01*
%TO.C,J4*%
X3048095Y-35324238D02*
X2952857Y-35276619D01*
X2952857Y-35276619D02*
X2810000Y-35276619D01*
X2810000Y-35276619D02*
X2667143Y-35324238D01*
X2667143Y-35324238D02*
X2571905Y-35419476D01*
X2571905Y-35419476D02*
X2524286Y-35514714D01*
X2524286Y-35514714D02*
X2476667Y-35705190D01*
X2476667Y-35705190D02*
X2476667Y-35848047D01*
X2476667Y-35848047D02*
X2524286Y-36038523D01*
X2524286Y-36038523D02*
X2571905Y-36133761D01*
X2571905Y-36133761D02*
X2667143Y-36229000D01*
X2667143Y-36229000D02*
X2810000Y-36276619D01*
X2810000Y-36276619D02*
X2905238Y-36276619D01*
X2905238Y-36276619D02*
X3048095Y-36229000D01*
X3048095Y-36229000D02*
X3095714Y-36181380D01*
X3095714Y-36181380D02*
X3095714Y-35848047D01*
X3095714Y-35848047D02*
X2905238Y-35848047D01*
X3524286Y-36276619D02*
X3524286Y-35276619D01*
X3524286Y-35276619D02*
X4095714Y-36276619D01*
X4095714Y-36276619D02*
X4095714Y-35276619D01*
X4571905Y-36276619D02*
X4571905Y-35276619D01*
X4571905Y-35276619D02*
X4810000Y-35276619D01*
X4810000Y-35276619D02*
X4952857Y-35324238D01*
X4952857Y-35324238D02*
X5048095Y-35419476D01*
X5048095Y-35419476D02*
X5095714Y-35514714D01*
X5095714Y-35514714D02*
X5143333Y-35705190D01*
X5143333Y-35705190D02*
X5143333Y-35848047D01*
X5143333Y-35848047D02*
X5095714Y-36038523D01*
X5095714Y-36038523D02*
X5048095Y-36133761D01*
X5048095Y-36133761D02*
X4952857Y-36229000D01*
X4952857Y-36229000D02*
X4810000Y-36276619D01*
X4810000Y-36276619D02*
X4571905Y-36276619D01*
%TO.C,C1*%
X38467380Y-33313666D02*
X38515000Y-33361285D01*
X38515000Y-33361285D02*
X38562619Y-33504142D01*
X38562619Y-33504142D02*
X38562619Y-33599380D01*
X38562619Y-33599380D02*
X38515000Y-33742237D01*
X38515000Y-33742237D02*
X38419761Y-33837475D01*
X38419761Y-33837475D02*
X38324523Y-33885094D01*
X38324523Y-33885094D02*
X38134047Y-33932713D01*
X38134047Y-33932713D02*
X37991190Y-33932713D01*
X37991190Y-33932713D02*
X37800714Y-33885094D01*
X37800714Y-33885094D02*
X37705476Y-33837475D01*
X37705476Y-33837475D02*
X37610238Y-33742237D01*
X37610238Y-33742237D02*
X37562619Y-33599380D01*
X37562619Y-33599380D02*
X37562619Y-33504142D01*
X37562619Y-33504142D02*
X37610238Y-33361285D01*
X37610238Y-33361285D02*
X37657857Y-33313666D01*
X38562619Y-32361285D02*
X38562619Y-32932713D01*
X38562619Y-32646999D02*
X37562619Y-32646999D01*
X37562619Y-32646999D02*
X37705476Y-32742237D01*
X37705476Y-32742237D02*
X37800714Y-32837475D01*
X37800714Y-32837475D02*
X37848333Y-32932713D01*
%TO.C,U1*%
X9832619Y-18541904D02*
X10642142Y-18541904D01*
X10642142Y-18541904D02*
X10737380Y-18494285D01*
X10737380Y-18494285D02*
X10785000Y-18446666D01*
X10785000Y-18446666D02*
X10832619Y-18351428D01*
X10832619Y-18351428D02*
X10832619Y-18160952D01*
X10832619Y-18160952D02*
X10785000Y-18065714D01*
X10785000Y-18065714D02*
X10737380Y-18018095D01*
X10737380Y-18018095D02*
X10642142Y-17970476D01*
X10642142Y-17970476D02*
X9832619Y-17970476D01*
X10832619Y-16970476D02*
X10832619Y-17541904D01*
X10832619Y-17256190D02*
X9832619Y-17256190D01*
X9832619Y-17256190D02*
X9975476Y-17351428D01*
X9975476Y-17351428D02*
X10070714Y-17446666D01*
X10070714Y-17446666D02*
X10118333Y-17541904D01*
X62752619Y-20589523D02*
X62752619Y-19922857D01*
X62752619Y-19922857D02*
X63752619Y-20589523D01*
X63752619Y-20589523D02*
X63752619Y-19922857D01*
X63181190Y-19399047D02*
X63133571Y-19494285D01*
X63133571Y-19494285D02*
X63085952Y-19541904D01*
X63085952Y-19541904D02*
X62990714Y-19589523D01*
X62990714Y-19589523D02*
X62943095Y-19589523D01*
X62943095Y-19589523D02*
X62847857Y-19541904D01*
X62847857Y-19541904D02*
X62800238Y-19494285D01*
X62800238Y-19494285D02*
X62752619Y-19399047D01*
X62752619Y-19399047D02*
X62752619Y-19208571D01*
X62752619Y-19208571D02*
X62800238Y-19113333D01*
X62800238Y-19113333D02*
X62847857Y-19065714D01*
X62847857Y-19065714D02*
X62943095Y-19018095D01*
X62943095Y-19018095D02*
X62990714Y-19018095D01*
X62990714Y-19018095D02*
X63085952Y-19065714D01*
X63085952Y-19065714D02*
X63133571Y-19113333D01*
X63133571Y-19113333D02*
X63181190Y-19208571D01*
X63181190Y-19208571D02*
X63181190Y-19399047D01*
X63181190Y-19399047D02*
X63228809Y-19494285D01*
X63228809Y-19494285D02*
X63276428Y-19541904D01*
X63276428Y-19541904D02*
X63371666Y-19589523D01*
X63371666Y-19589523D02*
X63562142Y-19589523D01*
X63562142Y-19589523D02*
X63657380Y-19541904D01*
X63657380Y-19541904D02*
X63705000Y-19494285D01*
X63705000Y-19494285D02*
X63752619Y-19399047D01*
X63752619Y-19399047D02*
X63752619Y-19208571D01*
X63752619Y-19208571D02*
X63705000Y-19113333D01*
X63705000Y-19113333D02*
X63657380Y-19065714D01*
X63657380Y-19065714D02*
X63562142Y-19018095D01*
X63562142Y-19018095D02*
X63371666Y-19018095D01*
X63371666Y-19018095D02*
X63276428Y-19065714D01*
X63276428Y-19065714D02*
X63228809Y-19113333D01*
X63228809Y-19113333D02*
X63181190Y-19208571D01*
X62752619Y-18399047D02*
X62752619Y-18303809D01*
X62752619Y-18303809D02*
X62800238Y-18208571D01*
X62800238Y-18208571D02*
X62847857Y-18160952D01*
X62847857Y-18160952D02*
X62943095Y-18113333D01*
X62943095Y-18113333D02*
X63133571Y-18065714D01*
X63133571Y-18065714D02*
X63371666Y-18065714D01*
X63371666Y-18065714D02*
X63562142Y-18113333D01*
X63562142Y-18113333D02*
X63657380Y-18160952D01*
X63657380Y-18160952D02*
X63705000Y-18208571D01*
X63705000Y-18208571D02*
X63752619Y-18303809D01*
X63752619Y-18303809D02*
X63752619Y-18399047D01*
X63752619Y-18399047D02*
X63705000Y-18494285D01*
X63705000Y-18494285D02*
X63657380Y-18541904D01*
X63657380Y-18541904D02*
X63562142Y-18589523D01*
X63562142Y-18589523D02*
X63371666Y-18637142D01*
X63371666Y-18637142D02*
X63133571Y-18637142D01*
X63133571Y-18637142D02*
X62943095Y-18589523D01*
X62943095Y-18589523D02*
X62847857Y-18541904D01*
X62847857Y-18541904D02*
X62800238Y-18494285D01*
X62800238Y-18494285D02*
X62752619Y-18399047D01*
X63657380Y-17065714D02*
X63705000Y-17113333D01*
X63705000Y-17113333D02*
X63752619Y-17256190D01*
X63752619Y-17256190D02*
X63752619Y-17351428D01*
X63752619Y-17351428D02*
X63705000Y-17494285D01*
X63705000Y-17494285D02*
X63609761Y-17589523D01*
X63609761Y-17589523D02*
X63514523Y-17637142D01*
X63514523Y-17637142D02*
X63324047Y-17684761D01*
X63324047Y-17684761D02*
X63181190Y-17684761D01*
X63181190Y-17684761D02*
X62990714Y-17637142D01*
X62990714Y-17637142D02*
X62895476Y-17589523D01*
X62895476Y-17589523D02*
X62800238Y-17494285D01*
X62800238Y-17494285D02*
X62752619Y-17351428D01*
X62752619Y-17351428D02*
X62752619Y-17256190D01*
X62752619Y-17256190D02*
X62800238Y-17113333D01*
X62800238Y-17113333D02*
X62847857Y-17065714D01*
X63752619Y-16637142D02*
X62752619Y-16637142D01*
X62752619Y-16637142D02*
X62752619Y-16256190D01*
X62752619Y-16256190D02*
X62800238Y-16160952D01*
X62800238Y-16160952D02*
X62847857Y-16113333D01*
X62847857Y-16113333D02*
X62943095Y-16065714D01*
X62943095Y-16065714D02*
X63085952Y-16065714D01*
X63085952Y-16065714D02*
X63181190Y-16113333D01*
X63181190Y-16113333D02*
X63228809Y-16160952D01*
X63228809Y-16160952D02*
X63276428Y-16256190D01*
X63276428Y-16256190D02*
X63276428Y-16637142D01*
X62752619Y-15637142D02*
X63562142Y-15637142D01*
X63562142Y-15637142D02*
X63657380Y-15589523D01*
X63657380Y-15589523D02*
X63705000Y-15541904D01*
X63705000Y-15541904D02*
X63752619Y-15446666D01*
X63752619Y-15446666D02*
X63752619Y-15256190D01*
X63752619Y-15256190D02*
X63705000Y-15160952D01*
X63705000Y-15160952D02*
X63657380Y-15113333D01*
X63657380Y-15113333D02*
X63562142Y-15065714D01*
X63562142Y-15065714D02*
X62752619Y-15065714D01*
D12*
%TO.C,J2*%
X11310000Y-67370000D02*
X62350000Y-67370000D01*
X62350000Y-67370000D02*
X62350000Y-49470000D01*
X11370000Y-64880000D02*
X62290000Y-64880000D01*
X62290000Y-64880000D02*
X62290000Y-51960000D01*
X11370000Y-59420000D02*
X11370000Y-64880000D01*
X11370000Y-51960000D02*
X11370000Y-57420000D01*
X62290000Y-51960000D02*
X11370000Y-51960000D01*
X11310000Y-49470000D02*
X11310000Y-67370000D01*
X62350000Y-49470000D02*
X11310000Y-49470000D01*
X11370000Y-59420000D02*
G75*
G03*
X11370000Y-57420000I0J1000000D01*
G01*
%TO.C,J5*%
X54550000Y-39310000D02*
X55880000Y-39310000D01*
X54550000Y-40640000D02*
X54550000Y-39310000D01*
X54610000Y-41910000D02*
X54610000Y-44510000D01*
X54610000Y-41910000D02*
X57023000Y-41910000D01*
X54610000Y-44510000D02*
X57023000Y-44510000D01*
X57023000Y-41910000D02*
X57023000Y-44510000D01*
%TO.C,J6*%
X57090000Y-39310000D02*
X58420000Y-39310000D01*
X57090000Y-40640000D02*
X57090000Y-39310000D01*
X57150000Y-41910000D02*
X57150000Y-44510000D01*
X57150000Y-41910000D02*
X59563000Y-41910000D01*
X57150000Y-44510000D02*
X59563000Y-44510000D01*
X59563000Y-41910000D02*
X59563000Y-44510000D01*
%TO.C,J3*%
X6290000Y-36770000D02*
X7620000Y-36770000D01*
X6290000Y-38100000D02*
X6290000Y-36770000D01*
X6350000Y-39370000D02*
X6350000Y-41970000D01*
X6350000Y-39370000D02*
X8763000Y-39370000D01*
X6350000Y-41970000D02*
X8763000Y-41970000D01*
X8763000Y-39370000D02*
X8763000Y-41970000D01*
%TO.C,RN1*%
X49360000Y-34160000D02*
X49360000Y-36960000D01*
X49360000Y-36960000D02*
X62400000Y-36960000D01*
X52070000Y-34160000D02*
X52070000Y-36960000D01*
X62400000Y-34160000D02*
X49360000Y-34160000D01*
X62400000Y-36960000D02*
X62400000Y-34160000D01*
%TO.C,U2*%
X13910000Y-42020000D02*
X31810000Y-42020000D01*
X31810000Y-42020000D02*
X31810000Y-36720000D01*
X13910000Y-40370000D02*
X13910000Y-42020000D01*
X13910000Y-36720000D02*
X13910000Y-38370000D01*
X31810000Y-36720000D02*
X13910000Y-36720000D01*
X13910000Y-40370000D02*
G75*
G03*
X13910000Y-38370000I0J1000000D01*
G01*
%TO.C,C2*%
X9139801Y-34215000D02*
X8739801Y-34215000D01*
X8939801Y-34415000D02*
X8939801Y-34015000D01*
X6870000Y-35100000D02*
X6870000Y-33860000D01*
X6870000Y-32180000D02*
X6870000Y-30940000D01*
X6830000Y-35100000D02*
X6830000Y-33860000D01*
X6830000Y-32180000D02*
X6830000Y-30940000D01*
X6790000Y-35099000D02*
X6790000Y-33860000D01*
X6790000Y-32180000D02*
X6790000Y-30941000D01*
X6750000Y-35097000D02*
X6750000Y-33860000D01*
X6750000Y-32180000D02*
X6750000Y-30943000D01*
X6710000Y-35094000D02*
X6710000Y-33860000D01*
X6710000Y-32180000D02*
X6710000Y-30946000D01*
X6670000Y-35091000D02*
X6670000Y-33860000D01*
X6670000Y-32180000D02*
X6670000Y-30949000D01*
X6630000Y-35087000D02*
X6630000Y-33860000D01*
X6630000Y-32180000D02*
X6630000Y-30953000D01*
X6590000Y-35082000D02*
X6590000Y-33860000D01*
X6590000Y-32180000D02*
X6590000Y-30958000D01*
X6550000Y-35076000D02*
X6550000Y-33860000D01*
X6550000Y-32180000D02*
X6550000Y-30964000D01*
X6510000Y-35070000D02*
X6510000Y-33860000D01*
X6510000Y-32180000D02*
X6510000Y-30970000D01*
X6470000Y-35062000D02*
X6470000Y-33860000D01*
X6470000Y-32180000D02*
X6470000Y-30978000D01*
X6430000Y-35054000D02*
X6430000Y-33860000D01*
X6430000Y-32180000D02*
X6430000Y-30986000D01*
X6390000Y-35045000D02*
X6390000Y-33860000D01*
X6390000Y-32180000D02*
X6390000Y-30995000D01*
X6350000Y-35036000D02*
X6350000Y-33860000D01*
X6350000Y-32180000D02*
X6350000Y-31004000D01*
X6310000Y-35025000D02*
X6310000Y-33860000D01*
X6310000Y-32180000D02*
X6310000Y-31015000D01*
X6270000Y-35014000D02*
X6270000Y-33860000D01*
X6270000Y-32180000D02*
X6270000Y-31026000D01*
X6230000Y-35002000D02*
X6230000Y-33860000D01*
X6230000Y-32180000D02*
X6230000Y-31038000D01*
X6190000Y-34988000D02*
X6190000Y-33860000D01*
X6190000Y-32180000D02*
X6190000Y-31052000D01*
X6149000Y-34974000D02*
X6149000Y-33860000D01*
X6149000Y-32180000D02*
X6149000Y-31066000D01*
X6109000Y-34960000D02*
X6109000Y-33860000D01*
X6109000Y-32180000D02*
X6109000Y-31080000D01*
X6069000Y-34944000D02*
X6069000Y-33860000D01*
X6069000Y-32180000D02*
X6069000Y-31096000D01*
X6029000Y-34927000D02*
X6029000Y-33860000D01*
X6029000Y-32180000D02*
X6029000Y-31113000D01*
X5989000Y-34909000D02*
X5989000Y-33860000D01*
X5989000Y-32180000D02*
X5989000Y-31131000D01*
X5949000Y-34890000D02*
X5949000Y-33860000D01*
X5949000Y-32180000D02*
X5949000Y-31150000D01*
X5909000Y-34871000D02*
X5909000Y-33860000D01*
X5909000Y-32180000D02*
X5909000Y-31169000D01*
X5869000Y-34850000D02*
X5869000Y-33860000D01*
X5869000Y-32180000D02*
X5869000Y-31190000D01*
X5829000Y-34828000D02*
X5829000Y-33860000D01*
X5829000Y-32180000D02*
X5829000Y-31212000D01*
X5789000Y-34805000D02*
X5789000Y-33860000D01*
X5789000Y-32180000D02*
X5789000Y-31235000D01*
X5749000Y-34780000D02*
X5749000Y-33860000D01*
X5749000Y-32180000D02*
X5749000Y-31260000D01*
X5709000Y-34755000D02*
X5709000Y-33860000D01*
X5709000Y-32180000D02*
X5709000Y-31285000D01*
X5669000Y-34728000D02*
X5669000Y-33860000D01*
X5669000Y-32180000D02*
X5669000Y-31312000D01*
X5629000Y-34700000D02*
X5629000Y-33860000D01*
X5629000Y-32180000D02*
X5629000Y-31340000D01*
X5589000Y-34670000D02*
X5589000Y-33860000D01*
X5589000Y-32180000D02*
X5589000Y-31370000D01*
X5549000Y-34639000D02*
X5549000Y-33860000D01*
X5549000Y-32180000D02*
X5549000Y-31401000D01*
X5509000Y-34607000D02*
X5509000Y-33860000D01*
X5509000Y-32180000D02*
X5509000Y-31433000D01*
X5469000Y-34572000D02*
X5469000Y-33860000D01*
X5469000Y-32180000D02*
X5469000Y-31468000D01*
X5429000Y-34536000D02*
X5429000Y-33860000D01*
X5429000Y-32180000D02*
X5429000Y-31504000D01*
X5389000Y-34498000D02*
X5389000Y-33860000D01*
X5389000Y-32180000D02*
X5389000Y-31542000D01*
X5349000Y-34458000D02*
X5349000Y-33860000D01*
X5349000Y-32180000D02*
X5349000Y-31582000D01*
X5309000Y-34416000D02*
X5309000Y-33860000D01*
X5309000Y-32180000D02*
X5309000Y-31624000D01*
X5269000Y-34371000D02*
X5269000Y-31669000D01*
X5229000Y-34324000D02*
X5229000Y-31716000D01*
X5189000Y-34274000D02*
X5189000Y-31766000D01*
X5149000Y-34220000D02*
X5149000Y-31820000D01*
X5109000Y-34162000D02*
X5109000Y-31878000D01*
X5069000Y-34100000D02*
X5069000Y-31940000D01*
X5029000Y-34033000D02*
X5029000Y-32007000D01*
X4989000Y-33960000D02*
X4989000Y-32080000D01*
X4949000Y-33879000D02*
X4949000Y-32161000D01*
X4909000Y-33788000D02*
X4909000Y-32252000D01*
X4869000Y-33684000D02*
X4869000Y-32356000D01*
X4829000Y-33557000D02*
X4829000Y-32483000D01*
X4789000Y-33390000D02*
X4789000Y-32650000D01*
X8990000Y-33020000D02*
G75*
G03*
X8990000Y-33020000I-2120000J0D01*
G01*
%TO.C,R1*%
X34391600Y-42640000D02*
X34391600Y-36100000D01*
X34721600Y-42640000D02*
X34391600Y-42640000D01*
X36398400Y-42640000D02*
X36728400Y-42640000D01*
X36728400Y-42640000D02*
X36728400Y-36100000D01*
X34391600Y-36100000D02*
X34721600Y-36100000D01*
X36728400Y-36100000D02*
X36398400Y-36100000D01*
%TO.C,J1*%
X11430000Y-28956000D02*
X62350000Y-28956000D01*
D13*
X11430000Y-28956000D02*
X11430000Y-26924000D01*
X62350000Y-28956000D02*
X62350000Y-26924000D01*
D12*
X11430000Y-26924000D02*
X62350000Y-26924000D01*
X11430000Y-8636000D02*
X62350000Y-8636000D01*
D13*
X11430000Y-8636000D02*
X11430000Y-6604000D01*
X62350000Y-8636000D02*
X62350000Y-6604000D01*
D12*
X11430000Y-6604000D02*
X62350000Y-6604000D01*
%TO.C,J4*%
X3750000Y-36770000D02*
X5080000Y-36770000D01*
X3750000Y-38100000D02*
X3750000Y-36770000D01*
X4064000Y-39370000D02*
X6096000Y-39370000D01*
X4064000Y-39370000D02*
X6096000Y-39370000D01*
%TO.C,C1*%
X38989000Y-30790000D02*
X38989000Y-35330000D01*
X37211000Y-30790000D02*
X37211000Y-35330000D01*
%TO.C,U1*%
X11310000Y-26730000D02*
X62350000Y-26730000D01*
X62350000Y-26730000D02*
X62350000Y-8830000D01*
X11370000Y-24240000D02*
X62290000Y-24240000D01*
X62290000Y-24240000D02*
X62290000Y-11320000D01*
X11370000Y-18780000D02*
X11370000Y-24240000D01*
X11370000Y-11320000D02*
X11370000Y-16780000D01*
X62290000Y-11320000D02*
X11370000Y-11320000D01*
X11310000Y-8830000D02*
X11310000Y-26730000D01*
X62350000Y-8830000D02*
X11310000Y-8830000D01*
X11370000Y-18780000D02*
G75*
G03*
X11370000Y-16780000I0J1000000D01*
G01*
%TD*%
M02*
