M48
; DRILL file {KiCad 7.0.2} date Mon Jun 26 15:47:58 2023
; FORMAT={-:-/ absolute / inch / decimal}
; #@! TF.CreationDate,2023-06-26T15:47:58+09:00
; #@! TF.GenerationSoftware,Kicad,Pcbnew,7.0.2
; #@! TF.FileFunction,Plated,1,2,PTH
FMAT,2
INCH
; #@! TA.AperFunction,Plated,PTH,ViaDrill
T1C0.0157
; #@! TA.AperFunction,Plated,PTH,ComponentDrill
T2C0.0236
; #@! TA.AperFunction,Plated,PTH,ComponentDrill
T3C0.0315
; #@! TA.AperFunction,Plated,PTH,ComponentDrill
T4C0.0394
%
G90
G05
T1
X0.4Y-1.25
X0.45Y-1.25
X0.5Y-1.25
X0.5Y-1.3
X1.15Y-1.8
X1.15Y-1.85
X1.25Y-1.85
X1.35Y-1.8
X1.6Y-1.6
X1.7Y-1.6
X1.8Y-1.6
X1.9Y-1.6
X2.1Y-1.85
X2.1Y-1.9
X2.125Y-2.525
T2
X0.2409Y-1.3
X0.3Y-1.3
T3
X0.5Y-0.3
X0.5Y-0.4
X0.5Y-1.0
X0.5Y-1.1
X0.5Y-2.0
X0.5Y-2.6
X0.6Y-0.3
X0.6Y-0.4
X0.6Y-1.0
X0.6Y-1.1
X0.6Y-1.4
X0.6Y-1.7
X0.6Y-2.0
X0.6Y-2.6
X0.7Y-0.3
X0.7Y-0.4
X0.7Y-1.0
X0.7Y-1.1
X0.7Y-1.4
X0.7Y-1.7
X0.7Y-2.0
X0.7Y-2.6
X0.8Y-0.3
X0.8Y-0.4
X0.8Y-1.0
X0.8Y-1.1
X0.8Y-1.4
X0.8Y-1.7
X0.8Y-2.0
X0.8Y-2.6
X0.9Y-0.3
X0.9Y-0.4
X0.9Y-1.0
X0.9Y-1.1
X0.9Y-1.4
X0.9Y-1.7
X0.9Y-2.0
X0.9Y-2.6
X1.0Y-0.3
X1.0Y-0.4
X1.0Y-1.0
X1.0Y-1.1
X1.0Y-1.4
X1.0Y-1.7
X1.0Y-2.0
X1.0Y-2.6
X1.1Y-0.3
X1.1Y-0.4
X1.1Y-1.0
X1.1Y-1.1
X1.1Y-1.4
X1.1Y-1.7
X1.1Y-2.0
X1.1Y-2.6
X1.2Y-0.3
X1.2Y-0.4
X1.2Y-1.0
X1.2Y-1.1
X1.2Y-1.4
X1.2Y-1.7
X1.2Y-2.0
X1.2Y-2.6
X1.3Y-0.3
X1.3Y-0.4
X1.3Y-1.0
X1.3Y-1.1
X1.3Y-2.0
X1.3Y-2.6
X1.4Y-0.3
X1.4Y-0.4
X1.4Y-1.0
X1.4Y-1.1
X1.4Y-1.4
X1.4Y-1.7
X1.4Y-2.0
X1.4Y-2.6
X1.5Y-0.3
X1.5Y-0.4
X1.5Y-1.0
X1.5Y-1.1
X1.5Y-1.2031
X1.5Y-1.4
X1.5Y-2.0
X1.5Y-2.6
X1.6Y-0.3
X1.6Y-0.4
X1.6Y-1.0
X1.6Y-1.1
X1.6Y-2.0
X1.6Y-2.6
X1.7Y-0.3
X1.7Y-0.4
X1.7Y-1.0
X1.7Y-1.1
X1.7Y-2.0
X1.7Y-2.6
X1.8Y-0.3
X1.8Y-0.4
X1.8Y-1.0
X1.8Y-1.1
X1.8Y-2.0
X1.8Y-2.6
X1.9Y-0.3
X1.9Y-0.4
X1.9Y-1.0
X1.9Y-1.1
X1.9Y-2.0
X1.9Y-2.6
X2.0Y-0.3
X2.0Y-0.4
X2.0Y-1.0
X2.0Y-1.1
X2.0Y-1.4
X2.0Y-2.0
X2.0Y-2.6
X2.1Y-0.3
X2.1Y-0.4
X2.1Y-1.0
X2.1Y-1.1
X2.1Y-1.4
X2.1Y-2.0
X2.1Y-2.6
X2.2Y-0.3
X2.2Y-0.4
X2.2Y-1.0
X2.2Y-1.1
X2.2Y-1.4
X2.2Y-2.0
X2.2Y-2.6
X2.3Y-0.3
X2.3Y-0.4
X2.3Y-1.0
X2.3Y-1.1
X2.3Y-1.4
X2.3Y-2.0
X2.3Y-2.6
X2.4Y-0.3
X2.4Y-0.4
X2.4Y-1.0
X2.4Y-1.1
X2.4Y-1.4
X2.4Y-2.0
X2.4Y-2.6
T4
X0.2Y-1.5
X0.3Y-1.5
X0.3Y-1.6
X2.2Y-1.6
X2.2Y-1.7
X2.3Y-1.6
X2.3Y-1.7
T0
M30
