%TF.GenerationSoftware,KiCad,Pcbnew,7.0.2*%
%TF.CreationDate,2023-06-26T15:47:55+09:00*%
%TF.ProjectId,TangNanoZ80MEM,54616e67-4e61-46e6-9f5a-38304d454d2e,rev?*%
%TF.SameCoordinates,Original*%
%TF.FileFunction,Copper,L1,Top*%
%TF.FilePolarity,Positive*%
%FSLAX46Y46*%
G04 Gerber Fmt 4.6, Leading zero omitted, Abs format (unit mm)*
G04 Created by KiCad (PCBNEW 7.0.2) date 2023-06-26 15:47:55*
%MOMM*%
%LPD*%
G01*
G04 APERTURE LIST*
%TA.AperFunction,ComponentPad*%
%ADD10R,1.600000X1.600000*%
%TD*%
%TA.AperFunction,ComponentPad*%
%ADD11O,1.600000X1.600000*%
%TD*%
%TA.AperFunction,ComponentPad*%
%ADD12R,1.700000X1.700000*%
%TD*%
%TA.AperFunction,ComponentPad*%
%ADD13O,1.700000X1.700000*%
%TD*%
%TA.AperFunction,ComponentPad*%
%ADD14R,1.200000X1.200000*%
%TD*%
%TA.AperFunction,ComponentPad*%
%ADD15C,1.200000*%
%TD*%
%TA.AperFunction,ComponentPad*%
%ADD16C,1.600000*%
%TD*%
%TA.AperFunction,ViaPad*%
%ADD17C,0.800000*%
%TD*%
%TA.AperFunction,Conductor*%
%ADD18C,0.250000*%
%TD*%
%TA.AperFunction,Conductor*%
%ADD19C,0.500000*%
%TD*%
%TA.AperFunction,Conductor*%
%ADD20C,1.000000*%
%TD*%
%TA.AperFunction,Conductor*%
%ADD21C,2.000000*%
%TD*%
G04 APERTURE END LIST*
D10*
%TO.P,J2,1,Pin_1*%
%TO.N,A11*%
X12700000Y-66040000D03*
D11*
%TO.P,J2,2,Pin_2*%
%TO.N,A12*%
X15240000Y-66040000D03*
%TO.P,J2,3,Pin_3*%
%TO.N,RESET_n*%
X17780000Y-66040000D03*
%TO.P,J2,4,Pin_4*%
%TO.N,A13*%
X20320000Y-66040000D03*
%TO.P,J2,5,Pin_5*%
%TO.N,A14*%
X22860000Y-66040000D03*
%TO.P,J2,6,Pin_6*%
%TO.N,A15*%
X25400000Y-66040000D03*
%TO.P,J2,7,Pin_7*%
%TO.N,A10*%
X27940000Y-66040000D03*
%TO.P,J2,8,Pin_8*%
%TO.N,A9*%
X30480000Y-66040000D03*
%TO.P,J2,9,Pin_9*%
%TO.N,A8*%
X33020000Y-66040000D03*
%TO.P,J2,10,Pin_10*%
%TO.N,A7*%
X35560000Y-66040000D03*
%TO.P,J2,11,Pin_11*%
%TO.N,A6*%
X38100000Y-66040000D03*
%TO.P,J2,12,Pin_12*%
%TO.N,A5*%
X40640000Y-66040000D03*
%TO.P,J2,13,Pin_13*%
%TO.N,A4*%
X43180000Y-66040000D03*
%TO.P,J2,14,Pin_14*%
%TO.N,A3*%
X45720000Y-66040000D03*
%TO.P,J2,15,Pin_15*%
%TO.N,A2*%
X48260000Y-66040000D03*
%TO.P,J2,16,Pin_16*%
%TO.N,A1*%
X50800000Y-66040000D03*
%TO.P,J2,17,Pin_17*%
%TO.N,A0*%
X53340000Y-66040000D03*
%TO.P,J2,18,Pin_18*%
%TO.N,INT_n*%
X55880000Y-66040000D03*
%TO.P,J2,19,Pin_19*%
%TO.N,unconnected-(J2-Pin_19-Pad19)*%
X58420000Y-66040000D03*
%TO.P,J2,20,Pin_20*%
%TO.N,GND*%
X60960000Y-66040000D03*
%TO.P,J2,21,Pin_21*%
%TO.N,RD_n*%
X60960000Y-50800000D03*
%TO.P,J2,22,Pin_22*%
%TO.N,WR_n*%
X58420000Y-50800000D03*
%TO.P,J2,23,Pin_23*%
%TO.N,IORQ_n*%
X55880000Y-50800000D03*
%TO.P,J2,24,Pin_24*%
%TO.N,MREQ_n*%
X53340000Y-50800000D03*
%TO.P,J2,25,Pin_25*%
%TO.N,unconnected-(J2-Pin_25-Pad25)*%
X50800000Y-50800000D03*
%TO.P,J2,26,Pin_26*%
%TO.N,GND*%
X48260000Y-50800000D03*
%TO.P,J2,27,Pin_27*%
%TO.N,LED_RGB*%
X45720000Y-50800000D03*
%TO.P,J2,28,Pin_28*%
%TO.N,DBG_TRG*%
X43180000Y-50800000D03*
%TO.P,J2,29,Pin_29*%
%TO.N,M1_n*%
X40640000Y-50800000D03*
%TO.P,J2,30,Pin_30*%
%TO.N,D1*%
X38100000Y-50800000D03*
%TO.P,J2,31,Pin_31*%
%TO.N,D0*%
X35560000Y-50800000D03*
%TO.P,J2,32,Pin_32*%
%TO.N,D7*%
X33020000Y-50800000D03*
%TO.P,J2,33,Pin_33*%
%TO.N,D2*%
X30480000Y-50800000D03*
%TO.P,J2,34,Pin_34*%
%TO.N,D6*%
X27940000Y-50800000D03*
%TO.P,J2,35,Pin_35*%
%TO.N,D5*%
X25400000Y-50800000D03*
%TO.P,J2,36,Pin_36*%
%TO.N,D3*%
X22860000Y-50800000D03*
%TO.P,J2,37,Pin_37*%
%TO.N,D4*%
X20320000Y-50800000D03*
%TO.P,J2,38,Pin_38*%
%TO.N,CLK_3V*%
X17780000Y-50800000D03*
%TO.P,J2,39,Pin_39*%
%TO.N,GND*%
X15240000Y-50800000D03*
%TO.P,J2,40,Pin_40*%
%TO.N,5V_USB*%
X12700000Y-50800000D03*
%TD*%
D12*
%TO.P,J5,1,Pin_1*%
%TO.N,DBG_TRG*%
X55880000Y-40640000D03*
D13*
%TO.P,J5,2,Pin_2*%
%TO.N,GND*%
X55880000Y-43180000D03*
%TD*%
D12*
%TO.P,J6,1,Pin_1*%
%TO.N,LED_RGB*%
X58420000Y-40640000D03*
D13*
%TO.P,J6,2,Pin_2*%
%TO.N,GND*%
X58420000Y-43180000D03*
%TD*%
D12*
%TO.P,J3,1,Pin_1*%
%TO.N,VCC*%
X7620000Y-38100000D03*
D13*
%TO.P,J3,2,Pin_2*%
%TO.N,5V_USB*%
X7620000Y-40640000D03*
%TD*%
D10*
%TO.P,RN1,1,common*%
%TO.N,VCC*%
X50800000Y-35560000D03*
D11*
%TO.P,RN1,2,R1*%
%TO.N,NMI_n*%
X53340000Y-35560000D03*
%TO.P,RN1,3,R2*%
%TO.N,BUSREQ_n*%
X55880000Y-35560000D03*
%TO.P,RN1,4,R3*%
%TO.N,WAIT_n*%
X58420000Y-35560000D03*
%TO.P,RN1,5,R4*%
%TO.N,unconnected-(RN1-R4-Pad5)*%
X60960000Y-35560000D03*
%TD*%
D10*
%TO.P,U2,1*%
%TO.N,CLK_3V*%
X15240000Y-43180000D03*
D11*
%TO.P,U2,2*%
%TO.N,Net-(U2-Pad2)*%
X17780000Y-43180000D03*
%TO.P,U2,3*%
X20320000Y-43180000D03*
%TO.P,U2,4*%
%TO.N,Net-(R1-Pad1)*%
X22860000Y-43180000D03*
%TO.P,U2,5*%
%TO.N,GND*%
X25400000Y-43180000D03*
%TO.P,U2,6*%
%TO.N,unconnected-(U2-Pad6)*%
X27940000Y-43180000D03*
%TO.P,U2,7,GND*%
%TO.N,GND*%
X30480000Y-43180000D03*
%TO.P,U2,8*%
%TO.N,unconnected-(U2-Pad8)*%
X30480000Y-35560000D03*
%TO.P,U2,9*%
%TO.N,VCC*%
X27940000Y-35560000D03*
%TO.P,U2,10*%
%TO.N,unconnected-(U2-Pad10)*%
X25400000Y-35560000D03*
%TO.P,U2,11*%
%TO.N,VCC*%
X22860000Y-35560000D03*
%TO.P,U2,12*%
%TO.N,unconnected-(U2-Pad12)*%
X20320000Y-35560000D03*
%TO.P,U2,13*%
%TO.N,VCC*%
X17780000Y-35560000D03*
%TO.P,U2,14,VCC*%
X15240000Y-35560000D03*
%TD*%
D14*
%TO.P,C2,1*%
%TO.N,VCC*%
X7620000Y-33020000D03*
D15*
%TO.P,C2,2*%
%TO.N,GND*%
X6120000Y-33020000D03*
%TD*%
D16*
%TO.P,R1,1*%
%TO.N,Net-(R1-Pad1)*%
X35560000Y-43180000D03*
D11*
%TO.P,R1,2*%
%TO.N,CLK*%
X35560000Y-35560000D03*
%TD*%
D10*
%TO.P,J1,1,Pin_1*%
%TO.N,A11*%
X12700000Y-27940000D03*
D11*
%TO.P,J1,2,Pin_2*%
%TO.N,A12*%
X15240000Y-27940000D03*
%TO.P,J1,3,Pin_3*%
%TO.N,A13*%
X17780000Y-27940000D03*
%TO.P,J1,4,Pin_4*%
%TO.N,A14*%
X20320000Y-27940000D03*
%TO.P,J1,5,Pin_5*%
%TO.N,A15*%
X22860000Y-27940000D03*
%TO.P,J1,6,Pin_6*%
%TO.N,CLK*%
X25400000Y-27940000D03*
%TO.P,J1,7,Pin_7*%
%TO.N,D4*%
X27940000Y-27940000D03*
%TO.P,J1,8,Pin_8*%
%TO.N,D3*%
X30480000Y-27940000D03*
%TO.P,J1,9,Pin_9*%
%TO.N,D5*%
X33020000Y-27940000D03*
%TO.P,J1,10,Pin_10*%
%TO.N,D6*%
X35560000Y-27940000D03*
%TO.P,J1,11,Pin_11*%
%TO.N,VCC*%
X38100000Y-27940000D03*
%TO.P,J1,12,Pin_12*%
%TO.N,D2*%
X40640000Y-27940000D03*
%TO.P,J1,13,Pin_13*%
%TO.N,D7*%
X43180000Y-27940000D03*
%TO.P,J1,14,Pin_14*%
%TO.N,D0*%
X45720000Y-27940000D03*
%TO.P,J1,15,Pin_15*%
%TO.N,D1*%
X48260000Y-27940000D03*
%TO.P,J1,16,Pin_16*%
%TO.N,INT_n*%
X50800000Y-27940000D03*
%TO.P,J1,17,Pin_17*%
%TO.N,NMI_n*%
X53340000Y-27940000D03*
%TO.P,J1,18,Pin_18*%
%TO.N,HALT_n*%
X55880000Y-27940000D03*
%TO.P,J1,19,Pin_19*%
%TO.N,MREQ_n*%
X58420000Y-27940000D03*
%TO.P,J1,20,Pin_20*%
%TO.N,IORQ_n*%
X60960000Y-27940000D03*
%TO.P,J1,21,Pin_21*%
%TO.N,RD_n*%
X60960000Y-7620000D03*
%TO.P,J1,22,Pin_22*%
%TO.N,WR_n*%
X58420000Y-7620000D03*
%TO.P,J1,23,Pin_23*%
%TO.N,BUSACK_n*%
X55880000Y-7620000D03*
%TO.P,J1,24,Pin_24*%
%TO.N,WAIT_n*%
X53340000Y-7620000D03*
%TO.P,J1,25,Pin_25*%
%TO.N,BUSREQ_n*%
X50800000Y-7620000D03*
%TO.P,J1,26,Pin_26*%
%TO.N,RESET_n*%
X48260000Y-7620000D03*
%TO.P,J1,27,Pin_27*%
%TO.N,M1_n*%
X45720000Y-7620000D03*
%TO.P,J1,28,Pin_28*%
%TO.N,RFSH_n*%
X43180000Y-7620000D03*
%TO.P,J1,29,Pin_29*%
%TO.N,GND*%
X40640000Y-7620000D03*
%TO.P,J1,30,Pin_30*%
%TO.N,A0*%
X38100000Y-7620000D03*
%TO.P,J1,31,Pin_31*%
%TO.N,A1*%
X35560000Y-7620000D03*
%TO.P,J1,32,Pin_32*%
%TO.N,A2*%
X33020000Y-7620000D03*
%TO.P,J1,33,Pin_33*%
%TO.N,A3*%
X30480000Y-7620000D03*
%TO.P,J1,34,Pin_34*%
%TO.N,A4*%
X27940000Y-7620000D03*
%TO.P,J1,35,Pin_35*%
%TO.N,A5*%
X25400000Y-7620000D03*
%TO.P,J1,36,Pin_36*%
%TO.N,A6*%
X22860000Y-7620000D03*
%TO.P,J1,37,Pin_37*%
%TO.N,A7*%
X20320000Y-7620000D03*
%TO.P,J1,38,Pin_38*%
%TO.N,A8*%
X17780000Y-7620000D03*
%TO.P,J1,39,Pin_39*%
%TO.N,A9*%
X15240000Y-7620000D03*
%TO.P,J1,40,Pin_40*%
%TO.N,A10*%
X12700000Y-7620000D03*
%TD*%
D12*
%TO.P,J4,1,Pin_1*%
%TO.N,GND*%
X5080000Y-38100000D03*
%TD*%
D16*
%TO.P,C1,1*%
%TO.N,VCC*%
X38100000Y-30560000D03*
%TO.P,C1,2*%
%TO.N,GND*%
X38100000Y-35560000D03*
%TD*%
D10*
%TO.P,U1,1,A11*%
%TO.N,A11*%
X12700000Y-25400000D03*
D11*
%TO.P,U1,2,A12*%
%TO.N,A12*%
X15240000Y-25400000D03*
%TO.P,U1,3,A13*%
%TO.N,A13*%
X17780000Y-25400000D03*
%TO.P,U1,4,A14*%
%TO.N,A14*%
X20320000Y-25400000D03*
%TO.P,U1,5,A15*%
%TO.N,A15*%
X22860000Y-25400000D03*
%TO.P,U1,6,~{CLK}*%
%TO.N,CLK*%
X25400000Y-25400000D03*
%TO.P,U1,7,D4*%
%TO.N,D4*%
X27940000Y-25400000D03*
%TO.P,U1,8,D3*%
%TO.N,D3*%
X30480000Y-25400000D03*
%TO.P,U1,9,D5*%
%TO.N,D5*%
X33020000Y-25400000D03*
%TO.P,U1,10,D6*%
%TO.N,D6*%
X35560000Y-25400000D03*
%TO.P,U1,11,VCC*%
%TO.N,VCC*%
X38100000Y-25400000D03*
%TO.P,U1,12,D2*%
%TO.N,D2*%
X40640000Y-25400000D03*
%TO.P,U1,13,D7*%
%TO.N,D7*%
X43180000Y-25400000D03*
%TO.P,U1,14,D0*%
%TO.N,D0*%
X45720000Y-25400000D03*
%TO.P,U1,15,D1*%
%TO.N,D1*%
X48260000Y-25400000D03*
%TO.P,U1,16,~{INT}*%
%TO.N,INT_n*%
X50800000Y-25400000D03*
%TO.P,U1,17,~{NMI}*%
%TO.N,NMI_n*%
X53340000Y-25400000D03*
%TO.P,U1,18,~{HALT}*%
%TO.N,HALT_n*%
X55880000Y-25400000D03*
%TO.P,U1,19,~{MREQ}*%
%TO.N,MREQ_n*%
X58420000Y-25400000D03*
%TO.P,U1,20,~{IORQ}*%
%TO.N,IORQ_n*%
X60960000Y-25400000D03*
%TO.P,U1,21,~{RD}*%
%TO.N,RD_n*%
X60960000Y-10160000D03*
%TO.P,U1,22,~{WR}*%
%TO.N,WR_n*%
X58420000Y-10160000D03*
%TO.P,U1,23,~{BUSACK}*%
%TO.N,BUSACK_n*%
X55880000Y-10160000D03*
%TO.P,U1,24,~{WAIT}*%
%TO.N,WAIT_n*%
X53340000Y-10160000D03*
%TO.P,U1,25,~{BUSRQ}*%
%TO.N,BUSREQ_n*%
X50800000Y-10160000D03*
%TO.P,U1,26,~{RESET}*%
%TO.N,RESET_n*%
X48260000Y-10160000D03*
%TO.P,U1,27,~{M1}*%
%TO.N,M1_n*%
X45720000Y-10160000D03*
%TO.P,U1,28,~{RFSH}*%
%TO.N,RFSH_n*%
X43180000Y-10160000D03*
%TO.P,U1,29,GND*%
%TO.N,GND*%
X40640000Y-10160000D03*
%TO.P,U1,30,A0*%
%TO.N,A0*%
X38100000Y-10160000D03*
%TO.P,U1,31,A1*%
%TO.N,A1*%
X35560000Y-10160000D03*
%TO.P,U1,32,A2*%
%TO.N,A2*%
X33020000Y-10160000D03*
%TO.P,U1,33,A3*%
%TO.N,A3*%
X30480000Y-10160000D03*
%TO.P,U1,34,A4*%
%TO.N,A4*%
X27940000Y-10160000D03*
%TO.P,U1,35,A5*%
%TO.N,A5*%
X25400000Y-10160000D03*
%TO.P,U1,36,A6*%
%TO.N,A6*%
X22860000Y-10160000D03*
%TO.P,U1,37,A7*%
%TO.N,A7*%
X20320000Y-10160000D03*
%TO.P,U1,38,A8*%
%TO.N,A8*%
X17780000Y-10160000D03*
%TO.P,U1,39,A9*%
%TO.N,A9*%
X15240000Y-10160000D03*
%TO.P,U1,40,A10*%
%TO.N,A10*%
X12700000Y-10160000D03*
%TD*%
D17*
%TO.N,DBG_TRG*%
X53340000Y-46990000D03*
%TO.N,LED_RGB*%
X53340000Y-48260000D03*
%TO.N,RESET_n*%
X53975000Y-64135000D03*
%TO.N,D3*%
X29210000Y-46990000D03*
%TO.N,D4*%
X29210000Y-45720000D03*
%TO.N,D1*%
X48260000Y-40640000D03*
%TO.N,D0*%
X45720000Y-40640000D03*
%TO.N,D7*%
X43180000Y-40640000D03*
%TO.N,D2*%
X40640000Y-40640000D03*
%TO.N,D6*%
X34290000Y-45720000D03*
%TO.N,D5*%
X31750000Y-46990000D03*
%TO.N,A12*%
X10160000Y-31750000D03*
%TO.N,A13*%
X11430000Y-31750000D03*
%TO.N,A14*%
X12700000Y-31750000D03*
%TO.N,A15*%
X12700000Y-33020000D03*
%TD*%
D18*
%TO.N,VCC*%
X38100000Y-32385000D02*
X38100000Y-30560000D01*
X41275000Y-35560000D02*
X38100000Y-32385000D01*
X50800000Y-35560000D02*
X41275000Y-35560000D01*
%TO.N,DBG_TRG*%
X46990000Y-46990000D02*
X53340000Y-46990000D01*
X43180000Y-50800000D02*
X46990000Y-46990000D01*
%TO.N,LED_RGB*%
X48260000Y-48260000D02*
X53340000Y-48260000D01*
X45720000Y-50800000D02*
X48260000Y-48260000D01*
%TO.N,RESET_n*%
X19685000Y-64135000D02*
X17780000Y-66040000D01*
X53975000Y-64135000D02*
X19685000Y-64135000D01*
%TO.N,D5*%
X25400000Y-50800000D02*
X28390000Y-47810000D01*
%TO.N,D3*%
X29210000Y-46990000D02*
X26670000Y-46990000D01*
X26670000Y-46990000D02*
X22860000Y-50800000D01*
%TO.N,D4*%
X29210000Y-45720000D02*
X25400000Y-45720000D01*
X25400000Y-45720000D02*
X20320000Y-50800000D01*
%TO.N,D1*%
X38100000Y-50800000D02*
X48260000Y-40640000D01*
%TO.N,D0*%
X35560000Y-50800000D02*
X45720000Y-40640000D01*
%TO.N,D7*%
X33020000Y-50800000D02*
X43180000Y-40640000D01*
%TO.N,D2*%
X30480000Y-50800000D02*
X40640000Y-40640000D01*
%TO.N,D6*%
X29210000Y-48260000D02*
X27940000Y-49530000D01*
X31750000Y-48260000D02*
X29210000Y-48260000D01*
X34290000Y-45720000D02*
X31750000Y-48260000D01*
X27940000Y-49530000D02*
X27940000Y-50800000D01*
%TO.N,D5*%
X30930000Y-47810000D02*
X31750000Y-46990000D01*
X28390000Y-47810000D02*
X30930000Y-47810000D01*
%TO.N,A15*%
X22860000Y-31750000D02*
X21590000Y-33020000D01*
X22860000Y-27940000D02*
X22860000Y-31750000D01*
X21590000Y-33020000D02*
X12700000Y-33020000D01*
%TO.N,A12*%
X11880000Y-30030000D02*
X10160000Y-31750000D01*
X13150000Y-30030000D02*
X11880000Y-30030000D01*
X15240000Y-27940000D02*
X13150000Y-30030000D01*
%TO.N,A13*%
X12700000Y-30480000D02*
X11430000Y-31750000D01*
X16510000Y-30480000D02*
X12700000Y-30480000D01*
X17780000Y-29210000D02*
X16510000Y-30480000D01*
X17780000Y-27940000D02*
X17780000Y-29210000D01*
%TO.N,A14*%
X19050000Y-31750000D02*
X12700000Y-31750000D01*
X20320000Y-30480000D02*
X19050000Y-31750000D01*
X20320000Y-27940000D02*
X20320000Y-30480000D01*
D19*
%TO.N,CLK_3V*%
X15240000Y-48260000D02*
X17780000Y-50800000D01*
X15240000Y-43180000D02*
X15240000Y-48260000D01*
%TO.N,CLK*%
X33020000Y-35560000D02*
X35560000Y-35560000D01*
X25400000Y-27940000D02*
X33020000Y-35560000D01*
D20*
%TO.N,GND*%
X5080000Y-45584164D02*
X11995836Y-52500000D01*
X63500000Y-53340000D02*
X63500000Y-53975000D01*
X60325000Y-43180000D02*
X55245000Y-43180000D01*
X46760000Y-52300000D02*
X16740000Y-52300000D01*
X39140000Y-6120000D02*
X40640000Y-7620000D01*
X12078679Y-6120000D02*
X39140000Y-6120000D01*
D21*
X40640000Y-10160000D02*
X40640000Y-7620000D01*
D20*
X13540000Y-52500000D02*
X15240000Y-50800000D01*
X63500000Y-46355000D02*
X60325000Y-43180000D01*
X63500000Y-53975000D02*
X63500000Y-46355000D01*
D18*
X29355000Y-42055000D02*
X30480000Y-43180000D01*
D20*
X5080000Y-34060000D02*
X6120000Y-33020000D01*
X48260000Y-50800000D02*
X46760000Y-52300000D01*
X6120000Y-12078679D02*
X12078679Y-6120000D01*
X63500000Y-53975000D02*
X63500000Y-63500000D01*
X50800000Y-53340000D02*
X63500000Y-53340000D01*
X48260000Y-50800000D02*
X50800000Y-53340000D01*
D18*
X25400000Y-43180000D02*
X26525000Y-42055000D01*
D20*
X11995836Y-52500000D02*
X13540000Y-52500000D01*
X16740000Y-52300000D02*
X15240000Y-50800000D01*
X63500000Y-63500000D02*
X60960000Y-66040000D01*
X5080000Y-38100000D02*
X5080000Y-34060000D01*
D18*
X26525000Y-42055000D02*
X29355000Y-42055000D01*
D20*
X5080000Y-38100000D02*
X5080000Y-45584164D01*
X6120000Y-33020000D02*
X6120000Y-12078679D01*
X30480000Y-43180000D02*
X38100000Y-35560000D01*
D19*
%TO.N,CLK*%
X25400000Y-27940000D02*
X25400000Y-25400000D01*
%TO.N,Net-(R1-Pad1)*%
X24110000Y-44430000D02*
X34310000Y-44430000D01*
X22860000Y-43180000D02*
X24110000Y-44430000D01*
X34310000Y-44430000D02*
X35560000Y-43180000D01*
D21*
%TO.N,VCC*%
X7920000Y-26180000D02*
X7920000Y-33020000D01*
D18*
X21735000Y-34435000D02*
X22860000Y-35560000D01*
D21*
X10700000Y-23400000D02*
X7920000Y-26180000D01*
X38100000Y-25400000D02*
X38100000Y-24268630D01*
X7920000Y-37800000D02*
X7920000Y-33020000D01*
X10460000Y-35560000D02*
X12700000Y-35560000D01*
D18*
X15240000Y-35560000D02*
X17780000Y-35560000D01*
D21*
X7920000Y-33020000D02*
X10460000Y-35560000D01*
D18*
X23985000Y-34435000D02*
X26815000Y-34435000D01*
D21*
X12700000Y-35560000D02*
X10160000Y-35560000D01*
X37231370Y-23400000D02*
X10700000Y-23400000D01*
D18*
X17780000Y-35560000D02*
X18905000Y-34435000D01*
D21*
X10160000Y-35560000D02*
X7620000Y-38100000D01*
X38100000Y-30560000D02*
X38100000Y-25400000D01*
X7620000Y-38100000D02*
X7920000Y-37800000D01*
D18*
X22860000Y-35560000D02*
X23985000Y-34435000D01*
D21*
X12700000Y-35560000D02*
X15240000Y-35560000D01*
D18*
X18905000Y-34435000D02*
X21735000Y-34435000D01*
D21*
X38100000Y-24268630D02*
X37231370Y-23400000D01*
D18*
X26815000Y-34435000D02*
X27940000Y-35560000D01*
D21*
%TO.N,5V_USB*%
X7620000Y-45720000D02*
X7620000Y-40640000D01*
X12700000Y-50800000D02*
X7620000Y-45720000D01*
D19*
%TO.N,Net-(U2-Pad2)*%
X17780000Y-43180000D02*
X20320000Y-43180000D01*
%TD*%
%TA.AperFunction,Conductor*%
%TO.N,GND*%
G36*
X57960507Y-42970156D02*
G01*
X57920000Y-43108111D01*
X57920000Y-43251889D01*
X57960507Y-43389844D01*
X57986314Y-43430000D01*
X56313686Y-43430000D01*
X56339493Y-43389844D01*
X56380000Y-43251889D01*
X56380000Y-43108111D01*
X56339493Y-42970156D01*
X56313686Y-42930000D01*
X57986314Y-42930000D01*
X57960507Y-42970156D01*
G37*
%TD.AperFunction*%
%TA.AperFunction,Conductor*%
G36*
X40401955Y-7947641D02*
G01*
X40514852Y-8005165D01*
X40608519Y-8020000D01*
X40671481Y-8020000D01*
X40765148Y-8005165D01*
X40878045Y-7947641D01*
X40890000Y-7935686D01*
X40890000Y-9844313D01*
X40878045Y-9832359D01*
X40765148Y-9774835D01*
X40671481Y-9760000D01*
X40608519Y-9760000D01*
X40514852Y-9774835D01*
X40401955Y-9832359D01*
X40390000Y-9844314D01*
X40390000Y-7935685D01*
X40401955Y-7947641D01*
G37*
%TD.AperFunction*%
%TA.AperFunction,Conductor*%
G36*
X39438139Y-8162758D02*
G01*
X39482657Y-8214133D01*
X39509866Y-8272482D01*
X39640341Y-8458819D01*
X39801180Y-8619658D01*
X39987520Y-8750135D01*
X40046455Y-8777617D01*
X40098895Y-8823789D01*
X40118047Y-8890982D01*
X40097832Y-8957863D01*
X40046458Y-9002380D01*
X39987520Y-9029864D01*
X39801180Y-9160341D01*
X39640341Y-9321180D01*
X39509863Y-9507522D01*
X39482656Y-9565866D01*
X39436483Y-9618305D01*
X39369290Y-9637456D01*
X39302409Y-9617239D01*
X39257893Y-9565865D01*
X39257618Y-9565276D01*
X39230568Y-9507266D01*
X39100271Y-9321180D01*
X39100046Y-9320859D01*
X38939140Y-9159953D01*
X38752736Y-9029433D01*
X38694723Y-9002381D01*
X38642284Y-8956208D01*
X38623133Y-8889014D01*
X38643349Y-8822133D01*
X38694721Y-8777619D01*
X38752734Y-8750568D01*
X38939139Y-8620047D01*
X39100047Y-8459139D01*
X39230568Y-8272734D01*
X39257893Y-8214134D01*
X39304065Y-8161695D01*
X39371258Y-8142543D01*
X39438139Y-8162758D01*
G37*
%TD.AperFunction*%
%TA.AperFunction,Conductor*%
G36*
X41977589Y-8162758D02*
G01*
X42022105Y-8214132D01*
X42049432Y-8272733D01*
X42049433Y-8272736D01*
X42179953Y-8459140D01*
X42340859Y-8620046D01*
X42527263Y-8750566D01*
X42527266Y-8750568D01*
X42585275Y-8777618D01*
X42637714Y-8823791D01*
X42656865Y-8890985D01*
X42636649Y-8957866D01*
X42585275Y-9002382D01*
X42527263Y-9029433D01*
X42340859Y-9159953D01*
X42179953Y-9320859D01*
X42049430Y-9507267D01*
X42022105Y-9565866D01*
X41975932Y-9618305D01*
X41908739Y-9637456D01*
X41841858Y-9617239D01*
X41797342Y-9565865D01*
X41770134Y-9507519D01*
X41639658Y-9321180D01*
X41478819Y-9160341D01*
X41292479Y-9029864D01*
X41233543Y-9002382D01*
X41181103Y-8956210D01*
X41161951Y-8889017D01*
X41182166Y-8822136D01*
X41233543Y-8777618D01*
X41292479Y-8750135D01*
X41478819Y-8619658D01*
X41639658Y-8458819D01*
X41770135Y-8272479D01*
X41797342Y-8214135D01*
X41843514Y-8161695D01*
X41910707Y-8142543D01*
X41977589Y-8162758D01*
G37*
%TD.AperFunction*%
%TA.AperFunction,Conductor*%
G36*
X64713039Y-1289685D02*
G01*
X64758794Y-1342489D01*
X64770000Y-1394000D01*
X64769999Y-6349999D01*
X64770000Y-6350000D01*
X67310000Y-8890000D01*
X72266000Y-8890000D01*
X72333039Y-8909685D01*
X72378794Y-8962489D01*
X72390000Y-9014000D01*
X72390000Y-64646000D01*
X72370315Y-64713039D01*
X72317511Y-64758794D01*
X72266000Y-64770000D01*
X67309999Y-64770000D01*
X64769999Y-67310000D01*
X64770000Y-72266000D01*
X64750315Y-72333039D01*
X64697511Y-72378794D01*
X64646000Y-72390000D01*
X9014000Y-72390000D01*
X8946961Y-72370315D01*
X8901206Y-72317511D01*
X8890000Y-72266000D01*
X8890000Y-67310000D01*
X8464578Y-66884578D01*
X11399500Y-66884578D01*
X11399501Y-66887872D01*
X11399853Y-66891152D01*
X11399854Y-66891159D01*
X11405909Y-66947483D01*
X11456204Y-67082331D01*
X11542454Y-67197546D01*
X11657669Y-67283796D01*
X11792517Y-67334091D01*
X11852127Y-67340500D01*
X13547872Y-67340499D01*
X13607483Y-67334091D01*
X13742331Y-67283796D01*
X13857546Y-67197546D01*
X13943796Y-67082331D01*
X13994091Y-66947483D01*
X13997862Y-66912404D01*
X14024598Y-66847856D01*
X14081989Y-66808006D01*
X14151814Y-66805511D01*
X14211904Y-66841162D01*
X14222726Y-66854537D01*
X14239953Y-66879140D01*
X14400859Y-67040046D01*
X14587264Y-67170567D01*
X14587265Y-67170567D01*
X14587266Y-67170568D01*
X14793504Y-67266739D01*
X15013308Y-67325635D01*
X15240000Y-67345468D01*
X15466692Y-67325635D01*
X15686496Y-67266739D01*
X15892734Y-67170568D01*
X16079139Y-67040047D01*
X16240047Y-66879139D01*
X16370568Y-66692734D01*
X16397618Y-66634724D01*
X16443790Y-66582285D01*
X16510983Y-66563133D01*
X16577865Y-66583348D01*
X16622382Y-66634725D01*
X16649431Y-66692733D01*
X16779953Y-66879140D01*
X16940859Y-67040046D01*
X17127264Y-67170567D01*
X17127265Y-67170567D01*
X17127266Y-67170568D01*
X17333504Y-67266739D01*
X17553308Y-67325635D01*
X17780000Y-67345468D01*
X18006692Y-67325635D01*
X18226496Y-67266739D01*
X18432734Y-67170568D01*
X18619139Y-67040047D01*
X18780047Y-66879139D01*
X18910568Y-66692734D01*
X18937619Y-66634721D01*
X18983788Y-66582286D01*
X19050981Y-66563133D01*
X19117862Y-66583348D01*
X19162380Y-66634722D01*
X19189432Y-66692733D01*
X19189433Y-66692736D01*
X19319953Y-66879140D01*
X19480859Y-67040046D01*
X19667264Y-67170567D01*
X19667265Y-67170567D01*
X19667266Y-67170568D01*
X19873504Y-67266739D01*
X20093308Y-67325635D01*
X20320000Y-67345468D01*
X20546692Y-67325635D01*
X20766496Y-67266739D01*
X20972734Y-67170568D01*
X21159139Y-67040047D01*
X21320047Y-66879139D01*
X21450568Y-66692734D01*
X21477618Y-66634724D01*
X21523790Y-66582285D01*
X21590983Y-66563133D01*
X21657865Y-66583348D01*
X21702382Y-66634725D01*
X21729431Y-66692733D01*
X21859953Y-66879140D01*
X22020859Y-67040046D01*
X22207264Y-67170567D01*
X22207265Y-67170567D01*
X22207266Y-67170568D01*
X22413504Y-67266739D01*
X22633308Y-67325635D01*
X22784436Y-67338856D01*
X22859999Y-67345468D01*
X22859999Y-67345467D01*
X22860000Y-67345468D01*
X23086692Y-67325635D01*
X23306496Y-67266739D01*
X23512734Y-67170568D01*
X23699139Y-67040047D01*
X23860047Y-66879139D01*
X23990568Y-66692734D01*
X24017618Y-66634724D01*
X24063790Y-66582285D01*
X24130983Y-66563133D01*
X24197865Y-66583348D01*
X24242382Y-66634725D01*
X24269431Y-66692733D01*
X24399953Y-66879140D01*
X24560859Y-67040046D01*
X24747264Y-67170567D01*
X24747265Y-67170567D01*
X24747266Y-67170568D01*
X24953504Y-67266739D01*
X25173308Y-67325635D01*
X25400000Y-67345468D01*
X25626692Y-67325635D01*
X25846496Y-67266739D01*
X26052734Y-67170568D01*
X26239139Y-67040047D01*
X26400047Y-66879139D01*
X26530568Y-66692734D01*
X26557618Y-66634724D01*
X26603790Y-66582285D01*
X26670983Y-66563133D01*
X26737865Y-66583348D01*
X26782382Y-66634725D01*
X26809431Y-66692733D01*
X26939953Y-66879140D01*
X27100859Y-67040046D01*
X27287264Y-67170567D01*
X27287265Y-67170567D01*
X27287266Y-67170568D01*
X27493504Y-67266739D01*
X27713308Y-67325635D01*
X27940000Y-67345468D01*
X28166692Y-67325635D01*
X28386496Y-67266739D01*
X28592734Y-67170568D01*
X28779139Y-67040047D01*
X28940047Y-66879139D01*
X29070568Y-66692734D01*
X29097618Y-66634724D01*
X29143790Y-66582285D01*
X29210983Y-66563133D01*
X29277865Y-66583348D01*
X29322382Y-66634725D01*
X29349431Y-66692733D01*
X29479953Y-66879140D01*
X29640859Y-67040046D01*
X29827264Y-67170567D01*
X29827265Y-67170567D01*
X29827266Y-67170568D01*
X30033504Y-67266739D01*
X30253308Y-67325635D01*
X30480000Y-67345468D01*
X30706692Y-67325635D01*
X30926496Y-67266739D01*
X31132734Y-67170568D01*
X31319139Y-67040047D01*
X31480047Y-66879139D01*
X31610568Y-66692734D01*
X31637619Y-66634721D01*
X31683788Y-66582286D01*
X31750981Y-66563133D01*
X31817862Y-66583348D01*
X31862380Y-66634722D01*
X31889432Y-66692733D01*
X31889433Y-66692736D01*
X32019953Y-66879140D01*
X32180859Y-67040046D01*
X32367264Y-67170567D01*
X32367265Y-67170567D01*
X32367266Y-67170568D01*
X32573504Y-67266739D01*
X32793308Y-67325635D01*
X32944436Y-67338856D01*
X33019999Y-67345468D01*
X33019999Y-67345467D01*
X33020000Y-67345468D01*
X33246692Y-67325635D01*
X33466496Y-67266739D01*
X33672734Y-67170568D01*
X33859139Y-67040047D01*
X34020047Y-66879139D01*
X34150568Y-66692734D01*
X34177618Y-66634724D01*
X34223790Y-66582285D01*
X34290983Y-66563133D01*
X34357865Y-66583348D01*
X34402382Y-66634725D01*
X34429431Y-66692733D01*
X34559953Y-66879140D01*
X34720859Y-67040046D01*
X34907264Y-67170567D01*
X34907265Y-67170567D01*
X34907266Y-67170568D01*
X35113504Y-67266739D01*
X35333308Y-67325635D01*
X35560000Y-67345468D01*
X35786692Y-67325635D01*
X36006496Y-67266739D01*
X36212734Y-67170568D01*
X36399139Y-67040047D01*
X36560047Y-66879139D01*
X36690568Y-66692734D01*
X36717618Y-66634724D01*
X36763790Y-66582285D01*
X36830983Y-66563133D01*
X36897865Y-66583348D01*
X36942382Y-66634725D01*
X36969431Y-66692733D01*
X37099953Y-66879140D01*
X37260859Y-67040046D01*
X37447264Y-67170567D01*
X37447265Y-67170567D01*
X37447266Y-67170568D01*
X37653504Y-67266739D01*
X37873308Y-67325635D01*
X38100000Y-67345468D01*
X38326692Y-67325635D01*
X38546496Y-67266739D01*
X38752734Y-67170568D01*
X38939139Y-67040047D01*
X39100047Y-66879139D01*
X39230568Y-66692734D01*
X39257618Y-66634724D01*
X39303790Y-66582285D01*
X39370983Y-66563133D01*
X39437865Y-66583348D01*
X39482382Y-66634725D01*
X39509431Y-66692733D01*
X39639953Y-66879140D01*
X39800859Y-67040046D01*
X39987264Y-67170567D01*
X39987265Y-67170567D01*
X39987266Y-67170568D01*
X40193504Y-67266739D01*
X40413308Y-67325635D01*
X40640000Y-67345468D01*
X40866692Y-67325635D01*
X41086496Y-67266739D01*
X41292734Y-67170568D01*
X41479139Y-67040047D01*
X41640047Y-66879139D01*
X41770568Y-66692734D01*
X41797618Y-66634724D01*
X41843790Y-66582285D01*
X41910983Y-66563133D01*
X41977865Y-66583348D01*
X42022382Y-66634725D01*
X42049431Y-66692733D01*
X42179953Y-66879140D01*
X42340859Y-67040046D01*
X42527264Y-67170567D01*
X42527265Y-67170567D01*
X42527266Y-67170568D01*
X42733504Y-67266739D01*
X42953308Y-67325635D01*
X43104436Y-67338856D01*
X43179999Y-67345468D01*
X43179999Y-67345467D01*
X43180000Y-67345468D01*
X43406692Y-67325635D01*
X43626496Y-67266739D01*
X43832734Y-67170568D01*
X44019139Y-67040047D01*
X44180047Y-66879139D01*
X44310568Y-66692734D01*
X44337618Y-66634724D01*
X44383790Y-66582285D01*
X44450983Y-66563133D01*
X44517865Y-66583348D01*
X44562382Y-66634725D01*
X44589431Y-66692733D01*
X44719953Y-66879140D01*
X44880859Y-67040046D01*
X45067264Y-67170567D01*
X45067265Y-67170567D01*
X45067266Y-67170568D01*
X45273504Y-67266739D01*
X45493308Y-67325635D01*
X45720000Y-67345468D01*
X45946692Y-67325635D01*
X46166496Y-67266739D01*
X46372734Y-67170568D01*
X46559139Y-67040047D01*
X46720047Y-66879139D01*
X46850568Y-66692734D01*
X46877618Y-66634724D01*
X46923790Y-66582285D01*
X46990983Y-66563133D01*
X47057865Y-66583348D01*
X47102382Y-66634725D01*
X47129431Y-66692733D01*
X47259953Y-66879140D01*
X47420859Y-67040046D01*
X47607264Y-67170567D01*
X47607265Y-67170567D01*
X47607266Y-67170568D01*
X47813504Y-67266739D01*
X48033308Y-67325635D01*
X48260000Y-67345468D01*
X48486692Y-67325635D01*
X48706496Y-67266739D01*
X48912734Y-67170568D01*
X49099139Y-67040047D01*
X49260047Y-66879139D01*
X49390568Y-66692734D01*
X49417618Y-66634724D01*
X49463790Y-66582285D01*
X49530983Y-66563133D01*
X49597865Y-66583348D01*
X49642382Y-66634725D01*
X49669431Y-66692733D01*
X49799953Y-66879140D01*
X49960859Y-67040046D01*
X50147264Y-67170567D01*
X50147265Y-67170567D01*
X50147266Y-67170568D01*
X50353504Y-67266739D01*
X50573308Y-67325635D01*
X50800000Y-67345468D01*
X51026692Y-67325635D01*
X51246496Y-67266739D01*
X51452734Y-67170568D01*
X51639139Y-67040047D01*
X51800047Y-66879139D01*
X51930568Y-66692734D01*
X51957618Y-66634724D01*
X52003790Y-66582285D01*
X52070983Y-66563133D01*
X52137865Y-66583348D01*
X52182382Y-66634725D01*
X52209431Y-66692733D01*
X52339953Y-66879140D01*
X52500859Y-67040046D01*
X52687264Y-67170567D01*
X52687265Y-67170567D01*
X52687266Y-67170568D01*
X52893504Y-67266739D01*
X53113308Y-67325635D01*
X53264436Y-67338856D01*
X53339999Y-67345468D01*
X53339999Y-67345467D01*
X53340000Y-67345468D01*
X53566692Y-67325635D01*
X53786496Y-67266739D01*
X53992734Y-67170568D01*
X54179139Y-67040047D01*
X54340047Y-66879139D01*
X54470568Y-66692734D01*
X54497618Y-66634724D01*
X54543790Y-66582285D01*
X54610983Y-66563133D01*
X54677865Y-66583348D01*
X54722382Y-66634725D01*
X54749431Y-66692733D01*
X54879953Y-66879140D01*
X55040859Y-67040046D01*
X55227264Y-67170567D01*
X55227265Y-67170567D01*
X55227266Y-67170568D01*
X55433504Y-67266739D01*
X55653308Y-67325635D01*
X55880000Y-67345468D01*
X56106692Y-67325635D01*
X56326496Y-67266739D01*
X56532734Y-67170568D01*
X56719139Y-67040047D01*
X56880047Y-66879139D01*
X57010568Y-66692734D01*
X57037618Y-66634724D01*
X57083790Y-66582285D01*
X57150983Y-66563133D01*
X57217865Y-66583348D01*
X57262382Y-66634725D01*
X57289431Y-66692733D01*
X57419953Y-66879140D01*
X57580859Y-67040046D01*
X57767264Y-67170567D01*
X57767265Y-67170567D01*
X57767266Y-67170568D01*
X57973504Y-67266739D01*
X58193308Y-67325635D01*
X58420000Y-67345468D01*
X58646692Y-67325635D01*
X58866496Y-67266739D01*
X59072734Y-67170568D01*
X59259139Y-67040047D01*
X59420047Y-66879139D01*
X59550568Y-66692734D01*
X59577893Y-66634134D01*
X59624065Y-66581695D01*
X59691258Y-66562543D01*
X59758139Y-66582758D01*
X59802657Y-66634133D01*
X59829866Y-66692482D01*
X59960341Y-66878819D01*
X60121180Y-67039658D01*
X60307519Y-67170134D01*
X60513673Y-67266266D01*
X60709998Y-67318871D01*
X60709999Y-67318871D01*
X60709999Y-66355685D01*
X60721955Y-66367641D01*
X60834852Y-66425165D01*
X60928519Y-66440000D01*
X60991481Y-66440000D01*
X61085148Y-66425165D01*
X61198045Y-66367641D01*
X61210000Y-66355685D01*
X61210000Y-67318871D01*
X61406326Y-67266266D01*
X61612480Y-67170134D01*
X61798819Y-67039658D01*
X61959658Y-66878819D01*
X62090134Y-66692480D01*
X62186266Y-66486326D01*
X62238872Y-66290000D01*
X61275686Y-66290000D01*
X61287641Y-66278045D01*
X61345165Y-66165148D01*
X61364986Y-66040000D01*
X61345165Y-65914852D01*
X61287641Y-65801955D01*
X61275686Y-65790000D01*
X62238872Y-65790000D01*
X62238871Y-65789999D01*
X62186266Y-65593673D01*
X62090134Y-65387519D01*
X61959658Y-65201180D01*
X61798819Y-65040341D01*
X61612480Y-64909865D01*
X61406326Y-64813733D01*
X61210000Y-64761126D01*
X61209999Y-65724314D01*
X61198045Y-65712359D01*
X61085148Y-65654835D01*
X60991481Y-65640000D01*
X60928519Y-65640000D01*
X60834852Y-65654835D01*
X60721955Y-65712359D01*
X60709999Y-65724314D01*
X60709999Y-64761127D01*
X60513673Y-64813733D01*
X60307519Y-64909865D01*
X60121180Y-65040341D01*
X59960341Y-65201180D01*
X59829863Y-65387522D01*
X59802656Y-65445866D01*
X59756483Y-65498305D01*
X59689290Y-65517456D01*
X59622409Y-65497239D01*
X59577893Y-65445865D01*
X59577618Y-65445276D01*
X59550568Y-65387266D01*
X59472856Y-65276280D01*
X59420046Y-65200859D01*
X59259140Y-65039953D01*
X59072735Y-64909432D01*
X58866497Y-64813261D01*
X58646689Y-64754364D01*
X58420000Y-64734531D01*
X58193310Y-64754364D01*
X57973502Y-64813261D01*
X57767264Y-64909432D01*
X57580859Y-65039953D01*
X57419953Y-65200859D01*
X57289433Y-65387263D01*
X57262382Y-65445275D01*
X57216209Y-65497714D01*
X57149015Y-65516865D01*
X57082134Y-65496649D01*
X57037618Y-65445275D01*
X57010687Y-65387522D01*
X57010568Y-65387266D01*
X57010566Y-65387263D01*
X56880046Y-65200859D01*
X56719140Y-65039953D01*
X56532735Y-64909432D01*
X56326497Y-64813261D01*
X56106689Y-64754364D01*
X55880000Y-64734531D01*
X55653310Y-64754364D01*
X55433502Y-64813261D01*
X55227264Y-64909432D01*
X55040859Y-65039953D01*
X54879953Y-65200859D01*
X54749433Y-65387263D01*
X54722382Y-65445275D01*
X54676209Y-65497714D01*
X54609015Y-65516865D01*
X54542134Y-65496649D01*
X54497618Y-65445275D01*
X54470687Y-65387522D01*
X54470568Y-65387266D01*
X54470566Y-65387263D01*
X54340046Y-65200859D01*
X54299713Y-65160526D01*
X54266228Y-65099203D01*
X54271212Y-65029511D01*
X54313084Y-64973578D01*
X54336956Y-64959566D01*
X54427730Y-64919151D01*
X54427730Y-64919150D01*
X54427732Y-64919150D01*
X54580870Y-64807889D01*
X54612573Y-64772680D01*
X54707533Y-64667216D01*
X54802179Y-64503284D01*
X54860674Y-64323256D01*
X54880460Y-64135000D01*
X54860674Y-63946744D01*
X54802179Y-63766716D01*
X54802179Y-63766715D01*
X54707533Y-63602783D01*
X54580870Y-63462110D01*
X54427730Y-63350848D01*
X54254802Y-63273855D01*
X54069648Y-63234500D01*
X54069646Y-63234500D01*
X53880354Y-63234500D01*
X53880352Y-63234500D01*
X53695197Y-63273855D01*
X53522272Y-63350847D01*
X53420175Y-63425024D01*
X53369129Y-63462112D01*
X53363401Y-63468472D01*
X53303916Y-63505121D01*
X53271253Y-63509500D01*
X19767744Y-63509500D01*
X19747237Y-63507235D01*
X19677127Y-63509439D01*
X19673232Y-63509500D01*
X19645650Y-63509500D01*
X19641805Y-63509985D01*
X19641780Y-63509987D01*
X19641653Y-63510004D01*
X19630033Y-63510918D01*
X19586369Y-63512290D01*
X19567129Y-63517880D01*
X19548081Y-63521825D01*
X19528209Y-63524335D01*
X19487599Y-63540413D01*
X19476554Y-63544194D01*
X19434610Y-63556381D01*
X19417365Y-63566579D01*
X19399904Y-63575133D01*
X19381267Y-63582512D01*
X19345931Y-63608185D01*
X19336174Y-63614595D01*
X19298580Y-63636829D01*
X19284413Y-63650996D01*
X19269624Y-63663626D01*
X19253413Y-63675404D01*
X19225572Y-63709058D01*
X19217711Y-63717697D01*
X18194821Y-64740586D01*
X18133498Y-64774071D01*
X18075047Y-64772680D01*
X18006690Y-64754364D01*
X17779999Y-64734531D01*
X17553310Y-64754364D01*
X17333502Y-64813261D01*
X17127264Y-64909432D01*
X16940859Y-65039953D01*
X16779953Y-65200859D01*
X16649431Y-65387266D01*
X16622380Y-65445276D01*
X16576207Y-65497714D01*
X16509013Y-65516865D01*
X16442132Y-65496648D01*
X16397617Y-65445273D01*
X16370568Y-65387266D01*
X16240046Y-65200859D01*
X16079140Y-65039953D01*
X15892735Y-64909432D01*
X15686497Y-64813261D01*
X15466689Y-64754364D01*
X15240000Y-64734531D01*
X15013310Y-64754364D01*
X14793502Y-64813261D01*
X14587264Y-64909432D01*
X14400859Y-65039953D01*
X14239951Y-65200861D01*
X14222725Y-65225463D01*
X14168148Y-65269088D01*
X14098649Y-65276280D01*
X14036295Y-65244757D01*
X14000882Y-65184527D01*
X13997861Y-65167592D01*
X13994091Y-65132517D01*
X13943796Y-64997669D01*
X13857546Y-64882454D01*
X13742331Y-64796204D01*
X13607483Y-64745909D01*
X13547873Y-64739500D01*
X13544550Y-64739500D01*
X11855439Y-64739500D01*
X11855420Y-64739500D01*
X11852128Y-64739501D01*
X11848848Y-64739853D01*
X11848840Y-64739854D01*
X11792515Y-64745909D01*
X11657669Y-64796204D01*
X11542454Y-64882454D01*
X11456204Y-64997668D01*
X11405909Y-65132516D01*
X11402898Y-65160526D01*
X11399500Y-65192127D01*
X11399500Y-65195448D01*
X11399500Y-65195449D01*
X11399500Y-66884560D01*
X11399500Y-66884578D01*
X8464578Y-66884578D01*
X6350000Y-64770000D01*
X1394000Y-64770000D01*
X1326961Y-64750315D01*
X1281206Y-64697511D01*
X1270000Y-64646000D01*
X1270000Y-38994518D01*
X3730000Y-38994518D01*
X3730354Y-39001132D01*
X3736400Y-39057371D01*
X3786647Y-39192089D01*
X3872811Y-39307188D01*
X3987910Y-39393352D01*
X4122628Y-39443599D01*
X4178867Y-39449645D01*
X4185482Y-39450000D01*
X4830000Y-39450000D01*
X4830000Y-38535501D01*
X4937685Y-38584680D01*
X5044237Y-38600000D01*
X5115763Y-38600000D01*
X5222315Y-38584680D01*
X5330000Y-38535501D01*
X5330000Y-39450000D01*
X5974518Y-39450000D01*
X5981132Y-39449645D01*
X6037371Y-39443599D01*
X6172089Y-39393352D01*
X6275270Y-39316110D01*
X6340734Y-39291692D01*
X6409008Y-39306543D01*
X6423890Y-39316107D01*
X6527669Y-39393796D01*
X6527670Y-39393796D01*
X6536219Y-39400196D01*
X6578090Y-39456130D01*
X6583074Y-39525822D01*
X6553138Y-39583445D01*
X6461938Y-39682516D01*
X6431837Y-39715214D01*
X6295825Y-39923395D01*
X6195938Y-40151117D01*
X6134892Y-40392177D01*
X6134891Y-40392179D01*
X6134892Y-40392179D01*
X6119500Y-40577933D01*
X6119500Y-40580502D01*
X6119500Y-40580503D01*
X6119500Y-45619135D01*
X6118548Y-45634473D01*
X6115642Y-45657781D01*
X6119393Y-45748473D01*
X6119499Y-45753592D01*
X6119499Y-45779512D01*
X6119499Y-45779534D01*
X6119500Y-45782067D01*
X6119709Y-45784593D01*
X6119710Y-45784610D01*
X6121851Y-45810448D01*
X6122168Y-45815559D01*
X6125919Y-45906237D01*
X6126343Y-45908257D01*
X6130738Y-45929220D01*
X6132952Y-45944421D01*
X6134891Y-45967819D01*
X6157171Y-46055803D01*
X6158325Y-46060793D01*
X6176950Y-46149614D01*
X6185484Y-46171485D01*
X6190171Y-46186114D01*
X6195936Y-46208880D01*
X6232393Y-46291993D01*
X6234354Y-46296728D01*
X6267344Y-46381275D01*
X6279364Y-46401448D01*
X6286395Y-46415107D01*
X6295824Y-46436603D01*
X6296720Y-46437974D01*
X6345481Y-46512609D01*
X6348153Y-46516890D01*
X6394634Y-46594894D01*
X6409808Y-46612811D01*
X6418991Y-46625125D01*
X6431837Y-46644788D01*
X6493293Y-46711546D01*
X6496687Y-46715388D01*
X6515098Y-46737126D01*
X6516911Y-46738939D01*
X6535227Y-46757255D01*
X6538776Y-46760953D01*
X6600258Y-46827740D01*
X6618787Y-46842162D01*
X6630307Y-46852335D01*
X11682874Y-51904902D01*
X11825106Y-52025366D01*
X12038727Y-52152656D01*
X12270386Y-52243049D01*
X12513763Y-52294081D01*
X12743935Y-52303600D01*
X12762219Y-52304357D01*
X12762219Y-52304356D01*
X12762221Y-52304357D01*
X13008981Y-52273599D01*
X13247313Y-52202644D01*
X13470716Y-52093429D01*
X13673096Y-51948932D01*
X13848932Y-51773096D01*
X13992108Y-51572565D01*
X14047083Y-51529444D01*
X14116644Y-51522889D01*
X14178707Y-51554983D01*
X14194599Y-51573495D01*
X14240337Y-51638815D01*
X14401180Y-51799658D01*
X14587519Y-51930134D01*
X14793673Y-52026266D01*
X14989999Y-52078871D01*
X14990000Y-52078871D01*
X14990000Y-51115686D01*
X15001955Y-51127641D01*
X15114852Y-51185165D01*
X15208519Y-51200000D01*
X15271481Y-51200000D01*
X15365148Y-51185165D01*
X15478045Y-51127641D01*
X15490000Y-51115686D01*
X15490000Y-52078871D01*
X15686326Y-52026266D01*
X15892480Y-51930134D01*
X16078819Y-51799658D01*
X16239658Y-51638819D01*
X16370135Y-51452479D01*
X16397342Y-51394135D01*
X16443514Y-51341695D01*
X16510707Y-51322543D01*
X16577589Y-51342758D01*
X16622105Y-51394132D01*
X16649432Y-51452733D01*
X16649433Y-51452736D01*
X16779953Y-51639140D01*
X16940859Y-51800046D01*
X17127264Y-51930567D01*
X17127265Y-51930567D01*
X17127266Y-51930568D01*
X17333504Y-52026739D01*
X17553308Y-52085635D01*
X17780000Y-52105468D01*
X18006692Y-52085635D01*
X18226496Y-52026739D01*
X18432734Y-51930568D01*
X18619139Y-51800047D01*
X18780047Y-51639139D01*
X18910568Y-51452734D01*
X18937619Y-51394721D01*
X18983788Y-51342286D01*
X19050981Y-51323133D01*
X19117862Y-51343348D01*
X19162380Y-51394722D01*
X19189432Y-51452733D01*
X19189433Y-51452736D01*
X19319953Y-51639140D01*
X19480859Y-51800046D01*
X19667264Y-51930567D01*
X19667265Y-51930567D01*
X19667266Y-51930568D01*
X19873504Y-52026739D01*
X20093308Y-52085635D01*
X20320000Y-52105468D01*
X20546692Y-52085635D01*
X20766496Y-52026739D01*
X20972734Y-51930568D01*
X21159139Y-51800047D01*
X21320047Y-51639139D01*
X21450568Y-51452734D01*
X21477618Y-51394724D01*
X21523790Y-51342285D01*
X21590983Y-51323133D01*
X21657865Y-51343348D01*
X21702382Y-51394725D01*
X21729431Y-51452733D01*
X21859953Y-51639140D01*
X22020859Y-51800046D01*
X22207264Y-51930567D01*
X22207265Y-51930567D01*
X22207266Y-51930568D01*
X22413504Y-52026739D01*
X22633308Y-52085635D01*
X22784435Y-52098856D01*
X22859999Y-52105468D01*
X22859999Y-52105467D01*
X22860000Y-52105468D01*
X23086692Y-52085635D01*
X23306496Y-52026739D01*
X23512734Y-51930568D01*
X23699139Y-51800047D01*
X23860047Y-51639139D01*
X23990568Y-51452734D01*
X24017618Y-51394724D01*
X24063790Y-51342285D01*
X24130983Y-51323133D01*
X24197865Y-51343348D01*
X24242382Y-51394725D01*
X24269431Y-51452733D01*
X24399953Y-51639140D01*
X24560859Y-51800046D01*
X24747264Y-51930567D01*
X24747265Y-51930567D01*
X24747266Y-51930568D01*
X24953504Y-52026739D01*
X25173308Y-52085635D01*
X25400000Y-52105468D01*
X25626692Y-52085635D01*
X25846496Y-52026739D01*
X26052734Y-51930568D01*
X26239139Y-51800047D01*
X26400047Y-51639139D01*
X26530568Y-51452734D01*
X26557618Y-51394724D01*
X26603790Y-51342285D01*
X26670983Y-51323133D01*
X26737865Y-51343348D01*
X26782382Y-51394725D01*
X26809431Y-51452733D01*
X26939953Y-51639140D01*
X27100859Y-51800046D01*
X27287264Y-51930567D01*
X27287265Y-51930567D01*
X27287266Y-51930568D01*
X27493504Y-52026739D01*
X27713308Y-52085635D01*
X27940000Y-52105468D01*
X28166692Y-52085635D01*
X28386496Y-52026739D01*
X28592734Y-51930568D01*
X28779139Y-51800047D01*
X28940047Y-51639139D01*
X29070568Y-51452734D01*
X29097618Y-51394724D01*
X29143790Y-51342285D01*
X29210983Y-51323133D01*
X29277865Y-51343348D01*
X29322382Y-51394725D01*
X29349431Y-51452733D01*
X29479953Y-51639140D01*
X29640859Y-51800046D01*
X29827264Y-51930567D01*
X29827265Y-51930567D01*
X29827266Y-51930568D01*
X30033504Y-52026739D01*
X30253308Y-52085635D01*
X30480000Y-52105468D01*
X30706692Y-52085635D01*
X30926496Y-52026739D01*
X31132734Y-51930568D01*
X31319139Y-51800047D01*
X31480047Y-51639139D01*
X31610568Y-51452734D01*
X31637619Y-51394721D01*
X31683788Y-51342286D01*
X31750981Y-51323133D01*
X31817862Y-51343348D01*
X31862380Y-51394722D01*
X31889432Y-51452733D01*
X31889433Y-51452736D01*
X32019953Y-51639140D01*
X32180859Y-51800046D01*
X32367264Y-51930567D01*
X32367265Y-51930567D01*
X32367266Y-51930568D01*
X32573504Y-52026739D01*
X32793308Y-52085635D01*
X32944435Y-52098856D01*
X33019999Y-52105468D01*
X33019999Y-52105467D01*
X33020000Y-52105468D01*
X33246692Y-52085635D01*
X33466496Y-52026739D01*
X33672734Y-51930568D01*
X33859139Y-51800047D01*
X34020047Y-51639139D01*
X34150568Y-51452734D01*
X34177618Y-51394724D01*
X34223790Y-51342285D01*
X34290983Y-51323133D01*
X34357865Y-51343348D01*
X34402382Y-51394725D01*
X34429431Y-51452733D01*
X34559953Y-51639140D01*
X34720859Y-51800046D01*
X34907264Y-51930567D01*
X34907265Y-51930567D01*
X34907266Y-51930568D01*
X35113504Y-52026739D01*
X35333308Y-52085635D01*
X35560000Y-52105468D01*
X35786692Y-52085635D01*
X36006496Y-52026739D01*
X36212734Y-51930568D01*
X36399139Y-51800047D01*
X36560047Y-51639139D01*
X36690568Y-51452734D01*
X36717618Y-51394724D01*
X36763790Y-51342285D01*
X36830983Y-51323133D01*
X36897865Y-51343348D01*
X36942382Y-51394725D01*
X36969431Y-51452733D01*
X37099953Y-51639140D01*
X37260859Y-51800046D01*
X37447264Y-51930567D01*
X37447265Y-51930567D01*
X37447266Y-51930568D01*
X37653504Y-52026739D01*
X37873308Y-52085635D01*
X38100000Y-52105468D01*
X38326692Y-52085635D01*
X38546496Y-52026739D01*
X38752734Y-51930568D01*
X38939139Y-51800047D01*
X39100047Y-51639139D01*
X39230568Y-51452734D01*
X39257618Y-51394724D01*
X39303790Y-51342285D01*
X39370983Y-51323133D01*
X39437865Y-51343348D01*
X39482382Y-51394725D01*
X39509431Y-51452733D01*
X39639953Y-51639140D01*
X39800859Y-51800046D01*
X39987264Y-51930567D01*
X39987265Y-51930567D01*
X39987266Y-51930568D01*
X40193504Y-52026739D01*
X40413308Y-52085635D01*
X40640000Y-52105468D01*
X40866692Y-52085635D01*
X41086496Y-52026739D01*
X41292734Y-51930568D01*
X41479139Y-51800047D01*
X41640047Y-51639139D01*
X41770568Y-51452734D01*
X41797618Y-51394724D01*
X41843790Y-51342285D01*
X41910983Y-51323133D01*
X41977865Y-51343348D01*
X42022382Y-51394725D01*
X42049431Y-51452733D01*
X42179953Y-51639140D01*
X42340859Y-51800046D01*
X42527264Y-51930567D01*
X42527265Y-51930567D01*
X42527266Y-51930568D01*
X42733504Y-52026739D01*
X42953308Y-52085635D01*
X43104436Y-52098856D01*
X43179999Y-52105468D01*
X43179999Y-52105467D01*
X43180000Y-52105468D01*
X43406692Y-52085635D01*
X43626496Y-52026739D01*
X43832734Y-51930568D01*
X44019139Y-51800047D01*
X44180047Y-51639139D01*
X44310568Y-51452734D01*
X44337619Y-51394721D01*
X44383788Y-51342286D01*
X44450981Y-51323133D01*
X44517862Y-51343348D01*
X44562380Y-51394722D01*
X44589432Y-51452733D01*
X44589433Y-51452736D01*
X44719953Y-51639140D01*
X44880859Y-51800046D01*
X45067264Y-51930567D01*
X45067265Y-51930567D01*
X45067266Y-51930568D01*
X45273504Y-52026739D01*
X45493308Y-52085635D01*
X45720000Y-52105468D01*
X45946692Y-52085635D01*
X46166496Y-52026739D01*
X46372734Y-51930568D01*
X46559139Y-51800047D01*
X46720047Y-51639139D01*
X46850568Y-51452734D01*
X46877893Y-51394134D01*
X46924065Y-51341695D01*
X46991258Y-51322543D01*
X47058139Y-51342758D01*
X47102657Y-51394133D01*
X47129866Y-51452482D01*
X47260341Y-51638819D01*
X47421180Y-51799658D01*
X47607519Y-51930134D01*
X47813673Y-52026266D01*
X48009999Y-52078871D01*
X48010000Y-52078871D01*
X48010000Y-51115686D01*
X48021955Y-51127641D01*
X48134852Y-51185165D01*
X48228519Y-51200000D01*
X48291481Y-51200000D01*
X48385148Y-51185165D01*
X48498045Y-51127641D01*
X48510000Y-51115686D01*
X48510000Y-52078871D01*
X48706326Y-52026266D01*
X48912480Y-51930134D01*
X49098819Y-51799658D01*
X49259658Y-51638819D01*
X49390135Y-51452479D01*
X49417342Y-51394135D01*
X49463514Y-51341695D01*
X49530707Y-51322543D01*
X49597589Y-51342758D01*
X49642105Y-51394132D01*
X49669432Y-51452733D01*
X49669433Y-51452736D01*
X49799953Y-51639140D01*
X49960859Y-51800046D01*
X50147264Y-51930567D01*
X50147265Y-51930567D01*
X50147266Y-51930568D01*
X50353504Y-52026739D01*
X50573308Y-52085635D01*
X50800000Y-52105468D01*
X51026692Y-52085635D01*
X51246496Y-52026739D01*
X51452734Y-51930568D01*
X51639139Y-51800047D01*
X51800047Y-51639139D01*
X51930568Y-51452734D01*
X51957618Y-51394724D01*
X52003790Y-51342285D01*
X52070983Y-51323133D01*
X52137865Y-51343348D01*
X52182382Y-51394725D01*
X52209431Y-51452733D01*
X52339953Y-51639140D01*
X52500859Y-51800046D01*
X52687264Y-51930567D01*
X52687265Y-51930567D01*
X52687266Y-51930568D01*
X52893504Y-52026739D01*
X53113308Y-52085635D01*
X53264436Y-52098856D01*
X53339999Y-52105468D01*
X53339999Y-52105467D01*
X53340000Y-52105468D01*
X53566692Y-52085635D01*
X53786496Y-52026739D01*
X53992734Y-51930568D01*
X54179139Y-51800047D01*
X54340047Y-51639139D01*
X54470568Y-51452734D01*
X54497618Y-51394724D01*
X54543790Y-51342285D01*
X54610983Y-51323133D01*
X54677865Y-51343348D01*
X54722382Y-51394725D01*
X54749431Y-51452733D01*
X54879953Y-51639140D01*
X55040859Y-51800046D01*
X55227264Y-51930567D01*
X55227265Y-51930567D01*
X55227266Y-51930568D01*
X55433504Y-52026739D01*
X55653308Y-52085635D01*
X55880000Y-52105468D01*
X56106692Y-52085635D01*
X56326496Y-52026739D01*
X56532734Y-51930568D01*
X56719139Y-51800047D01*
X56880047Y-51639139D01*
X57010568Y-51452734D01*
X57037619Y-51394721D01*
X57083788Y-51342286D01*
X57150981Y-51323133D01*
X57217862Y-51343348D01*
X57262380Y-51394722D01*
X57289432Y-51452733D01*
X57289433Y-51452736D01*
X57419953Y-51639140D01*
X57580859Y-51800046D01*
X57767264Y-51930567D01*
X57767265Y-51930567D01*
X57767266Y-51930568D01*
X57973504Y-52026739D01*
X58193308Y-52085635D01*
X58420000Y-52105468D01*
X58646692Y-52085635D01*
X58866496Y-52026739D01*
X59072734Y-51930568D01*
X59259139Y-51800047D01*
X59420047Y-51639139D01*
X59550568Y-51452734D01*
X59577618Y-51394724D01*
X59623790Y-51342285D01*
X59690983Y-51323133D01*
X59757865Y-51343348D01*
X59802382Y-51394725D01*
X59829431Y-51452733D01*
X59959953Y-51639140D01*
X60120859Y-51800046D01*
X60307264Y-51930567D01*
X60307265Y-51930567D01*
X60307266Y-51930568D01*
X60513504Y-52026739D01*
X60733308Y-52085635D01*
X60960000Y-52105468D01*
X61186692Y-52085635D01*
X61406496Y-52026739D01*
X61612734Y-51930568D01*
X61799139Y-51800047D01*
X61960047Y-51639139D01*
X62090568Y-51452734D01*
X62186739Y-51246496D01*
X62245635Y-51026692D01*
X62265468Y-50800000D01*
X62245635Y-50573308D01*
X62186739Y-50353504D01*
X62090568Y-50147266D01*
X62044443Y-50081391D01*
X61960046Y-49960859D01*
X61799140Y-49799953D01*
X61612735Y-49669432D01*
X61406497Y-49573261D01*
X61186689Y-49514364D01*
X60960000Y-49494531D01*
X60733310Y-49514364D01*
X60513502Y-49573261D01*
X60307264Y-49669432D01*
X60120859Y-49799953D01*
X59959953Y-49960859D01*
X59829433Y-50147263D01*
X59802382Y-50205275D01*
X59756209Y-50257714D01*
X59689015Y-50276865D01*
X59622134Y-50256649D01*
X59577618Y-50205275D01*
X59550568Y-50147266D01*
X59504442Y-50081391D01*
X59420046Y-49960859D01*
X59259140Y-49799953D01*
X59072735Y-49669432D01*
X58866497Y-49573261D01*
X58646689Y-49514364D01*
X58419999Y-49494531D01*
X58193310Y-49514364D01*
X57973502Y-49573261D01*
X57767264Y-49669432D01*
X57580859Y-49799953D01*
X57419953Y-49960859D01*
X57289433Y-50147263D01*
X57262382Y-50205275D01*
X57216209Y-50257714D01*
X57149015Y-50276865D01*
X57082134Y-50256649D01*
X57037618Y-50205275D01*
X57010568Y-50147266D01*
X56964442Y-50081391D01*
X56880046Y-49960859D01*
X56719140Y-49799953D01*
X56532735Y-49669432D01*
X56326497Y-49573261D01*
X56106689Y-49514364D01*
X55880000Y-49494531D01*
X55653310Y-49514364D01*
X55433502Y-49573261D01*
X55227264Y-49669432D01*
X55040859Y-49799953D01*
X54879953Y-49960859D01*
X54749433Y-50147263D01*
X54722382Y-50205275D01*
X54676209Y-50257714D01*
X54609015Y-50276865D01*
X54542134Y-50256649D01*
X54497618Y-50205275D01*
X54470568Y-50147266D01*
X54424442Y-50081391D01*
X54340046Y-49960859D01*
X54179140Y-49799953D01*
X53992735Y-49669432D01*
X53786497Y-49573261D01*
X53566689Y-49514364D01*
X53340000Y-49494531D01*
X53113310Y-49514364D01*
X52893502Y-49573261D01*
X52687264Y-49669432D01*
X52500859Y-49799953D01*
X52339953Y-49960859D01*
X52209433Y-50147263D01*
X52182382Y-50205275D01*
X52136209Y-50257714D01*
X52069015Y-50276865D01*
X52002134Y-50256649D01*
X51957618Y-50205275D01*
X51930568Y-50147266D01*
X51884442Y-50081391D01*
X51800046Y-49960859D01*
X51639140Y-49799953D01*
X51452735Y-49669432D01*
X51246497Y-49573261D01*
X51026689Y-49514364D01*
X50800000Y-49494531D01*
X50573310Y-49514364D01*
X50353502Y-49573261D01*
X50147264Y-49669432D01*
X49960859Y-49799953D01*
X49799953Y-49960859D01*
X49669430Y-50147267D01*
X49642105Y-50205866D01*
X49595932Y-50258305D01*
X49528739Y-50277456D01*
X49461858Y-50257239D01*
X49417342Y-50205865D01*
X49390134Y-50147519D01*
X49259658Y-49961180D01*
X49098819Y-49800341D01*
X48912480Y-49669865D01*
X48706326Y-49573733D01*
X48510000Y-49521126D01*
X48510000Y-50484313D01*
X48498045Y-50472359D01*
X48385148Y-50414835D01*
X48291481Y-50400000D01*
X48228519Y-50400000D01*
X48134852Y-50414835D01*
X48021955Y-50472359D01*
X48010000Y-50484314D01*
X48010000Y-49496688D01*
X48009373Y-49495830D01*
X48005221Y-49426084D01*
X48038380Y-49366209D01*
X48482771Y-48921819D01*
X48544095Y-48888334D01*
X48570453Y-48885500D01*
X52636253Y-48885500D01*
X52703292Y-48905185D01*
X52728400Y-48926526D01*
X52734129Y-48932888D01*
X52887270Y-49044151D01*
X52887271Y-49044151D01*
X52887272Y-49044152D01*
X53060197Y-49121144D01*
X53245352Y-49160500D01*
X53245354Y-49160500D01*
X53434648Y-49160500D01*
X53558084Y-49134262D01*
X53619803Y-49121144D01*
X53792730Y-49044151D01*
X53816134Y-49027147D01*
X53945870Y-48932889D01*
X53951598Y-48926528D01*
X54072533Y-48792216D01*
X54167179Y-48628284D01*
X54225674Y-48448256D01*
X54245460Y-48260000D01*
X54225674Y-48071744D01*
X54185835Y-47949132D01*
X54167179Y-47891715D01*
X54072535Y-47727787D01*
X54072534Y-47727786D01*
X54072533Y-47727784D01*
X54054694Y-47707972D01*
X54024465Y-47644982D01*
X54033089Y-47575647D01*
X54054692Y-47542029D01*
X54072533Y-47522216D01*
X54167179Y-47358284D01*
X54225674Y-47178256D01*
X54245460Y-46990000D01*
X54225674Y-46801744D01*
X54167179Y-46621716D01*
X54167179Y-46621715D01*
X54072533Y-46457783D01*
X53945870Y-46317110D01*
X53792730Y-46205848D01*
X53619802Y-46128855D01*
X53434648Y-46089500D01*
X53434646Y-46089500D01*
X53245354Y-46089500D01*
X53245352Y-46089500D01*
X53060197Y-46128855D01*
X52887272Y-46205847D01*
X52823451Y-46252216D01*
X52734129Y-46317112D01*
X52728401Y-46323472D01*
X52668916Y-46360121D01*
X52636253Y-46364500D01*
X47072744Y-46364500D01*
X47052236Y-46362235D01*
X46982113Y-46364439D01*
X46978219Y-46364500D01*
X46950650Y-46364500D01*
X46946794Y-46364986D01*
X46946791Y-46364987D01*
X46946735Y-46364994D01*
X46946662Y-46365003D01*
X46935043Y-46365917D01*
X46891372Y-46367289D01*
X46872128Y-46372880D01*
X46853084Y-46376824D01*
X46833208Y-46379335D01*
X46792600Y-46395413D01*
X46781554Y-46399194D01*
X46773801Y-46401448D01*
X46739607Y-46411383D01*
X46722365Y-46421579D01*
X46704904Y-46430133D01*
X46686267Y-46437512D01*
X46650931Y-46463185D01*
X46641174Y-46469595D01*
X46603580Y-46491829D01*
X46589413Y-46505996D01*
X46574624Y-46518626D01*
X46558413Y-46530404D01*
X46530572Y-46564058D01*
X46522711Y-46572697D01*
X43594821Y-49500586D01*
X43533498Y-49534071D01*
X43475047Y-49532680D01*
X43406690Y-49514364D01*
X43179999Y-49494531D01*
X42953310Y-49514364D01*
X42733502Y-49573261D01*
X42527264Y-49669432D01*
X42340859Y-49799953D01*
X42179953Y-49960859D01*
X42049433Y-50147263D01*
X42022382Y-50205275D01*
X41976209Y-50257714D01*
X41909015Y-50276865D01*
X41842134Y-50256649D01*
X41797618Y-50205275D01*
X41770568Y-50147266D01*
X41724442Y-50081391D01*
X41640046Y-49960859D01*
X41479140Y-49799953D01*
X41292735Y-49669432D01*
X41086497Y-49573261D01*
X40866689Y-49514364D01*
X40639999Y-49494531D01*
X40595895Y-49498390D01*
X40527395Y-49484623D01*
X40477212Y-49436008D01*
X40461279Y-49367979D01*
X40484655Y-49302136D01*
X40497401Y-49287188D01*
X48207770Y-41576819D01*
X48269094Y-41543334D01*
X48295452Y-41540500D01*
X48354648Y-41540500D01*
X48382508Y-41534578D01*
X54529500Y-41534578D01*
X54529501Y-41537872D01*
X54529853Y-41541152D01*
X54529854Y-41541159D01*
X54535909Y-41597483D01*
X54586204Y-41732331D01*
X54672454Y-41847546D01*
X54787669Y-41933796D01*
X54919598Y-41983002D01*
X54975532Y-42024873D01*
X54999949Y-42090337D01*
X54985097Y-42158610D01*
X54963947Y-42186865D01*
X54841888Y-42308924D01*
X54706400Y-42502421D01*
X54606569Y-42716507D01*
X54549364Y-42929999D01*
X54549364Y-42930000D01*
X55446314Y-42930000D01*
X55420507Y-42970156D01*
X55380000Y-43108111D01*
X55380000Y-43251889D01*
X55420507Y-43389844D01*
X55446314Y-43430000D01*
X54549364Y-43430000D01*
X54606569Y-43643492D01*
X54706399Y-43857576D01*
X54841893Y-44051081D01*
X55008918Y-44218106D01*
X55202423Y-44353600D01*
X55416509Y-44453430D01*
X55629999Y-44510633D01*
X55629999Y-43615501D01*
X55737685Y-43664680D01*
X55844237Y-43680000D01*
X55915763Y-43680000D01*
X56022315Y-43664680D01*
X56129999Y-43615501D01*
X56129999Y-44510633D01*
X56343491Y-44453430D01*
X56557576Y-44353600D01*
X56751081Y-44218106D01*
X56918109Y-44051078D01*
X57048424Y-43864969D01*
X57103001Y-43821344D01*
X57172499Y-43814150D01*
X57234854Y-43845673D01*
X57251574Y-43864968D01*
X57381892Y-44051080D01*
X57548918Y-44218106D01*
X57742423Y-44353600D01*
X57956507Y-44453430D01*
X58169998Y-44510634D01*
X58169999Y-44510634D01*
X58169999Y-43615501D01*
X58277685Y-43664680D01*
X58384237Y-43680000D01*
X58455763Y-43680000D01*
X58562315Y-43664680D01*
X58669999Y-43615501D01*
X58669999Y-44510633D01*
X58883490Y-44453430D01*
X59097576Y-44353600D01*
X59291081Y-44218106D01*
X59458106Y-44051081D01*
X59593600Y-43857576D01*
X59693430Y-43643492D01*
X59750636Y-43430000D01*
X58853686Y-43430000D01*
X58879493Y-43389844D01*
X58920000Y-43251889D01*
X58920000Y-43108111D01*
X58879493Y-42970156D01*
X58853686Y-42930000D01*
X59750636Y-42930000D01*
X59750635Y-42929999D01*
X59693430Y-42716507D01*
X59593599Y-42502421D01*
X59458109Y-42308921D01*
X59336053Y-42186865D01*
X59302568Y-42125542D01*
X59307552Y-42055850D01*
X59349424Y-41999917D01*
X59380397Y-41983004D01*
X59512331Y-41933796D01*
X59627546Y-41847546D01*
X59713796Y-41732331D01*
X59764091Y-41597483D01*
X59770500Y-41537873D01*
X59770499Y-39742128D01*
X59764091Y-39682517D01*
X59713796Y-39547669D01*
X59627546Y-39432454D01*
X59512331Y-39346204D01*
X59377483Y-39295909D01*
X59317873Y-39289500D01*
X59314550Y-39289500D01*
X57525439Y-39289500D01*
X57525420Y-39289500D01*
X57522128Y-39289501D01*
X57518848Y-39289853D01*
X57518840Y-39289854D01*
X57462515Y-39295909D01*
X57327667Y-39346204D01*
X57224310Y-39423577D01*
X57158846Y-39447994D01*
X57090573Y-39433142D01*
X57075690Y-39423577D01*
X56972333Y-39346205D01*
X56972331Y-39346204D01*
X56837483Y-39295909D01*
X56777873Y-39289500D01*
X56774550Y-39289500D01*
X54985439Y-39289500D01*
X54985420Y-39289500D01*
X54982128Y-39289501D01*
X54978848Y-39289853D01*
X54978840Y-39289854D01*
X54922515Y-39295909D01*
X54787669Y-39346204D01*
X54672454Y-39432454D01*
X54586204Y-39547668D01*
X54535909Y-39682516D01*
X54532394Y-39715214D01*
X54529500Y-39742127D01*
X54529500Y-39745448D01*
X54529500Y-39745449D01*
X54529500Y-41534560D01*
X54529500Y-41534578D01*
X48382508Y-41534578D01*
X48478084Y-41514262D01*
X48539803Y-41501144D01*
X48712730Y-41424151D01*
X48865871Y-41312888D01*
X48992533Y-41172216D01*
X49087179Y-41008284D01*
X49145674Y-40828256D01*
X49165460Y-40640000D01*
X49145674Y-40451744D01*
X49087179Y-40271716D01*
X49087179Y-40271715D01*
X48992533Y-40107783D01*
X48865870Y-39967110D01*
X48712730Y-39855848D01*
X48539802Y-39778855D01*
X48354648Y-39739500D01*
X48354646Y-39739500D01*
X48165354Y-39739500D01*
X48165352Y-39739500D01*
X47980197Y-39778855D01*
X47807269Y-39855848D01*
X47654129Y-39967110D01*
X47527466Y-40107783D01*
X47432820Y-40271715D01*
X47374326Y-40451742D01*
X47356678Y-40619651D01*
X47330093Y-40684266D01*
X47321038Y-40694370D01*
X38514821Y-49500586D01*
X38453498Y-49534071D01*
X38395047Y-49532680D01*
X38326690Y-49514364D01*
X38099999Y-49494531D01*
X38055895Y-49498390D01*
X37987395Y-49484623D01*
X37937212Y-49436008D01*
X37921279Y-49367979D01*
X37944655Y-49302136D01*
X37957401Y-49287188D01*
X45667770Y-41576819D01*
X45729094Y-41543334D01*
X45755452Y-41540500D01*
X45814648Y-41540500D01*
X45938083Y-41514262D01*
X45999803Y-41501144D01*
X46172730Y-41424151D01*
X46325871Y-41312888D01*
X46452533Y-41172216D01*
X46547179Y-41008284D01*
X46605674Y-40828256D01*
X46625460Y-40640000D01*
X46605674Y-40451744D01*
X46547179Y-40271716D01*
X46547179Y-40271715D01*
X46452533Y-40107783D01*
X46325870Y-39967110D01*
X46172730Y-39855848D01*
X45999802Y-39778855D01*
X45814648Y-39739500D01*
X45814646Y-39739500D01*
X45625354Y-39739500D01*
X45625352Y-39739500D01*
X45440197Y-39778855D01*
X45267269Y-39855848D01*
X45114129Y-39967110D01*
X44987466Y-40107783D01*
X44892820Y-40271715D01*
X44834326Y-40451742D01*
X44816678Y-40619651D01*
X44790093Y-40684266D01*
X44781038Y-40694370D01*
X35974821Y-49500586D01*
X35913498Y-49534071D01*
X35855047Y-49532680D01*
X35786690Y-49514364D01*
X35559999Y-49494531D01*
X35515895Y-49498390D01*
X35447395Y-49484623D01*
X35397212Y-49436008D01*
X35381279Y-49367979D01*
X35404655Y-49302136D01*
X35417401Y-49287188D01*
X43127770Y-41576819D01*
X43189094Y-41543334D01*
X43215452Y-41540500D01*
X43274648Y-41540500D01*
X43398084Y-41514262D01*
X43459803Y-41501144D01*
X43632730Y-41424151D01*
X43785871Y-41312888D01*
X43912533Y-41172216D01*
X44007179Y-41008284D01*
X44065674Y-40828256D01*
X44085460Y-40640000D01*
X44065674Y-40451744D01*
X44007179Y-40271716D01*
X44007179Y-40271715D01*
X43912533Y-40107783D01*
X43785870Y-39967110D01*
X43632730Y-39855848D01*
X43459802Y-39778855D01*
X43274648Y-39739500D01*
X43274646Y-39739500D01*
X43085354Y-39739500D01*
X43085352Y-39739500D01*
X42900197Y-39778855D01*
X42727269Y-39855848D01*
X42574129Y-39967110D01*
X42447466Y-40107783D01*
X42352820Y-40271715D01*
X42294326Y-40451742D01*
X42276678Y-40619651D01*
X42250093Y-40684266D01*
X42241038Y-40694370D01*
X33434821Y-49500586D01*
X33373498Y-49534071D01*
X33315047Y-49532680D01*
X33246690Y-49514364D01*
X33019999Y-49494531D01*
X32975895Y-49498390D01*
X32907395Y-49484623D01*
X32857212Y-49436008D01*
X32841279Y-49367979D01*
X32864655Y-49302136D01*
X32877401Y-49287188D01*
X40587770Y-41576819D01*
X40649094Y-41543334D01*
X40675452Y-41540500D01*
X40734648Y-41540500D01*
X40858083Y-41514262D01*
X40919803Y-41501144D01*
X41092730Y-41424151D01*
X41245871Y-41312888D01*
X41372533Y-41172216D01*
X41467179Y-41008284D01*
X41525674Y-40828256D01*
X41545460Y-40640000D01*
X41525674Y-40451744D01*
X41467179Y-40271716D01*
X41467179Y-40271715D01*
X41372533Y-40107783D01*
X41245870Y-39967110D01*
X41092730Y-39855848D01*
X40919802Y-39778855D01*
X40734648Y-39739500D01*
X40734646Y-39739500D01*
X40545354Y-39739500D01*
X40545352Y-39739500D01*
X40360197Y-39778855D01*
X40187269Y-39855848D01*
X40034129Y-39967110D01*
X39907466Y-40107783D01*
X39812820Y-40271715D01*
X39754326Y-40451742D01*
X39736678Y-40619651D01*
X39710093Y-40684266D01*
X39701038Y-40694370D01*
X37072819Y-43322589D01*
X37011496Y-43356074D01*
X36941804Y-43351090D01*
X36885871Y-43309218D01*
X36861454Y-43243754D01*
X36861610Y-43224100D01*
X36865468Y-43179999D01*
X36845635Y-42953310D01*
X36845635Y-42953308D01*
X36786739Y-42733504D01*
X36690568Y-42527266D01*
X36622113Y-42429500D01*
X36560046Y-42340859D01*
X36399140Y-42179953D01*
X36212735Y-42049432D01*
X36006497Y-41953261D01*
X35786689Y-41894364D01*
X35560000Y-41874531D01*
X35333310Y-41894364D01*
X35113502Y-41953261D01*
X34907264Y-42049432D01*
X34720859Y-42179953D01*
X34559953Y-42340859D01*
X34429432Y-42527264D01*
X34333261Y-42733502D01*
X34274364Y-42953310D01*
X34254531Y-43180000D01*
X34269129Y-43346860D01*
X34255362Y-43415360D01*
X34233282Y-43445348D01*
X34035449Y-43643182D01*
X33974129Y-43676666D01*
X33947770Y-43679500D01*
X31853619Y-43679500D01*
X31786580Y-43659815D01*
X31740825Y-43607011D01*
X31730881Y-43537853D01*
X31733844Y-43523406D01*
X31758872Y-43430000D01*
X30795686Y-43430000D01*
X30807641Y-43418045D01*
X30865165Y-43305148D01*
X30884986Y-43180000D01*
X30865165Y-43054852D01*
X30807641Y-42941955D01*
X30795686Y-42930000D01*
X31758872Y-42930000D01*
X31758871Y-42929999D01*
X31706266Y-42733673D01*
X31610134Y-42527519D01*
X31479658Y-42341180D01*
X31318819Y-42180341D01*
X31132480Y-42049865D01*
X30926326Y-41953733D01*
X30730000Y-41901126D01*
X30730000Y-41901127D01*
X30729999Y-42864313D01*
X30718045Y-42852359D01*
X30605148Y-42794835D01*
X30511481Y-42780000D01*
X30448519Y-42780000D01*
X30354852Y-42794835D01*
X30241955Y-42852359D01*
X30230000Y-42864314D01*
X30230000Y-41901127D01*
X30229999Y-41901126D01*
X30033673Y-41953733D01*
X29827519Y-42049865D01*
X29641180Y-42180341D01*
X29480341Y-42341180D01*
X29349863Y-42527522D01*
X29322656Y-42585866D01*
X29276483Y-42638305D01*
X29209290Y-42657456D01*
X29142409Y-42637239D01*
X29097893Y-42585865D01*
X29070567Y-42527264D01*
X28940046Y-42340859D01*
X28779140Y-42179953D01*
X28592735Y-42049432D01*
X28386497Y-41953261D01*
X28166689Y-41894364D01*
X27940000Y-41874531D01*
X27713310Y-41894364D01*
X27493502Y-41953261D01*
X27287264Y-42049432D01*
X27100859Y-42179953D01*
X26939953Y-42340859D01*
X26809430Y-42527267D01*
X26782105Y-42585866D01*
X26735932Y-42638305D01*
X26668739Y-42657456D01*
X26601858Y-42637239D01*
X26557342Y-42585865D01*
X26530134Y-42527519D01*
X26399658Y-42341180D01*
X26238819Y-42180341D01*
X26052480Y-42049865D01*
X25846326Y-41953733D01*
X25650000Y-41901126D01*
X25650000Y-42864314D01*
X25638045Y-42852359D01*
X25525148Y-42794835D01*
X25431481Y-42780000D01*
X25368519Y-42780000D01*
X25274852Y-42794835D01*
X25161955Y-42852359D01*
X25150000Y-42864313D01*
X25150000Y-41901127D01*
X25149999Y-41901126D01*
X24953673Y-41953733D01*
X24747519Y-42049865D01*
X24561180Y-42180341D01*
X24400341Y-42341180D01*
X24269863Y-42527522D01*
X24242656Y-42585866D01*
X24196483Y-42638305D01*
X24129290Y-42657456D01*
X24062409Y-42637239D01*
X24017893Y-42585865D01*
X23990567Y-42527264D01*
X23860046Y-42340859D01*
X23699140Y-42179953D01*
X23512735Y-42049432D01*
X23306497Y-41953261D01*
X23086689Y-41894364D01*
X22859999Y-41874531D01*
X22633310Y-41894364D01*
X22413502Y-41953261D01*
X22207264Y-42049432D01*
X22020859Y-42179953D01*
X21859953Y-42340859D01*
X21729433Y-42527263D01*
X21702382Y-42585275D01*
X21656209Y-42637714D01*
X21589015Y-42656865D01*
X21522134Y-42636649D01*
X21477618Y-42585275D01*
X21450687Y-42527522D01*
X21450568Y-42527266D01*
X21375634Y-42420248D01*
X21320046Y-42340859D01*
X21159140Y-42179953D01*
X20972735Y-42049432D01*
X20766497Y-41953261D01*
X20546689Y-41894364D01*
X20320000Y-41874531D01*
X20093310Y-41894364D01*
X19873502Y-41953261D01*
X19667264Y-42049432D01*
X19480859Y-42179953D01*
X19319953Y-42340859D01*
X19294912Y-42376623D01*
X19240336Y-42420248D01*
X19193337Y-42429500D01*
X18906663Y-42429500D01*
X18839624Y-42409815D01*
X18805088Y-42376623D01*
X18780046Y-42340859D01*
X18619140Y-42179953D01*
X18432735Y-42049432D01*
X18226497Y-41953261D01*
X18006689Y-41894364D01*
X17780000Y-41874531D01*
X17553310Y-41894364D01*
X17333502Y-41953261D01*
X17127264Y-42049432D01*
X16940859Y-42179953D01*
X16779951Y-42340861D01*
X16762725Y-42365463D01*
X16708148Y-42409088D01*
X16638649Y-42416280D01*
X16576295Y-42384757D01*
X16540882Y-42324527D01*
X16537861Y-42307592D01*
X16534091Y-42272517D01*
X16483796Y-42137669D01*
X16397546Y-42022454D01*
X16282331Y-41936204D01*
X16147483Y-41885909D01*
X16087873Y-41879500D01*
X16084550Y-41879500D01*
X14395439Y-41879500D01*
X14395420Y-41879500D01*
X14392128Y-41879501D01*
X14388848Y-41879853D01*
X14388840Y-41879854D01*
X14332515Y-41885909D01*
X14197669Y-41936204D01*
X14082454Y-42022454D01*
X13996204Y-42137668D01*
X13945910Y-42272515D01*
X13945909Y-42272517D01*
X13939500Y-42332127D01*
X13939500Y-42335448D01*
X13939500Y-42335449D01*
X13939500Y-44024560D01*
X13939500Y-44024578D01*
X13939501Y-44027872D01*
X13939853Y-44031152D01*
X13939854Y-44031159D01*
X13945909Y-44087483D01*
X13996204Y-44222331D01*
X14082454Y-44337546D01*
X14197669Y-44423796D01*
X14332517Y-44474091D01*
X14378756Y-44479062D01*
X14443305Y-44505798D01*
X14483154Y-44563190D01*
X14489500Y-44602351D01*
X14489500Y-48196294D01*
X14488191Y-48214264D01*
X14484711Y-48238023D01*
X14489028Y-48287368D01*
X14489500Y-48298175D01*
X14489500Y-48303709D01*
X14489916Y-48307272D01*
X14489917Y-48307282D01*
X14493098Y-48334496D01*
X14493464Y-48338082D01*
X14500109Y-48414041D01*
X14504329Y-48433071D01*
X14504758Y-48434251D01*
X14504759Y-48434255D01*
X14530413Y-48504742D01*
X14531582Y-48508107D01*
X14555580Y-48580524D01*
X14564075Y-48598072D01*
X14605979Y-48661784D01*
X14607889Y-48664782D01*
X14647288Y-48728656D01*
X14647952Y-48729732D01*
X14660253Y-48744830D01*
X14661168Y-48745693D01*
X14661170Y-48745696D01*
X14710478Y-48792216D01*
X14715709Y-48797151D01*
X14718296Y-48799664D01*
X15211661Y-49293029D01*
X15245146Y-49354352D01*
X15240162Y-49424044D01*
X15198290Y-49479977D01*
X15134787Y-49504238D01*
X15013397Y-49514858D01*
X14793673Y-49573733D01*
X14587519Y-49669865D01*
X14401180Y-49800341D01*
X14240339Y-49961182D01*
X14191749Y-50030575D01*
X14137171Y-50074199D01*
X14067673Y-50081391D01*
X14005319Y-50049868D01*
X13983654Y-50022927D01*
X13925366Y-49925106D01*
X13804902Y-49782874D01*
X9156819Y-45134790D01*
X9123334Y-45073468D01*
X9120500Y-45047110D01*
X9120500Y-40580502D01*
X9120500Y-40580501D01*
X9120500Y-40577933D01*
X9105108Y-40392179D01*
X9044063Y-40151119D01*
X8944173Y-39923393D01*
X8808164Y-39715215D01*
X8686859Y-39583443D01*
X8655939Y-39520792D01*
X8663799Y-39451366D01*
X8703781Y-39400196D01*
X8712329Y-39393796D01*
X8712331Y-39393796D01*
X8827546Y-39307546D01*
X8913796Y-39192331D01*
X8964091Y-39057483D01*
X8970500Y-38997873D01*
X8970499Y-38922889D01*
X8990183Y-38855851D01*
X9006811Y-38835215D01*
X9024902Y-38817126D01*
X9024902Y-38817125D01*
X10745208Y-37096819D01*
X10806531Y-37063334D01*
X10832889Y-37060500D01*
X15299497Y-37060500D01*
X15302067Y-37060500D01*
X15487821Y-37045108D01*
X15728881Y-36984063D01*
X15956607Y-36884173D01*
X16164785Y-36748164D01*
X16347738Y-36579744D01*
X16500474Y-36383509D01*
X16522024Y-36343687D01*
X16571239Y-36294101D01*
X16639455Y-36278991D01*
X16705011Y-36303161D01*
X16732651Y-36331585D01*
X16779953Y-36399140D01*
X16940859Y-36560046D01*
X17127264Y-36690567D01*
X17127265Y-36690567D01*
X17127266Y-36690568D01*
X17333504Y-36786739D01*
X17553308Y-36845635D01*
X17704436Y-36858856D01*
X17779999Y-36865468D01*
X17779999Y-36865467D01*
X17780000Y-36865468D01*
X18006692Y-36845635D01*
X18226496Y-36786739D01*
X18432734Y-36690568D01*
X18619139Y-36560047D01*
X18780047Y-36399139D01*
X18910568Y-36212734D01*
X18937618Y-36154724D01*
X18983790Y-36102285D01*
X19050983Y-36083133D01*
X19117865Y-36103348D01*
X19162381Y-36154724D01*
X19167377Y-36165437D01*
X19189431Y-36212733D01*
X19319953Y-36399140D01*
X19480859Y-36560046D01*
X19667264Y-36690567D01*
X19667265Y-36690567D01*
X19667266Y-36690568D01*
X19873504Y-36786739D01*
X20093308Y-36845635D01*
X20320000Y-36865468D01*
X20546692Y-36845635D01*
X20766496Y-36786739D01*
X20972734Y-36690568D01*
X21159139Y-36560047D01*
X21320047Y-36399139D01*
X21450568Y-36212734D01*
X21477618Y-36154724D01*
X21523790Y-36102285D01*
X21590983Y-36083133D01*
X21657865Y-36103348D01*
X21702381Y-36154724D01*
X21707377Y-36165437D01*
X21729431Y-36212733D01*
X21859953Y-36399140D01*
X22020859Y-36560046D01*
X22207264Y-36690567D01*
X22207265Y-36690567D01*
X22207266Y-36690568D01*
X22413504Y-36786739D01*
X22633308Y-36845635D01*
X22860000Y-36865468D01*
X23086692Y-36845635D01*
X23306496Y-36786739D01*
X23512734Y-36690568D01*
X23699139Y-36560047D01*
X23860047Y-36399139D01*
X23990568Y-36212734D01*
X24017618Y-36154724D01*
X24063790Y-36102285D01*
X24130983Y-36083133D01*
X24197865Y-36103348D01*
X24242381Y-36154724D01*
X24247377Y-36165437D01*
X24269431Y-36212733D01*
X24399953Y-36399140D01*
X24560859Y-36560046D01*
X24747264Y-36690567D01*
X24747265Y-36690567D01*
X24747266Y-36690568D01*
X24953504Y-36786739D01*
X25173308Y-36845635D01*
X25400000Y-36865468D01*
X25626692Y-36845635D01*
X25846496Y-36786739D01*
X26052734Y-36690568D01*
X26239139Y-36560047D01*
X26400047Y-36399139D01*
X26530568Y-36212734D01*
X26557618Y-36154724D01*
X26603790Y-36102285D01*
X26670983Y-36083133D01*
X26737865Y-36103348D01*
X26782381Y-36154724D01*
X26787377Y-36165437D01*
X26809431Y-36212733D01*
X26939953Y-36399140D01*
X27100859Y-36560046D01*
X27287264Y-36690567D01*
X27287265Y-36690567D01*
X27287266Y-36690568D01*
X27493504Y-36786739D01*
X27713308Y-36845635D01*
X27864435Y-36858856D01*
X27939999Y-36865468D01*
X27939999Y-36865467D01*
X27940000Y-36865468D01*
X28166692Y-36845635D01*
X28386496Y-36786739D01*
X28592734Y-36690568D01*
X28779139Y-36560047D01*
X28940047Y-36399139D01*
X29070568Y-36212734D01*
X29097618Y-36154724D01*
X29143790Y-36102285D01*
X29210983Y-36083133D01*
X29277865Y-36103348D01*
X29322381Y-36154724D01*
X29327377Y-36165437D01*
X29349431Y-36212733D01*
X29479953Y-36399140D01*
X29640859Y-36560046D01*
X29827264Y-36690567D01*
X29827265Y-36690567D01*
X29827266Y-36690568D01*
X30033504Y-36786739D01*
X30253308Y-36845635D01*
X30480000Y-36865468D01*
X30706692Y-36845635D01*
X30926496Y-36786739D01*
X31132734Y-36690568D01*
X31319139Y-36560047D01*
X31480047Y-36399139D01*
X31610568Y-36212734D01*
X31706739Y-36006496D01*
X31765635Y-35786692D01*
X31776222Y-35665673D01*
X31801675Y-35600604D01*
X31858266Y-35559625D01*
X31928028Y-35555747D01*
X31987432Y-35588799D01*
X32444267Y-36045634D01*
X32456048Y-36059266D01*
X32470389Y-36078529D01*
X32470390Y-36078530D01*
X32499264Y-36102758D01*
X32508339Y-36110373D01*
X32516314Y-36117681D01*
X32520223Y-36121590D01*
X32523055Y-36123829D01*
X32523065Y-36123838D01*
X32544542Y-36140819D01*
X32547298Y-36143063D01*
X32604786Y-36191302D01*
X32604788Y-36191303D01*
X32605757Y-36192116D01*
X32622177Y-36202576D01*
X32623321Y-36203109D01*
X32623323Y-36203111D01*
X32691357Y-36234835D01*
X32694456Y-36236335D01*
X32761567Y-36270040D01*
X32762704Y-36270611D01*
X32781084Y-36276998D01*
X32782321Y-36277253D01*
X32782327Y-36277256D01*
X32855862Y-36292439D01*
X32859209Y-36293181D01*
X32932279Y-36310500D01*
X32932281Y-36310500D01*
X32933505Y-36310790D01*
X32952876Y-36312769D01*
X32954140Y-36312732D01*
X32954144Y-36312733D01*
X33029110Y-36310552D01*
X33032716Y-36310500D01*
X34433337Y-36310500D01*
X34500376Y-36330185D01*
X34534912Y-36363377D01*
X34559953Y-36399140D01*
X34720859Y-36560046D01*
X34907264Y-36690567D01*
X34907265Y-36690567D01*
X34907266Y-36690568D01*
X35113504Y-36786739D01*
X35333308Y-36845635D01*
X35560000Y-36865468D01*
X35786692Y-36845635D01*
X36006496Y-36786739D01*
X36212734Y-36690568D01*
X36399139Y-36560047D01*
X36560047Y-36399139D01*
X36690568Y-36212734D01*
X36717893Y-36154134D01*
X36764065Y-36101695D01*
X36831258Y-36082543D01*
X36898139Y-36102758D01*
X36942657Y-36154133D01*
X36969867Y-36212485D01*
X37020972Y-36285471D01*
X37020973Y-36285472D01*
X37702045Y-35604399D01*
X37714835Y-35685148D01*
X37772359Y-35798045D01*
X37861955Y-35887641D01*
X37974852Y-35945165D01*
X38055599Y-35957953D01*
X37374526Y-36639025D01*
X37374526Y-36639026D01*
X37447515Y-36690133D01*
X37653673Y-36786266D01*
X37873397Y-36845141D01*
X38100000Y-36864966D01*
X38326602Y-36845141D01*
X38546326Y-36786266D01*
X38752480Y-36690134D01*
X38825472Y-36639025D01*
X38144401Y-35957953D01*
X38225148Y-35945165D01*
X38338045Y-35887641D01*
X38427641Y-35798045D01*
X38485165Y-35685148D01*
X38497953Y-35604399D01*
X39179025Y-36285472D01*
X39230134Y-36212480D01*
X39326266Y-36006326D01*
X39385141Y-35786602D01*
X39404966Y-35560000D01*
X39385141Y-35333397D01*
X39326266Y-35113673D01*
X39230133Y-34907515D01*
X39179025Y-34834526D01*
X38497953Y-35515597D01*
X38485165Y-35434852D01*
X38427641Y-35321955D01*
X38338045Y-35232359D01*
X38225148Y-35174835D01*
X38144400Y-35162046D01*
X38825472Y-34480974D01*
X38825471Y-34480972D01*
X38752484Y-34429866D01*
X38546326Y-34333733D01*
X38326602Y-34274858D01*
X38100000Y-34255033D01*
X37873397Y-34274858D01*
X37653672Y-34333733D01*
X37447516Y-34429865D01*
X37374527Y-34480973D01*
X37374526Y-34480973D01*
X38055600Y-35162046D01*
X37974852Y-35174835D01*
X37861955Y-35232359D01*
X37772359Y-35321955D01*
X37714835Y-35434852D01*
X37702046Y-35515598D01*
X37020973Y-34834527D01*
X36969865Y-34907517D01*
X36942657Y-34965865D01*
X36896484Y-35018304D01*
X36829290Y-35037456D01*
X36762409Y-35017240D01*
X36717893Y-34965865D01*
X36717618Y-34965276D01*
X36690568Y-34907266D01*
X36669754Y-34877539D01*
X36560046Y-34720859D01*
X36399140Y-34559953D01*
X36212735Y-34429432D01*
X36006497Y-34333261D01*
X35786689Y-34274364D01*
X35560000Y-34254531D01*
X35333310Y-34274364D01*
X35113502Y-34333261D01*
X34907264Y-34429432D01*
X34720859Y-34559953D01*
X34559953Y-34720859D01*
X34534912Y-34756623D01*
X34480336Y-34800248D01*
X34433337Y-34809500D01*
X33382230Y-34809500D01*
X33315191Y-34789815D01*
X33294549Y-34773181D01*
X27968800Y-29447432D01*
X27935315Y-29386109D01*
X27940299Y-29316417D01*
X27982171Y-29260484D01*
X28045674Y-29236223D01*
X28119040Y-29229804D01*
X28166692Y-29225635D01*
X28386496Y-29166739D01*
X28592734Y-29070568D01*
X28779139Y-28940047D01*
X28940047Y-28779139D01*
X29070568Y-28592734D01*
X29097619Y-28534721D01*
X29143788Y-28482286D01*
X29210981Y-28463133D01*
X29277862Y-28483348D01*
X29322381Y-28534723D01*
X29349433Y-28592736D01*
X29479953Y-28779140D01*
X29640859Y-28940046D01*
X29827264Y-29070567D01*
X29827265Y-29070567D01*
X29827266Y-29070568D01*
X30033504Y-29166739D01*
X30253308Y-29225635D01*
X30480000Y-29245468D01*
X30706692Y-29225635D01*
X30926496Y-29166739D01*
X31132734Y-29070568D01*
X31319139Y-28940047D01*
X31480047Y-28779139D01*
X31610568Y-28592734D01*
X31637618Y-28534724D01*
X31683790Y-28482285D01*
X31750983Y-28463133D01*
X31817865Y-28483348D01*
X31862382Y-28534725D01*
X31889431Y-28592733D01*
X32019953Y-28779140D01*
X32180859Y-28940046D01*
X32367264Y-29070567D01*
X32367265Y-29070567D01*
X32367266Y-29070568D01*
X32573504Y-29166739D01*
X32793308Y-29225635D01*
X33020000Y-29245468D01*
X33246692Y-29225635D01*
X33466496Y-29166739D01*
X33672734Y-29070568D01*
X33859139Y-28940047D01*
X34020047Y-28779139D01*
X34150568Y-28592734D01*
X34177618Y-28534724D01*
X34223790Y-28482285D01*
X34290983Y-28463133D01*
X34357865Y-28483348D01*
X34402382Y-28534725D01*
X34429431Y-28592733D01*
X34559953Y-28779140D01*
X34720859Y-28940046D01*
X34907264Y-29070567D01*
X34907265Y-29070567D01*
X34907266Y-29070568D01*
X35113504Y-29166739D01*
X35333308Y-29225635D01*
X35560000Y-29245468D01*
X35786692Y-29225635D01*
X36006496Y-29166739D01*
X36212734Y-29070568D01*
X36338751Y-28982331D01*
X36404377Y-28936380D01*
X36470583Y-28914053D01*
X36538351Y-28931063D01*
X36586163Y-28982012D01*
X36599500Y-29037955D01*
X36599500Y-30622067D01*
X36599711Y-30624609D01*
X36614892Y-30807822D01*
X36624729Y-30846666D01*
X36675937Y-31048881D01*
X36709107Y-31124500D01*
X36775825Y-31276604D01*
X36775827Y-31276607D01*
X36911836Y-31484785D01*
X37080256Y-31667738D01*
X37276491Y-31820474D01*
X37409519Y-31892465D01*
X37459108Y-31941682D01*
X37474500Y-32001518D01*
X37474500Y-32302256D01*
X37472235Y-32322766D01*
X37474439Y-32392872D01*
X37474500Y-32396767D01*
X37474500Y-32424350D01*
X37474988Y-32428219D01*
X37474989Y-32428225D01*
X37475004Y-32428343D01*
X37475918Y-32439967D01*
X37477290Y-32483626D01*
X37482879Y-32502860D01*
X37486825Y-32521916D01*
X37489335Y-32541792D01*
X37505414Y-32582404D01*
X37509197Y-32593451D01*
X37521382Y-32635391D01*
X37531580Y-32652635D01*
X37540136Y-32670100D01*
X37547514Y-32688732D01*
X37547515Y-32688733D01*
X37573180Y-32724059D01*
X37579593Y-32733822D01*
X37601826Y-32771416D01*
X37601829Y-32771419D01*
X37601830Y-32771420D01*
X37615995Y-32785585D01*
X37628627Y-32800375D01*
X37640406Y-32816587D01*
X37674058Y-32844426D01*
X37682699Y-32852289D01*
X40774196Y-35943787D01*
X40787096Y-35959888D01*
X40838223Y-36007900D01*
X40841020Y-36010611D01*
X40860529Y-36030120D01*
X40863709Y-36032587D01*
X40872571Y-36040155D01*
X40904418Y-36070062D01*
X40919820Y-36078529D01*
X40921972Y-36079712D01*
X40938236Y-36090396D01*
X40949972Y-36099499D01*
X40954064Y-36102673D01*
X40971858Y-36110373D01*
X40994152Y-36120021D01*
X41004631Y-36125154D01*
X41042908Y-36146197D01*
X41062306Y-36151177D01*
X41080708Y-36157477D01*
X41099104Y-36165438D01*
X41142261Y-36172273D01*
X41153664Y-36174634D01*
X41195981Y-36185500D01*
X41216016Y-36185500D01*
X41235413Y-36187026D01*
X41255196Y-36190160D01*
X41298674Y-36186050D01*
X41310344Y-36185500D01*
X49375501Y-36185500D01*
X49442540Y-36205185D01*
X49488295Y-36257989D01*
X49499501Y-36309499D01*
X49499501Y-36407872D01*
X49499853Y-36411152D01*
X49499854Y-36411159D01*
X49505909Y-36467483D01*
X49556204Y-36602331D01*
X49642454Y-36717546D01*
X49757669Y-36803796D01*
X49892517Y-36854091D01*
X49952127Y-36860500D01*
X51647872Y-36860499D01*
X51707483Y-36854091D01*
X51842331Y-36803796D01*
X51957546Y-36717546D01*
X52043796Y-36602331D01*
X52094091Y-36467483D01*
X52097862Y-36432404D01*
X52124598Y-36367856D01*
X52181989Y-36328006D01*
X52251814Y-36325511D01*
X52311904Y-36361162D01*
X52322726Y-36374537D01*
X52339953Y-36399140D01*
X52500859Y-36560046D01*
X52687264Y-36690567D01*
X52687265Y-36690567D01*
X52687266Y-36690568D01*
X52893504Y-36786739D01*
X53113308Y-36845635D01*
X53340000Y-36865468D01*
X53566692Y-36845635D01*
X53786496Y-36786739D01*
X53992734Y-36690568D01*
X54179139Y-36560047D01*
X54340047Y-36399139D01*
X54470568Y-36212734D01*
X54497618Y-36154724D01*
X54543790Y-36102285D01*
X54610983Y-36083133D01*
X54677865Y-36103348D01*
X54722381Y-36154724D01*
X54727377Y-36165437D01*
X54749431Y-36212733D01*
X54879953Y-36399140D01*
X55040859Y-36560046D01*
X55227264Y-36690567D01*
X55227265Y-36690567D01*
X55227266Y-36690568D01*
X55433504Y-36786739D01*
X55653308Y-36845635D01*
X55880000Y-36865468D01*
X56106692Y-36845635D01*
X56326496Y-36786739D01*
X56532734Y-36690568D01*
X56719139Y-36560047D01*
X56880047Y-36399139D01*
X57010568Y-36212734D01*
X57037618Y-36154724D01*
X57083790Y-36102285D01*
X57150983Y-36083133D01*
X57217865Y-36103348D01*
X57262381Y-36154724D01*
X57267377Y-36165437D01*
X57289431Y-36212733D01*
X57419953Y-36399140D01*
X57580859Y-36560046D01*
X57767264Y-36690567D01*
X57767265Y-36690567D01*
X57767266Y-36690568D01*
X57973504Y-36786739D01*
X58193308Y-36845635D01*
X58344436Y-36858856D01*
X58419999Y-36865468D01*
X58419999Y-36865467D01*
X58420000Y-36865468D01*
X58646692Y-36845635D01*
X58866496Y-36786739D01*
X59072734Y-36690568D01*
X59259139Y-36560047D01*
X59420047Y-36399139D01*
X59550568Y-36212734D01*
X59577618Y-36154724D01*
X59623790Y-36102285D01*
X59690983Y-36083133D01*
X59757865Y-36103348D01*
X59802381Y-36154724D01*
X59807377Y-36165437D01*
X59829431Y-36212733D01*
X59959953Y-36399140D01*
X60120859Y-36560046D01*
X60307264Y-36690567D01*
X60307265Y-36690567D01*
X60307266Y-36690568D01*
X60513504Y-36786739D01*
X60733308Y-36845635D01*
X60960000Y-36865468D01*
X61186692Y-36845635D01*
X61406496Y-36786739D01*
X61612734Y-36690568D01*
X61799139Y-36560047D01*
X61960047Y-36399139D01*
X62090568Y-36212734D01*
X62186739Y-36006496D01*
X62245635Y-35786692D01*
X62265468Y-35560000D01*
X62245635Y-35333308D01*
X62186739Y-35113504D01*
X62090568Y-34907266D01*
X62069754Y-34877539D01*
X61960046Y-34720859D01*
X61799140Y-34559953D01*
X61612735Y-34429432D01*
X61406497Y-34333261D01*
X61186689Y-34274364D01*
X60960000Y-34254531D01*
X60733310Y-34274364D01*
X60513502Y-34333261D01*
X60307264Y-34429432D01*
X60120859Y-34559953D01*
X59959953Y-34720859D01*
X59829431Y-34907266D01*
X59802380Y-34965276D01*
X59756207Y-35017714D01*
X59689013Y-35036865D01*
X59622132Y-35016648D01*
X59577617Y-34965273D01*
X59563267Y-34934500D01*
X59550568Y-34907266D01*
X59499636Y-34834527D01*
X59420046Y-34720859D01*
X59259140Y-34559953D01*
X59072735Y-34429432D01*
X58866497Y-34333261D01*
X58646689Y-34274364D01*
X58419999Y-34254531D01*
X58193310Y-34274364D01*
X57973502Y-34333261D01*
X57767264Y-34429432D01*
X57580859Y-34559953D01*
X57419953Y-34720859D01*
X57289433Y-34907263D01*
X57262382Y-34965275D01*
X57216209Y-35017714D01*
X57149015Y-35036865D01*
X57082134Y-35016649D01*
X57037618Y-34965275D01*
X57037617Y-34965273D01*
X57010568Y-34907266D01*
X56959636Y-34834527D01*
X56880046Y-34720859D01*
X56719140Y-34559953D01*
X56532735Y-34429432D01*
X56326497Y-34333261D01*
X56106689Y-34274364D01*
X55880000Y-34254531D01*
X55653310Y-34274364D01*
X55433502Y-34333261D01*
X55227264Y-34429432D01*
X55040859Y-34559953D01*
X54879953Y-34720859D01*
X54749433Y-34907263D01*
X54722382Y-34965275D01*
X54676209Y-35017714D01*
X54609015Y-35036865D01*
X54542134Y-35016649D01*
X54497618Y-34965275D01*
X54497617Y-34965273D01*
X54470568Y-34907266D01*
X54419636Y-34834527D01*
X54340046Y-34720859D01*
X54179140Y-34559953D01*
X53992735Y-34429432D01*
X53786497Y-34333261D01*
X53566689Y-34274364D01*
X53340000Y-34254531D01*
X53113310Y-34274364D01*
X52893502Y-34333261D01*
X52687264Y-34429432D01*
X52500859Y-34559953D01*
X52339951Y-34720861D01*
X52322725Y-34745463D01*
X52268148Y-34789088D01*
X52198649Y-34796280D01*
X52136295Y-34764757D01*
X52100882Y-34704527D01*
X52097861Y-34687592D01*
X52094091Y-34652517D01*
X52043796Y-34517669D01*
X51957546Y-34402454D01*
X51842331Y-34316204D01*
X51707483Y-34265909D01*
X51647873Y-34259500D01*
X51644550Y-34259500D01*
X49955439Y-34259500D01*
X49955420Y-34259500D01*
X49952128Y-34259501D01*
X49948848Y-34259853D01*
X49948840Y-34259854D01*
X49892515Y-34265909D01*
X49757669Y-34316204D01*
X49642454Y-34402454D01*
X49556204Y-34517668D01*
X49505910Y-34652515D01*
X49505909Y-34652517D01*
X49499500Y-34712127D01*
X49499500Y-34715449D01*
X49499500Y-34810500D01*
X49479815Y-34877539D01*
X49427011Y-34923294D01*
X49375500Y-34934500D01*
X41585452Y-34934500D01*
X41518413Y-34914815D01*
X41497771Y-34898181D01*
X38761819Y-32162228D01*
X38728334Y-32100905D01*
X38725500Y-32074547D01*
X38725500Y-32001518D01*
X38745185Y-31934479D01*
X38790480Y-31892465D01*
X38923509Y-31820474D01*
X39119744Y-31667738D01*
X39288164Y-31484785D01*
X39424173Y-31276607D01*
X39524063Y-31048881D01*
X39585108Y-30807821D01*
X39600500Y-30622067D01*
X39600500Y-29037955D01*
X39620185Y-28970916D01*
X39672989Y-28925161D01*
X39742147Y-28915217D01*
X39795623Y-28936380D01*
X39987264Y-29070567D01*
X39987265Y-29070567D01*
X39987266Y-29070568D01*
X40193504Y-29166739D01*
X40413308Y-29225635D01*
X40640000Y-29245468D01*
X40866692Y-29225635D01*
X41086496Y-29166739D01*
X41292734Y-29070568D01*
X41479139Y-28940047D01*
X41640047Y-28779139D01*
X41770568Y-28592734D01*
X41797618Y-28534724D01*
X41843790Y-28482285D01*
X41910983Y-28463133D01*
X41977865Y-28483348D01*
X42022382Y-28534725D01*
X42049431Y-28592733D01*
X42179953Y-28779140D01*
X42340859Y-28940046D01*
X42527264Y-29070567D01*
X42527265Y-29070567D01*
X42527266Y-29070568D01*
X42733504Y-29166739D01*
X42953308Y-29225635D01*
X43180000Y-29245468D01*
X43406692Y-29225635D01*
X43626496Y-29166739D01*
X43832734Y-29070568D01*
X44019139Y-28940047D01*
X44180047Y-28779139D01*
X44310568Y-28592734D01*
X44337619Y-28534721D01*
X44383788Y-28482286D01*
X44450981Y-28463133D01*
X44517862Y-28483348D01*
X44562381Y-28534723D01*
X44589433Y-28592736D01*
X44719953Y-28779140D01*
X44880859Y-28940046D01*
X45067264Y-29070567D01*
X45067265Y-29070567D01*
X45067266Y-29070568D01*
X45273504Y-29166739D01*
X45493308Y-29225635D01*
X45720000Y-29245468D01*
X45946692Y-29225635D01*
X46166496Y-29166739D01*
X46372734Y-29070568D01*
X46559139Y-28940047D01*
X46720047Y-28779139D01*
X46850568Y-28592734D01*
X46877618Y-28534724D01*
X46923790Y-28482285D01*
X46990983Y-28463133D01*
X47057865Y-28483348D01*
X47102382Y-28534725D01*
X47129431Y-28592733D01*
X47259953Y-28779140D01*
X47420859Y-28940046D01*
X47607264Y-29070567D01*
X47607265Y-29070567D01*
X47607266Y-29070568D01*
X47813504Y-29166739D01*
X48033308Y-29225635D01*
X48260000Y-29245468D01*
X48486692Y-29225635D01*
X48706496Y-29166739D01*
X48912734Y-29070568D01*
X49099139Y-28940047D01*
X49260047Y-28779139D01*
X49390568Y-28592734D01*
X49417618Y-28534724D01*
X49463790Y-28482285D01*
X49530983Y-28463133D01*
X49597865Y-28483348D01*
X49642382Y-28534725D01*
X49669431Y-28592733D01*
X49799953Y-28779140D01*
X49960859Y-28940046D01*
X50147264Y-29070567D01*
X50147265Y-29070567D01*
X50147266Y-29070568D01*
X50353504Y-29166739D01*
X50573308Y-29225635D01*
X50800000Y-29245468D01*
X51026692Y-29225635D01*
X51246496Y-29166739D01*
X51452734Y-29070568D01*
X51639139Y-28940047D01*
X51800047Y-28779139D01*
X51930568Y-28592734D01*
X51957618Y-28534724D01*
X52003790Y-28482285D01*
X52070983Y-28463133D01*
X52137865Y-28483348D01*
X52182382Y-28534725D01*
X52209431Y-28592733D01*
X52339953Y-28779140D01*
X52500859Y-28940046D01*
X52687264Y-29070567D01*
X52687265Y-29070567D01*
X52687266Y-29070568D01*
X52893504Y-29166739D01*
X53113308Y-29225635D01*
X53340000Y-29245468D01*
X53566692Y-29225635D01*
X53786496Y-29166739D01*
X53992734Y-29070568D01*
X54179139Y-28940047D01*
X54340047Y-28779139D01*
X54470568Y-28592734D01*
X54497618Y-28534724D01*
X54543790Y-28482285D01*
X54610983Y-28463133D01*
X54677865Y-28483348D01*
X54722382Y-28534725D01*
X54749431Y-28592733D01*
X54879953Y-28779140D01*
X55040859Y-28940046D01*
X55227264Y-29070567D01*
X55227265Y-29070567D01*
X55227266Y-29070568D01*
X55433504Y-29166739D01*
X55653308Y-29225635D01*
X55880000Y-29245468D01*
X56106692Y-29225635D01*
X56326496Y-29166739D01*
X56532734Y-29070568D01*
X56719139Y-28940047D01*
X56880047Y-28779139D01*
X57010568Y-28592734D01*
X57037618Y-28534724D01*
X57083790Y-28482285D01*
X57150983Y-28463133D01*
X57217865Y-28483348D01*
X57262382Y-28534725D01*
X57289431Y-28592733D01*
X57419953Y-28779140D01*
X57580859Y-28940046D01*
X57767264Y-29070567D01*
X57767265Y-29070567D01*
X57767266Y-29070568D01*
X57973504Y-29166739D01*
X58193308Y-29225635D01*
X58420000Y-29245468D01*
X58646692Y-29225635D01*
X58866496Y-29166739D01*
X59072734Y-29070568D01*
X59259139Y-28940047D01*
X59420047Y-28779139D01*
X59550568Y-28592734D01*
X59577618Y-28534724D01*
X59623790Y-28482285D01*
X59690983Y-28463133D01*
X59757865Y-28483348D01*
X59802382Y-28534725D01*
X59829431Y-28592733D01*
X59959953Y-28779140D01*
X60120859Y-28940046D01*
X60307264Y-29070567D01*
X60307265Y-29070567D01*
X60307266Y-29070568D01*
X60513504Y-29166739D01*
X60733308Y-29225635D01*
X60960000Y-29245468D01*
X61186692Y-29225635D01*
X61406496Y-29166739D01*
X61612734Y-29070568D01*
X61799139Y-28940047D01*
X61960047Y-28779139D01*
X62090568Y-28592734D01*
X62186739Y-28386496D01*
X62245635Y-28166692D01*
X62265468Y-27940000D01*
X62245635Y-27713308D01*
X62186739Y-27493504D01*
X62090568Y-27287266D01*
X62012856Y-27176280D01*
X61960046Y-27100859D01*
X61799140Y-26939953D01*
X61612733Y-26809431D01*
X61571727Y-26790310D01*
X61554724Y-26782381D01*
X61502285Y-26736210D01*
X61483133Y-26669017D01*
X61503348Y-26602135D01*
X61554725Y-26557618D01*
X61612734Y-26530568D01*
X61799139Y-26400047D01*
X61960047Y-26239139D01*
X62090568Y-26052734D01*
X62186739Y-25846496D01*
X62245635Y-25626692D01*
X62265468Y-25400000D01*
X62245635Y-25173308D01*
X62186739Y-24953504D01*
X62090568Y-24747266D01*
X61960047Y-24560861D01*
X61960046Y-24560859D01*
X61799140Y-24399953D01*
X61612735Y-24269432D01*
X61406497Y-24173261D01*
X61186689Y-24114364D01*
X60960000Y-24094531D01*
X60733310Y-24114364D01*
X60513502Y-24173261D01*
X60307264Y-24269432D01*
X60120859Y-24399953D01*
X59959953Y-24560859D01*
X59829433Y-24747263D01*
X59802382Y-24805275D01*
X59756209Y-24857714D01*
X59689015Y-24876865D01*
X59622134Y-24856649D01*
X59577618Y-24805275D01*
X59577617Y-24805273D01*
X59550568Y-24747266D01*
X59420047Y-24560861D01*
X59420046Y-24560859D01*
X59259140Y-24399953D01*
X59072735Y-24269432D01*
X58866497Y-24173261D01*
X58646689Y-24114364D01*
X58420000Y-24094531D01*
X58193310Y-24114364D01*
X57973502Y-24173261D01*
X57767264Y-24269432D01*
X57580859Y-24399953D01*
X57419953Y-24560859D01*
X57289433Y-24747263D01*
X57262382Y-24805275D01*
X57216209Y-24857714D01*
X57149015Y-24876865D01*
X57082134Y-24856649D01*
X57037618Y-24805275D01*
X57037617Y-24805273D01*
X57010568Y-24747266D01*
X56880047Y-24560861D01*
X56880046Y-24560859D01*
X56719140Y-24399953D01*
X56532735Y-24269432D01*
X56326497Y-24173261D01*
X56106689Y-24114364D01*
X55880000Y-24094531D01*
X55653310Y-24114364D01*
X55433502Y-24173261D01*
X55227264Y-24269432D01*
X55040859Y-24399953D01*
X54879953Y-24560859D01*
X54749433Y-24747263D01*
X54722382Y-24805275D01*
X54676209Y-24857714D01*
X54609015Y-24876865D01*
X54542134Y-24856649D01*
X54497618Y-24805275D01*
X54497617Y-24805273D01*
X54470568Y-24747266D01*
X54340047Y-24560861D01*
X54340046Y-24560859D01*
X54179140Y-24399953D01*
X53992735Y-24269432D01*
X53786497Y-24173261D01*
X53566689Y-24114364D01*
X53340000Y-24094531D01*
X53113310Y-24114364D01*
X52893502Y-24173261D01*
X52687264Y-24269432D01*
X52500859Y-24399953D01*
X52339953Y-24560859D01*
X52209433Y-24747263D01*
X52182382Y-24805275D01*
X52136209Y-24857714D01*
X52069015Y-24876865D01*
X52002134Y-24856649D01*
X51957618Y-24805275D01*
X51957617Y-24805273D01*
X51930568Y-24747266D01*
X51800047Y-24560861D01*
X51800046Y-24560859D01*
X51639140Y-24399953D01*
X51452735Y-24269432D01*
X51246497Y-24173261D01*
X51026689Y-24114364D01*
X50800000Y-24094531D01*
X50573310Y-24114364D01*
X50353502Y-24173261D01*
X50147264Y-24269432D01*
X49960859Y-24399953D01*
X49799953Y-24560859D01*
X49669431Y-24747266D01*
X49642380Y-24805276D01*
X49596207Y-24857714D01*
X49529013Y-24876865D01*
X49462132Y-24856648D01*
X49417617Y-24805273D01*
X49390568Y-24747266D01*
X49260046Y-24560859D01*
X49099140Y-24399953D01*
X48912735Y-24269432D01*
X48706497Y-24173261D01*
X48486689Y-24114364D01*
X48260000Y-24094531D01*
X48033310Y-24114364D01*
X47813502Y-24173261D01*
X47607264Y-24269432D01*
X47420859Y-24399953D01*
X47259953Y-24560859D01*
X47129433Y-24747263D01*
X47102382Y-24805275D01*
X47056209Y-24857714D01*
X46989015Y-24876865D01*
X46922134Y-24856649D01*
X46877618Y-24805275D01*
X46877617Y-24805273D01*
X46850568Y-24747266D01*
X46720047Y-24560861D01*
X46720046Y-24560859D01*
X46559140Y-24399953D01*
X46372735Y-24269432D01*
X46166497Y-24173261D01*
X45946689Y-24114364D01*
X45720000Y-24094531D01*
X45493310Y-24114364D01*
X45273502Y-24173261D01*
X45067264Y-24269432D01*
X44880859Y-24399953D01*
X44719953Y-24560859D01*
X44589433Y-24747263D01*
X44562382Y-24805275D01*
X44516209Y-24857714D01*
X44449015Y-24876865D01*
X44382134Y-24856649D01*
X44337618Y-24805275D01*
X44337617Y-24805273D01*
X44310568Y-24747266D01*
X44180047Y-24560861D01*
X44180046Y-24560859D01*
X44019140Y-24399953D01*
X43832735Y-24269432D01*
X43626497Y-24173261D01*
X43406689Y-24114364D01*
X43180000Y-24094531D01*
X42953310Y-24114364D01*
X42733502Y-24173261D01*
X42527264Y-24269432D01*
X42340859Y-24399953D01*
X42179953Y-24560859D01*
X42049433Y-24747263D01*
X42022382Y-24805275D01*
X41976209Y-24857714D01*
X41909015Y-24876865D01*
X41842134Y-24856649D01*
X41797618Y-24805275D01*
X41797617Y-24805273D01*
X41770568Y-24747266D01*
X41640047Y-24560861D01*
X41640046Y-24560859D01*
X41479140Y-24399953D01*
X41292735Y-24269432D01*
X41086497Y-24173261D01*
X40866689Y-24114364D01*
X40640000Y-24094531D01*
X40413310Y-24114364D01*
X40193502Y-24173261D01*
X39987265Y-24269432D01*
X39798315Y-24401734D01*
X39732109Y-24424061D01*
X39664342Y-24407049D01*
X39616529Y-24356101D01*
X39603299Y-24305282D01*
X39601816Y-24269432D01*
X39600606Y-24240164D01*
X39600500Y-24235040D01*
X39600500Y-24209131D01*
X39600500Y-24206563D01*
X39598147Y-24178170D01*
X39597830Y-24173068D01*
X39595402Y-24114364D01*
X39594080Y-24082393D01*
X39589262Y-24059420D01*
X39587046Y-24044211D01*
X39585108Y-24020809D01*
X39562821Y-23932800D01*
X39561669Y-23927820D01*
X39543049Y-23839016D01*
X39534512Y-23817138D01*
X39529829Y-23802519D01*
X39524063Y-23779749D01*
X39487596Y-23696613D01*
X39485650Y-23691916D01*
X39452655Y-23607356D01*
X39440635Y-23587183D01*
X39433609Y-23573535D01*
X39424173Y-23552023D01*
X39374527Y-23476034D01*
X39371825Y-23471705D01*
X39325366Y-23393736D01*
X39310185Y-23375812D01*
X39301003Y-23363497D01*
X39288164Y-23343845D01*
X39226692Y-23277069D01*
X39223300Y-23273227D01*
X39206563Y-23253465D01*
X39206548Y-23253449D01*
X39204901Y-23251504D01*
X39184782Y-23231385D01*
X39181233Y-23227687D01*
X39119744Y-23160892D01*
X39101202Y-23146460D01*
X39089692Y-23136295D01*
X38363705Y-22410307D01*
X38353532Y-22398787D01*
X38339110Y-22380258D01*
X38272323Y-22318776D01*
X38268625Y-22315227D01*
X38250309Y-22296911D01*
X38248496Y-22295098D01*
X38226758Y-22276687D01*
X38222916Y-22273293D01*
X38156158Y-22211837D01*
X38136495Y-22198991D01*
X38124181Y-22189808D01*
X38106264Y-22174634D01*
X38028260Y-22128153D01*
X38023979Y-22125481D01*
X37972648Y-22091945D01*
X37947973Y-22075824D01*
X37926477Y-22066395D01*
X37912818Y-22059364D01*
X37892645Y-22047344D01*
X37840323Y-22026928D01*
X37808087Y-22014349D01*
X37803374Y-22012397D01*
X37775702Y-22000260D01*
X37720250Y-21975936D01*
X37697484Y-21970171D01*
X37682855Y-21965484D01*
X37660984Y-21956950D01*
X37572163Y-21938325D01*
X37567173Y-21937171D01*
X37479189Y-21914891D01*
X37455791Y-21912952D01*
X37440593Y-21910738D01*
X37417607Y-21905919D01*
X37395858Y-21905019D01*
X37326929Y-21902168D01*
X37321818Y-21901851D01*
X37295979Y-21899710D01*
X37295964Y-21899709D01*
X37293437Y-21899500D01*
X37290884Y-21899500D01*
X37264966Y-21899500D01*
X37259843Y-21899394D01*
X37256071Y-21899238D01*
X37169150Y-21895642D01*
X37145843Y-21898548D01*
X37130505Y-21899500D01*
X10800865Y-21899500D01*
X10785527Y-21898548D01*
X10762219Y-21895642D01*
X10675160Y-21899243D01*
X10671526Y-21899394D01*
X10666404Y-21899500D01*
X10637933Y-21899500D01*
X10635406Y-21899709D01*
X10635390Y-21899710D01*
X10609551Y-21901851D01*
X10604440Y-21902168D01*
X10513762Y-21905919D01*
X10513763Y-21905919D01*
X10490776Y-21910738D01*
X10475579Y-21912952D01*
X10452180Y-21914891D01*
X10364215Y-21937166D01*
X10359225Y-21938320D01*
X10270385Y-21956949D01*
X10248501Y-21965488D01*
X10233874Y-21970174D01*
X10211116Y-21975937D01*
X10128023Y-22012385D01*
X10123291Y-22014346D01*
X10038723Y-22047345D01*
X10018547Y-22059367D01*
X10004895Y-22066394D01*
X9983396Y-22075825D01*
X9907410Y-22125468D01*
X9903065Y-22128180D01*
X9825104Y-22174635D01*
X9807183Y-22189813D01*
X9794868Y-22198995D01*
X9775215Y-22211835D01*
X9708447Y-22273299D01*
X9704613Y-22276685D01*
X9682874Y-22295098D01*
X9681059Y-22296911D01*
X9681061Y-22296911D01*
X9662738Y-22315233D01*
X9659045Y-22318775D01*
X9592262Y-22380254D01*
X9577832Y-22398793D01*
X9567664Y-22410306D01*
X6930306Y-25047664D01*
X6918793Y-25057832D01*
X6900254Y-25072262D01*
X6838775Y-25139045D01*
X6835233Y-25142738D01*
X6815098Y-25162874D01*
X6813437Y-25164834D01*
X6813437Y-25164835D01*
X6796689Y-25184609D01*
X6793299Y-25188447D01*
X6731835Y-25255215D01*
X6718995Y-25274868D01*
X6709813Y-25287183D01*
X6694636Y-25305102D01*
X6648174Y-25383074D01*
X6645462Y-25387417D01*
X6595826Y-25463392D01*
X6586396Y-25484891D01*
X6579368Y-25498545D01*
X6567343Y-25518726D01*
X6534346Y-25603288D01*
X6532386Y-25608020D01*
X6495936Y-25691120D01*
X6490169Y-25713890D01*
X6485484Y-25728515D01*
X6476951Y-25750385D01*
X6458324Y-25839211D01*
X6457170Y-25844200D01*
X6434891Y-25932180D01*
X6432952Y-25955578D01*
X6430738Y-25970777D01*
X6425919Y-25993762D01*
X6422168Y-26084440D01*
X6421851Y-26089551D01*
X6419710Y-26115390D01*
X6419709Y-26115406D01*
X6419500Y-26117933D01*
X6419500Y-26120486D01*
X6419500Y-26146402D01*
X6419394Y-26151527D01*
X6415642Y-26242219D01*
X6418548Y-26265526D01*
X6419500Y-26280864D01*
X6419500Y-31807604D01*
X6399815Y-31874643D01*
X6347011Y-31920398D01*
X6277853Y-31930342D01*
X6272717Y-31929493D01*
X6221931Y-31920000D01*
X6018072Y-31920000D01*
X5817679Y-31957459D01*
X5627589Y-32031100D01*
X5539310Y-32085758D01*
X6120000Y-32666447D01*
X6173553Y-32720000D01*
X6092198Y-32720000D01*
X6009750Y-32735412D01*
X5914390Y-32794457D01*
X5846799Y-32883962D01*
X5816105Y-32991840D01*
X5826454Y-33103521D01*
X5876448Y-33203922D01*
X5959334Y-33279484D01*
X6063920Y-33320000D01*
X6147802Y-33320000D01*
X6179470Y-33314080D01*
X5539310Y-33954240D01*
X5627588Y-34008899D01*
X5817679Y-34082540D01*
X6018072Y-34120000D01*
X6221926Y-34120000D01*
X6272713Y-34110506D01*
X6342228Y-34117537D01*
X6396907Y-34161034D01*
X6419390Y-34227188D01*
X6419499Y-34232395D01*
X6419499Y-36744136D01*
X6399814Y-36811175D01*
X6347010Y-36856930D01*
X6277852Y-36866874D01*
X6221188Y-36843403D01*
X6172089Y-36806647D01*
X6037371Y-36756400D01*
X5981132Y-36750354D01*
X5974518Y-36750000D01*
X5330000Y-36750000D01*
X5330000Y-37664498D01*
X5222315Y-37615320D01*
X5115763Y-37600000D01*
X5044237Y-37600000D01*
X4937685Y-37615320D01*
X4830000Y-37664498D01*
X4830000Y-36750000D01*
X4185482Y-36750000D01*
X4178867Y-36750354D01*
X4122628Y-36756400D01*
X3987910Y-36806647D01*
X3872811Y-36892811D01*
X3786647Y-37007910D01*
X3736400Y-37142628D01*
X3730354Y-37198867D01*
X3730000Y-37205481D01*
X3730000Y-37850000D01*
X4646314Y-37850000D01*
X4620507Y-37890156D01*
X4580000Y-38028111D01*
X4580000Y-38171889D01*
X4620507Y-38309844D01*
X4646314Y-38350000D01*
X3730000Y-38350000D01*
X3730000Y-38994518D01*
X1270000Y-38994518D01*
X1270000Y-33020000D01*
X5015287Y-33020000D01*
X5034096Y-33222992D01*
X5089885Y-33419068D01*
X5180751Y-33601552D01*
X5182532Y-33603912D01*
X5182533Y-33603913D01*
X5766447Y-33020000D01*
X5766447Y-33019999D01*
X5182533Y-32436085D01*
X5180753Y-32438444D01*
X5089884Y-32620933D01*
X5034096Y-32817007D01*
X5015287Y-33020000D01*
X1270000Y-33020000D01*
X1270000Y-10160000D01*
X11394531Y-10160000D01*
X11414364Y-10386689D01*
X11473261Y-10606497D01*
X11569432Y-10812735D01*
X11699953Y-10999140D01*
X11860859Y-11160046D01*
X12047264Y-11290567D01*
X12047265Y-11290567D01*
X12047266Y-11290568D01*
X12253504Y-11386739D01*
X12473308Y-11445635D01*
X12700000Y-11465468D01*
X12926692Y-11445635D01*
X13146496Y-11386739D01*
X13352734Y-11290568D01*
X13539139Y-11160047D01*
X13700047Y-10999139D01*
X13830568Y-10812734D01*
X13857618Y-10754724D01*
X13903790Y-10702285D01*
X13970983Y-10683133D01*
X14037865Y-10703348D01*
X14082382Y-10754725D01*
X14109431Y-10812733D01*
X14239953Y-10999140D01*
X14400859Y-11160046D01*
X14587264Y-11290567D01*
X14587265Y-11290567D01*
X14587266Y-11290568D01*
X14793504Y-11386739D01*
X15013308Y-11445635D01*
X15240000Y-11465468D01*
X15466692Y-11445635D01*
X15686496Y-11386739D01*
X15892734Y-11290568D01*
X16079139Y-11160047D01*
X16240047Y-10999139D01*
X16370568Y-10812734D01*
X16397618Y-10754724D01*
X16443790Y-10702285D01*
X16510983Y-10683133D01*
X16577865Y-10703348D01*
X16622382Y-10754725D01*
X16649431Y-10812733D01*
X16779953Y-10999140D01*
X16940859Y-11160046D01*
X17127264Y-11290567D01*
X17127265Y-11290567D01*
X17127266Y-11290568D01*
X17333504Y-11386739D01*
X17553308Y-11445635D01*
X17780000Y-11465468D01*
X18006692Y-11445635D01*
X18226496Y-11386739D01*
X18432734Y-11290568D01*
X18619139Y-11160047D01*
X18780047Y-10999139D01*
X18910568Y-10812734D01*
X18937619Y-10754721D01*
X18983788Y-10702286D01*
X19050981Y-10683133D01*
X19117862Y-10703348D01*
X19162380Y-10754722D01*
X19189432Y-10812733D01*
X19189433Y-10812736D01*
X19319953Y-10999140D01*
X19480859Y-11160046D01*
X19667264Y-11290567D01*
X19667265Y-11290567D01*
X19667266Y-11290568D01*
X19873504Y-11386739D01*
X20093308Y-11445635D01*
X20320000Y-11465468D01*
X20546692Y-11445635D01*
X20766496Y-11386739D01*
X20972734Y-11290568D01*
X21159139Y-11160047D01*
X21320047Y-10999139D01*
X21450568Y-10812734D01*
X21477618Y-10754724D01*
X21523790Y-10702285D01*
X21590983Y-10683133D01*
X21657865Y-10703348D01*
X21702382Y-10754725D01*
X21729431Y-10812733D01*
X21859953Y-10999140D01*
X22020859Y-11160046D01*
X22207264Y-11290567D01*
X22207265Y-11290567D01*
X22207266Y-11290568D01*
X22413504Y-11386739D01*
X22633308Y-11445635D01*
X22860000Y-11465468D01*
X23086692Y-11445635D01*
X23306496Y-11386739D01*
X23512734Y-11290568D01*
X23699139Y-11160047D01*
X23860047Y-10999139D01*
X23990568Y-10812734D01*
X24017618Y-10754724D01*
X24063790Y-10702285D01*
X24130983Y-10683133D01*
X24197865Y-10703348D01*
X24242382Y-10754725D01*
X24269431Y-10812733D01*
X24399953Y-10999140D01*
X24560859Y-11160046D01*
X24747264Y-11290567D01*
X24747265Y-11290567D01*
X24747266Y-11290568D01*
X24953504Y-11386739D01*
X25173308Y-11445635D01*
X25400000Y-11465468D01*
X25626692Y-11445635D01*
X25846496Y-11386739D01*
X26052734Y-11290568D01*
X26239139Y-11160047D01*
X26400047Y-10999139D01*
X26530568Y-10812734D01*
X26557618Y-10754724D01*
X26603790Y-10702285D01*
X26670983Y-10683133D01*
X26737865Y-10703348D01*
X26782382Y-10754725D01*
X26809431Y-10812733D01*
X26939953Y-10999140D01*
X27100859Y-11160046D01*
X27287264Y-11290567D01*
X27287265Y-11290567D01*
X27287266Y-11290568D01*
X27493504Y-11386739D01*
X27713308Y-11445635D01*
X27940000Y-11465468D01*
X28166692Y-11445635D01*
X28386496Y-11386739D01*
X28592734Y-11290568D01*
X28779139Y-11160047D01*
X28940047Y-10999139D01*
X29070568Y-10812734D01*
X29097619Y-10754721D01*
X29143788Y-10702286D01*
X29210981Y-10683133D01*
X29277862Y-10703348D01*
X29322380Y-10754722D01*
X29349432Y-10812733D01*
X29349433Y-10812736D01*
X29479953Y-10999140D01*
X29640859Y-11160046D01*
X29827264Y-11290567D01*
X29827265Y-11290567D01*
X29827266Y-11290568D01*
X30033504Y-11386739D01*
X30253308Y-11445635D01*
X30480000Y-11465468D01*
X30706692Y-11445635D01*
X30926496Y-11386739D01*
X31132734Y-11290568D01*
X31319139Y-11160047D01*
X31480047Y-10999139D01*
X31610568Y-10812734D01*
X31637619Y-10754721D01*
X31683788Y-10702286D01*
X31750981Y-10683133D01*
X31817862Y-10703348D01*
X31862380Y-10754722D01*
X31889432Y-10812733D01*
X31889433Y-10812736D01*
X32019953Y-10999140D01*
X32180859Y-11160046D01*
X32367264Y-11290567D01*
X32367265Y-11290567D01*
X32367266Y-11290568D01*
X32573504Y-11386739D01*
X32793308Y-11445635D01*
X33020000Y-11465468D01*
X33246692Y-11445635D01*
X33466496Y-11386739D01*
X33672734Y-11290568D01*
X33859139Y-11160047D01*
X34020047Y-10999139D01*
X34150568Y-10812734D01*
X34177618Y-10754724D01*
X34223790Y-10702285D01*
X34290983Y-10683133D01*
X34357865Y-10703348D01*
X34402382Y-10754725D01*
X34429431Y-10812733D01*
X34559953Y-10999140D01*
X34720859Y-11160046D01*
X34907264Y-11290567D01*
X34907265Y-11290567D01*
X34907266Y-11290568D01*
X35113504Y-11386739D01*
X35333308Y-11445635D01*
X35560000Y-11465468D01*
X35786692Y-11445635D01*
X36006496Y-11386739D01*
X36212734Y-11290568D01*
X36399139Y-11160047D01*
X36560047Y-10999139D01*
X36690568Y-10812734D01*
X36717618Y-10754724D01*
X36763790Y-10702285D01*
X36830983Y-10683133D01*
X36897865Y-10703348D01*
X36942382Y-10754725D01*
X36969431Y-10812733D01*
X37099953Y-10999140D01*
X37260859Y-11160046D01*
X37447264Y-11290567D01*
X37447265Y-11290567D01*
X37447266Y-11290568D01*
X37653504Y-11386739D01*
X37873308Y-11445635D01*
X38100000Y-11465468D01*
X38326692Y-11445635D01*
X38546496Y-11386739D01*
X38752734Y-11290568D01*
X38939139Y-11160047D01*
X39100047Y-10999139D01*
X39230568Y-10812734D01*
X39257893Y-10754134D01*
X39304065Y-10701695D01*
X39371258Y-10682543D01*
X39438139Y-10702758D01*
X39482657Y-10754133D01*
X39509866Y-10812482D01*
X39640341Y-10998819D01*
X39801180Y-11159658D01*
X39987519Y-11290134D01*
X40193673Y-11386266D01*
X40389999Y-11438871D01*
X40390000Y-11438871D01*
X40390000Y-10475685D01*
X40401955Y-10487641D01*
X40514852Y-10545165D01*
X40608519Y-10560000D01*
X40671481Y-10560000D01*
X40765148Y-10545165D01*
X40878045Y-10487641D01*
X40890000Y-10475686D01*
X40890000Y-11438871D01*
X41086326Y-11386266D01*
X41292480Y-11290134D01*
X41478819Y-11159658D01*
X41639658Y-10998819D01*
X41770135Y-10812479D01*
X41797342Y-10754135D01*
X41843514Y-10701695D01*
X41910707Y-10682543D01*
X41977589Y-10702758D01*
X42022105Y-10754132D01*
X42049432Y-10812733D01*
X42049433Y-10812736D01*
X42179953Y-10999140D01*
X42340859Y-11160046D01*
X42527264Y-11290567D01*
X42527265Y-11290567D01*
X42527266Y-11290568D01*
X42733504Y-11386739D01*
X42953308Y-11445635D01*
X43180000Y-11465468D01*
X43406692Y-11445635D01*
X43626496Y-11386739D01*
X43832734Y-11290568D01*
X44019139Y-11160047D01*
X44180047Y-10999139D01*
X44310568Y-10812734D01*
X44337619Y-10754721D01*
X44383788Y-10702286D01*
X44450981Y-10683133D01*
X44517862Y-10703348D01*
X44562380Y-10754722D01*
X44589432Y-10812733D01*
X44589433Y-10812736D01*
X44719953Y-10999140D01*
X44880859Y-11160046D01*
X45067264Y-11290567D01*
X45067265Y-11290567D01*
X45067266Y-11290568D01*
X45273504Y-11386739D01*
X45493308Y-11445635D01*
X45720000Y-11465468D01*
X45946692Y-11445635D01*
X46166496Y-11386739D01*
X46372734Y-11290568D01*
X46559139Y-11160047D01*
X46720047Y-10999139D01*
X46850568Y-10812734D01*
X46877618Y-10754724D01*
X46923790Y-10702285D01*
X46990983Y-10683133D01*
X47057865Y-10703348D01*
X47102382Y-10754725D01*
X47129431Y-10812733D01*
X47259953Y-10999140D01*
X47420859Y-11160046D01*
X47607264Y-11290567D01*
X47607265Y-11290567D01*
X47607266Y-11290568D01*
X47813504Y-11386739D01*
X48033308Y-11445635D01*
X48260000Y-11465468D01*
X48486692Y-11445635D01*
X48706496Y-11386739D01*
X48912734Y-11290568D01*
X49099139Y-11160047D01*
X49260047Y-10999139D01*
X49390568Y-10812734D01*
X49417618Y-10754724D01*
X49463790Y-10702285D01*
X49530983Y-10683133D01*
X49597865Y-10703348D01*
X49642382Y-10754725D01*
X49669431Y-10812733D01*
X49799953Y-10999140D01*
X49960859Y-11160046D01*
X50147264Y-11290567D01*
X50147265Y-11290567D01*
X50147266Y-11290568D01*
X50353504Y-11386739D01*
X50573308Y-11445635D01*
X50800000Y-11465468D01*
X51026692Y-11445635D01*
X51246496Y-11386739D01*
X51452734Y-11290568D01*
X51639139Y-11160047D01*
X51800047Y-10999139D01*
X51930568Y-10812734D01*
X51957618Y-10754724D01*
X52003790Y-10702285D01*
X52070983Y-10683133D01*
X52137865Y-10703348D01*
X52182382Y-10754725D01*
X52209431Y-10812733D01*
X52339953Y-10999140D01*
X52500859Y-11160046D01*
X52687264Y-11290567D01*
X52687265Y-11290567D01*
X52687266Y-11290568D01*
X52893504Y-11386739D01*
X53113308Y-11445635D01*
X53340000Y-11465468D01*
X53566692Y-11445635D01*
X53786496Y-11386739D01*
X53992734Y-11290568D01*
X54179139Y-11160047D01*
X54340047Y-10999139D01*
X54470568Y-10812734D01*
X54497618Y-10754724D01*
X54543790Y-10702285D01*
X54610983Y-10683133D01*
X54677865Y-10703348D01*
X54722382Y-10754725D01*
X54749431Y-10812733D01*
X54879953Y-10999140D01*
X55040859Y-11160046D01*
X55227264Y-11290567D01*
X55227265Y-11290567D01*
X55227266Y-11290568D01*
X55433504Y-11386739D01*
X55653308Y-11445635D01*
X55880000Y-11465468D01*
X56106692Y-11445635D01*
X56326496Y-11386739D01*
X56532734Y-11290568D01*
X56719139Y-11160047D01*
X56880047Y-10999139D01*
X57010568Y-10812734D01*
X57037618Y-10754724D01*
X57083790Y-10702285D01*
X57150983Y-10683133D01*
X57217865Y-10703348D01*
X57262382Y-10754725D01*
X57289431Y-10812733D01*
X57419953Y-10999140D01*
X57580859Y-11160046D01*
X57767264Y-11290567D01*
X57767265Y-11290567D01*
X57767266Y-11290568D01*
X57973504Y-11386739D01*
X58193308Y-11445635D01*
X58420000Y-11465468D01*
X58646692Y-11445635D01*
X58866496Y-11386739D01*
X59072734Y-11290568D01*
X59259139Y-11160047D01*
X59420047Y-10999139D01*
X59550568Y-10812734D01*
X59577618Y-10754724D01*
X59623790Y-10702285D01*
X59690983Y-10683133D01*
X59757865Y-10703348D01*
X59802382Y-10754725D01*
X59829431Y-10812733D01*
X59959953Y-10999140D01*
X60120859Y-11160046D01*
X60307264Y-11290567D01*
X60307265Y-11290567D01*
X60307266Y-11290568D01*
X60513504Y-11386739D01*
X60733308Y-11445635D01*
X60960000Y-11465468D01*
X61186692Y-11445635D01*
X61406496Y-11386739D01*
X61612734Y-11290568D01*
X61799139Y-11160047D01*
X61960047Y-10999139D01*
X62090568Y-10812734D01*
X62186739Y-10606496D01*
X62245635Y-10386692D01*
X62265468Y-10160000D01*
X62245635Y-9933308D01*
X62186739Y-9713504D01*
X62090568Y-9507266D01*
X61960271Y-9321180D01*
X61960046Y-9320859D01*
X61799140Y-9159953D01*
X61612733Y-9029431D01*
X61554725Y-9002382D01*
X61502285Y-8956210D01*
X61483133Y-8889017D01*
X61503348Y-8822135D01*
X61554725Y-8777618D01*
X61612734Y-8750568D01*
X61799139Y-8620047D01*
X61960047Y-8459139D01*
X62090568Y-8272734D01*
X62186739Y-8066496D01*
X62245635Y-7846692D01*
X62265468Y-7620000D01*
X62245635Y-7393308D01*
X62186739Y-7173504D01*
X62090568Y-6967266D01*
X61994805Y-6830500D01*
X61960046Y-6780859D01*
X61799140Y-6619953D01*
X61612735Y-6489432D01*
X61406497Y-6393261D01*
X61186689Y-6334364D01*
X60960000Y-6314531D01*
X60733310Y-6334364D01*
X60513502Y-6393261D01*
X60307264Y-6489432D01*
X60120859Y-6619953D01*
X59959953Y-6780859D01*
X59829433Y-6967263D01*
X59802382Y-7025275D01*
X59756209Y-7077714D01*
X59689015Y-7096865D01*
X59622134Y-7076649D01*
X59577618Y-7025275D01*
X59550687Y-6967522D01*
X59550568Y-6967266D01*
X59550566Y-6967263D01*
X59420046Y-6780859D01*
X59259140Y-6619953D01*
X59072735Y-6489432D01*
X58866497Y-6393261D01*
X58646689Y-6334364D01*
X58420000Y-6314531D01*
X58193310Y-6334364D01*
X57973502Y-6393261D01*
X57767264Y-6489432D01*
X57580859Y-6619953D01*
X57419953Y-6780859D01*
X57289433Y-6967263D01*
X57262382Y-7025275D01*
X57216209Y-7077714D01*
X57149015Y-7096865D01*
X57082134Y-7076649D01*
X57037618Y-7025275D01*
X57010687Y-6967522D01*
X57010568Y-6967266D01*
X57010566Y-6967263D01*
X56880046Y-6780859D01*
X56719140Y-6619953D01*
X56532735Y-6489432D01*
X56326497Y-6393261D01*
X56106689Y-6334364D01*
X55880000Y-6314531D01*
X55653310Y-6334364D01*
X55433502Y-6393261D01*
X55227264Y-6489432D01*
X55040859Y-6619953D01*
X54879953Y-6780859D01*
X54749431Y-6967266D01*
X54722380Y-7025276D01*
X54676207Y-7077714D01*
X54609013Y-7096865D01*
X54542132Y-7076648D01*
X54497617Y-7025273D01*
X54470568Y-6967266D01*
X54340046Y-6780859D01*
X54179140Y-6619953D01*
X53992735Y-6489432D01*
X53786497Y-6393261D01*
X53566689Y-6334364D01*
X53340000Y-6314531D01*
X53113310Y-6334364D01*
X52893502Y-6393261D01*
X52687264Y-6489432D01*
X52500859Y-6619953D01*
X52339953Y-6780859D01*
X52209433Y-6967263D01*
X52182382Y-7025275D01*
X52136209Y-7077714D01*
X52069015Y-7096865D01*
X52002134Y-7076649D01*
X51957618Y-7025275D01*
X51930687Y-6967522D01*
X51930568Y-6967266D01*
X51930566Y-6967263D01*
X51800046Y-6780859D01*
X51639140Y-6619953D01*
X51452735Y-6489432D01*
X51246497Y-6393261D01*
X51026689Y-6334364D01*
X50800000Y-6314531D01*
X50573310Y-6334364D01*
X50353502Y-6393261D01*
X50147264Y-6489432D01*
X49960859Y-6619953D01*
X49799953Y-6780859D01*
X49669431Y-6967266D01*
X49642380Y-7025276D01*
X49596207Y-7077714D01*
X49529013Y-7096865D01*
X49462132Y-7076648D01*
X49417617Y-7025273D01*
X49390568Y-6967266D01*
X49260046Y-6780859D01*
X49099140Y-6619953D01*
X48912735Y-6489432D01*
X48706497Y-6393261D01*
X48486689Y-6334364D01*
X48260000Y-6314531D01*
X48033310Y-6334364D01*
X47813502Y-6393261D01*
X47607264Y-6489432D01*
X47420859Y-6619953D01*
X47259953Y-6780859D01*
X47129433Y-6967263D01*
X47102382Y-7025275D01*
X47056209Y-7077714D01*
X46989015Y-7096865D01*
X46922134Y-7076649D01*
X46877618Y-7025275D01*
X46850687Y-6967522D01*
X46850568Y-6967266D01*
X46850566Y-6967263D01*
X46720046Y-6780859D01*
X46559140Y-6619953D01*
X46372735Y-6489432D01*
X46166497Y-6393261D01*
X45946689Y-6334364D01*
X45720000Y-6314531D01*
X45493310Y-6334364D01*
X45273502Y-6393261D01*
X45067264Y-6489432D01*
X44880859Y-6619953D01*
X44719953Y-6780859D01*
X44589433Y-6967263D01*
X44562382Y-7025275D01*
X44516209Y-7077714D01*
X44449015Y-7096865D01*
X44382134Y-7076649D01*
X44337618Y-7025275D01*
X44310687Y-6967522D01*
X44310568Y-6967266D01*
X44310566Y-6967263D01*
X44180046Y-6780859D01*
X44019140Y-6619953D01*
X43832735Y-6489432D01*
X43626497Y-6393261D01*
X43406689Y-6334364D01*
X43180000Y-6314531D01*
X42953310Y-6334364D01*
X42733502Y-6393261D01*
X42527264Y-6489432D01*
X42340859Y-6619953D01*
X42179953Y-6780859D01*
X42049430Y-6967267D01*
X42022105Y-7025866D01*
X41975932Y-7078305D01*
X41908739Y-7097456D01*
X41841858Y-7077239D01*
X41797342Y-7025865D01*
X41770134Y-6967519D01*
X41639658Y-6781180D01*
X41478819Y-6620341D01*
X41292480Y-6489865D01*
X41086326Y-6393733D01*
X40890000Y-6341126D01*
X40890000Y-7304313D01*
X40878045Y-7292359D01*
X40765148Y-7234835D01*
X40671481Y-7220000D01*
X40608519Y-7220000D01*
X40514852Y-7234835D01*
X40401955Y-7292359D01*
X40390000Y-7304314D01*
X40390000Y-6341127D01*
X40389999Y-6341126D01*
X40193673Y-6393733D01*
X39987519Y-6489865D01*
X39801180Y-6620341D01*
X39640341Y-6781180D01*
X39509863Y-6967522D01*
X39482656Y-7025866D01*
X39436483Y-7078305D01*
X39369290Y-7097456D01*
X39302409Y-7077239D01*
X39257893Y-7025865D01*
X39257618Y-7025276D01*
X39230568Y-6967266D01*
X39134805Y-6830500D01*
X39100046Y-6780859D01*
X38939140Y-6619953D01*
X38752735Y-6489432D01*
X38546497Y-6393261D01*
X38326689Y-6334364D01*
X38100000Y-6314531D01*
X37873310Y-6334364D01*
X37653502Y-6393261D01*
X37447264Y-6489432D01*
X37260859Y-6619953D01*
X37099953Y-6780859D01*
X36969433Y-6967263D01*
X36942382Y-7025275D01*
X36896209Y-7077714D01*
X36829015Y-7096865D01*
X36762134Y-7076649D01*
X36717618Y-7025275D01*
X36690687Y-6967522D01*
X36690568Y-6967266D01*
X36690566Y-6967263D01*
X36560046Y-6780859D01*
X36399140Y-6619953D01*
X36212735Y-6489432D01*
X36006497Y-6393261D01*
X35786689Y-6334364D01*
X35560000Y-6314531D01*
X35333310Y-6334364D01*
X35113502Y-6393261D01*
X34907264Y-6489432D01*
X34720859Y-6619953D01*
X34559953Y-6780859D01*
X34429433Y-6967263D01*
X34402382Y-7025275D01*
X34356209Y-7077714D01*
X34289015Y-7096865D01*
X34222134Y-7076649D01*
X34177618Y-7025275D01*
X34150687Y-6967522D01*
X34150568Y-6967266D01*
X34150566Y-6967263D01*
X34020046Y-6780859D01*
X33859140Y-6619953D01*
X33672735Y-6489432D01*
X33466497Y-6393261D01*
X33246689Y-6334364D01*
X33020000Y-6314531D01*
X32793310Y-6334364D01*
X32573502Y-6393261D01*
X32367264Y-6489432D01*
X32180859Y-6619953D01*
X32019953Y-6780859D01*
X31889433Y-6967263D01*
X31862382Y-7025275D01*
X31816209Y-7077714D01*
X31749015Y-7096865D01*
X31682134Y-7076649D01*
X31637618Y-7025275D01*
X31610687Y-6967522D01*
X31610568Y-6967266D01*
X31610566Y-6967263D01*
X31480046Y-6780859D01*
X31319140Y-6619953D01*
X31132735Y-6489432D01*
X30926497Y-6393261D01*
X30706689Y-6334364D01*
X30480000Y-6314531D01*
X30253310Y-6334364D01*
X30033502Y-6393261D01*
X29827264Y-6489432D01*
X29640859Y-6619953D01*
X29479953Y-6780859D01*
X29349433Y-6967263D01*
X29322382Y-7025275D01*
X29276209Y-7077714D01*
X29209015Y-7096865D01*
X29142134Y-7076649D01*
X29097618Y-7025275D01*
X29070687Y-6967522D01*
X29070568Y-6967266D01*
X29070566Y-6967263D01*
X28940046Y-6780859D01*
X28779140Y-6619953D01*
X28592735Y-6489432D01*
X28386497Y-6393261D01*
X28166689Y-6334364D01*
X27940000Y-6314531D01*
X27713310Y-6334364D01*
X27493502Y-6393261D01*
X27287264Y-6489432D01*
X27100859Y-6619953D01*
X26939953Y-6780859D01*
X26809433Y-6967263D01*
X26782382Y-7025275D01*
X26736209Y-7077714D01*
X26669015Y-7096865D01*
X26602134Y-7076649D01*
X26557618Y-7025275D01*
X26530687Y-6967522D01*
X26530568Y-6967266D01*
X26530566Y-6967263D01*
X26400046Y-6780859D01*
X26239140Y-6619953D01*
X26052735Y-6489432D01*
X25846497Y-6393261D01*
X25626689Y-6334364D01*
X25400000Y-6314531D01*
X25173310Y-6334364D01*
X24953502Y-6393261D01*
X24747264Y-6489432D01*
X24560859Y-6619953D01*
X24399953Y-6780859D01*
X24269433Y-6967263D01*
X24242382Y-7025275D01*
X24196209Y-7077714D01*
X24129015Y-7096865D01*
X24062134Y-7076649D01*
X24017618Y-7025275D01*
X23990687Y-6967522D01*
X23990568Y-6967266D01*
X23990566Y-6967263D01*
X23860046Y-6780859D01*
X23699140Y-6619953D01*
X23512735Y-6489432D01*
X23306497Y-6393261D01*
X23086689Y-6334364D01*
X22860000Y-6314531D01*
X22633310Y-6334364D01*
X22413502Y-6393261D01*
X22207264Y-6489432D01*
X22020859Y-6619953D01*
X21859953Y-6780859D01*
X21729433Y-6967263D01*
X21702382Y-7025275D01*
X21656209Y-7077714D01*
X21589015Y-7096865D01*
X21522134Y-7076649D01*
X21477618Y-7025275D01*
X21450687Y-6967522D01*
X21450568Y-6967266D01*
X21450566Y-6967263D01*
X21320046Y-6780859D01*
X21159140Y-6619953D01*
X20972735Y-6489432D01*
X20766497Y-6393261D01*
X20546689Y-6334364D01*
X20320000Y-6314531D01*
X20093310Y-6334364D01*
X19873502Y-6393261D01*
X19667264Y-6489432D01*
X19480859Y-6619953D01*
X19319953Y-6780859D01*
X19189433Y-6967263D01*
X19162382Y-7025275D01*
X19116209Y-7077714D01*
X19049015Y-7096865D01*
X18982134Y-7076649D01*
X18937618Y-7025275D01*
X18910687Y-6967522D01*
X18910568Y-6967266D01*
X18910566Y-6967263D01*
X18780046Y-6780859D01*
X18619140Y-6619953D01*
X18432735Y-6489432D01*
X18226497Y-6393261D01*
X18006689Y-6334364D01*
X17780000Y-6314531D01*
X17553310Y-6334364D01*
X17333502Y-6393261D01*
X17127264Y-6489432D01*
X16940859Y-6619953D01*
X16779953Y-6780859D01*
X16649431Y-6967266D01*
X16622380Y-7025276D01*
X16576207Y-7077714D01*
X16509013Y-7096865D01*
X16442132Y-7076648D01*
X16397617Y-7025273D01*
X16370568Y-6967266D01*
X16240046Y-6780859D01*
X16079140Y-6619953D01*
X15892735Y-6489432D01*
X15686497Y-6393261D01*
X15466689Y-6334364D01*
X15240000Y-6314531D01*
X15013310Y-6334364D01*
X14793502Y-6393261D01*
X14587264Y-6489432D01*
X14400859Y-6619953D01*
X14239953Y-6780859D01*
X14109433Y-6967263D01*
X14082382Y-7025275D01*
X14036209Y-7077714D01*
X13969015Y-7096865D01*
X13902134Y-7076649D01*
X13857618Y-7025275D01*
X13830687Y-6967522D01*
X13830568Y-6967266D01*
X13830566Y-6967263D01*
X13700046Y-6780859D01*
X13539140Y-6619953D01*
X13352735Y-6489432D01*
X13146497Y-6393261D01*
X12926689Y-6334364D01*
X12700000Y-6314531D01*
X12473310Y-6334364D01*
X12253502Y-6393261D01*
X12047264Y-6489432D01*
X11860859Y-6619953D01*
X11699953Y-6780859D01*
X11569432Y-6967264D01*
X11473261Y-7173502D01*
X11414364Y-7393310D01*
X11394531Y-7620000D01*
X11414364Y-7846689D01*
X11473261Y-8066497D01*
X11569432Y-8272735D01*
X11699953Y-8459140D01*
X11860859Y-8620046D01*
X12047263Y-8750566D01*
X12047266Y-8750568D01*
X12105275Y-8777618D01*
X12157714Y-8823791D01*
X12176865Y-8890985D01*
X12156649Y-8957866D01*
X12105275Y-9002382D01*
X12047263Y-9029433D01*
X11860859Y-9159953D01*
X11699953Y-9320859D01*
X11569432Y-9507264D01*
X11473261Y-9713502D01*
X11414364Y-9933310D01*
X11394531Y-10160000D01*
X1270000Y-10160000D01*
X1270000Y-9014000D01*
X1289685Y-8946961D01*
X1342489Y-8901206D01*
X1394000Y-8890000D01*
X6350000Y-8890000D01*
X8890000Y-6350000D01*
X8890000Y-1394000D01*
X8909685Y-1326961D01*
X8962489Y-1281206D01*
X9014000Y-1270000D01*
X64646000Y-1270000D01*
X64713039Y-1289685D01*
G37*
%TD.AperFunction*%
%TD*%
M02*
