%TF.GenerationSoftware,KiCad,Pcbnew,8.0.4*%
%TF.CreationDate,2024-08-20T14:56:35+09:00*%
%TF.ProjectId,TangNano8008MEM,54616e67-4e61-46e6-9f38-3030384d454d,rev?*%
%TF.SameCoordinates,Original*%
%TF.FileFunction,Copper,L1,Top*%
%TF.FilePolarity,Positive*%
%FSLAX46Y46*%
G04 Gerber Fmt 4.6, Leading zero omitted, Abs format (unit mm)*
G04 Created by KiCad (PCBNEW 8.0.4) date 2024-08-20 14:56:35*
%MOMM*%
%LPD*%
G01*
G04 APERTURE LIST*
%TA.AperFunction,ComponentPad*%
%ADD10R,1.600000X1.600000*%
%TD*%
%TA.AperFunction,ComponentPad*%
%ADD11O,1.600000X1.600000*%
%TD*%
%TA.AperFunction,ComponentPad*%
%ADD12C,1.600000*%
%TD*%
%TA.AperFunction,ComponentPad*%
%ADD13R,1.800000X1.800000*%
%TD*%
%TA.AperFunction,ComponentPad*%
%ADD14C,1.800000*%
%TD*%
%TA.AperFunction,ComponentPad*%
%ADD15R,1.450000X1.450000*%
%TD*%
%TA.AperFunction,ComponentPad*%
%ADD16C,1.450000*%
%TD*%
%TA.AperFunction,ComponentPad*%
%ADD17R,1.440000X2.000000*%
%TD*%
%TA.AperFunction,ComponentPad*%
%ADD18O,1.440000X2.000000*%
%TD*%
%TA.AperFunction,ViaPad*%
%ADD19C,0.800000*%
%TD*%
%TA.AperFunction,Conductor*%
%ADD20C,0.250000*%
%TD*%
%TA.AperFunction,Conductor*%
%ADD21C,2.500000*%
%TD*%
%TA.AperFunction,Conductor*%
%ADD22C,0.500000*%
%TD*%
G04 APERTURE END LIST*
D10*
%TO.P,D7,1,K*%
%TO.N,D1*%
X58420000Y-30480000D03*
D11*
%TO.P,D7,2,A*%
%TO.N,Net-(D7-A)*%
X58420000Y-33020000D03*
%TD*%
D10*
%TO.P,D2,1,K*%
%TO.N,D6*%
X45720000Y-30480000D03*
D11*
%TO.P,D2,2,A*%
%TO.N,Net-(D2-A)*%
X45720000Y-33020000D03*
%TD*%
D10*
%TO.P,D4,1,K*%
%TO.N,D4*%
X50800000Y-30480000D03*
D11*
%TO.P,D4,2,A*%
%TO.N,Net-(D4-A)*%
X50800000Y-33020000D03*
%TD*%
D10*
%TO.P,D1,1,K*%
%TO.N,D7*%
X43180000Y-30480000D03*
D11*
%TO.P,D1,2,A*%
%TO.N,Net-(D1-A)*%
X43180000Y-33020000D03*
%TD*%
D10*
%TO.P,D3,1,K*%
%TO.N,D5*%
X48260000Y-30480000D03*
D11*
%TO.P,D3,2,A*%
%TO.N,Net-(D3-A)*%
X48260000Y-33020000D03*
%TD*%
D10*
%TO.P,D6,1,K*%
%TO.N,D2*%
X55880000Y-30480000D03*
D11*
%TO.P,D6,2,A*%
%TO.N,Net-(D6-A)*%
X55880000Y-33020000D03*
%TD*%
D10*
%TO.P,D5,1,K*%
%TO.N,D3*%
X53340000Y-30480000D03*
D11*
%TO.P,D5,2,A*%
%TO.N,Net-(D5-A)*%
X53340000Y-33020000D03*
%TD*%
D10*
%TO.P,D8,1,K*%
%TO.N,D0*%
X60960000Y-30480000D03*
D11*
%TO.P,D8,2,A*%
%TO.N,Net-(D8-A)*%
X60960000Y-33020000D03*
%TD*%
D12*
%TO.P,C2,1*%
%TO.N,GND*%
X7620000Y-25400000D03*
%TO.P,C2,2*%
%TO.N,-9V*%
X12620000Y-25400000D03*
%TD*%
%TO.P,R6,1*%
%TO.N,Net-(D9-K)*%
X25400000Y-30480000D03*
D11*
%TO.P,R6,2*%
%TO.N,-9V*%
X25400000Y-38100000D03*
%TD*%
D12*
%TO.P,R3,1*%
%TO.N,Net-(U1-S1)*%
X33020000Y-30480000D03*
D11*
%TO.P,R3,2*%
%TO.N,S1*%
X33020000Y-38100000D03*
%TD*%
D12*
%TO.P,R5,1*%
%TO.N,GND*%
X20320000Y-34925000D03*
D11*
%TO.P,R5,2*%
%TO.N,-9V*%
X12700000Y-34925000D03*
%TD*%
D12*
%TO.P,R1,1*%
%TO.N,Net-(U1-SYNC)*%
X27940000Y-30480000D03*
D11*
%TO.P,R1,2*%
%TO.N,SYNC*%
X27940000Y-38100000D03*
%TD*%
D13*
%TO.P,D9,1,K*%
%TO.N,Net-(D9-K)*%
X25400000Y-27940000D03*
D14*
%TO.P,D9,2,A*%
%TO.N,GND*%
X25400000Y-25400000D03*
%TD*%
D15*
%TO.P,PS1,1,+VIN*%
%TO.N,+5V*%
X5080000Y-27940000D03*
D16*
%TO.P,PS1,2,-VIN*%
%TO.N,GND*%
X7620000Y-27940000D03*
%TO.P,PS1,4,-VOUT*%
%TO.N,-9V*%
X12700000Y-27940000D03*
%TO.P,PS1,6,+VOUT*%
%TO.N,GND*%
X17780000Y-27940000D03*
%TD*%
D10*
%TO.P,RN1,1,common*%
%TO.N,+5V*%
X40640000Y-25400000D03*
D11*
%TO.P,RN1,2,R1*%
%TO.N,D7*%
X43180000Y-25400000D03*
%TO.P,RN1,3,R2*%
%TO.N,D6*%
X45720000Y-25400000D03*
%TO.P,RN1,4,R3*%
%TO.N,D5*%
X48260000Y-25400000D03*
%TO.P,RN1,5,R4*%
%TO.N,D4*%
X50800000Y-25400000D03*
%TO.P,RN1,6,R5*%
%TO.N,D3*%
X53340000Y-25400000D03*
%TO.P,RN1,7,R6*%
%TO.N,D2*%
X55880000Y-25400000D03*
%TO.P,RN1,8,R7*%
%TO.N,D1*%
X58420000Y-25400000D03*
%TO.P,RN1,9,R8*%
%TO.N,D0*%
X60960000Y-25400000D03*
%TD*%
D10*
%TO.P,RN3,1,common*%
%TO.N,GND*%
X40640000Y-38100000D03*
D11*
%TO.P,RN3,2,R1*%
%TO.N,Net-(D1-A)*%
X43180000Y-38100000D03*
%TO.P,RN3,3,R2*%
%TO.N,Net-(D2-A)*%
X45720000Y-38100000D03*
%TO.P,RN3,4,R3*%
%TO.N,Net-(D3-A)*%
X48260000Y-38100000D03*
%TO.P,RN3,5,R4*%
%TO.N,Net-(D4-A)*%
X50800000Y-38100000D03*
%TO.P,RN3,6,R5*%
%TO.N,Net-(D5-A)*%
X53340000Y-38100000D03*
%TO.P,RN3,7,R6*%
%TO.N,Net-(D6-A)*%
X55880000Y-38100000D03*
%TO.P,RN3,8,R7*%
%TO.N,Net-(D7-A)*%
X58420000Y-38100000D03*
%TO.P,RN3,9,R8*%
%TO.N,Net-(D8-A)*%
X60960000Y-38100000D03*
%TD*%
D17*
%TO.P,U1,1,Vdd*%
%TO.N,-9V*%
X35560000Y-17780000D03*
D18*
%TO.P,U1,2,D7*%
%TO.N,D7*%
X38100000Y-17780000D03*
%TO.P,U1,3,D6*%
%TO.N,D6*%
X40640000Y-17780000D03*
%TO.P,U1,4,D5*%
%TO.N,D5*%
X43180000Y-17780000D03*
%TO.P,U1,5,D4*%
%TO.N,D4*%
X45720000Y-17780000D03*
%TO.P,U1,6,D3*%
%TO.N,D3*%
X48260000Y-17780000D03*
%TO.P,U1,7,D2*%
%TO.N,D2*%
X50800000Y-17780000D03*
%TO.P,U1,8,D1*%
%TO.N,D1*%
X53340000Y-17780000D03*
%TO.P,U1,9,D0*%
%TO.N,D0*%
X55880000Y-17780000D03*
%TO.P,U1,10,Vcc*%
%TO.N,+5V*%
X55880000Y-10160000D03*
%TO.P,U1,11,S2*%
%TO.N,Net-(U1-S2)*%
X53340000Y-10160000D03*
%TO.P,U1,12,S1*%
%TO.N,Net-(U1-S1)*%
X50800000Y-10160000D03*
%TO.P,U1,13,S0*%
%TO.N,Net-(U1-S0)*%
X48260000Y-10160000D03*
%TO.P,U1,14,SYNC*%
%TO.N,Net-(U1-SYNC)*%
X45720000Y-10160000D03*
%TO.P,U1,15,CLK2*%
%TO.N,CLK2*%
X43180000Y-10160000D03*
%TO.P,U1,16,CLK1*%
%TO.N,CLK1*%
X40640000Y-10160000D03*
%TO.P,U1,17,READY*%
%TO.N,READY*%
X38100000Y-10160000D03*
%TO.P,U1,18,INT*%
%TO.N,INTERRUPT*%
X35560000Y-10160000D03*
%TD*%
D10*
%TO.P,J1,1,Pin_1*%
%TO.N,INTERRUPT*%
X11785000Y-60960000D03*
D11*
%TO.P,J1,2,Pin_2*%
%TO.N,READY*%
X14325000Y-60960000D03*
%TO.P,J1,3,Pin_3*%
%TO.N,unconnected-(J1-Pin_3-Pad3)*%
X16865000Y-60960000D03*
%TO.P,J1,4,Pin_4*%
%TO.N,unconnected-(J1-Pin_4-Pad4)*%
X19405000Y-60960000D03*
%TO.P,J1,5,Pin_5*%
%TO.N,SYNC*%
X21945000Y-60960000D03*
%TO.P,J1,6,Pin_6*%
%TO.N,LED0*%
X24485000Y-60960000D03*
%TO.P,J1,7,Pin_7*%
%TO.N,LED1*%
X27025000Y-60960000D03*
%TO.P,J1,8,Pin_8*%
%TO.N,S0*%
X29565000Y-60960000D03*
%TO.P,J1,9,Pin_9*%
%TO.N,S1*%
X32105000Y-60960000D03*
%TO.P,J1,10,Pin_10*%
%TO.N,S2*%
X34645000Y-60960000D03*
%TO.P,J1,11,Pin_11*%
%TO.N,unconnected-(J1-Pin_11-Pad11)*%
X37185000Y-60960000D03*
%TO.P,J1,12,Pin_12*%
%TO.N,unconnected-(J1-Pin_12-Pad12)*%
X39725000Y-60960000D03*
%TO.P,J1,13,Pin_13*%
%TO.N,unconnected-(J1-Pin_13-Pad13)*%
X42265000Y-60960000D03*
%TO.P,J1,14,Pin_14*%
%TO.N,unconnected-(J1-Pin_14-Pad14)*%
X44805000Y-60960000D03*
%TO.P,J1,15,Pin_15*%
%TO.N,LED2*%
X47345000Y-60960000D03*
%TO.P,J1,16,Pin_16*%
%TO.N,LED5*%
X49885000Y-60960000D03*
%TO.P,J1,17,Pin_17*%
%TO.N,LED4*%
X52425000Y-60960000D03*
%TO.P,J1,18,Pin_18*%
%TO.N,LED3*%
X54965000Y-60960000D03*
%TO.P,J1,19,Pin_19*%
%TO.N,3V3a*%
X57505000Y-60960000D03*
%TO.P,J1,20,Pin_20*%
%TO.N,GND*%
X60045000Y-60960000D03*
%TO.P,J1,21,Pin_21*%
%TO.N,GPIO_TX*%
X60045000Y-45720000D03*
%TO.P,J1,22,Pin_22*%
%TO.N,GPIO_RX*%
X57505000Y-45720000D03*
%TO.P,J1,23,Pin_23*%
%TO.N,DBG_TRG*%
X54965000Y-45720000D03*
%TO.P,J1,24,Pin_24*%
%TO.N,unconnected-(J1-Pin_24-Pad24)*%
X52425000Y-45720000D03*
%TO.P,J1,25,Pin_25*%
%TO.N,3V3b*%
X49885000Y-45720000D03*
%TO.P,J1,26,Pin_26*%
%TO.N,GND*%
X47345000Y-45720000D03*
%TO.P,J1,27,Pin_27*%
%TO.N,LED_RGB*%
X44805000Y-45720000D03*
%TO.P,J1,28,Pin_28*%
%TO.N,unconnected-(J1-Pin_28-Pad28)*%
X42265000Y-45720000D03*
%TO.P,J1,29,Pin_29*%
%TO.N,D0*%
X39725000Y-45720000D03*
%TO.P,J1,30,Pin_30*%
%TO.N,D1*%
X37185000Y-45720000D03*
%TO.P,J1,31,Pin_31*%
%TO.N,D2*%
X34645000Y-45720000D03*
%TO.P,J1,32,Pin_32*%
%TO.N,D3*%
X32105000Y-45720000D03*
%TO.P,J1,33,Pin_33*%
%TO.N,D4*%
X29565000Y-45720000D03*
%TO.P,J1,34,Pin_34*%
%TO.N,D5*%
X27025000Y-45720000D03*
%TO.P,J1,35,Pin_35*%
%TO.N,D6*%
X24485000Y-45720000D03*
%TO.P,J1,36,Pin_36*%
%TO.N,D7*%
X21945000Y-45720000D03*
%TO.P,J1,37,Pin_37*%
%TO.N,CLK2*%
X19405000Y-45720000D03*
%TO.P,J1,38,Pin_38*%
%TO.N,CLK1*%
X16865000Y-45720000D03*
%TO.P,J1,39,Pin_39*%
%TO.N,GND*%
X14325000Y-45720000D03*
%TO.P,J1,40,Pin_40*%
%TO.N,+5V*%
X11785000Y-45720000D03*
%TD*%
D12*
%TO.P,R4,1*%
%TO.N,Net-(U1-S2)*%
X35560000Y-30480000D03*
D11*
%TO.P,R4,2*%
%TO.N,S2*%
X35560000Y-38100000D03*
%TD*%
D12*
%TO.P,R2,1*%
%TO.N,Net-(U1-S0)*%
X30480000Y-30480000D03*
D11*
%TO.P,R2,2*%
%TO.N,S0*%
X30480000Y-38100000D03*
%TD*%
D10*
%TO.P,RN2,1,common*%
%TO.N,+5V*%
X33020000Y-3810000D03*
D11*
%TO.P,RN2,2,R1*%
%TO.N,INTERRUPT*%
X35560000Y-3810000D03*
%TO.P,RN2,3,R2*%
%TO.N,READY*%
X38100000Y-3810000D03*
%TO.P,RN2,4,R3*%
%TO.N,CLK1*%
X40640000Y-3810000D03*
%TO.P,RN2,5,R4*%
%TO.N,CLK2*%
X43180000Y-3810000D03*
%TD*%
D10*
%TO.P,C1,1*%
%TO.N,+5V*%
X5080000Y-38100000D03*
D12*
%TO.P,C1,2*%
%TO.N,GND*%
X7080000Y-38100000D03*
%TD*%
D19*
%TO.N,-9V*%
X24130000Y-17780000D03*
%TD*%
D20*
%TO.N,GND*%
X22860000Y-27940000D02*
X25400000Y-25400000D01*
X17780000Y-27940000D02*
X22860000Y-27940000D01*
D21*
%TO.N,-9V*%
X24130000Y-17780000D02*
X35560000Y-17780000D01*
X20320000Y-17780000D02*
X24130000Y-17780000D01*
D22*
%TO.N,GND*%
X7620000Y-27940000D02*
X7620000Y-25400000D01*
X46095000Y-46970000D02*
X15575000Y-46970000D01*
X17780000Y-30480000D02*
X17780000Y-27940000D01*
X40640000Y-39015000D02*
X40640000Y-38100000D01*
X60045000Y-58420000D02*
X47345000Y-45720000D01*
X47345000Y-45720000D02*
X46095000Y-46970000D01*
X14325000Y-41555000D02*
X15240000Y-40640000D01*
X47345000Y-45720000D02*
X40640000Y-39015000D01*
X17780000Y-27940000D02*
X16080000Y-29640000D01*
X15240000Y-35560000D02*
X15240000Y-33020000D01*
X15240000Y-33020000D02*
X17780000Y-30480000D01*
X16080000Y-29640000D02*
X9320000Y-29640000D01*
X60045000Y-60960000D02*
X60045000Y-58420000D01*
X9320000Y-29640000D02*
X7620000Y-27940000D01*
X15575000Y-46970000D02*
X14325000Y-45720000D01*
X14325000Y-45720000D02*
X14325000Y-41555000D01*
X15240000Y-40640000D02*
X15240000Y-35560000D01*
X20320000Y-35560000D02*
X15240000Y-35560000D01*
D21*
%TO.N,-9V*%
X12700000Y-27940000D02*
X12700000Y-25400000D01*
X20320000Y-17780000D02*
X12700000Y-25400000D01*
D20*
%TO.N,D0*%
X60960000Y-22860000D02*
X55880000Y-17780000D01*
X39725000Y-45720000D02*
X38925001Y-44920001D01*
X38925001Y-37276395D02*
X40640698Y-35560698D01*
X38925001Y-44920001D02*
X38925001Y-37276395D01*
X59690000Y-31750000D02*
X60960000Y-30480000D01*
X57470293Y-35560698D02*
X59690000Y-33340991D01*
X40640698Y-35560698D02*
X57470293Y-35560698D01*
X60960000Y-25400000D02*
X60960000Y-22860000D01*
X59690000Y-33340991D02*
X59690000Y-31750000D01*
%TO.N,D1*%
X37135000Y-45770000D02*
X37135000Y-38430000D01*
X57150000Y-33340991D02*
X57150000Y-31750000D01*
X40640000Y-34925000D02*
X55565991Y-34925000D01*
X37185000Y-45720000D02*
X37135000Y-45770000D01*
X55565991Y-34925000D02*
X57150000Y-33340991D01*
X58420000Y-22860000D02*
X53340000Y-17780000D01*
X58420000Y-25400000D02*
X58420000Y-22860000D01*
X57150000Y-31750000D02*
X58420000Y-30480000D01*
X37135000Y-38430000D02*
X40640000Y-34925000D01*
%TO.N,D2*%
X54610000Y-31750000D02*
X55880000Y-30480000D01*
X54120000Y-34145000D02*
X54610000Y-33655000D01*
X55880000Y-25400000D02*
X55880000Y-22860000D01*
X40464009Y-34145000D02*
X54120000Y-34145000D01*
X54610000Y-33655000D02*
X54610000Y-31750000D01*
X34645000Y-45720000D02*
X36685000Y-43680000D01*
X36685000Y-37924009D02*
X40464009Y-34145000D01*
X55880000Y-22860000D02*
X50800000Y-17780000D01*
X36685000Y-43680000D02*
X36685000Y-37924009D01*
%TO.N,D3*%
X31895000Y-35495698D02*
X33655000Y-33735698D01*
X31895000Y-45510000D02*
X31895000Y-35495698D01*
X42735584Y-28390000D02*
X50350000Y-28390000D01*
X53340000Y-22860000D02*
X48260000Y-17780000D01*
X33655000Y-33735698D02*
X37389886Y-33735698D01*
X32105000Y-45720000D02*
X31895000Y-45510000D01*
X50350000Y-28390000D02*
X53340000Y-25400000D01*
X53340000Y-25400000D02*
X53340000Y-22860000D01*
X37389886Y-33735698D02*
X42735584Y-28390000D01*
%TO.N,D4*%
X29355000Y-36315698D02*
X32385000Y-33285698D01*
X37203490Y-33285698D02*
X42549188Y-27940000D01*
X29565000Y-45720000D02*
X29355000Y-45510000D01*
X32385000Y-33285698D02*
X37203490Y-33285698D01*
X50800000Y-22860000D02*
X45720000Y-17780000D01*
X42549188Y-27940000D02*
X48260000Y-27940000D01*
X50800000Y-25400000D02*
X50800000Y-22860000D01*
X48260000Y-27940000D02*
X50800000Y-25400000D01*
X29355000Y-45510000D02*
X29355000Y-36315698D01*
%TO.N,D5*%
X26815000Y-45510000D02*
X26815000Y-35230698D01*
X46353604Y-27306396D02*
X48260000Y-25400000D01*
X26815000Y-35230698D02*
X29210000Y-32835698D01*
X42546396Y-27306396D02*
X46353604Y-27306396D01*
X27025000Y-45720000D02*
X26815000Y-45510000D01*
X48260000Y-22860000D02*
X43180000Y-17780000D01*
X37017094Y-32835698D02*
X42546396Y-27306396D01*
X29210000Y-32835698D02*
X37017094Y-32835698D01*
X48260000Y-25400000D02*
X48260000Y-22860000D01*
%TO.N,D6*%
X42545698Y-26670698D02*
X44449302Y-26670698D01*
X36830698Y-32385698D02*
X42545698Y-26670698D01*
X24485000Y-45720000D02*
X23685001Y-44920001D01*
X23685001Y-33466395D02*
X24765698Y-32385698D01*
X24765698Y-32385698D02*
X36830698Y-32385698D01*
X23685001Y-44920001D02*
X23685001Y-33466395D01*
X45720000Y-22860000D02*
X40640000Y-17780000D01*
X45720000Y-25400000D02*
X45720000Y-22860000D01*
X44449302Y-26670698D02*
X45720000Y-25400000D01*
%TO.N,D7*%
X24765000Y-31750000D02*
X36830000Y-31750000D01*
X43180000Y-22860000D02*
X38100000Y-17780000D01*
X36830000Y-31750000D02*
X43180000Y-25400000D01*
X43180000Y-25400000D02*
X43180000Y-22860000D01*
X21945000Y-45720000D02*
X21945000Y-34570000D01*
X21945000Y-34570000D02*
X24765000Y-31750000D01*
%TO.N,CLK1*%
X40640000Y-10160000D02*
X40640000Y-3810000D01*
%TO.N,INTERRUPT*%
X18413604Y-10160000D02*
X2918000Y-25655604D01*
X2918000Y-25655604D02*
X2918000Y-52093000D01*
X35560000Y-10160000D02*
X18413604Y-10160000D01*
X35560000Y-10160000D02*
X35560000Y-3810000D01*
X2918000Y-52093000D02*
X11785000Y-60960000D01*
%TO.N,READY*%
X38100000Y-10160000D02*
X38100000Y-3810000D01*
X3368000Y-50003000D02*
X14325000Y-60960000D01*
X17725000Y-11485000D02*
X3368000Y-25842000D01*
X38100000Y-10160000D02*
X36775000Y-11485000D01*
X3368000Y-25842000D02*
X3368000Y-50003000D01*
X36775000Y-11485000D02*
X17725000Y-11485000D01*
%TO.N,CLK2*%
X43180000Y-10160000D02*
X43180000Y-3810000D01*
%TD*%
%TA.AperFunction,Conductor*%
%TO.N,GND*%
G36*
X64876039Y-1289685D02*
G01*
X64921794Y-1342489D01*
X64933000Y-1394000D01*
X64933000Y-6350000D01*
X67473000Y-8890000D01*
X72429000Y-8890000D01*
X72496039Y-8909685D01*
X72541794Y-8962489D01*
X72553000Y-9014000D01*
X72553000Y-64646000D01*
X72533315Y-64713039D01*
X72480511Y-64758794D01*
X72429000Y-64770000D01*
X67472999Y-64770000D01*
X64933000Y-67309999D01*
X64933000Y-72266000D01*
X64913315Y-72333039D01*
X64860511Y-72378794D01*
X64809000Y-72390000D01*
X9177000Y-72390000D01*
X9109961Y-72370315D01*
X9064206Y-72317511D01*
X9053000Y-72266000D01*
X9053000Y-67310000D01*
X6513000Y-64770000D01*
X1557000Y-64770000D01*
X1489961Y-64750315D01*
X1444206Y-64697511D01*
X1433000Y-64646000D01*
X1433000Y-25593999D01*
X2292500Y-25593999D01*
X2292500Y-52154611D01*
X2316535Y-52275444D01*
X2316540Y-52275461D01*
X2363685Y-52389280D01*
X2363690Y-52389289D01*
X2397914Y-52440507D01*
X2397915Y-52440509D01*
X2432140Y-52491731D01*
X2432141Y-52491732D01*
X2432142Y-52491733D01*
X2519267Y-52578858D01*
X2519268Y-52578858D01*
X2526335Y-52585925D01*
X2526334Y-52585925D01*
X2526338Y-52585928D01*
X10448181Y-60507772D01*
X10481666Y-60569095D01*
X10484500Y-60595453D01*
X10484500Y-61807870D01*
X10484501Y-61807876D01*
X10490908Y-61867483D01*
X10541202Y-62002328D01*
X10541206Y-62002335D01*
X10627452Y-62117544D01*
X10627455Y-62117547D01*
X10742664Y-62203793D01*
X10742671Y-62203797D01*
X10877517Y-62254091D01*
X10877516Y-62254091D01*
X10884444Y-62254835D01*
X10937127Y-62260500D01*
X12632872Y-62260499D01*
X12692483Y-62254091D01*
X12827331Y-62203796D01*
X12942546Y-62117546D01*
X13028796Y-62002331D01*
X13079091Y-61867483D01*
X13082862Y-61832401D01*
X13109599Y-61767855D01*
X13166990Y-61728006D01*
X13236816Y-61725511D01*
X13296905Y-61761163D01*
X13307726Y-61774536D01*
X13324956Y-61799143D01*
X13485858Y-61960045D01*
X13485861Y-61960047D01*
X13672266Y-62090568D01*
X13878504Y-62186739D01*
X14098308Y-62245635D01*
X14260230Y-62259801D01*
X14324998Y-62265468D01*
X14325000Y-62265468D01*
X14325002Y-62265468D01*
X14381807Y-62260498D01*
X14551692Y-62245635D01*
X14771496Y-62186739D01*
X14977734Y-62090568D01*
X15164139Y-61960047D01*
X15325047Y-61799139D01*
X15455568Y-61612734D01*
X15482618Y-61554724D01*
X15528790Y-61502285D01*
X15595983Y-61483133D01*
X15662865Y-61503348D01*
X15707382Y-61554725D01*
X15734429Y-61612728D01*
X15734432Y-61612734D01*
X15864954Y-61799141D01*
X16025858Y-61960045D01*
X16025861Y-61960047D01*
X16212266Y-62090568D01*
X16418504Y-62186739D01*
X16638308Y-62245635D01*
X16800230Y-62259801D01*
X16864998Y-62265468D01*
X16865000Y-62265468D01*
X16865002Y-62265468D01*
X16921807Y-62260498D01*
X17091692Y-62245635D01*
X17311496Y-62186739D01*
X17517734Y-62090568D01*
X17704139Y-61960047D01*
X17865047Y-61799139D01*
X17995568Y-61612734D01*
X18022618Y-61554724D01*
X18068790Y-61502285D01*
X18135983Y-61483133D01*
X18202865Y-61503348D01*
X18247382Y-61554725D01*
X18274429Y-61612728D01*
X18274432Y-61612734D01*
X18404954Y-61799141D01*
X18565858Y-61960045D01*
X18565861Y-61960047D01*
X18752266Y-62090568D01*
X18958504Y-62186739D01*
X19178308Y-62245635D01*
X19340230Y-62259801D01*
X19404998Y-62265468D01*
X19405000Y-62265468D01*
X19405002Y-62265468D01*
X19461807Y-62260498D01*
X19631692Y-62245635D01*
X19851496Y-62186739D01*
X20057734Y-62090568D01*
X20244139Y-61960047D01*
X20405047Y-61799139D01*
X20535568Y-61612734D01*
X20562618Y-61554724D01*
X20608790Y-61502285D01*
X20675983Y-61483133D01*
X20742865Y-61503348D01*
X20787382Y-61554725D01*
X20814429Y-61612728D01*
X20814432Y-61612734D01*
X20944954Y-61799141D01*
X21105858Y-61960045D01*
X21105861Y-61960047D01*
X21292266Y-62090568D01*
X21498504Y-62186739D01*
X21718308Y-62245635D01*
X21880230Y-62259801D01*
X21944998Y-62265468D01*
X21945000Y-62265468D01*
X21945002Y-62265468D01*
X22001807Y-62260498D01*
X22171692Y-62245635D01*
X22391496Y-62186739D01*
X22597734Y-62090568D01*
X22784139Y-61960047D01*
X22945047Y-61799139D01*
X23075568Y-61612734D01*
X23102618Y-61554724D01*
X23148790Y-61502285D01*
X23215983Y-61483133D01*
X23282865Y-61503348D01*
X23327382Y-61554725D01*
X23354429Y-61612728D01*
X23354432Y-61612734D01*
X23484954Y-61799141D01*
X23645858Y-61960045D01*
X23645861Y-61960047D01*
X23832266Y-62090568D01*
X24038504Y-62186739D01*
X24258308Y-62245635D01*
X24420230Y-62259801D01*
X24484998Y-62265468D01*
X24485000Y-62265468D01*
X24485002Y-62265468D01*
X24541807Y-62260498D01*
X24711692Y-62245635D01*
X24931496Y-62186739D01*
X25137734Y-62090568D01*
X25324139Y-61960047D01*
X25485047Y-61799139D01*
X25615568Y-61612734D01*
X25642618Y-61554724D01*
X25688790Y-61502285D01*
X25755983Y-61483133D01*
X25822865Y-61503348D01*
X25867382Y-61554725D01*
X25894429Y-61612728D01*
X25894432Y-61612734D01*
X26024954Y-61799141D01*
X26185858Y-61960045D01*
X26185861Y-61960047D01*
X26372266Y-62090568D01*
X26578504Y-62186739D01*
X26798308Y-62245635D01*
X26960230Y-62259801D01*
X27024998Y-62265468D01*
X27025000Y-62265468D01*
X27025002Y-62265468D01*
X27081807Y-62260498D01*
X27251692Y-62245635D01*
X27471496Y-62186739D01*
X27677734Y-62090568D01*
X27864139Y-61960047D01*
X28025047Y-61799139D01*
X28155568Y-61612734D01*
X28182618Y-61554724D01*
X28228790Y-61502285D01*
X28295983Y-61483133D01*
X28362865Y-61503348D01*
X28407382Y-61554725D01*
X28434429Y-61612728D01*
X28434432Y-61612734D01*
X28564954Y-61799141D01*
X28725858Y-61960045D01*
X28725861Y-61960047D01*
X28912266Y-62090568D01*
X29118504Y-62186739D01*
X29338308Y-62245635D01*
X29500230Y-62259801D01*
X29564998Y-62265468D01*
X29565000Y-62265468D01*
X29565002Y-62265468D01*
X29621807Y-62260498D01*
X29791692Y-62245635D01*
X30011496Y-62186739D01*
X30217734Y-62090568D01*
X30404139Y-61960047D01*
X30565047Y-61799139D01*
X30695568Y-61612734D01*
X30722618Y-61554724D01*
X30768790Y-61502285D01*
X30835983Y-61483133D01*
X30902865Y-61503348D01*
X30947382Y-61554725D01*
X30974429Y-61612728D01*
X30974432Y-61612734D01*
X31104954Y-61799141D01*
X31265858Y-61960045D01*
X31265861Y-61960047D01*
X31452266Y-62090568D01*
X31658504Y-62186739D01*
X31878308Y-62245635D01*
X32040230Y-62259801D01*
X32104998Y-62265468D01*
X32105000Y-62265468D01*
X32105002Y-62265468D01*
X32161807Y-62260498D01*
X32331692Y-62245635D01*
X32551496Y-62186739D01*
X32757734Y-62090568D01*
X32944139Y-61960047D01*
X33105047Y-61799139D01*
X33235568Y-61612734D01*
X33262618Y-61554724D01*
X33308790Y-61502285D01*
X33375983Y-61483133D01*
X33442865Y-61503348D01*
X33487382Y-61554725D01*
X33514429Y-61612728D01*
X33514432Y-61612734D01*
X33644954Y-61799141D01*
X33805858Y-61960045D01*
X33805861Y-61960047D01*
X33992266Y-62090568D01*
X34198504Y-62186739D01*
X34418308Y-62245635D01*
X34580230Y-62259801D01*
X34644998Y-62265468D01*
X34645000Y-62265468D01*
X34645002Y-62265468D01*
X34701807Y-62260498D01*
X34871692Y-62245635D01*
X35091496Y-62186739D01*
X35297734Y-62090568D01*
X35484139Y-61960047D01*
X35645047Y-61799139D01*
X35775568Y-61612734D01*
X35802618Y-61554724D01*
X35848790Y-61502285D01*
X35915983Y-61483133D01*
X35982865Y-61503348D01*
X36027382Y-61554725D01*
X36054429Y-61612728D01*
X36054432Y-61612734D01*
X36184954Y-61799141D01*
X36345858Y-61960045D01*
X36345861Y-61960047D01*
X36532266Y-62090568D01*
X36738504Y-62186739D01*
X36958308Y-62245635D01*
X37120230Y-62259801D01*
X37184998Y-62265468D01*
X37185000Y-62265468D01*
X37185002Y-62265468D01*
X37241807Y-62260498D01*
X37411692Y-62245635D01*
X37631496Y-62186739D01*
X37837734Y-62090568D01*
X38024139Y-61960047D01*
X38185047Y-61799139D01*
X38315568Y-61612734D01*
X38342618Y-61554724D01*
X38388790Y-61502285D01*
X38455983Y-61483133D01*
X38522865Y-61503348D01*
X38567382Y-61554725D01*
X38594429Y-61612728D01*
X38594432Y-61612734D01*
X38724954Y-61799141D01*
X38885858Y-61960045D01*
X38885861Y-61960047D01*
X39072266Y-62090568D01*
X39278504Y-62186739D01*
X39498308Y-62245635D01*
X39660230Y-62259801D01*
X39724998Y-62265468D01*
X39725000Y-62265468D01*
X39725002Y-62265468D01*
X39781807Y-62260498D01*
X39951692Y-62245635D01*
X40171496Y-62186739D01*
X40377734Y-62090568D01*
X40564139Y-61960047D01*
X40725047Y-61799139D01*
X40855568Y-61612734D01*
X40882618Y-61554724D01*
X40928790Y-61502285D01*
X40995983Y-61483133D01*
X41062865Y-61503348D01*
X41107382Y-61554725D01*
X41134429Y-61612728D01*
X41134432Y-61612734D01*
X41264954Y-61799141D01*
X41425858Y-61960045D01*
X41425861Y-61960047D01*
X41612266Y-62090568D01*
X41818504Y-62186739D01*
X42038308Y-62245635D01*
X42200230Y-62259801D01*
X42264998Y-62265468D01*
X42265000Y-62265468D01*
X42265002Y-62265468D01*
X42321807Y-62260498D01*
X42491692Y-62245635D01*
X42711496Y-62186739D01*
X42917734Y-62090568D01*
X43104139Y-61960047D01*
X43265047Y-61799139D01*
X43395568Y-61612734D01*
X43422618Y-61554724D01*
X43468790Y-61502285D01*
X43535983Y-61483133D01*
X43602865Y-61503348D01*
X43647382Y-61554725D01*
X43674429Y-61612728D01*
X43674432Y-61612734D01*
X43804954Y-61799141D01*
X43965858Y-61960045D01*
X43965861Y-61960047D01*
X44152266Y-62090568D01*
X44358504Y-62186739D01*
X44578308Y-62245635D01*
X44740230Y-62259801D01*
X44804998Y-62265468D01*
X44805000Y-62265468D01*
X44805002Y-62265468D01*
X44861807Y-62260498D01*
X45031692Y-62245635D01*
X45251496Y-62186739D01*
X45457734Y-62090568D01*
X45644139Y-61960047D01*
X45805047Y-61799139D01*
X45935568Y-61612734D01*
X45962618Y-61554724D01*
X46008790Y-61502285D01*
X46075983Y-61483133D01*
X46142865Y-61503348D01*
X46187382Y-61554725D01*
X46214429Y-61612728D01*
X46214432Y-61612734D01*
X46344954Y-61799141D01*
X46505858Y-61960045D01*
X46505861Y-61960047D01*
X46692266Y-62090568D01*
X46898504Y-62186739D01*
X47118308Y-62245635D01*
X47280230Y-62259801D01*
X47344998Y-62265468D01*
X47345000Y-62265468D01*
X47345002Y-62265468D01*
X47401807Y-62260498D01*
X47571692Y-62245635D01*
X47791496Y-62186739D01*
X47997734Y-62090568D01*
X48184139Y-61960047D01*
X48345047Y-61799139D01*
X48475568Y-61612734D01*
X48502618Y-61554724D01*
X48548790Y-61502285D01*
X48615983Y-61483133D01*
X48682865Y-61503348D01*
X48727382Y-61554725D01*
X48754429Y-61612728D01*
X48754432Y-61612734D01*
X48884954Y-61799141D01*
X49045858Y-61960045D01*
X49045861Y-61960047D01*
X49232266Y-62090568D01*
X49438504Y-62186739D01*
X49658308Y-62245635D01*
X49820230Y-62259801D01*
X49884998Y-62265468D01*
X49885000Y-62265468D01*
X49885002Y-62265468D01*
X49941807Y-62260498D01*
X50111692Y-62245635D01*
X50331496Y-62186739D01*
X50537734Y-62090568D01*
X50724139Y-61960047D01*
X50885047Y-61799139D01*
X51015568Y-61612734D01*
X51042618Y-61554724D01*
X51088790Y-61502285D01*
X51155983Y-61483133D01*
X51222865Y-61503348D01*
X51267382Y-61554725D01*
X51294429Y-61612728D01*
X51294432Y-61612734D01*
X51424954Y-61799141D01*
X51585858Y-61960045D01*
X51585861Y-61960047D01*
X51772266Y-62090568D01*
X51978504Y-62186739D01*
X52198308Y-62245635D01*
X52360230Y-62259801D01*
X52424998Y-62265468D01*
X52425000Y-62265468D01*
X52425002Y-62265468D01*
X52481807Y-62260498D01*
X52651692Y-62245635D01*
X52871496Y-62186739D01*
X53077734Y-62090568D01*
X53264139Y-61960047D01*
X53425047Y-61799139D01*
X53555568Y-61612734D01*
X53582618Y-61554724D01*
X53628790Y-61502285D01*
X53695983Y-61483133D01*
X53762865Y-61503348D01*
X53807382Y-61554725D01*
X53834429Y-61612728D01*
X53834432Y-61612734D01*
X53964954Y-61799141D01*
X54125858Y-61960045D01*
X54125861Y-61960047D01*
X54312266Y-62090568D01*
X54518504Y-62186739D01*
X54738308Y-62245635D01*
X54900230Y-62259801D01*
X54964998Y-62265468D01*
X54965000Y-62265468D01*
X54965002Y-62265468D01*
X55021807Y-62260498D01*
X55191692Y-62245635D01*
X55411496Y-62186739D01*
X55617734Y-62090568D01*
X55804139Y-61960047D01*
X55965047Y-61799139D01*
X56095568Y-61612734D01*
X56122618Y-61554724D01*
X56168790Y-61502285D01*
X56235983Y-61483133D01*
X56302865Y-61503348D01*
X56347382Y-61554725D01*
X56374429Y-61612728D01*
X56374432Y-61612734D01*
X56504954Y-61799141D01*
X56665858Y-61960045D01*
X56665861Y-61960047D01*
X56852266Y-62090568D01*
X57058504Y-62186739D01*
X57278308Y-62245635D01*
X57440230Y-62259801D01*
X57504998Y-62265468D01*
X57505000Y-62265468D01*
X57505002Y-62265468D01*
X57561807Y-62260498D01*
X57731692Y-62245635D01*
X57951496Y-62186739D01*
X58157734Y-62090568D01*
X58344139Y-61960047D01*
X58505047Y-61799139D01*
X58635568Y-61612734D01*
X58662895Y-61554129D01*
X58709064Y-61501695D01*
X58776257Y-61482542D01*
X58843139Y-61502757D01*
X58887657Y-61554133D01*
X58914865Y-61612482D01*
X59045342Y-61798820D01*
X59206179Y-61959657D01*
X59392517Y-62090134D01*
X59598673Y-62186265D01*
X59598682Y-62186269D01*
X59794999Y-62238872D01*
X59795000Y-62238871D01*
X59795000Y-61275686D01*
X59799394Y-61280080D01*
X59890606Y-61332741D01*
X59992339Y-61360000D01*
X60097661Y-61360000D01*
X60199394Y-61332741D01*
X60290606Y-61280080D01*
X60295000Y-61275686D01*
X60295000Y-62238872D01*
X60491317Y-62186269D01*
X60491326Y-62186265D01*
X60697482Y-62090134D01*
X60883820Y-61959657D01*
X61044657Y-61798820D01*
X61175134Y-61612482D01*
X61271265Y-61406326D01*
X61271269Y-61406317D01*
X61323872Y-61210000D01*
X60360686Y-61210000D01*
X60365080Y-61205606D01*
X60417741Y-61114394D01*
X60445000Y-61012661D01*
X60445000Y-60907339D01*
X60417741Y-60805606D01*
X60365080Y-60714394D01*
X60360686Y-60710000D01*
X61323872Y-60710000D01*
X61323872Y-60709999D01*
X61271269Y-60513682D01*
X61271265Y-60513673D01*
X61175134Y-60307517D01*
X61044657Y-60121179D01*
X60883820Y-59960342D01*
X60697482Y-59829865D01*
X60491328Y-59733734D01*
X60295000Y-59681127D01*
X60295000Y-60644314D01*
X60290606Y-60639920D01*
X60199394Y-60587259D01*
X60097661Y-60560000D01*
X59992339Y-60560000D01*
X59890606Y-60587259D01*
X59799394Y-60639920D01*
X59795000Y-60644314D01*
X59795000Y-59681127D01*
X59598671Y-59733734D01*
X59392517Y-59829865D01*
X59206179Y-59960342D01*
X59045342Y-60121179D01*
X58914867Y-60307515D01*
X58887657Y-60365867D01*
X58841484Y-60418306D01*
X58774290Y-60437457D01*
X58707409Y-60417241D01*
X58662893Y-60365865D01*
X58635570Y-60307271D01*
X58635567Y-60307265D01*
X58505045Y-60120858D01*
X58344141Y-59959954D01*
X58157734Y-59829432D01*
X58157732Y-59829431D01*
X57951497Y-59733261D01*
X57951488Y-59733258D01*
X57731697Y-59674366D01*
X57731693Y-59674365D01*
X57731692Y-59674365D01*
X57731691Y-59674364D01*
X57731686Y-59674364D01*
X57505002Y-59654532D01*
X57504998Y-59654532D01*
X57278313Y-59674364D01*
X57278302Y-59674366D01*
X57058511Y-59733258D01*
X57058502Y-59733261D01*
X56852267Y-59829431D01*
X56852265Y-59829432D01*
X56665858Y-59959954D01*
X56504954Y-60120858D01*
X56374432Y-60307265D01*
X56374431Y-60307267D01*
X56347382Y-60365275D01*
X56301209Y-60417714D01*
X56234016Y-60436866D01*
X56167135Y-60416650D01*
X56122618Y-60365275D01*
X56095568Y-60307267D01*
X56095567Y-60307265D01*
X55965045Y-60120858D01*
X55804141Y-59959954D01*
X55617734Y-59829432D01*
X55617732Y-59829431D01*
X55411497Y-59733261D01*
X55411488Y-59733258D01*
X55191697Y-59674366D01*
X55191693Y-59674365D01*
X55191692Y-59674365D01*
X55191691Y-59674364D01*
X55191686Y-59674364D01*
X54965002Y-59654532D01*
X54964998Y-59654532D01*
X54738313Y-59674364D01*
X54738302Y-59674366D01*
X54518511Y-59733258D01*
X54518502Y-59733261D01*
X54312267Y-59829431D01*
X54312265Y-59829432D01*
X54125858Y-59959954D01*
X53964954Y-60120858D01*
X53834432Y-60307265D01*
X53834431Y-60307267D01*
X53807382Y-60365275D01*
X53761209Y-60417714D01*
X53694016Y-60436866D01*
X53627135Y-60416650D01*
X53582618Y-60365275D01*
X53555568Y-60307267D01*
X53555567Y-60307265D01*
X53425045Y-60120858D01*
X53264141Y-59959954D01*
X53077734Y-59829432D01*
X53077732Y-59829431D01*
X52871497Y-59733261D01*
X52871488Y-59733258D01*
X52651697Y-59674366D01*
X52651693Y-59674365D01*
X52651692Y-59674365D01*
X52651691Y-59674364D01*
X52651686Y-59674364D01*
X52425002Y-59654532D01*
X52424998Y-59654532D01*
X52198313Y-59674364D01*
X52198302Y-59674366D01*
X51978511Y-59733258D01*
X51978502Y-59733261D01*
X51772267Y-59829431D01*
X51772265Y-59829432D01*
X51585858Y-59959954D01*
X51424954Y-60120858D01*
X51294432Y-60307265D01*
X51294431Y-60307267D01*
X51267382Y-60365275D01*
X51221209Y-60417714D01*
X51154016Y-60436866D01*
X51087135Y-60416650D01*
X51042618Y-60365275D01*
X51015568Y-60307267D01*
X51015567Y-60307265D01*
X50885045Y-60120858D01*
X50724141Y-59959954D01*
X50537734Y-59829432D01*
X50537732Y-59829431D01*
X50331497Y-59733261D01*
X50331488Y-59733258D01*
X50111697Y-59674366D01*
X50111693Y-59674365D01*
X50111692Y-59674365D01*
X50111691Y-59674364D01*
X50111686Y-59674364D01*
X49885002Y-59654532D01*
X49884998Y-59654532D01*
X49658313Y-59674364D01*
X49658302Y-59674366D01*
X49438511Y-59733258D01*
X49438502Y-59733261D01*
X49232267Y-59829431D01*
X49232265Y-59829432D01*
X49045858Y-59959954D01*
X48884954Y-60120858D01*
X48754432Y-60307265D01*
X48754431Y-60307267D01*
X48727382Y-60365275D01*
X48681209Y-60417714D01*
X48614016Y-60436866D01*
X48547135Y-60416650D01*
X48502618Y-60365275D01*
X48475568Y-60307267D01*
X48475567Y-60307265D01*
X48345045Y-60120858D01*
X48184141Y-59959954D01*
X47997734Y-59829432D01*
X47997732Y-59829431D01*
X47791497Y-59733261D01*
X47791488Y-59733258D01*
X47571697Y-59674366D01*
X47571693Y-59674365D01*
X47571692Y-59674365D01*
X47571691Y-59674364D01*
X47571686Y-59674364D01*
X47345002Y-59654532D01*
X47344998Y-59654532D01*
X47118313Y-59674364D01*
X47118302Y-59674366D01*
X46898511Y-59733258D01*
X46898502Y-59733261D01*
X46692267Y-59829431D01*
X46692265Y-59829432D01*
X46505858Y-59959954D01*
X46344954Y-60120858D01*
X46214432Y-60307265D01*
X46214431Y-60307267D01*
X46187382Y-60365275D01*
X46141209Y-60417714D01*
X46074016Y-60436866D01*
X46007135Y-60416650D01*
X45962618Y-60365275D01*
X45935568Y-60307267D01*
X45935567Y-60307265D01*
X45805045Y-60120858D01*
X45644141Y-59959954D01*
X45457734Y-59829432D01*
X45457732Y-59829431D01*
X45251497Y-59733261D01*
X45251488Y-59733258D01*
X45031697Y-59674366D01*
X45031693Y-59674365D01*
X45031692Y-59674365D01*
X45031691Y-59674364D01*
X45031686Y-59674364D01*
X44805002Y-59654532D01*
X44804998Y-59654532D01*
X44578313Y-59674364D01*
X44578302Y-59674366D01*
X44358511Y-59733258D01*
X44358502Y-59733261D01*
X44152267Y-59829431D01*
X44152265Y-59829432D01*
X43965858Y-59959954D01*
X43804954Y-60120858D01*
X43674432Y-60307265D01*
X43674431Y-60307267D01*
X43647382Y-60365275D01*
X43601209Y-60417714D01*
X43534016Y-60436866D01*
X43467135Y-60416650D01*
X43422618Y-60365275D01*
X43395568Y-60307267D01*
X43395567Y-60307265D01*
X43265045Y-60120858D01*
X43104141Y-59959954D01*
X42917734Y-59829432D01*
X42917732Y-59829431D01*
X42711497Y-59733261D01*
X42711488Y-59733258D01*
X42491697Y-59674366D01*
X42491693Y-59674365D01*
X42491692Y-59674365D01*
X42491691Y-59674364D01*
X42491686Y-59674364D01*
X42265002Y-59654532D01*
X42264998Y-59654532D01*
X42038313Y-59674364D01*
X42038302Y-59674366D01*
X41818511Y-59733258D01*
X41818502Y-59733261D01*
X41612267Y-59829431D01*
X41612265Y-59829432D01*
X41425858Y-59959954D01*
X41264954Y-60120858D01*
X41134432Y-60307265D01*
X41134431Y-60307267D01*
X41107382Y-60365275D01*
X41061209Y-60417714D01*
X40994016Y-60436866D01*
X40927135Y-60416650D01*
X40882618Y-60365275D01*
X40855568Y-60307267D01*
X40855567Y-60307265D01*
X40725045Y-60120858D01*
X40564141Y-59959954D01*
X40377734Y-59829432D01*
X40377732Y-59829431D01*
X40171497Y-59733261D01*
X40171488Y-59733258D01*
X39951697Y-59674366D01*
X39951693Y-59674365D01*
X39951692Y-59674365D01*
X39951691Y-59674364D01*
X39951686Y-59674364D01*
X39725002Y-59654532D01*
X39724998Y-59654532D01*
X39498313Y-59674364D01*
X39498302Y-59674366D01*
X39278511Y-59733258D01*
X39278502Y-59733261D01*
X39072267Y-59829431D01*
X39072265Y-59829432D01*
X38885858Y-59959954D01*
X38724954Y-60120858D01*
X38594432Y-60307265D01*
X38594431Y-60307267D01*
X38567382Y-60365275D01*
X38521209Y-60417714D01*
X38454016Y-60436866D01*
X38387135Y-60416650D01*
X38342618Y-60365275D01*
X38315568Y-60307267D01*
X38315567Y-60307265D01*
X38185045Y-60120858D01*
X38024141Y-59959954D01*
X37837734Y-59829432D01*
X37837732Y-59829431D01*
X37631497Y-59733261D01*
X37631488Y-59733258D01*
X37411697Y-59674366D01*
X37411693Y-59674365D01*
X37411692Y-59674365D01*
X37411691Y-59674364D01*
X37411686Y-59674364D01*
X37185002Y-59654532D01*
X37184998Y-59654532D01*
X36958313Y-59674364D01*
X36958302Y-59674366D01*
X36738511Y-59733258D01*
X36738502Y-59733261D01*
X36532267Y-59829431D01*
X36532265Y-59829432D01*
X36345858Y-59959954D01*
X36184954Y-60120858D01*
X36054432Y-60307265D01*
X36054431Y-60307267D01*
X36027382Y-60365275D01*
X35981209Y-60417714D01*
X35914016Y-60436866D01*
X35847135Y-60416650D01*
X35802618Y-60365275D01*
X35775568Y-60307267D01*
X35775567Y-60307265D01*
X35645045Y-60120858D01*
X35484141Y-59959954D01*
X35297734Y-59829432D01*
X35297732Y-59829431D01*
X35091497Y-59733261D01*
X35091488Y-59733258D01*
X34871697Y-59674366D01*
X34871693Y-59674365D01*
X34871692Y-59674365D01*
X34871691Y-59674364D01*
X34871686Y-59674364D01*
X34645002Y-59654532D01*
X34644998Y-59654532D01*
X34418313Y-59674364D01*
X34418302Y-59674366D01*
X34198511Y-59733258D01*
X34198502Y-59733261D01*
X33992267Y-59829431D01*
X33992265Y-59829432D01*
X33805858Y-59959954D01*
X33644954Y-60120858D01*
X33514432Y-60307265D01*
X33514431Y-60307267D01*
X33487382Y-60365275D01*
X33441209Y-60417714D01*
X33374016Y-60436866D01*
X33307135Y-60416650D01*
X33262618Y-60365275D01*
X33235568Y-60307267D01*
X33235567Y-60307265D01*
X33105045Y-60120858D01*
X32944141Y-59959954D01*
X32757734Y-59829432D01*
X32757732Y-59829431D01*
X32551497Y-59733261D01*
X32551488Y-59733258D01*
X32331697Y-59674366D01*
X32331693Y-59674365D01*
X32331692Y-59674365D01*
X32331691Y-59674364D01*
X32331686Y-59674364D01*
X32105002Y-59654532D01*
X32104998Y-59654532D01*
X31878313Y-59674364D01*
X31878302Y-59674366D01*
X31658511Y-59733258D01*
X31658502Y-59733261D01*
X31452267Y-59829431D01*
X31452265Y-59829432D01*
X31265858Y-59959954D01*
X31104954Y-60120858D01*
X30974432Y-60307265D01*
X30974431Y-60307267D01*
X30947382Y-60365275D01*
X30901209Y-60417714D01*
X30834016Y-60436866D01*
X30767135Y-60416650D01*
X30722618Y-60365275D01*
X30695568Y-60307267D01*
X30695567Y-60307265D01*
X30565045Y-60120858D01*
X30404141Y-59959954D01*
X30217734Y-59829432D01*
X30217732Y-59829431D01*
X30011497Y-59733261D01*
X30011488Y-59733258D01*
X29791697Y-59674366D01*
X29791693Y-59674365D01*
X29791692Y-59674365D01*
X29791691Y-59674364D01*
X29791686Y-59674364D01*
X29565002Y-59654532D01*
X29564998Y-59654532D01*
X29338313Y-59674364D01*
X29338302Y-59674366D01*
X29118511Y-59733258D01*
X29118502Y-59733261D01*
X28912267Y-59829431D01*
X28912265Y-59829432D01*
X28725858Y-59959954D01*
X28564954Y-60120858D01*
X28434432Y-60307265D01*
X28434431Y-60307267D01*
X28407382Y-60365275D01*
X28361209Y-60417714D01*
X28294016Y-60436866D01*
X28227135Y-60416650D01*
X28182618Y-60365275D01*
X28155568Y-60307267D01*
X28155567Y-60307265D01*
X28025045Y-60120858D01*
X27864141Y-59959954D01*
X27677734Y-59829432D01*
X27677732Y-59829431D01*
X27471497Y-59733261D01*
X27471488Y-59733258D01*
X27251697Y-59674366D01*
X27251693Y-59674365D01*
X27251692Y-59674365D01*
X27251691Y-59674364D01*
X27251686Y-59674364D01*
X27025002Y-59654532D01*
X27024998Y-59654532D01*
X26798313Y-59674364D01*
X26798302Y-59674366D01*
X26578511Y-59733258D01*
X26578502Y-59733261D01*
X26372267Y-59829431D01*
X26372265Y-59829432D01*
X26185858Y-59959954D01*
X26024954Y-60120858D01*
X25894432Y-60307265D01*
X25894431Y-60307267D01*
X25867382Y-60365275D01*
X25821209Y-60417714D01*
X25754016Y-60436866D01*
X25687135Y-60416650D01*
X25642618Y-60365275D01*
X25615568Y-60307267D01*
X25615567Y-60307265D01*
X25485045Y-60120858D01*
X25324141Y-59959954D01*
X25137734Y-59829432D01*
X25137732Y-59829431D01*
X24931497Y-59733261D01*
X24931488Y-59733258D01*
X24711697Y-59674366D01*
X24711693Y-59674365D01*
X24711692Y-59674365D01*
X24711691Y-59674364D01*
X24711686Y-59674364D01*
X24485002Y-59654532D01*
X24484998Y-59654532D01*
X24258313Y-59674364D01*
X24258302Y-59674366D01*
X24038511Y-59733258D01*
X24038502Y-59733261D01*
X23832267Y-59829431D01*
X23832265Y-59829432D01*
X23645858Y-59959954D01*
X23484954Y-60120858D01*
X23354432Y-60307265D01*
X23354431Y-60307267D01*
X23327382Y-60365275D01*
X23281209Y-60417714D01*
X23214016Y-60436866D01*
X23147135Y-60416650D01*
X23102618Y-60365275D01*
X23075568Y-60307267D01*
X23075567Y-60307265D01*
X22945045Y-60120858D01*
X22784141Y-59959954D01*
X22597734Y-59829432D01*
X22597732Y-59829431D01*
X22391497Y-59733261D01*
X22391488Y-59733258D01*
X22171697Y-59674366D01*
X22171693Y-59674365D01*
X22171692Y-59674365D01*
X22171691Y-59674364D01*
X22171686Y-59674364D01*
X21945002Y-59654532D01*
X21944998Y-59654532D01*
X21718313Y-59674364D01*
X21718302Y-59674366D01*
X21498511Y-59733258D01*
X21498502Y-59733261D01*
X21292267Y-59829431D01*
X21292265Y-59829432D01*
X21105858Y-59959954D01*
X20944954Y-60120858D01*
X20814432Y-60307265D01*
X20814431Y-60307267D01*
X20787382Y-60365275D01*
X20741209Y-60417714D01*
X20674016Y-60436866D01*
X20607135Y-60416650D01*
X20562618Y-60365275D01*
X20535568Y-60307267D01*
X20535567Y-60307265D01*
X20405045Y-60120858D01*
X20244141Y-59959954D01*
X20057734Y-59829432D01*
X20057732Y-59829431D01*
X19851497Y-59733261D01*
X19851488Y-59733258D01*
X19631697Y-59674366D01*
X19631693Y-59674365D01*
X19631692Y-59674365D01*
X19631691Y-59674364D01*
X19631686Y-59674364D01*
X19405002Y-59654532D01*
X19404998Y-59654532D01*
X19178313Y-59674364D01*
X19178302Y-59674366D01*
X18958511Y-59733258D01*
X18958502Y-59733261D01*
X18752267Y-59829431D01*
X18752265Y-59829432D01*
X18565858Y-59959954D01*
X18404954Y-60120858D01*
X18274432Y-60307265D01*
X18274431Y-60307267D01*
X18247382Y-60365275D01*
X18201209Y-60417714D01*
X18134016Y-60436866D01*
X18067135Y-60416650D01*
X18022618Y-60365275D01*
X17995568Y-60307267D01*
X17995567Y-60307265D01*
X17865045Y-60120858D01*
X17704141Y-59959954D01*
X17517734Y-59829432D01*
X17517732Y-59829431D01*
X17311497Y-59733261D01*
X17311488Y-59733258D01*
X17091697Y-59674366D01*
X17091693Y-59674365D01*
X17091692Y-59674365D01*
X17091691Y-59674364D01*
X17091686Y-59674364D01*
X16865002Y-59654532D01*
X16864998Y-59654532D01*
X16638313Y-59674364D01*
X16638302Y-59674366D01*
X16418511Y-59733258D01*
X16418502Y-59733261D01*
X16212267Y-59829431D01*
X16212265Y-59829432D01*
X16025858Y-59959954D01*
X15864954Y-60120858D01*
X15734432Y-60307265D01*
X15734431Y-60307267D01*
X15707382Y-60365275D01*
X15661209Y-60417714D01*
X15594016Y-60436866D01*
X15527135Y-60416650D01*
X15482618Y-60365275D01*
X15455568Y-60307267D01*
X15455567Y-60307265D01*
X15325045Y-60120858D01*
X15164141Y-59959954D01*
X14977734Y-59829432D01*
X14977732Y-59829431D01*
X14771497Y-59733261D01*
X14771488Y-59733258D01*
X14551697Y-59674366D01*
X14551693Y-59674365D01*
X14551692Y-59674365D01*
X14551691Y-59674364D01*
X14551686Y-59674364D01*
X14325002Y-59654532D01*
X14324999Y-59654532D01*
X14098313Y-59674364D01*
X14098307Y-59674365D01*
X14029948Y-59692681D01*
X13960098Y-59691016D01*
X13910176Y-59660586D01*
X4029819Y-49780229D01*
X3996334Y-49718906D01*
X3993500Y-49692548D01*
X3993500Y-45719998D01*
X10479532Y-45719998D01*
X10479532Y-45720001D01*
X10499364Y-45946686D01*
X10499366Y-45946697D01*
X10558258Y-46166488D01*
X10558261Y-46166497D01*
X10654431Y-46372732D01*
X10654432Y-46372734D01*
X10784954Y-46559141D01*
X10945858Y-46720045D01*
X10945861Y-46720047D01*
X11132266Y-46850568D01*
X11338504Y-46946739D01*
X11558308Y-47005635D01*
X11720230Y-47019801D01*
X11784998Y-47025468D01*
X11785000Y-47025468D01*
X11785002Y-47025468D01*
X11841673Y-47020509D01*
X12011692Y-47005635D01*
X12231496Y-46946739D01*
X12437734Y-46850568D01*
X12624139Y-46720047D01*
X12785047Y-46559139D01*
X12915568Y-46372734D01*
X12942895Y-46314129D01*
X12989064Y-46261695D01*
X13056257Y-46242542D01*
X13123139Y-46262757D01*
X13167657Y-46314133D01*
X13194865Y-46372482D01*
X13325342Y-46558820D01*
X13486179Y-46719657D01*
X13672517Y-46850134D01*
X13878673Y-46946265D01*
X13878682Y-46946269D01*
X14074999Y-46998872D01*
X14075000Y-46998871D01*
X14075000Y-46035686D01*
X14079394Y-46040080D01*
X14170606Y-46092741D01*
X14272339Y-46120000D01*
X14377661Y-46120000D01*
X14479394Y-46092741D01*
X14570606Y-46040080D01*
X14575000Y-46035686D01*
X14575000Y-46998872D01*
X14771317Y-46946269D01*
X14771326Y-46946265D01*
X14977482Y-46850134D01*
X15163820Y-46719657D01*
X15324657Y-46558820D01*
X15455132Y-46372484D01*
X15482341Y-46314134D01*
X15528513Y-46261695D01*
X15595707Y-46242542D01*
X15662588Y-46262757D01*
X15707106Y-46314133D01*
X15734431Y-46372732D01*
X15734432Y-46372734D01*
X15864954Y-46559141D01*
X16025858Y-46720045D01*
X16025861Y-46720047D01*
X16212266Y-46850568D01*
X16418504Y-46946739D01*
X16638308Y-47005635D01*
X16800230Y-47019801D01*
X16864998Y-47025468D01*
X16865000Y-47025468D01*
X16865002Y-47025468D01*
X16921673Y-47020509D01*
X17091692Y-47005635D01*
X17311496Y-46946739D01*
X17517734Y-46850568D01*
X17704139Y-46720047D01*
X17865047Y-46559139D01*
X17995568Y-46372734D01*
X18022618Y-46314724D01*
X18068790Y-46262285D01*
X18135983Y-46243133D01*
X18202865Y-46263348D01*
X18247382Y-46314725D01*
X18274429Y-46372728D01*
X18274432Y-46372734D01*
X18404954Y-46559141D01*
X18565858Y-46720045D01*
X18565861Y-46720047D01*
X18752266Y-46850568D01*
X18958504Y-46946739D01*
X19178308Y-47005635D01*
X19340230Y-47019801D01*
X19404998Y-47025468D01*
X19405000Y-47025468D01*
X19405002Y-47025468D01*
X19461673Y-47020509D01*
X19631692Y-47005635D01*
X19851496Y-46946739D01*
X20057734Y-46850568D01*
X20244139Y-46720047D01*
X20405047Y-46559139D01*
X20535568Y-46372734D01*
X20562618Y-46314724D01*
X20608790Y-46262285D01*
X20675983Y-46243133D01*
X20742865Y-46263348D01*
X20787382Y-46314725D01*
X20814429Y-46372728D01*
X20814432Y-46372734D01*
X20944954Y-46559141D01*
X21105858Y-46720045D01*
X21105861Y-46720047D01*
X21292266Y-46850568D01*
X21498504Y-46946739D01*
X21718308Y-47005635D01*
X21880230Y-47019801D01*
X21944998Y-47025468D01*
X21945000Y-47025468D01*
X21945002Y-47025468D01*
X22001673Y-47020509D01*
X22171692Y-47005635D01*
X22391496Y-46946739D01*
X22597734Y-46850568D01*
X22784139Y-46720047D01*
X22945047Y-46559139D01*
X23075568Y-46372734D01*
X23102618Y-46314724D01*
X23148790Y-46262285D01*
X23215983Y-46243133D01*
X23282865Y-46263348D01*
X23327382Y-46314725D01*
X23354429Y-46372728D01*
X23354432Y-46372734D01*
X23484954Y-46559141D01*
X23645858Y-46720045D01*
X23645861Y-46720047D01*
X23832266Y-46850568D01*
X24038504Y-46946739D01*
X24258308Y-47005635D01*
X24420230Y-47019801D01*
X24484998Y-47025468D01*
X24485000Y-47025468D01*
X24485002Y-47025468D01*
X24541673Y-47020509D01*
X24711692Y-47005635D01*
X24931496Y-46946739D01*
X25137734Y-46850568D01*
X25324139Y-46720047D01*
X25485047Y-46559139D01*
X25615568Y-46372734D01*
X25642618Y-46314724D01*
X25688790Y-46262285D01*
X25755983Y-46243133D01*
X25822865Y-46263348D01*
X25867382Y-46314725D01*
X25894429Y-46372728D01*
X25894432Y-46372734D01*
X26024954Y-46559141D01*
X26185858Y-46720045D01*
X26185861Y-46720047D01*
X26372266Y-46850568D01*
X26578504Y-46946739D01*
X26798308Y-47005635D01*
X26960230Y-47019801D01*
X27024998Y-47025468D01*
X27025000Y-47025468D01*
X27025002Y-47025468D01*
X27081673Y-47020509D01*
X27251692Y-47005635D01*
X27471496Y-46946739D01*
X27677734Y-46850568D01*
X27864139Y-46720047D01*
X28025047Y-46559139D01*
X28155568Y-46372734D01*
X28182618Y-46314724D01*
X28228790Y-46262285D01*
X28295983Y-46243133D01*
X28362865Y-46263348D01*
X28407382Y-46314725D01*
X28434429Y-46372728D01*
X28434432Y-46372734D01*
X28564954Y-46559141D01*
X28725858Y-46720045D01*
X28725861Y-46720047D01*
X28912266Y-46850568D01*
X29118504Y-46946739D01*
X29338308Y-47005635D01*
X29500230Y-47019801D01*
X29564998Y-47025468D01*
X29565000Y-47025468D01*
X29565002Y-47025468D01*
X29621673Y-47020509D01*
X29791692Y-47005635D01*
X30011496Y-46946739D01*
X30217734Y-46850568D01*
X30404139Y-46720047D01*
X30565047Y-46559139D01*
X30695568Y-46372734D01*
X30722618Y-46314724D01*
X30768790Y-46262285D01*
X30835983Y-46243133D01*
X30902865Y-46263348D01*
X30947382Y-46314725D01*
X30974429Y-46372728D01*
X30974432Y-46372734D01*
X31104954Y-46559141D01*
X31265858Y-46720045D01*
X31265861Y-46720047D01*
X31452266Y-46850568D01*
X31658504Y-46946739D01*
X31878308Y-47005635D01*
X32040230Y-47019801D01*
X32104998Y-47025468D01*
X32105000Y-47025468D01*
X32105002Y-47025468D01*
X32161673Y-47020509D01*
X32331692Y-47005635D01*
X32551496Y-46946739D01*
X32757734Y-46850568D01*
X32944139Y-46720047D01*
X33105047Y-46559139D01*
X33235568Y-46372734D01*
X33262618Y-46314724D01*
X33308790Y-46262285D01*
X33375983Y-46243133D01*
X33442865Y-46263348D01*
X33487382Y-46314725D01*
X33514429Y-46372728D01*
X33514432Y-46372734D01*
X33644954Y-46559141D01*
X33805858Y-46720045D01*
X33805861Y-46720047D01*
X33992266Y-46850568D01*
X34198504Y-46946739D01*
X34418308Y-47005635D01*
X34580230Y-47019801D01*
X34644998Y-47025468D01*
X34645000Y-47025468D01*
X34645002Y-47025468D01*
X34701673Y-47020509D01*
X34871692Y-47005635D01*
X35091496Y-46946739D01*
X35297734Y-46850568D01*
X35484139Y-46720047D01*
X35645047Y-46559139D01*
X35775568Y-46372734D01*
X35802618Y-46314724D01*
X35848790Y-46262285D01*
X35915983Y-46243133D01*
X35982865Y-46263348D01*
X36027382Y-46314725D01*
X36054429Y-46372728D01*
X36054432Y-46372734D01*
X36184954Y-46559141D01*
X36345858Y-46720045D01*
X36345861Y-46720047D01*
X36532266Y-46850568D01*
X36738504Y-46946739D01*
X36958308Y-47005635D01*
X37120230Y-47019801D01*
X37184998Y-47025468D01*
X37185000Y-47025468D01*
X37185002Y-47025468D01*
X37241673Y-47020509D01*
X37411692Y-47005635D01*
X37631496Y-46946739D01*
X37837734Y-46850568D01*
X38024139Y-46720047D01*
X38185047Y-46559139D01*
X38315568Y-46372734D01*
X38342618Y-46314724D01*
X38388790Y-46262285D01*
X38455983Y-46243133D01*
X38522865Y-46263348D01*
X38567382Y-46314725D01*
X38594429Y-46372728D01*
X38594432Y-46372734D01*
X38724954Y-46559141D01*
X38885858Y-46720045D01*
X38885861Y-46720047D01*
X39072266Y-46850568D01*
X39278504Y-46946739D01*
X39498308Y-47005635D01*
X39660230Y-47019801D01*
X39724998Y-47025468D01*
X39725000Y-47025468D01*
X39725002Y-47025468D01*
X39781673Y-47020509D01*
X39951692Y-47005635D01*
X40171496Y-46946739D01*
X40377734Y-46850568D01*
X40564139Y-46720047D01*
X40725047Y-46559139D01*
X40855568Y-46372734D01*
X40882618Y-46314724D01*
X40928790Y-46262285D01*
X40995983Y-46243133D01*
X41062865Y-46263348D01*
X41107382Y-46314725D01*
X41134429Y-46372728D01*
X41134432Y-46372734D01*
X41264954Y-46559141D01*
X41425858Y-46720045D01*
X41425861Y-46720047D01*
X41612266Y-46850568D01*
X41818504Y-46946739D01*
X42038308Y-47005635D01*
X42200230Y-47019801D01*
X42264998Y-47025468D01*
X42265000Y-47025468D01*
X42265002Y-47025468D01*
X42321673Y-47020509D01*
X42491692Y-47005635D01*
X42711496Y-46946739D01*
X42917734Y-46850568D01*
X43104139Y-46720047D01*
X43265047Y-46559139D01*
X43395568Y-46372734D01*
X43422618Y-46314724D01*
X43468790Y-46262285D01*
X43535983Y-46243133D01*
X43602865Y-46263348D01*
X43647382Y-46314725D01*
X43674429Y-46372728D01*
X43674432Y-46372734D01*
X43804954Y-46559141D01*
X43965858Y-46720045D01*
X43965861Y-46720047D01*
X44152266Y-46850568D01*
X44358504Y-46946739D01*
X44578308Y-47005635D01*
X44740230Y-47019801D01*
X44804998Y-47025468D01*
X44805000Y-47025468D01*
X44805002Y-47025468D01*
X44861673Y-47020509D01*
X45031692Y-47005635D01*
X45251496Y-46946739D01*
X45457734Y-46850568D01*
X45644139Y-46720047D01*
X45805047Y-46559139D01*
X45935568Y-46372734D01*
X45962895Y-46314129D01*
X46009064Y-46261695D01*
X46076257Y-46242542D01*
X46143139Y-46262757D01*
X46187657Y-46314133D01*
X46214865Y-46372482D01*
X46345342Y-46558820D01*
X46506179Y-46719657D01*
X46692517Y-46850134D01*
X46898673Y-46946265D01*
X46898682Y-46946269D01*
X47094999Y-46998872D01*
X47095000Y-46998871D01*
X47095000Y-46035686D01*
X47099394Y-46040080D01*
X47190606Y-46092741D01*
X47292339Y-46120000D01*
X47397661Y-46120000D01*
X47499394Y-46092741D01*
X47590606Y-46040080D01*
X47595000Y-46035686D01*
X47595000Y-46998872D01*
X47791317Y-46946269D01*
X47791326Y-46946265D01*
X47997482Y-46850134D01*
X48183820Y-46719657D01*
X48344657Y-46558820D01*
X48475132Y-46372484D01*
X48502341Y-46314134D01*
X48548513Y-46261695D01*
X48615707Y-46242542D01*
X48682588Y-46262757D01*
X48727106Y-46314133D01*
X48754431Y-46372732D01*
X48754432Y-46372734D01*
X48884954Y-46559141D01*
X49045858Y-46720045D01*
X49045861Y-46720047D01*
X49232266Y-46850568D01*
X49438504Y-46946739D01*
X49658308Y-47005635D01*
X49820230Y-47019801D01*
X49884998Y-47025468D01*
X49885000Y-47025468D01*
X49885002Y-47025468D01*
X49941673Y-47020509D01*
X50111692Y-47005635D01*
X50331496Y-46946739D01*
X50537734Y-46850568D01*
X50724139Y-46720047D01*
X50885047Y-46559139D01*
X51015568Y-46372734D01*
X51042618Y-46314724D01*
X51088790Y-46262285D01*
X51155983Y-46243133D01*
X51222865Y-46263348D01*
X51267382Y-46314725D01*
X51294429Y-46372728D01*
X51294432Y-46372734D01*
X51424954Y-46559141D01*
X51585858Y-46720045D01*
X51585861Y-46720047D01*
X51772266Y-46850568D01*
X51978504Y-46946739D01*
X52198308Y-47005635D01*
X52360230Y-47019801D01*
X52424998Y-47025468D01*
X52425000Y-47025468D01*
X52425002Y-47025468D01*
X52481673Y-47020509D01*
X52651692Y-47005635D01*
X52871496Y-46946739D01*
X53077734Y-46850568D01*
X53264139Y-46720047D01*
X53425047Y-46559139D01*
X53555568Y-46372734D01*
X53582618Y-46314724D01*
X53628790Y-46262285D01*
X53695983Y-46243133D01*
X53762865Y-46263348D01*
X53807382Y-46314725D01*
X53834429Y-46372728D01*
X53834432Y-46372734D01*
X53964954Y-46559141D01*
X54125858Y-46720045D01*
X54125861Y-46720047D01*
X54312266Y-46850568D01*
X54518504Y-46946739D01*
X54738308Y-47005635D01*
X54900230Y-47019801D01*
X54964998Y-47025468D01*
X54965000Y-47025468D01*
X54965002Y-47025468D01*
X55021673Y-47020509D01*
X55191692Y-47005635D01*
X55411496Y-46946739D01*
X55617734Y-46850568D01*
X55804139Y-46720047D01*
X55965047Y-46559139D01*
X56095568Y-46372734D01*
X56122618Y-46314724D01*
X56168790Y-46262285D01*
X56235983Y-46243133D01*
X56302865Y-46263348D01*
X56347382Y-46314725D01*
X56374429Y-46372728D01*
X56374432Y-46372734D01*
X56504954Y-46559141D01*
X56665858Y-46720045D01*
X56665861Y-46720047D01*
X56852266Y-46850568D01*
X57058504Y-46946739D01*
X57278308Y-47005635D01*
X57440230Y-47019801D01*
X57504998Y-47025468D01*
X57505000Y-47025468D01*
X57505002Y-47025468D01*
X57561673Y-47020509D01*
X57731692Y-47005635D01*
X57951496Y-46946739D01*
X58157734Y-46850568D01*
X58344139Y-46720047D01*
X58505047Y-46559139D01*
X58635568Y-46372734D01*
X58662618Y-46314724D01*
X58708790Y-46262285D01*
X58775983Y-46243133D01*
X58842865Y-46263348D01*
X58887382Y-46314725D01*
X58914429Y-46372728D01*
X58914432Y-46372734D01*
X59044954Y-46559141D01*
X59205858Y-46720045D01*
X59205861Y-46720047D01*
X59392266Y-46850568D01*
X59598504Y-46946739D01*
X59818308Y-47005635D01*
X59980230Y-47019801D01*
X60044998Y-47025468D01*
X60045000Y-47025468D01*
X60045002Y-47025468D01*
X60101673Y-47020509D01*
X60271692Y-47005635D01*
X60491496Y-46946739D01*
X60697734Y-46850568D01*
X60884139Y-46720047D01*
X61045047Y-46559139D01*
X61175568Y-46372734D01*
X61271739Y-46166496D01*
X61330635Y-45946692D01*
X61350468Y-45720000D01*
X61330635Y-45493308D01*
X61271739Y-45273504D01*
X61175568Y-45067266D01*
X61045047Y-44880861D01*
X61045045Y-44880858D01*
X60884141Y-44719954D01*
X60697734Y-44589432D01*
X60697732Y-44589431D01*
X60491497Y-44493261D01*
X60491488Y-44493258D01*
X60271697Y-44434366D01*
X60271693Y-44434365D01*
X60271692Y-44434365D01*
X60271691Y-44434364D01*
X60271686Y-44434364D01*
X60045002Y-44414532D01*
X60044998Y-44414532D01*
X59818313Y-44434364D01*
X59818302Y-44434366D01*
X59598511Y-44493258D01*
X59598502Y-44493261D01*
X59392267Y-44589431D01*
X59392265Y-44589432D01*
X59205858Y-44719954D01*
X59044954Y-44880858D01*
X58914432Y-45067265D01*
X58914431Y-45067267D01*
X58887382Y-45125275D01*
X58841209Y-45177714D01*
X58774016Y-45196866D01*
X58707135Y-45176650D01*
X58662618Y-45125275D01*
X58635686Y-45067520D01*
X58635568Y-45067266D01*
X58505047Y-44880861D01*
X58505045Y-44880858D01*
X58344141Y-44719954D01*
X58157734Y-44589432D01*
X58157732Y-44589431D01*
X57951497Y-44493261D01*
X57951488Y-44493258D01*
X57731697Y-44434366D01*
X57731693Y-44434365D01*
X57731692Y-44434365D01*
X57731691Y-44434364D01*
X57731686Y-44434364D01*
X57505002Y-44414532D01*
X57504998Y-44414532D01*
X57278313Y-44434364D01*
X57278302Y-44434366D01*
X57058511Y-44493258D01*
X57058502Y-44493261D01*
X56852267Y-44589431D01*
X56852265Y-44589432D01*
X56665858Y-44719954D01*
X56504954Y-44880858D01*
X56374432Y-45067265D01*
X56374431Y-45067267D01*
X56347382Y-45125275D01*
X56301209Y-45177714D01*
X56234016Y-45196866D01*
X56167135Y-45176650D01*
X56122618Y-45125275D01*
X56095686Y-45067520D01*
X56095568Y-45067266D01*
X55965047Y-44880861D01*
X55965045Y-44880858D01*
X55804141Y-44719954D01*
X55617734Y-44589432D01*
X55617732Y-44589431D01*
X55411497Y-44493261D01*
X55411488Y-44493258D01*
X55191697Y-44434366D01*
X55191693Y-44434365D01*
X55191692Y-44434365D01*
X55191691Y-44434364D01*
X55191686Y-44434364D01*
X54965002Y-44414532D01*
X54964998Y-44414532D01*
X54738313Y-44434364D01*
X54738302Y-44434366D01*
X54518511Y-44493258D01*
X54518502Y-44493261D01*
X54312267Y-44589431D01*
X54312265Y-44589432D01*
X54125858Y-44719954D01*
X53964954Y-44880858D01*
X53834432Y-45067265D01*
X53834431Y-45067267D01*
X53807382Y-45125275D01*
X53761209Y-45177714D01*
X53694016Y-45196866D01*
X53627135Y-45176650D01*
X53582618Y-45125275D01*
X53555686Y-45067520D01*
X53555568Y-45067266D01*
X53425047Y-44880861D01*
X53425045Y-44880858D01*
X53264141Y-44719954D01*
X53077734Y-44589432D01*
X53077732Y-44589431D01*
X52871497Y-44493261D01*
X52871488Y-44493258D01*
X52651697Y-44434366D01*
X52651693Y-44434365D01*
X52651692Y-44434365D01*
X52651691Y-44434364D01*
X52651686Y-44434364D01*
X52425002Y-44414532D01*
X52424998Y-44414532D01*
X52198313Y-44434364D01*
X52198302Y-44434366D01*
X51978511Y-44493258D01*
X51978502Y-44493261D01*
X51772267Y-44589431D01*
X51772265Y-44589432D01*
X51585858Y-44719954D01*
X51424954Y-44880858D01*
X51294432Y-45067265D01*
X51294431Y-45067267D01*
X51267382Y-45125275D01*
X51221209Y-45177714D01*
X51154016Y-45196866D01*
X51087135Y-45176650D01*
X51042618Y-45125275D01*
X51015686Y-45067520D01*
X51015568Y-45067266D01*
X50885047Y-44880861D01*
X50885045Y-44880858D01*
X50724141Y-44719954D01*
X50537734Y-44589432D01*
X50537732Y-44589431D01*
X50331497Y-44493261D01*
X50331488Y-44493258D01*
X50111697Y-44434366D01*
X50111693Y-44434365D01*
X50111692Y-44434365D01*
X50111691Y-44434364D01*
X50111686Y-44434364D01*
X49885002Y-44414532D01*
X49884998Y-44414532D01*
X49658313Y-44434364D01*
X49658302Y-44434366D01*
X49438511Y-44493258D01*
X49438502Y-44493261D01*
X49232267Y-44589431D01*
X49232265Y-44589432D01*
X49045858Y-44719954D01*
X48884954Y-44880858D01*
X48754433Y-45067264D01*
X48754432Y-45067266D01*
X48754315Y-45067518D01*
X48727106Y-45125867D01*
X48680933Y-45178306D01*
X48613739Y-45197457D01*
X48546858Y-45177241D01*
X48502342Y-45125865D01*
X48475135Y-45067520D01*
X48475134Y-45067518D01*
X48344657Y-44881179D01*
X48183820Y-44720342D01*
X47997482Y-44589865D01*
X47791328Y-44493734D01*
X47595000Y-44441127D01*
X47595000Y-45404314D01*
X47590606Y-45399920D01*
X47499394Y-45347259D01*
X47397661Y-45320000D01*
X47292339Y-45320000D01*
X47190606Y-45347259D01*
X47099394Y-45399920D01*
X47095000Y-45404314D01*
X47095000Y-44441127D01*
X46898671Y-44493734D01*
X46692517Y-44589865D01*
X46506179Y-44720342D01*
X46345342Y-44881179D01*
X46214867Y-45067515D01*
X46187657Y-45125867D01*
X46141484Y-45178306D01*
X46074290Y-45197457D01*
X46007409Y-45177241D01*
X45962893Y-45125865D01*
X45935685Y-45067518D01*
X45935568Y-45067266D01*
X45805047Y-44880861D01*
X45805045Y-44880858D01*
X45644141Y-44719954D01*
X45457734Y-44589432D01*
X45457732Y-44589431D01*
X45251497Y-44493261D01*
X45251488Y-44493258D01*
X45031697Y-44434366D01*
X45031693Y-44434365D01*
X45031692Y-44434365D01*
X45031691Y-44434364D01*
X45031686Y-44434364D01*
X44805002Y-44414532D01*
X44804998Y-44414532D01*
X44578313Y-44434364D01*
X44578302Y-44434366D01*
X44358511Y-44493258D01*
X44358502Y-44493261D01*
X44152267Y-44589431D01*
X44152265Y-44589432D01*
X43965858Y-44719954D01*
X43804954Y-44880858D01*
X43674432Y-45067265D01*
X43674431Y-45067267D01*
X43647382Y-45125275D01*
X43601209Y-45177714D01*
X43534016Y-45196866D01*
X43467135Y-45176650D01*
X43422618Y-45125275D01*
X43395686Y-45067520D01*
X43395568Y-45067266D01*
X43265047Y-44880861D01*
X43265045Y-44880858D01*
X43104141Y-44719954D01*
X42917734Y-44589432D01*
X42917732Y-44589431D01*
X42711497Y-44493261D01*
X42711488Y-44493258D01*
X42491697Y-44434366D01*
X42491693Y-44434365D01*
X42491692Y-44434365D01*
X42491691Y-44434364D01*
X42491686Y-44434364D01*
X42265002Y-44414532D01*
X42264998Y-44414532D01*
X42038313Y-44434364D01*
X42038302Y-44434366D01*
X41818511Y-44493258D01*
X41818502Y-44493261D01*
X41612267Y-44589431D01*
X41612265Y-44589432D01*
X41425858Y-44719954D01*
X41264954Y-44880858D01*
X41134432Y-45067265D01*
X41134431Y-45067267D01*
X41107382Y-45125275D01*
X41061209Y-45177714D01*
X40994016Y-45196866D01*
X40927135Y-45176650D01*
X40882618Y-45125275D01*
X40855686Y-45067520D01*
X40855568Y-45067266D01*
X40725047Y-44880861D01*
X40725045Y-44880858D01*
X40564141Y-44719954D01*
X40377734Y-44589432D01*
X40377732Y-44589431D01*
X40171497Y-44493261D01*
X40171488Y-44493258D01*
X39951697Y-44434366D01*
X39951693Y-44434365D01*
X39951692Y-44434365D01*
X39951691Y-44434364D01*
X39951686Y-44434364D01*
X39725002Y-44414532D01*
X39724996Y-44414532D01*
X39685307Y-44418004D01*
X39616807Y-44404237D01*
X39566625Y-44355621D01*
X39550501Y-44294476D01*
X39550501Y-39504263D01*
X39570186Y-39437224D01*
X39622990Y-39391469D01*
X39692148Y-39381525D01*
X39717838Y-39388083D01*
X39732618Y-39393596D01*
X39732627Y-39393598D01*
X39792155Y-39399999D01*
X39792172Y-39400000D01*
X40390000Y-39400000D01*
X40390000Y-38415686D01*
X40394394Y-38420080D01*
X40485606Y-38472741D01*
X40587339Y-38500000D01*
X40692661Y-38500000D01*
X40794394Y-38472741D01*
X40885606Y-38420080D01*
X40890000Y-38415686D01*
X40890000Y-39400000D01*
X41487828Y-39400000D01*
X41487844Y-39399999D01*
X41547372Y-39393598D01*
X41547379Y-39393596D01*
X41682086Y-39343354D01*
X41682093Y-39343350D01*
X41797187Y-39257190D01*
X41797190Y-39257187D01*
X41883350Y-39142093D01*
X41883354Y-39142086D01*
X41933596Y-39007380D01*
X41937424Y-38971781D01*
X41964162Y-38907230D01*
X42021555Y-38867382D01*
X42091380Y-38864888D01*
X42151469Y-38900540D01*
X42162289Y-38913912D01*
X42179956Y-38939143D01*
X42340858Y-39100045D01*
X42340861Y-39100047D01*
X42527266Y-39230568D01*
X42733504Y-39326739D01*
X42953308Y-39385635D01*
X43115230Y-39399801D01*
X43179998Y-39405468D01*
X43180000Y-39405468D01*
X43180002Y-39405468D01*
X43242511Y-39399999D01*
X43406692Y-39385635D01*
X43626496Y-39326739D01*
X43832734Y-39230568D01*
X44019139Y-39100047D01*
X44180047Y-38939139D01*
X44310568Y-38752734D01*
X44337618Y-38694724D01*
X44383790Y-38642285D01*
X44450983Y-38623133D01*
X44517865Y-38643348D01*
X44562382Y-38694725D01*
X44589429Y-38752728D01*
X44589432Y-38752734D01*
X44719954Y-38939141D01*
X44880858Y-39100045D01*
X44880861Y-39100047D01*
X45067266Y-39230568D01*
X45273504Y-39326739D01*
X45493308Y-39385635D01*
X45655230Y-39399801D01*
X45719998Y-39405468D01*
X45720000Y-39405468D01*
X45720002Y-39405468D01*
X45782511Y-39399999D01*
X45946692Y-39385635D01*
X46166496Y-39326739D01*
X46372734Y-39230568D01*
X46559139Y-39100047D01*
X46720047Y-38939139D01*
X46850568Y-38752734D01*
X46877618Y-38694724D01*
X46923790Y-38642285D01*
X46990983Y-38623133D01*
X47057865Y-38643348D01*
X47102382Y-38694725D01*
X47129429Y-38752728D01*
X47129432Y-38752734D01*
X47259954Y-38939141D01*
X47420858Y-39100045D01*
X47420861Y-39100047D01*
X47607266Y-39230568D01*
X47813504Y-39326739D01*
X48033308Y-39385635D01*
X48195230Y-39399801D01*
X48259998Y-39405468D01*
X48260000Y-39405468D01*
X48260002Y-39405468D01*
X48322511Y-39399999D01*
X48486692Y-39385635D01*
X48706496Y-39326739D01*
X48912734Y-39230568D01*
X49099139Y-39100047D01*
X49260047Y-38939139D01*
X49390568Y-38752734D01*
X49417618Y-38694724D01*
X49463790Y-38642285D01*
X49530983Y-38623133D01*
X49597865Y-38643348D01*
X49642382Y-38694725D01*
X49669429Y-38752728D01*
X49669432Y-38752734D01*
X49799954Y-38939141D01*
X49960858Y-39100045D01*
X49960861Y-39100047D01*
X50147266Y-39230568D01*
X50353504Y-39326739D01*
X50573308Y-39385635D01*
X50735230Y-39399801D01*
X50799998Y-39405468D01*
X50800000Y-39405468D01*
X50800002Y-39405468D01*
X50862511Y-39399999D01*
X51026692Y-39385635D01*
X51246496Y-39326739D01*
X51452734Y-39230568D01*
X51639139Y-39100047D01*
X51800047Y-38939139D01*
X51930568Y-38752734D01*
X51957618Y-38694724D01*
X52003790Y-38642285D01*
X52070983Y-38623133D01*
X52137865Y-38643348D01*
X52182382Y-38694725D01*
X52209429Y-38752728D01*
X52209432Y-38752734D01*
X52339954Y-38939141D01*
X52500858Y-39100045D01*
X52500861Y-39100047D01*
X52687266Y-39230568D01*
X52893504Y-39326739D01*
X53113308Y-39385635D01*
X53275230Y-39399801D01*
X53339998Y-39405468D01*
X53340000Y-39405468D01*
X53340002Y-39405468D01*
X53402511Y-39399999D01*
X53566692Y-39385635D01*
X53786496Y-39326739D01*
X53992734Y-39230568D01*
X54179139Y-39100047D01*
X54340047Y-38939139D01*
X54470568Y-38752734D01*
X54497618Y-38694724D01*
X54543790Y-38642285D01*
X54610983Y-38623133D01*
X54677865Y-38643348D01*
X54722382Y-38694725D01*
X54749429Y-38752728D01*
X54749432Y-38752734D01*
X54879954Y-38939141D01*
X55040858Y-39100045D01*
X55040861Y-39100047D01*
X55227266Y-39230568D01*
X55433504Y-39326739D01*
X55653308Y-39385635D01*
X55815230Y-39399801D01*
X55879998Y-39405468D01*
X55880000Y-39405468D01*
X55880002Y-39405468D01*
X55942511Y-39399999D01*
X56106692Y-39385635D01*
X56326496Y-39326739D01*
X56532734Y-39230568D01*
X56719139Y-39100047D01*
X56880047Y-38939139D01*
X57010568Y-38752734D01*
X57037618Y-38694724D01*
X57083790Y-38642285D01*
X57150983Y-38623133D01*
X57217865Y-38643348D01*
X57262382Y-38694725D01*
X57289429Y-38752728D01*
X57289432Y-38752734D01*
X57419954Y-38939141D01*
X57580858Y-39100045D01*
X57580861Y-39100047D01*
X57767266Y-39230568D01*
X57973504Y-39326739D01*
X58193308Y-39385635D01*
X58355230Y-39399801D01*
X58419998Y-39405468D01*
X58420000Y-39405468D01*
X58420002Y-39405468D01*
X58482511Y-39399999D01*
X58646692Y-39385635D01*
X58866496Y-39326739D01*
X59072734Y-39230568D01*
X59259139Y-39100047D01*
X59420047Y-38939139D01*
X59550568Y-38752734D01*
X59577618Y-38694724D01*
X59623790Y-38642285D01*
X59690983Y-38623133D01*
X59757865Y-38643348D01*
X59802382Y-38694725D01*
X59829429Y-38752728D01*
X59829432Y-38752734D01*
X59959954Y-38939141D01*
X60120858Y-39100045D01*
X60120861Y-39100047D01*
X60307266Y-39230568D01*
X60513504Y-39326739D01*
X60733308Y-39385635D01*
X60895230Y-39399801D01*
X60959998Y-39405468D01*
X60960000Y-39405468D01*
X60960002Y-39405468D01*
X61022511Y-39399999D01*
X61186692Y-39385635D01*
X61406496Y-39326739D01*
X61612734Y-39230568D01*
X61799139Y-39100047D01*
X61960047Y-38939139D01*
X62090568Y-38752734D01*
X62186739Y-38546496D01*
X62245635Y-38326692D01*
X62265468Y-38100000D01*
X62245635Y-37873308D01*
X62186739Y-37653504D01*
X62090568Y-37447266D01*
X61960047Y-37260861D01*
X61960045Y-37260858D01*
X61799141Y-37099954D01*
X61612734Y-36969432D01*
X61612732Y-36969431D01*
X61406497Y-36873261D01*
X61406488Y-36873258D01*
X61186697Y-36814366D01*
X61186693Y-36814365D01*
X61186692Y-36814365D01*
X61186691Y-36814364D01*
X61186686Y-36814364D01*
X60960002Y-36794532D01*
X60959998Y-36794532D01*
X60733313Y-36814364D01*
X60733302Y-36814366D01*
X60513511Y-36873258D01*
X60513502Y-36873261D01*
X60307267Y-36969431D01*
X60307265Y-36969432D01*
X60120858Y-37099954D01*
X59959954Y-37260858D01*
X59829432Y-37447265D01*
X59829431Y-37447267D01*
X59802382Y-37505275D01*
X59756209Y-37557714D01*
X59689016Y-37576866D01*
X59622135Y-37556650D01*
X59577618Y-37505275D01*
X59550568Y-37447266D01*
X59420047Y-37260861D01*
X59420045Y-37260858D01*
X59259141Y-37099954D01*
X59072734Y-36969432D01*
X59072732Y-36969431D01*
X58866497Y-36873261D01*
X58866488Y-36873258D01*
X58646697Y-36814366D01*
X58646693Y-36814365D01*
X58646692Y-36814365D01*
X58646691Y-36814364D01*
X58646686Y-36814364D01*
X58420002Y-36794532D01*
X58419998Y-36794532D01*
X58193313Y-36814364D01*
X58193302Y-36814366D01*
X57973511Y-36873258D01*
X57973502Y-36873261D01*
X57767267Y-36969431D01*
X57767265Y-36969432D01*
X57580858Y-37099954D01*
X57419954Y-37260858D01*
X57289432Y-37447265D01*
X57289431Y-37447267D01*
X57262382Y-37505275D01*
X57216209Y-37557714D01*
X57149016Y-37576866D01*
X57082135Y-37556650D01*
X57037618Y-37505275D01*
X57010568Y-37447266D01*
X56880047Y-37260861D01*
X56880045Y-37260858D01*
X56719141Y-37099954D01*
X56532734Y-36969432D01*
X56532732Y-36969431D01*
X56326497Y-36873261D01*
X56326488Y-36873258D01*
X56106697Y-36814366D01*
X56106693Y-36814365D01*
X56106692Y-36814365D01*
X56106691Y-36814364D01*
X56106686Y-36814364D01*
X55880002Y-36794532D01*
X55879998Y-36794532D01*
X55653313Y-36814364D01*
X55653302Y-36814366D01*
X55433511Y-36873258D01*
X55433502Y-36873261D01*
X55227267Y-36969431D01*
X55227265Y-36969432D01*
X55040858Y-37099954D01*
X54879954Y-37260858D01*
X54749432Y-37447265D01*
X54749431Y-37447267D01*
X54722382Y-37505275D01*
X54676209Y-37557714D01*
X54609016Y-37576866D01*
X54542135Y-37556650D01*
X54497618Y-37505275D01*
X54470568Y-37447266D01*
X54340047Y-37260861D01*
X54340045Y-37260858D01*
X54179141Y-37099954D01*
X53992734Y-36969432D01*
X53992732Y-36969431D01*
X53786497Y-36873261D01*
X53786488Y-36873258D01*
X53566697Y-36814366D01*
X53566693Y-36814365D01*
X53566692Y-36814365D01*
X53566691Y-36814364D01*
X53566686Y-36814364D01*
X53340002Y-36794532D01*
X53339998Y-36794532D01*
X53113313Y-36814364D01*
X53113302Y-36814366D01*
X52893511Y-36873258D01*
X52893502Y-36873261D01*
X52687267Y-36969431D01*
X52687265Y-36969432D01*
X52500858Y-37099954D01*
X52339954Y-37260858D01*
X52209432Y-37447265D01*
X52209431Y-37447267D01*
X52182382Y-37505275D01*
X52136209Y-37557714D01*
X52069016Y-37576866D01*
X52002135Y-37556650D01*
X51957618Y-37505275D01*
X51930568Y-37447266D01*
X51800047Y-37260861D01*
X51800045Y-37260858D01*
X51639141Y-37099954D01*
X51452734Y-36969432D01*
X51452732Y-36969431D01*
X51246497Y-36873261D01*
X51246488Y-36873258D01*
X51026697Y-36814366D01*
X51026693Y-36814365D01*
X51026692Y-36814365D01*
X51026691Y-36814364D01*
X51026686Y-36814364D01*
X50800002Y-36794532D01*
X50799998Y-36794532D01*
X50573313Y-36814364D01*
X50573302Y-36814366D01*
X50353511Y-36873258D01*
X50353502Y-36873261D01*
X50147267Y-36969431D01*
X50147265Y-36969432D01*
X49960858Y-37099954D01*
X49799954Y-37260858D01*
X49669432Y-37447265D01*
X49669431Y-37447267D01*
X49642382Y-37505275D01*
X49596209Y-37557714D01*
X49529016Y-37576866D01*
X49462135Y-37556650D01*
X49417618Y-37505275D01*
X49390568Y-37447266D01*
X49260047Y-37260861D01*
X49260045Y-37260858D01*
X49099141Y-37099954D01*
X48912734Y-36969432D01*
X48912732Y-36969431D01*
X48706497Y-36873261D01*
X48706488Y-36873258D01*
X48486697Y-36814366D01*
X48486693Y-36814365D01*
X48486692Y-36814365D01*
X48486691Y-36814364D01*
X48486686Y-36814364D01*
X48260002Y-36794532D01*
X48259998Y-36794532D01*
X48033313Y-36814364D01*
X48033302Y-36814366D01*
X47813511Y-36873258D01*
X47813502Y-36873261D01*
X47607267Y-36969431D01*
X47607265Y-36969432D01*
X47420858Y-37099954D01*
X47259954Y-37260858D01*
X47129432Y-37447265D01*
X47129431Y-37447267D01*
X47102382Y-37505275D01*
X47056209Y-37557714D01*
X46989016Y-37576866D01*
X46922135Y-37556650D01*
X46877618Y-37505275D01*
X46850568Y-37447266D01*
X46720047Y-37260861D01*
X46720045Y-37260858D01*
X46559141Y-37099954D01*
X46372734Y-36969432D01*
X46372732Y-36969431D01*
X46166497Y-36873261D01*
X46166488Y-36873258D01*
X45946697Y-36814366D01*
X45946693Y-36814365D01*
X45946692Y-36814365D01*
X45946691Y-36814364D01*
X45946686Y-36814364D01*
X45720002Y-36794532D01*
X45719998Y-36794532D01*
X45493313Y-36814364D01*
X45493302Y-36814366D01*
X45273511Y-36873258D01*
X45273502Y-36873261D01*
X45067267Y-36969431D01*
X45067265Y-36969432D01*
X44880858Y-37099954D01*
X44719954Y-37260858D01*
X44589432Y-37447265D01*
X44589431Y-37447267D01*
X44562382Y-37505275D01*
X44516209Y-37557714D01*
X44449016Y-37576866D01*
X44382135Y-37556650D01*
X44337618Y-37505275D01*
X44310568Y-37447266D01*
X44180047Y-37260861D01*
X44180045Y-37260858D01*
X44019141Y-37099954D01*
X43832734Y-36969432D01*
X43832732Y-36969431D01*
X43626497Y-36873261D01*
X43626488Y-36873258D01*
X43406697Y-36814366D01*
X43406693Y-36814365D01*
X43406692Y-36814365D01*
X43406691Y-36814364D01*
X43406686Y-36814364D01*
X43180002Y-36794532D01*
X43179998Y-36794532D01*
X42953313Y-36814364D01*
X42953302Y-36814366D01*
X42733511Y-36873258D01*
X42733502Y-36873261D01*
X42527267Y-36969431D01*
X42527265Y-36969432D01*
X42340858Y-37099954D01*
X42179951Y-37260861D01*
X42162287Y-37286088D01*
X42107710Y-37329712D01*
X42038211Y-37336904D01*
X41975857Y-37305380D01*
X41940445Y-37245150D01*
X41937425Y-37228218D01*
X41933598Y-37192627D01*
X41933596Y-37192620D01*
X41883354Y-37057913D01*
X41883350Y-37057906D01*
X41797190Y-36942812D01*
X41797187Y-36942809D01*
X41682093Y-36856649D01*
X41682086Y-36856645D01*
X41547379Y-36806403D01*
X41547372Y-36806401D01*
X41487844Y-36800000D01*
X40890000Y-36800000D01*
X40890000Y-37784314D01*
X40885606Y-37779920D01*
X40794394Y-37727259D01*
X40692661Y-37700000D01*
X40587339Y-37700000D01*
X40485606Y-37727259D01*
X40394394Y-37779920D01*
X40390000Y-37784314D01*
X40390000Y-36748638D01*
X40394028Y-36748638D01*
X40397173Y-36704659D01*
X40425674Y-36660312D01*
X40863469Y-36222517D01*
X40924792Y-36189032D01*
X40951150Y-36186198D01*
X57531900Y-36186198D01*
X57592322Y-36174179D01*
X57652745Y-36162161D01*
X57652748Y-36162159D01*
X57652751Y-36162159D01*
X57686080Y-36148352D01*
X57686079Y-36148352D01*
X57686085Y-36148350D01*
X57766579Y-36115010D01*
X57817802Y-36080782D01*
X57869026Y-36046556D01*
X57956151Y-35959431D01*
X57956152Y-35959429D01*
X57963218Y-35952363D01*
X57963221Y-35952359D01*
X59920517Y-33995062D01*
X59981838Y-33961579D01*
X60051530Y-33966563D01*
X60095877Y-33995064D01*
X60120858Y-34020045D01*
X60120861Y-34020047D01*
X60307266Y-34150568D01*
X60513504Y-34246739D01*
X60733308Y-34305635D01*
X60895230Y-34319801D01*
X60959998Y-34325468D01*
X60960000Y-34325468D01*
X60960002Y-34325468D01*
X61016673Y-34320509D01*
X61186692Y-34305635D01*
X61406496Y-34246739D01*
X61612734Y-34150568D01*
X61799139Y-34020047D01*
X61960047Y-33859139D01*
X62090568Y-33672734D01*
X62186739Y-33466496D01*
X62245635Y-33246692D01*
X62265468Y-33020000D01*
X62245635Y-32793308D01*
X62186739Y-32573504D01*
X62090568Y-32367266D01*
X61960047Y-32180861D01*
X61960045Y-32180858D01*
X61799143Y-32019956D01*
X61774536Y-32002726D01*
X61730912Y-31948149D01*
X61723719Y-31878650D01*
X61755241Y-31816296D01*
X61815471Y-31780882D01*
X61832404Y-31777861D01*
X61867483Y-31774091D01*
X62002331Y-31723796D01*
X62117546Y-31637546D01*
X62203796Y-31522331D01*
X62254091Y-31387483D01*
X62260500Y-31327873D01*
X62260499Y-29632128D01*
X62254091Y-29572517D01*
X62244893Y-29547857D01*
X62203797Y-29437671D01*
X62203793Y-29437664D01*
X62117547Y-29322455D01*
X62117544Y-29322452D01*
X62002335Y-29236206D01*
X62002328Y-29236202D01*
X61867482Y-29185908D01*
X61867483Y-29185908D01*
X61807883Y-29179501D01*
X61807881Y-29179500D01*
X61807873Y-29179500D01*
X61807864Y-29179500D01*
X60112129Y-29179500D01*
X60112123Y-29179501D01*
X60052516Y-29185908D01*
X59917671Y-29236202D01*
X59917664Y-29236206D01*
X59802455Y-29322452D01*
X59789266Y-29340071D01*
X59733332Y-29381941D01*
X59663640Y-29386925D01*
X59602317Y-29353439D01*
X59590734Y-29340071D01*
X59577546Y-29322454D01*
X59577544Y-29322453D01*
X59577544Y-29322452D01*
X59462335Y-29236206D01*
X59462328Y-29236202D01*
X59327482Y-29185908D01*
X59327483Y-29185908D01*
X59267883Y-29179501D01*
X59267881Y-29179500D01*
X59267873Y-29179500D01*
X59267864Y-29179500D01*
X57572129Y-29179500D01*
X57572123Y-29179501D01*
X57512516Y-29185908D01*
X57377671Y-29236202D01*
X57377664Y-29236206D01*
X57262455Y-29322452D01*
X57249266Y-29340071D01*
X57193332Y-29381941D01*
X57123640Y-29386925D01*
X57062317Y-29353439D01*
X57050734Y-29340071D01*
X57037546Y-29322454D01*
X57037544Y-29322453D01*
X57037544Y-29322452D01*
X56922335Y-29236206D01*
X56922328Y-29236202D01*
X56787482Y-29185908D01*
X56787483Y-29185908D01*
X56727883Y-29179501D01*
X56727881Y-29179500D01*
X56727873Y-29179500D01*
X56727864Y-29179500D01*
X55032129Y-29179500D01*
X55032123Y-29179501D01*
X54972516Y-29185908D01*
X54837671Y-29236202D01*
X54837664Y-29236206D01*
X54722455Y-29322452D01*
X54709266Y-29340071D01*
X54653332Y-29381941D01*
X54583640Y-29386925D01*
X54522317Y-29353439D01*
X54510734Y-29340071D01*
X54497546Y-29322454D01*
X54497544Y-29322453D01*
X54497544Y-29322452D01*
X54382335Y-29236206D01*
X54382328Y-29236202D01*
X54247482Y-29185908D01*
X54247483Y-29185908D01*
X54187883Y-29179501D01*
X54187881Y-29179500D01*
X54187873Y-29179500D01*
X54187864Y-29179500D01*
X52492129Y-29179500D01*
X52492123Y-29179501D01*
X52432516Y-29185908D01*
X52297671Y-29236202D01*
X52297664Y-29236206D01*
X52182455Y-29322452D01*
X52169266Y-29340071D01*
X52113332Y-29381941D01*
X52043640Y-29386925D01*
X51982317Y-29353439D01*
X51970734Y-29340071D01*
X51957546Y-29322454D01*
X51957544Y-29322453D01*
X51957544Y-29322452D01*
X51842335Y-29236206D01*
X51842328Y-29236202D01*
X51707482Y-29185908D01*
X51707483Y-29185908D01*
X51647883Y-29179501D01*
X51647881Y-29179500D01*
X51647873Y-29179500D01*
X51647865Y-29179500D01*
X50701314Y-29179500D01*
X50634275Y-29159815D01*
X50588520Y-29107011D01*
X50578576Y-29037853D01*
X50607601Y-28974297D01*
X50642867Y-28946139D01*
X50646282Y-28944313D01*
X50646286Y-28944312D01*
X50701630Y-28907331D01*
X50748733Y-28875858D01*
X50835858Y-28788733D01*
X50835858Y-28788731D01*
X50846066Y-28778524D01*
X50846067Y-28778521D01*
X52925179Y-26699410D01*
X52986500Y-26665927D01*
X53044947Y-26667317D01*
X53113308Y-26685635D01*
X53270780Y-26699412D01*
X53339998Y-26705468D01*
X53340000Y-26705468D01*
X53340002Y-26705468D01*
X53409220Y-26699412D01*
X53566692Y-26685635D01*
X53786496Y-26626739D01*
X53992734Y-26530568D01*
X54179139Y-26400047D01*
X54340047Y-26239139D01*
X54470568Y-26052734D01*
X54497618Y-25994724D01*
X54543790Y-25942285D01*
X54610983Y-25923133D01*
X54677865Y-25943348D01*
X54722382Y-25994725D01*
X54749429Y-26052728D01*
X54749432Y-26052734D01*
X54879954Y-26239141D01*
X55040858Y-26400045D01*
X55040861Y-26400047D01*
X55227266Y-26530568D01*
X55433504Y-26626739D01*
X55653308Y-26685635D01*
X55810780Y-26699412D01*
X55879998Y-26705468D01*
X55880000Y-26705468D01*
X55880002Y-26705468D01*
X55949220Y-26699412D01*
X56106692Y-26685635D01*
X56326496Y-26626739D01*
X56532734Y-26530568D01*
X56719139Y-26400047D01*
X56880047Y-26239139D01*
X57010568Y-26052734D01*
X57037618Y-25994724D01*
X57083790Y-25942285D01*
X57150983Y-25923133D01*
X57217865Y-25943348D01*
X57262382Y-25994725D01*
X57289429Y-26052728D01*
X57289432Y-26052734D01*
X57419954Y-26239141D01*
X57580858Y-26400045D01*
X57580861Y-26400047D01*
X57767266Y-26530568D01*
X57973504Y-26626739D01*
X58193308Y-26685635D01*
X58350780Y-26699412D01*
X58419998Y-26705468D01*
X58420000Y-26705468D01*
X58420002Y-26705468D01*
X58489220Y-26699412D01*
X58646692Y-26685635D01*
X58866496Y-26626739D01*
X59072734Y-26530568D01*
X59259139Y-26400047D01*
X59420047Y-26239139D01*
X59550568Y-26052734D01*
X59577618Y-25994724D01*
X59623790Y-25942285D01*
X59690983Y-25923133D01*
X59757865Y-25943348D01*
X59802382Y-25994725D01*
X59829429Y-26052728D01*
X59829432Y-26052734D01*
X59959954Y-26239141D01*
X60120858Y-26400045D01*
X60120861Y-26400047D01*
X60307266Y-26530568D01*
X60513504Y-26626739D01*
X60733308Y-26685635D01*
X60890780Y-26699412D01*
X60959998Y-26705468D01*
X60960000Y-26705468D01*
X60960002Y-26705468D01*
X61029220Y-26699412D01*
X61186692Y-26685635D01*
X61406496Y-26626739D01*
X61612734Y-26530568D01*
X61799139Y-26400047D01*
X61960047Y-26239139D01*
X62090568Y-26052734D01*
X62186739Y-25846496D01*
X62245635Y-25626692D01*
X62265468Y-25400000D01*
X62265467Y-25399994D01*
X62251960Y-25245606D01*
X62245635Y-25173308D01*
X62186739Y-24953504D01*
X62090568Y-24747266D01*
X61960047Y-24560861D01*
X61960045Y-24560858D01*
X61799140Y-24399953D01*
X61638377Y-24287386D01*
X61594752Y-24232809D01*
X61585500Y-24185811D01*
X61585500Y-22798396D01*
X61585500Y-22798394D01*
X61561463Y-22677548D01*
X61561461Y-22677543D01*
X61541962Y-22630468D01*
X61541947Y-22630435D01*
X61541932Y-22630397D01*
X61514312Y-22563715D01*
X61497256Y-22538190D01*
X61445858Y-22461267D01*
X61445856Y-22461264D01*
X61355637Y-22371045D01*
X61355606Y-22371016D01*
X57136819Y-18152229D01*
X57103334Y-18090906D01*
X57100500Y-18064548D01*
X57100500Y-17403945D01*
X57070447Y-17214199D01*
X57040424Y-17121797D01*
X57011083Y-17031493D01*
X56923864Y-16860318D01*
X56883955Y-16805388D01*
X56810945Y-16704898D01*
X56675102Y-16569055D01*
X56519681Y-16456135D01*
X56453577Y-16422453D01*
X56348506Y-16368916D01*
X56165802Y-16309553D01*
X56070928Y-16294526D01*
X55976055Y-16279500D01*
X55783945Y-16279500D01*
X55720696Y-16289517D01*
X55594197Y-16309553D01*
X55411493Y-16368916D01*
X55240318Y-16456135D01*
X55151645Y-16520560D01*
X55084898Y-16569055D01*
X55084896Y-16569057D01*
X55084895Y-16569057D01*
X54949057Y-16704895D01*
X54949057Y-16704896D01*
X54949055Y-16704898D01*
X54904991Y-16765547D01*
X54836135Y-16860318D01*
X54748916Y-17031493D01*
X54727931Y-17096081D01*
X54688494Y-17153756D01*
X54624135Y-17180955D01*
X54555289Y-17169041D01*
X54503813Y-17121797D01*
X54492069Y-17096081D01*
X54471083Y-17031493D01*
X54383864Y-16860318D01*
X54343955Y-16805388D01*
X54270945Y-16704898D01*
X54135102Y-16569055D01*
X53979681Y-16456135D01*
X53913577Y-16422453D01*
X53808506Y-16368916D01*
X53625802Y-16309553D01*
X53530928Y-16294526D01*
X53436055Y-16279500D01*
X53243945Y-16279500D01*
X53180696Y-16289517D01*
X53054197Y-16309553D01*
X52871493Y-16368916D01*
X52700318Y-16456135D01*
X52611645Y-16520560D01*
X52544898Y-16569055D01*
X52544896Y-16569057D01*
X52544895Y-16569057D01*
X52409057Y-16704895D01*
X52409057Y-16704896D01*
X52409055Y-16704898D01*
X52364991Y-16765547D01*
X52296135Y-16860318D01*
X52208916Y-17031493D01*
X52187931Y-17096081D01*
X52148494Y-17153756D01*
X52084135Y-17180955D01*
X52015289Y-17169041D01*
X51963813Y-17121797D01*
X51952069Y-17096081D01*
X51931083Y-17031493D01*
X51843864Y-16860318D01*
X51803955Y-16805388D01*
X51730945Y-16704898D01*
X51595102Y-16569055D01*
X51439681Y-16456135D01*
X51373577Y-16422453D01*
X51268506Y-16368916D01*
X51085802Y-16309553D01*
X50990928Y-16294526D01*
X50896055Y-16279500D01*
X50703945Y-16279500D01*
X50640696Y-16289517D01*
X50514197Y-16309553D01*
X50331493Y-16368916D01*
X50160318Y-16456135D01*
X50071645Y-16520560D01*
X50004898Y-16569055D01*
X50004896Y-16569057D01*
X50004895Y-16569057D01*
X49869057Y-16704895D01*
X49869057Y-16704896D01*
X49869055Y-16704898D01*
X49824991Y-16765547D01*
X49756135Y-16860318D01*
X49668916Y-17031493D01*
X49647931Y-17096081D01*
X49608494Y-17153756D01*
X49544135Y-17180955D01*
X49475289Y-17169041D01*
X49423813Y-17121797D01*
X49412069Y-17096081D01*
X49391083Y-17031493D01*
X49303864Y-16860318D01*
X49263955Y-16805388D01*
X49190945Y-16704898D01*
X49055102Y-16569055D01*
X48899681Y-16456135D01*
X48833577Y-16422453D01*
X48728506Y-16368916D01*
X48545802Y-16309553D01*
X48450928Y-16294526D01*
X48356055Y-16279500D01*
X48163945Y-16279500D01*
X48100696Y-16289517D01*
X47974197Y-16309553D01*
X47791493Y-16368916D01*
X47620318Y-16456135D01*
X47531645Y-16520560D01*
X47464898Y-16569055D01*
X47464896Y-16569057D01*
X47464895Y-16569057D01*
X47329057Y-16704895D01*
X47329057Y-16704896D01*
X47329055Y-16704898D01*
X47284991Y-16765547D01*
X47216135Y-16860318D01*
X47128916Y-17031493D01*
X47107931Y-17096081D01*
X47068494Y-17153756D01*
X47004135Y-17180955D01*
X46935289Y-17169041D01*
X46883813Y-17121797D01*
X46872069Y-17096081D01*
X46851083Y-17031493D01*
X46763864Y-16860318D01*
X46723955Y-16805388D01*
X46650945Y-16704898D01*
X46515102Y-16569055D01*
X46359681Y-16456135D01*
X46293577Y-16422453D01*
X46188506Y-16368916D01*
X46005802Y-16309553D01*
X45910928Y-16294526D01*
X45816055Y-16279500D01*
X45623945Y-16279500D01*
X45560696Y-16289517D01*
X45434197Y-16309553D01*
X45251493Y-16368916D01*
X45080318Y-16456135D01*
X44991645Y-16520560D01*
X44924898Y-16569055D01*
X44924896Y-16569057D01*
X44924895Y-16569057D01*
X44789057Y-16704895D01*
X44789057Y-16704896D01*
X44789055Y-16704898D01*
X44744991Y-16765547D01*
X44676135Y-16860318D01*
X44588916Y-17031493D01*
X44567931Y-17096081D01*
X44528494Y-17153756D01*
X44464135Y-17180955D01*
X44395289Y-17169041D01*
X44343813Y-17121797D01*
X44332069Y-17096081D01*
X44311083Y-17031493D01*
X44223864Y-16860318D01*
X44183955Y-16805388D01*
X44110945Y-16704898D01*
X43975102Y-16569055D01*
X43819681Y-16456135D01*
X43753577Y-16422453D01*
X43648506Y-16368916D01*
X43465802Y-16309553D01*
X43370928Y-16294526D01*
X43276055Y-16279500D01*
X43083945Y-16279500D01*
X43020696Y-16289517D01*
X42894197Y-16309553D01*
X42711493Y-16368916D01*
X42540318Y-16456135D01*
X42451645Y-16520560D01*
X42384898Y-16569055D01*
X42384896Y-16569057D01*
X42384895Y-16569057D01*
X42249057Y-16704895D01*
X42249057Y-16704896D01*
X42249055Y-16704898D01*
X42204991Y-16765547D01*
X42136135Y-16860318D01*
X42048916Y-17031493D01*
X42027931Y-17096081D01*
X41988494Y-17153756D01*
X41924135Y-17180955D01*
X41855289Y-17169041D01*
X41803813Y-17121797D01*
X41792069Y-17096081D01*
X41771083Y-17031493D01*
X41683864Y-16860318D01*
X41643955Y-16805388D01*
X41570945Y-16704898D01*
X41435102Y-16569055D01*
X41279681Y-16456135D01*
X41213577Y-16422453D01*
X41108506Y-16368916D01*
X40925802Y-16309553D01*
X40830928Y-16294526D01*
X40736055Y-16279500D01*
X40543945Y-16279500D01*
X40480696Y-16289517D01*
X40354197Y-16309553D01*
X40171493Y-16368916D01*
X40000318Y-16456135D01*
X39911645Y-16520560D01*
X39844898Y-16569055D01*
X39844896Y-16569057D01*
X39844895Y-16569057D01*
X39709057Y-16704895D01*
X39709057Y-16704896D01*
X39709055Y-16704898D01*
X39664991Y-16765547D01*
X39596135Y-16860318D01*
X39508916Y-17031493D01*
X39487931Y-17096081D01*
X39448494Y-17153756D01*
X39384135Y-17180955D01*
X39315289Y-17169041D01*
X39263813Y-17121797D01*
X39252069Y-17096081D01*
X39231083Y-17031493D01*
X39143864Y-16860318D01*
X39103955Y-16805388D01*
X39030945Y-16704898D01*
X38895102Y-16569055D01*
X38739681Y-16456135D01*
X38673577Y-16422453D01*
X38568506Y-16368916D01*
X38385802Y-16309553D01*
X38290928Y-16294526D01*
X38196055Y-16279500D01*
X38003945Y-16279500D01*
X37940696Y-16289517D01*
X37814197Y-16309553D01*
X37631493Y-16368916D01*
X37460318Y-16456135D01*
X37371645Y-16520560D01*
X37304898Y-16569055D01*
X37304896Y-16569057D01*
X37304895Y-16569057D01*
X37169057Y-16704895D01*
X37169050Y-16704904D01*
X37155989Y-16722881D01*
X37100659Y-16765547D01*
X37031046Y-16771525D01*
X36969251Y-16738919D01*
X36957297Y-16725482D01*
X36878918Y-16623338D01*
X36878911Y-16623330D01*
X36716670Y-16461089D01*
X36716661Y-16461081D01*
X36534617Y-16321392D01*
X36335890Y-16206657D01*
X36335876Y-16206650D01*
X36123887Y-16118842D01*
X35902238Y-16059452D01*
X35864215Y-16054446D01*
X35674741Y-16029500D01*
X35674734Y-16029500D01*
X24244734Y-16029500D01*
X20205266Y-16029500D01*
X20205260Y-16029500D01*
X20205255Y-16029501D01*
X20004228Y-16055966D01*
X20004228Y-16055967D01*
X20000215Y-16056495D01*
X19977763Y-16059451D01*
X19756112Y-16118842D01*
X19544123Y-16206650D01*
X19544108Y-16206657D01*
X19345388Y-16321388D01*
X19213677Y-16422454D01*
X19213676Y-16422453D01*
X19163345Y-16461075D01*
X19163333Y-16461086D01*
X11381084Y-24243333D01*
X11381078Y-24243340D01*
X11321509Y-24320973D01*
X11311235Y-24334363D01*
X11293352Y-24357669D01*
X11241385Y-24425392D01*
X11182382Y-24527591D01*
X11168216Y-24552128D01*
X11163176Y-24560858D01*
X11126656Y-24624111D01*
X11126654Y-24624115D01*
X11038845Y-24836103D01*
X11038842Y-24836113D01*
X10994590Y-25001266D01*
X10979452Y-25057762D01*
X10949500Y-25285258D01*
X10949500Y-28054741D01*
X10968751Y-28200956D01*
X10979452Y-28282238D01*
X11028737Y-28466174D01*
X11038842Y-28503887D01*
X11126650Y-28715876D01*
X11126656Y-28715888D01*
X11237182Y-28907326D01*
X11241392Y-28914617D01*
X11381081Y-29096661D01*
X11381089Y-29096670D01*
X11543330Y-29258911D01*
X11543338Y-29258918D01*
X11543339Y-29258919D01*
X11593962Y-29297764D01*
X11725382Y-29398607D01*
X11725385Y-29398608D01*
X11725388Y-29398611D01*
X11924112Y-29513344D01*
X11924117Y-29513346D01*
X11924123Y-29513349D01*
X12007433Y-29547857D01*
X12136113Y-29601158D01*
X12357762Y-29660548D01*
X12585266Y-29690500D01*
X12585273Y-29690500D01*
X12814727Y-29690500D01*
X12814734Y-29690500D01*
X13042238Y-29660548D01*
X13263887Y-29601158D01*
X13475888Y-29513344D01*
X13674612Y-29398611D01*
X13856661Y-29258919D01*
X13856665Y-29258914D01*
X13856670Y-29258911D01*
X14018911Y-29096670D01*
X14018914Y-29096665D01*
X14018919Y-29096661D01*
X14158611Y-28914612D01*
X14273344Y-28715888D01*
X14361158Y-28503887D01*
X14420548Y-28282238D01*
X14450500Y-28054734D01*
X14450500Y-27939999D01*
X16550321Y-27939999D01*
X16550321Y-27940000D01*
X16569002Y-28153527D01*
X16569004Y-28153537D01*
X16624477Y-28360567D01*
X16624481Y-28360576D01*
X16715066Y-28554838D01*
X16715067Y-28554840D01*
X16754825Y-28611620D01*
X16754826Y-28611621D01*
X17358274Y-28008172D01*
X17383963Y-28104044D01*
X17439916Y-28200956D01*
X17519044Y-28280084D01*
X17615956Y-28336037D01*
X17711827Y-28361725D01*
X17108377Y-28965173D01*
X17165161Y-29004933D01*
X17359423Y-29095518D01*
X17359432Y-29095522D01*
X17566462Y-29150995D01*
X17566472Y-29150997D01*
X17779999Y-29169679D01*
X17780001Y-29169679D01*
X17993527Y-29150997D01*
X17993537Y-29150995D01*
X18200567Y-29095522D01*
X18200576Y-29095518D01*
X18394839Y-29004933D01*
X18451621Y-28965173D01*
X17848173Y-28361725D01*
X17944044Y-28336037D01*
X18040956Y-28280084D01*
X18120084Y-28200956D01*
X18176037Y-28104044D01*
X18201725Y-28008172D01*
X18805173Y-28611621D01*
X18844933Y-28554839D01*
X18935518Y-28360576D01*
X18935522Y-28360567D01*
X18990995Y-28153537D01*
X18990997Y-28153527D01*
X19009679Y-27940000D01*
X19009679Y-27939999D01*
X18990997Y-27726472D01*
X18990995Y-27726462D01*
X18935522Y-27519432D01*
X18935518Y-27519423D01*
X18844933Y-27325162D01*
X18805172Y-27268379D01*
X18201725Y-27871826D01*
X18176037Y-27775956D01*
X18120084Y-27679044D01*
X18040956Y-27599916D01*
X17944044Y-27543963D01*
X17848173Y-27518274D01*
X18451621Y-26914826D01*
X18451620Y-26914825D01*
X18394840Y-26875067D01*
X18394838Y-26875066D01*
X18200576Y-26784481D01*
X18200567Y-26784477D01*
X17993537Y-26729004D01*
X17993527Y-26729002D01*
X17780001Y-26710321D01*
X17779999Y-26710321D01*
X17566472Y-26729002D01*
X17566462Y-26729004D01*
X17359432Y-26784477D01*
X17359423Y-26784481D01*
X17165162Y-26875066D01*
X17108378Y-26914826D01*
X17711827Y-27518274D01*
X17615956Y-27543963D01*
X17519044Y-27599916D01*
X17439916Y-27679044D01*
X17383963Y-27775956D01*
X17358274Y-27871826D01*
X16754826Y-27268378D01*
X16715066Y-27325162D01*
X16624481Y-27519423D01*
X16624477Y-27519432D01*
X16569004Y-27726462D01*
X16569002Y-27726472D01*
X16550321Y-27939999D01*
X14450500Y-27939999D01*
X14450500Y-26176442D01*
X14470185Y-26109403D01*
X14486819Y-26088761D01*
X21008761Y-19566819D01*
X21070084Y-19533334D01*
X21096442Y-19530500D01*
X35674727Y-19530500D01*
X35674734Y-19530500D01*
X35902238Y-19500548D01*
X36123887Y-19441158D01*
X36335888Y-19353344D01*
X36534612Y-19238611D01*
X36716661Y-19098919D01*
X36716665Y-19098914D01*
X36716670Y-19098911D01*
X36878911Y-18936670D01*
X36878916Y-18936664D01*
X36878919Y-18936661D01*
X36957298Y-18834515D01*
X37013723Y-18793315D01*
X37083469Y-18789160D01*
X37144389Y-18823372D01*
X37155988Y-18837117D01*
X37169055Y-18855102D01*
X37304898Y-18990945D01*
X37460319Y-19103865D01*
X37593079Y-19171510D01*
X37631493Y-19191083D01*
X37722845Y-19220764D01*
X37814199Y-19250447D01*
X38003945Y-19280500D01*
X38003946Y-19280500D01*
X38196054Y-19280500D01*
X38196055Y-19280500D01*
X38385801Y-19250447D01*
X38540006Y-19200342D01*
X38609845Y-19198348D01*
X38666003Y-19230593D01*
X42518181Y-23082771D01*
X42551666Y-23144094D01*
X42554500Y-23170452D01*
X42554500Y-24185811D01*
X42534815Y-24252850D01*
X42501623Y-24287386D01*
X42340859Y-24399953D01*
X42179954Y-24560858D01*
X42162725Y-24585464D01*
X42108147Y-24629088D01*
X42038648Y-24636280D01*
X41976294Y-24604757D01*
X41940882Y-24544526D01*
X41937861Y-24527591D01*
X41934091Y-24492516D01*
X41883797Y-24357671D01*
X41883793Y-24357664D01*
X41797547Y-24242455D01*
X41797544Y-24242452D01*
X41682335Y-24156206D01*
X41682328Y-24156202D01*
X41547482Y-24105908D01*
X41547483Y-24105908D01*
X41487883Y-24099501D01*
X41487881Y-24099500D01*
X41487873Y-24099500D01*
X41487864Y-24099500D01*
X39792129Y-24099500D01*
X39792123Y-24099501D01*
X39732516Y-24105908D01*
X39597671Y-24156202D01*
X39597664Y-24156206D01*
X39482455Y-24242452D01*
X39482452Y-24242455D01*
X39396206Y-24357664D01*
X39396202Y-24357671D01*
X39345908Y-24492517D01*
X39339501Y-24552116D01*
X39339500Y-24552128D01*
X39339500Y-26247870D01*
X39339501Y-26247876D01*
X39345908Y-26307483D01*
X39396202Y-26442328D01*
X39396206Y-26442335D01*
X39482452Y-26557544D01*
X39482455Y-26557547D01*
X39597664Y-26643793D01*
X39597671Y-26643797D01*
X39732517Y-26694091D01*
X39732516Y-26694091D01*
X39739444Y-26694835D01*
X39792127Y-26700500D01*
X40695547Y-26700499D01*
X40762586Y-26720183D01*
X40808341Y-26772987D01*
X40818285Y-26842146D01*
X40789260Y-26905702D01*
X40783228Y-26912180D01*
X37072818Y-30622590D01*
X37011495Y-30656075D01*
X36941803Y-30651091D01*
X36885870Y-30609219D01*
X36861453Y-30543755D01*
X36861608Y-30524109D01*
X36865468Y-30480000D01*
X36845635Y-30253308D01*
X36786739Y-30033504D01*
X36690568Y-29827266D01*
X36573832Y-29660548D01*
X36560045Y-29640858D01*
X36399141Y-29479954D01*
X36212734Y-29349432D01*
X36212732Y-29349431D01*
X36006497Y-29253261D01*
X36006488Y-29253258D01*
X35786697Y-29194366D01*
X35786693Y-29194365D01*
X35786692Y-29194365D01*
X35786691Y-29194364D01*
X35786686Y-29194364D01*
X35560002Y-29174532D01*
X35559998Y-29174532D01*
X35333313Y-29194364D01*
X35333302Y-29194366D01*
X35113511Y-29253258D01*
X35113502Y-29253261D01*
X34907267Y-29349431D01*
X34907265Y-29349432D01*
X34720858Y-29479954D01*
X34559954Y-29640858D01*
X34429432Y-29827265D01*
X34429431Y-29827267D01*
X34402382Y-29885275D01*
X34356209Y-29937714D01*
X34289016Y-29956866D01*
X34222135Y-29936650D01*
X34177618Y-29885275D01*
X34150568Y-29827267D01*
X34150567Y-29827265D01*
X34020045Y-29640858D01*
X33859141Y-29479954D01*
X33672734Y-29349432D01*
X33672732Y-29349431D01*
X33466497Y-29253261D01*
X33466488Y-29253258D01*
X33246697Y-29194366D01*
X33246693Y-29194365D01*
X33246692Y-29194365D01*
X33246691Y-29194364D01*
X33246686Y-29194364D01*
X33020002Y-29174532D01*
X33019998Y-29174532D01*
X32793313Y-29194364D01*
X32793302Y-29194366D01*
X32573511Y-29253258D01*
X32573502Y-29253261D01*
X32367267Y-29349431D01*
X32367265Y-29349432D01*
X32180858Y-29479954D01*
X32019954Y-29640858D01*
X31889432Y-29827265D01*
X31889431Y-29827267D01*
X31862382Y-29885275D01*
X31816209Y-29937714D01*
X31749016Y-29956866D01*
X31682135Y-29936650D01*
X31637618Y-29885275D01*
X31610568Y-29827267D01*
X31610567Y-29827265D01*
X31480045Y-29640858D01*
X31319141Y-29479954D01*
X31132734Y-29349432D01*
X31132732Y-29349431D01*
X30926497Y-29253261D01*
X30926488Y-29253258D01*
X30706697Y-29194366D01*
X30706693Y-29194365D01*
X30706692Y-29194365D01*
X30706691Y-29194364D01*
X30706686Y-29194364D01*
X30480002Y-29174532D01*
X30479998Y-29174532D01*
X30253313Y-29194364D01*
X30253302Y-29194366D01*
X30033511Y-29253258D01*
X30033502Y-29253261D01*
X29827267Y-29349431D01*
X29827265Y-29349432D01*
X29640858Y-29479954D01*
X29479954Y-29640858D01*
X29349432Y-29827265D01*
X29349431Y-29827267D01*
X29322382Y-29885275D01*
X29276209Y-29937714D01*
X29209016Y-29956866D01*
X29142135Y-29936650D01*
X29097618Y-29885275D01*
X29070568Y-29827267D01*
X29070567Y-29827265D01*
X28940045Y-29640858D01*
X28779141Y-29479954D01*
X28592734Y-29349432D01*
X28592732Y-29349431D01*
X28386497Y-29253261D01*
X28386488Y-29253258D01*
X28166697Y-29194366D01*
X28166693Y-29194365D01*
X28166692Y-29194365D01*
X28166691Y-29194364D01*
X28166686Y-29194364D01*
X27940002Y-29174532D01*
X27939998Y-29174532D01*
X27713313Y-29194364D01*
X27713302Y-29194366D01*
X27493511Y-29253258D01*
X27493502Y-29253261D01*
X27287267Y-29349431D01*
X27287265Y-29349432D01*
X27100858Y-29479954D01*
X26939954Y-29640858D01*
X26809432Y-29827265D01*
X26809431Y-29827267D01*
X26782382Y-29885275D01*
X26736209Y-29937714D01*
X26669016Y-29956866D01*
X26602135Y-29936650D01*
X26557618Y-29885275D01*
X26530568Y-29827267D01*
X26530567Y-29827265D01*
X26400045Y-29640858D01*
X26307045Y-29547858D01*
X26273560Y-29486535D01*
X26278544Y-29416843D01*
X26320416Y-29360910D01*
X26381473Y-29336887D01*
X26407483Y-29334091D01*
X26542328Y-29283797D01*
X26542327Y-29283797D01*
X26542331Y-29283796D01*
X26657546Y-29197546D01*
X26743796Y-29082331D01*
X26794091Y-28947483D01*
X26800500Y-28887873D01*
X26800499Y-26992128D01*
X26794091Y-26932517D01*
X26787492Y-26914825D01*
X26743797Y-26797671D01*
X26743793Y-26797664D01*
X26657547Y-26682455D01*
X26657544Y-26682452D01*
X26542335Y-26596206D01*
X26542328Y-26596202D01*
X26407482Y-26545908D01*
X26407483Y-26545908D01*
X26347883Y-26539501D01*
X26347881Y-26539500D01*
X26347873Y-26539500D01*
X26347865Y-26539500D01*
X26237308Y-26539500D01*
X26170269Y-26519815D01*
X26149627Y-26503181D01*
X25488585Y-25842137D01*
X25573694Y-25819333D01*
X25676306Y-25760090D01*
X25760090Y-25676306D01*
X25819333Y-25573694D01*
X25842138Y-25488585D01*
X26551186Y-26197633D01*
X26635482Y-26068611D01*
X26728682Y-25856135D01*
X26785638Y-25631218D01*
X26804798Y-25400005D01*
X26804798Y-25399994D01*
X26785638Y-25168781D01*
X26728682Y-24943864D01*
X26635484Y-24731393D01*
X26551186Y-24602365D01*
X25842137Y-25311414D01*
X25819333Y-25226306D01*
X25760090Y-25123694D01*
X25676306Y-25039910D01*
X25573694Y-24980667D01*
X25488584Y-24957861D01*
X26198797Y-24247647D01*
X26198797Y-24247645D01*
X26168360Y-24223955D01*
X26168354Y-24223951D01*
X25964302Y-24113523D01*
X25964293Y-24113520D01*
X25744860Y-24038188D01*
X25516007Y-24000000D01*
X25283993Y-24000000D01*
X25055139Y-24038188D01*
X24835706Y-24113520D01*
X24835697Y-24113523D01*
X24631650Y-24223949D01*
X24601200Y-24247647D01*
X25311415Y-24957861D01*
X25226306Y-24980667D01*
X25123694Y-25039910D01*
X25039910Y-25123694D01*
X24980667Y-25226306D01*
X24957861Y-25311415D01*
X24248811Y-24602365D01*
X24164516Y-24731390D01*
X24071317Y-24943864D01*
X24014361Y-25168781D01*
X23995202Y-25399994D01*
X23995202Y-25400005D01*
X24014361Y-25631218D01*
X24071317Y-25856135D01*
X24164515Y-26068606D01*
X24248812Y-26197633D01*
X24957861Y-25488584D01*
X24980667Y-25573694D01*
X25039910Y-25676306D01*
X25123694Y-25760090D01*
X25226306Y-25819333D01*
X25311414Y-25842138D01*
X24650371Y-26503181D01*
X24589048Y-26536666D01*
X24562691Y-26539500D01*
X24452130Y-26539500D01*
X24452123Y-26539501D01*
X24392516Y-26545908D01*
X24257671Y-26596202D01*
X24257664Y-26596206D01*
X24142455Y-26682452D01*
X24142452Y-26682455D01*
X24056206Y-26797664D01*
X24056202Y-26797671D01*
X24005908Y-26932517D01*
X23999501Y-26992116D01*
X23999501Y-26992123D01*
X23999500Y-26992135D01*
X23999500Y-28887870D01*
X23999501Y-28887876D01*
X24005908Y-28947483D01*
X24056202Y-29082328D01*
X24056206Y-29082335D01*
X24142452Y-29197544D01*
X24142455Y-29197547D01*
X24257664Y-29283793D01*
X24257671Y-29283797D01*
X24392513Y-29334090D01*
X24392514Y-29334090D01*
X24392517Y-29334091D01*
X24418530Y-29336887D01*
X24483078Y-29363623D01*
X24522927Y-29421014D01*
X24525423Y-29490839D01*
X24492956Y-29547857D01*
X24399951Y-29640862D01*
X24269432Y-29827265D01*
X24269431Y-29827267D01*
X24173261Y-30033502D01*
X24173258Y-30033511D01*
X24114366Y-30253302D01*
X24114364Y-30253313D01*
X24094532Y-30479998D01*
X24094532Y-30480001D01*
X24114364Y-30706686D01*
X24114366Y-30706697D01*
X24173258Y-30926488D01*
X24173261Y-30926496D01*
X24269432Y-31132734D01*
X24303751Y-31181747D01*
X24326078Y-31247952D01*
X24309068Y-31315719D01*
X24289861Y-31340546D01*
X24279145Y-31351263D01*
X24279139Y-31351270D01*
X21546266Y-34084143D01*
X21469203Y-34161204D01*
X21407880Y-34194689D01*
X21403589Y-34194961D01*
X20720000Y-34878551D01*
X20720000Y-34872339D01*
X20692741Y-34770606D01*
X20640080Y-34679394D01*
X20565606Y-34604920D01*
X20474394Y-34552259D01*
X20372661Y-34525000D01*
X20366448Y-34525000D01*
X21045472Y-33845974D01*
X20972478Y-33794863D01*
X20766331Y-33698735D01*
X20766317Y-33698730D01*
X20546610Y-33639860D01*
X20546599Y-33639858D01*
X20320002Y-33620034D01*
X20319998Y-33620034D01*
X20093400Y-33639858D01*
X20093389Y-33639860D01*
X19873682Y-33698730D01*
X19873673Y-33698734D01*
X19667516Y-33794866D01*
X19667512Y-33794868D01*
X19594526Y-33845973D01*
X19594526Y-33845974D01*
X20273553Y-34525000D01*
X20267339Y-34525000D01*
X20165606Y-34552259D01*
X20074394Y-34604920D01*
X19999920Y-34679394D01*
X19947259Y-34770606D01*
X19920000Y-34872339D01*
X19920000Y-34878552D01*
X19240974Y-34199526D01*
X19240973Y-34199526D01*
X19189868Y-34272512D01*
X19189866Y-34272516D01*
X19093734Y-34478673D01*
X19093730Y-34478682D01*
X19034860Y-34698389D01*
X19034858Y-34698400D01*
X19015034Y-34924997D01*
X19015034Y-34925002D01*
X19034858Y-35151599D01*
X19034860Y-35151610D01*
X19093730Y-35371317D01*
X19093735Y-35371331D01*
X19189863Y-35577478D01*
X19240974Y-35650472D01*
X19920000Y-34971446D01*
X19920000Y-34977661D01*
X19947259Y-35079394D01*
X19999920Y-35170606D01*
X20074394Y-35245080D01*
X20165606Y-35297741D01*
X20267339Y-35325000D01*
X20273553Y-35325000D01*
X19594526Y-36004025D01*
X19667513Y-36055132D01*
X19667521Y-36055136D01*
X19873668Y-36151264D01*
X19873682Y-36151269D01*
X20093389Y-36210139D01*
X20093400Y-36210141D01*
X20319998Y-36229966D01*
X20320002Y-36229966D01*
X20546599Y-36210141D01*
X20546610Y-36210139D01*
X20766317Y-36151269D01*
X20766326Y-36151265D01*
X20972482Y-36055134D01*
X21124376Y-35948776D01*
X21190582Y-35926449D01*
X21258350Y-35943459D01*
X21306163Y-35994407D01*
X21319500Y-36050351D01*
X21319500Y-44505811D01*
X21299815Y-44572850D01*
X21266623Y-44607386D01*
X21105859Y-44719953D01*
X20944954Y-44880858D01*
X20814432Y-45067265D01*
X20814431Y-45067267D01*
X20787382Y-45125275D01*
X20741209Y-45177714D01*
X20674016Y-45196866D01*
X20607135Y-45176650D01*
X20562618Y-45125275D01*
X20535686Y-45067520D01*
X20535568Y-45067266D01*
X20405047Y-44880861D01*
X20405045Y-44880858D01*
X20244141Y-44719954D01*
X20057734Y-44589432D01*
X20057732Y-44589431D01*
X19851497Y-44493261D01*
X19851488Y-44493258D01*
X19631697Y-44434366D01*
X19631693Y-44434365D01*
X19631692Y-44434365D01*
X19631691Y-44434364D01*
X19631686Y-44434364D01*
X19405002Y-44414532D01*
X19404998Y-44414532D01*
X19178313Y-44434364D01*
X19178302Y-44434366D01*
X18958511Y-44493258D01*
X18958502Y-44493261D01*
X18752267Y-44589431D01*
X18752265Y-44589432D01*
X18565858Y-44719954D01*
X18404954Y-44880858D01*
X18274432Y-45067265D01*
X18274431Y-45067267D01*
X18247382Y-45125275D01*
X18201209Y-45177714D01*
X18134016Y-45196866D01*
X18067135Y-45176650D01*
X18022618Y-45125275D01*
X17995686Y-45067520D01*
X17995568Y-45067266D01*
X17865047Y-44880861D01*
X17865045Y-44880858D01*
X17704141Y-44719954D01*
X17517734Y-44589432D01*
X17517732Y-44589431D01*
X17311497Y-44493261D01*
X17311488Y-44493258D01*
X17091697Y-44434366D01*
X17091693Y-44434365D01*
X17091692Y-44434365D01*
X17091691Y-44434364D01*
X17091686Y-44434364D01*
X16865002Y-44414532D01*
X16864998Y-44414532D01*
X16638313Y-44434364D01*
X16638302Y-44434366D01*
X16418511Y-44493258D01*
X16418502Y-44493261D01*
X16212267Y-44589431D01*
X16212265Y-44589432D01*
X16025858Y-44719954D01*
X15864954Y-44880858D01*
X15734433Y-45067264D01*
X15734432Y-45067266D01*
X15734315Y-45067518D01*
X15707106Y-45125867D01*
X15660933Y-45178306D01*
X15593739Y-45197457D01*
X15526858Y-45177241D01*
X15482342Y-45125865D01*
X15455135Y-45067520D01*
X15455134Y-45067518D01*
X15324657Y-44881179D01*
X15163820Y-44720342D01*
X14977482Y-44589865D01*
X14771328Y-44493734D01*
X14575000Y-44441127D01*
X14575000Y-45404314D01*
X14570606Y-45399920D01*
X14479394Y-45347259D01*
X14377661Y-45320000D01*
X14272339Y-45320000D01*
X14170606Y-45347259D01*
X14079394Y-45399920D01*
X14075000Y-45404314D01*
X14075000Y-44441127D01*
X13878671Y-44493734D01*
X13672517Y-44589865D01*
X13486179Y-44720342D01*
X13325342Y-44881179D01*
X13194867Y-45067515D01*
X13167657Y-45125867D01*
X13121484Y-45178306D01*
X13054290Y-45197457D01*
X12987409Y-45177241D01*
X12942893Y-45125865D01*
X12915685Y-45067518D01*
X12915568Y-45067266D01*
X12785047Y-44880861D01*
X12785045Y-44880858D01*
X12624141Y-44719954D01*
X12437734Y-44589432D01*
X12437732Y-44589431D01*
X12231497Y-44493261D01*
X12231488Y-44493258D01*
X12011697Y-44434366D01*
X12011693Y-44434365D01*
X12011692Y-44434365D01*
X12011691Y-44434364D01*
X12011686Y-44434364D01*
X11785002Y-44414532D01*
X11784998Y-44414532D01*
X11558313Y-44434364D01*
X11558302Y-44434366D01*
X11338511Y-44493258D01*
X11338502Y-44493261D01*
X11132267Y-44589431D01*
X11132265Y-44589432D01*
X10945858Y-44719954D01*
X10784954Y-44880858D01*
X10654432Y-45067265D01*
X10654431Y-45067267D01*
X10558261Y-45273502D01*
X10558258Y-45273511D01*
X10499366Y-45493302D01*
X10499364Y-45493313D01*
X10479532Y-45719998D01*
X3993500Y-45719998D01*
X3993500Y-39505915D01*
X4013185Y-39438876D01*
X4065989Y-39393121D01*
X4135147Y-39383177D01*
X4160835Y-39389734D01*
X4172517Y-39394091D01*
X4172516Y-39394091D01*
X4179444Y-39394835D01*
X4232127Y-39400500D01*
X5927872Y-39400499D01*
X5987483Y-39394091D01*
X6122331Y-39343796D01*
X6237546Y-39257546D01*
X6244350Y-39248455D01*
X6300280Y-39206584D01*
X6369971Y-39201597D01*
X6414740Y-39221188D01*
X6427512Y-39230130D01*
X6427518Y-39230134D01*
X6633673Y-39326265D01*
X6633682Y-39326269D01*
X6853389Y-39385139D01*
X6853400Y-39385141D01*
X7079998Y-39404966D01*
X7080002Y-39404966D01*
X7306599Y-39385141D01*
X7306610Y-39385139D01*
X7526317Y-39326269D01*
X7526331Y-39326264D01*
X7732478Y-39230136D01*
X7805471Y-39179024D01*
X7126447Y-38500000D01*
X7132661Y-38500000D01*
X7234394Y-38472741D01*
X7325606Y-38420080D01*
X7400080Y-38345606D01*
X7452741Y-38254394D01*
X7480000Y-38152661D01*
X7480000Y-38146447D01*
X8159024Y-38825471D01*
X8210136Y-38752478D01*
X8306264Y-38546331D01*
X8306269Y-38546317D01*
X8365139Y-38326610D01*
X8365141Y-38326599D01*
X8384966Y-38100002D01*
X8384966Y-38099997D01*
X8365141Y-37873400D01*
X8365139Y-37873389D01*
X8306269Y-37653682D01*
X8306264Y-37653668D01*
X8210136Y-37447521D01*
X8210132Y-37447513D01*
X8159025Y-37374526D01*
X7480000Y-38053551D01*
X7480000Y-38047339D01*
X7452741Y-37945606D01*
X7400080Y-37854394D01*
X7325606Y-37779920D01*
X7234394Y-37727259D01*
X7132661Y-37700000D01*
X7126447Y-37700000D01*
X7805472Y-37020974D01*
X7732478Y-36969863D01*
X7526331Y-36873735D01*
X7526317Y-36873730D01*
X7306610Y-36814860D01*
X7306599Y-36814858D01*
X7080002Y-36795034D01*
X7079998Y-36795034D01*
X6853400Y-36814858D01*
X6853389Y-36814860D01*
X6633682Y-36873730D01*
X6633673Y-36873734D01*
X6427512Y-36969868D01*
X6427507Y-36969871D01*
X6414736Y-36978813D01*
X6348529Y-37001138D01*
X6280763Y-36984124D01*
X6244352Y-36951546D01*
X6237546Y-36942454D01*
X6237544Y-36942453D01*
X6237544Y-36942452D01*
X6122335Y-36856206D01*
X6122328Y-36856202D01*
X5987482Y-36805908D01*
X5987483Y-36805908D01*
X5927883Y-36799501D01*
X5927881Y-36799500D01*
X5927873Y-36799500D01*
X5927864Y-36799500D01*
X4232129Y-36799500D01*
X4232123Y-36799501D01*
X4172515Y-36805909D01*
X4160830Y-36810267D01*
X4091138Y-36815249D01*
X4029816Y-36781762D01*
X3996333Y-36720438D01*
X3993500Y-36694084D01*
X3993500Y-34924998D01*
X11394532Y-34924998D01*
X11394532Y-34925001D01*
X11414364Y-35151686D01*
X11414366Y-35151697D01*
X11473258Y-35371488D01*
X11473261Y-35371497D01*
X11569431Y-35577732D01*
X11569432Y-35577734D01*
X11699954Y-35764141D01*
X11860858Y-35925045D01*
X11860861Y-35925047D01*
X12047266Y-36055568D01*
X12253504Y-36151739D01*
X12473308Y-36210635D01*
X12635230Y-36224801D01*
X12699998Y-36230468D01*
X12700000Y-36230468D01*
X12700002Y-36230468D01*
X12756673Y-36225509D01*
X12926692Y-36210635D01*
X13146496Y-36151739D01*
X13352734Y-36055568D01*
X13539139Y-35925047D01*
X13700047Y-35764139D01*
X13830568Y-35577734D01*
X13926739Y-35371496D01*
X13985635Y-35151692D01*
X14005468Y-34925000D01*
X13985635Y-34698308D01*
X13926739Y-34478504D01*
X13830568Y-34272266D01*
X13700047Y-34085861D01*
X13700045Y-34085858D01*
X13539141Y-33924954D01*
X13352734Y-33794432D01*
X13352732Y-33794431D01*
X13146497Y-33698261D01*
X13146488Y-33698258D01*
X12926697Y-33639366D01*
X12926693Y-33639365D01*
X12926692Y-33639365D01*
X12926691Y-33639364D01*
X12926686Y-33639364D01*
X12700002Y-33619532D01*
X12699998Y-33619532D01*
X12473313Y-33639364D01*
X12473302Y-33639366D01*
X12253511Y-33698258D01*
X12253502Y-33698261D01*
X12047267Y-33794431D01*
X12047265Y-33794432D01*
X11860858Y-33924954D01*
X11699954Y-34085858D01*
X11569432Y-34272265D01*
X11569431Y-34272267D01*
X11473261Y-34478502D01*
X11473258Y-34478511D01*
X11414366Y-34698302D01*
X11414364Y-34698313D01*
X11394532Y-34924998D01*
X3993500Y-34924998D01*
X3993500Y-29242942D01*
X4013185Y-29175903D01*
X4065989Y-29130148D01*
X4135147Y-29120204D01*
X4160833Y-29126760D01*
X4247517Y-29159091D01*
X4247516Y-29159091D01*
X4254251Y-29159815D01*
X4307127Y-29165500D01*
X5852872Y-29165499D01*
X5912483Y-29159091D01*
X6047331Y-29108796D01*
X6162546Y-29022546D01*
X6248796Y-28907331D01*
X6299091Y-28772483D01*
X6305500Y-28712873D01*
X6305499Y-28578965D01*
X6325183Y-28511929D01*
X6377987Y-28466174D01*
X6447145Y-28456230D01*
X6510701Y-28485254D01*
X6541881Y-28526562D01*
X6555068Y-28554841D01*
X6594825Y-28611620D01*
X6594826Y-28611621D01*
X7198274Y-28008172D01*
X7223963Y-28104044D01*
X7279916Y-28200956D01*
X7359044Y-28280084D01*
X7455956Y-28336037D01*
X7551827Y-28361725D01*
X6948377Y-28965173D01*
X7005161Y-29004933D01*
X7199423Y-29095518D01*
X7199432Y-29095522D01*
X7406462Y-29150995D01*
X7406472Y-29150997D01*
X7619999Y-29169679D01*
X7620001Y-29169679D01*
X7833527Y-29150997D01*
X7833537Y-29150995D01*
X8040567Y-29095522D01*
X8040576Y-29095518D01*
X8234839Y-29004933D01*
X8291621Y-28965173D01*
X7688173Y-28361725D01*
X7784044Y-28336037D01*
X7880956Y-28280084D01*
X7960084Y-28200956D01*
X8016037Y-28104044D01*
X8041725Y-28008172D01*
X8645173Y-28611621D01*
X8684933Y-28554839D01*
X8775518Y-28360576D01*
X8775522Y-28360567D01*
X8830995Y-28153537D01*
X8830997Y-28153527D01*
X8849679Y-27940000D01*
X8849679Y-27939999D01*
X8830997Y-27726472D01*
X8830995Y-27726462D01*
X8775522Y-27519432D01*
X8775518Y-27519423D01*
X8684933Y-27325162D01*
X8645172Y-27268379D01*
X8041725Y-27871826D01*
X8016037Y-27775956D01*
X7960084Y-27679044D01*
X7880956Y-27599916D01*
X7784044Y-27543963D01*
X7688173Y-27518274D01*
X8291621Y-26914826D01*
X8291620Y-26914825D01*
X8234840Y-26875067D01*
X8234838Y-26875066D01*
X8124809Y-26823759D01*
X8072370Y-26777587D01*
X8053218Y-26710393D01*
X8073434Y-26643512D01*
X8124810Y-26598995D01*
X8272478Y-26530136D01*
X8345471Y-26479024D01*
X7666447Y-25800000D01*
X7672661Y-25800000D01*
X7774394Y-25772741D01*
X7865606Y-25720080D01*
X7940080Y-25645606D01*
X7992741Y-25554394D01*
X8020000Y-25452661D01*
X8020000Y-25446447D01*
X8699024Y-26125471D01*
X8750136Y-26052478D01*
X8846264Y-25846331D01*
X8846269Y-25846317D01*
X8905139Y-25626610D01*
X8905141Y-25626599D01*
X8924966Y-25400002D01*
X8924966Y-25399997D01*
X8905141Y-25173400D01*
X8905139Y-25173389D01*
X8846269Y-24953682D01*
X8846264Y-24953668D01*
X8750136Y-24747521D01*
X8750132Y-24747513D01*
X8699025Y-24674526D01*
X8020000Y-25353551D01*
X8020000Y-25347339D01*
X7992741Y-25245606D01*
X7940080Y-25154394D01*
X7865606Y-25079920D01*
X7774394Y-25027259D01*
X7672661Y-25000000D01*
X7666448Y-25000000D01*
X8345472Y-24320974D01*
X8272478Y-24269863D01*
X8066331Y-24173735D01*
X8066317Y-24173730D01*
X7846610Y-24114860D01*
X7846599Y-24114858D01*
X7620002Y-24095034D01*
X7619998Y-24095034D01*
X7393400Y-24114858D01*
X7393389Y-24114860D01*
X7173682Y-24173730D01*
X7173673Y-24173734D01*
X6967516Y-24269866D01*
X6967512Y-24269868D01*
X6894526Y-24320973D01*
X6894526Y-24320974D01*
X7573553Y-25000000D01*
X7567339Y-25000000D01*
X7465606Y-25027259D01*
X7374394Y-25079920D01*
X7299920Y-25154394D01*
X7247259Y-25245606D01*
X7220000Y-25347339D01*
X7220000Y-25353552D01*
X6540974Y-24674526D01*
X6540973Y-24674526D01*
X6489868Y-24747512D01*
X6489866Y-24747516D01*
X6393734Y-24953673D01*
X6393730Y-24953682D01*
X6334860Y-25173389D01*
X6334858Y-25173400D01*
X6315034Y-25399997D01*
X6315034Y-25400002D01*
X6334858Y-25626599D01*
X6334860Y-25626610D01*
X6393730Y-25846317D01*
X6393735Y-25846331D01*
X6489863Y-26052478D01*
X6540974Y-26125472D01*
X7220000Y-25446446D01*
X7220000Y-25452661D01*
X7247259Y-25554394D01*
X7299920Y-25645606D01*
X7374394Y-25720080D01*
X7465606Y-25772741D01*
X7567339Y-25800000D01*
X7573553Y-25800000D01*
X6894526Y-26479025D01*
X6967513Y-26530132D01*
X6967517Y-26530134D01*
X7115190Y-26598995D01*
X7167629Y-26645167D01*
X7186781Y-26712361D01*
X7166565Y-26779242D01*
X7115190Y-26823759D01*
X7005162Y-26875066D01*
X6948378Y-26914826D01*
X7551827Y-27518274D01*
X7455956Y-27543963D01*
X7359044Y-27599916D01*
X7279916Y-27679044D01*
X7223963Y-27775956D01*
X7198274Y-27871826D01*
X6594826Y-27268378D01*
X6555067Y-27325160D01*
X6541881Y-27353439D01*
X6495707Y-27405878D01*
X6428514Y-27425029D01*
X6361633Y-27404812D01*
X6316299Y-27351647D01*
X6305499Y-27301033D01*
X6305499Y-27167129D01*
X6305498Y-27167123D01*
X6299091Y-27107516D01*
X6248797Y-26972671D01*
X6248793Y-26972664D01*
X6162547Y-26857455D01*
X6162544Y-26857452D01*
X6047335Y-26771206D01*
X6047328Y-26771202D01*
X5912482Y-26720908D01*
X5912483Y-26720908D01*
X5852883Y-26714501D01*
X5852881Y-26714500D01*
X5852873Y-26714500D01*
X5852864Y-26714500D01*
X4307129Y-26714500D01*
X4307123Y-26714501D01*
X4247515Y-26720909D01*
X4160832Y-26753239D01*
X4091140Y-26758223D01*
X4029818Y-26724737D01*
X3996333Y-26663414D01*
X3993500Y-26637057D01*
X3993500Y-26152452D01*
X4013185Y-26085413D01*
X4029819Y-26064771D01*
X17947771Y-12146819D01*
X18009094Y-12113334D01*
X18035452Y-12110500D01*
X36836607Y-12110500D01*
X36897029Y-12098481D01*
X36957452Y-12086463D01*
X36957455Y-12086461D01*
X36957458Y-12086461D01*
X36990787Y-12072654D01*
X36990786Y-12072654D01*
X36990792Y-12072652D01*
X37071286Y-12039312D01*
X37122509Y-12005084D01*
X37173733Y-11970858D01*
X37260858Y-11883733D01*
X37260859Y-11883731D01*
X37267925Y-11876665D01*
X37267928Y-11876661D01*
X37533997Y-11610591D01*
X37595318Y-11577108D01*
X37659993Y-11580342D01*
X37814199Y-11630447D01*
X38003945Y-11660500D01*
X38003946Y-11660500D01*
X38196054Y-11660500D01*
X38196055Y-11660500D01*
X38385801Y-11630447D01*
X38568509Y-11571082D01*
X38739681Y-11483865D01*
X38895102Y-11370945D01*
X39030945Y-11235102D01*
X39143865Y-11079681D01*
X39231082Y-10908509D01*
X39247006Y-10859500D01*
X39252069Y-10843919D01*
X39291506Y-10786243D01*
X39355864Y-10759044D01*
X39424711Y-10770958D01*
X39476187Y-10818202D01*
X39487931Y-10843919D01*
X39508915Y-10908504D01*
X39508918Y-10908509D01*
X39596135Y-11079681D01*
X39709055Y-11235102D01*
X39844898Y-11370945D01*
X40000319Y-11483865D01*
X40133079Y-11551510D01*
X40171493Y-11571083D01*
X40262845Y-11600764D01*
X40354199Y-11630447D01*
X40543945Y-11660500D01*
X40543946Y-11660500D01*
X40736054Y-11660500D01*
X40736055Y-11660500D01*
X40925801Y-11630447D01*
X41108509Y-11571082D01*
X41279681Y-11483865D01*
X41435102Y-11370945D01*
X41570945Y-11235102D01*
X41683865Y-11079681D01*
X41771082Y-10908509D01*
X41787006Y-10859500D01*
X41792069Y-10843919D01*
X41831506Y-10786243D01*
X41895864Y-10759044D01*
X41964711Y-10770958D01*
X42016187Y-10818202D01*
X42027931Y-10843919D01*
X42048915Y-10908504D01*
X42048918Y-10908509D01*
X42136135Y-11079681D01*
X42249055Y-11235102D01*
X42384898Y-11370945D01*
X42540319Y-11483865D01*
X42673079Y-11551510D01*
X42711493Y-11571083D01*
X42802845Y-11600764D01*
X42894199Y-11630447D01*
X43083945Y-11660500D01*
X43083946Y-11660500D01*
X43276054Y-11660500D01*
X43276055Y-11660500D01*
X43465801Y-11630447D01*
X43648509Y-11571082D01*
X43819681Y-11483865D01*
X43975102Y-11370945D01*
X44110945Y-11235102D01*
X44223865Y-11079681D01*
X44311082Y-10908509D01*
X44327006Y-10859500D01*
X44332069Y-10843919D01*
X44371506Y-10786243D01*
X44435864Y-10759044D01*
X44504711Y-10770958D01*
X44556187Y-10818202D01*
X44567931Y-10843919D01*
X44588915Y-10908504D01*
X44588918Y-10908509D01*
X44676135Y-11079681D01*
X44789055Y-11235102D01*
X44924898Y-11370945D01*
X45080319Y-11483865D01*
X45213079Y-11551510D01*
X45251493Y-11571083D01*
X45342845Y-11600764D01*
X45434199Y-11630447D01*
X45623945Y-11660500D01*
X45623946Y-11660500D01*
X45816054Y-11660500D01*
X45816055Y-11660500D01*
X46005801Y-11630447D01*
X46188509Y-11571082D01*
X46359681Y-11483865D01*
X46515102Y-11370945D01*
X46650945Y-11235102D01*
X46763865Y-11079681D01*
X46851082Y-10908509D01*
X46867006Y-10859500D01*
X46872069Y-10843919D01*
X46911506Y-10786243D01*
X46975864Y-10759044D01*
X47044711Y-10770958D01*
X47096187Y-10818202D01*
X47107931Y-10843919D01*
X47128915Y-10908504D01*
X47128918Y-10908509D01*
X47216135Y-11079681D01*
X47329055Y-11235102D01*
X47464898Y-11370945D01*
X47620319Y-11483865D01*
X47753079Y-11551510D01*
X47791493Y-11571083D01*
X47882845Y-11600764D01*
X47974199Y-11630447D01*
X48163945Y-11660500D01*
X48163946Y-11660500D01*
X48356054Y-11660500D01*
X48356055Y-11660500D01*
X48545801Y-11630447D01*
X48728509Y-11571082D01*
X48899681Y-11483865D01*
X49055102Y-11370945D01*
X49190945Y-11235102D01*
X49303865Y-11079681D01*
X49391082Y-10908509D01*
X49407006Y-10859500D01*
X49412069Y-10843919D01*
X49451506Y-10786243D01*
X49515864Y-10759044D01*
X49584711Y-10770958D01*
X49636187Y-10818202D01*
X49647931Y-10843919D01*
X49668915Y-10908504D01*
X49668918Y-10908509D01*
X49756135Y-11079681D01*
X49869055Y-11235102D01*
X50004898Y-11370945D01*
X50160319Y-11483865D01*
X50293079Y-11551510D01*
X50331493Y-11571083D01*
X50422845Y-11600764D01*
X50514199Y-11630447D01*
X50703945Y-11660500D01*
X50703946Y-11660500D01*
X50896054Y-11660500D01*
X50896055Y-11660500D01*
X51085801Y-11630447D01*
X51268509Y-11571082D01*
X51439681Y-11483865D01*
X51595102Y-11370945D01*
X51730945Y-11235102D01*
X51843865Y-11079681D01*
X51931082Y-10908509D01*
X51947006Y-10859500D01*
X51952069Y-10843919D01*
X51991506Y-10786243D01*
X52055864Y-10759044D01*
X52124711Y-10770958D01*
X52176187Y-10818202D01*
X52187931Y-10843919D01*
X52208915Y-10908504D01*
X52208918Y-10908509D01*
X52296135Y-11079681D01*
X52409055Y-11235102D01*
X52544898Y-11370945D01*
X52700319Y-11483865D01*
X52833079Y-11551510D01*
X52871493Y-11571083D01*
X52962845Y-11600764D01*
X53054199Y-11630447D01*
X53243945Y-11660500D01*
X53243946Y-11660500D01*
X53436054Y-11660500D01*
X53436055Y-11660500D01*
X53625801Y-11630447D01*
X53808509Y-11571082D01*
X53979681Y-11483865D01*
X54135102Y-11370945D01*
X54270945Y-11235102D01*
X54383865Y-11079681D01*
X54471082Y-10908509D01*
X54487006Y-10859500D01*
X54492069Y-10843919D01*
X54531506Y-10786243D01*
X54595864Y-10759044D01*
X54664711Y-10770958D01*
X54716187Y-10818202D01*
X54727931Y-10843919D01*
X54748915Y-10908504D01*
X54748918Y-10908509D01*
X54836135Y-11079681D01*
X54949055Y-11235102D01*
X55084898Y-11370945D01*
X55240319Y-11483865D01*
X55373079Y-11551510D01*
X55411493Y-11571083D01*
X55502845Y-11600764D01*
X55594199Y-11630447D01*
X55783945Y-11660500D01*
X55783946Y-11660500D01*
X55976054Y-11660500D01*
X55976055Y-11660500D01*
X56165801Y-11630447D01*
X56348509Y-11571082D01*
X56519681Y-11483865D01*
X56675102Y-11370945D01*
X56810945Y-11235102D01*
X56923865Y-11079681D01*
X57011082Y-10908509D01*
X57070447Y-10725801D01*
X57100500Y-10536055D01*
X57100500Y-9783945D01*
X57070447Y-9594199D01*
X57040424Y-9501797D01*
X57011083Y-9411493D01*
X56923864Y-9240318D01*
X56810945Y-9084898D01*
X56675102Y-8949055D01*
X56519681Y-8836135D01*
X56463755Y-8807639D01*
X56348506Y-8748916D01*
X56165802Y-8689553D01*
X56070928Y-8674526D01*
X55976055Y-8659500D01*
X55783945Y-8659500D01*
X55720696Y-8669517D01*
X55594197Y-8689553D01*
X55411493Y-8748916D01*
X55240318Y-8836135D01*
X55203385Y-8862969D01*
X55084898Y-8949055D01*
X55084896Y-8949057D01*
X55084895Y-8949057D01*
X54949057Y-9084895D01*
X54949057Y-9084896D01*
X54949055Y-9084898D01*
X54900560Y-9151645D01*
X54836135Y-9240318D01*
X54748916Y-9411493D01*
X54727931Y-9476081D01*
X54688494Y-9533756D01*
X54624135Y-9560955D01*
X54555289Y-9549041D01*
X54503813Y-9501797D01*
X54492069Y-9476081D01*
X54471083Y-9411493D01*
X54383864Y-9240318D01*
X54270945Y-9084898D01*
X54135102Y-8949055D01*
X53979681Y-8836135D01*
X53923755Y-8807639D01*
X53808506Y-8748916D01*
X53625802Y-8689553D01*
X53530928Y-8674526D01*
X53436055Y-8659500D01*
X53243945Y-8659500D01*
X53180696Y-8669517D01*
X53054197Y-8689553D01*
X52871493Y-8748916D01*
X52700318Y-8836135D01*
X52663385Y-8862969D01*
X52544898Y-8949055D01*
X52544896Y-8949057D01*
X52544895Y-8949057D01*
X52409057Y-9084895D01*
X52409057Y-9084896D01*
X52409055Y-9084898D01*
X52360560Y-9151645D01*
X52296135Y-9240318D01*
X52208916Y-9411493D01*
X52187931Y-9476081D01*
X52148494Y-9533756D01*
X52084135Y-9560955D01*
X52015289Y-9549041D01*
X51963813Y-9501797D01*
X51952069Y-9476081D01*
X51931083Y-9411493D01*
X51843864Y-9240318D01*
X51730945Y-9084898D01*
X51595102Y-8949055D01*
X51439681Y-8836135D01*
X51383755Y-8807639D01*
X51268506Y-8748916D01*
X51085802Y-8689553D01*
X50990928Y-8674526D01*
X50896055Y-8659500D01*
X50703945Y-8659500D01*
X50640696Y-8669517D01*
X50514197Y-8689553D01*
X50331493Y-8748916D01*
X50160318Y-8836135D01*
X50123385Y-8862969D01*
X50004898Y-8949055D01*
X50004896Y-8949057D01*
X50004895Y-8949057D01*
X49869057Y-9084895D01*
X49869057Y-9084896D01*
X49869055Y-9084898D01*
X49820560Y-9151645D01*
X49756135Y-9240318D01*
X49668916Y-9411493D01*
X49647931Y-9476081D01*
X49608494Y-9533756D01*
X49544135Y-9560955D01*
X49475289Y-9549041D01*
X49423813Y-9501797D01*
X49412069Y-9476081D01*
X49391083Y-9411493D01*
X49303864Y-9240318D01*
X49190945Y-9084898D01*
X49055102Y-8949055D01*
X48899681Y-8836135D01*
X48843755Y-8807639D01*
X48728506Y-8748916D01*
X48545802Y-8689553D01*
X48450928Y-8674526D01*
X48356055Y-8659500D01*
X48163945Y-8659500D01*
X48100696Y-8669517D01*
X47974197Y-8689553D01*
X47791493Y-8748916D01*
X47620318Y-8836135D01*
X47583385Y-8862969D01*
X47464898Y-8949055D01*
X47464896Y-8949057D01*
X47464895Y-8949057D01*
X47329057Y-9084895D01*
X47329057Y-9084896D01*
X47329055Y-9084898D01*
X47280560Y-9151645D01*
X47216135Y-9240318D01*
X47128916Y-9411493D01*
X47107931Y-9476081D01*
X47068494Y-9533756D01*
X47004135Y-9560955D01*
X46935289Y-9549041D01*
X46883813Y-9501797D01*
X46872069Y-9476081D01*
X46851083Y-9411493D01*
X46763864Y-9240318D01*
X46650945Y-9084898D01*
X46515102Y-8949055D01*
X46359681Y-8836135D01*
X46303755Y-8807639D01*
X46188506Y-8748916D01*
X46005802Y-8689553D01*
X45910928Y-8674526D01*
X45816055Y-8659500D01*
X45623945Y-8659500D01*
X45560696Y-8669517D01*
X45434197Y-8689553D01*
X45251493Y-8748916D01*
X45080318Y-8836135D01*
X45043385Y-8862969D01*
X44924898Y-8949055D01*
X44924896Y-8949057D01*
X44924895Y-8949057D01*
X44789057Y-9084895D01*
X44789057Y-9084896D01*
X44789055Y-9084898D01*
X44740560Y-9151645D01*
X44676135Y-9240318D01*
X44588916Y-9411493D01*
X44567931Y-9476081D01*
X44528494Y-9533756D01*
X44464135Y-9560955D01*
X44395289Y-9549041D01*
X44343813Y-9501797D01*
X44332069Y-9476081D01*
X44311083Y-9411493D01*
X44223864Y-9240318D01*
X44110945Y-9084898D01*
X43975102Y-8949055D01*
X43856615Y-8862969D01*
X43813949Y-8807639D01*
X43805500Y-8762651D01*
X43805500Y-5024188D01*
X43825185Y-4957149D01*
X43858377Y-4922613D01*
X43958745Y-4852335D01*
X44019139Y-4810047D01*
X44180047Y-4649139D01*
X44310568Y-4462734D01*
X44406739Y-4256496D01*
X44465635Y-4036692D01*
X44485468Y-3810000D01*
X44465635Y-3583308D01*
X44406739Y-3363504D01*
X44310568Y-3157266D01*
X44180047Y-2970861D01*
X44180045Y-2970858D01*
X44019141Y-2809954D01*
X43832734Y-2679432D01*
X43832732Y-2679431D01*
X43626497Y-2583261D01*
X43626488Y-2583258D01*
X43406697Y-2524366D01*
X43406693Y-2524365D01*
X43406692Y-2524365D01*
X43406691Y-2524364D01*
X43406686Y-2524364D01*
X43180002Y-2504532D01*
X43179998Y-2504532D01*
X42953313Y-2524364D01*
X42953302Y-2524366D01*
X42733511Y-2583258D01*
X42733502Y-2583261D01*
X42527267Y-2679431D01*
X42527265Y-2679432D01*
X42340858Y-2809954D01*
X42179954Y-2970858D01*
X42049432Y-3157265D01*
X42049431Y-3157267D01*
X42022382Y-3215275D01*
X41976209Y-3267714D01*
X41909016Y-3286866D01*
X41842135Y-3266650D01*
X41797618Y-3215275D01*
X41770568Y-3157267D01*
X41770567Y-3157265D01*
X41640045Y-2970858D01*
X41479141Y-2809954D01*
X41292734Y-2679432D01*
X41292732Y-2679431D01*
X41086497Y-2583261D01*
X41086488Y-2583258D01*
X40866697Y-2524366D01*
X40866693Y-2524365D01*
X40866692Y-2524365D01*
X40866691Y-2524364D01*
X40866686Y-2524364D01*
X40640002Y-2504532D01*
X40639998Y-2504532D01*
X40413313Y-2524364D01*
X40413302Y-2524366D01*
X40193511Y-2583258D01*
X40193502Y-2583261D01*
X39987267Y-2679431D01*
X39987265Y-2679432D01*
X39800858Y-2809954D01*
X39639954Y-2970858D01*
X39509432Y-3157265D01*
X39509431Y-3157267D01*
X39482382Y-3215275D01*
X39436209Y-3267714D01*
X39369016Y-3286866D01*
X39302135Y-3266650D01*
X39257618Y-3215275D01*
X39230568Y-3157267D01*
X39230567Y-3157265D01*
X39100045Y-2970858D01*
X38939141Y-2809954D01*
X38752734Y-2679432D01*
X38752732Y-2679431D01*
X38546497Y-2583261D01*
X38546488Y-2583258D01*
X38326697Y-2524366D01*
X38326693Y-2524365D01*
X38326692Y-2524365D01*
X38326691Y-2524364D01*
X38326686Y-2524364D01*
X38100002Y-2504532D01*
X38099998Y-2504532D01*
X37873313Y-2524364D01*
X37873302Y-2524366D01*
X37653511Y-2583258D01*
X37653502Y-2583261D01*
X37447267Y-2679431D01*
X37447265Y-2679432D01*
X37260858Y-2809954D01*
X37099954Y-2970858D01*
X36969432Y-3157265D01*
X36969431Y-3157267D01*
X36942382Y-3215275D01*
X36896209Y-3267714D01*
X36829016Y-3286866D01*
X36762135Y-3266650D01*
X36717618Y-3215275D01*
X36690568Y-3157267D01*
X36690567Y-3157265D01*
X36560045Y-2970858D01*
X36399141Y-2809954D01*
X36212734Y-2679432D01*
X36212732Y-2679431D01*
X36006497Y-2583261D01*
X36006488Y-2583258D01*
X35786697Y-2524366D01*
X35786693Y-2524365D01*
X35786692Y-2524365D01*
X35786691Y-2524364D01*
X35786686Y-2524364D01*
X35560002Y-2504532D01*
X35559998Y-2504532D01*
X35333313Y-2524364D01*
X35333302Y-2524366D01*
X35113511Y-2583258D01*
X35113502Y-2583261D01*
X34907267Y-2679431D01*
X34907265Y-2679432D01*
X34720858Y-2809954D01*
X34559954Y-2970858D01*
X34542725Y-2995464D01*
X34488147Y-3039088D01*
X34418648Y-3046280D01*
X34356294Y-3014757D01*
X34320882Y-2954526D01*
X34317861Y-2937591D01*
X34314091Y-2902516D01*
X34263797Y-2767671D01*
X34263793Y-2767664D01*
X34177547Y-2652455D01*
X34177544Y-2652452D01*
X34062335Y-2566206D01*
X34062328Y-2566202D01*
X33927482Y-2515908D01*
X33927483Y-2515908D01*
X33867883Y-2509501D01*
X33867881Y-2509500D01*
X33867873Y-2509500D01*
X33867864Y-2509500D01*
X32172129Y-2509500D01*
X32172123Y-2509501D01*
X32112516Y-2515908D01*
X31977671Y-2566202D01*
X31977664Y-2566206D01*
X31862455Y-2652452D01*
X31862452Y-2652455D01*
X31776206Y-2767664D01*
X31776202Y-2767671D01*
X31725908Y-2902517D01*
X31719501Y-2962116D01*
X31719500Y-2962135D01*
X31719500Y-4657870D01*
X31719501Y-4657876D01*
X31725908Y-4717483D01*
X31776202Y-4852328D01*
X31776206Y-4852335D01*
X31862452Y-4967544D01*
X31862455Y-4967547D01*
X31977664Y-5053793D01*
X31977671Y-5053797D01*
X32112517Y-5104091D01*
X32112516Y-5104091D01*
X32119444Y-5104835D01*
X32172127Y-5110500D01*
X33867872Y-5110499D01*
X33927483Y-5104091D01*
X34062331Y-5053796D01*
X34177546Y-4967546D01*
X34263796Y-4852331D01*
X34314091Y-4717483D01*
X34317862Y-4682401D01*
X34344599Y-4617855D01*
X34401990Y-4578006D01*
X34471816Y-4575511D01*
X34531905Y-4611163D01*
X34542726Y-4624536D01*
X34559956Y-4649143D01*
X34720858Y-4810045D01*
X34881623Y-4922613D01*
X34925248Y-4977189D01*
X34934500Y-5024188D01*
X34934500Y-8762651D01*
X34914815Y-8829690D01*
X34883385Y-8862969D01*
X34764901Y-8949052D01*
X34764895Y-8949057D01*
X34629057Y-9084895D01*
X34629057Y-9084896D01*
X34629055Y-9084898D01*
X34580560Y-9151645D01*
X34516135Y-9240318D01*
X34428919Y-9411488D01*
X34416790Y-9448818D01*
X34377352Y-9506494D01*
X34312994Y-9533692D01*
X34298859Y-9534500D01*
X18351993Y-9534500D01*
X18291575Y-9546518D01*
X18248347Y-9555116D01*
X18231150Y-9558537D01*
X18145057Y-9594199D01*
X18117319Y-9605688D01*
X18014869Y-9674142D01*
X2514938Y-25174073D01*
X2514929Y-25174083D01*
X2432144Y-25256867D01*
X2413169Y-25285266D01*
X2413168Y-25285265D01*
X2363689Y-25359316D01*
X2363685Y-25359323D01*
X2316540Y-25473142D01*
X2316535Y-25473158D01*
X2294797Y-25582445D01*
X2294798Y-25582446D01*
X2292500Y-25593999D01*
X1433000Y-25593999D01*
X1433000Y-9014000D01*
X1452685Y-8946961D01*
X1505489Y-8901206D01*
X1557000Y-8890000D01*
X6513000Y-8890000D01*
X9053000Y-6350000D01*
X9053000Y-1394000D01*
X9072685Y-1326961D01*
X9125489Y-1281206D01*
X9177000Y-1270000D01*
X64809000Y-1270000D01*
X64876039Y-1289685D01*
G37*
%TD.AperFunction*%
%TD*%
M02*
