%TF.GenerationSoftware,KiCad,Pcbnew,8.0.4*%
%TF.CreationDate,2024-08-20T14:56:35+09:00*%
%TF.ProjectId,TangNano8008MEM,54616e67-4e61-46e6-9f38-3030384d454d,rev?*%
%TF.SameCoordinates,Original*%
%TF.FileFunction,Legend,Top*%
%TF.FilePolarity,Positive*%
%FSLAX46Y46*%
G04 Gerber Fmt 4.6, Leading zero omitted, Abs format (unit mm)*
G04 Created by KiCad (PCBNEW 8.0.4) date 2024-08-20 14:56:35*
%MOMM*%
%LPD*%
G01*
G04 APERTURE LIST*
%ADD10C,0.150000*%
%ADD11C,0.200000*%
%ADD12C,0.120000*%
%ADD13C,0.100000*%
G04 APERTURE END LIST*
D10*
X62603095Y-30349819D02*
X62603095Y-29349819D01*
X63174523Y-30349819D02*
X62745952Y-29778390D01*
X63174523Y-29349819D02*
X62603095Y-29921247D01*
X62626905Y-34128104D02*
X63103095Y-34128104D01*
X62531667Y-34413819D02*
X62865000Y-33413819D01*
X62865000Y-33413819D02*
X63198333Y-34413819D01*
X62865000Y-32385000D02*
X62865000Y-33020000D01*
X62865000Y-31115000D02*
X62865000Y-30480000D01*
X63500000Y-32385000D02*
X62865000Y-31115000D01*
X62230000Y-32385000D02*
X63500000Y-32385000D01*
X62865000Y-31115000D02*
X62230000Y-32385000D01*
X63500000Y-31115000D02*
X62865000Y-31115000D01*
X62230000Y-31115000D02*
X63500000Y-31115000D01*
X27641779Y-28444819D02*
X27641779Y-27444819D01*
X28213207Y-28444819D02*
X27784636Y-27873390D01*
X28213207Y-27444819D02*
X27641779Y-28016247D01*
X27594160Y-25619104D02*
X28070350Y-25619104D01*
X27498922Y-25904819D02*
X27832255Y-24904819D01*
X27832255Y-24904819D02*
X28165588Y-25904819D01*
X43071315Y-71365342D02*
X42785601Y-71365342D01*
X42785601Y-71365342D02*
X42785601Y-69651057D01*
X42785601Y-69651057D02*
X43071315Y-69651057D01*
X43357029Y-69765342D02*
X44042744Y-69765342D01*
X43699886Y-70965342D02*
X43699886Y-69765342D01*
X44442744Y-70965342D02*
X44442744Y-69765342D01*
X44442744Y-69765342D02*
X45128458Y-70965342D01*
X45128458Y-70965342D02*
X45128458Y-69765342D01*
X45642744Y-69879628D02*
X45699887Y-69822485D01*
X45699887Y-69822485D02*
X45814173Y-69765342D01*
X45814173Y-69765342D02*
X46099887Y-69765342D01*
X46099887Y-69765342D02*
X46214173Y-69822485D01*
X46214173Y-69822485D02*
X46271315Y-69879628D01*
X46271315Y-69879628D02*
X46328458Y-69993914D01*
X46328458Y-69993914D02*
X46328458Y-70108200D01*
X46328458Y-70108200D02*
X46271315Y-70279628D01*
X46271315Y-70279628D02*
X45585601Y-70965342D01*
X45585601Y-70965342D02*
X46328458Y-70965342D01*
X47071315Y-69765342D02*
X47185601Y-69765342D01*
X47185601Y-69765342D02*
X47299887Y-69822485D01*
X47299887Y-69822485D02*
X47357030Y-69879628D01*
X47357030Y-69879628D02*
X47414172Y-69993914D01*
X47414172Y-69993914D02*
X47471315Y-70222485D01*
X47471315Y-70222485D02*
X47471315Y-70508200D01*
X47471315Y-70508200D02*
X47414172Y-70736771D01*
X47414172Y-70736771D02*
X47357030Y-70851057D01*
X47357030Y-70851057D02*
X47299887Y-70908200D01*
X47299887Y-70908200D02*
X47185601Y-70965342D01*
X47185601Y-70965342D02*
X47071315Y-70965342D01*
X47071315Y-70965342D02*
X46957030Y-70908200D01*
X46957030Y-70908200D02*
X46899887Y-70851057D01*
X46899887Y-70851057D02*
X46842744Y-70736771D01*
X46842744Y-70736771D02*
X46785601Y-70508200D01*
X46785601Y-70508200D02*
X46785601Y-70222485D01*
X46785601Y-70222485D02*
X46842744Y-69993914D01*
X46842744Y-69993914D02*
X46899887Y-69879628D01*
X46899887Y-69879628D02*
X46957030Y-69822485D01*
X46957030Y-69822485D02*
X47071315Y-69765342D01*
X47985601Y-70965342D02*
X47985601Y-69765342D01*
X48671315Y-70965342D02*
X48157029Y-70279628D01*
X48671315Y-69765342D02*
X47985601Y-70451057D01*
X49357029Y-70279628D02*
X49242744Y-70222485D01*
X49242744Y-70222485D02*
X49185601Y-70165342D01*
X49185601Y-70165342D02*
X49128458Y-70051057D01*
X49128458Y-70051057D02*
X49128458Y-69993914D01*
X49128458Y-69993914D02*
X49185601Y-69879628D01*
X49185601Y-69879628D02*
X49242744Y-69822485D01*
X49242744Y-69822485D02*
X49357029Y-69765342D01*
X49357029Y-69765342D02*
X49585601Y-69765342D01*
X49585601Y-69765342D02*
X49699887Y-69822485D01*
X49699887Y-69822485D02*
X49757029Y-69879628D01*
X49757029Y-69879628D02*
X49814172Y-69993914D01*
X49814172Y-69993914D02*
X49814172Y-70051057D01*
X49814172Y-70051057D02*
X49757029Y-70165342D01*
X49757029Y-70165342D02*
X49699887Y-70222485D01*
X49699887Y-70222485D02*
X49585601Y-70279628D01*
X49585601Y-70279628D02*
X49357029Y-70279628D01*
X49357029Y-70279628D02*
X49242744Y-70336771D01*
X49242744Y-70336771D02*
X49185601Y-70393914D01*
X49185601Y-70393914D02*
X49128458Y-70508200D01*
X49128458Y-70508200D02*
X49128458Y-70736771D01*
X49128458Y-70736771D02*
X49185601Y-70851057D01*
X49185601Y-70851057D02*
X49242744Y-70908200D01*
X49242744Y-70908200D02*
X49357029Y-70965342D01*
X49357029Y-70965342D02*
X49585601Y-70965342D01*
X49585601Y-70965342D02*
X49699887Y-70908200D01*
X49699887Y-70908200D02*
X49757029Y-70851057D01*
X49757029Y-70851057D02*
X49814172Y-70736771D01*
X49814172Y-70736771D02*
X49814172Y-70508200D01*
X49814172Y-70508200D02*
X49757029Y-70393914D01*
X49757029Y-70393914D02*
X49699887Y-70336771D01*
X49699887Y-70336771D02*
X49585601Y-70279628D01*
X50557029Y-69765342D02*
X50671315Y-69765342D01*
X50671315Y-69765342D02*
X50785601Y-69822485D01*
X50785601Y-69822485D02*
X50842744Y-69879628D01*
X50842744Y-69879628D02*
X50899886Y-69993914D01*
X50899886Y-69993914D02*
X50957029Y-70222485D01*
X50957029Y-70222485D02*
X50957029Y-70508200D01*
X50957029Y-70508200D02*
X50899886Y-70736771D01*
X50899886Y-70736771D02*
X50842744Y-70851057D01*
X50842744Y-70851057D02*
X50785601Y-70908200D01*
X50785601Y-70908200D02*
X50671315Y-70965342D01*
X50671315Y-70965342D02*
X50557029Y-70965342D01*
X50557029Y-70965342D02*
X50442744Y-70908200D01*
X50442744Y-70908200D02*
X50385601Y-70851057D01*
X50385601Y-70851057D02*
X50328458Y-70736771D01*
X50328458Y-70736771D02*
X50271315Y-70508200D01*
X50271315Y-70508200D02*
X50271315Y-70222485D01*
X50271315Y-70222485D02*
X50328458Y-69993914D01*
X50328458Y-69993914D02*
X50385601Y-69879628D01*
X50385601Y-69879628D02*
X50442744Y-69822485D01*
X50442744Y-69822485D02*
X50557029Y-69765342D01*
X51699886Y-69765342D02*
X51814172Y-69765342D01*
X51814172Y-69765342D02*
X51928458Y-69822485D01*
X51928458Y-69822485D02*
X51985601Y-69879628D01*
X51985601Y-69879628D02*
X52042743Y-69993914D01*
X52042743Y-69993914D02*
X52099886Y-70222485D01*
X52099886Y-70222485D02*
X52099886Y-70508200D01*
X52099886Y-70508200D02*
X52042743Y-70736771D01*
X52042743Y-70736771D02*
X51985601Y-70851057D01*
X51985601Y-70851057D02*
X51928458Y-70908200D01*
X51928458Y-70908200D02*
X51814172Y-70965342D01*
X51814172Y-70965342D02*
X51699886Y-70965342D01*
X51699886Y-70965342D02*
X51585601Y-70908200D01*
X51585601Y-70908200D02*
X51528458Y-70851057D01*
X51528458Y-70851057D02*
X51471315Y-70736771D01*
X51471315Y-70736771D02*
X51414172Y-70508200D01*
X51414172Y-70508200D02*
X51414172Y-70222485D01*
X51414172Y-70222485D02*
X51471315Y-69993914D01*
X51471315Y-69993914D02*
X51528458Y-69879628D01*
X51528458Y-69879628D02*
X51585601Y-69822485D01*
X51585601Y-69822485D02*
X51699886Y-69765342D01*
X52785600Y-70279628D02*
X52671315Y-70222485D01*
X52671315Y-70222485D02*
X52614172Y-70165342D01*
X52614172Y-70165342D02*
X52557029Y-70051057D01*
X52557029Y-70051057D02*
X52557029Y-69993914D01*
X52557029Y-69993914D02*
X52614172Y-69879628D01*
X52614172Y-69879628D02*
X52671315Y-69822485D01*
X52671315Y-69822485D02*
X52785600Y-69765342D01*
X52785600Y-69765342D02*
X53014172Y-69765342D01*
X53014172Y-69765342D02*
X53128458Y-69822485D01*
X53128458Y-69822485D02*
X53185600Y-69879628D01*
X53185600Y-69879628D02*
X53242743Y-69993914D01*
X53242743Y-69993914D02*
X53242743Y-70051057D01*
X53242743Y-70051057D02*
X53185600Y-70165342D01*
X53185600Y-70165342D02*
X53128458Y-70222485D01*
X53128458Y-70222485D02*
X53014172Y-70279628D01*
X53014172Y-70279628D02*
X52785600Y-70279628D01*
X52785600Y-70279628D02*
X52671315Y-70336771D01*
X52671315Y-70336771D02*
X52614172Y-70393914D01*
X52614172Y-70393914D02*
X52557029Y-70508200D01*
X52557029Y-70508200D02*
X52557029Y-70736771D01*
X52557029Y-70736771D02*
X52614172Y-70851057D01*
X52614172Y-70851057D02*
X52671315Y-70908200D01*
X52671315Y-70908200D02*
X52785600Y-70965342D01*
X52785600Y-70965342D02*
X53014172Y-70965342D01*
X53014172Y-70965342D02*
X53128458Y-70908200D01*
X53128458Y-70908200D02*
X53185600Y-70851057D01*
X53185600Y-70851057D02*
X53242743Y-70736771D01*
X53242743Y-70736771D02*
X53242743Y-70508200D01*
X53242743Y-70508200D02*
X53185600Y-70393914D01*
X53185600Y-70393914D02*
X53128458Y-70336771D01*
X53128458Y-70336771D02*
X53014172Y-70279628D01*
X53757029Y-70965342D02*
X53757029Y-69765342D01*
X53757029Y-69765342D02*
X54157029Y-70622485D01*
X54157029Y-70622485D02*
X54557029Y-69765342D01*
X54557029Y-69765342D02*
X54557029Y-70965342D01*
X55128458Y-70336771D02*
X55528458Y-70336771D01*
X55699886Y-70965342D02*
X55128458Y-70965342D01*
X55128458Y-70965342D02*
X55128458Y-69765342D01*
X55128458Y-69765342D02*
X55699886Y-69765342D01*
X56214172Y-70965342D02*
X56214172Y-69765342D01*
X56214172Y-69765342D02*
X56614172Y-70622485D01*
X56614172Y-70622485D02*
X57014172Y-69765342D01*
X57014172Y-69765342D02*
X57014172Y-70965342D01*
X57471315Y-71365342D02*
X57757029Y-71365342D01*
X57757029Y-71365342D02*
X57757029Y-69651057D01*
X57757029Y-69651057D02*
X57471315Y-69651057D01*
X59071315Y-70965342D02*
X58671315Y-70393914D01*
X58385601Y-70965342D02*
X58385601Y-69765342D01*
X58385601Y-69765342D02*
X58842744Y-69765342D01*
X58842744Y-69765342D02*
X58957029Y-69822485D01*
X58957029Y-69822485D02*
X59014172Y-69879628D01*
X59014172Y-69879628D02*
X59071315Y-69993914D01*
X59071315Y-69993914D02*
X59071315Y-70165342D01*
X59071315Y-70165342D02*
X59014172Y-70279628D01*
X59014172Y-70279628D02*
X58957029Y-70336771D01*
X58957029Y-70336771D02*
X58842744Y-70393914D01*
X58842744Y-70393914D02*
X58385601Y-70393914D01*
X60042744Y-70908200D02*
X59928458Y-70965342D01*
X59928458Y-70965342D02*
X59699887Y-70965342D01*
X59699887Y-70965342D02*
X59585601Y-70908200D01*
X59585601Y-70908200D02*
X59528458Y-70793914D01*
X59528458Y-70793914D02*
X59528458Y-70336771D01*
X59528458Y-70336771D02*
X59585601Y-70222485D01*
X59585601Y-70222485D02*
X59699887Y-70165342D01*
X59699887Y-70165342D02*
X59928458Y-70165342D01*
X59928458Y-70165342D02*
X60042744Y-70222485D01*
X60042744Y-70222485D02*
X60099887Y-70336771D01*
X60099887Y-70336771D02*
X60099887Y-70451057D01*
X60099887Y-70451057D02*
X59528458Y-70565342D01*
X60499886Y-70165342D02*
X60785600Y-70965342D01*
X60785600Y-70965342D02*
X61071315Y-70165342D01*
X61528458Y-70851057D02*
X61585601Y-70908200D01*
X61585601Y-70908200D02*
X61528458Y-70965342D01*
X61528458Y-70965342D02*
X61471315Y-70908200D01*
X61471315Y-70908200D02*
X61528458Y-70851057D01*
X61528458Y-70851057D02*
X61528458Y-70965342D01*
X62728458Y-70965342D02*
X62042744Y-70965342D01*
X62385601Y-70965342D02*
X62385601Y-69765342D01*
X62385601Y-69765342D02*
X62271315Y-69936771D01*
X62271315Y-69936771D02*
X62157030Y-70051057D01*
X62157030Y-70051057D02*
X62042744Y-70108200D01*
X63242744Y-70851057D02*
X63299887Y-70908200D01*
X63299887Y-70908200D02*
X63242744Y-70965342D01*
X63242744Y-70965342D02*
X63185601Y-70908200D01*
X63185601Y-70908200D02*
X63242744Y-70851057D01*
X63242744Y-70851057D02*
X63242744Y-70965342D01*
X64042744Y-69765342D02*
X64157030Y-69765342D01*
X64157030Y-69765342D02*
X64271316Y-69822485D01*
X64271316Y-69822485D02*
X64328459Y-69879628D01*
X64328459Y-69879628D02*
X64385601Y-69993914D01*
X64385601Y-69993914D02*
X64442744Y-70222485D01*
X64442744Y-70222485D02*
X64442744Y-70508200D01*
X64442744Y-70508200D02*
X64385601Y-70736771D01*
X64385601Y-70736771D02*
X64328459Y-70851057D01*
X64328459Y-70851057D02*
X64271316Y-70908200D01*
X64271316Y-70908200D02*
X64157030Y-70965342D01*
X64157030Y-70965342D02*
X64042744Y-70965342D01*
X64042744Y-70965342D02*
X63928459Y-70908200D01*
X63928459Y-70908200D02*
X63871316Y-70851057D01*
X63871316Y-70851057D02*
X63814173Y-70736771D01*
X63814173Y-70736771D02*
X63757030Y-70508200D01*
X63757030Y-70508200D02*
X63757030Y-70222485D01*
X63757030Y-70222485D02*
X63814173Y-69993914D01*
X63814173Y-69993914D02*
X63871316Y-69879628D01*
X63871316Y-69879628D02*
X63928459Y-69822485D01*
X63928459Y-69822485D02*
X64042744Y-69765342D01*
D11*
X9541720Y-68386028D02*
X9541720Y-66886028D01*
X9541720Y-66886028D02*
X10041720Y-67957457D01*
X10041720Y-67957457D02*
X10541720Y-66886028D01*
X10541720Y-66886028D02*
X10541720Y-68386028D01*
X11827435Y-68314600D02*
X11684578Y-68386028D01*
X11684578Y-68386028D02*
X11398864Y-68386028D01*
X11398864Y-68386028D02*
X11256006Y-68314600D01*
X11256006Y-68314600D02*
X11184578Y-68171742D01*
X11184578Y-68171742D02*
X11184578Y-67600314D01*
X11184578Y-67600314D02*
X11256006Y-67457457D01*
X11256006Y-67457457D02*
X11398864Y-67386028D01*
X11398864Y-67386028D02*
X11684578Y-67386028D01*
X11684578Y-67386028D02*
X11827435Y-67457457D01*
X11827435Y-67457457D02*
X11898864Y-67600314D01*
X11898864Y-67600314D02*
X11898864Y-67743171D01*
X11898864Y-67743171D02*
X11184578Y-67886028D01*
X12541720Y-68386028D02*
X12541720Y-67386028D01*
X12541720Y-67528885D02*
X12613149Y-67457457D01*
X12613149Y-67457457D02*
X12756006Y-67386028D01*
X12756006Y-67386028D02*
X12970292Y-67386028D01*
X12970292Y-67386028D02*
X13113149Y-67457457D01*
X13113149Y-67457457D02*
X13184578Y-67600314D01*
X13184578Y-67600314D02*
X13184578Y-68386028D01*
X13184578Y-67600314D02*
X13256006Y-67457457D01*
X13256006Y-67457457D02*
X13398863Y-67386028D01*
X13398863Y-67386028D02*
X13613149Y-67386028D01*
X13613149Y-67386028D02*
X13756006Y-67457457D01*
X13756006Y-67457457D02*
X13827435Y-67600314D01*
X13827435Y-67600314D02*
X13827435Y-68386028D01*
X14756006Y-68386028D02*
X14613149Y-68314600D01*
X14613149Y-68314600D02*
X14541720Y-68243171D01*
X14541720Y-68243171D02*
X14470292Y-68100314D01*
X14470292Y-68100314D02*
X14470292Y-67671742D01*
X14470292Y-67671742D02*
X14541720Y-67528885D01*
X14541720Y-67528885D02*
X14613149Y-67457457D01*
X14613149Y-67457457D02*
X14756006Y-67386028D01*
X14756006Y-67386028D02*
X14970292Y-67386028D01*
X14970292Y-67386028D02*
X15113149Y-67457457D01*
X15113149Y-67457457D02*
X15184578Y-67528885D01*
X15184578Y-67528885D02*
X15256006Y-67671742D01*
X15256006Y-67671742D02*
X15256006Y-68100314D01*
X15256006Y-68100314D02*
X15184578Y-68243171D01*
X15184578Y-68243171D02*
X15113149Y-68314600D01*
X15113149Y-68314600D02*
X14970292Y-68386028D01*
X14970292Y-68386028D02*
X14756006Y-68386028D01*
X15898863Y-68386028D02*
X15898863Y-67386028D01*
X15898863Y-67671742D02*
X15970292Y-67528885D01*
X15970292Y-67528885D02*
X16041721Y-67457457D01*
X16041721Y-67457457D02*
X16184578Y-67386028D01*
X16184578Y-67386028D02*
X16327435Y-67386028D01*
X16684577Y-67386028D02*
X17041720Y-68386028D01*
X17398863Y-67386028D02*
X17041720Y-68386028D01*
X17041720Y-68386028D02*
X16898863Y-68743171D01*
X16898863Y-68743171D02*
X16827434Y-68814600D01*
X16827434Y-68814600D02*
X16684577Y-68886028D01*
X19041720Y-68314600D02*
X19256006Y-68386028D01*
X19256006Y-68386028D02*
X19613148Y-68386028D01*
X19613148Y-68386028D02*
X19756006Y-68314600D01*
X19756006Y-68314600D02*
X19827434Y-68243171D01*
X19827434Y-68243171D02*
X19898863Y-68100314D01*
X19898863Y-68100314D02*
X19898863Y-67957457D01*
X19898863Y-67957457D02*
X19827434Y-67814600D01*
X19827434Y-67814600D02*
X19756006Y-67743171D01*
X19756006Y-67743171D02*
X19613148Y-67671742D01*
X19613148Y-67671742D02*
X19327434Y-67600314D01*
X19327434Y-67600314D02*
X19184577Y-67528885D01*
X19184577Y-67528885D02*
X19113148Y-67457457D01*
X19113148Y-67457457D02*
X19041720Y-67314600D01*
X19041720Y-67314600D02*
X19041720Y-67171742D01*
X19041720Y-67171742D02*
X19113148Y-67028885D01*
X19113148Y-67028885D02*
X19184577Y-66957457D01*
X19184577Y-66957457D02*
X19327434Y-66886028D01*
X19327434Y-66886028D02*
X19684577Y-66886028D01*
X19684577Y-66886028D02*
X19898863Y-66957457D01*
X20398862Y-67386028D02*
X20756005Y-68386028D01*
X21113148Y-67386028D02*
X20756005Y-68386028D01*
X20756005Y-68386028D02*
X20613148Y-68743171D01*
X20613148Y-68743171D02*
X20541719Y-68814600D01*
X20541719Y-68814600D02*
X20398862Y-68886028D01*
X21613148Y-68314600D02*
X21756005Y-68386028D01*
X21756005Y-68386028D02*
X22041719Y-68386028D01*
X22041719Y-68386028D02*
X22184576Y-68314600D01*
X22184576Y-68314600D02*
X22256005Y-68171742D01*
X22256005Y-68171742D02*
X22256005Y-68100314D01*
X22256005Y-68100314D02*
X22184576Y-67957457D01*
X22184576Y-67957457D02*
X22041719Y-67886028D01*
X22041719Y-67886028D02*
X21827434Y-67886028D01*
X21827434Y-67886028D02*
X21684576Y-67814600D01*
X21684576Y-67814600D02*
X21613148Y-67671742D01*
X21613148Y-67671742D02*
X21613148Y-67600314D01*
X21613148Y-67600314D02*
X21684576Y-67457457D01*
X21684576Y-67457457D02*
X21827434Y-67386028D01*
X21827434Y-67386028D02*
X22041719Y-67386028D01*
X22041719Y-67386028D02*
X22184576Y-67457457D01*
X22684577Y-67386028D02*
X23256005Y-67386028D01*
X22898862Y-66886028D02*
X22898862Y-68171742D01*
X22898862Y-68171742D02*
X22970291Y-68314600D01*
X22970291Y-68314600D02*
X23113148Y-68386028D01*
X23113148Y-68386028D02*
X23256005Y-68386028D01*
X24327434Y-68314600D02*
X24184577Y-68386028D01*
X24184577Y-68386028D02*
X23898863Y-68386028D01*
X23898863Y-68386028D02*
X23756005Y-68314600D01*
X23756005Y-68314600D02*
X23684577Y-68171742D01*
X23684577Y-68171742D02*
X23684577Y-67600314D01*
X23684577Y-67600314D02*
X23756005Y-67457457D01*
X23756005Y-67457457D02*
X23898863Y-67386028D01*
X23898863Y-67386028D02*
X24184577Y-67386028D01*
X24184577Y-67386028D02*
X24327434Y-67457457D01*
X24327434Y-67457457D02*
X24398863Y-67600314D01*
X24398863Y-67600314D02*
X24398863Y-67743171D01*
X24398863Y-67743171D02*
X23684577Y-67886028D01*
X25041719Y-68386028D02*
X25041719Y-67386028D01*
X25041719Y-67528885D02*
X25113148Y-67457457D01*
X25113148Y-67457457D02*
X25256005Y-67386028D01*
X25256005Y-67386028D02*
X25470291Y-67386028D01*
X25470291Y-67386028D02*
X25613148Y-67457457D01*
X25613148Y-67457457D02*
X25684577Y-67600314D01*
X25684577Y-67600314D02*
X25684577Y-68386028D01*
X25684577Y-67600314D02*
X25756005Y-67457457D01*
X25756005Y-67457457D02*
X25898862Y-67386028D01*
X25898862Y-67386028D02*
X26113148Y-67386028D01*
X26113148Y-67386028D02*
X26256005Y-67457457D01*
X26256005Y-67457457D02*
X26327434Y-67600314D01*
X26327434Y-67600314D02*
X26327434Y-68386028D01*
X27970291Y-67386028D02*
X28541719Y-67386028D01*
X28184576Y-68386028D02*
X28184576Y-67100314D01*
X28184576Y-67100314D02*
X28256005Y-66957457D01*
X28256005Y-66957457D02*
X28398862Y-66886028D01*
X28398862Y-66886028D02*
X28541719Y-66886028D01*
X29256005Y-68386028D02*
X29113148Y-68314600D01*
X29113148Y-68314600D02*
X29041719Y-68243171D01*
X29041719Y-68243171D02*
X28970291Y-68100314D01*
X28970291Y-68100314D02*
X28970291Y-67671742D01*
X28970291Y-67671742D02*
X29041719Y-67528885D01*
X29041719Y-67528885D02*
X29113148Y-67457457D01*
X29113148Y-67457457D02*
X29256005Y-67386028D01*
X29256005Y-67386028D02*
X29470291Y-67386028D01*
X29470291Y-67386028D02*
X29613148Y-67457457D01*
X29613148Y-67457457D02*
X29684577Y-67528885D01*
X29684577Y-67528885D02*
X29756005Y-67671742D01*
X29756005Y-67671742D02*
X29756005Y-68100314D01*
X29756005Y-68100314D02*
X29684577Y-68243171D01*
X29684577Y-68243171D02*
X29613148Y-68314600D01*
X29613148Y-68314600D02*
X29470291Y-68386028D01*
X29470291Y-68386028D02*
X29256005Y-68386028D01*
X30398862Y-68386028D02*
X30398862Y-67386028D01*
X30398862Y-67671742D02*
X30470291Y-67528885D01*
X30470291Y-67528885D02*
X30541720Y-67457457D01*
X30541720Y-67457457D02*
X30684577Y-67386028D01*
X30684577Y-67386028D02*
X30827434Y-67386028D01*
X32470290Y-68386028D02*
X32470290Y-66886028D01*
X33184576Y-67386028D02*
X33184576Y-68386028D01*
X33184576Y-67528885D02*
X33256005Y-67457457D01*
X33256005Y-67457457D02*
X33398862Y-67386028D01*
X33398862Y-67386028D02*
X33613148Y-67386028D01*
X33613148Y-67386028D02*
X33756005Y-67457457D01*
X33756005Y-67457457D02*
X33827434Y-67600314D01*
X33827434Y-67600314D02*
X33827434Y-68386028D01*
X34327434Y-67386028D02*
X34898862Y-67386028D01*
X34541719Y-66886028D02*
X34541719Y-68171742D01*
X34541719Y-68171742D02*
X34613148Y-68314600D01*
X34613148Y-68314600D02*
X34756005Y-68386028D01*
X34756005Y-68386028D02*
X34898862Y-68386028D01*
X35970291Y-68314600D02*
X35827434Y-68386028D01*
X35827434Y-68386028D02*
X35541720Y-68386028D01*
X35541720Y-68386028D02*
X35398862Y-68314600D01*
X35398862Y-68314600D02*
X35327434Y-68171742D01*
X35327434Y-68171742D02*
X35327434Y-67600314D01*
X35327434Y-67600314D02*
X35398862Y-67457457D01*
X35398862Y-67457457D02*
X35541720Y-67386028D01*
X35541720Y-67386028D02*
X35827434Y-67386028D01*
X35827434Y-67386028D02*
X35970291Y-67457457D01*
X35970291Y-67457457D02*
X36041720Y-67600314D01*
X36041720Y-67600314D02*
X36041720Y-67743171D01*
X36041720Y-67743171D02*
X35327434Y-67886028D01*
X36898862Y-68386028D02*
X36756005Y-68314600D01*
X36756005Y-68314600D02*
X36684576Y-68171742D01*
X36684576Y-68171742D02*
X36684576Y-66886028D01*
X38827433Y-67528885D02*
X38684576Y-67457457D01*
X38684576Y-67457457D02*
X38613147Y-67386028D01*
X38613147Y-67386028D02*
X38541719Y-67243171D01*
X38541719Y-67243171D02*
X38541719Y-67171742D01*
X38541719Y-67171742D02*
X38613147Y-67028885D01*
X38613147Y-67028885D02*
X38684576Y-66957457D01*
X38684576Y-66957457D02*
X38827433Y-66886028D01*
X38827433Y-66886028D02*
X39113147Y-66886028D01*
X39113147Y-66886028D02*
X39256005Y-66957457D01*
X39256005Y-66957457D02*
X39327433Y-67028885D01*
X39327433Y-67028885D02*
X39398862Y-67171742D01*
X39398862Y-67171742D02*
X39398862Y-67243171D01*
X39398862Y-67243171D02*
X39327433Y-67386028D01*
X39327433Y-67386028D02*
X39256005Y-67457457D01*
X39256005Y-67457457D02*
X39113147Y-67528885D01*
X39113147Y-67528885D02*
X38827433Y-67528885D01*
X38827433Y-67528885D02*
X38684576Y-67600314D01*
X38684576Y-67600314D02*
X38613147Y-67671742D01*
X38613147Y-67671742D02*
X38541719Y-67814600D01*
X38541719Y-67814600D02*
X38541719Y-68100314D01*
X38541719Y-68100314D02*
X38613147Y-68243171D01*
X38613147Y-68243171D02*
X38684576Y-68314600D01*
X38684576Y-68314600D02*
X38827433Y-68386028D01*
X38827433Y-68386028D02*
X39113147Y-68386028D01*
X39113147Y-68386028D02*
X39256005Y-68314600D01*
X39256005Y-68314600D02*
X39327433Y-68243171D01*
X39327433Y-68243171D02*
X39398862Y-68100314D01*
X39398862Y-68100314D02*
X39398862Y-67814600D01*
X39398862Y-67814600D02*
X39327433Y-67671742D01*
X39327433Y-67671742D02*
X39256005Y-67600314D01*
X39256005Y-67600314D02*
X39113147Y-67528885D01*
X40327433Y-66886028D02*
X40470290Y-66886028D01*
X40470290Y-66886028D02*
X40613147Y-66957457D01*
X40613147Y-66957457D02*
X40684576Y-67028885D01*
X40684576Y-67028885D02*
X40756004Y-67171742D01*
X40756004Y-67171742D02*
X40827433Y-67457457D01*
X40827433Y-67457457D02*
X40827433Y-67814600D01*
X40827433Y-67814600D02*
X40756004Y-68100314D01*
X40756004Y-68100314D02*
X40684576Y-68243171D01*
X40684576Y-68243171D02*
X40613147Y-68314600D01*
X40613147Y-68314600D02*
X40470290Y-68386028D01*
X40470290Y-68386028D02*
X40327433Y-68386028D01*
X40327433Y-68386028D02*
X40184576Y-68314600D01*
X40184576Y-68314600D02*
X40113147Y-68243171D01*
X40113147Y-68243171D02*
X40041718Y-68100314D01*
X40041718Y-68100314D02*
X39970290Y-67814600D01*
X39970290Y-67814600D02*
X39970290Y-67457457D01*
X39970290Y-67457457D02*
X40041718Y-67171742D01*
X40041718Y-67171742D02*
X40113147Y-67028885D01*
X40113147Y-67028885D02*
X40184576Y-66957457D01*
X40184576Y-66957457D02*
X40327433Y-66886028D01*
X41756004Y-66886028D02*
X41898861Y-66886028D01*
X41898861Y-66886028D02*
X42041718Y-66957457D01*
X42041718Y-66957457D02*
X42113147Y-67028885D01*
X42113147Y-67028885D02*
X42184575Y-67171742D01*
X42184575Y-67171742D02*
X42256004Y-67457457D01*
X42256004Y-67457457D02*
X42256004Y-67814600D01*
X42256004Y-67814600D02*
X42184575Y-68100314D01*
X42184575Y-68100314D02*
X42113147Y-68243171D01*
X42113147Y-68243171D02*
X42041718Y-68314600D01*
X42041718Y-68314600D02*
X41898861Y-68386028D01*
X41898861Y-68386028D02*
X41756004Y-68386028D01*
X41756004Y-68386028D02*
X41613147Y-68314600D01*
X41613147Y-68314600D02*
X41541718Y-68243171D01*
X41541718Y-68243171D02*
X41470289Y-68100314D01*
X41470289Y-68100314D02*
X41398861Y-67814600D01*
X41398861Y-67814600D02*
X41398861Y-67457457D01*
X41398861Y-67457457D02*
X41470289Y-67171742D01*
X41470289Y-67171742D02*
X41541718Y-67028885D01*
X41541718Y-67028885D02*
X41613147Y-66957457D01*
X41613147Y-66957457D02*
X41756004Y-66886028D01*
X43113146Y-67528885D02*
X42970289Y-67457457D01*
X42970289Y-67457457D02*
X42898860Y-67386028D01*
X42898860Y-67386028D02*
X42827432Y-67243171D01*
X42827432Y-67243171D02*
X42827432Y-67171742D01*
X42827432Y-67171742D02*
X42898860Y-67028885D01*
X42898860Y-67028885D02*
X42970289Y-66957457D01*
X42970289Y-66957457D02*
X43113146Y-66886028D01*
X43113146Y-66886028D02*
X43398860Y-66886028D01*
X43398860Y-66886028D02*
X43541718Y-66957457D01*
X43541718Y-66957457D02*
X43613146Y-67028885D01*
X43613146Y-67028885D02*
X43684575Y-67171742D01*
X43684575Y-67171742D02*
X43684575Y-67243171D01*
X43684575Y-67243171D02*
X43613146Y-67386028D01*
X43613146Y-67386028D02*
X43541718Y-67457457D01*
X43541718Y-67457457D02*
X43398860Y-67528885D01*
X43398860Y-67528885D02*
X43113146Y-67528885D01*
X43113146Y-67528885D02*
X42970289Y-67600314D01*
X42970289Y-67600314D02*
X42898860Y-67671742D01*
X42898860Y-67671742D02*
X42827432Y-67814600D01*
X42827432Y-67814600D02*
X42827432Y-68100314D01*
X42827432Y-68100314D02*
X42898860Y-68243171D01*
X42898860Y-68243171D02*
X42970289Y-68314600D01*
X42970289Y-68314600D02*
X43113146Y-68386028D01*
X43113146Y-68386028D02*
X43398860Y-68386028D01*
X43398860Y-68386028D02*
X43541718Y-68314600D01*
X43541718Y-68314600D02*
X43613146Y-68243171D01*
X43613146Y-68243171D02*
X43684575Y-68100314D01*
X43684575Y-68100314D02*
X43684575Y-67814600D01*
X43684575Y-67814600D02*
X43613146Y-67671742D01*
X43613146Y-67671742D02*
X43541718Y-67600314D01*
X43541718Y-67600314D02*
X43398860Y-67528885D01*
X45684574Y-68386028D02*
X45541717Y-68314600D01*
X45541717Y-68314600D02*
X45470288Y-68243171D01*
X45470288Y-68243171D02*
X45398860Y-68100314D01*
X45398860Y-68100314D02*
X45398860Y-67671742D01*
X45398860Y-67671742D02*
X45470288Y-67528885D01*
X45470288Y-67528885D02*
X45541717Y-67457457D01*
X45541717Y-67457457D02*
X45684574Y-67386028D01*
X45684574Y-67386028D02*
X45898860Y-67386028D01*
X45898860Y-67386028D02*
X46041717Y-67457457D01*
X46041717Y-67457457D02*
X46113146Y-67528885D01*
X46113146Y-67528885D02*
X46184574Y-67671742D01*
X46184574Y-67671742D02*
X46184574Y-68100314D01*
X46184574Y-68100314D02*
X46113146Y-68243171D01*
X46113146Y-68243171D02*
X46041717Y-68314600D01*
X46041717Y-68314600D02*
X45898860Y-68386028D01*
X45898860Y-68386028D02*
X45684574Y-68386028D01*
X46827431Y-67386028D02*
X46827431Y-68386028D01*
X46827431Y-67528885D02*
X46898860Y-67457457D01*
X46898860Y-67457457D02*
X47041717Y-67386028D01*
X47041717Y-67386028D02*
X47256003Y-67386028D01*
X47256003Y-67386028D02*
X47398860Y-67457457D01*
X47398860Y-67457457D02*
X47470289Y-67600314D01*
X47470289Y-67600314D02*
X47470289Y-68386028D01*
X49113146Y-66886028D02*
X49970289Y-66886028D01*
X49541717Y-68386028D02*
X49541717Y-66886028D01*
X51113146Y-68386028D02*
X51113146Y-67600314D01*
X51113146Y-67600314D02*
X51041717Y-67457457D01*
X51041717Y-67457457D02*
X50898860Y-67386028D01*
X50898860Y-67386028D02*
X50613146Y-67386028D01*
X50613146Y-67386028D02*
X50470288Y-67457457D01*
X51113146Y-68314600D02*
X50970288Y-68386028D01*
X50970288Y-68386028D02*
X50613146Y-68386028D01*
X50613146Y-68386028D02*
X50470288Y-68314600D01*
X50470288Y-68314600D02*
X50398860Y-68171742D01*
X50398860Y-68171742D02*
X50398860Y-68028885D01*
X50398860Y-68028885D02*
X50470288Y-67886028D01*
X50470288Y-67886028D02*
X50613146Y-67814600D01*
X50613146Y-67814600D02*
X50970288Y-67814600D01*
X50970288Y-67814600D02*
X51113146Y-67743171D01*
X51827431Y-67386028D02*
X51827431Y-68386028D01*
X51827431Y-67528885D02*
X51898860Y-67457457D01*
X51898860Y-67457457D02*
X52041717Y-67386028D01*
X52041717Y-67386028D02*
X52256003Y-67386028D01*
X52256003Y-67386028D02*
X52398860Y-67457457D01*
X52398860Y-67457457D02*
X52470289Y-67600314D01*
X52470289Y-67600314D02*
X52470289Y-68386028D01*
X53827432Y-67386028D02*
X53827432Y-68600314D01*
X53827432Y-68600314D02*
X53756003Y-68743171D01*
X53756003Y-68743171D02*
X53684574Y-68814600D01*
X53684574Y-68814600D02*
X53541717Y-68886028D01*
X53541717Y-68886028D02*
X53327432Y-68886028D01*
X53327432Y-68886028D02*
X53184574Y-68814600D01*
X53827432Y-68314600D02*
X53684574Y-68386028D01*
X53684574Y-68386028D02*
X53398860Y-68386028D01*
X53398860Y-68386028D02*
X53256003Y-68314600D01*
X53256003Y-68314600D02*
X53184574Y-68243171D01*
X53184574Y-68243171D02*
X53113146Y-68100314D01*
X53113146Y-68100314D02*
X53113146Y-67671742D01*
X53113146Y-67671742D02*
X53184574Y-67528885D01*
X53184574Y-67528885D02*
X53256003Y-67457457D01*
X53256003Y-67457457D02*
X53398860Y-67386028D01*
X53398860Y-67386028D02*
X53684574Y-67386028D01*
X53684574Y-67386028D02*
X53827432Y-67457457D01*
X54541717Y-68386028D02*
X54541717Y-66886028D01*
X54541717Y-66886028D02*
X55398860Y-68386028D01*
X55398860Y-68386028D02*
X55398860Y-66886028D01*
X56756004Y-68386028D02*
X56756004Y-67600314D01*
X56756004Y-67600314D02*
X56684575Y-67457457D01*
X56684575Y-67457457D02*
X56541718Y-67386028D01*
X56541718Y-67386028D02*
X56256004Y-67386028D01*
X56256004Y-67386028D02*
X56113146Y-67457457D01*
X56756004Y-68314600D02*
X56613146Y-68386028D01*
X56613146Y-68386028D02*
X56256004Y-68386028D01*
X56256004Y-68386028D02*
X56113146Y-68314600D01*
X56113146Y-68314600D02*
X56041718Y-68171742D01*
X56041718Y-68171742D02*
X56041718Y-68028885D01*
X56041718Y-68028885D02*
X56113146Y-67886028D01*
X56113146Y-67886028D02*
X56256004Y-67814600D01*
X56256004Y-67814600D02*
X56613146Y-67814600D01*
X56613146Y-67814600D02*
X56756004Y-67743171D01*
X57470289Y-67386028D02*
X57470289Y-68386028D01*
X57470289Y-67528885D02*
X57541718Y-67457457D01*
X57541718Y-67457457D02*
X57684575Y-67386028D01*
X57684575Y-67386028D02*
X57898861Y-67386028D01*
X57898861Y-67386028D02*
X58041718Y-67457457D01*
X58041718Y-67457457D02*
X58113147Y-67600314D01*
X58113147Y-67600314D02*
X58113147Y-68386028D01*
X59041718Y-68386028D02*
X58898861Y-68314600D01*
X58898861Y-68314600D02*
X58827432Y-68243171D01*
X58827432Y-68243171D02*
X58756004Y-68100314D01*
X58756004Y-68100314D02*
X58756004Y-67671742D01*
X58756004Y-67671742D02*
X58827432Y-67528885D01*
X58827432Y-67528885D02*
X58898861Y-67457457D01*
X58898861Y-67457457D02*
X59041718Y-67386028D01*
X59041718Y-67386028D02*
X59256004Y-67386028D01*
X59256004Y-67386028D02*
X59398861Y-67457457D01*
X59398861Y-67457457D02*
X59470290Y-67528885D01*
X59470290Y-67528885D02*
X59541718Y-67671742D01*
X59541718Y-67671742D02*
X59541718Y-68100314D01*
X59541718Y-68100314D02*
X59470290Y-68243171D01*
X59470290Y-68243171D02*
X59398861Y-68314600D01*
X59398861Y-68314600D02*
X59256004Y-68386028D01*
X59256004Y-68386028D02*
X59041718Y-68386028D01*
X60113147Y-67028885D02*
X60184575Y-66957457D01*
X60184575Y-66957457D02*
X60327433Y-66886028D01*
X60327433Y-66886028D02*
X60684575Y-66886028D01*
X60684575Y-66886028D02*
X60827433Y-66957457D01*
X60827433Y-66957457D02*
X60898861Y-67028885D01*
X60898861Y-67028885D02*
X60970290Y-67171742D01*
X60970290Y-67171742D02*
X60970290Y-67314600D01*
X60970290Y-67314600D02*
X60898861Y-67528885D01*
X60898861Y-67528885D02*
X60041718Y-68386028D01*
X60041718Y-68386028D02*
X60970290Y-68386028D01*
X61898861Y-66886028D02*
X62041718Y-66886028D01*
X62041718Y-66886028D02*
X62184575Y-66957457D01*
X62184575Y-66957457D02*
X62256004Y-67028885D01*
X62256004Y-67028885D02*
X62327432Y-67171742D01*
X62327432Y-67171742D02*
X62398861Y-67457457D01*
X62398861Y-67457457D02*
X62398861Y-67814600D01*
X62398861Y-67814600D02*
X62327432Y-68100314D01*
X62327432Y-68100314D02*
X62256004Y-68243171D01*
X62256004Y-68243171D02*
X62184575Y-68314600D01*
X62184575Y-68314600D02*
X62041718Y-68386028D01*
X62041718Y-68386028D02*
X61898861Y-68386028D01*
X61898861Y-68386028D02*
X61756004Y-68314600D01*
X61756004Y-68314600D02*
X61684575Y-68243171D01*
X61684575Y-68243171D02*
X61613146Y-68100314D01*
X61613146Y-68100314D02*
X61541718Y-67814600D01*
X61541718Y-67814600D02*
X61541718Y-67457457D01*
X61541718Y-67457457D02*
X61613146Y-67171742D01*
X61613146Y-67171742D02*
X61684575Y-67028885D01*
X61684575Y-67028885D02*
X61756004Y-66957457D01*
X61756004Y-66957457D02*
X61898861Y-66886028D01*
X63041717Y-68386028D02*
X63041717Y-66886028D01*
X63898860Y-68386028D02*
X63256003Y-67528885D01*
X63898860Y-66886028D02*
X63041717Y-67743171D01*
D10*
X29566922Y-57289819D02*
X30138350Y-57289819D01*
X29852636Y-58289819D02*
X29852636Y-57289819D01*
X30900255Y-58289819D02*
X30900255Y-57766009D01*
X30900255Y-57766009D02*
X30852636Y-57670771D01*
X30852636Y-57670771D02*
X30757398Y-57623152D01*
X30757398Y-57623152D02*
X30566922Y-57623152D01*
X30566922Y-57623152D02*
X30471684Y-57670771D01*
X30900255Y-58242200D02*
X30805017Y-58289819D01*
X30805017Y-58289819D02*
X30566922Y-58289819D01*
X30566922Y-58289819D02*
X30471684Y-58242200D01*
X30471684Y-58242200D02*
X30424065Y-58146961D01*
X30424065Y-58146961D02*
X30424065Y-58051723D01*
X30424065Y-58051723D02*
X30471684Y-57956485D01*
X30471684Y-57956485D02*
X30566922Y-57908866D01*
X30566922Y-57908866D02*
X30805017Y-57908866D01*
X30805017Y-57908866D02*
X30900255Y-57861247D01*
X31376446Y-57623152D02*
X31376446Y-58289819D01*
X31376446Y-57718390D02*
X31424065Y-57670771D01*
X31424065Y-57670771D02*
X31519303Y-57623152D01*
X31519303Y-57623152D02*
X31662160Y-57623152D01*
X31662160Y-57623152D02*
X31757398Y-57670771D01*
X31757398Y-57670771D02*
X31805017Y-57766009D01*
X31805017Y-57766009D02*
X31805017Y-58289819D01*
X32709779Y-57623152D02*
X32709779Y-58432676D01*
X32709779Y-58432676D02*
X32662160Y-58527914D01*
X32662160Y-58527914D02*
X32614541Y-58575533D01*
X32614541Y-58575533D02*
X32519303Y-58623152D01*
X32519303Y-58623152D02*
X32376446Y-58623152D01*
X32376446Y-58623152D02*
X32281208Y-58575533D01*
X32709779Y-58242200D02*
X32614541Y-58289819D01*
X32614541Y-58289819D02*
X32424065Y-58289819D01*
X32424065Y-58289819D02*
X32328827Y-58242200D01*
X32328827Y-58242200D02*
X32281208Y-58194580D01*
X32281208Y-58194580D02*
X32233589Y-58099342D01*
X32233589Y-58099342D02*
X32233589Y-57813628D01*
X32233589Y-57813628D02*
X32281208Y-57718390D01*
X32281208Y-57718390D02*
X32328827Y-57670771D01*
X32328827Y-57670771D02*
X32424065Y-57623152D01*
X32424065Y-57623152D02*
X32614541Y-57623152D01*
X32614541Y-57623152D02*
X32709779Y-57670771D01*
X33185970Y-58289819D02*
X33185970Y-57289819D01*
X33185970Y-57289819D02*
X33757398Y-58289819D01*
X33757398Y-58289819D02*
X33757398Y-57289819D01*
X34662160Y-58289819D02*
X34662160Y-57766009D01*
X34662160Y-57766009D02*
X34614541Y-57670771D01*
X34614541Y-57670771D02*
X34519303Y-57623152D01*
X34519303Y-57623152D02*
X34328827Y-57623152D01*
X34328827Y-57623152D02*
X34233589Y-57670771D01*
X34662160Y-58242200D02*
X34566922Y-58289819D01*
X34566922Y-58289819D02*
X34328827Y-58289819D01*
X34328827Y-58289819D02*
X34233589Y-58242200D01*
X34233589Y-58242200D02*
X34185970Y-58146961D01*
X34185970Y-58146961D02*
X34185970Y-58051723D01*
X34185970Y-58051723D02*
X34233589Y-57956485D01*
X34233589Y-57956485D02*
X34328827Y-57908866D01*
X34328827Y-57908866D02*
X34566922Y-57908866D01*
X34566922Y-57908866D02*
X34662160Y-57861247D01*
X35138351Y-57623152D02*
X35138351Y-58289819D01*
X35138351Y-57718390D02*
X35185970Y-57670771D01*
X35185970Y-57670771D02*
X35281208Y-57623152D01*
X35281208Y-57623152D02*
X35424065Y-57623152D01*
X35424065Y-57623152D02*
X35519303Y-57670771D01*
X35519303Y-57670771D02*
X35566922Y-57766009D01*
X35566922Y-57766009D02*
X35566922Y-58289819D01*
X36185970Y-58289819D02*
X36090732Y-58242200D01*
X36090732Y-58242200D02*
X36043113Y-58194580D01*
X36043113Y-58194580D02*
X35995494Y-58099342D01*
X35995494Y-58099342D02*
X35995494Y-57813628D01*
X35995494Y-57813628D02*
X36043113Y-57718390D01*
X36043113Y-57718390D02*
X36090732Y-57670771D01*
X36090732Y-57670771D02*
X36185970Y-57623152D01*
X36185970Y-57623152D02*
X36328827Y-57623152D01*
X36328827Y-57623152D02*
X36424065Y-57670771D01*
X36424065Y-57670771D02*
X36471684Y-57718390D01*
X36471684Y-57718390D02*
X36519303Y-57813628D01*
X36519303Y-57813628D02*
X36519303Y-58099342D01*
X36519303Y-58099342D02*
X36471684Y-58194580D01*
X36471684Y-58194580D02*
X36424065Y-58242200D01*
X36424065Y-58242200D02*
X36328827Y-58289819D01*
X36328827Y-58289819D02*
X36185970Y-58289819D01*
X36900256Y-57385057D02*
X36947875Y-57337438D01*
X36947875Y-57337438D02*
X37043113Y-57289819D01*
X37043113Y-57289819D02*
X37281208Y-57289819D01*
X37281208Y-57289819D02*
X37376446Y-57337438D01*
X37376446Y-57337438D02*
X37424065Y-57385057D01*
X37424065Y-57385057D02*
X37471684Y-57480295D01*
X37471684Y-57480295D02*
X37471684Y-57575533D01*
X37471684Y-57575533D02*
X37424065Y-57718390D01*
X37424065Y-57718390D02*
X36852637Y-58289819D01*
X36852637Y-58289819D02*
X37471684Y-58289819D01*
X38090732Y-57289819D02*
X38185970Y-57289819D01*
X38185970Y-57289819D02*
X38281208Y-57337438D01*
X38281208Y-57337438D02*
X38328827Y-57385057D01*
X38328827Y-57385057D02*
X38376446Y-57480295D01*
X38376446Y-57480295D02*
X38424065Y-57670771D01*
X38424065Y-57670771D02*
X38424065Y-57908866D01*
X38424065Y-57908866D02*
X38376446Y-58099342D01*
X38376446Y-58099342D02*
X38328827Y-58194580D01*
X38328827Y-58194580D02*
X38281208Y-58242200D01*
X38281208Y-58242200D02*
X38185970Y-58289819D01*
X38185970Y-58289819D02*
X38090732Y-58289819D01*
X38090732Y-58289819D02*
X37995494Y-58242200D01*
X37995494Y-58242200D02*
X37947875Y-58194580D01*
X37947875Y-58194580D02*
X37900256Y-58099342D01*
X37900256Y-58099342D02*
X37852637Y-57908866D01*
X37852637Y-57908866D02*
X37852637Y-57670771D01*
X37852637Y-57670771D02*
X37900256Y-57480295D01*
X37900256Y-57480295D02*
X37947875Y-57385057D01*
X37947875Y-57385057D02*
X37995494Y-57337438D01*
X37995494Y-57337438D02*
X38090732Y-57289819D01*
X38852637Y-58289819D02*
X38852637Y-57289819D01*
X39424065Y-58289819D02*
X38995494Y-57718390D01*
X39424065Y-57289819D02*
X38852637Y-57861247D01*
X40519304Y-57623152D02*
X40709780Y-58289819D01*
X40709780Y-58289819D02*
X40900256Y-57813628D01*
X40900256Y-57813628D02*
X41090732Y-58289819D01*
X41090732Y-58289819D02*
X41281208Y-57623152D01*
X41662161Y-58289819D02*
X41662161Y-57623152D01*
X41662161Y-57289819D02*
X41614542Y-57337438D01*
X41614542Y-57337438D02*
X41662161Y-57385057D01*
X41662161Y-57385057D02*
X41709780Y-57337438D01*
X41709780Y-57337438D02*
X41662161Y-57289819D01*
X41662161Y-57289819D02*
X41662161Y-57385057D01*
X41995494Y-57623152D02*
X42376446Y-57623152D01*
X42138351Y-57289819D02*
X42138351Y-58146961D01*
X42138351Y-58146961D02*
X42185970Y-58242200D01*
X42185970Y-58242200D02*
X42281208Y-58289819D01*
X42281208Y-58289819D02*
X42376446Y-58289819D01*
X42709780Y-58289819D02*
X42709780Y-57289819D01*
X43138351Y-58289819D02*
X43138351Y-57766009D01*
X43138351Y-57766009D02*
X43090732Y-57670771D01*
X43090732Y-57670771D02*
X42995494Y-57623152D01*
X42995494Y-57623152D02*
X42852637Y-57623152D01*
X42852637Y-57623152D02*
X42757399Y-57670771D01*
X42757399Y-57670771D02*
X42709780Y-57718390D01*
X44852637Y-57289819D02*
X44376447Y-57289819D01*
X44376447Y-57289819D02*
X44328828Y-57766009D01*
X44328828Y-57766009D02*
X44376447Y-57718390D01*
X44376447Y-57718390D02*
X44471685Y-57670771D01*
X44471685Y-57670771D02*
X44709780Y-57670771D01*
X44709780Y-57670771D02*
X44805018Y-57718390D01*
X44805018Y-57718390D02*
X44852637Y-57766009D01*
X44852637Y-57766009D02*
X44900256Y-57861247D01*
X44900256Y-57861247D02*
X44900256Y-58099342D01*
X44900256Y-58099342D02*
X44852637Y-58194580D01*
X44852637Y-58194580D02*
X44805018Y-58242200D01*
X44805018Y-58242200D02*
X44709780Y-58289819D01*
X44709780Y-58289819D02*
X44471685Y-58289819D01*
X44471685Y-58289819D02*
X44376447Y-58242200D01*
X44376447Y-58242200D02*
X44328828Y-58194580D01*
X45185971Y-57289819D02*
X45519304Y-58289819D01*
X45519304Y-58289819D02*
X45852637Y-57289819D01*
X46805019Y-57289819D02*
X47376447Y-57289819D01*
X47090733Y-58289819D02*
X47090733Y-57289819D01*
X47852638Y-58289819D02*
X47757400Y-58242200D01*
X47757400Y-58242200D02*
X47709781Y-58194580D01*
X47709781Y-58194580D02*
X47662162Y-58099342D01*
X47662162Y-58099342D02*
X47662162Y-57813628D01*
X47662162Y-57813628D02*
X47709781Y-57718390D01*
X47709781Y-57718390D02*
X47757400Y-57670771D01*
X47757400Y-57670771D02*
X47852638Y-57623152D01*
X47852638Y-57623152D02*
X47995495Y-57623152D01*
X47995495Y-57623152D02*
X48090733Y-57670771D01*
X48090733Y-57670771D02*
X48138352Y-57718390D01*
X48138352Y-57718390D02*
X48185971Y-57813628D01*
X48185971Y-57813628D02*
X48185971Y-58099342D01*
X48185971Y-58099342D02*
X48138352Y-58194580D01*
X48138352Y-58194580D02*
X48090733Y-58242200D01*
X48090733Y-58242200D02*
X47995495Y-58289819D01*
X47995495Y-58289819D02*
X47852638Y-58289819D01*
X48757400Y-58289819D02*
X48662162Y-58242200D01*
X48662162Y-58242200D02*
X48614543Y-58146961D01*
X48614543Y-58146961D02*
X48614543Y-57289819D01*
X49519305Y-58242200D02*
X49424067Y-58289819D01*
X49424067Y-58289819D02*
X49233591Y-58289819D01*
X49233591Y-58289819D02*
X49138353Y-58242200D01*
X49138353Y-58242200D02*
X49090734Y-58146961D01*
X49090734Y-58146961D02*
X49090734Y-57766009D01*
X49090734Y-57766009D02*
X49138353Y-57670771D01*
X49138353Y-57670771D02*
X49233591Y-57623152D01*
X49233591Y-57623152D02*
X49424067Y-57623152D01*
X49424067Y-57623152D02*
X49519305Y-57670771D01*
X49519305Y-57670771D02*
X49566924Y-57766009D01*
X49566924Y-57766009D02*
X49566924Y-57861247D01*
X49566924Y-57861247D02*
X49090734Y-57956485D01*
X49995496Y-58289819D02*
X49995496Y-57623152D01*
X49995496Y-57813628D02*
X50043115Y-57718390D01*
X50043115Y-57718390D02*
X50090734Y-57670771D01*
X50090734Y-57670771D02*
X50185972Y-57623152D01*
X50185972Y-57623152D02*
X50281210Y-57623152D01*
X51043115Y-58289819D02*
X51043115Y-57766009D01*
X51043115Y-57766009D02*
X50995496Y-57670771D01*
X50995496Y-57670771D02*
X50900258Y-57623152D01*
X50900258Y-57623152D02*
X50709782Y-57623152D01*
X50709782Y-57623152D02*
X50614544Y-57670771D01*
X51043115Y-58242200D02*
X50947877Y-58289819D01*
X50947877Y-58289819D02*
X50709782Y-58289819D01*
X50709782Y-58289819D02*
X50614544Y-58242200D01*
X50614544Y-58242200D02*
X50566925Y-58146961D01*
X50566925Y-58146961D02*
X50566925Y-58051723D01*
X50566925Y-58051723D02*
X50614544Y-57956485D01*
X50614544Y-57956485D02*
X50709782Y-57908866D01*
X50709782Y-57908866D02*
X50947877Y-57908866D01*
X50947877Y-57908866D02*
X51043115Y-57861247D01*
X51519306Y-57623152D02*
X51519306Y-58289819D01*
X51519306Y-57718390D02*
X51566925Y-57670771D01*
X51566925Y-57670771D02*
X51662163Y-57623152D01*
X51662163Y-57623152D02*
X51805020Y-57623152D01*
X51805020Y-57623152D02*
X51900258Y-57670771D01*
X51900258Y-57670771D02*
X51947877Y-57766009D01*
X51947877Y-57766009D02*
X51947877Y-58289819D01*
X52281211Y-57623152D02*
X52662163Y-57623152D01*
X52424068Y-57289819D02*
X52424068Y-58146961D01*
X52424068Y-58146961D02*
X52471687Y-58242200D01*
X52471687Y-58242200D02*
X52566925Y-58289819D01*
X52566925Y-58289819D02*
X52662163Y-58289819D01*
X53757402Y-58289819D02*
X53757402Y-57289819D01*
X54233592Y-57623152D02*
X54233592Y-58289819D01*
X54233592Y-57718390D02*
X54281211Y-57670771D01*
X54281211Y-57670771D02*
X54376449Y-57623152D01*
X54376449Y-57623152D02*
X54519306Y-57623152D01*
X54519306Y-57623152D02*
X54614544Y-57670771D01*
X54614544Y-57670771D02*
X54662163Y-57766009D01*
X54662163Y-57766009D02*
X54662163Y-58289819D01*
X54995497Y-57623152D02*
X55376449Y-57623152D01*
X55138354Y-57289819D02*
X55138354Y-58146961D01*
X55138354Y-58146961D02*
X55185973Y-58242200D01*
X55185973Y-58242200D02*
X55281211Y-58289819D01*
X55281211Y-58289819D02*
X55376449Y-58289819D01*
X56090735Y-58242200D02*
X55995497Y-58289819D01*
X55995497Y-58289819D02*
X55805021Y-58289819D01*
X55805021Y-58289819D02*
X55709783Y-58242200D01*
X55709783Y-58242200D02*
X55662164Y-58146961D01*
X55662164Y-58146961D02*
X55662164Y-57766009D01*
X55662164Y-57766009D02*
X55709783Y-57670771D01*
X55709783Y-57670771D02*
X55805021Y-57623152D01*
X55805021Y-57623152D02*
X55995497Y-57623152D01*
X55995497Y-57623152D02*
X56090735Y-57670771D01*
X56090735Y-57670771D02*
X56138354Y-57766009D01*
X56138354Y-57766009D02*
X56138354Y-57861247D01*
X56138354Y-57861247D02*
X55662164Y-57956485D01*
X56566926Y-58289819D02*
X56566926Y-57623152D01*
X56566926Y-57813628D02*
X56614545Y-57718390D01*
X56614545Y-57718390D02*
X56662164Y-57670771D01*
X56662164Y-57670771D02*
X56757402Y-57623152D01*
X56757402Y-57623152D02*
X56852640Y-57623152D01*
X57043117Y-57623152D02*
X57424069Y-57623152D01*
X57185974Y-58289819D02*
X57185974Y-57432676D01*
X57185974Y-57432676D02*
X57233593Y-57337438D01*
X57233593Y-57337438D02*
X57328831Y-57289819D01*
X57328831Y-57289819D02*
X57424069Y-57289819D01*
X58185974Y-58289819D02*
X58185974Y-57766009D01*
X58185974Y-57766009D02*
X58138355Y-57670771D01*
X58138355Y-57670771D02*
X58043117Y-57623152D01*
X58043117Y-57623152D02*
X57852641Y-57623152D01*
X57852641Y-57623152D02*
X57757403Y-57670771D01*
X58185974Y-58242200D02*
X58090736Y-58289819D01*
X58090736Y-58289819D02*
X57852641Y-58289819D01*
X57852641Y-58289819D02*
X57757403Y-58242200D01*
X57757403Y-58242200D02*
X57709784Y-58146961D01*
X57709784Y-58146961D02*
X57709784Y-58051723D01*
X57709784Y-58051723D02*
X57757403Y-57956485D01*
X57757403Y-57956485D02*
X57852641Y-57908866D01*
X57852641Y-57908866D02*
X58090736Y-57908866D01*
X58090736Y-57908866D02*
X58185974Y-57861247D01*
X59090736Y-58242200D02*
X58995498Y-58289819D01*
X58995498Y-58289819D02*
X58805022Y-58289819D01*
X58805022Y-58289819D02*
X58709784Y-58242200D01*
X58709784Y-58242200D02*
X58662165Y-58194580D01*
X58662165Y-58194580D02*
X58614546Y-58099342D01*
X58614546Y-58099342D02*
X58614546Y-57813628D01*
X58614546Y-57813628D02*
X58662165Y-57718390D01*
X58662165Y-57718390D02*
X58709784Y-57670771D01*
X58709784Y-57670771D02*
X58805022Y-57623152D01*
X58805022Y-57623152D02*
X58995498Y-57623152D01*
X58995498Y-57623152D02*
X59090736Y-57670771D01*
X59900260Y-58242200D02*
X59805022Y-58289819D01*
X59805022Y-58289819D02*
X59614546Y-58289819D01*
X59614546Y-58289819D02*
X59519308Y-58242200D01*
X59519308Y-58242200D02*
X59471689Y-58146961D01*
X59471689Y-58146961D02*
X59471689Y-57766009D01*
X59471689Y-57766009D02*
X59519308Y-57670771D01*
X59519308Y-57670771D02*
X59614546Y-57623152D01*
X59614546Y-57623152D02*
X59805022Y-57623152D01*
X59805022Y-57623152D02*
X59900260Y-57670771D01*
X59900260Y-57670771D02*
X59947879Y-57766009D01*
X59947879Y-57766009D02*
X59947879Y-57861247D01*
X59947879Y-57861247D02*
X59471689Y-57956485D01*
X58874819Y-36298094D02*
X57874819Y-36298094D01*
X57874819Y-36298094D02*
X57874819Y-36059999D01*
X57874819Y-36059999D02*
X57922438Y-35917142D01*
X57922438Y-35917142D02*
X58017676Y-35821904D01*
X58017676Y-35821904D02*
X58112914Y-35774285D01*
X58112914Y-35774285D02*
X58303390Y-35726666D01*
X58303390Y-35726666D02*
X58446247Y-35726666D01*
X58446247Y-35726666D02*
X58636723Y-35774285D01*
X58636723Y-35774285D02*
X58731961Y-35821904D01*
X58731961Y-35821904D02*
X58827200Y-35917142D01*
X58827200Y-35917142D02*
X58874819Y-36059999D01*
X58874819Y-36059999D02*
X58874819Y-36298094D01*
X57874819Y-35393332D02*
X57874819Y-34726666D01*
X57874819Y-34726666D02*
X58874819Y-35155237D01*
X46174819Y-36298094D02*
X45174819Y-36298094D01*
X45174819Y-36298094D02*
X45174819Y-36059999D01*
X45174819Y-36059999D02*
X45222438Y-35917142D01*
X45222438Y-35917142D02*
X45317676Y-35821904D01*
X45317676Y-35821904D02*
X45412914Y-35774285D01*
X45412914Y-35774285D02*
X45603390Y-35726666D01*
X45603390Y-35726666D02*
X45746247Y-35726666D01*
X45746247Y-35726666D02*
X45936723Y-35774285D01*
X45936723Y-35774285D02*
X46031961Y-35821904D01*
X46031961Y-35821904D02*
X46127200Y-35917142D01*
X46127200Y-35917142D02*
X46174819Y-36059999D01*
X46174819Y-36059999D02*
X46174819Y-36298094D01*
X45270057Y-35345713D02*
X45222438Y-35298094D01*
X45222438Y-35298094D02*
X45174819Y-35202856D01*
X45174819Y-35202856D02*
X45174819Y-34964761D01*
X45174819Y-34964761D02*
X45222438Y-34869523D01*
X45222438Y-34869523D02*
X45270057Y-34821904D01*
X45270057Y-34821904D02*
X45365295Y-34774285D01*
X45365295Y-34774285D02*
X45460533Y-34774285D01*
X45460533Y-34774285D02*
X45603390Y-34821904D01*
X45603390Y-34821904D02*
X46174819Y-35393332D01*
X46174819Y-35393332D02*
X46174819Y-34774285D01*
X51254819Y-36298094D02*
X50254819Y-36298094D01*
X50254819Y-36298094D02*
X50254819Y-36059999D01*
X50254819Y-36059999D02*
X50302438Y-35917142D01*
X50302438Y-35917142D02*
X50397676Y-35821904D01*
X50397676Y-35821904D02*
X50492914Y-35774285D01*
X50492914Y-35774285D02*
X50683390Y-35726666D01*
X50683390Y-35726666D02*
X50826247Y-35726666D01*
X50826247Y-35726666D02*
X51016723Y-35774285D01*
X51016723Y-35774285D02*
X51111961Y-35821904D01*
X51111961Y-35821904D02*
X51207200Y-35917142D01*
X51207200Y-35917142D02*
X51254819Y-36059999D01*
X51254819Y-36059999D02*
X51254819Y-36298094D01*
X50588152Y-34869523D02*
X51254819Y-34869523D01*
X50207200Y-35107618D02*
X50921485Y-35345713D01*
X50921485Y-35345713D02*
X50921485Y-34726666D01*
X43634819Y-36298094D02*
X42634819Y-36298094D01*
X42634819Y-36298094D02*
X42634819Y-36059999D01*
X42634819Y-36059999D02*
X42682438Y-35917142D01*
X42682438Y-35917142D02*
X42777676Y-35821904D01*
X42777676Y-35821904D02*
X42872914Y-35774285D01*
X42872914Y-35774285D02*
X43063390Y-35726666D01*
X43063390Y-35726666D02*
X43206247Y-35726666D01*
X43206247Y-35726666D02*
X43396723Y-35774285D01*
X43396723Y-35774285D02*
X43491961Y-35821904D01*
X43491961Y-35821904D02*
X43587200Y-35917142D01*
X43587200Y-35917142D02*
X43634819Y-36059999D01*
X43634819Y-36059999D02*
X43634819Y-36298094D01*
X43634819Y-34774285D02*
X43634819Y-35345713D01*
X43634819Y-35059999D02*
X42634819Y-35059999D01*
X42634819Y-35059999D02*
X42777676Y-35155237D01*
X42777676Y-35155237D02*
X42872914Y-35250475D01*
X42872914Y-35250475D02*
X42920533Y-35345713D01*
X48714819Y-36298094D02*
X47714819Y-36298094D01*
X47714819Y-36298094D02*
X47714819Y-36059999D01*
X47714819Y-36059999D02*
X47762438Y-35917142D01*
X47762438Y-35917142D02*
X47857676Y-35821904D01*
X47857676Y-35821904D02*
X47952914Y-35774285D01*
X47952914Y-35774285D02*
X48143390Y-35726666D01*
X48143390Y-35726666D02*
X48286247Y-35726666D01*
X48286247Y-35726666D02*
X48476723Y-35774285D01*
X48476723Y-35774285D02*
X48571961Y-35821904D01*
X48571961Y-35821904D02*
X48667200Y-35917142D01*
X48667200Y-35917142D02*
X48714819Y-36059999D01*
X48714819Y-36059999D02*
X48714819Y-36298094D01*
X47714819Y-35393332D02*
X47714819Y-34774285D01*
X47714819Y-34774285D02*
X48095771Y-35107618D01*
X48095771Y-35107618D02*
X48095771Y-34964761D01*
X48095771Y-34964761D02*
X48143390Y-34869523D01*
X48143390Y-34869523D02*
X48191009Y-34821904D01*
X48191009Y-34821904D02*
X48286247Y-34774285D01*
X48286247Y-34774285D02*
X48524342Y-34774285D01*
X48524342Y-34774285D02*
X48619580Y-34821904D01*
X48619580Y-34821904D02*
X48667200Y-34869523D01*
X48667200Y-34869523D02*
X48714819Y-34964761D01*
X48714819Y-34964761D02*
X48714819Y-35250475D01*
X48714819Y-35250475D02*
X48667200Y-35345713D01*
X48667200Y-35345713D02*
X48619580Y-35393332D01*
X56334819Y-36298094D02*
X55334819Y-36298094D01*
X55334819Y-36298094D02*
X55334819Y-36059999D01*
X55334819Y-36059999D02*
X55382438Y-35917142D01*
X55382438Y-35917142D02*
X55477676Y-35821904D01*
X55477676Y-35821904D02*
X55572914Y-35774285D01*
X55572914Y-35774285D02*
X55763390Y-35726666D01*
X55763390Y-35726666D02*
X55906247Y-35726666D01*
X55906247Y-35726666D02*
X56096723Y-35774285D01*
X56096723Y-35774285D02*
X56191961Y-35821904D01*
X56191961Y-35821904D02*
X56287200Y-35917142D01*
X56287200Y-35917142D02*
X56334819Y-36059999D01*
X56334819Y-36059999D02*
X56334819Y-36298094D01*
X55334819Y-34869523D02*
X55334819Y-35059999D01*
X55334819Y-35059999D02*
X55382438Y-35155237D01*
X55382438Y-35155237D02*
X55430057Y-35202856D01*
X55430057Y-35202856D02*
X55572914Y-35298094D01*
X55572914Y-35298094D02*
X55763390Y-35345713D01*
X55763390Y-35345713D02*
X56144342Y-35345713D01*
X56144342Y-35345713D02*
X56239580Y-35298094D01*
X56239580Y-35298094D02*
X56287200Y-35250475D01*
X56287200Y-35250475D02*
X56334819Y-35155237D01*
X56334819Y-35155237D02*
X56334819Y-34964761D01*
X56334819Y-34964761D02*
X56287200Y-34869523D01*
X56287200Y-34869523D02*
X56239580Y-34821904D01*
X56239580Y-34821904D02*
X56144342Y-34774285D01*
X56144342Y-34774285D02*
X55906247Y-34774285D01*
X55906247Y-34774285D02*
X55811009Y-34821904D01*
X55811009Y-34821904D02*
X55763390Y-34869523D01*
X55763390Y-34869523D02*
X55715771Y-34964761D01*
X55715771Y-34964761D02*
X55715771Y-35155237D01*
X55715771Y-35155237D02*
X55763390Y-35250475D01*
X55763390Y-35250475D02*
X55811009Y-35298094D01*
X55811009Y-35298094D02*
X55906247Y-35345713D01*
X53794819Y-36298094D02*
X52794819Y-36298094D01*
X52794819Y-36298094D02*
X52794819Y-36059999D01*
X52794819Y-36059999D02*
X52842438Y-35917142D01*
X52842438Y-35917142D02*
X52937676Y-35821904D01*
X52937676Y-35821904D02*
X53032914Y-35774285D01*
X53032914Y-35774285D02*
X53223390Y-35726666D01*
X53223390Y-35726666D02*
X53366247Y-35726666D01*
X53366247Y-35726666D02*
X53556723Y-35774285D01*
X53556723Y-35774285D02*
X53651961Y-35821904D01*
X53651961Y-35821904D02*
X53747200Y-35917142D01*
X53747200Y-35917142D02*
X53794819Y-36059999D01*
X53794819Y-36059999D02*
X53794819Y-36298094D01*
X52794819Y-34821904D02*
X52794819Y-35298094D01*
X52794819Y-35298094D02*
X53271009Y-35345713D01*
X53271009Y-35345713D02*
X53223390Y-35298094D01*
X53223390Y-35298094D02*
X53175771Y-35202856D01*
X53175771Y-35202856D02*
X53175771Y-34964761D01*
X53175771Y-34964761D02*
X53223390Y-34869523D01*
X53223390Y-34869523D02*
X53271009Y-34821904D01*
X53271009Y-34821904D02*
X53366247Y-34774285D01*
X53366247Y-34774285D02*
X53604342Y-34774285D01*
X53604342Y-34774285D02*
X53699580Y-34821904D01*
X53699580Y-34821904D02*
X53747200Y-34869523D01*
X53747200Y-34869523D02*
X53794819Y-34964761D01*
X53794819Y-34964761D02*
X53794819Y-35202856D01*
X53794819Y-35202856D02*
X53747200Y-35298094D01*
X53747200Y-35298094D02*
X53699580Y-35345713D01*
X61414819Y-36298094D02*
X60414819Y-36298094D01*
X60414819Y-36298094D02*
X60414819Y-36059999D01*
X60414819Y-36059999D02*
X60462438Y-35917142D01*
X60462438Y-35917142D02*
X60557676Y-35821904D01*
X60557676Y-35821904D02*
X60652914Y-35774285D01*
X60652914Y-35774285D02*
X60843390Y-35726666D01*
X60843390Y-35726666D02*
X60986247Y-35726666D01*
X60986247Y-35726666D02*
X61176723Y-35774285D01*
X61176723Y-35774285D02*
X61271961Y-35821904D01*
X61271961Y-35821904D02*
X61367200Y-35917142D01*
X61367200Y-35917142D02*
X61414819Y-36059999D01*
X61414819Y-36059999D02*
X61414819Y-36298094D01*
X60843390Y-35155237D02*
X60795771Y-35250475D01*
X60795771Y-35250475D02*
X60748152Y-35298094D01*
X60748152Y-35298094D02*
X60652914Y-35345713D01*
X60652914Y-35345713D02*
X60605295Y-35345713D01*
X60605295Y-35345713D02*
X60510057Y-35298094D01*
X60510057Y-35298094D02*
X60462438Y-35250475D01*
X60462438Y-35250475D02*
X60414819Y-35155237D01*
X60414819Y-35155237D02*
X60414819Y-34964761D01*
X60414819Y-34964761D02*
X60462438Y-34869523D01*
X60462438Y-34869523D02*
X60510057Y-34821904D01*
X60510057Y-34821904D02*
X60605295Y-34774285D01*
X60605295Y-34774285D02*
X60652914Y-34774285D01*
X60652914Y-34774285D02*
X60748152Y-34821904D01*
X60748152Y-34821904D02*
X60795771Y-34869523D01*
X60795771Y-34869523D02*
X60843390Y-34964761D01*
X60843390Y-34964761D02*
X60843390Y-35155237D01*
X60843390Y-35155237D02*
X60891009Y-35250475D01*
X60891009Y-35250475D02*
X60938628Y-35298094D01*
X60938628Y-35298094D02*
X61033866Y-35345713D01*
X61033866Y-35345713D02*
X61224342Y-35345713D01*
X61224342Y-35345713D02*
X61319580Y-35298094D01*
X61319580Y-35298094D02*
X61367200Y-35250475D01*
X61367200Y-35250475D02*
X61414819Y-35155237D01*
X61414819Y-35155237D02*
X61414819Y-34964761D01*
X61414819Y-34964761D02*
X61367200Y-34869523D01*
X61367200Y-34869523D02*
X61319580Y-34821904D01*
X61319580Y-34821904D02*
X61224342Y-34774285D01*
X61224342Y-34774285D02*
X61033866Y-34774285D01*
X61033866Y-34774285D02*
X60938628Y-34821904D01*
X60938628Y-34821904D02*
X60891009Y-34869523D01*
X60891009Y-34869523D02*
X60843390Y-34964761D01*
X9993333Y-25759580D02*
X9945714Y-25807200D01*
X9945714Y-25807200D02*
X9802857Y-25854819D01*
X9802857Y-25854819D02*
X9707619Y-25854819D01*
X9707619Y-25854819D02*
X9564762Y-25807200D01*
X9564762Y-25807200D02*
X9469524Y-25711961D01*
X9469524Y-25711961D02*
X9421905Y-25616723D01*
X9421905Y-25616723D02*
X9374286Y-25426247D01*
X9374286Y-25426247D02*
X9374286Y-25283390D01*
X9374286Y-25283390D02*
X9421905Y-25092914D01*
X9421905Y-25092914D02*
X9469524Y-24997676D01*
X9469524Y-24997676D02*
X9564762Y-24902438D01*
X9564762Y-24902438D02*
X9707619Y-24854819D01*
X9707619Y-24854819D02*
X9802857Y-24854819D01*
X9802857Y-24854819D02*
X9945714Y-24902438D01*
X9945714Y-24902438D02*
X9993333Y-24950057D01*
X10374286Y-24950057D02*
X10421905Y-24902438D01*
X10421905Y-24902438D02*
X10517143Y-24854819D01*
X10517143Y-24854819D02*
X10755238Y-24854819D01*
X10755238Y-24854819D02*
X10850476Y-24902438D01*
X10850476Y-24902438D02*
X10898095Y-24950057D01*
X10898095Y-24950057D02*
X10945714Y-25045295D01*
X10945714Y-25045295D02*
X10945714Y-25140533D01*
X10945714Y-25140533D02*
X10898095Y-25283390D01*
X10898095Y-25283390D02*
X10326667Y-25854819D01*
X10326667Y-25854819D02*
X10945714Y-25854819D01*
X25854819Y-34456666D02*
X25378628Y-34789999D01*
X25854819Y-35028094D02*
X24854819Y-35028094D01*
X24854819Y-35028094D02*
X24854819Y-34647142D01*
X24854819Y-34647142D02*
X24902438Y-34551904D01*
X24902438Y-34551904D02*
X24950057Y-34504285D01*
X24950057Y-34504285D02*
X25045295Y-34456666D01*
X25045295Y-34456666D02*
X25188152Y-34456666D01*
X25188152Y-34456666D02*
X25283390Y-34504285D01*
X25283390Y-34504285D02*
X25331009Y-34551904D01*
X25331009Y-34551904D02*
X25378628Y-34647142D01*
X25378628Y-34647142D02*
X25378628Y-35028094D01*
X24854819Y-33599523D02*
X24854819Y-33789999D01*
X24854819Y-33789999D02*
X24902438Y-33885237D01*
X24902438Y-33885237D02*
X24950057Y-33932856D01*
X24950057Y-33932856D02*
X25092914Y-34028094D01*
X25092914Y-34028094D02*
X25283390Y-34075713D01*
X25283390Y-34075713D02*
X25664342Y-34075713D01*
X25664342Y-34075713D02*
X25759580Y-34028094D01*
X25759580Y-34028094D02*
X25807200Y-33980475D01*
X25807200Y-33980475D02*
X25854819Y-33885237D01*
X25854819Y-33885237D02*
X25854819Y-33694761D01*
X25854819Y-33694761D02*
X25807200Y-33599523D01*
X25807200Y-33599523D02*
X25759580Y-33551904D01*
X25759580Y-33551904D02*
X25664342Y-33504285D01*
X25664342Y-33504285D02*
X25426247Y-33504285D01*
X25426247Y-33504285D02*
X25331009Y-33551904D01*
X25331009Y-33551904D02*
X25283390Y-33599523D01*
X25283390Y-33599523D02*
X25235771Y-33694761D01*
X25235771Y-33694761D02*
X25235771Y-33885237D01*
X25235771Y-33885237D02*
X25283390Y-33980475D01*
X25283390Y-33980475D02*
X25331009Y-34028094D01*
X25331009Y-34028094D02*
X25426247Y-34075713D01*
X33474819Y-34456666D02*
X32998628Y-34789999D01*
X33474819Y-35028094D02*
X32474819Y-35028094D01*
X32474819Y-35028094D02*
X32474819Y-34647142D01*
X32474819Y-34647142D02*
X32522438Y-34551904D01*
X32522438Y-34551904D02*
X32570057Y-34504285D01*
X32570057Y-34504285D02*
X32665295Y-34456666D01*
X32665295Y-34456666D02*
X32808152Y-34456666D01*
X32808152Y-34456666D02*
X32903390Y-34504285D01*
X32903390Y-34504285D02*
X32951009Y-34551904D01*
X32951009Y-34551904D02*
X32998628Y-34647142D01*
X32998628Y-34647142D02*
X32998628Y-35028094D01*
X32474819Y-34123332D02*
X32474819Y-33504285D01*
X32474819Y-33504285D02*
X32855771Y-33837618D01*
X32855771Y-33837618D02*
X32855771Y-33694761D01*
X32855771Y-33694761D02*
X32903390Y-33599523D01*
X32903390Y-33599523D02*
X32951009Y-33551904D01*
X32951009Y-33551904D02*
X33046247Y-33504285D01*
X33046247Y-33504285D02*
X33284342Y-33504285D01*
X33284342Y-33504285D02*
X33379580Y-33551904D01*
X33379580Y-33551904D02*
X33427200Y-33599523D01*
X33427200Y-33599523D02*
X33474819Y-33694761D01*
X33474819Y-33694761D02*
X33474819Y-33980475D01*
X33474819Y-33980475D02*
X33427200Y-34075713D01*
X33427200Y-34075713D02*
X33379580Y-34123332D01*
X16343333Y-35379819D02*
X16010000Y-34903628D01*
X15771905Y-35379819D02*
X15771905Y-34379819D01*
X15771905Y-34379819D02*
X16152857Y-34379819D01*
X16152857Y-34379819D02*
X16248095Y-34427438D01*
X16248095Y-34427438D02*
X16295714Y-34475057D01*
X16295714Y-34475057D02*
X16343333Y-34570295D01*
X16343333Y-34570295D02*
X16343333Y-34713152D01*
X16343333Y-34713152D02*
X16295714Y-34808390D01*
X16295714Y-34808390D02*
X16248095Y-34856009D01*
X16248095Y-34856009D02*
X16152857Y-34903628D01*
X16152857Y-34903628D02*
X15771905Y-34903628D01*
X17248095Y-34379819D02*
X16771905Y-34379819D01*
X16771905Y-34379819D02*
X16724286Y-34856009D01*
X16724286Y-34856009D02*
X16771905Y-34808390D01*
X16771905Y-34808390D02*
X16867143Y-34760771D01*
X16867143Y-34760771D02*
X17105238Y-34760771D01*
X17105238Y-34760771D02*
X17200476Y-34808390D01*
X17200476Y-34808390D02*
X17248095Y-34856009D01*
X17248095Y-34856009D02*
X17295714Y-34951247D01*
X17295714Y-34951247D02*
X17295714Y-35189342D01*
X17295714Y-35189342D02*
X17248095Y-35284580D01*
X17248095Y-35284580D02*
X17200476Y-35332200D01*
X17200476Y-35332200D02*
X17105238Y-35379819D01*
X17105238Y-35379819D02*
X16867143Y-35379819D01*
X16867143Y-35379819D02*
X16771905Y-35332200D01*
X16771905Y-35332200D02*
X16724286Y-35284580D01*
X28394819Y-34456666D02*
X27918628Y-34789999D01*
X28394819Y-35028094D02*
X27394819Y-35028094D01*
X27394819Y-35028094D02*
X27394819Y-34647142D01*
X27394819Y-34647142D02*
X27442438Y-34551904D01*
X27442438Y-34551904D02*
X27490057Y-34504285D01*
X27490057Y-34504285D02*
X27585295Y-34456666D01*
X27585295Y-34456666D02*
X27728152Y-34456666D01*
X27728152Y-34456666D02*
X27823390Y-34504285D01*
X27823390Y-34504285D02*
X27871009Y-34551904D01*
X27871009Y-34551904D02*
X27918628Y-34647142D01*
X27918628Y-34647142D02*
X27918628Y-35028094D01*
X28394819Y-33504285D02*
X28394819Y-34075713D01*
X28394819Y-33789999D02*
X27394819Y-33789999D01*
X27394819Y-33789999D02*
X27537676Y-33885237D01*
X27537676Y-33885237D02*
X27632914Y-33980475D01*
X27632914Y-33980475D02*
X27680533Y-34075713D01*
X22121905Y-25219819D02*
X22121905Y-24219819D01*
X22121905Y-24219819D02*
X22360000Y-24219819D01*
X22360000Y-24219819D02*
X22502857Y-24267438D01*
X22502857Y-24267438D02*
X22598095Y-24362676D01*
X22598095Y-24362676D02*
X22645714Y-24457914D01*
X22645714Y-24457914D02*
X22693333Y-24648390D01*
X22693333Y-24648390D02*
X22693333Y-24791247D01*
X22693333Y-24791247D02*
X22645714Y-24981723D01*
X22645714Y-24981723D02*
X22598095Y-25076961D01*
X22598095Y-25076961D02*
X22502857Y-25172200D01*
X22502857Y-25172200D02*
X22360000Y-25219819D01*
X22360000Y-25219819D02*
X22121905Y-25219819D01*
X23169524Y-25219819D02*
X23360000Y-25219819D01*
X23360000Y-25219819D02*
X23455238Y-25172200D01*
X23455238Y-25172200D02*
X23502857Y-25124580D01*
X23502857Y-25124580D02*
X23598095Y-24981723D01*
X23598095Y-24981723D02*
X23645714Y-24791247D01*
X23645714Y-24791247D02*
X23645714Y-24410295D01*
X23645714Y-24410295D02*
X23598095Y-24315057D01*
X23598095Y-24315057D02*
X23550476Y-24267438D01*
X23550476Y-24267438D02*
X23455238Y-24219819D01*
X23455238Y-24219819D02*
X23264762Y-24219819D01*
X23264762Y-24219819D02*
X23169524Y-24267438D01*
X23169524Y-24267438D02*
X23121905Y-24315057D01*
X23121905Y-24315057D02*
X23074286Y-24410295D01*
X23074286Y-24410295D02*
X23074286Y-24648390D01*
X23074286Y-24648390D02*
X23121905Y-24743628D01*
X23121905Y-24743628D02*
X23169524Y-24791247D01*
X23169524Y-24791247D02*
X23264762Y-24838866D01*
X23264762Y-24838866D02*
X23455238Y-24838866D01*
X23455238Y-24838866D02*
X23550476Y-24791247D01*
X23550476Y-24791247D02*
X23598095Y-24743628D01*
X23598095Y-24743628D02*
X23645714Y-24648390D01*
X3865714Y-32204819D02*
X3865714Y-31204819D01*
X3865714Y-31204819D02*
X4246666Y-31204819D01*
X4246666Y-31204819D02*
X4341904Y-31252438D01*
X4341904Y-31252438D02*
X4389523Y-31300057D01*
X4389523Y-31300057D02*
X4437142Y-31395295D01*
X4437142Y-31395295D02*
X4437142Y-31538152D01*
X4437142Y-31538152D02*
X4389523Y-31633390D01*
X4389523Y-31633390D02*
X4341904Y-31681009D01*
X4341904Y-31681009D02*
X4246666Y-31728628D01*
X4246666Y-31728628D02*
X3865714Y-31728628D01*
X4818095Y-32157200D02*
X4960952Y-32204819D01*
X4960952Y-32204819D02*
X5199047Y-32204819D01*
X5199047Y-32204819D02*
X5294285Y-32157200D01*
X5294285Y-32157200D02*
X5341904Y-32109580D01*
X5341904Y-32109580D02*
X5389523Y-32014342D01*
X5389523Y-32014342D02*
X5389523Y-31919104D01*
X5389523Y-31919104D02*
X5341904Y-31823866D01*
X5341904Y-31823866D02*
X5294285Y-31776247D01*
X5294285Y-31776247D02*
X5199047Y-31728628D01*
X5199047Y-31728628D02*
X5008571Y-31681009D01*
X5008571Y-31681009D02*
X4913333Y-31633390D01*
X4913333Y-31633390D02*
X4865714Y-31585771D01*
X4865714Y-31585771D02*
X4818095Y-31490533D01*
X4818095Y-31490533D02*
X4818095Y-31395295D01*
X4818095Y-31395295D02*
X4865714Y-31300057D01*
X4865714Y-31300057D02*
X4913333Y-31252438D01*
X4913333Y-31252438D02*
X5008571Y-31204819D01*
X5008571Y-31204819D02*
X5246666Y-31204819D01*
X5246666Y-31204819D02*
X5389523Y-31252438D01*
X6341904Y-32204819D02*
X5770476Y-32204819D01*
X6056190Y-32204819D02*
X6056190Y-31204819D01*
X6056190Y-31204819D02*
X5960952Y-31347676D01*
X5960952Y-31347676D02*
X5865714Y-31442914D01*
X5865714Y-31442914D02*
X5770476Y-31490533D01*
X51379523Y-23454819D02*
X51046190Y-22978628D01*
X50808095Y-23454819D02*
X50808095Y-22454819D01*
X50808095Y-22454819D02*
X51189047Y-22454819D01*
X51189047Y-22454819D02*
X51284285Y-22502438D01*
X51284285Y-22502438D02*
X51331904Y-22550057D01*
X51331904Y-22550057D02*
X51379523Y-22645295D01*
X51379523Y-22645295D02*
X51379523Y-22788152D01*
X51379523Y-22788152D02*
X51331904Y-22883390D01*
X51331904Y-22883390D02*
X51284285Y-22931009D01*
X51284285Y-22931009D02*
X51189047Y-22978628D01*
X51189047Y-22978628D02*
X50808095Y-22978628D01*
X51808095Y-23454819D02*
X51808095Y-22454819D01*
X51808095Y-22454819D02*
X52379523Y-23454819D01*
X52379523Y-23454819D02*
X52379523Y-22454819D01*
X53379523Y-23454819D02*
X52808095Y-23454819D01*
X53093809Y-23454819D02*
X53093809Y-22454819D01*
X53093809Y-22454819D02*
X52998571Y-22597676D01*
X52998571Y-22597676D02*
X52903333Y-22692914D01*
X52903333Y-22692914D02*
X52808095Y-22740533D01*
X50109523Y-41094819D02*
X49776190Y-40618628D01*
X49538095Y-41094819D02*
X49538095Y-40094819D01*
X49538095Y-40094819D02*
X49919047Y-40094819D01*
X49919047Y-40094819D02*
X50014285Y-40142438D01*
X50014285Y-40142438D02*
X50061904Y-40190057D01*
X50061904Y-40190057D02*
X50109523Y-40285295D01*
X50109523Y-40285295D02*
X50109523Y-40428152D01*
X50109523Y-40428152D02*
X50061904Y-40523390D01*
X50061904Y-40523390D02*
X50014285Y-40571009D01*
X50014285Y-40571009D02*
X49919047Y-40618628D01*
X49919047Y-40618628D02*
X49538095Y-40618628D01*
X50538095Y-41094819D02*
X50538095Y-40094819D01*
X50538095Y-40094819D02*
X51109523Y-41094819D01*
X51109523Y-41094819D02*
X51109523Y-40094819D01*
X51490476Y-40094819D02*
X52109523Y-40094819D01*
X52109523Y-40094819D02*
X51776190Y-40475771D01*
X51776190Y-40475771D02*
X51919047Y-40475771D01*
X51919047Y-40475771D02*
X52014285Y-40523390D01*
X52014285Y-40523390D02*
X52061904Y-40571009D01*
X52061904Y-40571009D02*
X52109523Y-40666247D01*
X52109523Y-40666247D02*
X52109523Y-40904342D01*
X52109523Y-40904342D02*
X52061904Y-40999580D01*
X52061904Y-40999580D02*
X52014285Y-41047200D01*
X52014285Y-41047200D02*
X51919047Y-41094819D01*
X51919047Y-41094819D02*
X51633333Y-41094819D01*
X51633333Y-41094819D02*
X51538095Y-41047200D01*
X51538095Y-41047200D02*
X51490476Y-40999580D01*
X23454819Y-14731904D02*
X24264342Y-14731904D01*
X24264342Y-14731904D02*
X24359580Y-14684285D01*
X24359580Y-14684285D02*
X24407200Y-14636666D01*
X24407200Y-14636666D02*
X24454819Y-14541428D01*
X24454819Y-14541428D02*
X24454819Y-14350952D01*
X24454819Y-14350952D02*
X24407200Y-14255714D01*
X24407200Y-14255714D02*
X24359580Y-14208095D01*
X24359580Y-14208095D02*
X24264342Y-14160476D01*
X24264342Y-14160476D02*
X23454819Y-14160476D01*
X24454819Y-13160476D02*
X24454819Y-13731904D01*
X24454819Y-13446190D02*
X23454819Y-13446190D01*
X23454819Y-13446190D02*
X23597676Y-13541428D01*
X23597676Y-13541428D02*
X23692914Y-13636666D01*
X23692914Y-13636666D02*
X23740533Y-13731904D01*
X8909819Y-53673333D02*
X9624104Y-53673333D01*
X9624104Y-53673333D02*
X9766961Y-53720952D01*
X9766961Y-53720952D02*
X9862200Y-53816190D01*
X9862200Y-53816190D02*
X9909819Y-53959047D01*
X9909819Y-53959047D02*
X9909819Y-54054285D01*
X9909819Y-52673333D02*
X9909819Y-53244761D01*
X9909819Y-52959047D02*
X8909819Y-52959047D01*
X8909819Y-52959047D02*
X9052676Y-53054285D01*
X9052676Y-53054285D02*
X9147914Y-53149523D01*
X9147914Y-53149523D02*
X9195533Y-53244761D01*
X36014819Y-34456666D02*
X35538628Y-34789999D01*
X36014819Y-35028094D02*
X35014819Y-35028094D01*
X35014819Y-35028094D02*
X35014819Y-34647142D01*
X35014819Y-34647142D02*
X35062438Y-34551904D01*
X35062438Y-34551904D02*
X35110057Y-34504285D01*
X35110057Y-34504285D02*
X35205295Y-34456666D01*
X35205295Y-34456666D02*
X35348152Y-34456666D01*
X35348152Y-34456666D02*
X35443390Y-34504285D01*
X35443390Y-34504285D02*
X35491009Y-34551904D01*
X35491009Y-34551904D02*
X35538628Y-34647142D01*
X35538628Y-34647142D02*
X35538628Y-35028094D01*
X35348152Y-33599523D02*
X36014819Y-33599523D01*
X34967200Y-33837618D02*
X35681485Y-34075713D01*
X35681485Y-34075713D02*
X35681485Y-33456666D01*
X30934819Y-34456666D02*
X30458628Y-34789999D01*
X30934819Y-35028094D02*
X29934819Y-35028094D01*
X29934819Y-35028094D02*
X29934819Y-34647142D01*
X29934819Y-34647142D02*
X29982438Y-34551904D01*
X29982438Y-34551904D02*
X30030057Y-34504285D01*
X30030057Y-34504285D02*
X30125295Y-34456666D01*
X30125295Y-34456666D02*
X30268152Y-34456666D01*
X30268152Y-34456666D02*
X30363390Y-34504285D01*
X30363390Y-34504285D02*
X30411009Y-34551904D01*
X30411009Y-34551904D02*
X30458628Y-34647142D01*
X30458628Y-34647142D02*
X30458628Y-35028094D01*
X30030057Y-34075713D02*
X29982438Y-34028094D01*
X29982438Y-34028094D02*
X29934819Y-33932856D01*
X29934819Y-33932856D02*
X29934819Y-33694761D01*
X29934819Y-33694761D02*
X29982438Y-33599523D01*
X29982438Y-33599523D02*
X30030057Y-33551904D01*
X30030057Y-33551904D02*
X30125295Y-33504285D01*
X30125295Y-33504285D02*
X30220533Y-33504285D01*
X30220533Y-33504285D02*
X30363390Y-33551904D01*
X30363390Y-33551904D02*
X30934819Y-34123332D01*
X30934819Y-34123332D02*
X30934819Y-33504285D01*
X38679523Y-1864819D02*
X38346190Y-1388628D01*
X38108095Y-1864819D02*
X38108095Y-864819D01*
X38108095Y-864819D02*
X38489047Y-864819D01*
X38489047Y-864819D02*
X38584285Y-912438D01*
X38584285Y-912438D02*
X38631904Y-960057D01*
X38631904Y-960057D02*
X38679523Y-1055295D01*
X38679523Y-1055295D02*
X38679523Y-1198152D01*
X38679523Y-1198152D02*
X38631904Y-1293390D01*
X38631904Y-1293390D02*
X38584285Y-1341009D01*
X38584285Y-1341009D02*
X38489047Y-1388628D01*
X38489047Y-1388628D02*
X38108095Y-1388628D01*
X39108095Y-1864819D02*
X39108095Y-864819D01*
X39108095Y-864819D02*
X39679523Y-1864819D01*
X39679523Y-1864819D02*
X39679523Y-864819D01*
X40108095Y-960057D02*
X40155714Y-912438D01*
X40155714Y-912438D02*
X40250952Y-864819D01*
X40250952Y-864819D02*
X40489047Y-864819D01*
X40489047Y-864819D02*
X40584285Y-912438D01*
X40584285Y-912438D02*
X40631904Y-960057D01*
X40631904Y-960057D02*
X40679523Y-1055295D01*
X40679523Y-1055295D02*
X40679523Y-1150533D01*
X40679523Y-1150533D02*
X40631904Y-1293390D01*
X40631904Y-1293390D02*
X40060476Y-1864819D01*
X40060476Y-1864819D02*
X40679523Y-1864819D01*
X5913333Y-34709580D02*
X5865714Y-34757200D01*
X5865714Y-34757200D02*
X5722857Y-34804819D01*
X5722857Y-34804819D02*
X5627619Y-34804819D01*
X5627619Y-34804819D02*
X5484762Y-34757200D01*
X5484762Y-34757200D02*
X5389524Y-34661961D01*
X5389524Y-34661961D02*
X5341905Y-34566723D01*
X5341905Y-34566723D02*
X5294286Y-34376247D01*
X5294286Y-34376247D02*
X5294286Y-34233390D01*
X5294286Y-34233390D02*
X5341905Y-34042914D01*
X5341905Y-34042914D02*
X5389524Y-33947676D01*
X5389524Y-33947676D02*
X5484762Y-33852438D01*
X5484762Y-33852438D02*
X5627619Y-33804819D01*
X5627619Y-33804819D02*
X5722857Y-33804819D01*
X5722857Y-33804819D02*
X5865714Y-33852438D01*
X5865714Y-33852438D02*
X5913333Y-33900057D01*
X6865714Y-34804819D02*
X6294286Y-34804819D01*
X6580000Y-34804819D02*
X6580000Y-33804819D01*
X6580000Y-33804819D02*
X6484762Y-33947676D01*
X6484762Y-33947676D02*
X6389524Y-34042914D01*
X6389524Y-34042914D02*
X6294286Y-34090533D01*
D12*
%TO.C,D7*%
X58420000Y-31693629D02*
X58420000Y-31580000D01*
X59620000Y-33020000D02*
G75*
G02*
X57220000Y-33020000I-1200000J0D01*
G01*
X57220000Y-33020000D02*
G75*
G02*
X59620000Y-33020000I1200000J0D01*
G01*
%TO.C,D2*%
X45720000Y-31693629D02*
X45720000Y-31580000D01*
X46920000Y-33020000D02*
G75*
G02*
X44520000Y-33020000I-1200000J0D01*
G01*
X44520000Y-33020000D02*
G75*
G02*
X46920000Y-33020000I1200000J0D01*
G01*
%TO.C,D4*%
X50800000Y-31693629D02*
X50800000Y-31580000D01*
X52000000Y-33020000D02*
G75*
G02*
X49600000Y-33020000I-1200000J0D01*
G01*
X49600000Y-33020000D02*
G75*
G02*
X52000000Y-33020000I1200000J0D01*
G01*
%TO.C,D1*%
X43180000Y-31693629D02*
X43180000Y-31580000D01*
X44380000Y-33020000D02*
G75*
G02*
X41980000Y-33020000I-1200000J0D01*
G01*
X41980000Y-33020000D02*
G75*
G02*
X44380000Y-33020000I1200000J0D01*
G01*
%TO.C,D3*%
X48260000Y-31693629D02*
X48260000Y-31580000D01*
X49460000Y-33020000D02*
G75*
G02*
X47060000Y-33020000I-1200000J0D01*
G01*
X47060000Y-33020000D02*
G75*
G02*
X49460000Y-33020000I1200000J0D01*
G01*
%TO.C,D6*%
X55880000Y-31693629D02*
X55880000Y-31580000D01*
X57080000Y-33020000D02*
G75*
G02*
X54680000Y-33020000I-1200000J0D01*
G01*
X54680000Y-33020000D02*
G75*
G02*
X57080000Y-33020000I1200000J0D01*
G01*
%TO.C,D5*%
X53340000Y-31693629D02*
X53340000Y-31580000D01*
X54540000Y-33020000D02*
G75*
G02*
X52140000Y-33020000I-1200000J0D01*
G01*
X52140000Y-33020000D02*
G75*
G02*
X54540000Y-33020000I1200000J0D01*
G01*
%TO.C,D8*%
X60960000Y-31693629D02*
X60960000Y-31580000D01*
X62160000Y-33020000D02*
G75*
G02*
X59760000Y-33020000I-1200000J0D01*
G01*
X59760000Y-33020000D02*
G75*
G02*
X62160000Y-33020000I1200000J0D01*
G01*
%TO.C,C2*%
X7690000Y-24384000D02*
X12630000Y-24384000D01*
X7690000Y-26416000D02*
X12630000Y-26416000D01*
%TO.C,R6*%
X24231600Y-37560000D02*
X24561600Y-37560000D01*
X26568400Y-37560000D02*
X26238400Y-37560000D01*
X24231600Y-31020000D02*
X24231600Y-37560000D01*
X24561600Y-31020000D02*
X24231600Y-31020000D01*
X26238400Y-31020000D02*
X26568400Y-31020000D01*
X26568400Y-31020000D02*
X26568400Y-37560000D01*
%TO.C,R3*%
X31851600Y-31020000D02*
X31851600Y-37560000D01*
X31851600Y-37560000D02*
X32181600Y-37560000D01*
X32181600Y-31020000D02*
X31851600Y-31020000D01*
X33858400Y-31020000D02*
X34188400Y-31020000D01*
X34188400Y-31020000D02*
X34188400Y-37560000D01*
X34188400Y-37560000D02*
X33858400Y-37560000D01*
%TO.C,R5*%
X13240000Y-33756600D02*
X13240000Y-34086600D01*
X13240000Y-36093400D02*
X13240000Y-35763400D01*
X19780000Y-33756600D02*
X13240000Y-33756600D01*
X19780000Y-34086600D02*
X19780000Y-33756600D01*
X19780000Y-35763400D02*
X19780000Y-36093400D01*
X19780000Y-36093400D02*
X13240000Y-36093400D01*
%TO.C,R1*%
X26771600Y-31020000D02*
X26771600Y-37560000D01*
X26771600Y-37560000D02*
X27101600Y-37560000D01*
X27101600Y-31020000D02*
X26771600Y-31020000D01*
X28778400Y-31020000D02*
X29108400Y-31020000D01*
X29108400Y-31020000D02*
X29108400Y-37560000D01*
X29108400Y-37560000D02*
X28778400Y-37560000D01*
%TO.C,D9*%
X24164000Y-28230000D02*
X24320000Y-28230000D01*
X26480000Y-28230000D02*
X26636000Y-28230000D01*
X24164484Y-28230000D02*
G75*
G02*
X24321392Y-24997665I1235516J1560000D01*
G01*
X24320000Y-27710961D02*
G75*
G02*
X24320163Y-25628870I1080000J1040961D01*
G01*
X26478608Y-24997665D02*
G75*
G02*
X26635516Y-28230000I-1078608J-1672335D01*
G01*
X26479837Y-25628870D02*
G75*
G02*
X26480000Y-27710961I-1079837J-1041130D01*
G01*
D13*
%TO.C,PS1*%
X2540000Y-26670000D02*
X22225000Y-26670000D01*
X2540000Y-33020000D02*
X2540000Y-26670000D01*
X3810000Y-26670000D02*
X3810000Y-29210000D01*
X6350000Y-26670000D02*
X6350000Y-29210000D01*
X6350000Y-29210000D02*
X3810000Y-29210000D01*
X22225000Y-26670000D02*
X22225000Y-33020000D01*
X22225000Y-33020000D02*
X2540000Y-33020000D01*
D12*
%TO.C,RN1*%
X39200000Y-24000000D02*
X39200000Y-26800000D01*
X39200000Y-26800000D02*
X62400000Y-26800000D01*
X41910000Y-24000000D02*
X41910000Y-26800000D01*
X62400000Y-24000000D02*
X39200000Y-24000000D01*
X62400000Y-26800000D02*
X62400000Y-24000000D01*
%TO.C,RN3*%
X39200000Y-36700000D02*
X39200000Y-39500000D01*
X39200000Y-39500000D02*
X62400000Y-39500000D01*
X41910000Y-36700000D02*
X41910000Y-39500000D01*
X62400000Y-36700000D02*
X39200000Y-36700000D01*
X62400000Y-39500000D02*
X62400000Y-36700000D01*
%TO.C,U1*%
X24900000Y-6270000D02*
X24900000Y-21670000D01*
X24900000Y-19430000D02*
X27160000Y-19430000D01*
X24900000Y-21670000D02*
X26760000Y-21670000D01*
X31660000Y-21670000D02*
X62900000Y-21670000D01*
X36830000Y-22730000D02*
X34290000Y-22730000D01*
X62900000Y-6270000D02*
X24900000Y-6270000D01*
X62900000Y-21670000D02*
X62900000Y-6270000D01*
X31760000Y-20980000D02*
G75*
G02*
X26660000Y-20980000I-2550000J0D01*
G01*
X26660000Y-20980000D02*
G75*
G02*
X31760000Y-20980000I2550000J0D01*
G01*
X30110000Y-20980000D02*
G75*
G02*
X28310000Y-20980000I-900000J0D01*
G01*
X28310000Y-20980000D02*
G75*
G02*
X30110000Y-20980000I900000J0D01*
G01*
%TO.C,J1*%
X10395000Y-44390000D02*
X10395000Y-62290000D01*
X10395000Y-62290000D02*
X61435000Y-62290000D01*
X10455000Y-46880000D02*
X10455000Y-52340000D01*
X10455000Y-54340000D02*
X10455000Y-59800000D01*
X10455000Y-59800000D02*
X61375000Y-59800000D01*
X61375000Y-46880000D02*
X10455000Y-46880000D01*
X61375000Y-59800000D02*
X61375000Y-46880000D01*
X61435000Y-44390000D02*
X10395000Y-44390000D01*
X61435000Y-62290000D02*
X61435000Y-44390000D01*
X10455000Y-52340000D02*
G75*
G02*
X10455000Y-54340000I0J-1000000D01*
G01*
%TO.C,R4*%
X34391600Y-31020000D02*
X34391600Y-37560000D01*
X34391600Y-37560000D02*
X34721600Y-37560000D01*
X34721600Y-31020000D02*
X34391600Y-31020000D01*
X36398400Y-31020000D02*
X36728400Y-31020000D01*
X36728400Y-31020000D02*
X36728400Y-37560000D01*
X36728400Y-37560000D02*
X36398400Y-37560000D01*
%TO.C,R2*%
X29311600Y-31020000D02*
X29311600Y-37560000D01*
X29311600Y-37560000D02*
X29641600Y-37560000D01*
X29641600Y-31020000D02*
X29311600Y-31020000D01*
X31318400Y-31020000D02*
X31648400Y-31020000D01*
X31648400Y-31020000D02*
X31648400Y-37560000D01*
X31648400Y-37560000D02*
X31318400Y-37560000D01*
%TO.C,RN2*%
X31580000Y-2410000D02*
X31580000Y-5210000D01*
X31580000Y-5210000D02*
X44620000Y-5210000D01*
X34290000Y-2410000D02*
X34290000Y-5210000D01*
X44620000Y-2410000D02*
X31580000Y-2410000D01*
X44620000Y-5210000D02*
X44620000Y-2410000D01*
%TO.C,C1*%
X3275225Y-36625000D02*
X3775225Y-36625000D01*
X3525225Y-36375000D02*
X3525225Y-36875000D01*
X6080000Y-35520000D02*
X6080000Y-37060000D01*
X6080000Y-39140000D02*
X6080000Y-40680000D01*
X6120000Y-35520000D02*
X6120000Y-37060000D01*
X6120000Y-39140000D02*
X6120000Y-40680000D01*
X6160000Y-35521000D02*
X6160000Y-37060000D01*
X6160000Y-39140000D02*
X6160000Y-40679000D01*
X6200000Y-35522000D02*
X6200000Y-37060000D01*
X6200000Y-39140000D02*
X6200000Y-40678000D01*
X6240000Y-35524000D02*
X6240000Y-37060000D01*
X6240000Y-39140000D02*
X6240000Y-40676000D01*
X6280000Y-35527000D02*
X6280000Y-37060000D01*
X6280000Y-39140000D02*
X6280000Y-40673000D01*
X6320000Y-35531000D02*
X6320000Y-37060000D01*
X6320000Y-39140000D02*
X6320000Y-40669000D01*
X6360000Y-35535000D02*
X6360000Y-37060000D01*
X6360000Y-39140000D02*
X6360000Y-40665000D01*
X6400000Y-35539000D02*
X6400000Y-37060000D01*
X6400000Y-39140000D02*
X6400000Y-40661000D01*
X6440000Y-35544000D02*
X6440000Y-37060000D01*
X6440000Y-39140000D02*
X6440000Y-40656000D01*
X6480000Y-35550000D02*
X6480000Y-37060000D01*
X6480000Y-39140000D02*
X6480000Y-40650000D01*
X6520000Y-35557000D02*
X6520000Y-37060000D01*
X6520000Y-39140000D02*
X6520000Y-40643000D01*
X6560000Y-35564000D02*
X6560000Y-37060000D01*
X6560000Y-39140000D02*
X6560000Y-40636000D01*
X6600000Y-35572000D02*
X6600000Y-37060000D01*
X6600000Y-39140000D02*
X6600000Y-40628000D01*
X6640000Y-35580000D02*
X6640000Y-37060000D01*
X6640000Y-39140000D02*
X6640000Y-40620000D01*
X6680000Y-35589000D02*
X6680000Y-37060000D01*
X6680000Y-39140000D02*
X6680000Y-40611000D01*
X6720000Y-35599000D02*
X6720000Y-37060000D01*
X6720000Y-39140000D02*
X6720000Y-40601000D01*
X6760000Y-35609000D02*
X6760000Y-37060000D01*
X6760000Y-39140000D02*
X6760000Y-40591000D01*
X6801000Y-35620000D02*
X6801000Y-37060000D01*
X6801000Y-39140000D02*
X6801000Y-40580000D01*
X6841000Y-35632000D02*
X6841000Y-37060000D01*
X6841000Y-39140000D02*
X6841000Y-40568000D01*
X6881000Y-35645000D02*
X6881000Y-37060000D01*
X6881000Y-39140000D02*
X6881000Y-40555000D01*
X6921000Y-35658000D02*
X6921000Y-37060000D01*
X6921000Y-39140000D02*
X6921000Y-40542000D01*
X6961000Y-35672000D02*
X6961000Y-37060000D01*
X6961000Y-39140000D02*
X6961000Y-40528000D01*
X7001000Y-35686000D02*
X7001000Y-37060000D01*
X7001000Y-39140000D02*
X7001000Y-40514000D01*
X7041000Y-35702000D02*
X7041000Y-37060000D01*
X7041000Y-39140000D02*
X7041000Y-40498000D01*
X7081000Y-35718000D02*
X7081000Y-37060000D01*
X7081000Y-39140000D02*
X7081000Y-40482000D01*
X7121000Y-35735000D02*
X7121000Y-37060000D01*
X7121000Y-39140000D02*
X7121000Y-40465000D01*
X7161000Y-35752000D02*
X7161000Y-37060000D01*
X7161000Y-39140000D02*
X7161000Y-40448000D01*
X7201000Y-35771000D02*
X7201000Y-37060000D01*
X7201000Y-39140000D02*
X7201000Y-40429000D01*
X7241000Y-35790000D02*
X7241000Y-37060000D01*
X7241000Y-39140000D02*
X7241000Y-40410000D01*
X7281000Y-35810000D02*
X7281000Y-37060000D01*
X7281000Y-39140000D02*
X7281000Y-40390000D01*
X7321000Y-35832000D02*
X7321000Y-37060000D01*
X7321000Y-39140000D02*
X7321000Y-40368000D01*
X7361000Y-35853000D02*
X7361000Y-37060000D01*
X7361000Y-39140000D02*
X7361000Y-40347000D01*
X7401000Y-35876000D02*
X7401000Y-37060000D01*
X7401000Y-39140000D02*
X7401000Y-40324000D01*
X7441000Y-35900000D02*
X7441000Y-37060000D01*
X7441000Y-39140000D02*
X7441000Y-40300000D01*
X7481000Y-35925000D02*
X7481000Y-37060000D01*
X7481000Y-39140000D02*
X7481000Y-40275000D01*
X7521000Y-35951000D02*
X7521000Y-37060000D01*
X7521000Y-39140000D02*
X7521000Y-40249000D01*
X7561000Y-35978000D02*
X7561000Y-37060000D01*
X7561000Y-39140000D02*
X7561000Y-40222000D01*
X7601000Y-36005000D02*
X7601000Y-37060000D01*
X7601000Y-39140000D02*
X7601000Y-40195000D01*
X7641000Y-36035000D02*
X7641000Y-37060000D01*
X7641000Y-39140000D02*
X7641000Y-40165000D01*
X7681000Y-36065000D02*
X7681000Y-37060000D01*
X7681000Y-39140000D02*
X7681000Y-40135000D01*
X7721000Y-36096000D02*
X7721000Y-37060000D01*
X7721000Y-39140000D02*
X7721000Y-40104000D01*
X7761000Y-36129000D02*
X7761000Y-37060000D01*
X7761000Y-39140000D02*
X7761000Y-40071000D01*
X7801000Y-36163000D02*
X7801000Y-37060000D01*
X7801000Y-39140000D02*
X7801000Y-40037000D01*
X7841000Y-36199000D02*
X7841000Y-37060000D01*
X7841000Y-39140000D02*
X7841000Y-40001000D01*
X7881000Y-36236000D02*
X7881000Y-37060000D01*
X7881000Y-39140000D02*
X7881000Y-39964000D01*
X7921000Y-36274000D02*
X7921000Y-37060000D01*
X7921000Y-39140000D02*
X7921000Y-39926000D01*
X7961000Y-36315000D02*
X7961000Y-37060000D01*
X7961000Y-39140000D02*
X7961000Y-39885000D01*
X8001000Y-36357000D02*
X8001000Y-37060000D01*
X8001000Y-39140000D02*
X8001000Y-39843000D01*
X8041000Y-36401000D02*
X8041000Y-37060000D01*
X8041000Y-39140000D02*
X8041000Y-39799000D01*
X8081000Y-36447000D02*
X8081000Y-37060000D01*
X8081000Y-39140000D02*
X8081000Y-39753000D01*
X8121000Y-36495000D02*
X8121000Y-39705000D01*
X8161000Y-36546000D02*
X8161000Y-39654000D01*
X8201000Y-36600000D02*
X8201000Y-39600000D01*
X8241000Y-36657000D02*
X8241000Y-39543000D01*
X8281000Y-36717000D02*
X8281000Y-39483000D01*
X8321000Y-36781000D02*
X8321000Y-39419000D01*
X8361000Y-36849000D02*
X8361000Y-39351000D01*
X8401000Y-36922000D02*
X8401000Y-39278000D01*
X8441000Y-37002000D02*
X8441000Y-39198000D01*
X8481000Y-37089000D02*
X8481000Y-39111000D01*
X8521000Y-37185000D02*
X8521000Y-39015000D01*
X8561000Y-37295000D02*
X8561000Y-38905000D01*
X8601000Y-37423000D02*
X8601000Y-38777000D01*
X8641000Y-37582000D02*
X8641000Y-38618000D01*
X8681000Y-37816000D02*
X8681000Y-38384000D01*
X8700000Y-38100000D02*
G75*
G02*
X3460000Y-38100000I-2620000J0D01*
G01*
X3460000Y-38100000D02*
G75*
G02*
X8700000Y-38100000I2620000J0D01*
G01*
%TD*%
M02*
