M48
; DRILL file {KiCad 8.0.4} date 2024-08-20T14:56:40+0900
; FORMAT={-:-/ absolute / inch / decimal}
; #@! TF.CreationDate,2024-08-20T14:56:40+09:00
; #@! TF.GenerationSoftware,Kicad,Pcbnew,8.0.4
; #@! TF.FileFunction,Plated,1,2,PTH
FMAT,2
INCH
; #@! TA.AperFunction,Plated,PTH,ViaDrill
T1C0.0157
; #@! TA.AperFunction,Plated,PTH,ComponentDrill
T2C0.0315
; #@! TA.AperFunction,Plated,PTH,ComponentDrill
T3C0.0335
; #@! TA.AperFunction,Plated,PTH,ComponentDrill
T4C0.0354
; #@! TA.AperFunction,Plated,PTH,ComponentDrill
T5C0.0394
%
G90
G05
T1
X0.95Y-0.7
T2
X0.2Y-1.5
X0.2787Y-1.5
X0.3Y-1.0
X0.464Y-1.8
X0.464Y-2.4
X0.4969Y-1.0
X0.5Y-1.375
X0.564Y-1.8
X0.564Y-2.4
X0.664Y-1.8
X0.664Y-2.4
X0.764Y-1.8
X0.764Y-2.4
X0.8Y-1.375
X0.864Y-1.8
X0.864Y-2.4
X0.964Y-1.8
X0.964Y-2.4
X1.0Y-1.2
X1.0Y-1.5
X1.064Y-1.8
X1.064Y-2.4
X1.1Y-1.2
X1.1Y-1.5
X1.164Y-1.8
X1.164Y-2.4
X1.2Y-1.2
X1.2Y-1.5
X1.264Y-1.8
X1.264Y-2.4
X1.3Y-0.15
X1.3Y-1.2
X1.3Y-1.5
X1.364Y-1.8
X1.364Y-2.4
X1.4Y-0.15
X1.4Y-1.2
X1.4Y-1.5
X1.464Y-1.8
X1.464Y-2.4
X1.5Y-0.15
X1.564Y-1.8
X1.564Y-2.4
X1.6Y-0.15
X1.6Y-1.0
X1.6Y-1.5
X1.664Y-1.8
X1.664Y-2.4
X1.7Y-0.15
X1.7Y-1.0
X1.7Y-1.2
X1.7Y-1.3
X1.7Y-1.5
X1.764Y-1.8
X1.764Y-2.4
X1.8Y-1.0
X1.8Y-1.2
X1.8Y-1.3
X1.8Y-1.5
X1.864Y-1.8
X1.864Y-2.4
X1.9Y-1.0
X1.9Y-1.2
X1.9Y-1.3
X1.9Y-1.5
X1.964Y-1.8
X1.964Y-2.4
X2.0Y-1.0
X2.0Y-1.2
X2.0Y-1.3
X2.0Y-1.5
X2.064Y-1.8
X2.064Y-2.4
X2.1Y-1.0
X2.1Y-1.2
X2.1Y-1.3
X2.1Y-1.5
X2.164Y-1.8
X2.164Y-2.4
X2.2Y-1.0
X2.2Y-1.2
X2.2Y-1.3
X2.2Y-1.5
X2.264Y-1.8
X2.264Y-2.4
X2.3Y-1.0
X2.3Y-1.2
X2.3Y-1.3
X2.3Y-1.5
X2.364Y-1.8
X2.364Y-2.4
X2.4Y-1.0
X2.4Y-1.2
X2.4Y-1.3
X2.4Y-1.5
T3
X0.2Y-1.1
X0.3Y-1.1
X0.5Y-1.1
X0.7Y-1.1
T4
X1.0Y-1.0
X1.0Y-1.1
T5
X1.4Y-0.4
X1.4Y-0.7
X1.5Y-0.4
X1.5Y-0.7
X1.6Y-0.4
X1.6Y-0.7
X1.7Y-0.4
X1.7Y-0.7
X1.8Y-0.4
X1.8Y-0.7
X1.9Y-0.4
X1.9Y-0.7
X2.0Y-0.4
X2.0Y-0.7
X2.1Y-0.4
X2.1Y-0.7
X2.2Y-0.4
X2.2Y-0.7
M30
