M48
; DRILL file {KiCad 7.0.2} date Tue Jul  4 13:12:27 2023
; FORMAT={-:-/ absolute / inch / decimal}
; #@! TF.CreationDate,2023-07-04T13:12:27+09:00
; #@! TF.GenerationSoftware,Kicad,Pcbnew,7.0.2
; #@! TF.FileFunction,Plated,1,4,PTH
FMAT,2
INCH
; #@! TA.AperFunction,Plated,PTH,ViaDrill
T1C0.0157
; #@! TA.AperFunction,Plated,PTH,ComponentDrill
T2C0.0394
%
G90
G05
T1
X0.06Y-0.37
X0.06Y-0.73
X0.1Y-0.55
X0.12Y-0.37
X0.22Y-0.55
X0.275Y-0.525
X0.275Y-0.6
X0.312Y-0.3878
X0.325Y-0.525
X0.375Y-0.525
X0.425Y-0.525
X0.4644Y-0.525
X0.5037Y-0.525
X0.55Y-0.525
X0.6Y-0.55
X0.6Y-0.69
X0.65Y-0.4534
X0.6785Y-0.5
X0.6944Y-0.3905
X0.725Y-0.525
X0.775Y-0.5
X0.775Y-0.6
X0.7779Y-0.5529
X0.825Y-0.6
X0.875Y-0.6
X0.98Y-0.55
X0.98Y-0.69
X1.025Y-0.6
X1.0744Y-0.37
X1.075Y-0.6
X1.125Y-0.6
X1.1535Y-0.5
X1.182Y-0.6
X1.2106Y-0.5
X1.25Y-0.55
X1.3Y-0.55
X1.36Y-0.55
X1.36Y-0.69
X1.4023Y-0.6
X1.45Y-0.6
X1.4544Y-0.37
X1.5016Y-0.5986
X1.5285Y-0.5
X1.5587Y-0.5971
X1.5872Y-0.5
X1.625Y-0.55
X1.675Y-0.55
X1.74Y-0.55
X1.74Y-0.69
X1.8Y-0.6
X1.8344Y-0.37
X1.85Y-0.6
X1.9Y-0.575
X1.9285Y-0.5
X1.9528Y-0.6017
X1.9856Y-0.525
X2.025Y-0.575
X2.075Y-0.575
X2.12Y-0.55
X2.12Y-0.69
X2.1623Y-0.5
X2.2Y-0.55
X2.212Y-0.3878
X2.25Y-0.55
X2.3Y-0.55
X2.337Y-0.51
X2.387Y-0.36
X2.42Y-0.71
T2
X0.1Y-0.1
X0.1Y-0.25
X0.1Y-0.85
X0.1Y-1.0
X0.2Y-0.1
X0.2Y-0.25
X0.2Y-0.85
X0.2Y-1.0
X0.3Y-0.1
X0.3Y-0.25
X0.3Y-0.85
X0.3Y-1.0
X0.4Y-0.1
X0.4Y-0.25
X0.4Y-0.85
X0.4Y-1.0
X0.5Y-0.1
X0.5Y-0.25
X0.5Y-0.85
X0.5Y-1.0
X0.6Y-0.1
X0.6Y-0.25
X0.6Y-0.85
X0.6Y-1.0
X0.7Y-0.1
X0.7Y-0.25
X0.7Y-0.85
X0.7Y-1.0
X0.8Y-0.1
X0.8Y-0.25
X0.8Y-0.85
X0.8Y-1.0
X0.9Y-0.1
X0.9Y-0.25
X0.9Y-0.85
X0.9Y-1.0
X1.0Y-0.1
X1.0Y-0.25
X1.0Y-0.85
X1.0Y-1.0
X1.1Y-0.1
X1.1Y-0.25
X1.1Y-0.85
X1.1Y-1.0
X1.2Y-0.1
X1.2Y-0.25
X1.2Y-0.85
X1.2Y-1.0
X1.3Y-0.1
X1.3Y-0.25
X1.3Y-0.85
X1.3Y-1.0
X1.4Y-0.1
X1.4Y-0.25
X1.4Y-0.85
X1.4Y-1.0
X1.5Y-0.1
X1.5Y-0.25
X1.5Y-0.85
X1.5Y-1.0
X1.6Y-0.1
X1.6Y-0.25
X1.6Y-0.85
X1.6Y-1.0
X1.7Y-0.1
X1.7Y-0.25
X1.7Y-0.85
X1.7Y-1.0
X1.8Y-0.1
X1.8Y-0.25
X1.8Y-0.85
X1.8Y-1.0
X1.9Y-0.1
X1.9Y-0.25
X1.9Y-0.85
X1.9Y-1.0
X2.0Y-0.1
X2.0Y-0.25
X2.0Y-0.85
X2.0Y-1.0
X2.1Y-0.1
X2.1Y-0.25
X2.1Y-0.85
X2.1Y-1.0
X2.2Y-0.1
X2.2Y-0.25
X2.2Y-0.85
X2.2Y-1.0
X2.3Y-0.1
X2.3Y-0.25
X2.3Y-0.85
X2.3Y-1.0
X2.4Y-0.1
X2.4Y-0.25
X2.4Y-0.85
X2.4Y-1.0
T0
M30
