%TF.GenerationSoftware,KiCad,Pcbnew,7.0.2*%
%TF.CreationDate,2023-07-04T13:12:25+09:00*%
%TF.ProjectId,TangNano9K5V,54616e67-4e61-46e6-9f39-4b35562e6b69,rev?*%
%TF.SameCoordinates,Original*%
%TF.FileFunction,Copper,L4,Bot*%
%TF.FilePolarity,Positive*%
%FSLAX46Y46*%
G04 Gerber Fmt 4.6, Leading zero omitted, Abs format (unit mm)*
G04 Created by KiCad (PCBNEW 7.0.2) date 2023-07-04 13:12:25*
%MOMM*%
%LPD*%
G01*
G04 APERTURE LIST*
%ADD10C,0.100000*%
%TA.AperFunction,NonConductor*%
%ADD11C,0.100000*%
%TD*%
%TA.AperFunction,ComponentPad*%
%ADD12R,1.700000X1.700000*%
%TD*%
%TA.AperFunction,ComponentPad*%
%ADD13O,1.700000X1.700000*%
%TD*%
%TA.AperFunction,ViaPad*%
%ADD14C,0.800000*%
%TD*%
%TA.AperFunction,Conductor*%
%ADD15C,0.250000*%
%TD*%
G04 APERTURE END LIST*
D10*
D11*
X41290904Y-23880619D02*
X41290904Y-22880619D01*
X41290904Y-22880619D02*
X41052809Y-22880619D01*
X41052809Y-22880619D02*
X40909952Y-22928238D01*
X40909952Y-22928238D02*
X40814714Y-23023476D01*
X40814714Y-23023476D02*
X40767095Y-23118714D01*
X40767095Y-23118714D02*
X40719476Y-23309190D01*
X40719476Y-23309190D02*
X40719476Y-23452047D01*
X40719476Y-23452047D02*
X40767095Y-23642523D01*
X40767095Y-23642523D02*
X40814714Y-23737761D01*
X40814714Y-23737761D02*
X40909952Y-23833000D01*
X40909952Y-23833000D02*
X41052809Y-23880619D01*
X41052809Y-23880619D02*
X41290904Y-23880619D01*
X39909952Y-23833000D02*
X40005190Y-23880619D01*
X40005190Y-23880619D02*
X40195666Y-23880619D01*
X40195666Y-23880619D02*
X40290904Y-23833000D01*
X40290904Y-23833000D02*
X40338523Y-23737761D01*
X40338523Y-23737761D02*
X40338523Y-23356809D01*
X40338523Y-23356809D02*
X40290904Y-23261571D01*
X40290904Y-23261571D02*
X40195666Y-23213952D01*
X40195666Y-23213952D02*
X40005190Y-23213952D01*
X40005190Y-23213952D02*
X39909952Y-23261571D01*
X39909952Y-23261571D02*
X39862333Y-23356809D01*
X39862333Y-23356809D02*
X39862333Y-23452047D01*
X39862333Y-23452047D02*
X40338523Y-23547285D01*
X39481380Y-23833000D02*
X39386142Y-23880619D01*
X39386142Y-23880619D02*
X39195666Y-23880619D01*
X39195666Y-23880619D02*
X39100428Y-23833000D01*
X39100428Y-23833000D02*
X39052809Y-23737761D01*
X39052809Y-23737761D02*
X39052809Y-23690142D01*
X39052809Y-23690142D02*
X39100428Y-23594904D01*
X39100428Y-23594904D02*
X39195666Y-23547285D01*
X39195666Y-23547285D02*
X39338523Y-23547285D01*
X39338523Y-23547285D02*
X39433761Y-23499666D01*
X39433761Y-23499666D02*
X39481380Y-23404428D01*
X39481380Y-23404428D02*
X39481380Y-23356809D01*
X39481380Y-23356809D02*
X39433761Y-23261571D01*
X39433761Y-23261571D02*
X39338523Y-23213952D01*
X39338523Y-23213952D02*
X39195666Y-23213952D01*
X39195666Y-23213952D02*
X39100428Y-23261571D01*
X38624237Y-23880619D02*
X38624237Y-23213952D01*
X38624237Y-22880619D02*
X38671856Y-22928238D01*
X38671856Y-22928238D02*
X38624237Y-22975857D01*
X38624237Y-22975857D02*
X38576618Y-22928238D01*
X38576618Y-22928238D02*
X38624237Y-22880619D01*
X38624237Y-22880619D02*
X38624237Y-22975857D01*
X37719476Y-23213952D02*
X37719476Y-24023476D01*
X37719476Y-24023476D02*
X37767095Y-24118714D01*
X37767095Y-24118714D02*
X37814714Y-24166333D01*
X37814714Y-24166333D02*
X37909952Y-24213952D01*
X37909952Y-24213952D02*
X38052809Y-24213952D01*
X38052809Y-24213952D02*
X38148047Y-24166333D01*
X37719476Y-23833000D02*
X37814714Y-23880619D01*
X37814714Y-23880619D02*
X38005190Y-23880619D01*
X38005190Y-23880619D02*
X38100428Y-23833000D01*
X38100428Y-23833000D02*
X38148047Y-23785380D01*
X38148047Y-23785380D02*
X38195666Y-23690142D01*
X38195666Y-23690142D02*
X38195666Y-23404428D01*
X38195666Y-23404428D02*
X38148047Y-23309190D01*
X38148047Y-23309190D02*
X38100428Y-23261571D01*
X38100428Y-23261571D02*
X38005190Y-23213952D01*
X38005190Y-23213952D02*
X37814714Y-23213952D01*
X37814714Y-23213952D02*
X37719476Y-23261571D01*
X37243285Y-23213952D02*
X37243285Y-23880619D01*
X37243285Y-23309190D02*
X37195666Y-23261571D01*
X37195666Y-23261571D02*
X37100428Y-23213952D01*
X37100428Y-23213952D02*
X36957571Y-23213952D01*
X36957571Y-23213952D02*
X36862333Y-23261571D01*
X36862333Y-23261571D02*
X36814714Y-23356809D01*
X36814714Y-23356809D02*
X36814714Y-23880619D01*
X35957571Y-23833000D02*
X36052809Y-23880619D01*
X36052809Y-23880619D02*
X36243285Y-23880619D01*
X36243285Y-23880619D02*
X36338523Y-23833000D01*
X36338523Y-23833000D02*
X36386142Y-23737761D01*
X36386142Y-23737761D02*
X36386142Y-23356809D01*
X36386142Y-23356809D02*
X36338523Y-23261571D01*
X36338523Y-23261571D02*
X36243285Y-23213952D01*
X36243285Y-23213952D02*
X36052809Y-23213952D01*
X36052809Y-23213952D02*
X35957571Y-23261571D01*
X35957571Y-23261571D02*
X35909952Y-23356809D01*
X35909952Y-23356809D02*
X35909952Y-23452047D01*
X35909952Y-23452047D02*
X36386142Y-23547285D01*
X35052809Y-23880619D02*
X35052809Y-22880619D01*
X35052809Y-23833000D02*
X35148047Y-23880619D01*
X35148047Y-23880619D02*
X35338523Y-23880619D01*
X35338523Y-23880619D02*
X35433761Y-23833000D01*
X35433761Y-23833000D02*
X35481380Y-23785380D01*
X35481380Y-23785380D02*
X35528999Y-23690142D01*
X35528999Y-23690142D02*
X35528999Y-23404428D01*
X35528999Y-23404428D02*
X35481380Y-23309190D01*
X35481380Y-23309190D02*
X35433761Y-23261571D01*
X35433761Y-23261571D02*
X35338523Y-23213952D01*
X35338523Y-23213952D02*
X35148047Y-23213952D01*
X35148047Y-23213952D02*
X35052809Y-23261571D01*
X33814713Y-23880619D02*
X33814713Y-22880619D01*
X33814713Y-23261571D02*
X33719475Y-23213952D01*
X33719475Y-23213952D02*
X33528999Y-23213952D01*
X33528999Y-23213952D02*
X33433761Y-23261571D01*
X33433761Y-23261571D02*
X33386142Y-23309190D01*
X33386142Y-23309190D02*
X33338523Y-23404428D01*
X33338523Y-23404428D02*
X33338523Y-23690142D01*
X33338523Y-23690142D02*
X33386142Y-23785380D01*
X33386142Y-23785380D02*
X33433761Y-23833000D01*
X33433761Y-23833000D02*
X33528999Y-23880619D01*
X33528999Y-23880619D02*
X33719475Y-23880619D01*
X33719475Y-23880619D02*
X33814713Y-23833000D01*
X33005189Y-23213952D02*
X32767094Y-23880619D01*
X32528999Y-23213952D02*
X32767094Y-23880619D01*
X32767094Y-23880619D02*
X32862332Y-24118714D01*
X32862332Y-24118714D02*
X32909951Y-24166333D01*
X32909951Y-24166333D02*
X33005189Y-24213952D01*
X30814713Y-23880619D02*
X31148046Y-23404428D01*
X31386141Y-23880619D02*
X31386141Y-22880619D01*
X31386141Y-22880619D02*
X31005189Y-22880619D01*
X31005189Y-22880619D02*
X30909951Y-22928238D01*
X30909951Y-22928238D02*
X30862332Y-22975857D01*
X30862332Y-22975857D02*
X30814713Y-23071095D01*
X30814713Y-23071095D02*
X30814713Y-23213952D01*
X30814713Y-23213952D02*
X30862332Y-23309190D01*
X30862332Y-23309190D02*
X30909951Y-23356809D01*
X30909951Y-23356809D02*
X31005189Y-23404428D01*
X31005189Y-23404428D02*
X31386141Y-23404428D01*
X30481379Y-23213952D02*
X30243284Y-23880619D01*
X30005189Y-23213952D02*
X30243284Y-23880619D01*
X30243284Y-23880619D02*
X30338522Y-24118714D01*
X30338522Y-24118714D02*
X30386141Y-24166333D01*
X30386141Y-24166333D02*
X30481379Y-24213952D01*
X29481379Y-23880619D02*
X29576617Y-23833000D01*
X29576617Y-23833000D02*
X29624236Y-23785380D01*
X29624236Y-23785380D02*
X29671855Y-23690142D01*
X29671855Y-23690142D02*
X29671855Y-23404428D01*
X29671855Y-23404428D02*
X29624236Y-23309190D01*
X29624236Y-23309190D02*
X29576617Y-23261571D01*
X29576617Y-23261571D02*
X29481379Y-23213952D01*
X29481379Y-23213952D02*
X29338522Y-23213952D01*
X29338522Y-23213952D02*
X29243284Y-23261571D01*
X29243284Y-23261571D02*
X29195665Y-23309190D01*
X29195665Y-23309190D02*
X29148046Y-23404428D01*
X29148046Y-23404428D02*
X29148046Y-23690142D01*
X29148046Y-23690142D02*
X29195665Y-23785380D01*
X29195665Y-23785380D02*
X29243284Y-23833000D01*
X29243284Y-23833000D02*
X29338522Y-23880619D01*
X29338522Y-23880619D02*
X29481379Y-23880619D01*
X27957569Y-23880619D02*
X27957569Y-22880619D01*
X27957569Y-22880619D02*
X27624236Y-23594904D01*
X27624236Y-23594904D02*
X27290903Y-22880619D01*
X27290903Y-22880619D02*
X27290903Y-23880619D01*
X26386141Y-23213952D02*
X26386141Y-23880619D01*
X26814712Y-23213952D02*
X26814712Y-23737761D01*
X26814712Y-23737761D02*
X26767093Y-23833000D01*
X26767093Y-23833000D02*
X26671855Y-23880619D01*
X26671855Y-23880619D02*
X26528998Y-23880619D01*
X26528998Y-23880619D02*
X26433760Y-23833000D01*
X26433760Y-23833000D02*
X26386141Y-23785380D01*
X25909950Y-23880619D02*
X25909950Y-22880619D01*
X25814712Y-23499666D02*
X25528998Y-23880619D01*
X25528998Y-23213952D02*
X25909950Y-23594904D01*
X24671855Y-23880619D02*
X24671855Y-23356809D01*
X24671855Y-23356809D02*
X24719474Y-23261571D01*
X24719474Y-23261571D02*
X24814712Y-23213952D01*
X24814712Y-23213952D02*
X25005188Y-23213952D01*
X25005188Y-23213952D02*
X25100426Y-23261571D01*
X24671855Y-23833000D02*
X24767093Y-23880619D01*
X24767093Y-23880619D02*
X25005188Y-23880619D01*
X25005188Y-23880619D02*
X25100426Y-23833000D01*
X25100426Y-23833000D02*
X25148045Y-23737761D01*
X25148045Y-23737761D02*
X25148045Y-23642523D01*
X25148045Y-23642523D02*
X25100426Y-23547285D01*
X25100426Y-23547285D02*
X25005188Y-23499666D01*
X25005188Y-23499666D02*
X24767093Y-23499666D01*
X24767093Y-23499666D02*
X24671855Y-23452047D01*
X24195664Y-23880619D02*
X24195664Y-23213952D01*
X24195664Y-22880619D02*
X24243283Y-22928238D01*
X24243283Y-22928238D02*
X24195664Y-22975857D01*
X24195664Y-22975857D02*
X24148045Y-22928238D01*
X24148045Y-22928238D02*
X24195664Y-22880619D01*
X24195664Y-22880619D02*
X24195664Y-22975857D01*
X23671855Y-23833000D02*
X23671855Y-23880619D01*
X23671855Y-23880619D02*
X23719474Y-23975857D01*
X23719474Y-23975857D02*
X23767093Y-24023476D01*
X22481379Y-23880619D02*
X22481379Y-22880619D01*
X22052808Y-23880619D02*
X22052808Y-23356809D01*
X22052808Y-23356809D02*
X22100427Y-23261571D01*
X22100427Y-23261571D02*
X22195665Y-23213952D01*
X22195665Y-23213952D02*
X22338522Y-23213952D01*
X22338522Y-23213952D02*
X22433760Y-23261571D01*
X22433760Y-23261571D02*
X22481379Y-23309190D01*
X21719474Y-23213952D02*
X21338522Y-23213952D01*
X21576617Y-22880619D02*
X21576617Y-23737761D01*
X21576617Y-23737761D02*
X21528998Y-23833000D01*
X21528998Y-23833000D02*
X21433760Y-23880619D01*
X21433760Y-23880619D02*
X21338522Y-23880619D01*
X21148045Y-23213952D02*
X20767093Y-23213952D01*
X21005188Y-22880619D02*
X21005188Y-23737761D01*
X21005188Y-23737761D02*
X20957569Y-23833000D01*
X20957569Y-23833000D02*
X20862331Y-23880619D01*
X20862331Y-23880619D02*
X20767093Y-23880619D01*
X20433759Y-23213952D02*
X20433759Y-24213952D01*
X20433759Y-23261571D02*
X20338521Y-23213952D01*
X20338521Y-23213952D02*
X20148045Y-23213952D01*
X20148045Y-23213952D02*
X20052807Y-23261571D01*
X20052807Y-23261571D02*
X20005188Y-23309190D01*
X20005188Y-23309190D02*
X19957569Y-23404428D01*
X19957569Y-23404428D02*
X19957569Y-23690142D01*
X19957569Y-23690142D02*
X20005188Y-23785380D01*
X20005188Y-23785380D02*
X20052807Y-23833000D01*
X20052807Y-23833000D02*
X20148045Y-23880619D01*
X20148045Y-23880619D02*
X20338521Y-23880619D01*
X20338521Y-23880619D02*
X20433759Y-23833000D01*
X19576616Y-23833000D02*
X19481378Y-23880619D01*
X19481378Y-23880619D02*
X19290902Y-23880619D01*
X19290902Y-23880619D02*
X19195664Y-23833000D01*
X19195664Y-23833000D02*
X19148045Y-23737761D01*
X19148045Y-23737761D02*
X19148045Y-23690142D01*
X19148045Y-23690142D02*
X19195664Y-23594904D01*
X19195664Y-23594904D02*
X19290902Y-23547285D01*
X19290902Y-23547285D02*
X19433759Y-23547285D01*
X19433759Y-23547285D02*
X19528997Y-23499666D01*
X19528997Y-23499666D02*
X19576616Y-23404428D01*
X19576616Y-23404428D02*
X19576616Y-23356809D01*
X19576616Y-23356809D02*
X19528997Y-23261571D01*
X19528997Y-23261571D02*
X19433759Y-23213952D01*
X19433759Y-23213952D02*
X19290902Y-23213952D01*
X19290902Y-23213952D02*
X19195664Y-23261571D01*
X18719473Y-23785380D02*
X18671854Y-23833000D01*
X18671854Y-23833000D02*
X18719473Y-23880619D01*
X18719473Y-23880619D02*
X18767092Y-23833000D01*
X18767092Y-23833000D02*
X18719473Y-23785380D01*
X18719473Y-23785380D02*
X18719473Y-23880619D01*
X18719473Y-23261571D02*
X18671854Y-23309190D01*
X18671854Y-23309190D02*
X18719473Y-23356809D01*
X18719473Y-23356809D02*
X18767092Y-23309190D01*
X18767092Y-23309190D02*
X18719473Y-23261571D01*
X18719473Y-23261571D02*
X18719473Y-23356809D01*
X17528998Y-22833000D02*
X18386140Y-24118714D01*
X16481379Y-22833000D02*
X17338521Y-24118714D01*
X15719474Y-23213952D02*
X15719474Y-24023476D01*
X15719474Y-24023476D02*
X15767093Y-24118714D01*
X15767093Y-24118714D02*
X15814712Y-24166333D01*
X15814712Y-24166333D02*
X15909950Y-24213952D01*
X15909950Y-24213952D02*
X16052807Y-24213952D01*
X16052807Y-24213952D02*
X16148045Y-24166333D01*
X15719474Y-23833000D02*
X15814712Y-23880619D01*
X15814712Y-23880619D02*
X16005188Y-23880619D01*
X16005188Y-23880619D02*
X16100426Y-23833000D01*
X16100426Y-23833000D02*
X16148045Y-23785380D01*
X16148045Y-23785380D02*
X16195664Y-23690142D01*
X16195664Y-23690142D02*
X16195664Y-23404428D01*
X16195664Y-23404428D02*
X16148045Y-23309190D01*
X16148045Y-23309190D02*
X16100426Y-23261571D01*
X16100426Y-23261571D02*
X16005188Y-23213952D01*
X16005188Y-23213952D02*
X15814712Y-23213952D01*
X15814712Y-23213952D02*
X15719474Y-23261571D01*
X15243283Y-23880619D02*
X15243283Y-23213952D01*
X15243283Y-22880619D02*
X15290902Y-22928238D01*
X15290902Y-22928238D02*
X15243283Y-22975857D01*
X15243283Y-22975857D02*
X15195664Y-22928238D01*
X15195664Y-22928238D02*
X15243283Y-22880619D01*
X15243283Y-22880619D02*
X15243283Y-22975857D01*
X14909950Y-23213952D02*
X14528998Y-23213952D01*
X14767093Y-22880619D02*
X14767093Y-23737761D01*
X14767093Y-23737761D02*
X14719474Y-23833000D01*
X14719474Y-23833000D02*
X14624236Y-23880619D01*
X14624236Y-23880619D02*
X14528998Y-23880619D01*
X14195664Y-23880619D02*
X14195664Y-22880619D01*
X13767093Y-23880619D02*
X13767093Y-23356809D01*
X13767093Y-23356809D02*
X13814712Y-23261571D01*
X13814712Y-23261571D02*
X13909950Y-23213952D01*
X13909950Y-23213952D02*
X14052807Y-23213952D01*
X14052807Y-23213952D02*
X14148045Y-23261571D01*
X14148045Y-23261571D02*
X14195664Y-23309190D01*
X12862331Y-23213952D02*
X12862331Y-23880619D01*
X13290902Y-23213952D02*
X13290902Y-23737761D01*
X13290902Y-23737761D02*
X13243283Y-23833000D01*
X13243283Y-23833000D02*
X13148045Y-23880619D01*
X13148045Y-23880619D02*
X13005188Y-23880619D01*
X13005188Y-23880619D02*
X12909950Y-23833000D01*
X12909950Y-23833000D02*
X12862331Y-23785380D01*
X12386140Y-23880619D02*
X12386140Y-22880619D01*
X12386140Y-23261571D02*
X12290902Y-23213952D01*
X12290902Y-23213952D02*
X12100426Y-23213952D01*
X12100426Y-23213952D02*
X12005188Y-23261571D01*
X12005188Y-23261571D02*
X11957569Y-23309190D01*
X11957569Y-23309190D02*
X11909950Y-23404428D01*
X11909950Y-23404428D02*
X11909950Y-23690142D01*
X11909950Y-23690142D02*
X11957569Y-23785380D01*
X11957569Y-23785380D02*
X12005188Y-23833000D01*
X12005188Y-23833000D02*
X12100426Y-23880619D01*
X12100426Y-23880619D02*
X12290902Y-23880619D01*
X12290902Y-23880619D02*
X12386140Y-23833000D01*
X11481378Y-23785380D02*
X11433759Y-23833000D01*
X11433759Y-23833000D02*
X11481378Y-23880619D01*
X11481378Y-23880619D02*
X11528997Y-23833000D01*
X11528997Y-23833000D02*
X11481378Y-23785380D01*
X11481378Y-23785380D02*
X11481378Y-23880619D01*
X10576617Y-23833000D02*
X10671855Y-23880619D01*
X10671855Y-23880619D02*
X10862331Y-23880619D01*
X10862331Y-23880619D02*
X10957569Y-23833000D01*
X10957569Y-23833000D02*
X11005188Y-23785380D01*
X11005188Y-23785380D02*
X11052807Y-23690142D01*
X11052807Y-23690142D02*
X11052807Y-23404428D01*
X11052807Y-23404428D02*
X11005188Y-23309190D01*
X11005188Y-23309190D02*
X10957569Y-23261571D01*
X10957569Y-23261571D02*
X10862331Y-23213952D01*
X10862331Y-23213952D02*
X10671855Y-23213952D01*
X10671855Y-23213952D02*
X10576617Y-23261571D01*
X10005188Y-23880619D02*
X10100426Y-23833000D01*
X10100426Y-23833000D02*
X10148045Y-23785380D01*
X10148045Y-23785380D02*
X10195664Y-23690142D01*
X10195664Y-23690142D02*
X10195664Y-23404428D01*
X10195664Y-23404428D02*
X10148045Y-23309190D01*
X10148045Y-23309190D02*
X10100426Y-23261571D01*
X10100426Y-23261571D02*
X10005188Y-23213952D01*
X10005188Y-23213952D02*
X9862331Y-23213952D01*
X9862331Y-23213952D02*
X9767093Y-23261571D01*
X9767093Y-23261571D02*
X9719474Y-23309190D01*
X9719474Y-23309190D02*
X9671855Y-23404428D01*
X9671855Y-23404428D02*
X9671855Y-23690142D01*
X9671855Y-23690142D02*
X9719474Y-23785380D01*
X9719474Y-23785380D02*
X9767093Y-23833000D01*
X9767093Y-23833000D02*
X9862331Y-23880619D01*
X9862331Y-23880619D02*
X10005188Y-23880619D01*
X9243283Y-23880619D02*
X9243283Y-23213952D01*
X9243283Y-23309190D02*
X9195664Y-23261571D01*
X9195664Y-23261571D02*
X9100426Y-23213952D01*
X9100426Y-23213952D02*
X8957569Y-23213952D01*
X8957569Y-23213952D02*
X8862331Y-23261571D01*
X8862331Y-23261571D02*
X8814712Y-23356809D01*
X8814712Y-23356809D02*
X8814712Y-23880619D01*
X8814712Y-23356809D02*
X8767093Y-23261571D01*
X8767093Y-23261571D02*
X8671855Y-23213952D01*
X8671855Y-23213952D02*
X8528998Y-23213952D01*
X8528998Y-23213952D02*
X8433759Y-23261571D01*
X8433759Y-23261571D02*
X8386140Y-23356809D01*
X8386140Y-23356809D02*
X8386140Y-23880619D01*
X7195665Y-22833000D02*
X8052807Y-24118714D01*
X6862331Y-23880619D02*
X6862331Y-23213952D01*
X6862331Y-23404428D02*
X6814712Y-23309190D01*
X6814712Y-23309190D02*
X6767093Y-23261571D01*
X6767093Y-23261571D02*
X6671855Y-23213952D01*
X6671855Y-23213952D02*
X6576617Y-23213952D01*
X6338521Y-23213952D02*
X6100426Y-23880619D01*
X5862331Y-23213952D02*
X6100426Y-23880619D01*
X6100426Y-23880619D02*
X6195664Y-24118714D01*
X6195664Y-24118714D02*
X6243283Y-24166333D01*
X6243283Y-24166333D02*
X6338521Y-24213952D01*
X5338521Y-23880619D02*
X5433759Y-23833000D01*
X5433759Y-23833000D02*
X5481378Y-23785380D01*
X5481378Y-23785380D02*
X5528997Y-23690142D01*
X5528997Y-23690142D02*
X5528997Y-23404428D01*
X5528997Y-23404428D02*
X5481378Y-23309190D01*
X5481378Y-23309190D02*
X5433759Y-23261571D01*
X5433759Y-23261571D02*
X5338521Y-23213952D01*
X5338521Y-23213952D02*
X5195664Y-23213952D01*
X5195664Y-23213952D02*
X5100426Y-23261571D01*
X5100426Y-23261571D02*
X5052807Y-23309190D01*
X5052807Y-23309190D02*
X5005188Y-23404428D01*
X5005188Y-23404428D02*
X5005188Y-23690142D01*
X5005188Y-23690142D02*
X5052807Y-23785380D01*
X5052807Y-23785380D02*
X5100426Y-23833000D01*
X5100426Y-23833000D02*
X5195664Y-23880619D01*
X5195664Y-23880619D02*
X5338521Y-23880619D01*
X4576616Y-23880619D02*
X4576616Y-23213952D01*
X4576616Y-23309190D02*
X4528997Y-23261571D01*
X4528997Y-23261571D02*
X4433759Y-23213952D01*
X4433759Y-23213952D02*
X4290902Y-23213952D01*
X4290902Y-23213952D02*
X4195664Y-23261571D01*
X4195664Y-23261571D02*
X4148045Y-23356809D01*
X4148045Y-23356809D02*
X4148045Y-23880619D01*
X4148045Y-23356809D02*
X4100426Y-23261571D01*
X4100426Y-23261571D02*
X4005188Y-23213952D01*
X4005188Y-23213952D02*
X3862331Y-23213952D01*
X3862331Y-23213952D02*
X3767092Y-23261571D01*
X3767092Y-23261571D02*
X3719473Y-23356809D01*
X3719473Y-23356809D02*
X3719473Y-23880619D01*
X2814712Y-23213952D02*
X2814712Y-23880619D01*
X3243283Y-23213952D02*
X3243283Y-23737761D01*
X3243283Y-23737761D02*
X3195664Y-23833000D01*
X3195664Y-23833000D02*
X3100426Y-23880619D01*
X3100426Y-23880619D02*
X2957569Y-23880619D01*
X2957569Y-23880619D02*
X2862331Y-23833000D01*
X2862331Y-23833000D02*
X2814712Y-23785380D01*
X2338521Y-23880619D02*
X2338521Y-22880619D01*
X2243283Y-23499666D02*
X1957569Y-23880619D01*
X1957569Y-23213952D02*
X2338521Y-23594904D01*
D12*
%TO.P,J2,1,Pin_1*%
%TO.N,PIN63*%
X2540000Y-2540000D03*
D13*
%TO.P,J2,2,Pin_2*%
%TO.N,PIN86*%
X5080000Y-2540000D03*
%TO.P,J2,3,Pin_3*%
%TO.N,PIN85*%
X7620000Y-2540000D03*
%TO.P,J2,4,Pin_4*%
%TO.N,PIN84*%
X10160000Y-2540000D03*
%TO.P,J2,5,Pin_5*%
%TO.N,PIN83*%
X12700000Y-2540000D03*
%TO.P,J2,6,Pin_6*%
%TO.N,PIN82*%
X15240000Y-2540000D03*
%TO.P,J2,7,Pin_7*%
%TO.N,PIN81*%
X17780000Y-2540000D03*
%TO.P,J2,8,Pin_8*%
%TO.N,PIN80*%
X20320000Y-2540000D03*
%TO.P,J2,9,Pin_9*%
%TO.N,PIN79*%
X22860000Y-2540000D03*
%TO.P,J2,10,Pin_10*%
%TO.N,PIN77*%
X25400000Y-2540000D03*
%TO.P,J2,11,Pin_11*%
%TO.N,PIN76*%
X27940000Y-2540000D03*
%TO.P,J2,12,Pin_12*%
%TO.N,PIN75*%
X30480000Y-2540000D03*
%TO.P,J2,13,Pin_13*%
%TO.N,PIN74*%
X33020000Y-2540000D03*
%TO.P,J2,14,Pin_14*%
%TO.N,PIN73*%
X35560000Y-2540000D03*
%TO.P,J2,15,Pin_15*%
%TO.N,PIN72*%
X38100000Y-2540000D03*
%TO.P,J2,16,Pin_16*%
%TO.N,PIN71*%
X40640000Y-2540000D03*
%TO.P,J2,17,Pin_17*%
%TO.N,PIN70*%
X43180000Y-2540000D03*
%TO.P,J2,18,Pin_18*%
%TO.N,+5V*%
X45720000Y-2540000D03*
%TO.P,J2,19,Pin_19*%
%TO.N,PIN48*%
X48260000Y-2540000D03*
%TO.P,J2,20,Pin_20*%
%TO.N,PIN49*%
X50800000Y-2540000D03*
%TO.P,J2,21,Pin_21*%
%TO.N,PIN31*%
X53340000Y-2540000D03*
%TO.P,J2,22,Pin_22*%
%TO.N,PIN32*%
X55880000Y-2540000D03*
%TO.P,J2,23,Pin_23*%
%TO.N,GND*%
X58420000Y-2540000D03*
%TO.P,J2,24,Pin_24*%
%TO.N,+3.3V*%
X60960000Y-2540000D03*
%TD*%
D12*
%TO.P,J1,1,Pin_1*%
%TO.N,PIN38*%
X2540000Y-25400000D03*
D13*
%TO.P,J1,2,Pin_2*%
%TO.N,PIN37*%
X5080000Y-25400000D03*
%TO.P,J1,3,Pin_3*%
%TO.N,PIN36*%
X7620000Y-25400000D03*
%TO.P,J1,4,Pin_4*%
%TO.N,PIN39*%
X10160000Y-25400000D03*
%TO.P,J1,5,Pin_5*%
%TO.N,PIN25*%
X12700000Y-25400000D03*
%TO.P,J1,6,Pin_6*%
%TO.N,PIN26*%
X15240000Y-25400000D03*
%TO.P,J1,7,Pin_7*%
%TO.N,PIN27*%
X17780000Y-25400000D03*
%TO.P,J1,8,Pin_8*%
%TO.N,PIN28*%
X20320000Y-25400000D03*
%TO.P,J1,9,Pin_9*%
%TO.N,PIN29*%
X22860000Y-25400000D03*
%TO.P,J1,10,Pin_10*%
%TO.N,PIN30*%
X25400000Y-25400000D03*
%TO.P,J1,11,Pin_11*%
%TO.N,PIN33*%
X27940000Y-25400000D03*
%TO.P,J1,12,Pin_12*%
%TO.N,PIN34*%
X30480000Y-25400000D03*
%TO.P,J1,13,Pin_13*%
%TO.N,PIN40*%
X33020000Y-25400000D03*
%TO.P,J1,14,Pin_14*%
%TO.N,PIN35*%
X35560000Y-25400000D03*
%TO.P,J1,15,Pin_15*%
%TO.N,PIN41*%
X38100000Y-25400000D03*
%TO.P,J1,16,Pin_16*%
%TO.N,PIN42*%
X40640000Y-25400000D03*
%TO.P,J1,17,Pin_17*%
%TO.N,PIN51*%
X43180000Y-25400000D03*
%TO.P,J1,18,Pin_18*%
%TO.N,PIN53*%
X45720000Y-25400000D03*
%TO.P,J1,19,Pin_19*%
%TO.N,PIN54*%
X48260000Y-25400000D03*
%TO.P,J1,20,Pin_20*%
%TO.N,PIN55*%
X50800000Y-25400000D03*
%TO.P,J1,21,Pin_21*%
%TO.N,PIN56*%
X53340000Y-25400000D03*
%TO.P,J1,22,Pin_22*%
%TO.N,PIN57*%
X55880000Y-25400000D03*
%TO.P,J1,23,Pin_23*%
%TO.N,PIN68*%
X58420000Y-25400000D03*
%TO.P,J1,24,Pin_24*%
%TO.N,PIN69*%
X60960000Y-25400000D03*
%TD*%
D12*
%TO.P,J4,1,Pin_1*%
%TO.N,PIN63_H*%
X2540000Y-6350000D03*
D13*
%TO.P,J4,2,Pin_2*%
%TO.N,PIN86_H*%
X5080000Y-6350000D03*
%TO.P,J4,3,Pin_3*%
%TO.N,PIN85_H*%
X7620000Y-6350000D03*
%TO.P,J4,4,Pin_4*%
%TO.N,PIN84_H*%
X10160000Y-6350000D03*
%TO.P,J4,5,Pin_5*%
%TO.N,PIN83_H*%
X12700000Y-6350000D03*
%TO.P,J4,6,Pin_6*%
%TO.N,PIN82_H*%
X15240000Y-6350000D03*
%TO.P,J4,7,Pin_7*%
%TO.N,PIN81_H*%
X17780000Y-6350000D03*
%TO.P,J4,8,Pin_8*%
%TO.N,PIN80_H*%
X20320000Y-6350000D03*
%TO.P,J4,9,Pin_9*%
%TO.N,PIN79_H*%
X22860000Y-6350000D03*
%TO.P,J4,10,Pin_10*%
%TO.N,PIN77_H*%
X25400000Y-6350000D03*
%TO.P,J4,11,Pin_11*%
%TO.N,PIN76_H*%
X27940000Y-6350000D03*
%TO.P,J4,12,Pin_12*%
%TO.N,PIN75_H*%
X30480000Y-6350000D03*
%TO.P,J4,13,Pin_13*%
%TO.N,PIN74_H*%
X33020000Y-6350000D03*
%TO.P,J4,14,Pin_14*%
%TO.N,PIN73_H*%
X35560000Y-6350000D03*
%TO.P,J4,15,Pin_15*%
%TO.N,PIN72_H*%
X38100000Y-6350000D03*
%TO.P,J4,16,Pin_16*%
%TO.N,PIN71_H*%
X40640000Y-6350000D03*
%TO.P,J4,17,Pin_17*%
%TO.N,PIN70_H*%
X43180000Y-6350000D03*
%TO.P,J4,18,Pin_18*%
%TO.N,+5V*%
X45720000Y-6350000D03*
%TO.P,J4,19,Pin_19*%
%TO.N,PIN48_H*%
X48260000Y-6350000D03*
%TO.P,J4,20,Pin_20*%
%TO.N,PIN49_H*%
X50800000Y-6350000D03*
%TO.P,J4,21,Pin_21*%
%TO.N,PIN31_H*%
X53340000Y-6350000D03*
%TO.P,J4,22,Pin_22*%
%TO.N,PIN32_H*%
X55880000Y-6350000D03*
%TO.P,J4,23,Pin_23*%
%TO.N,GND*%
X58420000Y-6350000D03*
%TO.P,J4,24,Pin_24*%
%TO.N,+3.3V*%
X60960000Y-6350000D03*
%TD*%
D12*
%TO.P,J3,1,Pin_1*%
%TO.N,PIN38_H*%
X2540000Y-21590000D03*
D13*
%TO.P,J3,2,Pin_2*%
%TO.N,PIN37_H*%
X5080000Y-21590000D03*
%TO.P,J3,3,Pin_3*%
%TO.N,PIN36_H*%
X7620000Y-21590000D03*
%TO.P,J3,4,Pin_4*%
%TO.N,PIN39_H*%
X10160000Y-21590000D03*
%TO.P,J3,5,Pin_5*%
%TO.N,PIN25_H*%
X12700000Y-21590000D03*
%TO.P,J3,6,Pin_6*%
%TO.N,PIN26_H*%
X15240000Y-21590000D03*
%TO.P,J3,7,Pin_7*%
%TO.N,PIN27_H*%
X17780000Y-21590000D03*
%TO.P,J3,8,Pin_8*%
%TO.N,PIN28_H*%
X20320000Y-21590000D03*
%TO.P,J3,9,Pin_9*%
%TO.N,PIN29_H*%
X22860000Y-21590000D03*
%TO.P,J3,10,Pin_10*%
%TO.N,PIN30_H*%
X25400000Y-21590000D03*
%TO.P,J3,11,Pin_11*%
%TO.N,PIN33_H*%
X27940000Y-21590000D03*
%TO.P,J3,12,Pin_12*%
%TO.N,PIN34_H*%
X30480000Y-21590000D03*
%TO.P,J3,13,Pin_13*%
%TO.N,PIN40_H*%
X33020000Y-21590000D03*
%TO.P,J3,14,Pin_14*%
%TO.N,PIN35_H*%
X35560000Y-21590000D03*
%TO.P,J3,15,Pin_15*%
%TO.N,PIN41_H*%
X38100000Y-21590000D03*
%TO.P,J3,16,Pin_16*%
%TO.N,PIN42_H*%
X40640000Y-21590000D03*
%TO.P,J3,17,Pin_17*%
%TO.N,PIN51_H*%
X43180000Y-21590000D03*
%TO.P,J3,18,Pin_18*%
%TO.N,PIN53_H*%
X45720000Y-21590000D03*
%TO.P,J3,19,Pin_19*%
%TO.N,PIN54_H*%
X48260000Y-21590000D03*
%TO.P,J3,20,Pin_20*%
%TO.N,PIN55_H*%
X50800000Y-21590000D03*
%TO.P,J3,21,Pin_21*%
%TO.N,PIN56_H*%
X53340000Y-21590000D03*
%TO.P,J3,22,Pin_22*%
%TO.N,PIN57_H*%
X55880000Y-21590000D03*
%TO.P,J3,23,Pin_23*%
%TO.N,PIN68_H*%
X58420000Y-21590000D03*
%TO.P,J3,24,Pin_24*%
%TO.N,PIN69_H*%
X60960000Y-21590000D03*
%TD*%
D14*
%TO.N,GND*%
X60630500Y-9144000D03*
%TO.N,+3.3V*%
X61468000Y-18034000D03*
%TO.N,PIN69_H*%
X59360500Y-12954000D03*
%TO.N,PIN68_H*%
X58420000Y-13970000D03*
%TO.N,PIN57_H*%
X57150000Y-13970000D03*
%TO.N,PIN56_H*%
X55880000Y-13970000D03*
%TO.N,PIN55_H*%
X54922500Y-12700000D03*
%TO.N,PIN54_H*%
X52705000Y-14605000D03*
%TO.N,PIN53_H*%
X51435000Y-14605000D03*
%TO.N,PIN51_H*%
X50434000Y-13335000D03*
%TO.N,PIN32*%
X49602283Y-15284283D03*
%TO.N,PIN42_H*%
X48984500Y-12700000D03*
%TO.N,PIN31*%
X48260000Y-14605000D03*
%TO.N,PIN49*%
X46990000Y-15240000D03*
%TO.N,PIN48*%
X45720000Y-15240000D03*
%TO.N,PIN41_H*%
X42545000Y-13970000D03*
%TO.N,PIN35_H*%
X41275000Y-13970000D03*
%TO.N,PIN40_H*%
X40315883Y-12700000D03*
%TO.N,PIN70*%
X39591383Y-15167364D03*
%TO.N,PIN34_H*%
X38824500Y-12700000D03*
%TO.N,PIN71*%
X38141883Y-15204070D03*
%TO.N,PIN72*%
X36830000Y-15240000D03*
%TO.N,PIN73*%
X35618500Y-15240000D03*
%TO.N,PIN33_H*%
X33020000Y-13970000D03*
%TO.N,PIN30_H*%
X31750000Y-13970000D03*
%TO.N,PIN29_H*%
X30748500Y-12700000D03*
%TO.N,PIN74*%
X30024000Y-15240000D03*
%TO.N,PIN28_H*%
X29299500Y-12700000D03*
%TO.N,PIN75*%
X28575000Y-15240000D03*
%TO.N,PIN76*%
X27305000Y-15240000D03*
%TO.N,PIN77*%
X26035000Y-15240000D03*
%TO.N,PIN27_H*%
X22225000Y-15240000D03*
%TO.N,PIN26_H*%
X20955000Y-15240000D03*
%TO.N,PIN25_H*%
X19685000Y-15240000D03*
%TO.N,PIN79*%
X13970000Y-13335000D03*
%TO.N,PIN80*%
X12794006Y-13335000D03*
%TO.N,PIN81*%
X11794503Y-13335000D03*
%TO.N,PIN82*%
X10795000Y-13335000D03*
%TO.N,PIN83*%
X9525000Y-13335000D03*
%TO.N,PIN84*%
X8255000Y-13335000D03*
%TO.N,PIN39_H*%
X19757451Y-14042452D03*
%TO.N,PIN36_H*%
X19685000Y-12700000D03*
%TO.N,PIN37_H*%
X18415000Y-13335000D03*
%TO.N,PIN38_H*%
X17234500Y-12700000D03*
%TO.N,PIN85*%
X6985000Y-13335000D03*
%TO.N,PIN63_H*%
X16510000Y-11517137D03*
%TO.N,PIN86*%
X6985000Y-15240000D03*
%TO.N,+3.3V*%
X3048000Y-9398000D03*
X2540000Y-13970000D03*
X15240000Y-17526000D03*
X24892000Y-17526000D03*
X34544000Y-17526000D03*
X44196000Y-17526000D03*
X53848000Y-17526000D03*
%TO.N,GND*%
X53848000Y-13970000D03*
X44196000Y-13970000D03*
X34544000Y-13970000D03*
X24892000Y-13970000D03*
X15240000Y-13970000D03*
X5588000Y-13970000D03*
%TO.N,+5V*%
X56185655Y-9851362D03*
X46594002Y-9398000D03*
X36942002Y-9398000D03*
X27290002Y-9398000D03*
X17638003Y-9917638D03*
X7925655Y-9851362D03*
%TO.N,GND*%
X1524000Y-9398000D03*
X1524000Y-18542000D03*
%TD*%
D15*
%TO.N,PIN69_H*%
X59360500Y-19990500D02*
X60960000Y-21590000D01*
X59360500Y-12954000D02*
X59360500Y-19990500D01*
%TO.N,PIN68_H*%
X58420000Y-13970000D02*
X58420000Y-21590000D01*
%TO.N,PIN57_H*%
X57150000Y-20320000D02*
X55880000Y-21590000D01*
X57150000Y-13970000D02*
X57150000Y-20320000D01*
%TO.N,PIN56_H*%
X55880000Y-19050000D02*
X53340000Y-21590000D01*
X55880000Y-13970000D02*
X55880000Y-19050000D01*
%TO.N,PIN55_H*%
X54922500Y-17476805D02*
X54922500Y-12700000D01*
X50809305Y-21590000D02*
X54922500Y-17476805D01*
X50800000Y-21590000D02*
X50809305Y-21590000D01*
%TO.N,PIN54_H*%
X52705000Y-17145000D02*
X48260000Y-21590000D01*
X52705000Y-14605000D02*
X52705000Y-17145000D01*
%TO.N,PIN53_H*%
X51435000Y-15875000D02*
X45720000Y-21590000D01*
X51435000Y-14605000D02*
X51435000Y-15875000D01*
%TO.N,PIN51_H*%
X43180000Y-20320000D02*
X43180000Y-21590000D01*
X45720000Y-17780000D02*
X43180000Y-20320000D01*
X48131871Y-17780000D02*
X45720000Y-17780000D01*
X50434000Y-15477871D02*
X48131871Y-17780000D01*
X50434000Y-13335000D02*
X50434000Y-15477871D01*
%TO.N,PIN32*%
X54610000Y-6741701D02*
X54610000Y-3810000D01*
X53096701Y-8255000D02*
X54610000Y-6741701D01*
X52070000Y-8255000D02*
X53096701Y-8255000D01*
X49709500Y-10615500D02*
X52070000Y-8255000D01*
X49709500Y-15177066D02*
X49709500Y-10615500D01*
X49602283Y-15284283D02*
X49709500Y-15177066D01*
X54610000Y-3810000D02*
X55880000Y-2540000D01*
%TO.N,PIN42_H*%
X48984500Y-14905805D02*
X47380305Y-16510000D01*
X48984500Y-12700000D02*
X48984500Y-14905805D01*
X42545000Y-16510000D02*
X40640000Y-18415000D01*
X40640000Y-18415000D02*
X40640000Y-21590000D01*
X47380305Y-16510000D02*
X42545000Y-16510000D01*
%TO.N,PIN31*%
X52165000Y-3715000D02*
X53340000Y-2540000D01*
X48260000Y-10795000D02*
X52165000Y-6890000D01*
X48260000Y-14605000D02*
X48260000Y-10795000D01*
X52165000Y-6890000D02*
X52165000Y-3715000D01*
%TO.N,PIN49*%
X49625000Y-3715000D02*
X50800000Y-2540000D01*
X46990000Y-10795000D02*
X49625000Y-8160000D01*
X46990000Y-15240000D02*
X46990000Y-10795000D01*
X49625000Y-8160000D02*
X49625000Y-3715000D01*
%TO.N,PIN48*%
X47085000Y-3715000D02*
X48260000Y-2540000D01*
X47085000Y-6646701D02*
X47085000Y-3715000D01*
X45720000Y-15240000D02*
X45720000Y-8011701D01*
X45720000Y-8011701D02*
X47085000Y-6646701D01*
%TO.N,PIN35_H*%
X35560000Y-20860448D02*
X35560000Y-21590000D01*
X41275000Y-15145448D02*
X35560000Y-20860448D01*
X41275000Y-13970000D02*
X41275000Y-15145448D01*
%TO.N,PIN41_H*%
X38100000Y-19685000D02*
X38100000Y-21590000D01*
X42545000Y-13970000D02*
X42545000Y-15240000D01*
X42545000Y-15240000D02*
X38100000Y-19685000D01*
%TO.N,PIN40_H*%
X33020000Y-19685000D02*
X33020000Y-21590000D01*
X37369052Y-18415000D02*
X34290000Y-18415000D01*
X40315883Y-15468169D02*
X37369052Y-18415000D01*
X40315883Y-12700000D02*
X40315883Y-15468169D01*
X34290000Y-18415000D02*
X33020000Y-19685000D01*
%TO.N,PIN70*%
X39591383Y-15167364D02*
X39591383Y-9303617D01*
X42005000Y-6890000D02*
X42005000Y-3715000D01*
X42005000Y-3715000D02*
X43180000Y-2540000D01*
X39591383Y-9303617D02*
X42005000Y-6890000D01*
%TO.N,PIN34_H*%
X30480000Y-19050000D02*
X30480000Y-21590000D01*
X32729000Y-16801000D02*
X30480000Y-19050000D01*
X37570258Y-16801000D02*
X32729000Y-16801000D01*
X38866883Y-15504375D02*
X37570258Y-16801000D01*
X38866883Y-12742383D02*
X38866883Y-15504375D01*
X38824500Y-12700000D02*
X38866883Y-12742383D01*
%TO.N,PIN71*%
X39465000Y-3715000D02*
X40640000Y-2540000D01*
X39465000Y-6890000D02*
X39465000Y-3715000D01*
X38100000Y-8255000D02*
X39465000Y-6890000D01*
X38100000Y-15162187D02*
X38100000Y-8255000D01*
X38141883Y-15204070D02*
X38100000Y-15162187D01*
%TO.N,PIN72*%
X36925000Y-3715000D02*
X38100000Y-2540000D01*
X36217002Y-7597998D02*
X36925000Y-6890000D01*
X36217002Y-14627002D02*
X36217002Y-7597998D01*
X36925000Y-6890000D02*
X36925000Y-3715000D01*
X36830000Y-15240000D02*
X36217002Y-14627002D01*
%TO.N,PIN73*%
X34385000Y-3715000D02*
X35560000Y-2540000D01*
X35618500Y-15240000D02*
X35618500Y-8070201D01*
X35618500Y-8070201D02*
X34385000Y-6836701D01*
X34385000Y-6836701D02*
X34385000Y-3715000D01*
%TO.N,PIN33_H*%
X27940000Y-19685000D02*
X27940000Y-21590000D01*
X33020000Y-14605000D02*
X27940000Y-19685000D01*
X33020000Y-13970000D02*
X33020000Y-14605000D01*
%TO.N,PIN30_H*%
X25400000Y-20320000D02*
X25400000Y-21590000D01*
X31750000Y-15175701D02*
X27875701Y-19050000D01*
X27875701Y-19050000D02*
X26670000Y-19050000D01*
X31750000Y-13970000D02*
X31750000Y-15175701D01*
X26670000Y-19050000D02*
X25400000Y-20320000D01*
%TO.N,PIN29_H*%
X27874305Y-18415000D02*
X24130000Y-18415000D01*
X30748500Y-15540805D02*
X27874305Y-18415000D01*
X22860000Y-19685000D02*
X22860000Y-21590000D01*
X30748500Y-12700000D02*
X30748500Y-15540805D01*
X24130000Y-18415000D02*
X22860000Y-19685000D01*
%TO.N,PIN74*%
X31845000Y-6890000D02*
X31845000Y-3715000D01*
X30024000Y-8711000D02*
X31845000Y-6890000D01*
X30024000Y-15240000D02*
X30024000Y-8711000D01*
X31845000Y-3715000D02*
X33020000Y-2540000D01*
%TO.N,PIN28_H*%
X20320000Y-19685000D02*
X20320000Y-21590000D01*
X28330305Y-16510000D02*
X23495000Y-16510000D01*
X23495000Y-16510000D02*
X20320000Y-19685000D01*
X29299500Y-15540805D02*
X28330305Y-16510000D01*
X29299500Y-12700000D02*
X29299500Y-15540805D01*
%TO.N,PIN75*%
X28575000Y-12065000D02*
X29115000Y-11525000D01*
X29115000Y-3905000D02*
X30480000Y-2540000D01*
X28575000Y-15240000D02*
X28575000Y-12065000D01*
X29115000Y-11525000D02*
X29115000Y-3905000D01*
%TO.N,PIN76*%
X26670000Y-3810000D02*
X27940000Y-2540000D01*
X26035000Y-10740305D02*
X26035000Y-7376701D01*
X26035000Y-7376701D02*
X26670000Y-6741701D01*
X26670000Y-6741701D02*
X26670000Y-3810000D01*
X27305000Y-15240000D02*
X27305000Y-12010305D01*
X27305000Y-12010305D02*
X26035000Y-10740305D01*
%TO.N,PIN77*%
X24225000Y-9566701D02*
X24225000Y-3715000D01*
X26035000Y-11376701D02*
X24225000Y-9566701D01*
X26035000Y-15240000D02*
X26035000Y-11376701D01*
X24225000Y-3715000D02*
X25400000Y-2540000D01*
%TO.N,PIN27_H*%
X17780000Y-19685000D02*
X17780000Y-21590000D01*
X22225000Y-15240000D02*
X17780000Y-19685000D01*
%TO.N,PIN26_H*%
X15240000Y-20320000D02*
X15240000Y-21590000D01*
X16510000Y-19685000D02*
X15875000Y-19685000D01*
X20955000Y-15240000D02*
X16510000Y-19685000D01*
X15875000Y-19685000D02*
X15240000Y-20320000D01*
%TO.N,PIN25_H*%
X12700000Y-19685000D02*
X12700000Y-21590000D01*
X15875000Y-19050000D02*
X13335000Y-19050000D01*
X13335000Y-19050000D02*
X12700000Y-19685000D01*
X19685000Y-15240000D02*
X15875000Y-19050000D01*
%TO.N,PIN79*%
X22225000Y-2540000D02*
X22860000Y-2540000D01*
X19050000Y-5715000D02*
X22225000Y-2540000D01*
X13970000Y-13335000D02*
X13970000Y-11821701D01*
X13970000Y-11821701D02*
X19050000Y-6741701D01*
X19050000Y-6741701D02*
X19050000Y-5715000D01*
%TO.N,PIN80*%
X19685000Y-2540000D02*
X20320000Y-2540000D01*
X16415000Y-5810000D02*
X19685000Y-2540000D01*
X16415000Y-7080000D02*
X16415000Y-5810000D01*
X12794006Y-10700994D02*
X16415000Y-7080000D01*
X12794006Y-13335000D02*
X12794006Y-10700994D01*
%TO.N,PIN81*%
X17145000Y-2540000D02*
X17780000Y-2540000D01*
X13875000Y-5810000D02*
X17145000Y-2540000D01*
X13875000Y-7715000D02*
X13875000Y-5810000D01*
X11794503Y-9795497D02*
X13875000Y-7715000D01*
X11794503Y-13335000D02*
X11794503Y-9795497D01*
%TO.N,PIN82*%
X14605000Y-2540000D02*
X15240000Y-2540000D01*
X11430000Y-5715000D02*
X14605000Y-2540000D01*
X11430000Y-9281701D02*
X11430000Y-5715000D01*
X10795000Y-9916701D02*
X11430000Y-9281701D01*
X10795000Y-13335000D02*
X10795000Y-9916701D01*
%TO.N,PIN83*%
X8985000Y-12795000D02*
X8985000Y-5620000D01*
X9525000Y-13335000D02*
X8985000Y-12795000D01*
X8985000Y-5620000D02*
X12065000Y-2540000D01*
X12065000Y-2540000D02*
X12700000Y-2540000D01*
%TO.N,PIN84*%
X9525000Y-2540000D02*
X10160000Y-2540000D01*
X6445000Y-11525000D02*
X6445000Y-5620000D01*
X6445000Y-5620000D02*
X9525000Y-2540000D01*
X8255000Y-13335000D02*
X6445000Y-11525000D01*
%TO.N,PIN39_H*%
X10160000Y-19050000D02*
X10160000Y-21590000D01*
X10959000Y-18251000D02*
X10160000Y-19050000D01*
X15548903Y-18251000D02*
X10959000Y-18251000D01*
X19757451Y-14042452D02*
X15548903Y-18251000D01*
%TO.N,PIN36_H*%
X16265305Y-16510000D02*
X19685000Y-13090305D01*
X19685000Y-13090305D02*
X19685000Y-12700000D01*
X7620000Y-17780000D02*
X8890000Y-16510000D01*
X8890000Y-16510000D02*
X16265305Y-16510000D01*
X7620000Y-21590000D02*
X7620000Y-17780000D01*
%TO.N,PIN37_H*%
X18415000Y-13336396D02*
X18415000Y-13335000D01*
X15875698Y-15875698D02*
X18415000Y-13336396D01*
X8255698Y-15875698D02*
X15875698Y-15875698D01*
X5080000Y-21590000D02*
X5080000Y-19051396D01*
X5080000Y-19051396D02*
X8255698Y-15875698D01*
%TO.N,PIN38_H*%
X17234500Y-13880500D02*
X17234500Y-12700000D01*
X15875000Y-15240000D02*
X17234500Y-13880500D01*
X8255000Y-15240000D02*
X15875000Y-15240000D01*
X2540000Y-20955000D02*
X8255000Y-15240000D01*
X2540000Y-21590000D02*
X2540000Y-20955000D01*
%TO.N,PIN85*%
X3905000Y-5620000D02*
X6985000Y-2540000D01*
X6985000Y-2540000D02*
X7620000Y-2540000D01*
X3905000Y-10255000D02*
X3905000Y-5620000D01*
X6985000Y-13335000D02*
X3905000Y-10255000D01*
%TO.N,PIN63_H*%
X16510000Y-13725305D02*
X16510000Y-11517137D01*
X15540305Y-14695000D02*
X16510000Y-13725305D01*
X14939695Y-14695000D02*
X15540305Y-14695000D01*
X14759695Y-14515000D02*
X14939695Y-14695000D01*
X6440000Y-14515000D02*
X14759695Y-14515000D01*
X2323000Y-11848000D02*
X5170000Y-14695000D01*
X6260000Y-14695000D02*
X6440000Y-14515000D01*
X2323000Y-6567000D02*
X2323000Y-11848000D01*
X5170000Y-14695000D02*
X6260000Y-14695000D01*
X2540000Y-6350000D02*
X2323000Y-6567000D01*
%TO.N,PIN86*%
X2825000Y-3715000D02*
X3905000Y-3715000D01*
X762000Y-13462000D02*
X762000Y-5778000D01*
X2540000Y-15240000D02*
X762000Y-13462000D01*
X762000Y-5778000D02*
X2825000Y-3715000D01*
X6985000Y-15240000D02*
X2540000Y-15240000D01*
X3905000Y-3715000D02*
X5080000Y-2540000D01*
%TD*%
M02*
