%TF.GenerationSoftware,KiCad,Pcbnew,7.0.2*%
%TF.CreationDate,2023-07-04T13:12:25+09:00*%
%TF.ProjectId,TangNano9K5V,54616e67-4e61-46e6-9f39-4b35562e6b69,rev?*%
%TF.SameCoordinates,Original*%
%TF.FileFunction,Soldermask,Top*%
%TF.FilePolarity,Negative*%
%FSLAX46Y46*%
G04 Gerber Fmt 4.6, Leading zero omitted, Abs format (unit mm)*
G04 Created by KiCad (PCBNEW 7.0.2) date 2023-07-04 13:12:25*
%MOMM*%
%LPD*%
G01*
G04 APERTURE LIST*
G04 Aperture macros list*
%AMRoundRect*
0 Rectangle with rounded corners*
0 $1 Rounding radius*
0 $2 $3 $4 $5 $6 $7 $8 $9 X,Y pos of 4 corners*
0 Add a 4 corners polygon primitive as box body*
4,1,4,$2,$3,$4,$5,$6,$7,$8,$9,$2,$3,0*
0 Add four circle primitives for the rounded corners*
1,1,$1+$1,$2,$3*
1,1,$1+$1,$4,$5*
1,1,$1+$1,$6,$7*
1,1,$1+$1,$8,$9*
0 Add four rect primitives between the rounded corners*
20,1,$1+$1,$2,$3,$4,$5,0*
20,1,$1+$1,$4,$5,$6,$7,0*
20,1,$1+$1,$6,$7,$8,$9,0*
20,1,$1+$1,$8,$9,$2,$3,0*%
G04 Aperture macros list end*
%ADD10RoundRect,0.237500X0.237500X-0.300000X0.237500X0.300000X-0.237500X0.300000X-0.237500X-0.300000X0*%
%ADD11R,0.355600X1.676400*%
%ADD12R,1.700000X1.700000*%
%ADD13O,1.700000X1.700000*%
%ADD14RoundRect,0.237500X-0.237500X0.300000X-0.237500X-0.300000X0.237500X-0.300000X0.237500X0.300000X0*%
%ADD15RoundRect,0.237500X0.300000X0.237500X-0.300000X0.237500X-0.300000X-0.237500X0.300000X-0.237500X0*%
%ADD16R,0.650000X2.000000*%
G04 APERTURE END LIST*
D10*
%TO.C,C3*%
X5588000Y-16711000D03*
X5588000Y-14986000D03*
%TD*%
D11*
%TO.C,U6*%
X55596001Y-16764000D03*
X56246002Y-16764000D03*
X56896000Y-16764000D03*
X57546002Y-16764000D03*
X58196000Y-16764000D03*
X58845999Y-16764000D03*
X59496000Y-16764000D03*
X60145999Y-16764000D03*
X60796000Y-16764000D03*
X61445999Y-16764000D03*
X61446001Y-11125200D03*
X60796003Y-11125200D03*
X60146002Y-11125200D03*
X59496003Y-11125200D03*
X58846002Y-11125200D03*
X58196003Y-11125200D03*
X57546002Y-11125200D03*
X56896003Y-11125200D03*
X56246002Y-11125200D03*
X55596003Y-11125200D03*
%TD*%
D12*
%TO.C,J2*%
X2540000Y-2540000D03*
D13*
X5080000Y-2540000D03*
X7620000Y-2540000D03*
X10160000Y-2540000D03*
X12700000Y-2540000D03*
X15240000Y-2540000D03*
X17780000Y-2540000D03*
X20320000Y-2540000D03*
X22860000Y-2540000D03*
X25400000Y-2540000D03*
X27940000Y-2540000D03*
X30480000Y-2540000D03*
X33020000Y-2540000D03*
X35560000Y-2540000D03*
X38100000Y-2540000D03*
X40640000Y-2540000D03*
X43180000Y-2540000D03*
X45720000Y-2540000D03*
X48260000Y-2540000D03*
X50800000Y-2540000D03*
X53340000Y-2540000D03*
X55880000Y-2540000D03*
X58420000Y-2540000D03*
X60960000Y-2540000D03*
%TD*%
D14*
%TO.C,C14*%
X53848000Y-11229000D03*
X53848000Y-12954000D03*
%TD*%
D10*
%TO.C,C9*%
X34544000Y-16764000D03*
X34544000Y-15039000D03*
%TD*%
%TO.C,C11*%
X44196000Y-16764000D03*
X44196000Y-15039000D03*
%TD*%
%TO.C,C7*%
X24892000Y-16764000D03*
X24892000Y-15039000D03*
%TD*%
%TO.C,C5*%
X15240000Y-16764000D03*
X15240000Y-15039000D03*
%TD*%
D14*
%TO.C,C12*%
X44196000Y-11229000D03*
X44196000Y-12954000D03*
%TD*%
D15*
%TO.C,C1*%
X3249000Y-10160000D03*
X1524000Y-10160000D03*
%TD*%
D14*
%TO.C,C8*%
X24892000Y-11229000D03*
X24892000Y-12954000D03*
%TD*%
%TO.C,C10*%
X34544000Y-11229000D03*
X34544000Y-12954000D03*
%TD*%
D15*
%TO.C,C2*%
X3249000Y-17780000D03*
X1524000Y-17780000D03*
%TD*%
D14*
%TO.C,C6*%
X15240000Y-11229000D03*
X15240000Y-12954000D03*
%TD*%
D11*
%TO.C,U1*%
X7336001Y-16764000D03*
X7986002Y-16764000D03*
X8636000Y-16764000D03*
X9286002Y-16764000D03*
X9936000Y-16764000D03*
X10585999Y-16764000D03*
X11236000Y-16764000D03*
X11885999Y-16764000D03*
X12536000Y-16764000D03*
X13185999Y-16764000D03*
X13186001Y-11125200D03*
X12536003Y-11125200D03*
X11886002Y-11125200D03*
X11236003Y-11125200D03*
X10586002Y-11125200D03*
X9936003Y-11125200D03*
X9286002Y-11125200D03*
X8636003Y-11125200D03*
X7986002Y-11125200D03*
X7336003Y-11125200D03*
%TD*%
%TO.C,U4*%
X36292001Y-16764000D03*
X36942002Y-16764000D03*
X37592000Y-16764000D03*
X38242002Y-16764000D03*
X38892000Y-16764000D03*
X39541999Y-16764000D03*
X40192000Y-16764000D03*
X40841999Y-16764000D03*
X41492000Y-16764000D03*
X42141999Y-16764000D03*
X42142001Y-11125200D03*
X41492003Y-11125200D03*
X40842002Y-11125200D03*
X40192003Y-11125200D03*
X39542002Y-11125200D03*
X38892003Y-11125200D03*
X38242002Y-11125200D03*
X37592003Y-11125200D03*
X36942002Y-11125200D03*
X36292003Y-11125200D03*
%TD*%
%TO.C,U5*%
X45944001Y-16764000D03*
X46594002Y-16764000D03*
X47244000Y-16764000D03*
X47894002Y-16764000D03*
X48544000Y-16764000D03*
X49193999Y-16764000D03*
X49844000Y-16764000D03*
X50493999Y-16764000D03*
X51144000Y-16764000D03*
X51793999Y-16764000D03*
X51794001Y-11125200D03*
X51144003Y-11125200D03*
X50494002Y-11125200D03*
X49844003Y-11125200D03*
X49194002Y-11125200D03*
X48544003Y-11125200D03*
X47894002Y-11125200D03*
X47244003Y-11125200D03*
X46594002Y-11125200D03*
X45944003Y-11125200D03*
%TD*%
D14*
%TO.C,C4*%
X5588000Y-11229000D03*
X5588000Y-12954000D03*
%TD*%
D16*
%TO.C,PS1*%
X3424000Y-12328000D03*
X2474000Y-12328000D03*
X1524000Y-12328000D03*
X1524000Y-15748000D03*
X3424000Y-15748000D03*
%TD*%
D11*
%TO.C,U2*%
X16988001Y-16764000D03*
X17638002Y-16764000D03*
X18288000Y-16764000D03*
X18938002Y-16764000D03*
X19588000Y-16764000D03*
X20237999Y-16764000D03*
X20888000Y-16764000D03*
X21537999Y-16764000D03*
X22188000Y-16764000D03*
X22837999Y-16764000D03*
X22838001Y-11125200D03*
X22188003Y-11125200D03*
X21538002Y-11125200D03*
X20888003Y-11125200D03*
X20238002Y-11125200D03*
X19588003Y-11125200D03*
X18938002Y-11125200D03*
X18288003Y-11125200D03*
X17638002Y-11125200D03*
X16988003Y-11125200D03*
%TD*%
%TO.C,U3*%
X26640001Y-16764000D03*
X27290002Y-16764000D03*
X27940000Y-16764000D03*
X28590002Y-16764000D03*
X29240000Y-16764000D03*
X29889999Y-16764000D03*
X30540000Y-16764000D03*
X31189999Y-16764000D03*
X31840000Y-16764000D03*
X32489999Y-16764000D03*
X32490001Y-11125200D03*
X31840003Y-11125200D03*
X31190002Y-11125200D03*
X30540003Y-11125200D03*
X29890002Y-11125200D03*
X29240003Y-11125200D03*
X28590002Y-11125200D03*
X27940003Y-11125200D03*
X27290002Y-11125200D03*
X26640003Y-11125200D03*
%TD*%
D10*
%TO.C,C13*%
X53848000Y-16764000D03*
X53848000Y-15039000D03*
%TD*%
D12*
%TO.C,J1*%
X2540000Y-25400000D03*
D13*
X5080000Y-25400000D03*
X7620000Y-25400000D03*
X10160000Y-25400000D03*
X12700000Y-25400000D03*
X15240000Y-25400000D03*
X17780000Y-25400000D03*
X20320000Y-25400000D03*
X22860000Y-25400000D03*
X25400000Y-25400000D03*
X27940000Y-25400000D03*
X30480000Y-25400000D03*
X33020000Y-25400000D03*
X35560000Y-25400000D03*
X38100000Y-25400000D03*
X40640000Y-25400000D03*
X43180000Y-25400000D03*
X45720000Y-25400000D03*
X48260000Y-25400000D03*
X50800000Y-25400000D03*
X53340000Y-25400000D03*
X55880000Y-25400000D03*
X58420000Y-25400000D03*
X60960000Y-25400000D03*
%TD*%
D12*
%TO.C,J4*%
X2540000Y-6350000D03*
D13*
X5080000Y-6350000D03*
X7620000Y-6350000D03*
X10160000Y-6350000D03*
X12700000Y-6350000D03*
X15240000Y-6350000D03*
X17780000Y-6350000D03*
X20320000Y-6350000D03*
X22860000Y-6350000D03*
X25400000Y-6350000D03*
X27940000Y-6350000D03*
X30480000Y-6350000D03*
X33020000Y-6350000D03*
X35560000Y-6350000D03*
X38100000Y-6350000D03*
X40640000Y-6350000D03*
X43180000Y-6350000D03*
X45720000Y-6350000D03*
X48260000Y-6350000D03*
X50800000Y-6350000D03*
X53340000Y-6350000D03*
X55880000Y-6350000D03*
X58420000Y-6350000D03*
X60960000Y-6350000D03*
%TD*%
D12*
%TO.C,J3*%
X2540000Y-21590000D03*
D13*
X5080000Y-21590000D03*
X7620000Y-21590000D03*
X10160000Y-21590000D03*
X12700000Y-21590000D03*
X15240000Y-21590000D03*
X17780000Y-21590000D03*
X20320000Y-21590000D03*
X22860000Y-21590000D03*
X25400000Y-21590000D03*
X27940000Y-21590000D03*
X30480000Y-21590000D03*
X33020000Y-21590000D03*
X35560000Y-21590000D03*
X38100000Y-21590000D03*
X40640000Y-21590000D03*
X43180000Y-21590000D03*
X45720000Y-21590000D03*
X48260000Y-21590000D03*
X50800000Y-21590000D03*
X53340000Y-21590000D03*
X55880000Y-21590000D03*
X58420000Y-21590000D03*
X60960000Y-21590000D03*
%TD*%
M02*
