%TF.GenerationSoftware,KiCad,Pcbnew,7.0.2*%
%TF.CreationDate,2023-07-04T13:12:25+09:00*%
%TF.ProjectId,TangNano9K5V,54616e67-4e61-46e6-9f39-4b35562e6b69,rev?*%
%TF.SameCoordinates,Original*%
%TF.FileFunction,Legend,Top*%
%TF.FilePolarity,Positive*%
%FSLAX46Y46*%
G04 Gerber Fmt 4.6, Leading zero omitted, Abs format (unit mm)*
G04 Created by KiCad (PCBNEW 7.0.2) date 2023-07-04 13:12:25*
%MOMM*%
%LPD*%
G01*
G04 APERTURE LIST*
%ADD10C,0.120000*%
%ADD11C,0.100000*%
%ADD12C,0.150000*%
%ADD13C,0.250000*%
%ADD14C,0.152400*%
G04 APERTURE END LIST*
D10*
X39766857Y-259857D02*
X40433523Y-259857D01*
X40433523Y-259857D02*
X40004952Y-1159857D01*
X41338285Y-1159857D02*
X40766857Y-1159857D01*
X41052571Y-1159857D02*
X41052571Y-259857D01*
X41052571Y-259857D02*
X40957333Y-388428D01*
X40957333Y-388428D02*
X40862095Y-474142D01*
X40862095Y-474142D02*
X40766857Y-517000D01*
X14414476Y-26888571D02*
X14462095Y-26845714D01*
X14462095Y-26845714D02*
X14557333Y-26802857D01*
X14557333Y-26802857D02*
X14795428Y-26802857D01*
X14795428Y-26802857D02*
X14890666Y-26845714D01*
X14890666Y-26845714D02*
X14938285Y-26888571D01*
X14938285Y-26888571D02*
X14985904Y-26974285D01*
X14985904Y-26974285D02*
X14985904Y-27060000D01*
X14985904Y-27060000D02*
X14938285Y-27188571D01*
X14938285Y-27188571D02*
X14366857Y-27702857D01*
X14366857Y-27702857D02*
X14985904Y-27702857D01*
X15843047Y-26802857D02*
X15652571Y-26802857D01*
X15652571Y-26802857D02*
X15557333Y-26845714D01*
X15557333Y-26845714D02*
X15509714Y-26888571D01*
X15509714Y-26888571D02*
X15414476Y-27017142D01*
X15414476Y-27017142D02*
X15366857Y-27188571D01*
X15366857Y-27188571D02*
X15366857Y-27531428D01*
X15366857Y-27531428D02*
X15414476Y-27617142D01*
X15414476Y-27617142D02*
X15462095Y-27660000D01*
X15462095Y-27660000D02*
X15557333Y-27702857D01*
X15557333Y-27702857D02*
X15747809Y-27702857D01*
X15747809Y-27702857D02*
X15843047Y-27660000D01*
X15843047Y-27660000D02*
X15890666Y-27617142D01*
X15890666Y-27617142D02*
X15938285Y-27531428D01*
X15938285Y-27531428D02*
X15938285Y-27317142D01*
X15938285Y-27317142D02*
X15890666Y-27231428D01*
X15890666Y-27231428D02*
X15843047Y-27188571D01*
X15843047Y-27188571D02*
X15747809Y-27145714D01*
X15747809Y-27145714D02*
X15557333Y-27145714D01*
X15557333Y-27145714D02*
X15462095Y-27188571D01*
X15462095Y-27188571D02*
X15414476Y-27231428D01*
X15414476Y-27231428D02*
X15366857Y-27317142D01*
X16954476Y-26888571D02*
X17002095Y-26845714D01*
X17002095Y-26845714D02*
X17097333Y-26802857D01*
X17097333Y-26802857D02*
X17335428Y-26802857D01*
X17335428Y-26802857D02*
X17430666Y-26845714D01*
X17430666Y-26845714D02*
X17478285Y-26888571D01*
X17478285Y-26888571D02*
X17525904Y-26974285D01*
X17525904Y-26974285D02*
X17525904Y-27060000D01*
X17525904Y-27060000D02*
X17478285Y-27188571D01*
X17478285Y-27188571D02*
X16906857Y-27702857D01*
X16906857Y-27702857D02*
X17525904Y-27702857D01*
X17859238Y-26802857D02*
X18525904Y-26802857D01*
X18525904Y-26802857D02*
X18097333Y-27702857D01*
X29606857Y-26802857D02*
X30225904Y-26802857D01*
X30225904Y-26802857D02*
X29892571Y-27145714D01*
X29892571Y-27145714D02*
X30035428Y-27145714D01*
X30035428Y-27145714D02*
X30130666Y-27188571D01*
X30130666Y-27188571D02*
X30178285Y-27231428D01*
X30178285Y-27231428D02*
X30225904Y-27317142D01*
X30225904Y-27317142D02*
X30225904Y-27531428D01*
X30225904Y-27531428D02*
X30178285Y-27617142D01*
X30178285Y-27617142D02*
X30130666Y-27660000D01*
X30130666Y-27660000D02*
X30035428Y-27702857D01*
X30035428Y-27702857D02*
X29749714Y-27702857D01*
X29749714Y-27702857D02*
X29654476Y-27660000D01*
X29654476Y-27660000D02*
X29606857Y-27617142D01*
X31083047Y-27102857D02*
X31083047Y-27702857D01*
X30844952Y-26760000D02*
X30606857Y-27402857D01*
X30606857Y-27402857D02*
X31225904Y-27402857D01*
X40290666Y-27102857D02*
X40290666Y-27702857D01*
X40052571Y-26760000D02*
X39814476Y-27402857D01*
X39814476Y-27402857D02*
X40433523Y-27402857D01*
X40766857Y-26888571D02*
X40814476Y-26845714D01*
X40814476Y-26845714D02*
X40909714Y-26802857D01*
X40909714Y-26802857D02*
X41147809Y-26802857D01*
X41147809Y-26802857D02*
X41243047Y-26845714D01*
X41243047Y-26845714D02*
X41290666Y-26888571D01*
X41290666Y-26888571D02*
X41338285Y-26974285D01*
X41338285Y-26974285D02*
X41338285Y-27060000D01*
X41338285Y-27060000D02*
X41290666Y-27188571D01*
X41290666Y-27188571D02*
X40719238Y-27702857D01*
X40719238Y-27702857D02*
X41338285Y-27702857D01*
X29606857Y-259857D02*
X30273523Y-259857D01*
X30273523Y-259857D02*
X29844952Y-1159857D01*
X31130666Y-259857D02*
X30654476Y-259857D01*
X30654476Y-259857D02*
X30606857Y-688428D01*
X30606857Y-688428D02*
X30654476Y-645571D01*
X30654476Y-645571D02*
X30749714Y-602714D01*
X30749714Y-602714D02*
X30987809Y-602714D01*
X30987809Y-602714D02*
X31083047Y-645571D01*
X31083047Y-645571D02*
X31130666Y-688428D01*
X31130666Y-688428D02*
X31178285Y-774142D01*
X31178285Y-774142D02*
X31178285Y-988428D01*
X31178285Y-988428D02*
X31130666Y-1074142D01*
X31130666Y-1074142D02*
X31083047Y-1117000D01*
X31083047Y-1117000D02*
X30987809Y-1159857D01*
X30987809Y-1159857D02*
X30749714Y-1159857D01*
X30749714Y-1159857D02*
X30654476Y-1117000D01*
X30654476Y-1117000D02*
X30606857Y-1074142D01*
D11*
X1879523Y-14380095D02*
X1422380Y-14380095D01*
X1650952Y-14380095D02*
X1650952Y-13580095D01*
X1650952Y-13580095D02*
X1574761Y-13694380D01*
X1574761Y-13694380D02*
X1498571Y-13770571D01*
X1498571Y-13770571D02*
X1422380Y-13808666D01*
X2222381Y-14303904D02*
X2260476Y-14342000D01*
X2260476Y-14342000D02*
X2222381Y-14380095D01*
X2222381Y-14380095D02*
X2184285Y-14342000D01*
X2184285Y-14342000D02*
X2222381Y-14303904D01*
X2222381Y-14303904D02*
X2222381Y-14380095D01*
X2717618Y-13922952D02*
X2641428Y-13884857D01*
X2641428Y-13884857D02*
X2603333Y-13846761D01*
X2603333Y-13846761D02*
X2565237Y-13770571D01*
X2565237Y-13770571D02*
X2565237Y-13732476D01*
X2565237Y-13732476D02*
X2603333Y-13656285D01*
X2603333Y-13656285D02*
X2641428Y-13618190D01*
X2641428Y-13618190D02*
X2717618Y-13580095D01*
X2717618Y-13580095D02*
X2869999Y-13580095D01*
X2869999Y-13580095D02*
X2946190Y-13618190D01*
X2946190Y-13618190D02*
X2984285Y-13656285D01*
X2984285Y-13656285D02*
X3022380Y-13732476D01*
X3022380Y-13732476D02*
X3022380Y-13770571D01*
X3022380Y-13770571D02*
X2984285Y-13846761D01*
X2984285Y-13846761D02*
X2946190Y-13884857D01*
X2946190Y-13884857D02*
X2869999Y-13922952D01*
X2869999Y-13922952D02*
X2717618Y-13922952D01*
X2717618Y-13922952D02*
X2641428Y-13961047D01*
X2641428Y-13961047D02*
X2603333Y-13999142D01*
X2603333Y-13999142D02*
X2565237Y-14075333D01*
X2565237Y-14075333D02*
X2565237Y-14227714D01*
X2565237Y-14227714D02*
X2603333Y-14303904D01*
X2603333Y-14303904D02*
X2641428Y-14342000D01*
X2641428Y-14342000D02*
X2717618Y-14380095D01*
X2717618Y-14380095D02*
X2869999Y-14380095D01*
X2869999Y-14380095D02*
X2946190Y-14342000D01*
X2946190Y-14342000D02*
X2984285Y-14303904D01*
X2984285Y-14303904D02*
X3022380Y-14227714D01*
X3022380Y-14227714D02*
X3022380Y-14075333D01*
X3022380Y-14075333D02*
X2984285Y-13999142D01*
X2984285Y-13999142D02*
X2946190Y-13961047D01*
X2946190Y-13961047D02*
X2869999Y-13922952D01*
X3250952Y-13580095D02*
X3517619Y-14380095D01*
X3517619Y-14380095D02*
X3784285Y-13580095D01*
D10*
X34686857Y-259857D02*
X35353523Y-259857D01*
X35353523Y-259857D02*
X34924952Y-1159857D01*
X35639238Y-259857D02*
X36258285Y-259857D01*
X36258285Y-259857D02*
X35924952Y-602714D01*
X35924952Y-602714D02*
X36067809Y-602714D01*
X36067809Y-602714D02*
X36163047Y-645571D01*
X36163047Y-645571D02*
X36210666Y-688428D01*
X36210666Y-688428D02*
X36258285Y-774142D01*
X36258285Y-774142D02*
X36258285Y-988428D01*
X36258285Y-988428D02*
X36210666Y-1074142D01*
X36210666Y-1074142D02*
X36163047Y-1117000D01*
X36163047Y-1117000D02*
X36067809Y-1159857D01*
X36067809Y-1159857D02*
X35782095Y-1159857D01*
X35782095Y-1159857D02*
X35686857Y-1117000D01*
X35686857Y-1117000D02*
X35639238Y-1074142D01*
X32146857Y-259857D02*
X32813523Y-259857D01*
X32813523Y-259857D02*
X32384952Y-1159857D01*
X33623047Y-559857D02*
X33623047Y-1159857D01*
X33384952Y-217000D02*
X33146857Y-859857D01*
X33146857Y-859857D02*
X33765904Y-859857D01*
X12064952Y-645571D02*
X11969714Y-602714D01*
X11969714Y-602714D02*
X11922095Y-559857D01*
X11922095Y-559857D02*
X11874476Y-474142D01*
X11874476Y-474142D02*
X11874476Y-431285D01*
X11874476Y-431285D02*
X11922095Y-345571D01*
X11922095Y-345571D02*
X11969714Y-302714D01*
X11969714Y-302714D02*
X12064952Y-259857D01*
X12064952Y-259857D02*
X12255428Y-259857D01*
X12255428Y-259857D02*
X12350666Y-302714D01*
X12350666Y-302714D02*
X12398285Y-345571D01*
X12398285Y-345571D02*
X12445904Y-431285D01*
X12445904Y-431285D02*
X12445904Y-474142D01*
X12445904Y-474142D02*
X12398285Y-559857D01*
X12398285Y-559857D02*
X12350666Y-602714D01*
X12350666Y-602714D02*
X12255428Y-645571D01*
X12255428Y-645571D02*
X12064952Y-645571D01*
X12064952Y-645571D02*
X11969714Y-688428D01*
X11969714Y-688428D02*
X11922095Y-731285D01*
X11922095Y-731285D02*
X11874476Y-817000D01*
X11874476Y-817000D02*
X11874476Y-988428D01*
X11874476Y-988428D02*
X11922095Y-1074142D01*
X11922095Y-1074142D02*
X11969714Y-1117000D01*
X11969714Y-1117000D02*
X12064952Y-1159857D01*
X12064952Y-1159857D02*
X12255428Y-1159857D01*
X12255428Y-1159857D02*
X12350666Y-1117000D01*
X12350666Y-1117000D02*
X12398285Y-1074142D01*
X12398285Y-1074142D02*
X12445904Y-988428D01*
X12445904Y-988428D02*
X12445904Y-817000D01*
X12445904Y-817000D02*
X12398285Y-731285D01*
X12398285Y-731285D02*
X12350666Y-688428D01*
X12350666Y-688428D02*
X12255428Y-645571D01*
X12779238Y-259857D02*
X13398285Y-259857D01*
X13398285Y-259857D02*
X13064952Y-602714D01*
X13064952Y-602714D02*
X13207809Y-602714D01*
X13207809Y-602714D02*
X13303047Y-645571D01*
X13303047Y-645571D02*
X13350666Y-688428D01*
X13350666Y-688428D02*
X13398285Y-774142D01*
X13398285Y-774142D02*
X13398285Y-988428D01*
X13398285Y-988428D02*
X13350666Y-1074142D01*
X13350666Y-1074142D02*
X13303047Y-1117000D01*
X13303047Y-1117000D02*
X13207809Y-1159857D01*
X13207809Y-1159857D02*
X12922095Y-1159857D01*
X12922095Y-1159857D02*
X12826857Y-1117000D01*
X12826857Y-1117000D02*
X12779238Y-1074142D01*
X60029714Y-259857D02*
X60401142Y-259857D01*
X60401142Y-259857D02*
X60201142Y-602714D01*
X60201142Y-602714D02*
X60286857Y-602714D01*
X60286857Y-602714D02*
X60344000Y-645571D01*
X60344000Y-645571D02*
X60372571Y-688428D01*
X60372571Y-688428D02*
X60401142Y-774142D01*
X60401142Y-774142D02*
X60401142Y-988428D01*
X60401142Y-988428D02*
X60372571Y-1074142D01*
X60372571Y-1074142D02*
X60344000Y-1117000D01*
X60344000Y-1117000D02*
X60286857Y-1159857D01*
X60286857Y-1159857D02*
X60115428Y-1159857D01*
X60115428Y-1159857D02*
X60058285Y-1117000D01*
X60058285Y-1117000D02*
X60029714Y-1074142D01*
X60572571Y-259857D02*
X60772571Y-1159857D01*
X60772571Y-1159857D02*
X60972571Y-259857D01*
X61115429Y-259857D02*
X61486857Y-259857D01*
X61486857Y-259857D02*
X61286857Y-602714D01*
X61286857Y-602714D02*
X61372572Y-602714D01*
X61372572Y-602714D02*
X61429715Y-645571D01*
X61429715Y-645571D02*
X61458286Y-688428D01*
X61458286Y-688428D02*
X61486857Y-774142D01*
X61486857Y-774142D02*
X61486857Y-988428D01*
X61486857Y-988428D02*
X61458286Y-1074142D01*
X61458286Y-1074142D02*
X61429715Y-1117000D01*
X61429715Y-1117000D02*
X61372572Y-1159857D01*
X61372572Y-1159857D02*
X61201143Y-1159857D01*
X61201143Y-1159857D02*
X61144000Y-1117000D01*
X61144000Y-1117000D02*
X61115429Y-1074142D01*
X58070666Y-26802857D02*
X57880190Y-26802857D01*
X57880190Y-26802857D02*
X57784952Y-26845714D01*
X57784952Y-26845714D02*
X57737333Y-26888571D01*
X57737333Y-26888571D02*
X57642095Y-27017142D01*
X57642095Y-27017142D02*
X57594476Y-27188571D01*
X57594476Y-27188571D02*
X57594476Y-27531428D01*
X57594476Y-27531428D02*
X57642095Y-27617142D01*
X57642095Y-27617142D02*
X57689714Y-27660000D01*
X57689714Y-27660000D02*
X57784952Y-27702857D01*
X57784952Y-27702857D02*
X57975428Y-27702857D01*
X57975428Y-27702857D02*
X58070666Y-27660000D01*
X58070666Y-27660000D02*
X58118285Y-27617142D01*
X58118285Y-27617142D02*
X58165904Y-27531428D01*
X58165904Y-27531428D02*
X58165904Y-27317142D01*
X58165904Y-27317142D02*
X58118285Y-27231428D01*
X58118285Y-27231428D02*
X58070666Y-27188571D01*
X58070666Y-27188571D02*
X57975428Y-27145714D01*
X57975428Y-27145714D02*
X57784952Y-27145714D01*
X57784952Y-27145714D02*
X57689714Y-27188571D01*
X57689714Y-27188571D02*
X57642095Y-27231428D01*
X57642095Y-27231428D02*
X57594476Y-27317142D01*
X58737333Y-27188571D02*
X58642095Y-27145714D01*
X58642095Y-27145714D02*
X58594476Y-27102857D01*
X58594476Y-27102857D02*
X58546857Y-27017142D01*
X58546857Y-27017142D02*
X58546857Y-26974285D01*
X58546857Y-26974285D02*
X58594476Y-26888571D01*
X58594476Y-26888571D02*
X58642095Y-26845714D01*
X58642095Y-26845714D02*
X58737333Y-26802857D01*
X58737333Y-26802857D02*
X58927809Y-26802857D01*
X58927809Y-26802857D02*
X59023047Y-26845714D01*
X59023047Y-26845714D02*
X59070666Y-26888571D01*
X59070666Y-26888571D02*
X59118285Y-26974285D01*
X59118285Y-26974285D02*
X59118285Y-27017142D01*
X59118285Y-27017142D02*
X59070666Y-27102857D01*
X59070666Y-27102857D02*
X59023047Y-27145714D01*
X59023047Y-27145714D02*
X58927809Y-27188571D01*
X58927809Y-27188571D02*
X58737333Y-27188571D01*
X58737333Y-27188571D02*
X58642095Y-27231428D01*
X58642095Y-27231428D02*
X58594476Y-27274285D01*
X58594476Y-27274285D02*
X58546857Y-27360000D01*
X58546857Y-27360000D02*
X58546857Y-27531428D01*
X58546857Y-27531428D02*
X58594476Y-27617142D01*
X58594476Y-27617142D02*
X58642095Y-27660000D01*
X58642095Y-27660000D02*
X58737333Y-27702857D01*
X58737333Y-27702857D02*
X58927809Y-27702857D01*
X58927809Y-27702857D02*
X59023047Y-27660000D01*
X59023047Y-27660000D02*
X59070666Y-27617142D01*
X59070666Y-27617142D02*
X59118285Y-27531428D01*
X59118285Y-27531428D02*
X59118285Y-27360000D01*
X59118285Y-27360000D02*
X59070666Y-27274285D01*
X59070666Y-27274285D02*
X59023047Y-27231428D01*
X59023047Y-27231428D02*
X58927809Y-27188571D01*
X53038285Y-26802857D02*
X52562095Y-26802857D01*
X52562095Y-26802857D02*
X52514476Y-27231428D01*
X52514476Y-27231428D02*
X52562095Y-27188571D01*
X52562095Y-27188571D02*
X52657333Y-27145714D01*
X52657333Y-27145714D02*
X52895428Y-27145714D01*
X52895428Y-27145714D02*
X52990666Y-27188571D01*
X52990666Y-27188571D02*
X53038285Y-27231428D01*
X53038285Y-27231428D02*
X53085904Y-27317142D01*
X53085904Y-27317142D02*
X53085904Y-27531428D01*
X53085904Y-27531428D02*
X53038285Y-27617142D01*
X53038285Y-27617142D02*
X52990666Y-27660000D01*
X52990666Y-27660000D02*
X52895428Y-27702857D01*
X52895428Y-27702857D02*
X52657333Y-27702857D01*
X52657333Y-27702857D02*
X52562095Y-27660000D01*
X52562095Y-27660000D02*
X52514476Y-27617142D01*
X53943047Y-26802857D02*
X53752571Y-26802857D01*
X53752571Y-26802857D02*
X53657333Y-26845714D01*
X53657333Y-26845714D02*
X53609714Y-26888571D01*
X53609714Y-26888571D02*
X53514476Y-27017142D01*
X53514476Y-27017142D02*
X53466857Y-27188571D01*
X53466857Y-27188571D02*
X53466857Y-27531428D01*
X53466857Y-27531428D02*
X53514476Y-27617142D01*
X53514476Y-27617142D02*
X53562095Y-27660000D01*
X53562095Y-27660000D02*
X53657333Y-27702857D01*
X53657333Y-27702857D02*
X53847809Y-27702857D01*
X53847809Y-27702857D02*
X53943047Y-27660000D01*
X53943047Y-27660000D02*
X53990666Y-27617142D01*
X53990666Y-27617142D02*
X54038285Y-27531428D01*
X54038285Y-27531428D02*
X54038285Y-27317142D01*
X54038285Y-27317142D02*
X53990666Y-27231428D01*
X53990666Y-27231428D02*
X53943047Y-27188571D01*
X53943047Y-27188571D02*
X53847809Y-27145714D01*
X53847809Y-27145714D02*
X53657333Y-27145714D01*
X53657333Y-27145714D02*
X53562095Y-27188571D01*
X53562095Y-27188571D02*
X53514476Y-27231428D01*
X53514476Y-27231428D02*
X53466857Y-27317142D01*
X34686857Y-26802857D02*
X35305904Y-26802857D01*
X35305904Y-26802857D02*
X34972571Y-27145714D01*
X34972571Y-27145714D02*
X35115428Y-27145714D01*
X35115428Y-27145714D02*
X35210666Y-27188571D01*
X35210666Y-27188571D02*
X35258285Y-27231428D01*
X35258285Y-27231428D02*
X35305904Y-27317142D01*
X35305904Y-27317142D02*
X35305904Y-27531428D01*
X35305904Y-27531428D02*
X35258285Y-27617142D01*
X35258285Y-27617142D02*
X35210666Y-27660000D01*
X35210666Y-27660000D02*
X35115428Y-27702857D01*
X35115428Y-27702857D02*
X34829714Y-27702857D01*
X34829714Y-27702857D02*
X34734476Y-27660000D01*
X34734476Y-27660000D02*
X34686857Y-27617142D01*
X36210666Y-26802857D02*
X35734476Y-26802857D01*
X35734476Y-26802857D02*
X35686857Y-27231428D01*
X35686857Y-27231428D02*
X35734476Y-27188571D01*
X35734476Y-27188571D02*
X35829714Y-27145714D01*
X35829714Y-27145714D02*
X36067809Y-27145714D01*
X36067809Y-27145714D02*
X36163047Y-27188571D01*
X36163047Y-27188571D02*
X36210666Y-27231428D01*
X36210666Y-27231428D02*
X36258285Y-27317142D01*
X36258285Y-27317142D02*
X36258285Y-27531428D01*
X36258285Y-27531428D02*
X36210666Y-27617142D01*
X36210666Y-27617142D02*
X36163047Y-27660000D01*
X36163047Y-27660000D02*
X36067809Y-27702857D01*
X36067809Y-27702857D02*
X35829714Y-27702857D01*
X35829714Y-27702857D02*
X35734476Y-27660000D01*
X35734476Y-27660000D02*
X35686857Y-27617142D01*
X9524952Y-645571D02*
X9429714Y-602714D01*
X9429714Y-602714D02*
X9382095Y-559857D01*
X9382095Y-559857D02*
X9334476Y-474142D01*
X9334476Y-474142D02*
X9334476Y-431285D01*
X9334476Y-431285D02*
X9382095Y-345571D01*
X9382095Y-345571D02*
X9429714Y-302714D01*
X9429714Y-302714D02*
X9524952Y-259857D01*
X9524952Y-259857D02*
X9715428Y-259857D01*
X9715428Y-259857D02*
X9810666Y-302714D01*
X9810666Y-302714D02*
X9858285Y-345571D01*
X9858285Y-345571D02*
X9905904Y-431285D01*
X9905904Y-431285D02*
X9905904Y-474142D01*
X9905904Y-474142D02*
X9858285Y-559857D01*
X9858285Y-559857D02*
X9810666Y-602714D01*
X9810666Y-602714D02*
X9715428Y-645571D01*
X9715428Y-645571D02*
X9524952Y-645571D01*
X9524952Y-645571D02*
X9429714Y-688428D01*
X9429714Y-688428D02*
X9382095Y-731285D01*
X9382095Y-731285D02*
X9334476Y-817000D01*
X9334476Y-817000D02*
X9334476Y-988428D01*
X9334476Y-988428D02*
X9382095Y-1074142D01*
X9382095Y-1074142D02*
X9429714Y-1117000D01*
X9429714Y-1117000D02*
X9524952Y-1159857D01*
X9524952Y-1159857D02*
X9715428Y-1159857D01*
X9715428Y-1159857D02*
X9810666Y-1117000D01*
X9810666Y-1117000D02*
X9858285Y-1074142D01*
X9858285Y-1074142D02*
X9905904Y-988428D01*
X9905904Y-988428D02*
X9905904Y-817000D01*
X9905904Y-817000D02*
X9858285Y-731285D01*
X9858285Y-731285D02*
X9810666Y-688428D01*
X9810666Y-688428D02*
X9715428Y-645571D01*
X10763047Y-559857D02*
X10763047Y-1159857D01*
X10524952Y-217000D02*
X10286857Y-859857D01*
X10286857Y-859857D02*
X10905904Y-859857D01*
X4206857Y-26802857D02*
X4825904Y-26802857D01*
X4825904Y-26802857D02*
X4492571Y-27145714D01*
X4492571Y-27145714D02*
X4635428Y-27145714D01*
X4635428Y-27145714D02*
X4730666Y-27188571D01*
X4730666Y-27188571D02*
X4778285Y-27231428D01*
X4778285Y-27231428D02*
X4825904Y-27317142D01*
X4825904Y-27317142D02*
X4825904Y-27531428D01*
X4825904Y-27531428D02*
X4778285Y-27617142D01*
X4778285Y-27617142D02*
X4730666Y-27660000D01*
X4730666Y-27660000D02*
X4635428Y-27702857D01*
X4635428Y-27702857D02*
X4349714Y-27702857D01*
X4349714Y-27702857D02*
X4254476Y-27660000D01*
X4254476Y-27660000D02*
X4206857Y-27617142D01*
X5159238Y-26802857D02*
X5825904Y-26802857D01*
X5825904Y-26802857D02*
X5397333Y-27702857D01*
X45418285Y-26802857D02*
X44942095Y-26802857D01*
X44942095Y-26802857D02*
X44894476Y-27231428D01*
X44894476Y-27231428D02*
X44942095Y-27188571D01*
X44942095Y-27188571D02*
X45037333Y-27145714D01*
X45037333Y-27145714D02*
X45275428Y-27145714D01*
X45275428Y-27145714D02*
X45370666Y-27188571D01*
X45370666Y-27188571D02*
X45418285Y-27231428D01*
X45418285Y-27231428D02*
X45465904Y-27317142D01*
X45465904Y-27317142D02*
X45465904Y-27531428D01*
X45465904Y-27531428D02*
X45418285Y-27617142D01*
X45418285Y-27617142D02*
X45370666Y-27660000D01*
X45370666Y-27660000D02*
X45275428Y-27702857D01*
X45275428Y-27702857D02*
X45037333Y-27702857D01*
X45037333Y-27702857D02*
X44942095Y-27660000D01*
X44942095Y-27660000D02*
X44894476Y-27617142D01*
X45799238Y-26802857D02*
X46418285Y-26802857D01*
X46418285Y-26802857D02*
X46084952Y-27145714D01*
X46084952Y-27145714D02*
X46227809Y-27145714D01*
X46227809Y-27145714D02*
X46323047Y-27188571D01*
X46323047Y-27188571D02*
X46370666Y-27231428D01*
X46370666Y-27231428D02*
X46418285Y-27317142D01*
X46418285Y-27317142D02*
X46418285Y-27531428D01*
X46418285Y-27531428D02*
X46370666Y-27617142D01*
X46370666Y-27617142D02*
X46323047Y-27660000D01*
X46323047Y-27660000D02*
X46227809Y-27702857D01*
X46227809Y-27702857D02*
X45942095Y-27702857D01*
X45942095Y-27702857D02*
X45846857Y-27660000D01*
X45846857Y-27660000D02*
X45799238Y-27617142D01*
X24526857Y-259857D02*
X25193523Y-259857D01*
X25193523Y-259857D02*
X24764952Y-1159857D01*
X25479238Y-259857D02*
X26145904Y-259857D01*
X26145904Y-259857D02*
X25717333Y-1159857D01*
X22034476Y-26888571D02*
X22082095Y-26845714D01*
X22082095Y-26845714D02*
X22177333Y-26802857D01*
X22177333Y-26802857D02*
X22415428Y-26802857D01*
X22415428Y-26802857D02*
X22510666Y-26845714D01*
X22510666Y-26845714D02*
X22558285Y-26888571D01*
X22558285Y-26888571D02*
X22605904Y-26974285D01*
X22605904Y-26974285D02*
X22605904Y-27060000D01*
X22605904Y-27060000D02*
X22558285Y-27188571D01*
X22558285Y-27188571D02*
X21986857Y-27702857D01*
X21986857Y-27702857D02*
X22605904Y-27702857D01*
X23082095Y-27702857D02*
X23272571Y-27702857D01*
X23272571Y-27702857D02*
X23367809Y-27660000D01*
X23367809Y-27660000D02*
X23415428Y-27617142D01*
X23415428Y-27617142D02*
X23510666Y-27488571D01*
X23510666Y-27488571D02*
X23558285Y-27317142D01*
X23558285Y-27317142D02*
X23558285Y-26974285D01*
X23558285Y-26974285D02*
X23510666Y-26888571D01*
X23510666Y-26888571D02*
X23463047Y-26845714D01*
X23463047Y-26845714D02*
X23367809Y-26802857D01*
X23367809Y-26802857D02*
X23177333Y-26802857D01*
X23177333Y-26802857D02*
X23082095Y-26845714D01*
X23082095Y-26845714D02*
X23034476Y-26888571D01*
X23034476Y-26888571D02*
X22986857Y-26974285D01*
X22986857Y-26974285D02*
X22986857Y-27188571D01*
X22986857Y-27188571D02*
X23034476Y-27274285D01*
X23034476Y-27274285D02*
X23082095Y-27317142D01*
X23082095Y-27317142D02*
X23177333Y-27360000D01*
X23177333Y-27360000D02*
X23367809Y-27360000D01*
X23367809Y-27360000D02*
X23463047Y-27317142D01*
X23463047Y-27317142D02*
X23510666Y-27274285D01*
X23510666Y-27274285D02*
X23558285Y-27188571D01*
X24526857Y-26802857D02*
X25145904Y-26802857D01*
X25145904Y-26802857D02*
X24812571Y-27145714D01*
X24812571Y-27145714D02*
X24955428Y-27145714D01*
X24955428Y-27145714D02*
X25050666Y-27188571D01*
X25050666Y-27188571D02*
X25098285Y-27231428D01*
X25098285Y-27231428D02*
X25145904Y-27317142D01*
X25145904Y-27317142D02*
X25145904Y-27531428D01*
X25145904Y-27531428D02*
X25098285Y-27617142D01*
X25098285Y-27617142D02*
X25050666Y-27660000D01*
X25050666Y-27660000D02*
X24955428Y-27702857D01*
X24955428Y-27702857D02*
X24669714Y-27702857D01*
X24669714Y-27702857D02*
X24574476Y-27660000D01*
X24574476Y-27660000D02*
X24526857Y-27617142D01*
X25764952Y-26802857D02*
X25860190Y-26802857D01*
X25860190Y-26802857D02*
X25955428Y-26845714D01*
X25955428Y-26845714D02*
X26003047Y-26888571D01*
X26003047Y-26888571D02*
X26050666Y-26974285D01*
X26050666Y-26974285D02*
X26098285Y-27145714D01*
X26098285Y-27145714D02*
X26098285Y-27360000D01*
X26098285Y-27360000D02*
X26050666Y-27531428D01*
X26050666Y-27531428D02*
X26003047Y-27617142D01*
X26003047Y-27617142D02*
X25955428Y-27660000D01*
X25955428Y-27660000D02*
X25860190Y-27702857D01*
X25860190Y-27702857D02*
X25764952Y-27702857D01*
X25764952Y-27702857D02*
X25669714Y-27660000D01*
X25669714Y-27660000D02*
X25622095Y-27617142D01*
X25622095Y-27617142D02*
X25574476Y-27531428D01*
X25574476Y-27531428D02*
X25526857Y-27360000D01*
X25526857Y-27360000D02*
X25526857Y-27145714D01*
X25526857Y-27145714D02*
X25574476Y-26974285D01*
X25574476Y-26974285D02*
X25622095Y-26888571D01*
X25622095Y-26888571D02*
X25669714Y-26845714D01*
X25669714Y-26845714D02*
X25764952Y-26802857D01*
D12*
X48275809Y-9735952D02*
X48037714Y-9735952D01*
X48037714Y-9735952D02*
X48037714Y-8307380D01*
X48037714Y-8307380D02*
X48275809Y-8307380D01*
X48513905Y-8402619D02*
X49085333Y-8402619D01*
X48799619Y-9402619D02*
X48799619Y-8402619D01*
X49418667Y-9402619D02*
X49418667Y-8402619D01*
X49418667Y-8402619D02*
X49990095Y-9402619D01*
X49990095Y-9402619D02*
X49990095Y-8402619D01*
X50513905Y-9402619D02*
X50704381Y-9402619D01*
X50704381Y-9402619D02*
X50799619Y-9355000D01*
X50799619Y-9355000D02*
X50847238Y-9307380D01*
X50847238Y-9307380D02*
X50942476Y-9164523D01*
X50942476Y-9164523D02*
X50990095Y-8974047D01*
X50990095Y-8974047D02*
X50990095Y-8593095D01*
X50990095Y-8593095D02*
X50942476Y-8497857D01*
X50942476Y-8497857D02*
X50894857Y-8450238D01*
X50894857Y-8450238D02*
X50799619Y-8402619D01*
X50799619Y-8402619D02*
X50609143Y-8402619D01*
X50609143Y-8402619D02*
X50513905Y-8450238D01*
X50513905Y-8450238D02*
X50466286Y-8497857D01*
X50466286Y-8497857D02*
X50418667Y-8593095D01*
X50418667Y-8593095D02*
X50418667Y-8831190D01*
X50418667Y-8831190D02*
X50466286Y-8926428D01*
X50466286Y-8926428D02*
X50513905Y-8974047D01*
X50513905Y-8974047D02*
X50609143Y-9021666D01*
X50609143Y-9021666D02*
X50799619Y-9021666D01*
X50799619Y-9021666D02*
X50894857Y-8974047D01*
X50894857Y-8974047D02*
X50942476Y-8926428D01*
X50942476Y-8926428D02*
X50990095Y-8831190D01*
X51418667Y-9402619D02*
X51418667Y-8402619D01*
X51990095Y-9402619D02*
X51561524Y-8831190D01*
X51990095Y-8402619D02*
X51418667Y-8974047D01*
X52894857Y-8402619D02*
X52418667Y-8402619D01*
X52418667Y-8402619D02*
X52371048Y-8878809D01*
X52371048Y-8878809D02*
X52418667Y-8831190D01*
X52418667Y-8831190D02*
X52513905Y-8783571D01*
X52513905Y-8783571D02*
X52752000Y-8783571D01*
X52752000Y-8783571D02*
X52847238Y-8831190D01*
X52847238Y-8831190D02*
X52894857Y-8878809D01*
X52894857Y-8878809D02*
X52942476Y-8974047D01*
X52942476Y-8974047D02*
X52942476Y-9212142D01*
X52942476Y-9212142D02*
X52894857Y-9307380D01*
X52894857Y-9307380D02*
X52847238Y-9355000D01*
X52847238Y-9355000D02*
X52752000Y-9402619D01*
X52752000Y-9402619D02*
X52513905Y-9402619D01*
X52513905Y-9402619D02*
X52418667Y-9355000D01*
X52418667Y-9355000D02*
X52371048Y-9307380D01*
X53228191Y-8402619D02*
X53561524Y-9402619D01*
X53561524Y-9402619D02*
X53894857Y-8402619D01*
X54132953Y-9735952D02*
X54371048Y-9735952D01*
X54371048Y-9735952D02*
X54371048Y-8307380D01*
X54371048Y-8307380D02*
X54132953Y-8307380D01*
X55466286Y-9402619D02*
X55132953Y-8926428D01*
X54894858Y-9402619D02*
X54894858Y-8402619D01*
X54894858Y-8402619D02*
X55275810Y-8402619D01*
X55275810Y-8402619D02*
X55371048Y-8450238D01*
X55371048Y-8450238D02*
X55418667Y-8497857D01*
X55418667Y-8497857D02*
X55466286Y-8593095D01*
X55466286Y-8593095D02*
X55466286Y-8735952D01*
X55466286Y-8735952D02*
X55418667Y-8831190D01*
X55418667Y-8831190D02*
X55371048Y-8878809D01*
X55371048Y-8878809D02*
X55275810Y-8926428D01*
X55275810Y-8926428D02*
X54894858Y-8926428D01*
X56275810Y-9355000D02*
X56180572Y-9402619D01*
X56180572Y-9402619D02*
X55990096Y-9402619D01*
X55990096Y-9402619D02*
X55894858Y-9355000D01*
X55894858Y-9355000D02*
X55847239Y-9259761D01*
X55847239Y-9259761D02*
X55847239Y-8878809D01*
X55847239Y-8878809D02*
X55894858Y-8783571D01*
X55894858Y-8783571D02*
X55990096Y-8735952D01*
X55990096Y-8735952D02*
X56180572Y-8735952D01*
X56180572Y-8735952D02*
X56275810Y-8783571D01*
X56275810Y-8783571D02*
X56323429Y-8878809D01*
X56323429Y-8878809D02*
X56323429Y-8974047D01*
X56323429Y-8974047D02*
X55847239Y-9069285D01*
X56656763Y-8735952D02*
X56894858Y-9402619D01*
X56894858Y-9402619D02*
X57132953Y-8735952D01*
X57513906Y-9307380D02*
X57561525Y-9355000D01*
X57561525Y-9355000D02*
X57513906Y-9402619D01*
X57513906Y-9402619D02*
X57466287Y-9355000D01*
X57466287Y-9355000D02*
X57513906Y-9307380D01*
X57513906Y-9307380D02*
X57513906Y-9402619D01*
X57942477Y-8497857D02*
X57990096Y-8450238D01*
X57990096Y-8450238D02*
X58085334Y-8402619D01*
X58085334Y-8402619D02*
X58323429Y-8402619D01*
X58323429Y-8402619D02*
X58418667Y-8450238D01*
X58418667Y-8450238D02*
X58466286Y-8497857D01*
X58466286Y-8497857D02*
X58513905Y-8593095D01*
X58513905Y-8593095D02*
X58513905Y-8688333D01*
X58513905Y-8688333D02*
X58466286Y-8831190D01*
X58466286Y-8831190D02*
X57894858Y-9402619D01*
X57894858Y-9402619D02*
X58513905Y-9402619D01*
X58942477Y-9307380D02*
X58990096Y-9355000D01*
X58990096Y-9355000D02*
X58942477Y-9402619D01*
X58942477Y-9402619D02*
X58894858Y-9355000D01*
X58894858Y-9355000D02*
X58942477Y-9307380D01*
X58942477Y-9307380D02*
X58942477Y-9402619D01*
X59609143Y-8402619D02*
X59704381Y-8402619D01*
X59704381Y-8402619D02*
X59799619Y-8450238D01*
X59799619Y-8450238D02*
X59847238Y-8497857D01*
X59847238Y-8497857D02*
X59894857Y-8593095D01*
X59894857Y-8593095D02*
X59942476Y-8783571D01*
X59942476Y-8783571D02*
X59942476Y-9021666D01*
X59942476Y-9021666D02*
X59894857Y-9212142D01*
X59894857Y-9212142D02*
X59847238Y-9307380D01*
X59847238Y-9307380D02*
X59799619Y-9355000D01*
X59799619Y-9355000D02*
X59704381Y-9402619D01*
X59704381Y-9402619D02*
X59609143Y-9402619D01*
X59609143Y-9402619D02*
X59513905Y-9355000D01*
X59513905Y-9355000D02*
X59466286Y-9307380D01*
X59466286Y-9307380D02*
X59418667Y-9212142D01*
X59418667Y-9212142D02*
X59371048Y-9021666D01*
X59371048Y-9021666D02*
X59371048Y-8783571D01*
X59371048Y-8783571D02*
X59418667Y-8593095D01*
X59418667Y-8593095D02*
X59466286Y-8497857D01*
X59466286Y-8497857D02*
X59513905Y-8450238D01*
X59513905Y-8450238D02*
X59609143Y-8402619D01*
D10*
X42306857Y-259857D02*
X42973523Y-259857D01*
X42973523Y-259857D02*
X42544952Y-1159857D01*
X43544952Y-259857D02*
X43640190Y-259857D01*
X43640190Y-259857D02*
X43735428Y-302714D01*
X43735428Y-302714D02*
X43783047Y-345571D01*
X43783047Y-345571D02*
X43830666Y-431285D01*
X43830666Y-431285D02*
X43878285Y-602714D01*
X43878285Y-602714D02*
X43878285Y-817000D01*
X43878285Y-817000D02*
X43830666Y-988428D01*
X43830666Y-988428D02*
X43783047Y-1074142D01*
X43783047Y-1074142D02*
X43735428Y-1117000D01*
X43735428Y-1117000D02*
X43640190Y-1159857D01*
X43640190Y-1159857D02*
X43544952Y-1159857D01*
X43544952Y-1159857D02*
X43449714Y-1117000D01*
X43449714Y-1117000D02*
X43402095Y-1074142D01*
X43402095Y-1074142D02*
X43354476Y-988428D01*
X43354476Y-988428D02*
X43306857Y-817000D01*
X43306857Y-817000D02*
X43306857Y-602714D01*
X43306857Y-602714D02*
X43354476Y-431285D01*
X43354476Y-431285D02*
X43402095Y-345571D01*
X43402095Y-345571D02*
X43449714Y-302714D01*
X43449714Y-302714D02*
X43544952Y-259857D01*
X14858952Y-645571D02*
X14763714Y-602714D01*
X14763714Y-602714D02*
X14716095Y-559857D01*
X14716095Y-559857D02*
X14668476Y-474142D01*
X14668476Y-474142D02*
X14668476Y-431285D01*
X14668476Y-431285D02*
X14716095Y-345571D01*
X14716095Y-345571D02*
X14763714Y-302714D01*
X14763714Y-302714D02*
X14858952Y-259857D01*
X14858952Y-259857D02*
X15049428Y-259857D01*
X15049428Y-259857D02*
X15144666Y-302714D01*
X15144666Y-302714D02*
X15192285Y-345571D01*
X15192285Y-345571D02*
X15239904Y-431285D01*
X15239904Y-431285D02*
X15239904Y-474142D01*
X15239904Y-474142D02*
X15192285Y-559857D01*
X15192285Y-559857D02*
X15144666Y-602714D01*
X15144666Y-602714D02*
X15049428Y-645571D01*
X15049428Y-645571D02*
X14858952Y-645571D01*
X14858952Y-645571D02*
X14763714Y-688428D01*
X14763714Y-688428D02*
X14716095Y-731285D01*
X14716095Y-731285D02*
X14668476Y-817000D01*
X14668476Y-817000D02*
X14668476Y-988428D01*
X14668476Y-988428D02*
X14716095Y-1074142D01*
X14716095Y-1074142D02*
X14763714Y-1117000D01*
X14763714Y-1117000D02*
X14858952Y-1159857D01*
X14858952Y-1159857D02*
X15049428Y-1159857D01*
X15049428Y-1159857D02*
X15144666Y-1117000D01*
X15144666Y-1117000D02*
X15192285Y-1074142D01*
X15192285Y-1074142D02*
X15239904Y-988428D01*
X15239904Y-988428D02*
X15239904Y-817000D01*
X15239904Y-817000D02*
X15192285Y-731285D01*
X15192285Y-731285D02*
X15144666Y-688428D01*
X15144666Y-688428D02*
X15049428Y-645571D01*
X15620857Y-345571D02*
X15668476Y-302714D01*
X15668476Y-302714D02*
X15763714Y-259857D01*
X15763714Y-259857D02*
X16001809Y-259857D01*
X16001809Y-259857D02*
X16097047Y-302714D01*
X16097047Y-302714D02*
X16144666Y-345571D01*
X16144666Y-345571D02*
X16192285Y-431285D01*
X16192285Y-431285D02*
X16192285Y-517000D01*
X16192285Y-517000D02*
X16144666Y-645571D01*
X16144666Y-645571D02*
X15573238Y-1159857D01*
X15573238Y-1159857D02*
X16192285Y-1159857D01*
X57861142Y-302714D02*
X57804000Y-259857D01*
X57804000Y-259857D02*
X57718285Y-259857D01*
X57718285Y-259857D02*
X57632571Y-302714D01*
X57632571Y-302714D02*
X57575428Y-388428D01*
X57575428Y-388428D02*
X57546857Y-474142D01*
X57546857Y-474142D02*
X57518285Y-645571D01*
X57518285Y-645571D02*
X57518285Y-774142D01*
X57518285Y-774142D02*
X57546857Y-945571D01*
X57546857Y-945571D02*
X57575428Y-1031285D01*
X57575428Y-1031285D02*
X57632571Y-1117000D01*
X57632571Y-1117000D02*
X57718285Y-1159857D01*
X57718285Y-1159857D02*
X57775428Y-1159857D01*
X57775428Y-1159857D02*
X57861142Y-1117000D01*
X57861142Y-1117000D02*
X57889714Y-1074142D01*
X57889714Y-1074142D02*
X57889714Y-774142D01*
X57889714Y-774142D02*
X57775428Y-774142D01*
X58146857Y-1159857D02*
X58146857Y-259857D01*
X58146857Y-259857D02*
X58489714Y-1159857D01*
X58489714Y-1159857D02*
X58489714Y-259857D01*
X58775428Y-1159857D02*
X58775428Y-259857D01*
X58775428Y-259857D02*
X58918285Y-259857D01*
X58918285Y-259857D02*
X59003999Y-302714D01*
X59003999Y-302714D02*
X59061142Y-388428D01*
X59061142Y-388428D02*
X59089713Y-474142D01*
X59089713Y-474142D02*
X59118285Y-645571D01*
X59118285Y-645571D02*
X59118285Y-774142D01*
X59118285Y-774142D02*
X59089713Y-945571D01*
X59089713Y-945571D02*
X59061142Y-1031285D01*
X59061142Y-1031285D02*
X59003999Y-1117000D01*
X59003999Y-1117000D02*
X58918285Y-1159857D01*
X58918285Y-1159857D02*
X58775428Y-1159857D01*
X6746857Y-26802857D02*
X7365904Y-26802857D01*
X7365904Y-26802857D02*
X7032571Y-27145714D01*
X7032571Y-27145714D02*
X7175428Y-27145714D01*
X7175428Y-27145714D02*
X7270666Y-27188571D01*
X7270666Y-27188571D02*
X7318285Y-27231428D01*
X7318285Y-27231428D02*
X7365904Y-27317142D01*
X7365904Y-27317142D02*
X7365904Y-27531428D01*
X7365904Y-27531428D02*
X7318285Y-27617142D01*
X7318285Y-27617142D02*
X7270666Y-27660000D01*
X7270666Y-27660000D02*
X7175428Y-27702857D01*
X7175428Y-27702857D02*
X6889714Y-27702857D01*
X6889714Y-27702857D02*
X6794476Y-27660000D01*
X6794476Y-27660000D02*
X6746857Y-27617142D01*
X8223047Y-26802857D02*
X8032571Y-26802857D01*
X8032571Y-26802857D02*
X7937333Y-26845714D01*
X7937333Y-26845714D02*
X7889714Y-26888571D01*
X7889714Y-26888571D02*
X7794476Y-27017142D01*
X7794476Y-27017142D02*
X7746857Y-27188571D01*
X7746857Y-27188571D02*
X7746857Y-27531428D01*
X7746857Y-27531428D02*
X7794476Y-27617142D01*
X7794476Y-27617142D02*
X7842095Y-27660000D01*
X7842095Y-27660000D02*
X7937333Y-27702857D01*
X7937333Y-27702857D02*
X8127809Y-27702857D01*
X8127809Y-27702857D02*
X8223047Y-27660000D01*
X8223047Y-27660000D02*
X8270666Y-27617142D01*
X8270666Y-27617142D02*
X8318285Y-27531428D01*
X8318285Y-27531428D02*
X8318285Y-27317142D01*
X8318285Y-27317142D02*
X8270666Y-27231428D01*
X8270666Y-27231428D02*
X8223047Y-27188571D01*
X8223047Y-27188571D02*
X8127809Y-27145714D01*
X8127809Y-27145714D02*
X7937333Y-27145714D01*
X7937333Y-27145714D02*
X7842095Y-27188571D01*
X7842095Y-27188571D02*
X7794476Y-27231428D01*
X7794476Y-27231428D02*
X7746857Y-27317142D01*
X19684952Y-645571D02*
X19589714Y-602714D01*
X19589714Y-602714D02*
X19542095Y-559857D01*
X19542095Y-559857D02*
X19494476Y-474142D01*
X19494476Y-474142D02*
X19494476Y-431285D01*
X19494476Y-431285D02*
X19542095Y-345571D01*
X19542095Y-345571D02*
X19589714Y-302714D01*
X19589714Y-302714D02*
X19684952Y-259857D01*
X19684952Y-259857D02*
X19875428Y-259857D01*
X19875428Y-259857D02*
X19970666Y-302714D01*
X19970666Y-302714D02*
X20018285Y-345571D01*
X20018285Y-345571D02*
X20065904Y-431285D01*
X20065904Y-431285D02*
X20065904Y-474142D01*
X20065904Y-474142D02*
X20018285Y-559857D01*
X20018285Y-559857D02*
X19970666Y-602714D01*
X19970666Y-602714D02*
X19875428Y-645571D01*
X19875428Y-645571D02*
X19684952Y-645571D01*
X19684952Y-645571D02*
X19589714Y-688428D01*
X19589714Y-688428D02*
X19542095Y-731285D01*
X19542095Y-731285D02*
X19494476Y-817000D01*
X19494476Y-817000D02*
X19494476Y-988428D01*
X19494476Y-988428D02*
X19542095Y-1074142D01*
X19542095Y-1074142D02*
X19589714Y-1117000D01*
X19589714Y-1117000D02*
X19684952Y-1159857D01*
X19684952Y-1159857D02*
X19875428Y-1159857D01*
X19875428Y-1159857D02*
X19970666Y-1117000D01*
X19970666Y-1117000D02*
X20018285Y-1074142D01*
X20018285Y-1074142D02*
X20065904Y-988428D01*
X20065904Y-988428D02*
X20065904Y-817000D01*
X20065904Y-817000D02*
X20018285Y-731285D01*
X20018285Y-731285D02*
X19970666Y-688428D01*
X19970666Y-688428D02*
X19875428Y-645571D01*
X20684952Y-259857D02*
X20780190Y-259857D01*
X20780190Y-259857D02*
X20875428Y-302714D01*
X20875428Y-302714D02*
X20923047Y-345571D01*
X20923047Y-345571D02*
X20970666Y-431285D01*
X20970666Y-431285D02*
X21018285Y-602714D01*
X21018285Y-602714D02*
X21018285Y-817000D01*
X21018285Y-817000D02*
X20970666Y-988428D01*
X20970666Y-988428D02*
X20923047Y-1074142D01*
X20923047Y-1074142D02*
X20875428Y-1117000D01*
X20875428Y-1117000D02*
X20780190Y-1159857D01*
X20780190Y-1159857D02*
X20684952Y-1159857D01*
X20684952Y-1159857D02*
X20589714Y-1117000D01*
X20589714Y-1117000D02*
X20542095Y-1074142D01*
X20542095Y-1074142D02*
X20494476Y-988428D01*
X20494476Y-988428D02*
X20446857Y-817000D01*
X20446857Y-817000D02*
X20446857Y-602714D01*
X20446857Y-602714D02*
X20494476Y-431285D01*
X20494476Y-431285D02*
X20542095Y-345571D01*
X20542095Y-345571D02*
X20589714Y-302714D01*
X20589714Y-302714D02*
X20684952Y-259857D01*
X1666857Y-26802857D02*
X2285904Y-26802857D01*
X2285904Y-26802857D02*
X1952571Y-27145714D01*
X1952571Y-27145714D02*
X2095428Y-27145714D01*
X2095428Y-27145714D02*
X2190666Y-27188571D01*
X2190666Y-27188571D02*
X2238285Y-27231428D01*
X2238285Y-27231428D02*
X2285904Y-27317142D01*
X2285904Y-27317142D02*
X2285904Y-27531428D01*
X2285904Y-27531428D02*
X2238285Y-27617142D01*
X2238285Y-27617142D02*
X2190666Y-27660000D01*
X2190666Y-27660000D02*
X2095428Y-27702857D01*
X2095428Y-27702857D02*
X1809714Y-27702857D01*
X1809714Y-27702857D02*
X1714476Y-27660000D01*
X1714476Y-27660000D02*
X1666857Y-27617142D01*
X2857333Y-27188571D02*
X2762095Y-27145714D01*
X2762095Y-27145714D02*
X2714476Y-27102857D01*
X2714476Y-27102857D02*
X2666857Y-27017142D01*
X2666857Y-27017142D02*
X2666857Y-26974285D01*
X2666857Y-26974285D02*
X2714476Y-26888571D01*
X2714476Y-26888571D02*
X2762095Y-26845714D01*
X2762095Y-26845714D02*
X2857333Y-26802857D01*
X2857333Y-26802857D02*
X3047809Y-26802857D01*
X3047809Y-26802857D02*
X3143047Y-26845714D01*
X3143047Y-26845714D02*
X3190666Y-26888571D01*
X3190666Y-26888571D02*
X3238285Y-26974285D01*
X3238285Y-26974285D02*
X3238285Y-27017142D01*
X3238285Y-27017142D02*
X3190666Y-27102857D01*
X3190666Y-27102857D02*
X3143047Y-27145714D01*
X3143047Y-27145714D02*
X3047809Y-27188571D01*
X3047809Y-27188571D02*
X2857333Y-27188571D01*
X2857333Y-27188571D02*
X2762095Y-27231428D01*
X2762095Y-27231428D02*
X2714476Y-27274285D01*
X2714476Y-27274285D02*
X2666857Y-27360000D01*
X2666857Y-27360000D02*
X2666857Y-27531428D01*
X2666857Y-27531428D02*
X2714476Y-27617142D01*
X2714476Y-27617142D02*
X2762095Y-27660000D01*
X2762095Y-27660000D02*
X2857333Y-27702857D01*
X2857333Y-27702857D02*
X3047809Y-27702857D01*
X3047809Y-27702857D02*
X3143047Y-27660000D01*
X3143047Y-27660000D02*
X3190666Y-27617142D01*
X3190666Y-27617142D02*
X3238285Y-27531428D01*
X3238285Y-27531428D02*
X3238285Y-27360000D01*
X3238285Y-27360000D02*
X3190666Y-27274285D01*
X3190666Y-27274285D02*
X3143047Y-27231428D01*
X3143047Y-27231428D02*
X3047809Y-27188571D01*
X55006857Y-259857D02*
X55625904Y-259857D01*
X55625904Y-259857D02*
X55292571Y-602714D01*
X55292571Y-602714D02*
X55435428Y-602714D01*
X55435428Y-602714D02*
X55530666Y-645571D01*
X55530666Y-645571D02*
X55578285Y-688428D01*
X55578285Y-688428D02*
X55625904Y-774142D01*
X55625904Y-774142D02*
X55625904Y-988428D01*
X55625904Y-988428D02*
X55578285Y-1074142D01*
X55578285Y-1074142D02*
X55530666Y-1117000D01*
X55530666Y-1117000D02*
X55435428Y-1159857D01*
X55435428Y-1159857D02*
X55149714Y-1159857D01*
X55149714Y-1159857D02*
X55054476Y-1117000D01*
X55054476Y-1117000D02*
X55006857Y-1074142D01*
X56006857Y-345571D02*
X56054476Y-302714D01*
X56054476Y-302714D02*
X56149714Y-259857D01*
X56149714Y-259857D02*
X56387809Y-259857D01*
X56387809Y-259857D02*
X56483047Y-302714D01*
X56483047Y-302714D02*
X56530666Y-345571D01*
X56530666Y-345571D02*
X56578285Y-431285D01*
X56578285Y-431285D02*
X56578285Y-517000D01*
X56578285Y-517000D02*
X56530666Y-645571D01*
X56530666Y-645571D02*
X55959238Y-1159857D01*
X55959238Y-1159857D02*
X56578285Y-1159857D01*
X42878285Y-26802857D02*
X42402095Y-26802857D01*
X42402095Y-26802857D02*
X42354476Y-27231428D01*
X42354476Y-27231428D02*
X42402095Y-27188571D01*
X42402095Y-27188571D02*
X42497333Y-27145714D01*
X42497333Y-27145714D02*
X42735428Y-27145714D01*
X42735428Y-27145714D02*
X42830666Y-27188571D01*
X42830666Y-27188571D02*
X42878285Y-27231428D01*
X42878285Y-27231428D02*
X42925904Y-27317142D01*
X42925904Y-27317142D02*
X42925904Y-27531428D01*
X42925904Y-27531428D02*
X42878285Y-27617142D01*
X42878285Y-27617142D02*
X42830666Y-27660000D01*
X42830666Y-27660000D02*
X42735428Y-27702857D01*
X42735428Y-27702857D02*
X42497333Y-27702857D01*
X42497333Y-27702857D02*
X42402095Y-27660000D01*
X42402095Y-27660000D02*
X42354476Y-27617142D01*
X43878285Y-27702857D02*
X43306857Y-27702857D01*
X43592571Y-27702857D02*
X43592571Y-26802857D01*
X43592571Y-26802857D02*
X43497333Y-26931428D01*
X43497333Y-26931428D02*
X43402095Y-27017142D01*
X43402095Y-27017142D02*
X43306857Y-27060000D01*
X45346857Y-259857D02*
X44918285Y-259857D01*
X44918285Y-259857D02*
X44875428Y-688428D01*
X44875428Y-688428D02*
X44918285Y-645571D01*
X44918285Y-645571D02*
X45004000Y-602714D01*
X45004000Y-602714D02*
X45218285Y-602714D01*
X45218285Y-602714D02*
X45304000Y-645571D01*
X45304000Y-645571D02*
X45346857Y-688428D01*
X45346857Y-688428D02*
X45389714Y-774142D01*
X45389714Y-774142D02*
X45389714Y-988428D01*
X45389714Y-988428D02*
X45346857Y-1074142D01*
X45346857Y-1074142D02*
X45304000Y-1117000D01*
X45304000Y-1117000D02*
X45218285Y-1159857D01*
X45218285Y-1159857D02*
X45004000Y-1159857D01*
X45004000Y-1159857D02*
X44918285Y-1117000D01*
X44918285Y-1117000D02*
X44875428Y-1074142D01*
X45646857Y-259857D02*
X45946857Y-1159857D01*
X45946857Y-1159857D02*
X46246857Y-259857D01*
X2190666Y-259857D02*
X2000190Y-259857D01*
X2000190Y-259857D02*
X1904952Y-302714D01*
X1904952Y-302714D02*
X1857333Y-345571D01*
X1857333Y-345571D02*
X1762095Y-474142D01*
X1762095Y-474142D02*
X1714476Y-645571D01*
X1714476Y-645571D02*
X1714476Y-988428D01*
X1714476Y-988428D02*
X1762095Y-1074142D01*
X1762095Y-1074142D02*
X1809714Y-1117000D01*
X1809714Y-1117000D02*
X1904952Y-1159857D01*
X1904952Y-1159857D02*
X2095428Y-1159857D01*
X2095428Y-1159857D02*
X2190666Y-1117000D01*
X2190666Y-1117000D02*
X2238285Y-1074142D01*
X2238285Y-1074142D02*
X2285904Y-988428D01*
X2285904Y-988428D02*
X2285904Y-774142D01*
X2285904Y-774142D02*
X2238285Y-688428D01*
X2238285Y-688428D02*
X2190666Y-645571D01*
X2190666Y-645571D02*
X2095428Y-602714D01*
X2095428Y-602714D02*
X1904952Y-602714D01*
X1904952Y-602714D02*
X1809714Y-645571D01*
X1809714Y-645571D02*
X1762095Y-688428D01*
X1762095Y-688428D02*
X1714476Y-774142D01*
X2619238Y-259857D02*
X3238285Y-259857D01*
X3238285Y-259857D02*
X2904952Y-602714D01*
X2904952Y-602714D02*
X3047809Y-602714D01*
X3047809Y-602714D02*
X3143047Y-645571D01*
X3143047Y-645571D02*
X3190666Y-688428D01*
X3190666Y-688428D02*
X3238285Y-774142D01*
X3238285Y-774142D02*
X3238285Y-988428D01*
X3238285Y-988428D02*
X3190666Y-1074142D01*
X3190666Y-1074142D02*
X3143047Y-1117000D01*
X3143047Y-1117000D02*
X3047809Y-1159857D01*
X3047809Y-1159857D02*
X2762095Y-1159857D01*
X2762095Y-1159857D02*
X2666857Y-1117000D01*
X2666857Y-1117000D02*
X2619238Y-1074142D01*
D13*
X10032857Y-7729190D02*
X9270952Y-7729190D01*
X9270952Y-7729190D02*
X9194761Y-8491095D01*
X9194761Y-8491095D02*
X9270952Y-8414904D01*
X9270952Y-8414904D02*
X9423333Y-8338714D01*
X9423333Y-8338714D02*
X9804285Y-8338714D01*
X9804285Y-8338714D02*
X9956666Y-8414904D01*
X9956666Y-8414904D02*
X10032857Y-8491095D01*
X10032857Y-8491095D02*
X10109047Y-8643476D01*
X10109047Y-8643476D02*
X10109047Y-9024428D01*
X10109047Y-9024428D02*
X10032857Y-9176809D01*
X10032857Y-9176809D02*
X9956666Y-9253000D01*
X9956666Y-9253000D02*
X9804285Y-9329190D01*
X9804285Y-9329190D02*
X9423333Y-9329190D01*
X9423333Y-9329190D02*
X9270952Y-9253000D01*
X9270952Y-9253000D02*
X9194761Y-9176809D01*
X10566190Y-7729190D02*
X11099524Y-9329190D01*
X11099524Y-9329190D02*
X11632857Y-7729190D01*
X13385239Y-9329190D02*
X13385239Y-7729190D01*
X14147144Y-8262523D02*
X14147144Y-9329190D01*
X14147144Y-8414904D02*
X14223334Y-8338714D01*
X14223334Y-8338714D02*
X14375715Y-8262523D01*
X14375715Y-8262523D02*
X14604287Y-8262523D01*
X14604287Y-8262523D02*
X14756668Y-8338714D01*
X14756668Y-8338714D02*
X14832858Y-8491095D01*
X14832858Y-8491095D02*
X14832858Y-9329190D01*
X15366191Y-8262523D02*
X15975715Y-8262523D01*
X15594763Y-7729190D02*
X15594763Y-9100619D01*
X15594763Y-9100619D02*
X15670953Y-9253000D01*
X15670953Y-9253000D02*
X15823334Y-9329190D01*
X15823334Y-9329190D02*
X15975715Y-9329190D01*
X17118573Y-9253000D02*
X16966192Y-9329190D01*
X16966192Y-9329190D02*
X16661430Y-9329190D01*
X16661430Y-9329190D02*
X16509049Y-9253000D01*
X16509049Y-9253000D02*
X16432858Y-9100619D01*
X16432858Y-9100619D02*
X16432858Y-8491095D01*
X16432858Y-8491095D02*
X16509049Y-8338714D01*
X16509049Y-8338714D02*
X16661430Y-8262523D01*
X16661430Y-8262523D02*
X16966192Y-8262523D01*
X16966192Y-8262523D02*
X17118573Y-8338714D01*
X17118573Y-8338714D02*
X17194763Y-8491095D01*
X17194763Y-8491095D02*
X17194763Y-8643476D01*
X17194763Y-8643476D02*
X16432858Y-8795857D01*
X17880478Y-9329190D02*
X17880478Y-8262523D01*
X17880478Y-8567285D02*
X17956668Y-8414904D01*
X17956668Y-8414904D02*
X18032859Y-8338714D01*
X18032859Y-8338714D02*
X18185240Y-8262523D01*
X18185240Y-8262523D02*
X18337621Y-8262523D01*
X18642382Y-8262523D02*
X19251906Y-8262523D01*
X18870954Y-9329190D02*
X18870954Y-7957761D01*
X18870954Y-7957761D02*
X18947144Y-7805380D01*
X18947144Y-7805380D02*
X19099525Y-7729190D01*
X19099525Y-7729190D02*
X19251906Y-7729190D01*
X20470954Y-9329190D02*
X20470954Y-8491095D01*
X20470954Y-8491095D02*
X20394764Y-8338714D01*
X20394764Y-8338714D02*
X20242383Y-8262523D01*
X20242383Y-8262523D02*
X19937621Y-8262523D01*
X19937621Y-8262523D02*
X19785240Y-8338714D01*
X20470954Y-9253000D02*
X20318573Y-9329190D01*
X20318573Y-9329190D02*
X19937621Y-9329190D01*
X19937621Y-9329190D02*
X19785240Y-9253000D01*
X19785240Y-9253000D02*
X19709049Y-9100619D01*
X19709049Y-9100619D02*
X19709049Y-8948238D01*
X19709049Y-8948238D02*
X19785240Y-8795857D01*
X19785240Y-8795857D02*
X19937621Y-8719666D01*
X19937621Y-8719666D02*
X20318573Y-8719666D01*
X20318573Y-8719666D02*
X20470954Y-8643476D01*
X21918573Y-9253000D02*
X21766192Y-9329190D01*
X21766192Y-9329190D02*
X21461430Y-9329190D01*
X21461430Y-9329190D02*
X21309049Y-9253000D01*
X21309049Y-9253000D02*
X21232859Y-9176809D01*
X21232859Y-9176809D02*
X21156668Y-9024428D01*
X21156668Y-9024428D02*
X21156668Y-8567285D01*
X21156668Y-8567285D02*
X21232859Y-8414904D01*
X21232859Y-8414904D02*
X21309049Y-8338714D01*
X21309049Y-8338714D02*
X21461430Y-8262523D01*
X21461430Y-8262523D02*
X21766192Y-8262523D01*
X21766192Y-8262523D02*
X21918573Y-8338714D01*
X23213812Y-9253000D02*
X23061431Y-9329190D01*
X23061431Y-9329190D02*
X22756669Y-9329190D01*
X22756669Y-9329190D02*
X22604288Y-9253000D01*
X22604288Y-9253000D02*
X22528097Y-9100619D01*
X22528097Y-9100619D02*
X22528097Y-8491095D01*
X22528097Y-8491095D02*
X22604288Y-8338714D01*
X22604288Y-8338714D02*
X22756669Y-8262523D01*
X22756669Y-8262523D02*
X23061431Y-8262523D01*
X23061431Y-8262523D02*
X23213812Y-8338714D01*
X23213812Y-8338714D02*
X23290002Y-8491095D01*
X23290002Y-8491095D02*
X23290002Y-8643476D01*
X23290002Y-8643476D02*
X22528097Y-8795857D01*
X24966193Y-8262523D02*
X25575717Y-8262523D01*
X25194765Y-9329190D02*
X25194765Y-7957761D01*
X25194765Y-7957761D02*
X25270955Y-7805380D01*
X25270955Y-7805380D02*
X25423336Y-7729190D01*
X25423336Y-7729190D02*
X25575717Y-7729190D01*
X26337622Y-9329190D02*
X26185241Y-9253000D01*
X26185241Y-9253000D02*
X26109051Y-9176809D01*
X26109051Y-9176809D02*
X26032860Y-9024428D01*
X26032860Y-9024428D02*
X26032860Y-8567285D01*
X26032860Y-8567285D02*
X26109051Y-8414904D01*
X26109051Y-8414904D02*
X26185241Y-8338714D01*
X26185241Y-8338714D02*
X26337622Y-8262523D01*
X26337622Y-8262523D02*
X26566194Y-8262523D01*
X26566194Y-8262523D02*
X26718575Y-8338714D01*
X26718575Y-8338714D02*
X26794765Y-8414904D01*
X26794765Y-8414904D02*
X26870956Y-8567285D01*
X26870956Y-8567285D02*
X26870956Y-9024428D01*
X26870956Y-9024428D02*
X26794765Y-9176809D01*
X26794765Y-9176809D02*
X26718575Y-9253000D01*
X26718575Y-9253000D02*
X26566194Y-9329190D01*
X26566194Y-9329190D02*
X26337622Y-9329190D01*
X27556670Y-9329190D02*
X27556670Y-8262523D01*
X27556670Y-8567285D02*
X27632860Y-8414904D01*
X27632860Y-8414904D02*
X27709051Y-8338714D01*
X27709051Y-8338714D02*
X27861432Y-8262523D01*
X27861432Y-8262523D02*
X28013813Y-8262523D01*
X29537622Y-7729190D02*
X30451908Y-7729190D01*
X29994765Y-9329190D02*
X29994765Y-7729190D01*
X31670956Y-9329190D02*
X31670956Y-8491095D01*
X31670956Y-8491095D02*
X31594766Y-8338714D01*
X31594766Y-8338714D02*
X31442385Y-8262523D01*
X31442385Y-8262523D02*
X31137623Y-8262523D01*
X31137623Y-8262523D02*
X30985242Y-8338714D01*
X31670956Y-9253000D02*
X31518575Y-9329190D01*
X31518575Y-9329190D02*
X31137623Y-9329190D01*
X31137623Y-9329190D02*
X30985242Y-9253000D01*
X30985242Y-9253000D02*
X30909051Y-9100619D01*
X30909051Y-9100619D02*
X30909051Y-8948238D01*
X30909051Y-8948238D02*
X30985242Y-8795857D01*
X30985242Y-8795857D02*
X31137623Y-8719666D01*
X31137623Y-8719666D02*
X31518575Y-8719666D01*
X31518575Y-8719666D02*
X31670956Y-8643476D01*
X32432861Y-8262523D02*
X32432861Y-9329190D01*
X32432861Y-8414904D02*
X32509051Y-8338714D01*
X32509051Y-8338714D02*
X32661432Y-8262523D01*
X32661432Y-8262523D02*
X32890004Y-8262523D01*
X32890004Y-8262523D02*
X33042385Y-8338714D01*
X33042385Y-8338714D02*
X33118575Y-8491095D01*
X33118575Y-8491095D02*
X33118575Y-9329190D01*
X34566194Y-8262523D02*
X34566194Y-9557761D01*
X34566194Y-9557761D02*
X34490004Y-9710142D01*
X34490004Y-9710142D02*
X34413813Y-9786333D01*
X34413813Y-9786333D02*
X34261432Y-9862523D01*
X34261432Y-9862523D02*
X34032861Y-9862523D01*
X34032861Y-9862523D02*
X33880480Y-9786333D01*
X34566194Y-9253000D02*
X34413813Y-9329190D01*
X34413813Y-9329190D02*
X34109051Y-9329190D01*
X34109051Y-9329190D02*
X33956670Y-9253000D01*
X33956670Y-9253000D02*
X33880480Y-9176809D01*
X33880480Y-9176809D02*
X33804289Y-9024428D01*
X33804289Y-9024428D02*
X33804289Y-8567285D01*
X33804289Y-8567285D02*
X33880480Y-8414904D01*
X33880480Y-8414904D02*
X33956670Y-8338714D01*
X33956670Y-8338714D02*
X34109051Y-8262523D01*
X34109051Y-8262523D02*
X34413813Y-8262523D01*
X34413813Y-8262523D02*
X34566194Y-8338714D01*
X36547147Y-9329190D02*
X36547147Y-7729190D01*
X36547147Y-7729190D02*
X37461433Y-9329190D01*
X37461433Y-9329190D02*
X37461433Y-7729190D01*
X38909051Y-9329190D02*
X38909051Y-8491095D01*
X38909051Y-8491095D02*
X38832861Y-8338714D01*
X38832861Y-8338714D02*
X38680480Y-8262523D01*
X38680480Y-8262523D02*
X38375718Y-8262523D01*
X38375718Y-8262523D02*
X38223337Y-8338714D01*
X38909051Y-9253000D02*
X38756670Y-9329190D01*
X38756670Y-9329190D02*
X38375718Y-9329190D01*
X38375718Y-9329190D02*
X38223337Y-9253000D01*
X38223337Y-9253000D02*
X38147146Y-9100619D01*
X38147146Y-9100619D02*
X38147146Y-8948238D01*
X38147146Y-8948238D02*
X38223337Y-8795857D01*
X38223337Y-8795857D02*
X38375718Y-8719666D01*
X38375718Y-8719666D02*
X38756670Y-8719666D01*
X38756670Y-8719666D02*
X38909051Y-8643476D01*
X39670956Y-8262523D02*
X39670956Y-9329190D01*
X39670956Y-8414904D02*
X39747146Y-8338714D01*
X39747146Y-8338714D02*
X39899527Y-8262523D01*
X39899527Y-8262523D02*
X40128099Y-8262523D01*
X40128099Y-8262523D02*
X40280480Y-8338714D01*
X40280480Y-8338714D02*
X40356670Y-8491095D01*
X40356670Y-8491095D02*
X40356670Y-9329190D01*
X41347146Y-9329190D02*
X41194765Y-9253000D01*
X41194765Y-9253000D02*
X41118575Y-9176809D01*
X41118575Y-9176809D02*
X41042384Y-9024428D01*
X41042384Y-9024428D02*
X41042384Y-8567285D01*
X41042384Y-8567285D02*
X41118575Y-8414904D01*
X41118575Y-8414904D02*
X41194765Y-8338714D01*
X41194765Y-8338714D02*
X41347146Y-8262523D01*
X41347146Y-8262523D02*
X41575718Y-8262523D01*
X41575718Y-8262523D02*
X41728099Y-8338714D01*
X41728099Y-8338714D02*
X41804289Y-8414904D01*
X41804289Y-8414904D02*
X41880480Y-8567285D01*
X41880480Y-8567285D02*
X41880480Y-9024428D01*
X41880480Y-9024428D02*
X41804289Y-9176809D01*
X41804289Y-9176809D02*
X41728099Y-9253000D01*
X41728099Y-9253000D02*
X41575718Y-9329190D01*
X41575718Y-9329190D02*
X41347146Y-9329190D01*
X43861432Y-9329190D02*
X44166194Y-9329190D01*
X44166194Y-9329190D02*
X44318575Y-9253000D01*
X44318575Y-9253000D02*
X44394766Y-9176809D01*
X44394766Y-9176809D02*
X44547147Y-8948238D01*
X44547147Y-8948238D02*
X44623337Y-8643476D01*
X44623337Y-8643476D02*
X44623337Y-8033952D01*
X44623337Y-8033952D02*
X44547147Y-7881571D01*
X44547147Y-7881571D02*
X44470956Y-7805380D01*
X44470956Y-7805380D02*
X44318575Y-7729190D01*
X44318575Y-7729190D02*
X44013813Y-7729190D01*
X44013813Y-7729190D02*
X43861432Y-7805380D01*
X43861432Y-7805380D02*
X43785242Y-7881571D01*
X43785242Y-7881571D02*
X43709051Y-8033952D01*
X43709051Y-8033952D02*
X43709051Y-8414904D01*
X43709051Y-8414904D02*
X43785242Y-8567285D01*
X43785242Y-8567285D02*
X43861432Y-8643476D01*
X43861432Y-8643476D02*
X44013813Y-8719666D01*
X44013813Y-8719666D02*
X44318575Y-8719666D01*
X44318575Y-8719666D02*
X44470956Y-8643476D01*
X44470956Y-8643476D02*
X44547147Y-8567285D01*
X44547147Y-8567285D02*
X44623337Y-8414904D01*
X45309052Y-9329190D02*
X45309052Y-7729190D01*
X46223338Y-9329190D02*
X45537623Y-8414904D01*
X46223338Y-7729190D02*
X45309052Y-8643476D01*
D10*
X21986857Y-259857D02*
X22653523Y-259857D01*
X22653523Y-259857D02*
X22224952Y-1159857D01*
X23082095Y-1159857D02*
X23272571Y-1159857D01*
X23272571Y-1159857D02*
X23367809Y-1117000D01*
X23367809Y-1117000D02*
X23415428Y-1074142D01*
X23415428Y-1074142D02*
X23510666Y-945571D01*
X23510666Y-945571D02*
X23558285Y-774142D01*
X23558285Y-774142D02*
X23558285Y-431285D01*
X23558285Y-431285D02*
X23510666Y-345571D01*
X23510666Y-345571D02*
X23463047Y-302714D01*
X23463047Y-302714D02*
X23367809Y-259857D01*
X23367809Y-259857D02*
X23177333Y-259857D01*
X23177333Y-259857D02*
X23082095Y-302714D01*
X23082095Y-302714D02*
X23034476Y-345571D01*
X23034476Y-345571D02*
X22986857Y-431285D01*
X22986857Y-431285D02*
X22986857Y-645571D01*
X22986857Y-645571D02*
X23034476Y-731285D01*
X23034476Y-731285D02*
X23082095Y-774142D01*
X23082095Y-774142D02*
X23177333Y-817000D01*
X23177333Y-817000D02*
X23367809Y-817000D01*
X23367809Y-817000D02*
X23463047Y-774142D01*
X23463047Y-774142D02*
X23510666Y-731285D01*
X23510666Y-731285D02*
X23558285Y-645571D01*
X47910666Y-559857D02*
X47910666Y-1159857D01*
X47672571Y-217000D02*
X47434476Y-859857D01*
X47434476Y-859857D02*
X48053523Y-859857D01*
X48577333Y-645571D02*
X48482095Y-602714D01*
X48482095Y-602714D02*
X48434476Y-559857D01*
X48434476Y-559857D02*
X48386857Y-474142D01*
X48386857Y-474142D02*
X48386857Y-431285D01*
X48386857Y-431285D02*
X48434476Y-345571D01*
X48434476Y-345571D02*
X48482095Y-302714D01*
X48482095Y-302714D02*
X48577333Y-259857D01*
X48577333Y-259857D02*
X48767809Y-259857D01*
X48767809Y-259857D02*
X48863047Y-302714D01*
X48863047Y-302714D02*
X48910666Y-345571D01*
X48910666Y-345571D02*
X48958285Y-431285D01*
X48958285Y-431285D02*
X48958285Y-474142D01*
X48958285Y-474142D02*
X48910666Y-559857D01*
X48910666Y-559857D02*
X48863047Y-602714D01*
X48863047Y-602714D02*
X48767809Y-645571D01*
X48767809Y-645571D02*
X48577333Y-645571D01*
X48577333Y-645571D02*
X48482095Y-688428D01*
X48482095Y-688428D02*
X48434476Y-731285D01*
X48434476Y-731285D02*
X48386857Y-817000D01*
X48386857Y-817000D02*
X48386857Y-988428D01*
X48386857Y-988428D02*
X48434476Y-1074142D01*
X48434476Y-1074142D02*
X48482095Y-1117000D01*
X48482095Y-1117000D02*
X48577333Y-1159857D01*
X48577333Y-1159857D02*
X48767809Y-1159857D01*
X48767809Y-1159857D02*
X48863047Y-1117000D01*
X48863047Y-1117000D02*
X48910666Y-1074142D01*
X48910666Y-1074142D02*
X48958285Y-988428D01*
X48958285Y-988428D02*
X48958285Y-817000D01*
X48958285Y-817000D02*
X48910666Y-731285D01*
X48910666Y-731285D02*
X48863047Y-688428D01*
X48863047Y-688428D02*
X48767809Y-645571D01*
X6984952Y-645571D02*
X6889714Y-602714D01*
X6889714Y-602714D02*
X6842095Y-559857D01*
X6842095Y-559857D02*
X6794476Y-474142D01*
X6794476Y-474142D02*
X6794476Y-431285D01*
X6794476Y-431285D02*
X6842095Y-345571D01*
X6842095Y-345571D02*
X6889714Y-302714D01*
X6889714Y-302714D02*
X6984952Y-259857D01*
X6984952Y-259857D02*
X7175428Y-259857D01*
X7175428Y-259857D02*
X7270666Y-302714D01*
X7270666Y-302714D02*
X7318285Y-345571D01*
X7318285Y-345571D02*
X7365904Y-431285D01*
X7365904Y-431285D02*
X7365904Y-474142D01*
X7365904Y-474142D02*
X7318285Y-559857D01*
X7318285Y-559857D02*
X7270666Y-602714D01*
X7270666Y-602714D02*
X7175428Y-645571D01*
X7175428Y-645571D02*
X6984952Y-645571D01*
X6984952Y-645571D02*
X6889714Y-688428D01*
X6889714Y-688428D02*
X6842095Y-731285D01*
X6842095Y-731285D02*
X6794476Y-817000D01*
X6794476Y-817000D02*
X6794476Y-988428D01*
X6794476Y-988428D02*
X6842095Y-1074142D01*
X6842095Y-1074142D02*
X6889714Y-1117000D01*
X6889714Y-1117000D02*
X6984952Y-1159857D01*
X6984952Y-1159857D02*
X7175428Y-1159857D01*
X7175428Y-1159857D02*
X7270666Y-1117000D01*
X7270666Y-1117000D02*
X7318285Y-1074142D01*
X7318285Y-1074142D02*
X7365904Y-988428D01*
X7365904Y-988428D02*
X7365904Y-817000D01*
X7365904Y-817000D02*
X7318285Y-731285D01*
X7318285Y-731285D02*
X7270666Y-688428D01*
X7270666Y-688428D02*
X7175428Y-645571D01*
X8270666Y-259857D02*
X7794476Y-259857D01*
X7794476Y-259857D02*
X7746857Y-688428D01*
X7746857Y-688428D02*
X7794476Y-645571D01*
X7794476Y-645571D02*
X7889714Y-602714D01*
X7889714Y-602714D02*
X8127809Y-602714D01*
X8127809Y-602714D02*
X8223047Y-645571D01*
X8223047Y-645571D02*
X8270666Y-688428D01*
X8270666Y-688428D02*
X8318285Y-774142D01*
X8318285Y-774142D02*
X8318285Y-988428D01*
X8318285Y-988428D02*
X8270666Y-1074142D01*
X8270666Y-1074142D02*
X8223047Y-1117000D01*
X8223047Y-1117000D02*
X8127809Y-1159857D01*
X8127809Y-1159857D02*
X7889714Y-1159857D01*
X7889714Y-1159857D02*
X7794476Y-1117000D01*
X7794476Y-1117000D02*
X7746857Y-1074142D01*
X50498285Y-26802857D02*
X50022095Y-26802857D01*
X50022095Y-26802857D02*
X49974476Y-27231428D01*
X49974476Y-27231428D02*
X50022095Y-27188571D01*
X50022095Y-27188571D02*
X50117333Y-27145714D01*
X50117333Y-27145714D02*
X50355428Y-27145714D01*
X50355428Y-27145714D02*
X50450666Y-27188571D01*
X50450666Y-27188571D02*
X50498285Y-27231428D01*
X50498285Y-27231428D02*
X50545904Y-27317142D01*
X50545904Y-27317142D02*
X50545904Y-27531428D01*
X50545904Y-27531428D02*
X50498285Y-27617142D01*
X50498285Y-27617142D02*
X50450666Y-27660000D01*
X50450666Y-27660000D02*
X50355428Y-27702857D01*
X50355428Y-27702857D02*
X50117333Y-27702857D01*
X50117333Y-27702857D02*
X50022095Y-27660000D01*
X50022095Y-27660000D02*
X49974476Y-27617142D01*
X51450666Y-26802857D02*
X50974476Y-26802857D01*
X50974476Y-26802857D02*
X50926857Y-27231428D01*
X50926857Y-27231428D02*
X50974476Y-27188571D01*
X50974476Y-27188571D02*
X51069714Y-27145714D01*
X51069714Y-27145714D02*
X51307809Y-27145714D01*
X51307809Y-27145714D02*
X51403047Y-27188571D01*
X51403047Y-27188571D02*
X51450666Y-27231428D01*
X51450666Y-27231428D02*
X51498285Y-27317142D01*
X51498285Y-27317142D02*
X51498285Y-27531428D01*
X51498285Y-27531428D02*
X51450666Y-27617142D01*
X51450666Y-27617142D02*
X51403047Y-27660000D01*
X51403047Y-27660000D02*
X51307809Y-27702857D01*
X51307809Y-27702857D02*
X51069714Y-27702857D01*
X51069714Y-27702857D02*
X50974476Y-27660000D01*
X50974476Y-27660000D02*
X50926857Y-27617142D01*
X9413857Y-26802857D02*
X10032904Y-26802857D01*
X10032904Y-26802857D02*
X9699571Y-27145714D01*
X9699571Y-27145714D02*
X9842428Y-27145714D01*
X9842428Y-27145714D02*
X9937666Y-27188571D01*
X9937666Y-27188571D02*
X9985285Y-27231428D01*
X9985285Y-27231428D02*
X10032904Y-27317142D01*
X10032904Y-27317142D02*
X10032904Y-27531428D01*
X10032904Y-27531428D02*
X9985285Y-27617142D01*
X9985285Y-27617142D02*
X9937666Y-27660000D01*
X9937666Y-27660000D02*
X9842428Y-27702857D01*
X9842428Y-27702857D02*
X9556714Y-27702857D01*
X9556714Y-27702857D02*
X9461476Y-27660000D01*
X9461476Y-27660000D02*
X9413857Y-27617142D01*
X10509095Y-27702857D02*
X10699571Y-27702857D01*
X10699571Y-27702857D02*
X10794809Y-27660000D01*
X10794809Y-27660000D02*
X10842428Y-27617142D01*
X10842428Y-27617142D02*
X10937666Y-27488571D01*
X10937666Y-27488571D02*
X10985285Y-27317142D01*
X10985285Y-27317142D02*
X10985285Y-26974285D01*
X10985285Y-26974285D02*
X10937666Y-26888571D01*
X10937666Y-26888571D02*
X10890047Y-26845714D01*
X10890047Y-26845714D02*
X10794809Y-26802857D01*
X10794809Y-26802857D02*
X10604333Y-26802857D01*
X10604333Y-26802857D02*
X10509095Y-26845714D01*
X10509095Y-26845714D02*
X10461476Y-26888571D01*
X10461476Y-26888571D02*
X10413857Y-26974285D01*
X10413857Y-26974285D02*
X10413857Y-27188571D01*
X10413857Y-27188571D02*
X10461476Y-27274285D01*
X10461476Y-27274285D02*
X10509095Y-27317142D01*
X10509095Y-27317142D02*
X10604333Y-27360000D01*
X10604333Y-27360000D02*
X10794809Y-27360000D01*
X10794809Y-27360000D02*
X10890047Y-27317142D01*
X10890047Y-27317142D02*
X10937666Y-27274285D01*
X10937666Y-27274285D02*
X10985285Y-27188571D01*
X32670666Y-27102857D02*
X32670666Y-27702857D01*
X32432571Y-26760000D02*
X32194476Y-27402857D01*
X32194476Y-27402857D02*
X32813523Y-27402857D01*
X33384952Y-26802857D02*
X33480190Y-26802857D01*
X33480190Y-26802857D02*
X33575428Y-26845714D01*
X33575428Y-26845714D02*
X33623047Y-26888571D01*
X33623047Y-26888571D02*
X33670666Y-26974285D01*
X33670666Y-26974285D02*
X33718285Y-27145714D01*
X33718285Y-27145714D02*
X33718285Y-27360000D01*
X33718285Y-27360000D02*
X33670666Y-27531428D01*
X33670666Y-27531428D02*
X33623047Y-27617142D01*
X33623047Y-27617142D02*
X33575428Y-27660000D01*
X33575428Y-27660000D02*
X33480190Y-27702857D01*
X33480190Y-27702857D02*
X33384952Y-27702857D01*
X33384952Y-27702857D02*
X33289714Y-27660000D01*
X33289714Y-27660000D02*
X33242095Y-27617142D01*
X33242095Y-27617142D02*
X33194476Y-27531428D01*
X33194476Y-27531428D02*
X33146857Y-27360000D01*
X33146857Y-27360000D02*
X33146857Y-27145714D01*
X33146857Y-27145714D02*
X33194476Y-26974285D01*
X33194476Y-26974285D02*
X33242095Y-26888571D01*
X33242095Y-26888571D02*
X33289714Y-26845714D01*
X33289714Y-26845714D02*
X33384952Y-26802857D01*
X19494476Y-26888571D02*
X19542095Y-26845714D01*
X19542095Y-26845714D02*
X19637333Y-26802857D01*
X19637333Y-26802857D02*
X19875428Y-26802857D01*
X19875428Y-26802857D02*
X19970666Y-26845714D01*
X19970666Y-26845714D02*
X20018285Y-26888571D01*
X20018285Y-26888571D02*
X20065904Y-26974285D01*
X20065904Y-26974285D02*
X20065904Y-27060000D01*
X20065904Y-27060000D02*
X20018285Y-27188571D01*
X20018285Y-27188571D02*
X19446857Y-27702857D01*
X19446857Y-27702857D02*
X20065904Y-27702857D01*
X20637333Y-27188571D02*
X20542095Y-27145714D01*
X20542095Y-27145714D02*
X20494476Y-27102857D01*
X20494476Y-27102857D02*
X20446857Y-27017142D01*
X20446857Y-27017142D02*
X20446857Y-26974285D01*
X20446857Y-26974285D02*
X20494476Y-26888571D01*
X20494476Y-26888571D02*
X20542095Y-26845714D01*
X20542095Y-26845714D02*
X20637333Y-26802857D01*
X20637333Y-26802857D02*
X20827809Y-26802857D01*
X20827809Y-26802857D02*
X20923047Y-26845714D01*
X20923047Y-26845714D02*
X20970666Y-26888571D01*
X20970666Y-26888571D02*
X21018285Y-26974285D01*
X21018285Y-26974285D02*
X21018285Y-27017142D01*
X21018285Y-27017142D02*
X20970666Y-27102857D01*
X20970666Y-27102857D02*
X20923047Y-27145714D01*
X20923047Y-27145714D02*
X20827809Y-27188571D01*
X20827809Y-27188571D02*
X20637333Y-27188571D01*
X20637333Y-27188571D02*
X20542095Y-27231428D01*
X20542095Y-27231428D02*
X20494476Y-27274285D01*
X20494476Y-27274285D02*
X20446857Y-27360000D01*
X20446857Y-27360000D02*
X20446857Y-27531428D01*
X20446857Y-27531428D02*
X20494476Y-27617142D01*
X20494476Y-27617142D02*
X20542095Y-27660000D01*
X20542095Y-27660000D02*
X20637333Y-27702857D01*
X20637333Y-27702857D02*
X20827809Y-27702857D01*
X20827809Y-27702857D02*
X20923047Y-27660000D01*
X20923047Y-27660000D02*
X20970666Y-27617142D01*
X20970666Y-27617142D02*
X21018285Y-27531428D01*
X21018285Y-27531428D02*
X21018285Y-27360000D01*
X21018285Y-27360000D02*
X20970666Y-27274285D01*
X20970666Y-27274285D02*
X20923047Y-27231428D01*
X20923047Y-27231428D02*
X20827809Y-27188571D01*
X27066857Y-259857D02*
X27733523Y-259857D01*
X27733523Y-259857D02*
X27304952Y-1159857D01*
X28543047Y-259857D02*
X28352571Y-259857D01*
X28352571Y-259857D02*
X28257333Y-302714D01*
X28257333Y-302714D02*
X28209714Y-345571D01*
X28209714Y-345571D02*
X28114476Y-474142D01*
X28114476Y-474142D02*
X28066857Y-645571D01*
X28066857Y-645571D02*
X28066857Y-988428D01*
X28066857Y-988428D02*
X28114476Y-1074142D01*
X28114476Y-1074142D02*
X28162095Y-1117000D01*
X28162095Y-1117000D02*
X28257333Y-1159857D01*
X28257333Y-1159857D02*
X28447809Y-1159857D01*
X28447809Y-1159857D02*
X28543047Y-1117000D01*
X28543047Y-1117000D02*
X28590666Y-1074142D01*
X28590666Y-1074142D02*
X28638285Y-988428D01*
X28638285Y-988428D02*
X28638285Y-774142D01*
X28638285Y-774142D02*
X28590666Y-688428D01*
X28590666Y-688428D02*
X28543047Y-645571D01*
X28543047Y-645571D02*
X28447809Y-602714D01*
X28447809Y-602714D02*
X28257333Y-602714D01*
X28257333Y-602714D02*
X28162095Y-645571D01*
X28162095Y-645571D02*
X28114476Y-688428D01*
X28114476Y-688428D02*
X28066857Y-774142D01*
X11874476Y-26888571D02*
X11922095Y-26845714D01*
X11922095Y-26845714D02*
X12017333Y-26802857D01*
X12017333Y-26802857D02*
X12255428Y-26802857D01*
X12255428Y-26802857D02*
X12350666Y-26845714D01*
X12350666Y-26845714D02*
X12398285Y-26888571D01*
X12398285Y-26888571D02*
X12445904Y-26974285D01*
X12445904Y-26974285D02*
X12445904Y-27060000D01*
X12445904Y-27060000D02*
X12398285Y-27188571D01*
X12398285Y-27188571D02*
X11826857Y-27702857D01*
X11826857Y-27702857D02*
X12445904Y-27702857D01*
X13350666Y-26802857D02*
X12874476Y-26802857D01*
X12874476Y-26802857D02*
X12826857Y-27231428D01*
X12826857Y-27231428D02*
X12874476Y-27188571D01*
X12874476Y-27188571D02*
X12969714Y-27145714D01*
X12969714Y-27145714D02*
X13207809Y-27145714D01*
X13207809Y-27145714D02*
X13303047Y-27188571D01*
X13303047Y-27188571D02*
X13350666Y-27231428D01*
X13350666Y-27231428D02*
X13398285Y-27317142D01*
X13398285Y-27317142D02*
X13398285Y-27531428D01*
X13398285Y-27531428D02*
X13350666Y-27617142D01*
X13350666Y-27617142D02*
X13303047Y-27660000D01*
X13303047Y-27660000D02*
X13207809Y-27702857D01*
X13207809Y-27702857D02*
X12969714Y-27702857D01*
X12969714Y-27702857D02*
X12874476Y-27660000D01*
X12874476Y-27660000D02*
X12826857Y-27617142D01*
X50450666Y-559857D02*
X50450666Y-1159857D01*
X50212571Y-217000D02*
X49974476Y-859857D01*
X49974476Y-859857D02*
X50593523Y-859857D01*
X51022095Y-1159857D02*
X51212571Y-1159857D01*
X51212571Y-1159857D02*
X51307809Y-1117000D01*
X51307809Y-1117000D02*
X51355428Y-1074142D01*
X51355428Y-1074142D02*
X51450666Y-945571D01*
X51450666Y-945571D02*
X51498285Y-774142D01*
X51498285Y-774142D02*
X51498285Y-431285D01*
X51498285Y-431285D02*
X51450666Y-345571D01*
X51450666Y-345571D02*
X51403047Y-302714D01*
X51403047Y-302714D02*
X51307809Y-259857D01*
X51307809Y-259857D02*
X51117333Y-259857D01*
X51117333Y-259857D02*
X51022095Y-302714D01*
X51022095Y-302714D02*
X50974476Y-345571D01*
X50974476Y-345571D02*
X50926857Y-431285D01*
X50926857Y-431285D02*
X50926857Y-645571D01*
X50926857Y-645571D02*
X50974476Y-731285D01*
X50974476Y-731285D02*
X51022095Y-774142D01*
X51022095Y-774142D02*
X51117333Y-817000D01*
X51117333Y-817000D02*
X51307809Y-817000D01*
X51307809Y-817000D02*
X51403047Y-774142D01*
X51403047Y-774142D02*
X51450666Y-731285D01*
X51450666Y-731285D02*
X51498285Y-645571D01*
X37750666Y-27102857D02*
X37750666Y-27702857D01*
X37512571Y-26760000D02*
X37274476Y-27402857D01*
X37274476Y-27402857D02*
X37893523Y-27402857D01*
X38798285Y-27702857D02*
X38226857Y-27702857D01*
X38512571Y-27702857D02*
X38512571Y-26802857D01*
X38512571Y-26802857D02*
X38417333Y-26931428D01*
X38417333Y-26931428D02*
X38322095Y-27017142D01*
X38322095Y-27017142D02*
X38226857Y-27060000D01*
X55578285Y-26802857D02*
X55102095Y-26802857D01*
X55102095Y-26802857D02*
X55054476Y-27231428D01*
X55054476Y-27231428D02*
X55102095Y-27188571D01*
X55102095Y-27188571D02*
X55197333Y-27145714D01*
X55197333Y-27145714D02*
X55435428Y-27145714D01*
X55435428Y-27145714D02*
X55530666Y-27188571D01*
X55530666Y-27188571D02*
X55578285Y-27231428D01*
X55578285Y-27231428D02*
X55625904Y-27317142D01*
X55625904Y-27317142D02*
X55625904Y-27531428D01*
X55625904Y-27531428D02*
X55578285Y-27617142D01*
X55578285Y-27617142D02*
X55530666Y-27660000D01*
X55530666Y-27660000D02*
X55435428Y-27702857D01*
X55435428Y-27702857D02*
X55197333Y-27702857D01*
X55197333Y-27702857D02*
X55102095Y-27660000D01*
X55102095Y-27660000D02*
X55054476Y-27617142D01*
X55959238Y-26802857D02*
X56625904Y-26802857D01*
X56625904Y-26802857D02*
X56197333Y-27702857D01*
X37226857Y-259857D02*
X37893523Y-259857D01*
X37893523Y-259857D02*
X37464952Y-1159857D01*
X38226857Y-345571D02*
X38274476Y-302714D01*
X38274476Y-302714D02*
X38369714Y-259857D01*
X38369714Y-259857D02*
X38607809Y-259857D01*
X38607809Y-259857D02*
X38703047Y-302714D01*
X38703047Y-302714D02*
X38750666Y-345571D01*
X38750666Y-345571D02*
X38798285Y-431285D01*
X38798285Y-431285D02*
X38798285Y-517000D01*
X38798285Y-517000D02*
X38750666Y-645571D01*
X38750666Y-645571D02*
X38179238Y-1159857D01*
X38179238Y-1159857D02*
X38798285Y-1159857D01*
X27066857Y-26802857D02*
X27685904Y-26802857D01*
X27685904Y-26802857D02*
X27352571Y-27145714D01*
X27352571Y-27145714D02*
X27495428Y-27145714D01*
X27495428Y-27145714D02*
X27590666Y-27188571D01*
X27590666Y-27188571D02*
X27638285Y-27231428D01*
X27638285Y-27231428D02*
X27685904Y-27317142D01*
X27685904Y-27317142D02*
X27685904Y-27531428D01*
X27685904Y-27531428D02*
X27638285Y-27617142D01*
X27638285Y-27617142D02*
X27590666Y-27660000D01*
X27590666Y-27660000D02*
X27495428Y-27702857D01*
X27495428Y-27702857D02*
X27209714Y-27702857D01*
X27209714Y-27702857D02*
X27114476Y-27660000D01*
X27114476Y-27660000D02*
X27066857Y-27617142D01*
X28019238Y-26802857D02*
X28638285Y-26802857D01*
X28638285Y-26802857D02*
X28304952Y-27145714D01*
X28304952Y-27145714D02*
X28447809Y-27145714D01*
X28447809Y-27145714D02*
X28543047Y-27188571D01*
X28543047Y-27188571D02*
X28590666Y-27231428D01*
X28590666Y-27231428D02*
X28638285Y-27317142D01*
X28638285Y-27317142D02*
X28638285Y-27531428D01*
X28638285Y-27531428D02*
X28590666Y-27617142D01*
X28590666Y-27617142D02*
X28543047Y-27660000D01*
X28543047Y-27660000D02*
X28447809Y-27702857D01*
X28447809Y-27702857D02*
X28162095Y-27702857D01*
X28162095Y-27702857D02*
X28066857Y-27660000D01*
X28066857Y-27660000D02*
X28019238Y-27617142D01*
X47958285Y-26802857D02*
X47482095Y-26802857D01*
X47482095Y-26802857D02*
X47434476Y-27231428D01*
X47434476Y-27231428D02*
X47482095Y-27188571D01*
X47482095Y-27188571D02*
X47577333Y-27145714D01*
X47577333Y-27145714D02*
X47815428Y-27145714D01*
X47815428Y-27145714D02*
X47910666Y-27188571D01*
X47910666Y-27188571D02*
X47958285Y-27231428D01*
X47958285Y-27231428D02*
X48005904Y-27317142D01*
X48005904Y-27317142D02*
X48005904Y-27531428D01*
X48005904Y-27531428D02*
X47958285Y-27617142D01*
X47958285Y-27617142D02*
X47910666Y-27660000D01*
X47910666Y-27660000D02*
X47815428Y-27702857D01*
X47815428Y-27702857D02*
X47577333Y-27702857D01*
X47577333Y-27702857D02*
X47482095Y-27660000D01*
X47482095Y-27660000D02*
X47434476Y-27617142D01*
X48863047Y-27102857D02*
X48863047Y-27702857D01*
X48624952Y-26760000D02*
X48386857Y-27402857D01*
X48386857Y-27402857D02*
X49005904Y-27402857D01*
X52466857Y-259857D02*
X53085904Y-259857D01*
X53085904Y-259857D02*
X52752571Y-602714D01*
X52752571Y-602714D02*
X52895428Y-602714D01*
X52895428Y-602714D02*
X52990666Y-645571D01*
X52990666Y-645571D02*
X53038285Y-688428D01*
X53038285Y-688428D02*
X53085904Y-774142D01*
X53085904Y-774142D02*
X53085904Y-988428D01*
X53085904Y-988428D02*
X53038285Y-1074142D01*
X53038285Y-1074142D02*
X52990666Y-1117000D01*
X52990666Y-1117000D02*
X52895428Y-1159857D01*
X52895428Y-1159857D02*
X52609714Y-1159857D01*
X52609714Y-1159857D02*
X52514476Y-1117000D01*
X52514476Y-1117000D02*
X52466857Y-1074142D01*
X54038285Y-1159857D02*
X53466857Y-1159857D01*
X53752571Y-1159857D02*
X53752571Y-259857D01*
X53752571Y-259857D02*
X53657333Y-388428D01*
X53657333Y-388428D02*
X53562095Y-474142D01*
X53562095Y-474142D02*
X53466857Y-517000D01*
X4444952Y-645571D02*
X4349714Y-602714D01*
X4349714Y-602714D02*
X4302095Y-559857D01*
X4302095Y-559857D02*
X4254476Y-474142D01*
X4254476Y-474142D02*
X4254476Y-431285D01*
X4254476Y-431285D02*
X4302095Y-345571D01*
X4302095Y-345571D02*
X4349714Y-302714D01*
X4349714Y-302714D02*
X4444952Y-259857D01*
X4444952Y-259857D02*
X4635428Y-259857D01*
X4635428Y-259857D02*
X4730666Y-302714D01*
X4730666Y-302714D02*
X4778285Y-345571D01*
X4778285Y-345571D02*
X4825904Y-431285D01*
X4825904Y-431285D02*
X4825904Y-474142D01*
X4825904Y-474142D02*
X4778285Y-559857D01*
X4778285Y-559857D02*
X4730666Y-602714D01*
X4730666Y-602714D02*
X4635428Y-645571D01*
X4635428Y-645571D02*
X4444952Y-645571D01*
X4444952Y-645571D02*
X4349714Y-688428D01*
X4349714Y-688428D02*
X4302095Y-731285D01*
X4302095Y-731285D02*
X4254476Y-817000D01*
X4254476Y-817000D02*
X4254476Y-988428D01*
X4254476Y-988428D02*
X4302095Y-1074142D01*
X4302095Y-1074142D02*
X4349714Y-1117000D01*
X4349714Y-1117000D02*
X4444952Y-1159857D01*
X4444952Y-1159857D02*
X4635428Y-1159857D01*
X4635428Y-1159857D02*
X4730666Y-1117000D01*
X4730666Y-1117000D02*
X4778285Y-1074142D01*
X4778285Y-1074142D02*
X4825904Y-988428D01*
X4825904Y-988428D02*
X4825904Y-817000D01*
X4825904Y-817000D02*
X4778285Y-731285D01*
X4778285Y-731285D02*
X4730666Y-688428D01*
X4730666Y-688428D02*
X4635428Y-645571D01*
X5683047Y-259857D02*
X5492571Y-259857D01*
X5492571Y-259857D02*
X5397333Y-302714D01*
X5397333Y-302714D02*
X5349714Y-345571D01*
X5349714Y-345571D02*
X5254476Y-474142D01*
X5254476Y-474142D02*
X5206857Y-645571D01*
X5206857Y-645571D02*
X5206857Y-988428D01*
X5206857Y-988428D02*
X5254476Y-1074142D01*
X5254476Y-1074142D02*
X5302095Y-1117000D01*
X5302095Y-1117000D02*
X5397333Y-1159857D01*
X5397333Y-1159857D02*
X5587809Y-1159857D01*
X5587809Y-1159857D02*
X5683047Y-1117000D01*
X5683047Y-1117000D02*
X5730666Y-1074142D01*
X5730666Y-1074142D02*
X5778285Y-988428D01*
X5778285Y-988428D02*
X5778285Y-774142D01*
X5778285Y-774142D02*
X5730666Y-688428D01*
X5730666Y-688428D02*
X5683047Y-645571D01*
X5683047Y-645571D02*
X5587809Y-602714D01*
X5587809Y-602714D02*
X5397333Y-602714D01*
X5397333Y-602714D02*
X5302095Y-645571D01*
X5302095Y-645571D02*
X5254476Y-688428D01*
X5254476Y-688428D02*
X5206857Y-774142D01*
X17144952Y-645571D02*
X17049714Y-602714D01*
X17049714Y-602714D02*
X17002095Y-559857D01*
X17002095Y-559857D02*
X16954476Y-474142D01*
X16954476Y-474142D02*
X16954476Y-431285D01*
X16954476Y-431285D02*
X17002095Y-345571D01*
X17002095Y-345571D02*
X17049714Y-302714D01*
X17049714Y-302714D02*
X17144952Y-259857D01*
X17144952Y-259857D02*
X17335428Y-259857D01*
X17335428Y-259857D02*
X17430666Y-302714D01*
X17430666Y-302714D02*
X17478285Y-345571D01*
X17478285Y-345571D02*
X17525904Y-431285D01*
X17525904Y-431285D02*
X17525904Y-474142D01*
X17525904Y-474142D02*
X17478285Y-559857D01*
X17478285Y-559857D02*
X17430666Y-602714D01*
X17430666Y-602714D02*
X17335428Y-645571D01*
X17335428Y-645571D02*
X17144952Y-645571D01*
X17144952Y-645571D02*
X17049714Y-688428D01*
X17049714Y-688428D02*
X17002095Y-731285D01*
X17002095Y-731285D02*
X16954476Y-817000D01*
X16954476Y-817000D02*
X16954476Y-988428D01*
X16954476Y-988428D02*
X17002095Y-1074142D01*
X17002095Y-1074142D02*
X17049714Y-1117000D01*
X17049714Y-1117000D02*
X17144952Y-1159857D01*
X17144952Y-1159857D02*
X17335428Y-1159857D01*
X17335428Y-1159857D02*
X17430666Y-1117000D01*
X17430666Y-1117000D02*
X17478285Y-1074142D01*
X17478285Y-1074142D02*
X17525904Y-988428D01*
X17525904Y-988428D02*
X17525904Y-817000D01*
X17525904Y-817000D02*
X17478285Y-731285D01*
X17478285Y-731285D02*
X17430666Y-688428D01*
X17430666Y-688428D02*
X17335428Y-645571D01*
X18478285Y-1159857D02*
X17906857Y-1159857D01*
X18192571Y-1159857D02*
X18192571Y-259857D01*
X18192571Y-259857D02*
X18097333Y-388428D01*
X18097333Y-388428D02*
X18002095Y-474142D01*
X18002095Y-474142D02*
X17906857Y-517000D01*
X60610666Y-26802857D02*
X60420190Y-26802857D01*
X60420190Y-26802857D02*
X60324952Y-26845714D01*
X60324952Y-26845714D02*
X60277333Y-26888571D01*
X60277333Y-26888571D02*
X60182095Y-27017142D01*
X60182095Y-27017142D02*
X60134476Y-27188571D01*
X60134476Y-27188571D02*
X60134476Y-27531428D01*
X60134476Y-27531428D02*
X60182095Y-27617142D01*
X60182095Y-27617142D02*
X60229714Y-27660000D01*
X60229714Y-27660000D02*
X60324952Y-27702857D01*
X60324952Y-27702857D02*
X60515428Y-27702857D01*
X60515428Y-27702857D02*
X60610666Y-27660000D01*
X60610666Y-27660000D02*
X60658285Y-27617142D01*
X60658285Y-27617142D02*
X60705904Y-27531428D01*
X60705904Y-27531428D02*
X60705904Y-27317142D01*
X60705904Y-27317142D02*
X60658285Y-27231428D01*
X60658285Y-27231428D02*
X60610666Y-27188571D01*
X60610666Y-27188571D02*
X60515428Y-27145714D01*
X60515428Y-27145714D02*
X60324952Y-27145714D01*
X60324952Y-27145714D02*
X60229714Y-27188571D01*
X60229714Y-27188571D02*
X60182095Y-27231428D01*
X60182095Y-27231428D02*
X60134476Y-27317142D01*
X61182095Y-27702857D02*
X61372571Y-27702857D01*
X61372571Y-27702857D02*
X61467809Y-27660000D01*
X61467809Y-27660000D02*
X61515428Y-27617142D01*
X61515428Y-27617142D02*
X61610666Y-27488571D01*
X61610666Y-27488571D02*
X61658285Y-27317142D01*
X61658285Y-27317142D02*
X61658285Y-26974285D01*
X61658285Y-26974285D02*
X61610666Y-26888571D01*
X61610666Y-26888571D02*
X61563047Y-26845714D01*
X61563047Y-26845714D02*
X61467809Y-26802857D01*
X61467809Y-26802857D02*
X61277333Y-26802857D01*
X61277333Y-26802857D02*
X61182095Y-26845714D01*
X61182095Y-26845714D02*
X61134476Y-26888571D01*
X61134476Y-26888571D02*
X61086857Y-26974285D01*
X61086857Y-26974285D02*
X61086857Y-27188571D01*
X61086857Y-27188571D02*
X61134476Y-27274285D01*
X61134476Y-27274285D02*
X61182095Y-27317142D01*
X61182095Y-27317142D02*
X61277333Y-27360000D01*
X61277333Y-27360000D02*
X61467809Y-27360000D01*
X61467809Y-27360000D02*
X61563047Y-27317142D01*
X61563047Y-27317142D02*
X61610666Y-27274285D01*
X61610666Y-27274285D02*
X61658285Y-27188571D01*
D11*
%TO.C,C3*%
X5881904Y-18421332D02*
X5920000Y-18459428D01*
X5920000Y-18459428D02*
X5958095Y-18573713D01*
X5958095Y-18573713D02*
X5958095Y-18649904D01*
X5958095Y-18649904D02*
X5920000Y-18764190D01*
X5920000Y-18764190D02*
X5843809Y-18840380D01*
X5843809Y-18840380D02*
X5767619Y-18878475D01*
X5767619Y-18878475D02*
X5615238Y-18916571D01*
X5615238Y-18916571D02*
X5500952Y-18916571D01*
X5500952Y-18916571D02*
X5348571Y-18878475D01*
X5348571Y-18878475D02*
X5272380Y-18840380D01*
X5272380Y-18840380D02*
X5196190Y-18764190D01*
X5196190Y-18764190D02*
X5158095Y-18649904D01*
X5158095Y-18649904D02*
X5158095Y-18573713D01*
X5158095Y-18573713D02*
X5196190Y-18459428D01*
X5196190Y-18459428D02*
X5234285Y-18421332D01*
X5158095Y-18154666D02*
X5158095Y-17659428D01*
X5158095Y-17659428D02*
X5462857Y-17926094D01*
X5462857Y-17926094D02*
X5462857Y-17811809D01*
X5462857Y-17811809D02*
X5500952Y-17735618D01*
X5500952Y-17735618D02*
X5539047Y-17697523D01*
X5539047Y-17697523D02*
X5615238Y-17659428D01*
X5615238Y-17659428D02*
X5805714Y-17659428D01*
X5805714Y-17659428D02*
X5881904Y-17697523D01*
X5881904Y-17697523D02*
X5920000Y-17735618D01*
X5920000Y-17735618D02*
X5958095Y-17811809D01*
X5958095Y-17811809D02*
X5958095Y-18040380D01*
X5958095Y-18040380D02*
X5920000Y-18116571D01*
X5920000Y-18116571D02*
X5881904Y-18154666D01*
D12*
%TO.C,U6*%
X57983620Y-14706504D02*
X58793143Y-14706504D01*
X58793143Y-14706504D02*
X58888381Y-14658885D01*
X58888381Y-14658885D02*
X58936001Y-14611266D01*
X58936001Y-14611266D02*
X58983620Y-14516028D01*
X58983620Y-14516028D02*
X58983620Y-14325552D01*
X58983620Y-14325552D02*
X58936001Y-14230314D01*
X58936001Y-14230314D02*
X58888381Y-14182695D01*
X58888381Y-14182695D02*
X58793143Y-14135076D01*
X58793143Y-14135076D02*
X57983620Y-14135076D01*
X57983620Y-13230314D02*
X57983620Y-13420790D01*
X57983620Y-13420790D02*
X58031239Y-13516028D01*
X58031239Y-13516028D02*
X58078858Y-13563647D01*
X58078858Y-13563647D02*
X58221715Y-13658885D01*
X58221715Y-13658885D02*
X58412191Y-13706504D01*
X58412191Y-13706504D02*
X58793143Y-13706504D01*
X58793143Y-13706504D02*
X58888381Y-13658885D01*
X58888381Y-13658885D02*
X58936001Y-13611266D01*
X58936001Y-13611266D02*
X58983620Y-13516028D01*
X58983620Y-13516028D02*
X58983620Y-13325552D01*
X58983620Y-13325552D02*
X58936001Y-13230314D01*
X58936001Y-13230314D02*
X58888381Y-13182695D01*
X58888381Y-13182695D02*
X58793143Y-13135076D01*
X58793143Y-13135076D02*
X58555048Y-13135076D01*
X58555048Y-13135076D02*
X58459810Y-13182695D01*
X58459810Y-13182695D02*
X58412191Y-13230314D01*
X58412191Y-13230314D02*
X58364572Y-13325552D01*
X58364572Y-13325552D02*
X58364572Y-13516028D01*
X58364572Y-13516028D02*
X58412191Y-13611266D01*
X58412191Y-13611266D02*
X58459810Y-13658885D01*
X58459810Y-13658885D02*
X58555048Y-13706504D01*
D11*
X55644809Y-17985095D02*
X56101952Y-17985095D01*
X55873380Y-18785095D02*
X55873380Y-17985095D01*
X56292428Y-17985095D02*
X56825762Y-18785095D01*
X56825762Y-17985095D02*
X56292428Y-18785095D01*
X57092428Y-18747000D02*
X57206714Y-18785095D01*
X57206714Y-18785095D02*
X57397190Y-18785095D01*
X57397190Y-18785095D02*
X57473381Y-18747000D01*
X57473381Y-18747000D02*
X57511476Y-18708904D01*
X57511476Y-18708904D02*
X57549571Y-18632714D01*
X57549571Y-18632714D02*
X57549571Y-18556523D01*
X57549571Y-18556523D02*
X57511476Y-18480333D01*
X57511476Y-18480333D02*
X57473381Y-18442238D01*
X57473381Y-18442238D02*
X57397190Y-18404142D01*
X57397190Y-18404142D02*
X57244809Y-18366047D01*
X57244809Y-18366047D02*
X57168619Y-18327952D01*
X57168619Y-18327952D02*
X57130524Y-18289857D01*
X57130524Y-18289857D02*
X57092428Y-18213666D01*
X57092428Y-18213666D02*
X57092428Y-18137476D01*
X57092428Y-18137476D02*
X57130524Y-18061285D01*
X57130524Y-18061285D02*
X57168619Y-18023190D01*
X57168619Y-18023190D02*
X57244809Y-17985095D01*
X57244809Y-17985095D02*
X57435286Y-17985095D01*
X57435286Y-17985095D02*
X57549571Y-18023190D01*
X58044810Y-17985095D02*
X58121000Y-17985095D01*
X58121000Y-17985095D02*
X58197191Y-18023190D01*
X58197191Y-18023190D02*
X58235286Y-18061285D01*
X58235286Y-18061285D02*
X58273381Y-18137476D01*
X58273381Y-18137476D02*
X58311476Y-18289857D01*
X58311476Y-18289857D02*
X58311476Y-18480333D01*
X58311476Y-18480333D02*
X58273381Y-18632714D01*
X58273381Y-18632714D02*
X58235286Y-18708904D01*
X58235286Y-18708904D02*
X58197191Y-18747000D01*
X58197191Y-18747000D02*
X58121000Y-18785095D01*
X58121000Y-18785095D02*
X58044810Y-18785095D01*
X58044810Y-18785095D02*
X57968619Y-18747000D01*
X57968619Y-18747000D02*
X57930524Y-18708904D01*
X57930524Y-18708904D02*
X57892429Y-18632714D01*
X57892429Y-18632714D02*
X57854333Y-18480333D01*
X57854333Y-18480333D02*
X57854333Y-18289857D01*
X57854333Y-18289857D02*
X57892429Y-18137476D01*
X57892429Y-18137476D02*
X57930524Y-18061285D01*
X57930524Y-18061285D02*
X57968619Y-18023190D01*
X57968619Y-18023190D02*
X58044810Y-17985095D01*
X59073381Y-18785095D02*
X58616238Y-18785095D01*
X58844810Y-18785095D02*
X58844810Y-17985095D01*
X58844810Y-17985095D02*
X58768619Y-18099380D01*
X58768619Y-18099380D02*
X58692429Y-18175571D01*
X58692429Y-18175571D02*
X58616238Y-18213666D01*
X59568620Y-17985095D02*
X59644810Y-17985095D01*
X59644810Y-17985095D02*
X59721001Y-18023190D01*
X59721001Y-18023190D02*
X59759096Y-18061285D01*
X59759096Y-18061285D02*
X59797191Y-18137476D01*
X59797191Y-18137476D02*
X59835286Y-18289857D01*
X59835286Y-18289857D02*
X59835286Y-18480333D01*
X59835286Y-18480333D02*
X59797191Y-18632714D01*
X59797191Y-18632714D02*
X59759096Y-18708904D01*
X59759096Y-18708904D02*
X59721001Y-18747000D01*
X59721001Y-18747000D02*
X59644810Y-18785095D01*
X59644810Y-18785095D02*
X59568620Y-18785095D01*
X59568620Y-18785095D02*
X59492429Y-18747000D01*
X59492429Y-18747000D02*
X59454334Y-18708904D01*
X59454334Y-18708904D02*
X59416239Y-18632714D01*
X59416239Y-18632714D02*
X59378143Y-18480333D01*
X59378143Y-18480333D02*
X59378143Y-18289857D01*
X59378143Y-18289857D02*
X59416239Y-18137476D01*
X59416239Y-18137476D02*
X59454334Y-18061285D01*
X59454334Y-18061285D02*
X59492429Y-18023190D01*
X59492429Y-18023190D02*
X59568620Y-17985095D01*
X60292429Y-18327952D02*
X60216239Y-18289857D01*
X60216239Y-18289857D02*
X60178144Y-18251761D01*
X60178144Y-18251761D02*
X60140048Y-18175571D01*
X60140048Y-18175571D02*
X60140048Y-18137476D01*
X60140048Y-18137476D02*
X60178144Y-18061285D01*
X60178144Y-18061285D02*
X60216239Y-18023190D01*
X60216239Y-18023190D02*
X60292429Y-17985095D01*
X60292429Y-17985095D02*
X60444810Y-17985095D01*
X60444810Y-17985095D02*
X60521001Y-18023190D01*
X60521001Y-18023190D02*
X60559096Y-18061285D01*
X60559096Y-18061285D02*
X60597191Y-18137476D01*
X60597191Y-18137476D02*
X60597191Y-18175571D01*
X60597191Y-18175571D02*
X60559096Y-18251761D01*
X60559096Y-18251761D02*
X60521001Y-18289857D01*
X60521001Y-18289857D02*
X60444810Y-18327952D01*
X60444810Y-18327952D02*
X60292429Y-18327952D01*
X60292429Y-18327952D02*
X60216239Y-18366047D01*
X60216239Y-18366047D02*
X60178144Y-18404142D01*
X60178144Y-18404142D02*
X60140048Y-18480333D01*
X60140048Y-18480333D02*
X60140048Y-18632714D01*
X60140048Y-18632714D02*
X60178144Y-18708904D01*
X60178144Y-18708904D02*
X60216239Y-18747000D01*
X60216239Y-18747000D02*
X60292429Y-18785095D01*
X60292429Y-18785095D02*
X60444810Y-18785095D01*
X60444810Y-18785095D02*
X60521001Y-18747000D01*
X60521001Y-18747000D02*
X60559096Y-18708904D01*
X60559096Y-18708904D02*
X60597191Y-18632714D01*
X60597191Y-18632714D02*
X60597191Y-18480333D01*
X60597191Y-18480333D02*
X60559096Y-18404142D01*
X60559096Y-18404142D02*
X60521001Y-18366047D01*
X60521001Y-18366047D02*
X60444810Y-18327952D01*
X60940049Y-18366047D02*
X61206715Y-18366047D01*
X61321001Y-18785095D02*
X60940049Y-18785095D01*
X60940049Y-18785095D02*
X60940049Y-17985095D01*
X60940049Y-17985095D02*
X61321001Y-17985095D01*
D12*
X54681620Y-17119599D02*
X54919715Y-17119599D01*
X54824477Y-17357694D02*
X54919715Y-17119599D01*
X54919715Y-17119599D02*
X54824477Y-16881504D01*
X55110191Y-17262456D02*
X54919715Y-17119599D01*
X54919715Y-17119599D02*
X55110191Y-16976742D01*
D11*
%TO.C,J2*%
X205095Y-2806666D02*
X776523Y-2806666D01*
X776523Y-2806666D02*
X890809Y-2844761D01*
X890809Y-2844761D02*
X967000Y-2920952D01*
X967000Y-2920952D02*
X1005095Y-3035237D01*
X1005095Y-3035237D02*
X1005095Y-3111428D01*
X281285Y-2463809D02*
X243190Y-2425713D01*
X243190Y-2425713D02*
X205095Y-2349523D01*
X205095Y-2349523D02*
X205095Y-2159047D01*
X205095Y-2159047D02*
X243190Y-2082856D01*
X243190Y-2082856D02*
X281285Y-2044761D01*
X281285Y-2044761D02*
X357476Y-2006666D01*
X357476Y-2006666D02*
X433666Y-2006666D01*
X433666Y-2006666D02*
X547952Y-2044761D01*
X547952Y-2044761D02*
X1005095Y-2501904D01*
X1005095Y-2501904D02*
X1005095Y-2006666D01*
%TO.C,C14*%
X53125904Y-12605785D02*
X53164000Y-12643881D01*
X53164000Y-12643881D02*
X53202095Y-12758166D01*
X53202095Y-12758166D02*
X53202095Y-12834357D01*
X53202095Y-12834357D02*
X53164000Y-12948643D01*
X53164000Y-12948643D02*
X53087809Y-13024833D01*
X53087809Y-13024833D02*
X53011619Y-13062928D01*
X53011619Y-13062928D02*
X52859238Y-13101024D01*
X52859238Y-13101024D02*
X52744952Y-13101024D01*
X52744952Y-13101024D02*
X52592571Y-13062928D01*
X52592571Y-13062928D02*
X52516380Y-13024833D01*
X52516380Y-13024833D02*
X52440190Y-12948643D01*
X52440190Y-12948643D02*
X52402095Y-12834357D01*
X52402095Y-12834357D02*
X52402095Y-12758166D01*
X52402095Y-12758166D02*
X52440190Y-12643881D01*
X52440190Y-12643881D02*
X52478285Y-12605785D01*
X53202095Y-11843881D02*
X53202095Y-12301024D01*
X53202095Y-12072452D02*
X52402095Y-12072452D01*
X52402095Y-12072452D02*
X52516380Y-12148643D01*
X52516380Y-12148643D02*
X52592571Y-12224833D01*
X52592571Y-12224833D02*
X52630666Y-12301024D01*
X52668761Y-11158166D02*
X53202095Y-11158166D01*
X52364000Y-11348642D02*
X52935428Y-11539119D01*
X52935428Y-11539119D02*
X52935428Y-11043880D01*
%TO.C,C9*%
X33821904Y-16034832D02*
X33860000Y-16072928D01*
X33860000Y-16072928D02*
X33898095Y-16187213D01*
X33898095Y-16187213D02*
X33898095Y-16263404D01*
X33898095Y-16263404D02*
X33860000Y-16377690D01*
X33860000Y-16377690D02*
X33783809Y-16453880D01*
X33783809Y-16453880D02*
X33707619Y-16491975D01*
X33707619Y-16491975D02*
X33555238Y-16530071D01*
X33555238Y-16530071D02*
X33440952Y-16530071D01*
X33440952Y-16530071D02*
X33288571Y-16491975D01*
X33288571Y-16491975D02*
X33212380Y-16453880D01*
X33212380Y-16453880D02*
X33136190Y-16377690D01*
X33136190Y-16377690D02*
X33098095Y-16263404D01*
X33098095Y-16263404D02*
X33098095Y-16187213D01*
X33098095Y-16187213D02*
X33136190Y-16072928D01*
X33136190Y-16072928D02*
X33174285Y-16034832D01*
X33898095Y-15653880D02*
X33898095Y-15501499D01*
X33898095Y-15501499D02*
X33860000Y-15425309D01*
X33860000Y-15425309D02*
X33821904Y-15387213D01*
X33821904Y-15387213D02*
X33707619Y-15311023D01*
X33707619Y-15311023D02*
X33555238Y-15272928D01*
X33555238Y-15272928D02*
X33250476Y-15272928D01*
X33250476Y-15272928D02*
X33174285Y-15311023D01*
X33174285Y-15311023D02*
X33136190Y-15349118D01*
X33136190Y-15349118D02*
X33098095Y-15425309D01*
X33098095Y-15425309D02*
X33098095Y-15577690D01*
X33098095Y-15577690D02*
X33136190Y-15653880D01*
X33136190Y-15653880D02*
X33174285Y-15691975D01*
X33174285Y-15691975D02*
X33250476Y-15730071D01*
X33250476Y-15730071D02*
X33440952Y-15730071D01*
X33440952Y-15730071D02*
X33517142Y-15691975D01*
X33517142Y-15691975D02*
X33555238Y-15653880D01*
X33555238Y-15653880D02*
X33593333Y-15577690D01*
X33593333Y-15577690D02*
X33593333Y-15425309D01*
X33593333Y-15425309D02*
X33555238Y-15349118D01*
X33555238Y-15349118D02*
X33517142Y-15311023D01*
X33517142Y-15311023D02*
X33440952Y-15272928D01*
%TO.C,C11*%
X43473904Y-16516285D02*
X43512000Y-16554381D01*
X43512000Y-16554381D02*
X43550095Y-16668666D01*
X43550095Y-16668666D02*
X43550095Y-16744857D01*
X43550095Y-16744857D02*
X43512000Y-16859143D01*
X43512000Y-16859143D02*
X43435809Y-16935333D01*
X43435809Y-16935333D02*
X43359619Y-16973428D01*
X43359619Y-16973428D02*
X43207238Y-17011524D01*
X43207238Y-17011524D02*
X43092952Y-17011524D01*
X43092952Y-17011524D02*
X42940571Y-16973428D01*
X42940571Y-16973428D02*
X42864380Y-16935333D01*
X42864380Y-16935333D02*
X42788190Y-16859143D01*
X42788190Y-16859143D02*
X42750095Y-16744857D01*
X42750095Y-16744857D02*
X42750095Y-16668666D01*
X42750095Y-16668666D02*
X42788190Y-16554381D01*
X42788190Y-16554381D02*
X42826285Y-16516285D01*
X43550095Y-15754381D02*
X43550095Y-16211524D01*
X43550095Y-15982952D02*
X42750095Y-15982952D01*
X42750095Y-15982952D02*
X42864380Y-16059143D01*
X42864380Y-16059143D02*
X42940571Y-16135333D01*
X42940571Y-16135333D02*
X42978666Y-16211524D01*
X43550095Y-14992476D02*
X43550095Y-15449619D01*
X43550095Y-15221047D02*
X42750095Y-15221047D01*
X42750095Y-15221047D02*
X42864380Y-15297238D01*
X42864380Y-15297238D02*
X42940571Y-15373428D01*
X42940571Y-15373428D02*
X42978666Y-15449619D01*
%TO.C,C7*%
X24169904Y-15881332D02*
X24208000Y-15919428D01*
X24208000Y-15919428D02*
X24246095Y-16033713D01*
X24246095Y-16033713D02*
X24246095Y-16109904D01*
X24246095Y-16109904D02*
X24208000Y-16224190D01*
X24208000Y-16224190D02*
X24131809Y-16300380D01*
X24131809Y-16300380D02*
X24055619Y-16338475D01*
X24055619Y-16338475D02*
X23903238Y-16376571D01*
X23903238Y-16376571D02*
X23788952Y-16376571D01*
X23788952Y-16376571D02*
X23636571Y-16338475D01*
X23636571Y-16338475D02*
X23560380Y-16300380D01*
X23560380Y-16300380D02*
X23484190Y-16224190D01*
X23484190Y-16224190D02*
X23446095Y-16109904D01*
X23446095Y-16109904D02*
X23446095Y-16033713D01*
X23446095Y-16033713D02*
X23484190Y-15919428D01*
X23484190Y-15919428D02*
X23522285Y-15881332D01*
X23446095Y-15614666D02*
X23446095Y-15081332D01*
X23446095Y-15081332D02*
X24246095Y-15424190D01*
%TO.C,C5*%
X14517904Y-16008332D02*
X14556000Y-16046428D01*
X14556000Y-16046428D02*
X14594095Y-16160713D01*
X14594095Y-16160713D02*
X14594095Y-16236904D01*
X14594095Y-16236904D02*
X14556000Y-16351190D01*
X14556000Y-16351190D02*
X14479809Y-16427380D01*
X14479809Y-16427380D02*
X14403619Y-16465475D01*
X14403619Y-16465475D02*
X14251238Y-16503571D01*
X14251238Y-16503571D02*
X14136952Y-16503571D01*
X14136952Y-16503571D02*
X13984571Y-16465475D01*
X13984571Y-16465475D02*
X13908380Y-16427380D01*
X13908380Y-16427380D02*
X13832190Y-16351190D01*
X13832190Y-16351190D02*
X13794095Y-16236904D01*
X13794095Y-16236904D02*
X13794095Y-16160713D01*
X13794095Y-16160713D02*
X13832190Y-16046428D01*
X13832190Y-16046428D02*
X13870285Y-16008332D01*
X13794095Y-15284523D02*
X13794095Y-15665475D01*
X13794095Y-15665475D02*
X14175047Y-15703571D01*
X14175047Y-15703571D02*
X14136952Y-15665475D01*
X14136952Y-15665475D02*
X14098857Y-15589285D01*
X14098857Y-15589285D02*
X14098857Y-15398809D01*
X14098857Y-15398809D02*
X14136952Y-15322618D01*
X14136952Y-15322618D02*
X14175047Y-15284523D01*
X14175047Y-15284523D02*
X14251238Y-15246428D01*
X14251238Y-15246428D02*
X14441714Y-15246428D01*
X14441714Y-15246428D02*
X14517904Y-15284523D01*
X14517904Y-15284523D02*
X14556000Y-15322618D01*
X14556000Y-15322618D02*
X14594095Y-15398809D01*
X14594095Y-15398809D02*
X14594095Y-15589285D01*
X14594095Y-15589285D02*
X14556000Y-15665475D01*
X14556000Y-15665475D02*
X14517904Y-15703571D01*
%TO.C,C12*%
X43473904Y-12579285D02*
X43512000Y-12617381D01*
X43512000Y-12617381D02*
X43550095Y-12731666D01*
X43550095Y-12731666D02*
X43550095Y-12807857D01*
X43550095Y-12807857D02*
X43512000Y-12922143D01*
X43512000Y-12922143D02*
X43435809Y-12998333D01*
X43435809Y-12998333D02*
X43359619Y-13036428D01*
X43359619Y-13036428D02*
X43207238Y-13074524D01*
X43207238Y-13074524D02*
X43092952Y-13074524D01*
X43092952Y-13074524D02*
X42940571Y-13036428D01*
X42940571Y-13036428D02*
X42864380Y-12998333D01*
X42864380Y-12998333D02*
X42788190Y-12922143D01*
X42788190Y-12922143D02*
X42750095Y-12807857D01*
X42750095Y-12807857D02*
X42750095Y-12731666D01*
X42750095Y-12731666D02*
X42788190Y-12617381D01*
X42788190Y-12617381D02*
X42826285Y-12579285D01*
X43550095Y-11817381D02*
X43550095Y-12274524D01*
X43550095Y-12045952D02*
X42750095Y-12045952D01*
X42750095Y-12045952D02*
X42864380Y-12122143D01*
X42864380Y-12122143D02*
X42940571Y-12198333D01*
X42940571Y-12198333D02*
X42978666Y-12274524D01*
X42826285Y-11512619D02*
X42788190Y-11474523D01*
X42788190Y-11474523D02*
X42750095Y-11398333D01*
X42750095Y-11398333D02*
X42750095Y-11207857D01*
X42750095Y-11207857D02*
X42788190Y-11131666D01*
X42788190Y-11131666D02*
X42826285Y-11093571D01*
X42826285Y-11093571D02*
X42902476Y-11055476D01*
X42902476Y-11055476D02*
X42978666Y-11055476D01*
X42978666Y-11055476D02*
X43092952Y-11093571D01*
X43092952Y-11093571D02*
X43550095Y-11550714D01*
X43550095Y-11550714D02*
X43550095Y-11055476D01*
%TO.C,C1*%
X2253167Y-9183904D02*
X2215071Y-9222000D01*
X2215071Y-9222000D02*
X2100786Y-9260095D01*
X2100786Y-9260095D02*
X2024595Y-9260095D01*
X2024595Y-9260095D02*
X1910309Y-9222000D01*
X1910309Y-9222000D02*
X1834119Y-9145809D01*
X1834119Y-9145809D02*
X1796024Y-9069619D01*
X1796024Y-9069619D02*
X1757928Y-8917238D01*
X1757928Y-8917238D02*
X1757928Y-8802952D01*
X1757928Y-8802952D02*
X1796024Y-8650571D01*
X1796024Y-8650571D02*
X1834119Y-8574380D01*
X1834119Y-8574380D02*
X1910309Y-8498190D01*
X1910309Y-8498190D02*
X2024595Y-8460095D01*
X2024595Y-8460095D02*
X2100786Y-8460095D01*
X2100786Y-8460095D02*
X2215071Y-8498190D01*
X2215071Y-8498190D02*
X2253167Y-8536285D01*
X3015071Y-9260095D02*
X2557928Y-9260095D01*
X2786500Y-9260095D02*
X2786500Y-8460095D01*
X2786500Y-8460095D02*
X2710309Y-8574380D01*
X2710309Y-8574380D02*
X2634119Y-8650571D01*
X2634119Y-8650571D02*
X2557928Y-8688666D01*
%TO.C,C8*%
X24169904Y-12071332D02*
X24208000Y-12109428D01*
X24208000Y-12109428D02*
X24246095Y-12223713D01*
X24246095Y-12223713D02*
X24246095Y-12299904D01*
X24246095Y-12299904D02*
X24208000Y-12414190D01*
X24208000Y-12414190D02*
X24131809Y-12490380D01*
X24131809Y-12490380D02*
X24055619Y-12528475D01*
X24055619Y-12528475D02*
X23903238Y-12566571D01*
X23903238Y-12566571D02*
X23788952Y-12566571D01*
X23788952Y-12566571D02*
X23636571Y-12528475D01*
X23636571Y-12528475D02*
X23560380Y-12490380D01*
X23560380Y-12490380D02*
X23484190Y-12414190D01*
X23484190Y-12414190D02*
X23446095Y-12299904D01*
X23446095Y-12299904D02*
X23446095Y-12223713D01*
X23446095Y-12223713D02*
X23484190Y-12109428D01*
X23484190Y-12109428D02*
X23522285Y-12071332D01*
X23788952Y-11614190D02*
X23750857Y-11690380D01*
X23750857Y-11690380D02*
X23712761Y-11728475D01*
X23712761Y-11728475D02*
X23636571Y-11766571D01*
X23636571Y-11766571D02*
X23598476Y-11766571D01*
X23598476Y-11766571D02*
X23522285Y-11728475D01*
X23522285Y-11728475D02*
X23484190Y-11690380D01*
X23484190Y-11690380D02*
X23446095Y-11614190D01*
X23446095Y-11614190D02*
X23446095Y-11461809D01*
X23446095Y-11461809D02*
X23484190Y-11385618D01*
X23484190Y-11385618D02*
X23522285Y-11347523D01*
X23522285Y-11347523D02*
X23598476Y-11309428D01*
X23598476Y-11309428D02*
X23636571Y-11309428D01*
X23636571Y-11309428D02*
X23712761Y-11347523D01*
X23712761Y-11347523D02*
X23750857Y-11385618D01*
X23750857Y-11385618D02*
X23788952Y-11461809D01*
X23788952Y-11461809D02*
X23788952Y-11614190D01*
X23788952Y-11614190D02*
X23827047Y-11690380D01*
X23827047Y-11690380D02*
X23865142Y-11728475D01*
X23865142Y-11728475D02*
X23941333Y-11766571D01*
X23941333Y-11766571D02*
X24093714Y-11766571D01*
X24093714Y-11766571D02*
X24169904Y-11728475D01*
X24169904Y-11728475D02*
X24208000Y-11690380D01*
X24208000Y-11690380D02*
X24246095Y-11614190D01*
X24246095Y-11614190D02*
X24246095Y-11461809D01*
X24246095Y-11461809D02*
X24208000Y-11385618D01*
X24208000Y-11385618D02*
X24169904Y-11347523D01*
X24169904Y-11347523D02*
X24093714Y-11309428D01*
X24093714Y-11309428D02*
X23941333Y-11309428D01*
X23941333Y-11309428D02*
X23865142Y-11347523D01*
X23865142Y-11347523D02*
X23827047Y-11385618D01*
X23827047Y-11385618D02*
X23788952Y-11461809D01*
%TO.C,C10*%
X33821904Y-12579285D02*
X33860000Y-12617381D01*
X33860000Y-12617381D02*
X33898095Y-12731666D01*
X33898095Y-12731666D02*
X33898095Y-12807857D01*
X33898095Y-12807857D02*
X33860000Y-12922143D01*
X33860000Y-12922143D02*
X33783809Y-12998333D01*
X33783809Y-12998333D02*
X33707619Y-13036428D01*
X33707619Y-13036428D02*
X33555238Y-13074524D01*
X33555238Y-13074524D02*
X33440952Y-13074524D01*
X33440952Y-13074524D02*
X33288571Y-13036428D01*
X33288571Y-13036428D02*
X33212380Y-12998333D01*
X33212380Y-12998333D02*
X33136190Y-12922143D01*
X33136190Y-12922143D02*
X33098095Y-12807857D01*
X33098095Y-12807857D02*
X33098095Y-12731666D01*
X33098095Y-12731666D02*
X33136190Y-12617381D01*
X33136190Y-12617381D02*
X33174285Y-12579285D01*
X33898095Y-11817381D02*
X33898095Y-12274524D01*
X33898095Y-12045952D02*
X33098095Y-12045952D01*
X33098095Y-12045952D02*
X33212380Y-12122143D01*
X33212380Y-12122143D02*
X33288571Y-12198333D01*
X33288571Y-12198333D02*
X33326666Y-12274524D01*
X33098095Y-11322142D02*
X33098095Y-11245952D01*
X33098095Y-11245952D02*
X33136190Y-11169761D01*
X33136190Y-11169761D02*
X33174285Y-11131666D01*
X33174285Y-11131666D02*
X33250476Y-11093571D01*
X33250476Y-11093571D02*
X33402857Y-11055476D01*
X33402857Y-11055476D02*
X33593333Y-11055476D01*
X33593333Y-11055476D02*
X33745714Y-11093571D01*
X33745714Y-11093571D02*
X33821904Y-11131666D01*
X33821904Y-11131666D02*
X33860000Y-11169761D01*
X33860000Y-11169761D02*
X33898095Y-11245952D01*
X33898095Y-11245952D02*
X33898095Y-11322142D01*
X33898095Y-11322142D02*
X33860000Y-11398333D01*
X33860000Y-11398333D02*
X33821904Y-11436428D01*
X33821904Y-11436428D02*
X33745714Y-11474523D01*
X33745714Y-11474523D02*
X33593333Y-11512619D01*
X33593333Y-11512619D02*
X33402857Y-11512619D01*
X33402857Y-11512619D02*
X33250476Y-11474523D01*
X33250476Y-11474523D02*
X33174285Y-11436428D01*
X33174285Y-11436428D02*
X33136190Y-11398333D01*
X33136190Y-11398333D02*
X33098095Y-11322142D01*
%TO.C,C2*%
X2253167Y-19503904D02*
X2215071Y-19542000D01*
X2215071Y-19542000D02*
X2100786Y-19580095D01*
X2100786Y-19580095D02*
X2024595Y-19580095D01*
X2024595Y-19580095D02*
X1910309Y-19542000D01*
X1910309Y-19542000D02*
X1834119Y-19465809D01*
X1834119Y-19465809D02*
X1796024Y-19389619D01*
X1796024Y-19389619D02*
X1757928Y-19237238D01*
X1757928Y-19237238D02*
X1757928Y-19122952D01*
X1757928Y-19122952D02*
X1796024Y-18970571D01*
X1796024Y-18970571D02*
X1834119Y-18894380D01*
X1834119Y-18894380D02*
X1910309Y-18818190D01*
X1910309Y-18818190D02*
X2024595Y-18780095D01*
X2024595Y-18780095D02*
X2100786Y-18780095D01*
X2100786Y-18780095D02*
X2215071Y-18818190D01*
X2215071Y-18818190D02*
X2253167Y-18856285D01*
X2557928Y-18856285D02*
X2596024Y-18818190D01*
X2596024Y-18818190D02*
X2672214Y-18780095D01*
X2672214Y-18780095D02*
X2862690Y-18780095D01*
X2862690Y-18780095D02*
X2938881Y-18818190D01*
X2938881Y-18818190D02*
X2976976Y-18856285D01*
X2976976Y-18856285D02*
X3015071Y-18932476D01*
X3015071Y-18932476D02*
X3015071Y-19008666D01*
X3015071Y-19008666D02*
X2976976Y-19122952D01*
X2976976Y-19122952D02*
X2519833Y-19580095D01*
X2519833Y-19580095D02*
X3015071Y-19580095D01*
%TO.C,C6*%
X14517904Y-12071332D02*
X14556000Y-12109428D01*
X14556000Y-12109428D02*
X14594095Y-12223713D01*
X14594095Y-12223713D02*
X14594095Y-12299904D01*
X14594095Y-12299904D02*
X14556000Y-12414190D01*
X14556000Y-12414190D02*
X14479809Y-12490380D01*
X14479809Y-12490380D02*
X14403619Y-12528475D01*
X14403619Y-12528475D02*
X14251238Y-12566571D01*
X14251238Y-12566571D02*
X14136952Y-12566571D01*
X14136952Y-12566571D02*
X13984571Y-12528475D01*
X13984571Y-12528475D02*
X13908380Y-12490380D01*
X13908380Y-12490380D02*
X13832190Y-12414190D01*
X13832190Y-12414190D02*
X13794095Y-12299904D01*
X13794095Y-12299904D02*
X13794095Y-12223713D01*
X13794095Y-12223713D02*
X13832190Y-12109428D01*
X13832190Y-12109428D02*
X13870285Y-12071332D01*
X13794095Y-11385618D02*
X13794095Y-11537999D01*
X13794095Y-11537999D02*
X13832190Y-11614190D01*
X13832190Y-11614190D02*
X13870285Y-11652285D01*
X13870285Y-11652285D02*
X13984571Y-11728475D01*
X13984571Y-11728475D02*
X14136952Y-11766571D01*
X14136952Y-11766571D02*
X14441714Y-11766571D01*
X14441714Y-11766571D02*
X14517904Y-11728475D01*
X14517904Y-11728475D02*
X14556000Y-11690380D01*
X14556000Y-11690380D02*
X14594095Y-11614190D01*
X14594095Y-11614190D02*
X14594095Y-11461809D01*
X14594095Y-11461809D02*
X14556000Y-11385618D01*
X14556000Y-11385618D02*
X14517904Y-11347523D01*
X14517904Y-11347523D02*
X14441714Y-11309428D01*
X14441714Y-11309428D02*
X14251238Y-11309428D01*
X14251238Y-11309428D02*
X14175047Y-11347523D01*
X14175047Y-11347523D02*
X14136952Y-11385618D01*
X14136952Y-11385618D02*
X14098857Y-11461809D01*
X14098857Y-11461809D02*
X14098857Y-11614190D01*
X14098857Y-11614190D02*
X14136952Y-11690380D01*
X14136952Y-11690380D02*
X14175047Y-11728475D01*
X14175047Y-11728475D02*
X14251238Y-11766571D01*
D12*
%TO.C,U1*%
X9723620Y-14706504D02*
X10533143Y-14706504D01*
X10533143Y-14706504D02*
X10628381Y-14658885D01*
X10628381Y-14658885D02*
X10676001Y-14611266D01*
X10676001Y-14611266D02*
X10723620Y-14516028D01*
X10723620Y-14516028D02*
X10723620Y-14325552D01*
X10723620Y-14325552D02*
X10676001Y-14230314D01*
X10676001Y-14230314D02*
X10628381Y-14182695D01*
X10628381Y-14182695D02*
X10533143Y-14135076D01*
X10533143Y-14135076D02*
X9723620Y-14135076D01*
X10723620Y-13135076D02*
X10723620Y-13706504D01*
X10723620Y-13420790D02*
X9723620Y-13420790D01*
X9723620Y-13420790D02*
X9866477Y-13516028D01*
X9866477Y-13516028D02*
X9961715Y-13611266D01*
X9961715Y-13611266D02*
X10009334Y-13706504D01*
D11*
X7384809Y-17985095D02*
X7841952Y-17985095D01*
X7613380Y-18785095D02*
X7613380Y-17985095D01*
X8032428Y-17985095D02*
X8565762Y-18785095D01*
X8565762Y-17985095D02*
X8032428Y-18785095D01*
X8832428Y-18747000D02*
X8946714Y-18785095D01*
X8946714Y-18785095D02*
X9137190Y-18785095D01*
X9137190Y-18785095D02*
X9213381Y-18747000D01*
X9213381Y-18747000D02*
X9251476Y-18708904D01*
X9251476Y-18708904D02*
X9289571Y-18632714D01*
X9289571Y-18632714D02*
X9289571Y-18556523D01*
X9289571Y-18556523D02*
X9251476Y-18480333D01*
X9251476Y-18480333D02*
X9213381Y-18442238D01*
X9213381Y-18442238D02*
X9137190Y-18404142D01*
X9137190Y-18404142D02*
X8984809Y-18366047D01*
X8984809Y-18366047D02*
X8908619Y-18327952D01*
X8908619Y-18327952D02*
X8870524Y-18289857D01*
X8870524Y-18289857D02*
X8832428Y-18213666D01*
X8832428Y-18213666D02*
X8832428Y-18137476D01*
X8832428Y-18137476D02*
X8870524Y-18061285D01*
X8870524Y-18061285D02*
X8908619Y-18023190D01*
X8908619Y-18023190D02*
X8984809Y-17985095D01*
X8984809Y-17985095D02*
X9175286Y-17985095D01*
X9175286Y-17985095D02*
X9289571Y-18023190D01*
X9784810Y-17985095D02*
X9861000Y-17985095D01*
X9861000Y-17985095D02*
X9937191Y-18023190D01*
X9937191Y-18023190D02*
X9975286Y-18061285D01*
X9975286Y-18061285D02*
X10013381Y-18137476D01*
X10013381Y-18137476D02*
X10051476Y-18289857D01*
X10051476Y-18289857D02*
X10051476Y-18480333D01*
X10051476Y-18480333D02*
X10013381Y-18632714D01*
X10013381Y-18632714D02*
X9975286Y-18708904D01*
X9975286Y-18708904D02*
X9937191Y-18747000D01*
X9937191Y-18747000D02*
X9861000Y-18785095D01*
X9861000Y-18785095D02*
X9784810Y-18785095D01*
X9784810Y-18785095D02*
X9708619Y-18747000D01*
X9708619Y-18747000D02*
X9670524Y-18708904D01*
X9670524Y-18708904D02*
X9632429Y-18632714D01*
X9632429Y-18632714D02*
X9594333Y-18480333D01*
X9594333Y-18480333D02*
X9594333Y-18289857D01*
X9594333Y-18289857D02*
X9632429Y-18137476D01*
X9632429Y-18137476D02*
X9670524Y-18061285D01*
X9670524Y-18061285D02*
X9708619Y-18023190D01*
X9708619Y-18023190D02*
X9784810Y-17985095D01*
X10813381Y-18785095D02*
X10356238Y-18785095D01*
X10584810Y-18785095D02*
X10584810Y-17985095D01*
X10584810Y-17985095D02*
X10508619Y-18099380D01*
X10508619Y-18099380D02*
X10432429Y-18175571D01*
X10432429Y-18175571D02*
X10356238Y-18213666D01*
X11308620Y-17985095D02*
X11384810Y-17985095D01*
X11384810Y-17985095D02*
X11461001Y-18023190D01*
X11461001Y-18023190D02*
X11499096Y-18061285D01*
X11499096Y-18061285D02*
X11537191Y-18137476D01*
X11537191Y-18137476D02*
X11575286Y-18289857D01*
X11575286Y-18289857D02*
X11575286Y-18480333D01*
X11575286Y-18480333D02*
X11537191Y-18632714D01*
X11537191Y-18632714D02*
X11499096Y-18708904D01*
X11499096Y-18708904D02*
X11461001Y-18747000D01*
X11461001Y-18747000D02*
X11384810Y-18785095D01*
X11384810Y-18785095D02*
X11308620Y-18785095D01*
X11308620Y-18785095D02*
X11232429Y-18747000D01*
X11232429Y-18747000D02*
X11194334Y-18708904D01*
X11194334Y-18708904D02*
X11156239Y-18632714D01*
X11156239Y-18632714D02*
X11118143Y-18480333D01*
X11118143Y-18480333D02*
X11118143Y-18289857D01*
X11118143Y-18289857D02*
X11156239Y-18137476D01*
X11156239Y-18137476D02*
X11194334Y-18061285D01*
X11194334Y-18061285D02*
X11232429Y-18023190D01*
X11232429Y-18023190D02*
X11308620Y-17985095D01*
X12032429Y-18327952D02*
X11956239Y-18289857D01*
X11956239Y-18289857D02*
X11918144Y-18251761D01*
X11918144Y-18251761D02*
X11880048Y-18175571D01*
X11880048Y-18175571D02*
X11880048Y-18137476D01*
X11880048Y-18137476D02*
X11918144Y-18061285D01*
X11918144Y-18061285D02*
X11956239Y-18023190D01*
X11956239Y-18023190D02*
X12032429Y-17985095D01*
X12032429Y-17985095D02*
X12184810Y-17985095D01*
X12184810Y-17985095D02*
X12261001Y-18023190D01*
X12261001Y-18023190D02*
X12299096Y-18061285D01*
X12299096Y-18061285D02*
X12337191Y-18137476D01*
X12337191Y-18137476D02*
X12337191Y-18175571D01*
X12337191Y-18175571D02*
X12299096Y-18251761D01*
X12299096Y-18251761D02*
X12261001Y-18289857D01*
X12261001Y-18289857D02*
X12184810Y-18327952D01*
X12184810Y-18327952D02*
X12032429Y-18327952D01*
X12032429Y-18327952D02*
X11956239Y-18366047D01*
X11956239Y-18366047D02*
X11918144Y-18404142D01*
X11918144Y-18404142D02*
X11880048Y-18480333D01*
X11880048Y-18480333D02*
X11880048Y-18632714D01*
X11880048Y-18632714D02*
X11918144Y-18708904D01*
X11918144Y-18708904D02*
X11956239Y-18747000D01*
X11956239Y-18747000D02*
X12032429Y-18785095D01*
X12032429Y-18785095D02*
X12184810Y-18785095D01*
X12184810Y-18785095D02*
X12261001Y-18747000D01*
X12261001Y-18747000D02*
X12299096Y-18708904D01*
X12299096Y-18708904D02*
X12337191Y-18632714D01*
X12337191Y-18632714D02*
X12337191Y-18480333D01*
X12337191Y-18480333D02*
X12299096Y-18404142D01*
X12299096Y-18404142D02*
X12261001Y-18366047D01*
X12261001Y-18366047D02*
X12184810Y-18327952D01*
X12680049Y-18366047D02*
X12946715Y-18366047D01*
X13061001Y-18785095D02*
X12680049Y-18785095D01*
X12680049Y-18785095D02*
X12680049Y-17985095D01*
X12680049Y-17985095D02*
X13061001Y-17985095D01*
D12*
X6421620Y-17119599D02*
X6659715Y-17119599D01*
X6564477Y-17357694D02*
X6659715Y-17119599D01*
X6659715Y-17119599D02*
X6564477Y-16881504D01*
X6850191Y-17262456D02*
X6659715Y-17119599D01*
X6659715Y-17119599D02*
X6850191Y-16976742D01*
%TO.C,U4*%
X38679620Y-14706504D02*
X39489143Y-14706504D01*
X39489143Y-14706504D02*
X39584381Y-14658885D01*
X39584381Y-14658885D02*
X39632001Y-14611266D01*
X39632001Y-14611266D02*
X39679620Y-14516028D01*
X39679620Y-14516028D02*
X39679620Y-14325552D01*
X39679620Y-14325552D02*
X39632001Y-14230314D01*
X39632001Y-14230314D02*
X39584381Y-14182695D01*
X39584381Y-14182695D02*
X39489143Y-14135076D01*
X39489143Y-14135076D02*
X38679620Y-14135076D01*
X39012953Y-13230314D02*
X39679620Y-13230314D01*
X38632001Y-13468409D02*
X39346286Y-13706504D01*
X39346286Y-13706504D02*
X39346286Y-13087457D01*
D11*
X36340809Y-17985095D02*
X36797952Y-17985095D01*
X36569380Y-18785095D02*
X36569380Y-17985095D01*
X36988428Y-17985095D02*
X37521762Y-18785095D01*
X37521762Y-17985095D02*
X36988428Y-18785095D01*
X37788428Y-18747000D02*
X37902714Y-18785095D01*
X37902714Y-18785095D02*
X38093190Y-18785095D01*
X38093190Y-18785095D02*
X38169381Y-18747000D01*
X38169381Y-18747000D02*
X38207476Y-18708904D01*
X38207476Y-18708904D02*
X38245571Y-18632714D01*
X38245571Y-18632714D02*
X38245571Y-18556523D01*
X38245571Y-18556523D02*
X38207476Y-18480333D01*
X38207476Y-18480333D02*
X38169381Y-18442238D01*
X38169381Y-18442238D02*
X38093190Y-18404142D01*
X38093190Y-18404142D02*
X37940809Y-18366047D01*
X37940809Y-18366047D02*
X37864619Y-18327952D01*
X37864619Y-18327952D02*
X37826524Y-18289857D01*
X37826524Y-18289857D02*
X37788428Y-18213666D01*
X37788428Y-18213666D02*
X37788428Y-18137476D01*
X37788428Y-18137476D02*
X37826524Y-18061285D01*
X37826524Y-18061285D02*
X37864619Y-18023190D01*
X37864619Y-18023190D02*
X37940809Y-17985095D01*
X37940809Y-17985095D02*
X38131286Y-17985095D01*
X38131286Y-17985095D02*
X38245571Y-18023190D01*
X38740810Y-17985095D02*
X38817000Y-17985095D01*
X38817000Y-17985095D02*
X38893191Y-18023190D01*
X38893191Y-18023190D02*
X38931286Y-18061285D01*
X38931286Y-18061285D02*
X38969381Y-18137476D01*
X38969381Y-18137476D02*
X39007476Y-18289857D01*
X39007476Y-18289857D02*
X39007476Y-18480333D01*
X39007476Y-18480333D02*
X38969381Y-18632714D01*
X38969381Y-18632714D02*
X38931286Y-18708904D01*
X38931286Y-18708904D02*
X38893191Y-18747000D01*
X38893191Y-18747000D02*
X38817000Y-18785095D01*
X38817000Y-18785095D02*
X38740810Y-18785095D01*
X38740810Y-18785095D02*
X38664619Y-18747000D01*
X38664619Y-18747000D02*
X38626524Y-18708904D01*
X38626524Y-18708904D02*
X38588429Y-18632714D01*
X38588429Y-18632714D02*
X38550333Y-18480333D01*
X38550333Y-18480333D02*
X38550333Y-18289857D01*
X38550333Y-18289857D02*
X38588429Y-18137476D01*
X38588429Y-18137476D02*
X38626524Y-18061285D01*
X38626524Y-18061285D02*
X38664619Y-18023190D01*
X38664619Y-18023190D02*
X38740810Y-17985095D01*
X39769381Y-18785095D02*
X39312238Y-18785095D01*
X39540810Y-18785095D02*
X39540810Y-17985095D01*
X39540810Y-17985095D02*
X39464619Y-18099380D01*
X39464619Y-18099380D02*
X39388429Y-18175571D01*
X39388429Y-18175571D02*
X39312238Y-18213666D01*
X40264620Y-17985095D02*
X40340810Y-17985095D01*
X40340810Y-17985095D02*
X40417001Y-18023190D01*
X40417001Y-18023190D02*
X40455096Y-18061285D01*
X40455096Y-18061285D02*
X40493191Y-18137476D01*
X40493191Y-18137476D02*
X40531286Y-18289857D01*
X40531286Y-18289857D02*
X40531286Y-18480333D01*
X40531286Y-18480333D02*
X40493191Y-18632714D01*
X40493191Y-18632714D02*
X40455096Y-18708904D01*
X40455096Y-18708904D02*
X40417001Y-18747000D01*
X40417001Y-18747000D02*
X40340810Y-18785095D01*
X40340810Y-18785095D02*
X40264620Y-18785095D01*
X40264620Y-18785095D02*
X40188429Y-18747000D01*
X40188429Y-18747000D02*
X40150334Y-18708904D01*
X40150334Y-18708904D02*
X40112239Y-18632714D01*
X40112239Y-18632714D02*
X40074143Y-18480333D01*
X40074143Y-18480333D02*
X40074143Y-18289857D01*
X40074143Y-18289857D02*
X40112239Y-18137476D01*
X40112239Y-18137476D02*
X40150334Y-18061285D01*
X40150334Y-18061285D02*
X40188429Y-18023190D01*
X40188429Y-18023190D02*
X40264620Y-17985095D01*
X40988429Y-18327952D02*
X40912239Y-18289857D01*
X40912239Y-18289857D02*
X40874144Y-18251761D01*
X40874144Y-18251761D02*
X40836048Y-18175571D01*
X40836048Y-18175571D02*
X40836048Y-18137476D01*
X40836048Y-18137476D02*
X40874144Y-18061285D01*
X40874144Y-18061285D02*
X40912239Y-18023190D01*
X40912239Y-18023190D02*
X40988429Y-17985095D01*
X40988429Y-17985095D02*
X41140810Y-17985095D01*
X41140810Y-17985095D02*
X41217001Y-18023190D01*
X41217001Y-18023190D02*
X41255096Y-18061285D01*
X41255096Y-18061285D02*
X41293191Y-18137476D01*
X41293191Y-18137476D02*
X41293191Y-18175571D01*
X41293191Y-18175571D02*
X41255096Y-18251761D01*
X41255096Y-18251761D02*
X41217001Y-18289857D01*
X41217001Y-18289857D02*
X41140810Y-18327952D01*
X41140810Y-18327952D02*
X40988429Y-18327952D01*
X40988429Y-18327952D02*
X40912239Y-18366047D01*
X40912239Y-18366047D02*
X40874144Y-18404142D01*
X40874144Y-18404142D02*
X40836048Y-18480333D01*
X40836048Y-18480333D02*
X40836048Y-18632714D01*
X40836048Y-18632714D02*
X40874144Y-18708904D01*
X40874144Y-18708904D02*
X40912239Y-18747000D01*
X40912239Y-18747000D02*
X40988429Y-18785095D01*
X40988429Y-18785095D02*
X41140810Y-18785095D01*
X41140810Y-18785095D02*
X41217001Y-18747000D01*
X41217001Y-18747000D02*
X41255096Y-18708904D01*
X41255096Y-18708904D02*
X41293191Y-18632714D01*
X41293191Y-18632714D02*
X41293191Y-18480333D01*
X41293191Y-18480333D02*
X41255096Y-18404142D01*
X41255096Y-18404142D02*
X41217001Y-18366047D01*
X41217001Y-18366047D02*
X41140810Y-18327952D01*
X41636049Y-18366047D02*
X41902715Y-18366047D01*
X42017001Y-18785095D02*
X41636049Y-18785095D01*
X41636049Y-18785095D02*
X41636049Y-17985095D01*
X41636049Y-17985095D02*
X42017001Y-17985095D01*
D12*
X35377620Y-17119599D02*
X35615715Y-17119599D01*
X35520477Y-17357694D02*
X35615715Y-17119599D01*
X35615715Y-17119599D02*
X35520477Y-16881504D01*
X35806191Y-17262456D02*
X35615715Y-17119599D01*
X35615715Y-17119599D02*
X35806191Y-16976742D01*
%TO.C,U5*%
X48331620Y-14706504D02*
X49141143Y-14706504D01*
X49141143Y-14706504D02*
X49236381Y-14658885D01*
X49236381Y-14658885D02*
X49284001Y-14611266D01*
X49284001Y-14611266D02*
X49331620Y-14516028D01*
X49331620Y-14516028D02*
X49331620Y-14325552D01*
X49331620Y-14325552D02*
X49284001Y-14230314D01*
X49284001Y-14230314D02*
X49236381Y-14182695D01*
X49236381Y-14182695D02*
X49141143Y-14135076D01*
X49141143Y-14135076D02*
X48331620Y-14135076D01*
X48331620Y-13182695D02*
X48331620Y-13658885D01*
X48331620Y-13658885D02*
X48807810Y-13706504D01*
X48807810Y-13706504D02*
X48760191Y-13658885D01*
X48760191Y-13658885D02*
X48712572Y-13563647D01*
X48712572Y-13563647D02*
X48712572Y-13325552D01*
X48712572Y-13325552D02*
X48760191Y-13230314D01*
X48760191Y-13230314D02*
X48807810Y-13182695D01*
X48807810Y-13182695D02*
X48903048Y-13135076D01*
X48903048Y-13135076D02*
X49141143Y-13135076D01*
X49141143Y-13135076D02*
X49236381Y-13182695D01*
X49236381Y-13182695D02*
X49284001Y-13230314D01*
X49284001Y-13230314D02*
X49331620Y-13325552D01*
X49331620Y-13325552D02*
X49331620Y-13563647D01*
X49331620Y-13563647D02*
X49284001Y-13658885D01*
X49284001Y-13658885D02*
X49236381Y-13706504D01*
D11*
X45992809Y-17985095D02*
X46449952Y-17985095D01*
X46221380Y-18785095D02*
X46221380Y-17985095D01*
X46640428Y-17985095D02*
X47173762Y-18785095D01*
X47173762Y-17985095D02*
X46640428Y-18785095D01*
X47440428Y-18747000D02*
X47554714Y-18785095D01*
X47554714Y-18785095D02*
X47745190Y-18785095D01*
X47745190Y-18785095D02*
X47821381Y-18747000D01*
X47821381Y-18747000D02*
X47859476Y-18708904D01*
X47859476Y-18708904D02*
X47897571Y-18632714D01*
X47897571Y-18632714D02*
X47897571Y-18556523D01*
X47897571Y-18556523D02*
X47859476Y-18480333D01*
X47859476Y-18480333D02*
X47821381Y-18442238D01*
X47821381Y-18442238D02*
X47745190Y-18404142D01*
X47745190Y-18404142D02*
X47592809Y-18366047D01*
X47592809Y-18366047D02*
X47516619Y-18327952D01*
X47516619Y-18327952D02*
X47478524Y-18289857D01*
X47478524Y-18289857D02*
X47440428Y-18213666D01*
X47440428Y-18213666D02*
X47440428Y-18137476D01*
X47440428Y-18137476D02*
X47478524Y-18061285D01*
X47478524Y-18061285D02*
X47516619Y-18023190D01*
X47516619Y-18023190D02*
X47592809Y-17985095D01*
X47592809Y-17985095D02*
X47783286Y-17985095D01*
X47783286Y-17985095D02*
X47897571Y-18023190D01*
X48392810Y-17985095D02*
X48469000Y-17985095D01*
X48469000Y-17985095D02*
X48545191Y-18023190D01*
X48545191Y-18023190D02*
X48583286Y-18061285D01*
X48583286Y-18061285D02*
X48621381Y-18137476D01*
X48621381Y-18137476D02*
X48659476Y-18289857D01*
X48659476Y-18289857D02*
X48659476Y-18480333D01*
X48659476Y-18480333D02*
X48621381Y-18632714D01*
X48621381Y-18632714D02*
X48583286Y-18708904D01*
X48583286Y-18708904D02*
X48545191Y-18747000D01*
X48545191Y-18747000D02*
X48469000Y-18785095D01*
X48469000Y-18785095D02*
X48392810Y-18785095D01*
X48392810Y-18785095D02*
X48316619Y-18747000D01*
X48316619Y-18747000D02*
X48278524Y-18708904D01*
X48278524Y-18708904D02*
X48240429Y-18632714D01*
X48240429Y-18632714D02*
X48202333Y-18480333D01*
X48202333Y-18480333D02*
X48202333Y-18289857D01*
X48202333Y-18289857D02*
X48240429Y-18137476D01*
X48240429Y-18137476D02*
X48278524Y-18061285D01*
X48278524Y-18061285D02*
X48316619Y-18023190D01*
X48316619Y-18023190D02*
X48392810Y-17985095D01*
X49421381Y-18785095D02*
X48964238Y-18785095D01*
X49192810Y-18785095D02*
X49192810Y-17985095D01*
X49192810Y-17985095D02*
X49116619Y-18099380D01*
X49116619Y-18099380D02*
X49040429Y-18175571D01*
X49040429Y-18175571D02*
X48964238Y-18213666D01*
X49916620Y-17985095D02*
X49992810Y-17985095D01*
X49992810Y-17985095D02*
X50069001Y-18023190D01*
X50069001Y-18023190D02*
X50107096Y-18061285D01*
X50107096Y-18061285D02*
X50145191Y-18137476D01*
X50145191Y-18137476D02*
X50183286Y-18289857D01*
X50183286Y-18289857D02*
X50183286Y-18480333D01*
X50183286Y-18480333D02*
X50145191Y-18632714D01*
X50145191Y-18632714D02*
X50107096Y-18708904D01*
X50107096Y-18708904D02*
X50069001Y-18747000D01*
X50069001Y-18747000D02*
X49992810Y-18785095D01*
X49992810Y-18785095D02*
X49916620Y-18785095D01*
X49916620Y-18785095D02*
X49840429Y-18747000D01*
X49840429Y-18747000D02*
X49802334Y-18708904D01*
X49802334Y-18708904D02*
X49764239Y-18632714D01*
X49764239Y-18632714D02*
X49726143Y-18480333D01*
X49726143Y-18480333D02*
X49726143Y-18289857D01*
X49726143Y-18289857D02*
X49764239Y-18137476D01*
X49764239Y-18137476D02*
X49802334Y-18061285D01*
X49802334Y-18061285D02*
X49840429Y-18023190D01*
X49840429Y-18023190D02*
X49916620Y-17985095D01*
X50640429Y-18327952D02*
X50564239Y-18289857D01*
X50564239Y-18289857D02*
X50526144Y-18251761D01*
X50526144Y-18251761D02*
X50488048Y-18175571D01*
X50488048Y-18175571D02*
X50488048Y-18137476D01*
X50488048Y-18137476D02*
X50526144Y-18061285D01*
X50526144Y-18061285D02*
X50564239Y-18023190D01*
X50564239Y-18023190D02*
X50640429Y-17985095D01*
X50640429Y-17985095D02*
X50792810Y-17985095D01*
X50792810Y-17985095D02*
X50869001Y-18023190D01*
X50869001Y-18023190D02*
X50907096Y-18061285D01*
X50907096Y-18061285D02*
X50945191Y-18137476D01*
X50945191Y-18137476D02*
X50945191Y-18175571D01*
X50945191Y-18175571D02*
X50907096Y-18251761D01*
X50907096Y-18251761D02*
X50869001Y-18289857D01*
X50869001Y-18289857D02*
X50792810Y-18327952D01*
X50792810Y-18327952D02*
X50640429Y-18327952D01*
X50640429Y-18327952D02*
X50564239Y-18366047D01*
X50564239Y-18366047D02*
X50526144Y-18404142D01*
X50526144Y-18404142D02*
X50488048Y-18480333D01*
X50488048Y-18480333D02*
X50488048Y-18632714D01*
X50488048Y-18632714D02*
X50526144Y-18708904D01*
X50526144Y-18708904D02*
X50564239Y-18747000D01*
X50564239Y-18747000D02*
X50640429Y-18785095D01*
X50640429Y-18785095D02*
X50792810Y-18785095D01*
X50792810Y-18785095D02*
X50869001Y-18747000D01*
X50869001Y-18747000D02*
X50907096Y-18708904D01*
X50907096Y-18708904D02*
X50945191Y-18632714D01*
X50945191Y-18632714D02*
X50945191Y-18480333D01*
X50945191Y-18480333D02*
X50907096Y-18404142D01*
X50907096Y-18404142D02*
X50869001Y-18366047D01*
X50869001Y-18366047D02*
X50792810Y-18327952D01*
X51288049Y-18366047D02*
X51554715Y-18366047D01*
X51669001Y-18785095D02*
X51288049Y-18785095D01*
X51288049Y-18785095D02*
X51288049Y-17985095D01*
X51288049Y-17985095D02*
X51669001Y-17985095D01*
D12*
X45029620Y-17119599D02*
X45267715Y-17119599D01*
X45172477Y-17357694D02*
X45267715Y-17119599D01*
X45267715Y-17119599D02*
X45172477Y-16881504D01*
X45458191Y-17262456D02*
X45267715Y-17119599D01*
X45267715Y-17119599D02*
X45458191Y-16976742D01*
D11*
%TO.C,C4*%
X5881904Y-9785332D02*
X5920000Y-9823428D01*
X5920000Y-9823428D02*
X5958095Y-9937713D01*
X5958095Y-9937713D02*
X5958095Y-10013904D01*
X5958095Y-10013904D02*
X5920000Y-10128190D01*
X5920000Y-10128190D02*
X5843809Y-10204380D01*
X5843809Y-10204380D02*
X5767619Y-10242475D01*
X5767619Y-10242475D02*
X5615238Y-10280571D01*
X5615238Y-10280571D02*
X5500952Y-10280571D01*
X5500952Y-10280571D02*
X5348571Y-10242475D01*
X5348571Y-10242475D02*
X5272380Y-10204380D01*
X5272380Y-10204380D02*
X5196190Y-10128190D01*
X5196190Y-10128190D02*
X5158095Y-10013904D01*
X5158095Y-10013904D02*
X5158095Y-9937713D01*
X5158095Y-9937713D02*
X5196190Y-9823428D01*
X5196190Y-9823428D02*
X5234285Y-9785332D01*
X5424761Y-9099618D02*
X5958095Y-9099618D01*
X5120000Y-9290094D02*
X5691428Y-9480571D01*
X5691428Y-9480571D02*
X5691428Y-8985332D01*
%TO.C,PS1*%
X4122571Y-16070001D02*
X4122571Y-15727144D01*
X4722571Y-15898572D02*
X4122571Y-15898572D01*
X4722571Y-15241429D02*
X4722571Y-15527143D01*
X4722571Y-15527143D02*
X4122571Y-15527143D01*
X4122571Y-15127144D02*
X4722571Y-14927144D01*
X4722571Y-14927144D02*
X4122571Y-14727144D01*
X4122571Y-14584286D02*
X4122571Y-14184286D01*
X4122571Y-14184286D02*
X4722571Y-14441429D01*
X4722571Y-13641429D02*
X4722571Y-13984286D01*
X4722571Y-13812857D02*
X4122571Y-13812857D01*
X4122571Y-13812857D02*
X4208285Y-13870000D01*
X4208285Y-13870000D02*
X4265428Y-13927143D01*
X4265428Y-13927143D02*
X4294000Y-13984286D01*
X4122571Y-13441428D02*
X4122571Y-13070000D01*
X4122571Y-13070000D02*
X4351142Y-13270000D01*
X4351142Y-13270000D02*
X4351142Y-13184285D01*
X4351142Y-13184285D02*
X4379714Y-13127143D01*
X4379714Y-13127143D02*
X4408285Y-13098571D01*
X4408285Y-13098571D02*
X4465428Y-13070000D01*
X4465428Y-13070000D02*
X4608285Y-13070000D01*
X4608285Y-13070000D02*
X4665428Y-13098571D01*
X4665428Y-13098571D02*
X4694000Y-13127143D01*
X4694000Y-13127143D02*
X4722571Y-13184285D01*
X4722571Y-13184285D02*
X4722571Y-13355714D01*
X4722571Y-13355714D02*
X4694000Y-13412857D01*
X4694000Y-13412857D02*
X4665428Y-13441428D01*
X4722571Y-12498571D02*
X4722571Y-12841428D01*
X4722571Y-12669999D02*
X4122571Y-12669999D01*
X4122571Y-12669999D02*
X4208285Y-12727142D01*
X4208285Y-12727142D02*
X4265428Y-12784285D01*
X4265428Y-12784285D02*
X4294000Y-12841428D01*
X4379714Y-12155713D02*
X4351142Y-12212856D01*
X4351142Y-12212856D02*
X4322571Y-12241427D01*
X4322571Y-12241427D02*
X4265428Y-12269999D01*
X4265428Y-12269999D02*
X4236857Y-12269999D01*
X4236857Y-12269999D02*
X4179714Y-12241427D01*
X4179714Y-12241427D02*
X4151142Y-12212856D01*
X4151142Y-12212856D02*
X4122571Y-12155713D01*
X4122571Y-12155713D02*
X4122571Y-12041427D01*
X4122571Y-12041427D02*
X4151142Y-11984285D01*
X4151142Y-11984285D02*
X4179714Y-11955713D01*
X4179714Y-11955713D02*
X4236857Y-11927142D01*
X4236857Y-11927142D02*
X4265428Y-11927142D01*
X4265428Y-11927142D02*
X4322571Y-11955713D01*
X4322571Y-11955713D02*
X4351142Y-11984285D01*
X4351142Y-11984285D02*
X4379714Y-12041427D01*
X4379714Y-12041427D02*
X4379714Y-12155713D01*
X4379714Y-12155713D02*
X4408285Y-12212856D01*
X4408285Y-12212856D02*
X4436857Y-12241427D01*
X4436857Y-12241427D02*
X4494000Y-12269999D01*
X4494000Y-12269999D02*
X4608285Y-12269999D01*
X4608285Y-12269999D02*
X4665428Y-12241427D01*
X4665428Y-12241427D02*
X4694000Y-12212856D01*
X4694000Y-12212856D02*
X4722571Y-12155713D01*
X4722571Y-12155713D02*
X4722571Y-12041427D01*
X4722571Y-12041427D02*
X4694000Y-11984285D01*
X4694000Y-11984285D02*
X4665428Y-11955713D01*
X4665428Y-11955713D02*
X4608285Y-11927142D01*
X4608285Y-11927142D02*
X4494000Y-11927142D01*
X4494000Y-11927142D02*
X4436857Y-11955713D01*
X4436857Y-11955713D02*
X4408285Y-11984285D01*
X4408285Y-11984285D02*
X4379714Y-12041427D01*
D12*
%TO.C,U2*%
X19375620Y-14706504D02*
X20185143Y-14706504D01*
X20185143Y-14706504D02*
X20280381Y-14658885D01*
X20280381Y-14658885D02*
X20328001Y-14611266D01*
X20328001Y-14611266D02*
X20375620Y-14516028D01*
X20375620Y-14516028D02*
X20375620Y-14325552D01*
X20375620Y-14325552D02*
X20328001Y-14230314D01*
X20328001Y-14230314D02*
X20280381Y-14182695D01*
X20280381Y-14182695D02*
X20185143Y-14135076D01*
X20185143Y-14135076D02*
X19375620Y-14135076D01*
X19470858Y-13706504D02*
X19423239Y-13658885D01*
X19423239Y-13658885D02*
X19375620Y-13563647D01*
X19375620Y-13563647D02*
X19375620Y-13325552D01*
X19375620Y-13325552D02*
X19423239Y-13230314D01*
X19423239Y-13230314D02*
X19470858Y-13182695D01*
X19470858Y-13182695D02*
X19566096Y-13135076D01*
X19566096Y-13135076D02*
X19661334Y-13135076D01*
X19661334Y-13135076D02*
X19804191Y-13182695D01*
X19804191Y-13182695D02*
X20375620Y-13754123D01*
X20375620Y-13754123D02*
X20375620Y-13135076D01*
D11*
X16808808Y-17985095D02*
X17265951Y-17985095D01*
X17037379Y-18785095D02*
X17037379Y-17985095D01*
X17456427Y-17985095D02*
X17989761Y-18785095D01*
X17989761Y-17985095D02*
X17456427Y-18785095D01*
X18256427Y-18747000D02*
X18370713Y-18785095D01*
X18370713Y-18785095D02*
X18561189Y-18785095D01*
X18561189Y-18785095D02*
X18637380Y-18747000D01*
X18637380Y-18747000D02*
X18675475Y-18708904D01*
X18675475Y-18708904D02*
X18713570Y-18632714D01*
X18713570Y-18632714D02*
X18713570Y-18556523D01*
X18713570Y-18556523D02*
X18675475Y-18480333D01*
X18675475Y-18480333D02*
X18637380Y-18442238D01*
X18637380Y-18442238D02*
X18561189Y-18404142D01*
X18561189Y-18404142D02*
X18408808Y-18366047D01*
X18408808Y-18366047D02*
X18332618Y-18327952D01*
X18332618Y-18327952D02*
X18294523Y-18289857D01*
X18294523Y-18289857D02*
X18256427Y-18213666D01*
X18256427Y-18213666D02*
X18256427Y-18137476D01*
X18256427Y-18137476D02*
X18294523Y-18061285D01*
X18294523Y-18061285D02*
X18332618Y-18023190D01*
X18332618Y-18023190D02*
X18408808Y-17985095D01*
X18408808Y-17985095D02*
X18599285Y-17985095D01*
X18599285Y-17985095D02*
X18713570Y-18023190D01*
X19208809Y-17985095D02*
X19284999Y-17985095D01*
X19284999Y-17985095D02*
X19361190Y-18023190D01*
X19361190Y-18023190D02*
X19399285Y-18061285D01*
X19399285Y-18061285D02*
X19437380Y-18137476D01*
X19437380Y-18137476D02*
X19475475Y-18289857D01*
X19475475Y-18289857D02*
X19475475Y-18480333D01*
X19475475Y-18480333D02*
X19437380Y-18632714D01*
X19437380Y-18632714D02*
X19399285Y-18708904D01*
X19399285Y-18708904D02*
X19361190Y-18747000D01*
X19361190Y-18747000D02*
X19284999Y-18785095D01*
X19284999Y-18785095D02*
X19208809Y-18785095D01*
X19208809Y-18785095D02*
X19132618Y-18747000D01*
X19132618Y-18747000D02*
X19094523Y-18708904D01*
X19094523Y-18708904D02*
X19056428Y-18632714D01*
X19056428Y-18632714D02*
X19018332Y-18480333D01*
X19018332Y-18480333D02*
X19018332Y-18289857D01*
X19018332Y-18289857D02*
X19056428Y-18137476D01*
X19056428Y-18137476D02*
X19094523Y-18061285D01*
X19094523Y-18061285D02*
X19132618Y-18023190D01*
X19132618Y-18023190D02*
X19208809Y-17985095D01*
X20237380Y-18785095D02*
X19780237Y-18785095D01*
X20008809Y-18785095D02*
X20008809Y-17985095D01*
X20008809Y-17985095D02*
X19932618Y-18099380D01*
X19932618Y-18099380D02*
X19856428Y-18175571D01*
X19856428Y-18175571D02*
X19780237Y-18213666D01*
X20732619Y-17985095D02*
X20808809Y-17985095D01*
X20808809Y-17985095D02*
X20885000Y-18023190D01*
X20885000Y-18023190D02*
X20923095Y-18061285D01*
X20923095Y-18061285D02*
X20961190Y-18137476D01*
X20961190Y-18137476D02*
X20999285Y-18289857D01*
X20999285Y-18289857D02*
X20999285Y-18480333D01*
X20999285Y-18480333D02*
X20961190Y-18632714D01*
X20961190Y-18632714D02*
X20923095Y-18708904D01*
X20923095Y-18708904D02*
X20885000Y-18747000D01*
X20885000Y-18747000D02*
X20808809Y-18785095D01*
X20808809Y-18785095D02*
X20732619Y-18785095D01*
X20732619Y-18785095D02*
X20656428Y-18747000D01*
X20656428Y-18747000D02*
X20618333Y-18708904D01*
X20618333Y-18708904D02*
X20580238Y-18632714D01*
X20580238Y-18632714D02*
X20542142Y-18480333D01*
X20542142Y-18480333D02*
X20542142Y-18289857D01*
X20542142Y-18289857D02*
X20580238Y-18137476D01*
X20580238Y-18137476D02*
X20618333Y-18061285D01*
X20618333Y-18061285D02*
X20656428Y-18023190D01*
X20656428Y-18023190D02*
X20732619Y-17985095D01*
X21456428Y-18327952D02*
X21380238Y-18289857D01*
X21380238Y-18289857D02*
X21342143Y-18251761D01*
X21342143Y-18251761D02*
X21304047Y-18175571D01*
X21304047Y-18175571D02*
X21304047Y-18137476D01*
X21304047Y-18137476D02*
X21342143Y-18061285D01*
X21342143Y-18061285D02*
X21380238Y-18023190D01*
X21380238Y-18023190D02*
X21456428Y-17985095D01*
X21456428Y-17985095D02*
X21608809Y-17985095D01*
X21608809Y-17985095D02*
X21685000Y-18023190D01*
X21685000Y-18023190D02*
X21723095Y-18061285D01*
X21723095Y-18061285D02*
X21761190Y-18137476D01*
X21761190Y-18137476D02*
X21761190Y-18175571D01*
X21761190Y-18175571D02*
X21723095Y-18251761D01*
X21723095Y-18251761D02*
X21685000Y-18289857D01*
X21685000Y-18289857D02*
X21608809Y-18327952D01*
X21608809Y-18327952D02*
X21456428Y-18327952D01*
X21456428Y-18327952D02*
X21380238Y-18366047D01*
X21380238Y-18366047D02*
X21342143Y-18404142D01*
X21342143Y-18404142D02*
X21304047Y-18480333D01*
X21304047Y-18480333D02*
X21304047Y-18632714D01*
X21304047Y-18632714D02*
X21342143Y-18708904D01*
X21342143Y-18708904D02*
X21380238Y-18747000D01*
X21380238Y-18747000D02*
X21456428Y-18785095D01*
X21456428Y-18785095D02*
X21608809Y-18785095D01*
X21608809Y-18785095D02*
X21685000Y-18747000D01*
X21685000Y-18747000D02*
X21723095Y-18708904D01*
X21723095Y-18708904D02*
X21761190Y-18632714D01*
X21761190Y-18632714D02*
X21761190Y-18480333D01*
X21761190Y-18480333D02*
X21723095Y-18404142D01*
X21723095Y-18404142D02*
X21685000Y-18366047D01*
X21685000Y-18366047D02*
X21608809Y-18327952D01*
X22104048Y-18366047D02*
X22370714Y-18366047D01*
X22485000Y-18785095D02*
X22104048Y-18785095D01*
X22104048Y-18785095D02*
X22104048Y-17985095D01*
X22104048Y-17985095D02*
X22485000Y-17985095D01*
D12*
X16073620Y-17119599D02*
X16311715Y-17119599D01*
X16216477Y-17357694D02*
X16311715Y-17119599D01*
X16311715Y-17119599D02*
X16216477Y-16881504D01*
X16502191Y-17262456D02*
X16311715Y-17119599D01*
X16311715Y-17119599D02*
X16502191Y-16976742D01*
%TO.C,U3*%
X29027620Y-14706504D02*
X29837143Y-14706504D01*
X29837143Y-14706504D02*
X29932381Y-14658885D01*
X29932381Y-14658885D02*
X29980001Y-14611266D01*
X29980001Y-14611266D02*
X30027620Y-14516028D01*
X30027620Y-14516028D02*
X30027620Y-14325552D01*
X30027620Y-14325552D02*
X29980001Y-14230314D01*
X29980001Y-14230314D02*
X29932381Y-14182695D01*
X29932381Y-14182695D02*
X29837143Y-14135076D01*
X29837143Y-14135076D02*
X29027620Y-14135076D01*
X29027620Y-13754123D02*
X29027620Y-13135076D01*
X29027620Y-13135076D02*
X29408572Y-13468409D01*
X29408572Y-13468409D02*
X29408572Y-13325552D01*
X29408572Y-13325552D02*
X29456191Y-13230314D01*
X29456191Y-13230314D02*
X29503810Y-13182695D01*
X29503810Y-13182695D02*
X29599048Y-13135076D01*
X29599048Y-13135076D02*
X29837143Y-13135076D01*
X29837143Y-13135076D02*
X29932381Y-13182695D01*
X29932381Y-13182695D02*
X29980001Y-13230314D01*
X29980001Y-13230314D02*
X30027620Y-13325552D01*
X30027620Y-13325552D02*
X30027620Y-13611266D01*
X30027620Y-13611266D02*
X29980001Y-13706504D01*
X29980001Y-13706504D02*
X29932381Y-13754123D01*
D11*
X26333808Y-17985095D02*
X26790951Y-17985095D01*
X26562379Y-18785095D02*
X26562379Y-17985095D01*
X26981427Y-17985095D02*
X27514761Y-18785095D01*
X27514761Y-17985095D02*
X26981427Y-18785095D01*
X27781427Y-18747000D02*
X27895713Y-18785095D01*
X27895713Y-18785095D02*
X28086189Y-18785095D01*
X28086189Y-18785095D02*
X28162380Y-18747000D01*
X28162380Y-18747000D02*
X28200475Y-18708904D01*
X28200475Y-18708904D02*
X28238570Y-18632714D01*
X28238570Y-18632714D02*
X28238570Y-18556523D01*
X28238570Y-18556523D02*
X28200475Y-18480333D01*
X28200475Y-18480333D02*
X28162380Y-18442238D01*
X28162380Y-18442238D02*
X28086189Y-18404142D01*
X28086189Y-18404142D02*
X27933808Y-18366047D01*
X27933808Y-18366047D02*
X27857618Y-18327952D01*
X27857618Y-18327952D02*
X27819523Y-18289857D01*
X27819523Y-18289857D02*
X27781427Y-18213666D01*
X27781427Y-18213666D02*
X27781427Y-18137476D01*
X27781427Y-18137476D02*
X27819523Y-18061285D01*
X27819523Y-18061285D02*
X27857618Y-18023190D01*
X27857618Y-18023190D02*
X27933808Y-17985095D01*
X27933808Y-17985095D02*
X28124285Y-17985095D01*
X28124285Y-17985095D02*
X28238570Y-18023190D01*
X28733809Y-17985095D02*
X28809999Y-17985095D01*
X28809999Y-17985095D02*
X28886190Y-18023190D01*
X28886190Y-18023190D02*
X28924285Y-18061285D01*
X28924285Y-18061285D02*
X28962380Y-18137476D01*
X28962380Y-18137476D02*
X29000475Y-18289857D01*
X29000475Y-18289857D02*
X29000475Y-18480333D01*
X29000475Y-18480333D02*
X28962380Y-18632714D01*
X28962380Y-18632714D02*
X28924285Y-18708904D01*
X28924285Y-18708904D02*
X28886190Y-18747000D01*
X28886190Y-18747000D02*
X28809999Y-18785095D01*
X28809999Y-18785095D02*
X28733809Y-18785095D01*
X28733809Y-18785095D02*
X28657618Y-18747000D01*
X28657618Y-18747000D02*
X28619523Y-18708904D01*
X28619523Y-18708904D02*
X28581428Y-18632714D01*
X28581428Y-18632714D02*
X28543332Y-18480333D01*
X28543332Y-18480333D02*
X28543332Y-18289857D01*
X28543332Y-18289857D02*
X28581428Y-18137476D01*
X28581428Y-18137476D02*
X28619523Y-18061285D01*
X28619523Y-18061285D02*
X28657618Y-18023190D01*
X28657618Y-18023190D02*
X28733809Y-17985095D01*
X29762380Y-18785095D02*
X29305237Y-18785095D01*
X29533809Y-18785095D02*
X29533809Y-17985095D01*
X29533809Y-17985095D02*
X29457618Y-18099380D01*
X29457618Y-18099380D02*
X29381428Y-18175571D01*
X29381428Y-18175571D02*
X29305237Y-18213666D01*
X30257619Y-17985095D02*
X30333809Y-17985095D01*
X30333809Y-17985095D02*
X30410000Y-18023190D01*
X30410000Y-18023190D02*
X30448095Y-18061285D01*
X30448095Y-18061285D02*
X30486190Y-18137476D01*
X30486190Y-18137476D02*
X30524285Y-18289857D01*
X30524285Y-18289857D02*
X30524285Y-18480333D01*
X30524285Y-18480333D02*
X30486190Y-18632714D01*
X30486190Y-18632714D02*
X30448095Y-18708904D01*
X30448095Y-18708904D02*
X30410000Y-18747000D01*
X30410000Y-18747000D02*
X30333809Y-18785095D01*
X30333809Y-18785095D02*
X30257619Y-18785095D01*
X30257619Y-18785095D02*
X30181428Y-18747000D01*
X30181428Y-18747000D02*
X30143333Y-18708904D01*
X30143333Y-18708904D02*
X30105238Y-18632714D01*
X30105238Y-18632714D02*
X30067142Y-18480333D01*
X30067142Y-18480333D02*
X30067142Y-18289857D01*
X30067142Y-18289857D02*
X30105238Y-18137476D01*
X30105238Y-18137476D02*
X30143333Y-18061285D01*
X30143333Y-18061285D02*
X30181428Y-18023190D01*
X30181428Y-18023190D02*
X30257619Y-17985095D01*
X30981428Y-18327952D02*
X30905238Y-18289857D01*
X30905238Y-18289857D02*
X30867143Y-18251761D01*
X30867143Y-18251761D02*
X30829047Y-18175571D01*
X30829047Y-18175571D02*
X30829047Y-18137476D01*
X30829047Y-18137476D02*
X30867143Y-18061285D01*
X30867143Y-18061285D02*
X30905238Y-18023190D01*
X30905238Y-18023190D02*
X30981428Y-17985095D01*
X30981428Y-17985095D02*
X31133809Y-17985095D01*
X31133809Y-17985095D02*
X31210000Y-18023190D01*
X31210000Y-18023190D02*
X31248095Y-18061285D01*
X31248095Y-18061285D02*
X31286190Y-18137476D01*
X31286190Y-18137476D02*
X31286190Y-18175571D01*
X31286190Y-18175571D02*
X31248095Y-18251761D01*
X31248095Y-18251761D02*
X31210000Y-18289857D01*
X31210000Y-18289857D02*
X31133809Y-18327952D01*
X31133809Y-18327952D02*
X30981428Y-18327952D01*
X30981428Y-18327952D02*
X30905238Y-18366047D01*
X30905238Y-18366047D02*
X30867143Y-18404142D01*
X30867143Y-18404142D02*
X30829047Y-18480333D01*
X30829047Y-18480333D02*
X30829047Y-18632714D01*
X30829047Y-18632714D02*
X30867143Y-18708904D01*
X30867143Y-18708904D02*
X30905238Y-18747000D01*
X30905238Y-18747000D02*
X30981428Y-18785095D01*
X30981428Y-18785095D02*
X31133809Y-18785095D01*
X31133809Y-18785095D02*
X31210000Y-18747000D01*
X31210000Y-18747000D02*
X31248095Y-18708904D01*
X31248095Y-18708904D02*
X31286190Y-18632714D01*
X31286190Y-18632714D02*
X31286190Y-18480333D01*
X31286190Y-18480333D02*
X31248095Y-18404142D01*
X31248095Y-18404142D02*
X31210000Y-18366047D01*
X31210000Y-18366047D02*
X31133809Y-18327952D01*
X31629048Y-18366047D02*
X31895714Y-18366047D01*
X32010000Y-18785095D02*
X31629048Y-18785095D01*
X31629048Y-18785095D02*
X31629048Y-17985095D01*
X31629048Y-17985095D02*
X32010000Y-17985095D01*
D12*
X25725620Y-17119599D02*
X25963715Y-17119599D01*
X25868477Y-17357694D02*
X25963715Y-17119599D01*
X25963715Y-17119599D02*
X25868477Y-16881504D01*
X26154191Y-17262456D02*
X25963715Y-17119599D01*
X25963715Y-17119599D02*
X26154191Y-16976742D01*
D11*
%TO.C,C13*%
X53125904Y-16415785D02*
X53164000Y-16453881D01*
X53164000Y-16453881D02*
X53202095Y-16568166D01*
X53202095Y-16568166D02*
X53202095Y-16644357D01*
X53202095Y-16644357D02*
X53164000Y-16758643D01*
X53164000Y-16758643D02*
X53087809Y-16834833D01*
X53087809Y-16834833D02*
X53011619Y-16872928D01*
X53011619Y-16872928D02*
X52859238Y-16911024D01*
X52859238Y-16911024D02*
X52744952Y-16911024D01*
X52744952Y-16911024D02*
X52592571Y-16872928D01*
X52592571Y-16872928D02*
X52516380Y-16834833D01*
X52516380Y-16834833D02*
X52440190Y-16758643D01*
X52440190Y-16758643D02*
X52402095Y-16644357D01*
X52402095Y-16644357D02*
X52402095Y-16568166D01*
X52402095Y-16568166D02*
X52440190Y-16453881D01*
X52440190Y-16453881D02*
X52478285Y-16415785D01*
X53202095Y-15653881D02*
X53202095Y-16111024D01*
X53202095Y-15882452D02*
X52402095Y-15882452D01*
X52402095Y-15882452D02*
X52516380Y-15958643D01*
X52516380Y-15958643D02*
X52592571Y-16034833D01*
X52592571Y-16034833D02*
X52630666Y-16111024D01*
X52402095Y-15387214D02*
X52402095Y-14891976D01*
X52402095Y-14891976D02*
X52706857Y-15158642D01*
X52706857Y-15158642D02*
X52706857Y-15044357D01*
X52706857Y-15044357D02*
X52744952Y-14968166D01*
X52744952Y-14968166D02*
X52783047Y-14930071D01*
X52783047Y-14930071D02*
X52859238Y-14891976D01*
X52859238Y-14891976D02*
X53049714Y-14891976D01*
X53049714Y-14891976D02*
X53125904Y-14930071D01*
X53125904Y-14930071D02*
X53164000Y-14968166D01*
X53164000Y-14968166D02*
X53202095Y-15044357D01*
X53202095Y-15044357D02*
X53202095Y-15272928D01*
X53202095Y-15272928D02*
X53164000Y-15349119D01*
X53164000Y-15349119D02*
X53125904Y-15387214D01*
%TO.C,J1*%
X205095Y-25412666D02*
X776523Y-25412666D01*
X776523Y-25412666D02*
X890809Y-25450761D01*
X890809Y-25450761D02*
X967000Y-25526952D01*
X967000Y-25526952D02*
X1005095Y-25641237D01*
X1005095Y-25641237D02*
X1005095Y-25717428D01*
X1005095Y-24612666D02*
X1005095Y-25069809D01*
X1005095Y-24841237D02*
X205095Y-24841237D01*
X205095Y-24841237D02*
X319380Y-24917428D01*
X319380Y-24917428D02*
X395571Y-24993618D01*
X395571Y-24993618D02*
X433666Y-25069809D01*
D10*
%TO.C,C3*%
X5078000Y-15994767D02*
X5078000Y-15702233D01*
X6098000Y-15994767D02*
X6098000Y-15702233D01*
D14*
%TO.C,U6*%
X61823001Y-15659277D02*
X61823001Y-12229925D01*
X55219001Y-12229923D02*
X55219001Y-15659275D01*
X55219001Y-14249400D02*
G75*
G03*
X55219001Y-13639800I0J304800D01*
G01*
D10*
%TO.C,J2*%
X3810000Y-3556000D02*
X62230000Y-3556000D01*
X3810000Y-3556000D02*
X3810000Y-1524000D01*
X62230000Y-3556000D02*
X62230000Y-1524000D01*
X1397000Y-2540000D02*
X1397000Y-1524000D01*
X1397000Y-1524000D02*
X2540000Y-1524000D01*
X3810000Y-1524000D02*
X62230000Y-1524000D01*
%TO.C,C14*%
X54358000Y-11945233D02*
X54358000Y-12237767D01*
X53338000Y-11945233D02*
X53338000Y-12237767D01*
%TO.C,C9*%
X34034000Y-16047767D02*
X34034000Y-15755233D01*
X35054000Y-16047767D02*
X35054000Y-15755233D01*
%TO.C,C11*%
X43686000Y-16047767D02*
X43686000Y-15755233D01*
X44706000Y-16047767D02*
X44706000Y-15755233D01*
%TO.C,C7*%
X24382000Y-16047767D02*
X24382000Y-15755233D01*
X25402000Y-16047767D02*
X25402000Y-15755233D01*
%TO.C,C5*%
X14730000Y-16047767D02*
X14730000Y-15755233D01*
X15750000Y-16047767D02*
X15750000Y-15755233D01*
%TO.C,C12*%
X44706000Y-11945233D02*
X44706000Y-12237767D01*
X43686000Y-11945233D02*
X43686000Y-12237767D01*
%TO.C,C1*%
X2532767Y-10670000D02*
X2240233Y-10670000D01*
X2532767Y-9650000D02*
X2240233Y-9650000D01*
%TO.C,C8*%
X25402000Y-11945233D02*
X25402000Y-12237767D01*
X24382000Y-11945233D02*
X24382000Y-12237767D01*
%TO.C,C10*%
X35054000Y-11945233D02*
X35054000Y-12237767D01*
X34034000Y-11945233D02*
X34034000Y-12237767D01*
%TO.C,C2*%
X2532767Y-18290000D02*
X2240233Y-18290000D01*
X2532767Y-17270000D02*
X2240233Y-17270000D01*
%TO.C,C6*%
X15750000Y-11945233D02*
X15750000Y-12237767D01*
X14730000Y-11945233D02*
X14730000Y-12237767D01*
D14*
%TO.C,U1*%
X13563001Y-15659277D02*
X13563001Y-12229925D01*
X6959001Y-12229923D02*
X6959001Y-15659275D01*
X6959001Y-14249400D02*
G75*
G03*
X6959001Y-13639800I0J304800D01*
G01*
%TO.C,U4*%
X42519001Y-15659277D02*
X42519001Y-12229925D01*
X35915001Y-12229923D02*
X35915001Y-15659275D01*
X35915001Y-14249400D02*
G75*
G03*
X35915001Y-13639800I0J304800D01*
G01*
%TO.C,U5*%
X52171001Y-15659277D02*
X52171001Y-12229925D01*
X45567001Y-12229923D02*
X45567001Y-15659275D01*
X45567001Y-14249400D02*
G75*
G03*
X45567001Y-13639800I0J304800D01*
G01*
D10*
%TO.C,C4*%
X6098000Y-11945233D02*
X6098000Y-12237767D01*
X5078000Y-11945233D02*
X5078000Y-12237767D01*
%TO.C,PS1*%
X914000Y-13158000D02*
X914000Y-14918000D01*
X3984000Y-14918000D02*
X3984000Y-12488000D01*
D14*
%TO.C,U2*%
X23215001Y-15659277D02*
X23215001Y-12229925D01*
X16611001Y-12229923D02*
X16611001Y-15659275D01*
X16611001Y-14249400D02*
G75*
G03*
X16611001Y-13639800I0J304800D01*
G01*
%TO.C,U3*%
X32867001Y-15659277D02*
X32867001Y-12229925D01*
X26263001Y-12229923D02*
X26263001Y-15659275D01*
X26263001Y-14249400D02*
G75*
G03*
X26263001Y-13639800I0J304800D01*
G01*
D10*
%TO.C,C13*%
X53338000Y-16047767D02*
X53338000Y-15755233D01*
X54358000Y-16047767D02*
X54358000Y-15755233D01*
%TO.C,J1*%
X3810000Y-26416000D02*
X62230000Y-26416000D01*
X3810000Y-26416000D02*
X3810000Y-24384000D01*
X62230000Y-26416000D02*
X62230000Y-24384000D01*
X1397000Y-25400000D02*
X1397000Y-24384000D01*
X1397000Y-24384000D02*
X2540000Y-24384000D01*
X3810000Y-24384000D02*
X62230000Y-24384000D01*
%TD*%
M02*
