%TF.GenerationSoftware,KiCad,Pcbnew,8.0.4*%
%TF.CreationDate,2024-08-29T15:53:48+09:00*%
%TF.ProjectId,TangNano8080MEM,54616e67-4e61-46e6-9f38-3038304d454d,rev?*%
%TF.SameCoordinates,Original*%
%TF.FileFunction,Legend,Top*%
%TF.FilePolarity,Positive*%
%FSLAX46Y46*%
G04 Gerber Fmt 4.6, Leading zero omitted, Abs format (unit mm)*
G04 Created by KiCad (PCBNEW 8.0.4) date 2024-08-29 15:53:48*
%MOMM*%
%LPD*%
G01*
G04 APERTURE LIST*
%ADD10C,0.150000*%
%ADD11C,0.100000*%
%ADD12C,0.300000*%
%ADD13C,0.120000*%
G04 APERTURE END LIST*
D10*
X15576779Y-15109819D02*
X15576779Y-14109819D01*
X16148207Y-15109819D02*
X15719636Y-14538390D01*
X16148207Y-14109819D02*
X15576779Y-14681247D01*
X12684286Y-19808866D02*
X13446191Y-19808866D01*
X14398571Y-19189819D02*
X13922381Y-19189819D01*
X13922381Y-19189819D02*
X13874762Y-19666009D01*
X13874762Y-19666009D02*
X13922381Y-19618390D01*
X13922381Y-19618390D02*
X14017619Y-19570771D01*
X14017619Y-19570771D02*
X14255714Y-19570771D01*
X14255714Y-19570771D02*
X14350952Y-19618390D01*
X14350952Y-19618390D02*
X14398571Y-19666009D01*
X14398571Y-19666009D02*
X14446190Y-19761247D01*
X14446190Y-19761247D02*
X14446190Y-19999342D01*
X14446190Y-19999342D02*
X14398571Y-20094580D01*
X14398571Y-20094580D02*
X14350952Y-20142200D01*
X14350952Y-20142200D02*
X14255714Y-20189819D01*
X14255714Y-20189819D02*
X14017619Y-20189819D01*
X14017619Y-20189819D02*
X13922381Y-20142200D01*
X13922381Y-20142200D02*
X13874762Y-20094580D01*
X14731905Y-19189819D02*
X15065238Y-20189819D01*
X15065238Y-20189819D02*
X15398571Y-19189819D01*
X17288095Y-19808866D02*
X18050000Y-19808866D01*
X17669047Y-20189819D02*
X17669047Y-19427914D01*
X19049999Y-20189819D02*
X18478571Y-20189819D01*
X18764285Y-20189819D02*
X18764285Y-19189819D01*
X18764285Y-19189819D02*
X18669047Y-19332676D01*
X18669047Y-19332676D02*
X18573809Y-19427914D01*
X18573809Y-19427914D02*
X18478571Y-19475533D01*
X19430952Y-19285057D02*
X19478571Y-19237438D01*
X19478571Y-19237438D02*
X19573809Y-19189819D01*
X19573809Y-19189819D02*
X19811904Y-19189819D01*
X19811904Y-19189819D02*
X19907142Y-19237438D01*
X19907142Y-19237438D02*
X19954761Y-19285057D01*
X19954761Y-19285057D02*
X20002380Y-19380295D01*
X20002380Y-19380295D02*
X20002380Y-19475533D01*
X20002380Y-19475533D02*
X19954761Y-19618390D01*
X19954761Y-19618390D02*
X19383333Y-20189819D01*
X19383333Y-20189819D02*
X20002380Y-20189819D01*
X20288095Y-19189819D02*
X20621428Y-20189819D01*
X20621428Y-20189819D02*
X20954761Y-19189819D01*
X30467429Y-12035533D02*
X31076953Y-12035533D01*
X30772191Y-12340295D02*
X30772191Y-11730771D01*
X31838857Y-11540295D02*
X31457905Y-11540295D01*
X31457905Y-11540295D02*
X31419809Y-11921247D01*
X31419809Y-11921247D02*
X31457905Y-11883152D01*
X31457905Y-11883152D02*
X31534095Y-11845057D01*
X31534095Y-11845057D02*
X31724571Y-11845057D01*
X31724571Y-11845057D02*
X31800762Y-11883152D01*
X31800762Y-11883152D02*
X31838857Y-11921247D01*
X31838857Y-11921247D02*
X31876952Y-11997438D01*
X31876952Y-11997438D02*
X31876952Y-12187914D01*
X31876952Y-12187914D02*
X31838857Y-12264104D01*
X31838857Y-12264104D02*
X31800762Y-12302200D01*
X31800762Y-12302200D02*
X31724571Y-12340295D01*
X31724571Y-12340295D02*
X31534095Y-12340295D01*
X31534095Y-12340295D02*
X31457905Y-12302200D01*
X31457905Y-12302200D02*
X31419809Y-12264104D01*
X32105524Y-11540295D02*
X32372191Y-12340295D01*
X32372191Y-12340295D02*
X32638857Y-11540295D01*
D11*
X38236323Y-91022932D02*
X38236323Y-90641979D01*
X38464895Y-91099122D02*
X37664895Y-90832455D01*
X37664895Y-90832455D02*
X38464895Y-90565789D01*
X38464895Y-89880075D02*
X38464895Y-90337218D01*
X38464895Y-90108646D02*
X37664895Y-90108646D01*
X37664895Y-90108646D02*
X37779180Y-90184837D01*
X37779180Y-90184837D02*
X37855371Y-90261027D01*
X37855371Y-90261027D02*
X37893466Y-90337218D01*
X37741085Y-89575313D02*
X37702990Y-89537217D01*
X37702990Y-89537217D02*
X37664895Y-89461027D01*
X37664895Y-89461027D02*
X37664895Y-89270551D01*
X37664895Y-89270551D02*
X37702990Y-89194360D01*
X37702990Y-89194360D02*
X37741085Y-89156265D01*
X37741085Y-89156265D02*
X37817276Y-89118170D01*
X37817276Y-89118170D02*
X37893466Y-89118170D01*
X37893466Y-89118170D02*
X38007752Y-89156265D01*
X38007752Y-89156265D02*
X38464895Y-89613408D01*
X38464895Y-89613408D02*
X38464895Y-89118170D01*
X35696323Y-91022932D02*
X35696323Y-90641979D01*
X35924895Y-91099122D02*
X35124895Y-90832455D01*
X35124895Y-90832455D02*
X35924895Y-90565789D01*
X35924895Y-89880075D02*
X35924895Y-90337218D01*
X35924895Y-90108646D02*
X35124895Y-90108646D01*
X35124895Y-90108646D02*
X35239180Y-90184837D01*
X35239180Y-90184837D02*
X35315371Y-90261027D01*
X35315371Y-90261027D02*
X35353466Y-90337218D01*
X35124895Y-89613408D02*
X35124895Y-89118170D01*
X35124895Y-89118170D02*
X35429657Y-89384836D01*
X35429657Y-89384836D02*
X35429657Y-89270551D01*
X35429657Y-89270551D02*
X35467752Y-89194360D01*
X35467752Y-89194360D02*
X35505847Y-89156265D01*
X35505847Y-89156265D02*
X35582038Y-89118170D01*
X35582038Y-89118170D02*
X35772514Y-89118170D01*
X35772514Y-89118170D02*
X35848704Y-89156265D01*
X35848704Y-89156265D02*
X35886800Y-89194360D01*
X35886800Y-89194360D02*
X35924895Y-89270551D01*
X35924895Y-89270551D02*
X35924895Y-89499122D01*
X35924895Y-89499122D02*
X35886800Y-89575313D01*
X35886800Y-89575313D02*
X35848704Y-89613408D01*
X70684895Y-91061027D02*
X70684895Y-90565789D01*
X70684895Y-90565789D02*
X70989657Y-90832455D01*
X70989657Y-90832455D02*
X70989657Y-90718170D01*
X70989657Y-90718170D02*
X71027752Y-90641979D01*
X71027752Y-90641979D02*
X71065847Y-90603884D01*
X71065847Y-90603884D02*
X71142038Y-90565789D01*
X71142038Y-90565789D02*
X71332514Y-90565789D01*
X71332514Y-90565789D02*
X71408704Y-90603884D01*
X71408704Y-90603884D02*
X71446800Y-90641979D01*
X71446800Y-90641979D02*
X71484895Y-90718170D01*
X71484895Y-90718170D02*
X71484895Y-90946741D01*
X71484895Y-90946741D02*
X71446800Y-91022932D01*
X71446800Y-91022932D02*
X71408704Y-91061027D01*
X70684895Y-90337217D02*
X71484895Y-90070550D01*
X71484895Y-90070550D02*
X70684895Y-89803884D01*
X70684895Y-89613408D02*
X70684895Y-89118170D01*
X70684895Y-89118170D02*
X70989657Y-89384836D01*
X70989657Y-89384836D02*
X70989657Y-89270551D01*
X70989657Y-89270551D02*
X71027752Y-89194360D01*
X71027752Y-89194360D02*
X71065847Y-89156265D01*
X71065847Y-89156265D02*
X71142038Y-89118170D01*
X71142038Y-89118170D02*
X71332514Y-89118170D01*
X71332514Y-89118170D02*
X71408704Y-89156265D01*
X71408704Y-89156265D02*
X71446800Y-89194360D01*
X71446800Y-89194360D02*
X71484895Y-89270551D01*
X71484895Y-89270551D02*
X71484895Y-89499122D01*
X71484895Y-89499122D02*
X71446800Y-89575313D01*
X71446800Y-89575313D02*
X71408704Y-89613408D01*
X69198895Y-58163734D02*
X68398895Y-58163734D01*
X68779847Y-58163734D02*
X68779847Y-57706591D01*
X69198895Y-57706591D02*
X68398895Y-57706591D01*
X69198895Y-56944687D02*
X69198895Y-57325639D01*
X69198895Y-57325639D02*
X68398895Y-57325639D01*
X69198895Y-56678020D02*
X68398895Y-56678020D01*
X68398895Y-56678020D02*
X68398895Y-56487544D01*
X68398895Y-56487544D02*
X68436990Y-56373258D01*
X68436990Y-56373258D02*
X68513180Y-56297068D01*
X68513180Y-56297068D02*
X68589371Y-56258973D01*
X68589371Y-56258973D02*
X68741752Y-56220877D01*
X68741752Y-56220877D02*
X68856038Y-56220877D01*
X68856038Y-56220877D02*
X69008419Y-56258973D01*
X69008419Y-56258973D02*
X69084609Y-56297068D01*
X69084609Y-56297068D02*
X69160800Y-56373258D01*
X69160800Y-56373258D02*
X69198895Y-56487544D01*
X69198895Y-56487544D02*
X69198895Y-56678020D01*
X68970323Y-55916116D02*
X68970323Y-55535163D01*
X69198895Y-55992306D02*
X68398895Y-55725639D01*
X68398895Y-55725639D02*
X69198895Y-55458973D01*
X48396323Y-90261027D02*
X48396323Y-89880074D01*
X48624895Y-90337217D02*
X47824895Y-90070550D01*
X47824895Y-90070550D02*
X48624895Y-89803884D01*
X47824895Y-89613408D02*
X47824895Y-89080074D01*
X47824895Y-89080074D02*
X48624895Y-89422932D01*
X30844895Y-91937218D02*
X30463942Y-92203885D01*
X30844895Y-92394361D02*
X30044895Y-92394361D01*
X30044895Y-92394361D02*
X30044895Y-92089599D01*
X30044895Y-92089599D02*
X30082990Y-92013409D01*
X30082990Y-92013409D02*
X30121085Y-91975314D01*
X30121085Y-91975314D02*
X30197276Y-91937218D01*
X30197276Y-91937218D02*
X30311561Y-91937218D01*
X30311561Y-91937218D02*
X30387752Y-91975314D01*
X30387752Y-91975314D02*
X30425847Y-92013409D01*
X30425847Y-92013409D02*
X30463942Y-92089599D01*
X30463942Y-92089599D02*
X30463942Y-92394361D01*
X30425847Y-91594361D02*
X30425847Y-91327695D01*
X30844895Y-91213409D02*
X30844895Y-91594361D01*
X30844895Y-91594361D02*
X30044895Y-91594361D01*
X30044895Y-91594361D02*
X30044895Y-91213409D01*
X30806800Y-90908647D02*
X30844895Y-90794361D01*
X30844895Y-90794361D02*
X30844895Y-90603885D01*
X30844895Y-90603885D02*
X30806800Y-90527694D01*
X30806800Y-90527694D02*
X30768704Y-90489599D01*
X30768704Y-90489599D02*
X30692514Y-90451504D01*
X30692514Y-90451504D02*
X30616323Y-90451504D01*
X30616323Y-90451504D02*
X30540133Y-90489599D01*
X30540133Y-90489599D02*
X30502038Y-90527694D01*
X30502038Y-90527694D02*
X30463942Y-90603885D01*
X30463942Y-90603885D02*
X30425847Y-90756266D01*
X30425847Y-90756266D02*
X30387752Y-90832456D01*
X30387752Y-90832456D02*
X30349657Y-90870551D01*
X30349657Y-90870551D02*
X30273466Y-90908647D01*
X30273466Y-90908647D02*
X30197276Y-90908647D01*
X30197276Y-90908647D02*
X30121085Y-90870551D01*
X30121085Y-90870551D02*
X30082990Y-90832456D01*
X30082990Y-90832456D02*
X30044895Y-90756266D01*
X30044895Y-90756266D02*
X30044895Y-90565789D01*
X30044895Y-90565789D02*
X30082990Y-90451504D01*
X30425847Y-90108646D02*
X30425847Y-89841980D01*
X30844895Y-89727694D02*
X30844895Y-90108646D01*
X30844895Y-90108646D02*
X30044895Y-90108646D01*
X30044895Y-90108646D02*
X30044895Y-89727694D01*
X30044895Y-89499122D02*
X30044895Y-89041979D01*
X30844895Y-89270551D02*
X30044895Y-89270551D01*
X66176323Y-90261027D02*
X66176323Y-89880074D01*
X66404895Y-90337217D02*
X65604895Y-90070550D01*
X65604895Y-90070550D02*
X66404895Y-89803884D01*
X65604895Y-89384836D02*
X65604895Y-89308646D01*
X65604895Y-89308646D02*
X65642990Y-89232455D01*
X65642990Y-89232455D02*
X65681085Y-89194360D01*
X65681085Y-89194360D02*
X65757276Y-89156265D01*
X65757276Y-89156265D02*
X65909657Y-89118170D01*
X65909657Y-89118170D02*
X66100133Y-89118170D01*
X66100133Y-89118170D02*
X66252514Y-89156265D01*
X66252514Y-89156265D02*
X66328704Y-89194360D01*
X66328704Y-89194360D02*
X66366800Y-89232455D01*
X66366800Y-89232455D02*
X66404895Y-89308646D01*
X66404895Y-89308646D02*
X66404895Y-89384836D01*
X66404895Y-89384836D02*
X66366800Y-89461027D01*
X66366800Y-89461027D02*
X66328704Y-89499122D01*
X66328704Y-89499122D02*
X66252514Y-89537217D01*
X66252514Y-89537217D02*
X66100133Y-89575313D01*
X66100133Y-89575313D02*
X65909657Y-89575313D01*
X65909657Y-89575313D02*
X65757276Y-89537217D01*
X65757276Y-89537217D02*
X65681085Y-89499122D01*
X65681085Y-89499122D02*
X65642990Y-89461027D01*
X65642990Y-89461027D02*
X65604895Y-89384836D01*
X74024895Y-58163734D02*
X73224895Y-58163734D01*
X74024895Y-57782782D02*
X73224895Y-57782782D01*
X73224895Y-57782782D02*
X74024895Y-57325639D01*
X74024895Y-57325639D02*
X73224895Y-57325639D01*
X73224895Y-57058973D02*
X73224895Y-56601830D01*
X74024895Y-56830402D02*
X73224895Y-56830402D01*
X40776323Y-91022932D02*
X40776323Y-90641979D01*
X41004895Y-91099122D02*
X40204895Y-90832455D01*
X40204895Y-90832455D02*
X41004895Y-90565789D01*
X41004895Y-89880075D02*
X41004895Y-90337218D01*
X41004895Y-90108646D02*
X40204895Y-90108646D01*
X40204895Y-90108646D02*
X40319180Y-90184837D01*
X40319180Y-90184837D02*
X40395371Y-90261027D01*
X40395371Y-90261027D02*
X40433466Y-90337218D01*
X40204895Y-89156265D02*
X40204895Y-89537217D01*
X40204895Y-89537217D02*
X40585847Y-89575313D01*
X40585847Y-89575313D02*
X40547752Y-89537217D01*
X40547752Y-89537217D02*
X40509657Y-89461027D01*
X40509657Y-89461027D02*
X40509657Y-89270551D01*
X40509657Y-89270551D02*
X40547752Y-89194360D01*
X40547752Y-89194360D02*
X40585847Y-89156265D01*
X40585847Y-89156265D02*
X40662038Y-89118170D01*
X40662038Y-89118170D02*
X40852514Y-89118170D01*
X40852514Y-89118170D02*
X40928704Y-89156265D01*
X40928704Y-89156265D02*
X40966800Y-89194360D01*
X40966800Y-89194360D02*
X41004895Y-89270551D01*
X41004895Y-89270551D02*
X41004895Y-89461027D01*
X41004895Y-89461027D02*
X40966800Y-89537217D01*
X40966800Y-89537217D02*
X40928704Y-89575313D01*
D10*
X42786476Y-12035533D02*
X43396000Y-12035533D01*
X43091238Y-12340295D02*
X43091238Y-11730771D01*
X44195999Y-12340295D02*
X43738856Y-12340295D01*
X43967428Y-12340295D02*
X43967428Y-11540295D01*
X43967428Y-11540295D02*
X43891237Y-11654580D01*
X43891237Y-11654580D02*
X43815047Y-11730771D01*
X43815047Y-11730771D02*
X43738856Y-11768866D01*
X44500761Y-11616485D02*
X44538857Y-11578390D01*
X44538857Y-11578390D02*
X44615047Y-11540295D01*
X44615047Y-11540295D02*
X44805523Y-11540295D01*
X44805523Y-11540295D02*
X44881714Y-11578390D01*
X44881714Y-11578390D02*
X44919809Y-11616485D01*
X44919809Y-11616485D02*
X44957904Y-11692676D01*
X44957904Y-11692676D02*
X44957904Y-11768866D01*
X44957904Y-11768866D02*
X44919809Y-11883152D01*
X44919809Y-11883152D02*
X44462666Y-12340295D01*
X44462666Y-12340295D02*
X44957904Y-12340295D01*
X45186476Y-11540295D02*
X45453143Y-12340295D01*
X45453143Y-12340295D02*
X45719809Y-11540295D01*
D11*
X46084895Y-58163734D02*
X45284895Y-58163734D01*
X45284895Y-58163734D02*
X45284895Y-57973258D01*
X45284895Y-57973258D02*
X45322990Y-57858972D01*
X45322990Y-57858972D02*
X45399180Y-57782782D01*
X45399180Y-57782782D02*
X45475371Y-57744687D01*
X45475371Y-57744687D02*
X45627752Y-57706591D01*
X45627752Y-57706591D02*
X45742038Y-57706591D01*
X45742038Y-57706591D02*
X45894419Y-57744687D01*
X45894419Y-57744687D02*
X45970609Y-57782782D01*
X45970609Y-57782782D02*
X46046800Y-57858972D01*
X46046800Y-57858972D02*
X46084895Y-57973258D01*
X46084895Y-57973258D02*
X46084895Y-58163734D01*
X45284895Y-57439925D02*
X45284895Y-56944687D01*
X45284895Y-56944687D02*
X45589657Y-57211353D01*
X45589657Y-57211353D02*
X45589657Y-57097068D01*
X45589657Y-57097068D02*
X45627752Y-57020877D01*
X45627752Y-57020877D02*
X45665847Y-56982782D01*
X45665847Y-56982782D02*
X45742038Y-56944687D01*
X45742038Y-56944687D02*
X45932514Y-56944687D01*
X45932514Y-56944687D02*
X46008704Y-56982782D01*
X46008704Y-56982782D02*
X46046800Y-57020877D01*
X46046800Y-57020877D02*
X46084895Y-57097068D01*
X46084895Y-57097068D02*
X46084895Y-57325639D01*
X46084895Y-57325639D02*
X46046800Y-57401830D01*
X46046800Y-57401830D02*
X46008704Y-57439925D01*
X25460133Y-58163734D02*
X25460133Y-57554211D01*
X25764895Y-57858972D02*
X25155371Y-57858972D01*
X24964895Y-56792306D02*
X24964895Y-57173258D01*
X24964895Y-57173258D02*
X25345847Y-57211354D01*
X25345847Y-57211354D02*
X25307752Y-57173258D01*
X25307752Y-57173258D02*
X25269657Y-57097068D01*
X25269657Y-57097068D02*
X25269657Y-56906592D01*
X25269657Y-56906592D02*
X25307752Y-56830401D01*
X25307752Y-56830401D02*
X25345847Y-56792306D01*
X25345847Y-56792306D02*
X25422038Y-56754211D01*
X25422038Y-56754211D02*
X25612514Y-56754211D01*
X25612514Y-56754211D02*
X25688704Y-56792306D01*
X25688704Y-56792306D02*
X25726800Y-56830401D01*
X25726800Y-56830401D02*
X25764895Y-56906592D01*
X25764895Y-56906592D02*
X25764895Y-57097068D01*
X25764895Y-57097068D02*
X25726800Y-57173258D01*
X25726800Y-57173258D02*
X25688704Y-57211354D01*
X24964895Y-56525639D02*
X25764895Y-56258972D01*
X25764895Y-56258972D02*
X24964895Y-55992306D01*
X56016323Y-90261027D02*
X56016323Y-89880074D01*
X56244895Y-90337217D02*
X55444895Y-90070550D01*
X55444895Y-90070550D02*
X56244895Y-89803884D01*
X55711561Y-89194360D02*
X56244895Y-89194360D01*
X55406800Y-89384836D02*
X55978228Y-89575313D01*
X55978228Y-89575313D02*
X55978228Y-89080074D01*
X30768704Y-57706591D02*
X30806800Y-57744687D01*
X30806800Y-57744687D02*
X30844895Y-57858972D01*
X30844895Y-57858972D02*
X30844895Y-57935163D01*
X30844895Y-57935163D02*
X30806800Y-58049449D01*
X30806800Y-58049449D02*
X30730609Y-58125639D01*
X30730609Y-58125639D02*
X30654419Y-58163734D01*
X30654419Y-58163734D02*
X30502038Y-58201830D01*
X30502038Y-58201830D02*
X30387752Y-58201830D01*
X30387752Y-58201830D02*
X30235371Y-58163734D01*
X30235371Y-58163734D02*
X30159180Y-58125639D01*
X30159180Y-58125639D02*
X30082990Y-58049449D01*
X30082990Y-58049449D02*
X30044895Y-57935163D01*
X30044895Y-57935163D02*
X30044895Y-57858972D01*
X30044895Y-57858972D02*
X30082990Y-57744687D01*
X30082990Y-57744687D02*
X30121085Y-57706591D01*
X30844895Y-56982782D02*
X30844895Y-57363734D01*
X30844895Y-57363734D02*
X30044895Y-57363734D01*
X30844895Y-56716115D02*
X30044895Y-56716115D01*
X30844895Y-56258972D02*
X30387752Y-56601830D01*
X30044895Y-56258972D02*
X30502038Y-56716115D01*
X30844895Y-55497068D02*
X30844895Y-55954211D01*
X30844895Y-55725639D02*
X30044895Y-55725639D01*
X30044895Y-55725639D02*
X30159180Y-55801830D01*
X30159180Y-55801830D02*
X30235371Y-55878020D01*
X30235371Y-55878020D02*
X30273466Y-55954211D01*
X35924895Y-58163734D02*
X35124895Y-58163734D01*
X35124895Y-58163734D02*
X35124895Y-57973258D01*
X35124895Y-57973258D02*
X35162990Y-57858972D01*
X35162990Y-57858972D02*
X35239180Y-57782782D01*
X35239180Y-57782782D02*
X35315371Y-57744687D01*
X35315371Y-57744687D02*
X35467752Y-57706591D01*
X35467752Y-57706591D02*
X35582038Y-57706591D01*
X35582038Y-57706591D02*
X35734419Y-57744687D01*
X35734419Y-57744687D02*
X35810609Y-57782782D01*
X35810609Y-57782782D02*
X35886800Y-57858972D01*
X35886800Y-57858972D02*
X35924895Y-57973258D01*
X35924895Y-57973258D02*
X35924895Y-58163734D01*
X35391561Y-57020877D02*
X35924895Y-57020877D01*
X35086800Y-57211353D02*
X35658228Y-57401830D01*
X35658228Y-57401830D02*
X35658228Y-56906591D01*
X45856323Y-90261027D02*
X45856323Y-89880074D01*
X46084895Y-90337217D02*
X45284895Y-90070550D01*
X45284895Y-90070550D02*
X46084895Y-89803884D01*
X45627752Y-89422932D02*
X45589657Y-89499122D01*
X45589657Y-89499122D02*
X45551561Y-89537217D01*
X45551561Y-89537217D02*
X45475371Y-89575313D01*
X45475371Y-89575313D02*
X45437276Y-89575313D01*
X45437276Y-89575313D02*
X45361085Y-89537217D01*
X45361085Y-89537217D02*
X45322990Y-89499122D01*
X45322990Y-89499122D02*
X45284895Y-89422932D01*
X45284895Y-89422932D02*
X45284895Y-89270551D01*
X45284895Y-89270551D02*
X45322990Y-89194360D01*
X45322990Y-89194360D02*
X45361085Y-89156265D01*
X45361085Y-89156265D02*
X45437276Y-89118170D01*
X45437276Y-89118170D02*
X45475371Y-89118170D01*
X45475371Y-89118170D02*
X45551561Y-89156265D01*
X45551561Y-89156265D02*
X45589657Y-89194360D01*
X45589657Y-89194360D02*
X45627752Y-89270551D01*
X45627752Y-89270551D02*
X45627752Y-89422932D01*
X45627752Y-89422932D02*
X45665847Y-89499122D01*
X45665847Y-89499122D02*
X45703942Y-89537217D01*
X45703942Y-89537217D02*
X45780133Y-89575313D01*
X45780133Y-89575313D02*
X45932514Y-89575313D01*
X45932514Y-89575313D02*
X46008704Y-89537217D01*
X46008704Y-89537217D02*
X46046800Y-89499122D01*
X46046800Y-89499122D02*
X46084895Y-89422932D01*
X46084895Y-89422932D02*
X46084895Y-89270551D01*
X46084895Y-89270551D02*
X46046800Y-89194360D01*
X46046800Y-89194360D02*
X46008704Y-89156265D01*
X46008704Y-89156265D02*
X45932514Y-89118170D01*
X45932514Y-89118170D02*
X45780133Y-89118170D01*
X45780133Y-89118170D02*
X45703942Y-89156265D01*
X45703942Y-89156265D02*
X45665847Y-89194360D01*
X45665847Y-89194360D02*
X45627752Y-89270551D01*
X41004895Y-58163734D02*
X40204895Y-58163734D01*
X40204895Y-58163734D02*
X40204895Y-57973258D01*
X40204895Y-57973258D02*
X40242990Y-57858972D01*
X40242990Y-57858972D02*
X40319180Y-57782782D01*
X40319180Y-57782782D02*
X40395371Y-57744687D01*
X40395371Y-57744687D02*
X40547752Y-57706591D01*
X40547752Y-57706591D02*
X40662038Y-57706591D01*
X40662038Y-57706591D02*
X40814419Y-57744687D01*
X40814419Y-57744687D02*
X40890609Y-57782782D01*
X40890609Y-57782782D02*
X40966800Y-57858972D01*
X40966800Y-57858972D02*
X41004895Y-57973258D01*
X41004895Y-57973258D02*
X41004895Y-58163734D01*
X40204895Y-57020877D02*
X40204895Y-57173258D01*
X40204895Y-57173258D02*
X40242990Y-57249449D01*
X40242990Y-57249449D02*
X40281085Y-57287544D01*
X40281085Y-57287544D02*
X40395371Y-57363734D01*
X40395371Y-57363734D02*
X40547752Y-57401830D01*
X40547752Y-57401830D02*
X40852514Y-57401830D01*
X40852514Y-57401830D02*
X40928704Y-57363734D01*
X40928704Y-57363734D02*
X40966800Y-57325639D01*
X40966800Y-57325639D02*
X41004895Y-57249449D01*
X41004895Y-57249449D02*
X41004895Y-57097068D01*
X41004895Y-57097068D02*
X40966800Y-57020877D01*
X40966800Y-57020877D02*
X40928704Y-56982782D01*
X40928704Y-56982782D02*
X40852514Y-56944687D01*
X40852514Y-56944687D02*
X40662038Y-56944687D01*
X40662038Y-56944687D02*
X40585847Y-56982782D01*
X40585847Y-56982782D02*
X40547752Y-57020877D01*
X40547752Y-57020877D02*
X40509657Y-57097068D01*
X40509657Y-57097068D02*
X40509657Y-57249449D01*
X40509657Y-57249449D02*
X40547752Y-57325639D01*
X40547752Y-57325639D02*
X40585847Y-57363734D01*
X40585847Y-57363734D02*
X40662038Y-57401830D01*
D10*
X38760476Y-11578390D02*
X38684286Y-11540295D01*
X38684286Y-11540295D02*
X38570000Y-11540295D01*
X38570000Y-11540295D02*
X38455714Y-11578390D01*
X38455714Y-11578390D02*
X38379524Y-11654580D01*
X38379524Y-11654580D02*
X38341429Y-11730771D01*
X38341429Y-11730771D02*
X38303333Y-11883152D01*
X38303333Y-11883152D02*
X38303333Y-11997438D01*
X38303333Y-11997438D02*
X38341429Y-12149819D01*
X38341429Y-12149819D02*
X38379524Y-12226009D01*
X38379524Y-12226009D02*
X38455714Y-12302200D01*
X38455714Y-12302200D02*
X38570000Y-12340295D01*
X38570000Y-12340295D02*
X38646191Y-12340295D01*
X38646191Y-12340295D02*
X38760476Y-12302200D01*
X38760476Y-12302200D02*
X38798572Y-12264104D01*
X38798572Y-12264104D02*
X38798572Y-11997438D01*
X38798572Y-11997438D02*
X38646191Y-11997438D01*
X39141429Y-12340295D02*
X39141429Y-11540295D01*
X39141429Y-11540295D02*
X39598572Y-12340295D01*
X39598572Y-12340295D02*
X39598572Y-11540295D01*
X39979524Y-12340295D02*
X39979524Y-11540295D01*
X39979524Y-11540295D02*
X40170000Y-11540295D01*
X40170000Y-11540295D02*
X40284286Y-11578390D01*
X40284286Y-11578390D02*
X40360476Y-11654580D01*
X40360476Y-11654580D02*
X40398571Y-11730771D01*
X40398571Y-11730771D02*
X40436667Y-11883152D01*
X40436667Y-11883152D02*
X40436667Y-11997438D01*
X40436667Y-11997438D02*
X40398571Y-12149819D01*
X40398571Y-12149819D02*
X40360476Y-12226009D01*
X40360476Y-12226009D02*
X40284286Y-12302200D01*
X40284286Y-12302200D02*
X40170000Y-12340295D01*
X40170000Y-12340295D02*
X39979524Y-12340295D01*
D11*
X38464895Y-58163734D02*
X37664895Y-58163734D01*
X37664895Y-58163734D02*
X37664895Y-57973258D01*
X37664895Y-57973258D02*
X37702990Y-57858972D01*
X37702990Y-57858972D02*
X37779180Y-57782782D01*
X37779180Y-57782782D02*
X37855371Y-57744687D01*
X37855371Y-57744687D02*
X38007752Y-57706591D01*
X38007752Y-57706591D02*
X38122038Y-57706591D01*
X38122038Y-57706591D02*
X38274419Y-57744687D01*
X38274419Y-57744687D02*
X38350609Y-57782782D01*
X38350609Y-57782782D02*
X38426800Y-57858972D01*
X38426800Y-57858972D02*
X38464895Y-57973258D01*
X38464895Y-57973258D02*
X38464895Y-58163734D01*
X37664895Y-56982782D02*
X37664895Y-57363734D01*
X37664895Y-57363734D02*
X38045847Y-57401830D01*
X38045847Y-57401830D02*
X38007752Y-57363734D01*
X38007752Y-57363734D02*
X37969657Y-57287544D01*
X37969657Y-57287544D02*
X37969657Y-57097068D01*
X37969657Y-57097068D02*
X38007752Y-57020877D01*
X38007752Y-57020877D02*
X38045847Y-56982782D01*
X38045847Y-56982782D02*
X38122038Y-56944687D01*
X38122038Y-56944687D02*
X38312514Y-56944687D01*
X38312514Y-56944687D02*
X38388704Y-56982782D01*
X38388704Y-56982782D02*
X38426800Y-57020877D01*
X38426800Y-57020877D02*
X38464895Y-57097068D01*
X38464895Y-57097068D02*
X38464895Y-57287544D01*
X38464895Y-57287544D02*
X38426800Y-57363734D01*
X38426800Y-57363734D02*
X38388704Y-57401830D01*
X50936323Y-90261027D02*
X50936323Y-89880074D01*
X51164895Y-90337217D02*
X50364895Y-90070550D01*
X50364895Y-90070550D02*
X51164895Y-89803884D01*
X50364895Y-89194360D02*
X50364895Y-89346741D01*
X50364895Y-89346741D02*
X50402990Y-89422932D01*
X50402990Y-89422932D02*
X50441085Y-89461027D01*
X50441085Y-89461027D02*
X50555371Y-89537217D01*
X50555371Y-89537217D02*
X50707752Y-89575313D01*
X50707752Y-89575313D02*
X51012514Y-89575313D01*
X51012514Y-89575313D02*
X51088704Y-89537217D01*
X51088704Y-89537217D02*
X51126800Y-89499122D01*
X51126800Y-89499122D02*
X51164895Y-89422932D01*
X51164895Y-89422932D02*
X51164895Y-89270551D01*
X51164895Y-89270551D02*
X51126800Y-89194360D01*
X51126800Y-89194360D02*
X51088704Y-89156265D01*
X51088704Y-89156265D02*
X51012514Y-89118170D01*
X51012514Y-89118170D02*
X50822038Y-89118170D01*
X50822038Y-89118170D02*
X50745847Y-89156265D01*
X50745847Y-89156265D02*
X50707752Y-89194360D01*
X50707752Y-89194360D02*
X50669657Y-89270551D01*
X50669657Y-89270551D02*
X50669657Y-89422932D01*
X50669657Y-89422932D02*
X50707752Y-89499122D01*
X50707752Y-89499122D02*
X50745847Y-89537217D01*
X50745847Y-89537217D02*
X50822038Y-89575313D01*
X25536323Y-91022932D02*
X25536323Y-90641979D01*
X25764895Y-91099122D02*
X24964895Y-90832455D01*
X24964895Y-90832455D02*
X25764895Y-90565789D01*
X25764895Y-89880075D02*
X25764895Y-90337218D01*
X25764895Y-90108646D02*
X24964895Y-90108646D01*
X24964895Y-90108646D02*
X25079180Y-90184837D01*
X25079180Y-90184837D02*
X25155371Y-90261027D01*
X25155371Y-90261027D02*
X25193466Y-90337218D01*
X24964895Y-89384836D02*
X24964895Y-89308646D01*
X24964895Y-89308646D02*
X25002990Y-89232455D01*
X25002990Y-89232455D02*
X25041085Y-89194360D01*
X25041085Y-89194360D02*
X25117276Y-89156265D01*
X25117276Y-89156265D02*
X25269657Y-89118170D01*
X25269657Y-89118170D02*
X25460133Y-89118170D01*
X25460133Y-89118170D02*
X25612514Y-89156265D01*
X25612514Y-89156265D02*
X25688704Y-89194360D01*
X25688704Y-89194360D02*
X25726800Y-89232455D01*
X25726800Y-89232455D02*
X25764895Y-89308646D01*
X25764895Y-89308646D02*
X25764895Y-89384836D01*
X25764895Y-89384836D02*
X25726800Y-89461027D01*
X25726800Y-89461027D02*
X25688704Y-89499122D01*
X25688704Y-89499122D02*
X25612514Y-89537217D01*
X25612514Y-89537217D02*
X25460133Y-89575313D01*
X25460133Y-89575313D02*
X25269657Y-89575313D01*
X25269657Y-89575313D02*
X25117276Y-89537217D01*
X25117276Y-89537217D02*
X25041085Y-89499122D01*
X25041085Y-89499122D02*
X25002990Y-89461027D01*
X25002990Y-89461027D02*
X24964895Y-89384836D01*
X58556323Y-90261027D02*
X58556323Y-89880074D01*
X58784895Y-90337217D02*
X57984895Y-90070550D01*
X57984895Y-90070550D02*
X58784895Y-89803884D01*
X57984895Y-89613408D02*
X57984895Y-89118170D01*
X57984895Y-89118170D02*
X58289657Y-89384836D01*
X58289657Y-89384836D02*
X58289657Y-89270551D01*
X58289657Y-89270551D02*
X58327752Y-89194360D01*
X58327752Y-89194360D02*
X58365847Y-89156265D01*
X58365847Y-89156265D02*
X58442038Y-89118170D01*
X58442038Y-89118170D02*
X58632514Y-89118170D01*
X58632514Y-89118170D02*
X58708704Y-89156265D01*
X58708704Y-89156265D02*
X58746800Y-89194360D01*
X58746800Y-89194360D02*
X58784895Y-89270551D01*
X58784895Y-89270551D02*
X58784895Y-89499122D01*
X58784895Y-89499122D02*
X58746800Y-89575313D01*
X58746800Y-89575313D02*
X58708704Y-89613408D01*
X61096323Y-90261027D02*
X61096323Y-89880074D01*
X61324895Y-90337217D02*
X60524895Y-90070550D01*
X60524895Y-90070550D02*
X61324895Y-89803884D01*
X60601085Y-89575313D02*
X60562990Y-89537217D01*
X60562990Y-89537217D02*
X60524895Y-89461027D01*
X60524895Y-89461027D02*
X60524895Y-89270551D01*
X60524895Y-89270551D02*
X60562990Y-89194360D01*
X60562990Y-89194360D02*
X60601085Y-89156265D01*
X60601085Y-89156265D02*
X60677276Y-89118170D01*
X60677276Y-89118170D02*
X60753466Y-89118170D01*
X60753466Y-89118170D02*
X60867752Y-89156265D01*
X60867752Y-89156265D02*
X61324895Y-89613408D01*
X61324895Y-89613408D02*
X61324895Y-89118170D01*
D12*
X13254510Y-94540912D02*
X13254510Y-93040912D01*
X13254510Y-93040912D02*
X13754510Y-94112341D01*
X13754510Y-94112341D02*
X14254510Y-93040912D01*
X14254510Y-93040912D02*
X14254510Y-94540912D01*
X15540225Y-94469484D02*
X15397368Y-94540912D01*
X15397368Y-94540912D02*
X15111654Y-94540912D01*
X15111654Y-94540912D02*
X14968796Y-94469484D01*
X14968796Y-94469484D02*
X14897368Y-94326626D01*
X14897368Y-94326626D02*
X14897368Y-93755198D01*
X14897368Y-93755198D02*
X14968796Y-93612341D01*
X14968796Y-93612341D02*
X15111654Y-93540912D01*
X15111654Y-93540912D02*
X15397368Y-93540912D01*
X15397368Y-93540912D02*
X15540225Y-93612341D01*
X15540225Y-93612341D02*
X15611654Y-93755198D01*
X15611654Y-93755198D02*
X15611654Y-93898055D01*
X15611654Y-93898055D02*
X14897368Y-94040912D01*
X16254510Y-94540912D02*
X16254510Y-93540912D01*
X16254510Y-93683769D02*
X16325939Y-93612341D01*
X16325939Y-93612341D02*
X16468796Y-93540912D01*
X16468796Y-93540912D02*
X16683082Y-93540912D01*
X16683082Y-93540912D02*
X16825939Y-93612341D01*
X16825939Y-93612341D02*
X16897368Y-93755198D01*
X16897368Y-93755198D02*
X16897368Y-94540912D01*
X16897368Y-93755198D02*
X16968796Y-93612341D01*
X16968796Y-93612341D02*
X17111653Y-93540912D01*
X17111653Y-93540912D02*
X17325939Y-93540912D01*
X17325939Y-93540912D02*
X17468796Y-93612341D01*
X17468796Y-93612341D02*
X17540225Y-93755198D01*
X17540225Y-93755198D02*
X17540225Y-94540912D01*
X18468796Y-94540912D02*
X18325939Y-94469484D01*
X18325939Y-94469484D02*
X18254510Y-94398055D01*
X18254510Y-94398055D02*
X18183082Y-94255198D01*
X18183082Y-94255198D02*
X18183082Y-93826626D01*
X18183082Y-93826626D02*
X18254510Y-93683769D01*
X18254510Y-93683769D02*
X18325939Y-93612341D01*
X18325939Y-93612341D02*
X18468796Y-93540912D01*
X18468796Y-93540912D02*
X18683082Y-93540912D01*
X18683082Y-93540912D02*
X18825939Y-93612341D01*
X18825939Y-93612341D02*
X18897368Y-93683769D01*
X18897368Y-93683769D02*
X18968796Y-93826626D01*
X18968796Y-93826626D02*
X18968796Y-94255198D01*
X18968796Y-94255198D02*
X18897368Y-94398055D01*
X18897368Y-94398055D02*
X18825939Y-94469484D01*
X18825939Y-94469484D02*
X18683082Y-94540912D01*
X18683082Y-94540912D02*
X18468796Y-94540912D01*
X19611653Y-94540912D02*
X19611653Y-93540912D01*
X19611653Y-93826626D02*
X19683082Y-93683769D01*
X19683082Y-93683769D02*
X19754511Y-93612341D01*
X19754511Y-93612341D02*
X19897368Y-93540912D01*
X19897368Y-93540912D02*
X20040225Y-93540912D01*
X20397367Y-93540912D02*
X20754510Y-94540912D01*
X21111653Y-93540912D02*
X20754510Y-94540912D01*
X20754510Y-94540912D02*
X20611653Y-94898055D01*
X20611653Y-94898055D02*
X20540224Y-94969484D01*
X20540224Y-94969484D02*
X20397367Y-95040912D01*
X21754510Y-94469484D02*
X21754510Y-94540912D01*
X21754510Y-94540912D02*
X21683081Y-94683769D01*
X21683081Y-94683769D02*
X21611653Y-94755198D01*
X24397367Y-94398055D02*
X24325939Y-94469484D01*
X24325939Y-94469484D02*
X24111653Y-94540912D01*
X24111653Y-94540912D02*
X23968796Y-94540912D01*
X23968796Y-94540912D02*
X23754510Y-94469484D01*
X23754510Y-94469484D02*
X23611653Y-94326626D01*
X23611653Y-94326626D02*
X23540224Y-94183769D01*
X23540224Y-94183769D02*
X23468796Y-93898055D01*
X23468796Y-93898055D02*
X23468796Y-93683769D01*
X23468796Y-93683769D02*
X23540224Y-93398055D01*
X23540224Y-93398055D02*
X23611653Y-93255198D01*
X23611653Y-93255198D02*
X23754510Y-93112341D01*
X23754510Y-93112341D02*
X23968796Y-93040912D01*
X23968796Y-93040912D02*
X24111653Y-93040912D01*
X24111653Y-93040912D02*
X24325939Y-93112341D01*
X24325939Y-93112341D02*
X24397367Y-93183769D01*
X25254510Y-94540912D02*
X25111653Y-94469484D01*
X25111653Y-94469484D02*
X25040224Y-94326626D01*
X25040224Y-94326626D02*
X25040224Y-93040912D01*
X26040224Y-94540912D02*
X25897367Y-94469484D01*
X25897367Y-94469484D02*
X25825938Y-94398055D01*
X25825938Y-94398055D02*
X25754510Y-94255198D01*
X25754510Y-94255198D02*
X25754510Y-93826626D01*
X25754510Y-93826626D02*
X25825938Y-93683769D01*
X25825938Y-93683769D02*
X25897367Y-93612341D01*
X25897367Y-93612341D02*
X26040224Y-93540912D01*
X26040224Y-93540912D02*
X26254510Y-93540912D01*
X26254510Y-93540912D02*
X26397367Y-93612341D01*
X26397367Y-93612341D02*
X26468796Y-93683769D01*
X26468796Y-93683769D02*
X26540224Y-93826626D01*
X26540224Y-93826626D02*
X26540224Y-94255198D01*
X26540224Y-94255198D02*
X26468796Y-94398055D01*
X26468796Y-94398055D02*
X26397367Y-94469484D01*
X26397367Y-94469484D02*
X26254510Y-94540912D01*
X26254510Y-94540912D02*
X26040224Y-94540912D01*
X27825939Y-94469484D02*
X27683081Y-94540912D01*
X27683081Y-94540912D02*
X27397367Y-94540912D01*
X27397367Y-94540912D02*
X27254510Y-94469484D01*
X27254510Y-94469484D02*
X27183081Y-94398055D01*
X27183081Y-94398055D02*
X27111653Y-94255198D01*
X27111653Y-94255198D02*
X27111653Y-93826626D01*
X27111653Y-93826626D02*
X27183081Y-93683769D01*
X27183081Y-93683769D02*
X27254510Y-93612341D01*
X27254510Y-93612341D02*
X27397367Y-93540912D01*
X27397367Y-93540912D02*
X27683081Y-93540912D01*
X27683081Y-93540912D02*
X27825939Y-93612341D01*
X28468795Y-94540912D02*
X28468795Y-93040912D01*
X28611653Y-93969484D02*
X29040224Y-94540912D01*
X29040224Y-93540912D02*
X28468795Y-94112341D01*
X29754510Y-94469484D02*
X29754510Y-94540912D01*
X29754510Y-94540912D02*
X29683081Y-94683769D01*
X29683081Y-94683769D02*
X29611653Y-94755198D01*
X31540224Y-93040912D02*
X31540224Y-94255198D01*
X31540224Y-94255198D02*
X31611653Y-94398055D01*
X31611653Y-94398055D02*
X31683082Y-94469484D01*
X31683082Y-94469484D02*
X31825939Y-94540912D01*
X31825939Y-94540912D02*
X32111653Y-94540912D01*
X32111653Y-94540912D02*
X32254510Y-94469484D01*
X32254510Y-94469484D02*
X32325939Y-94398055D01*
X32325939Y-94398055D02*
X32397367Y-94255198D01*
X32397367Y-94255198D02*
X32397367Y-93040912D01*
X33040225Y-94112341D02*
X33754511Y-94112341D01*
X32897368Y-94540912D02*
X33397368Y-93040912D01*
X33397368Y-93040912D02*
X33897368Y-94540912D01*
X35254510Y-94540912D02*
X34754510Y-93826626D01*
X34397367Y-94540912D02*
X34397367Y-93040912D01*
X34397367Y-93040912D02*
X34968796Y-93040912D01*
X34968796Y-93040912D02*
X35111653Y-93112341D01*
X35111653Y-93112341D02*
X35183082Y-93183769D01*
X35183082Y-93183769D02*
X35254510Y-93326626D01*
X35254510Y-93326626D02*
X35254510Y-93540912D01*
X35254510Y-93540912D02*
X35183082Y-93683769D01*
X35183082Y-93683769D02*
X35111653Y-93755198D01*
X35111653Y-93755198D02*
X34968796Y-93826626D01*
X34968796Y-93826626D02*
X34397367Y-93826626D01*
X35683082Y-93040912D02*
X36540225Y-93040912D01*
X36111653Y-94540912D02*
X36111653Y-93040912D01*
X38825939Y-94540912D02*
X38825939Y-93755198D01*
X38825939Y-93755198D02*
X38754510Y-93612341D01*
X38754510Y-93612341D02*
X38611653Y-93540912D01*
X38611653Y-93540912D02*
X38325939Y-93540912D01*
X38325939Y-93540912D02*
X38183081Y-93612341D01*
X38825939Y-94469484D02*
X38683081Y-94540912D01*
X38683081Y-94540912D02*
X38325939Y-94540912D01*
X38325939Y-94540912D02*
X38183081Y-94469484D01*
X38183081Y-94469484D02*
X38111653Y-94326626D01*
X38111653Y-94326626D02*
X38111653Y-94183769D01*
X38111653Y-94183769D02*
X38183081Y-94040912D01*
X38183081Y-94040912D02*
X38325939Y-93969484D01*
X38325939Y-93969484D02*
X38683081Y-93969484D01*
X38683081Y-93969484D02*
X38825939Y-93898055D01*
X39540224Y-93540912D02*
X39540224Y-94540912D01*
X39540224Y-93683769D02*
X39611653Y-93612341D01*
X39611653Y-93612341D02*
X39754510Y-93540912D01*
X39754510Y-93540912D02*
X39968796Y-93540912D01*
X39968796Y-93540912D02*
X40111653Y-93612341D01*
X40111653Y-93612341D02*
X40183082Y-93755198D01*
X40183082Y-93755198D02*
X40183082Y-94540912D01*
X41540225Y-94540912D02*
X41540225Y-93040912D01*
X41540225Y-94469484D02*
X41397367Y-94540912D01*
X41397367Y-94540912D02*
X41111653Y-94540912D01*
X41111653Y-94540912D02*
X40968796Y-94469484D01*
X40968796Y-94469484D02*
X40897367Y-94398055D01*
X40897367Y-94398055D02*
X40825939Y-94255198D01*
X40825939Y-94255198D02*
X40825939Y-93826626D01*
X40825939Y-93826626D02*
X40897367Y-93683769D01*
X40897367Y-93683769D02*
X40968796Y-93612341D01*
X40968796Y-93612341D02*
X41111653Y-93540912D01*
X41111653Y-93540912D02*
X41397367Y-93540912D01*
X41397367Y-93540912D02*
X41540225Y-93612341D01*
X43397367Y-94540912D02*
X43397367Y-93040912D01*
X43397367Y-93040912D02*
X43754510Y-93040912D01*
X43754510Y-93040912D02*
X43968796Y-93112341D01*
X43968796Y-93112341D02*
X44111653Y-93255198D01*
X44111653Y-93255198D02*
X44183082Y-93398055D01*
X44183082Y-93398055D02*
X44254510Y-93683769D01*
X44254510Y-93683769D02*
X44254510Y-93898055D01*
X44254510Y-93898055D02*
X44183082Y-94183769D01*
X44183082Y-94183769D02*
X44111653Y-94326626D01*
X44111653Y-94326626D02*
X43968796Y-94469484D01*
X43968796Y-94469484D02*
X43754510Y-94540912D01*
X43754510Y-94540912D02*
X43397367Y-94540912D01*
X44897367Y-94540912D02*
X44897367Y-93540912D01*
X44897367Y-93040912D02*
X44825939Y-93112341D01*
X44825939Y-93112341D02*
X44897367Y-93183769D01*
X44897367Y-93183769D02*
X44968796Y-93112341D01*
X44968796Y-93112341D02*
X44897367Y-93040912D01*
X44897367Y-93040912D02*
X44897367Y-93183769D01*
X45540225Y-94469484D02*
X45683082Y-94540912D01*
X45683082Y-94540912D02*
X45968796Y-94540912D01*
X45968796Y-94540912D02*
X46111653Y-94469484D01*
X46111653Y-94469484D02*
X46183082Y-94326626D01*
X46183082Y-94326626D02*
X46183082Y-94255198D01*
X46183082Y-94255198D02*
X46111653Y-94112341D01*
X46111653Y-94112341D02*
X45968796Y-94040912D01*
X45968796Y-94040912D02*
X45754511Y-94040912D01*
X45754511Y-94040912D02*
X45611653Y-93969484D01*
X45611653Y-93969484D02*
X45540225Y-93826626D01*
X45540225Y-93826626D02*
X45540225Y-93755198D01*
X45540225Y-93755198D02*
X45611653Y-93612341D01*
X45611653Y-93612341D02*
X45754511Y-93540912D01*
X45754511Y-93540912D02*
X45968796Y-93540912D01*
X45968796Y-93540912D02*
X46111653Y-93612341D01*
X46825939Y-94540912D02*
X46825939Y-93040912D01*
X46968797Y-93969484D02*
X47397368Y-94540912D01*
X47397368Y-93540912D02*
X46825939Y-94112341D01*
X49111654Y-94469484D02*
X49325940Y-94540912D01*
X49325940Y-94540912D02*
X49683082Y-94540912D01*
X49683082Y-94540912D02*
X49825940Y-94469484D01*
X49825940Y-94469484D02*
X49897368Y-94398055D01*
X49897368Y-94398055D02*
X49968797Y-94255198D01*
X49968797Y-94255198D02*
X49968797Y-94112341D01*
X49968797Y-94112341D02*
X49897368Y-93969484D01*
X49897368Y-93969484D02*
X49825940Y-93898055D01*
X49825940Y-93898055D02*
X49683082Y-93826626D01*
X49683082Y-93826626D02*
X49397368Y-93755198D01*
X49397368Y-93755198D02*
X49254511Y-93683769D01*
X49254511Y-93683769D02*
X49183082Y-93612341D01*
X49183082Y-93612341D02*
X49111654Y-93469484D01*
X49111654Y-93469484D02*
X49111654Y-93326626D01*
X49111654Y-93326626D02*
X49183082Y-93183769D01*
X49183082Y-93183769D02*
X49254511Y-93112341D01*
X49254511Y-93112341D02*
X49397368Y-93040912D01*
X49397368Y-93040912D02*
X49754511Y-93040912D01*
X49754511Y-93040912D02*
X49968797Y-93112341D01*
X50468796Y-93540912D02*
X50825939Y-94540912D01*
X51183082Y-93540912D02*
X50825939Y-94540912D01*
X50825939Y-94540912D02*
X50683082Y-94898055D01*
X50683082Y-94898055D02*
X50611653Y-94969484D01*
X50611653Y-94969484D02*
X50468796Y-95040912D01*
X51683082Y-94469484D02*
X51825939Y-94540912D01*
X51825939Y-94540912D02*
X52111653Y-94540912D01*
X52111653Y-94540912D02*
X52254510Y-94469484D01*
X52254510Y-94469484D02*
X52325939Y-94326626D01*
X52325939Y-94326626D02*
X52325939Y-94255198D01*
X52325939Y-94255198D02*
X52254510Y-94112341D01*
X52254510Y-94112341D02*
X52111653Y-94040912D01*
X52111653Y-94040912D02*
X51897368Y-94040912D01*
X51897368Y-94040912D02*
X51754510Y-93969484D01*
X51754510Y-93969484D02*
X51683082Y-93826626D01*
X51683082Y-93826626D02*
X51683082Y-93755198D01*
X51683082Y-93755198D02*
X51754510Y-93612341D01*
X51754510Y-93612341D02*
X51897368Y-93540912D01*
X51897368Y-93540912D02*
X52111653Y-93540912D01*
X52111653Y-93540912D02*
X52254510Y-93612341D01*
X52754511Y-93540912D02*
X53325939Y-93540912D01*
X52968796Y-93040912D02*
X52968796Y-94326626D01*
X52968796Y-94326626D02*
X53040225Y-94469484D01*
X53040225Y-94469484D02*
X53183082Y-94540912D01*
X53183082Y-94540912D02*
X53325939Y-94540912D01*
X54397368Y-94469484D02*
X54254511Y-94540912D01*
X54254511Y-94540912D02*
X53968797Y-94540912D01*
X53968797Y-94540912D02*
X53825939Y-94469484D01*
X53825939Y-94469484D02*
X53754511Y-94326626D01*
X53754511Y-94326626D02*
X53754511Y-93755198D01*
X53754511Y-93755198D02*
X53825939Y-93612341D01*
X53825939Y-93612341D02*
X53968797Y-93540912D01*
X53968797Y-93540912D02*
X54254511Y-93540912D01*
X54254511Y-93540912D02*
X54397368Y-93612341D01*
X54397368Y-93612341D02*
X54468797Y-93755198D01*
X54468797Y-93755198D02*
X54468797Y-93898055D01*
X54468797Y-93898055D02*
X53754511Y-94040912D01*
X55111653Y-94540912D02*
X55111653Y-93540912D01*
X55111653Y-93683769D02*
X55183082Y-93612341D01*
X55183082Y-93612341D02*
X55325939Y-93540912D01*
X55325939Y-93540912D02*
X55540225Y-93540912D01*
X55540225Y-93540912D02*
X55683082Y-93612341D01*
X55683082Y-93612341D02*
X55754511Y-93755198D01*
X55754511Y-93755198D02*
X55754511Y-94540912D01*
X55754511Y-93755198D02*
X55825939Y-93612341D01*
X55825939Y-93612341D02*
X55968796Y-93540912D01*
X55968796Y-93540912D02*
X56183082Y-93540912D01*
X56183082Y-93540912D02*
X56325939Y-93612341D01*
X56325939Y-93612341D02*
X56397368Y-93755198D01*
X56397368Y-93755198D02*
X56397368Y-94540912D01*
X58040225Y-93540912D02*
X58611653Y-93540912D01*
X58254510Y-94540912D02*
X58254510Y-93255198D01*
X58254510Y-93255198D02*
X58325939Y-93112341D01*
X58325939Y-93112341D02*
X58468796Y-93040912D01*
X58468796Y-93040912D02*
X58611653Y-93040912D01*
X59325939Y-94540912D02*
X59183082Y-94469484D01*
X59183082Y-94469484D02*
X59111653Y-94398055D01*
X59111653Y-94398055D02*
X59040225Y-94255198D01*
X59040225Y-94255198D02*
X59040225Y-93826626D01*
X59040225Y-93826626D02*
X59111653Y-93683769D01*
X59111653Y-93683769D02*
X59183082Y-93612341D01*
X59183082Y-93612341D02*
X59325939Y-93540912D01*
X59325939Y-93540912D02*
X59540225Y-93540912D01*
X59540225Y-93540912D02*
X59683082Y-93612341D01*
X59683082Y-93612341D02*
X59754511Y-93683769D01*
X59754511Y-93683769D02*
X59825939Y-93826626D01*
X59825939Y-93826626D02*
X59825939Y-94255198D01*
X59825939Y-94255198D02*
X59754511Y-94398055D01*
X59754511Y-94398055D02*
X59683082Y-94469484D01*
X59683082Y-94469484D02*
X59540225Y-94540912D01*
X59540225Y-94540912D02*
X59325939Y-94540912D01*
X60468796Y-94540912D02*
X60468796Y-93540912D01*
X60468796Y-93826626D02*
X60540225Y-93683769D01*
X60540225Y-93683769D02*
X60611654Y-93612341D01*
X60611654Y-93612341D02*
X60754511Y-93540912D01*
X60754511Y-93540912D02*
X60897368Y-93540912D01*
X62754510Y-93683769D02*
X62611653Y-93612341D01*
X62611653Y-93612341D02*
X62540224Y-93540912D01*
X62540224Y-93540912D02*
X62468796Y-93398055D01*
X62468796Y-93398055D02*
X62468796Y-93326626D01*
X62468796Y-93326626D02*
X62540224Y-93183769D01*
X62540224Y-93183769D02*
X62611653Y-93112341D01*
X62611653Y-93112341D02*
X62754510Y-93040912D01*
X62754510Y-93040912D02*
X63040224Y-93040912D01*
X63040224Y-93040912D02*
X63183082Y-93112341D01*
X63183082Y-93112341D02*
X63254510Y-93183769D01*
X63254510Y-93183769D02*
X63325939Y-93326626D01*
X63325939Y-93326626D02*
X63325939Y-93398055D01*
X63325939Y-93398055D02*
X63254510Y-93540912D01*
X63254510Y-93540912D02*
X63183082Y-93612341D01*
X63183082Y-93612341D02*
X63040224Y-93683769D01*
X63040224Y-93683769D02*
X62754510Y-93683769D01*
X62754510Y-93683769D02*
X62611653Y-93755198D01*
X62611653Y-93755198D02*
X62540224Y-93826626D01*
X62540224Y-93826626D02*
X62468796Y-93969484D01*
X62468796Y-93969484D02*
X62468796Y-94255198D01*
X62468796Y-94255198D02*
X62540224Y-94398055D01*
X62540224Y-94398055D02*
X62611653Y-94469484D01*
X62611653Y-94469484D02*
X62754510Y-94540912D01*
X62754510Y-94540912D02*
X63040224Y-94540912D01*
X63040224Y-94540912D02*
X63183082Y-94469484D01*
X63183082Y-94469484D02*
X63254510Y-94398055D01*
X63254510Y-94398055D02*
X63325939Y-94255198D01*
X63325939Y-94255198D02*
X63325939Y-93969484D01*
X63325939Y-93969484D02*
X63254510Y-93826626D01*
X63254510Y-93826626D02*
X63183082Y-93755198D01*
X63183082Y-93755198D02*
X63040224Y-93683769D01*
X64254510Y-93040912D02*
X64397367Y-93040912D01*
X64397367Y-93040912D02*
X64540224Y-93112341D01*
X64540224Y-93112341D02*
X64611653Y-93183769D01*
X64611653Y-93183769D02*
X64683081Y-93326626D01*
X64683081Y-93326626D02*
X64754510Y-93612341D01*
X64754510Y-93612341D02*
X64754510Y-93969484D01*
X64754510Y-93969484D02*
X64683081Y-94255198D01*
X64683081Y-94255198D02*
X64611653Y-94398055D01*
X64611653Y-94398055D02*
X64540224Y-94469484D01*
X64540224Y-94469484D02*
X64397367Y-94540912D01*
X64397367Y-94540912D02*
X64254510Y-94540912D01*
X64254510Y-94540912D02*
X64111653Y-94469484D01*
X64111653Y-94469484D02*
X64040224Y-94398055D01*
X64040224Y-94398055D02*
X63968795Y-94255198D01*
X63968795Y-94255198D02*
X63897367Y-93969484D01*
X63897367Y-93969484D02*
X63897367Y-93612341D01*
X63897367Y-93612341D02*
X63968795Y-93326626D01*
X63968795Y-93326626D02*
X64040224Y-93183769D01*
X64040224Y-93183769D02*
X64111653Y-93112341D01*
X64111653Y-93112341D02*
X64254510Y-93040912D01*
X65611652Y-93683769D02*
X65468795Y-93612341D01*
X65468795Y-93612341D02*
X65397366Y-93540912D01*
X65397366Y-93540912D02*
X65325938Y-93398055D01*
X65325938Y-93398055D02*
X65325938Y-93326626D01*
X65325938Y-93326626D02*
X65397366Y-93183769D01*
X65397366Y-93183769D02*
X65468795Y-93112341D01*
X65468795Y-93112341D02*
X65611652Y-93040912D01*
X65611652Y-93040912D02*
X65897366Y-93040912D01*
X65897366Y-93040912D02*
X66040224Y-93112341D01*
X66040224Y-93112341D02*
X66111652Y-93183769D01*
X66111652Y-93183769D02*
X66183081Y-93326626D01*
X66183081Y-93326626D02*
X66183081Y-93398055D01*
X66183081Y-93398055D02*
X66111652Y-93540912D01*
X66111652Y-93540912D02*
X66040224Y-93612341D01*
X66040224Y-93612341D02*
X65897366Y-93683769D01*
X65897366Y-93683769D02*
X65611652Y-93683769D01*
X65611652Y-93683769D02*
X65468795Y-93755198D01*
X65468795Y-93755198D02*
X65397366Y-93826626D01*
X65397366Y-93826626D02*
X65325938Y-93969484D01*
X65325938Y-93969484D02*
X65325938Y-94255198D01*
X65325938Y-94255198D02*
X65397366Y-94398055D01*
X65397366Y-94398055D02*
X65468795Y-94469484D01*
X65468795Y-94469484D02*
X65611652Y-94540912D01*
X65611652Y-94540912D02*
X65897366Y-94540912D01*
X65897366Y-94540912D02*
X66040224Y-94469484D01*
X66040224Y-94469484D02*
X66111652Y-94398055D01*
X66111652Y-94398055D02*
X66183081Y-94255198D01*
X66183081Y-94255198D02*
X66183081Y-93969484D01*
X66183081Y-93969484D02*
X66111652Y-93826626D01*
X66111652Y-93826626D02*
X66040224Y-93755198D01*
X66040224Y-93755198D02*
X65897366Y-93683769D01*
X67111652Y-93040912D02*
X67254509Y-93040912D01*
X67254509Y-93040912D02*
X67397366Y-93112341D01*
X67397366Y-93112341D02*
X67468795Y-93183769D01*
X67468795Y-93183769D02*
X67540223Y-93326626D01*
X67540223Y-93326626D02*
X67611652Y-93612341D01*
X67611652Y-93612341D02*
X67611652Y-93969484D01*
X67611652Y-93969484D02*
X67540223Y-94255198D01*
X67540223Y-94255198D02*
X67468795Y-94398055D01*
X67468795Y-94398055D02*
X67397366Y-94469484D01*
X67397366Y-94469484D02*
X67254509Y-94540912D01*
X67254509Y-94540912D02*
X67111652Y-94540912D01*
X67111652Y-94540912D02*
X66968795Y-94469484D01*
X66968795Y-94469484D02*
X66897366Y-94398055D01*
X66897366Y-94398055D02*
X66825937Y-94255198D01*
X66825937Y-94255198D02*
X66754509Y-93969484D01*
X66754509Y-93969484D02*
X66754509Y-93612341D01*
X66754509Y-93612341D02*
X66825937Y-93326626D01*
X66825937Y-93326626D02*
X66897366Y-93183769D01*
X66897366Y-93183769D02*
X66968795Y-93112341D01*
X66968795Y-93112341D02*
X67111652Y-93040912D01*
X13468796Y-96955828D02*
X13325939Y-96884400D01*
X13325939Y-96884400D02*
X13254510Y-96812971D01*
X13254510Y-96812971D02*
X13183082Y-96670114D01*
X13183082Y-96670114D02*
X13183082Y-96241542D01*
X13183082Y-96241542D02*
X13254510Y-96098685D01*
X13254510Y-96098685D02*
X13325939Y-96027257D01*
X13325939Y-96027257D02*
X13468796Y-95955828D01*
X13468796Y-95955828D02*
X13683082Y-95955828D01*
X13683082Y-95955828D02*
X13825939Y-96027257D01*
X13825939Y-96027257D02*
X13897368Y-96098685D01*
X13897368Y-96098685D02*
X13968796Y-96241542D01*
X13968796Y-96241542D02*
X13968796Y-96670114D01*
X13968796Y-96670114D02*
X13897368Y-96812971D01*
X13897368Y-96812971D02*
X13825939Y-96884400D01*
X13825939Y-96884400D02*
X13683082Y-96955828D01*
X13683082Y-96955828D02*
X13468796Y-96955828D01*
X14611653Y-95955828D02*
X14611653Y-96955828D01*
X14611653Y-96098685D02*
X14683082Y-96027257D01*
X14683082Y-96027257D02*
X14825939Y-95955828D01*
X14825939Y-95955828D02*
X15040225Y-95955828D01*
X15040225Y-95955828D02*
X15183082Y-96027257D01*
X15183082Y-96027257D02*
X15254511Y-96170114D01*
X15254511Y-96170114D02*
X15254511Y-96955828D01*
X16897368Y-95455828D02*
X17754511Y-95455828D01*
X17325939Y-96955828D02*
X17325939Y-95455828D01*
X18897368Y-96955828D02*
X18897368Y-96170114D01*
X18897368Y-96170114D02*
X18825939Y-96027257D01*
X18825939Y-96027257D02*
X18683082Y-95955828D01*
X18683082Y-95955828D02*
X18397368Y-95955828D01*
X18397368Y-95955828D02*
X18254510Y-96027257D01*
X18897368Y-96884400D02*
X18754510Y-96955828D01*
X18754510Y-96955828D02*
X18397368Y-96955828D01*
X18397368Y-96955828D02*
X18254510Y-96884400D01*
X18254510Y-96884400D02*
X18183082Y-96741542D01*
X18183082Y-96741542D02*
X18183082Y-96598685D01*
X18183082Y-96598685D02*
X18254510Y-96455828D01*
X18254510Y-96455828D02*
X18397368Y-96384400D01*
X18397368Y-96384400D02*
X18754510Y-96384400D01*
X18754510Y-96384400D02*
X18897368Y-96312971D01*
X19611653Y-95955828D02*
X19611653Y-96955828D01*
X19611653Y-96098685D02*
X19683082Y-96027257D01*
X19683082Y-96027257D02*
X19825939Y-95955828D01*
X19825939Y-95955828D02*
X20040225Y-95955828D01*
X20040225Y-95955828D02*
X20183082Y-96027257D01*
X20183082Y-96027257D02*
X20254511Y-96170114D01*
X20254511Y-96170114D02*
X20254511Y-96955828D01*
X21611654Y-95955828D02*
X21611654Y-97170114D01*
X21611654Y-97170114D02*
X21540225Y-97312971D01*
X21540225Y-97312971D02*
X21468796Y-97384400D01*
X21468796Y-97384400D02*
X21325939Y-97455828D01*
X21325939Y-97455828D02*
X21111654Y-97455828D01*
X21111654Y-97455828D02*
X20968796Y-97384400D01*
X21611654Y-96884400D02*
X21468796Y-96955828D01*
X21468796Y-96955828D02*
X21183082Y-96955828D01*
X21183082Y-96955828D02*
X21040225Y-96884400D01*
X21040225Y-96884400D02*
X20968796Y-96812971D01*
X20968796Y-96812971D02*
X20897368Y-96670114D01*
X20897368Y-96670114D02*
X20897368Y-96241542D01*
X20897368Y-96241542D02*
X20968796Y-96098685D01*
X20968796Y-96098685D02*
X21040225Y-96027257D01*
X21040225Y-96027257D02*
X21183082Y-95955828D01*
X21183082Y-95955828D02*
X21468796Y-95955828D01*
X21468796Y-95955828D02*
X21611654Y-96027257D01*
X22325939Y-96955828D02*
X22325939Y-95455828D01*
X22325939Y-95455828D02*
X23183082Y-96955828D01*
X23183082Y-96955828D02*
X23183082Y-95455828D01*
X24540226Y-96955828D02*
X24540226Y-96170114D01*
X24540226Y-96170114D02*
X24468797Y-96027257D01*
X24468797Y-96027257D02*
X24325940Y-95955828D01*
X24325940Y-95955828D02*
X24040226Y-95955828D01*
X24040226Y-95955828D02*
X23897368Y-96027257D01*
X24540226Y-96884400D02*
X24397368Y-96955828D01*
X24397368Y-96955828D02*
X24040226Y-96955828D01*
X24040226Y-96955828D02*
X23897368Y-96884400D01*
X23897368Y-96884400D02*
X23825940Y-96741542D01*
X23825940Y-96741542D02*
X23825940Y-96598685D01*
X23825940Y-96598685D02*
X23897368Y-96455828D01*
X23897368Y-96455828D02*
X24040226Y-96384400D01*
X24040226Y-96384400D02*
X24397368Y-96384400D01*
X24397368Y-96384400D02*
X24540226Y-96312971D01*
X25254511Y-95955828D02*
X25254511Y-96955828D01*
X25254511Y-96098685D02*
X25325940Y-96027257D01*
X25325940Y-96027257D02*
X25468797Y-95955828D01*
X25468797Y-95955828D02*
X25683083Y-95955828D01*
X25683083Y-95955828D02*
X25825940Y-96027257D01*
X25825940Y-96027257D02*
X25897369Y-96170114D01*
X25897369Y-96170114D02*
X25897369Y-96955828D01*
X26825940Y-96955828D02*
X26683083Y-96884400D01*
X26683083Y-96884400D02*
X26611654Y-96812971D01*
X26611654Y-96812971D02*
X26540226Y-96670114D01*
X26540226Y-96670114D02*
X26540226Y-96241542D01*
X26540226Y-96241542D02*
X26611654Y-96098685D01*
X26611654Y-96098685D02*
X26683083Y-96027257D01*
X26683083Y-96027257D02*
X26825940Y-95955828D01*
X26825940Y-95955828D02*
X27040226Y-95955828D01*
X27040226Y-95955828D02*
X27183083Y-96027257D01*
X27183083Y-96027257D02*
X27254512Y-96098685D01*
X27254512Y-96098685D02*
X27325940Y-96241542D01*
X27325940Y-96241542D02*
X27325940Y-96670114D01*
X27325940Y-96670114D02*
X27254512Y-96812971D01*
X27254512Y-96812971D02*
X27183083Y-96884400D01*
X27183083Y-96884400D02*
X27040226Y-96955828D01*
X27040226Y-96955828D02*
X26825940Y-96955828D01*
X27897369Y-95598685D02*
X27968797Y-95527257D01*
X27968797Y-95527257D02*
X28111655Y-95455828D01*
X28111655Y-95455828D02*
X28468797Y-95455828D01*
X28468797Y-95455828D02*
X28611655Y-95527257D01*
X28611655Y-95527257D02*
X28683083Y-95598685D01*
X28683083Y-95598685D02*
X28754512Y-95741542D01*
X28754512Y-95741542D02*
X28754512Y-95884400D01*
X28754512Y-95884400D02*
X28683083Y-96098685D01*
X28683083Y-96098685D02*
X27825940Y-96955828D01*
X27825940Y-96955828D02*
X28754512Y-96955828D01*
X29683083Y-95455828D02*
X29825940Y-95455828D01*
X29825940Y-95455828D02*
X29968797Y-95527257D01*
X29968797Y-95527257D02*
X30040226Y-95598685D01*
X30040226Y-95598685D02*
X30111654Y-95741542D01*
X30111654Y-95741542D02*
X30183083Y-96027257D01*
X30183083Y-96027257D02*
X30183083Y-96384400D01*
X30183083Y-96384400D02*
X30111654Y-96670114D01*
X30111654Y-96670114D02*
X30040226Y-96812971D01*
X30040226Y-96812971D02*
X29968797Y-96884400D01*
X29968797Y-96884400D02*
X29825940Y-96955828D01*
X29825940Y-96955828D02*
X29683083Y-96955828D01*
X29683083Y-96955828D02*
X29540226Y-96884400D01*
X29540226Y-96884400D02*
X29468797Y-96812971D01*
X29468797Y-96812971D02*
X29397368Y-96670114D01*
X29397368Y-96670114D02*
X29325940Y-96384400D01*
X29325940Y-96384400D02*
X29325940Y-96027257D01*
X29325940Y-96027257D02*
X29397368Y-95741542D01*
X29397368Y-95741542D02*
X29468797Y-95598685D01*
X29468797Y-95598685D02*
X29540226Y-95527257D01*
X29540226Y-95527257D02*
X29683083Y-95455828D01*
X30825939Y-96955828D02*
X30825939Y-95455828D01*
X31683082Y-96955828D02*
X31040225Y-96098685D01*
X31683082Y-95455828D02*
X30825939Y-96312971D01*
X33325939Y-95955828D02*
X33611654Y-96955828D01*
X33611654Y-96955828D02*
X33897368Y-96241542D01*
X33897368Y-96241542D02*
X34183082Y-96955828D01*
X34183082Y-96955828D02*
X34468796Y-95955828D01*
X35040225Y-96955828D02*
X35040225Y-95955828D01*
X35040225Y-95455828D02*
X34968797Y-95527257D01*
X34968797Y-95527257D02*
X35040225Y-95598685D01*
X35040225Y-95598685D02*
X35111654Y-95527257D01*
X35111654Y-95527257D02*
X35040225Y-95455828D01*
X35040225Y-95455828D02*
X35040225Y-95598685D01*
X35540226Y-95955828D02*
X36111654Y-95955828D01*
X35754511Y-95455828D02*
X35754511Y-96741542D01*
X35754511Y-96741542D02*
X35825940Y-96884400D01*
X35825940Y-96884400D02*
X35968797Y-96955828D01*
X35968797Y-96955828D02*
X36111654Y-96955828D01*
X36611654Y-96955828D02*
X36611654Y-95455828D01*
X37254512Y-96955828D02*
X37254512Y-96170114D01*
X37254512Y-96170114D02*
X37183083Y-96027257D01*
X37183083Y-96027257D02*
X37040226Y-95955828D01*
X37040226Y-95955828D02*
X36825940Y-95955828D01*
X36825940Y-95955828D02*
X36683083Y-96027257D01*
X36683083Y-96027257D02*
X36611654Y-96098685D01*
X39825940Y-95455828D02*
X39111654Y-95455828D01*
X39111654Y-95455828D02*
X39040226Y-96170114D01*
X39040226Y-96170114D02*
X39111654Y-96098685D01*
X39111654Y-96098685D02*
X39254512Y-96027257D01*
X39254512Y-96027257D02*
X39611654Y-96027257D01*
X39611654Y-96027257D02*
X39754512Y-96098685D01*
X39754512Y-96098685D02*
X39825940Y-96170114D01*
X39825940Y-96170114D02*
X39897369Y-96312971D01*
X39897369Y-96312971D02*
X39897369Y-96670114D01*
X39897369Y-96670114D02*
X39825940Y-96812971D01*
X39825940Y-96812971D02*
X39754512Y-96884400D01*
X39754512Y-96884400D02*
X39611654Y-96955828D01*
X39611654Y-96955828D02*
X39254512Y-96955828D01*
X39254512Y-96955828D02*
X39111654Y-96884400D01*
X39111654Y-96884400D02*
X39040226Y-96812971D01*
X40325940Y-95455828D02*
X40825940Y-96955828D01*
X40825940Y-96955828D02*
X41325940Y-95455828D01*
X42968796Y-96955828D02*
X42968796Y-95455828D01*
X43683082Y-95955828D02*
X43683082Y-96955828D01*
X43683082Y-96098685D02*
X43754511Y-96027257D01*
X43754511Y-96027257D02*
X43897368Y-95955828D01*
X43897368Y-95955828D02*
X44111654Y-95955828D01*
X44111654Y-95955828D02*
X44254511Y-96027257D01*
X44254511Y-96027257D02*
X44325940Y-96170114D01*
X44325940Y-96170114D02*
X44325940Y-96955828D01*
X44825940Y-95955828D02*
X45397368Y-95955828D01*
X45040225Y-95455828D02*
X45040225Y-96741542D01*
X45040225Y-96741542D02*
X45111654Y-96884400D01*
X45111654Y-96884400D02*
X45254511Y-96955828D01*
X45254511Y-96955828D02*
X45397368Y-96955828D01*
X46468797Y-96884400D02*
X46325940Y-96955828D01*
X46325940Y-96955828D02*
X46040226Y-96955828D01*
X46040226Y-96955828D02*
X45897368Y-96884400D01*
X45897368Y-96884400D02*
X45825940Y-96741542D01*
X45825940Y-96741542D02*
X45825940Y-96170114D01*
X45825940Y-96170114D02*
X45897368Y-96027257D01*
X45897368Y-96027257D02*
X46040226Y-95955828D01*
X46040226Y-95955828D02*
X46325940Y-95955828D01*
X46325940Y-95955828D02*
X46468797Y-96027257D01*
X46468797Y-96027257D02*
X46540226Y-96170114D01*
X46540226Y-96170114D02*
X46540226Y-96312971D01*
X46540226Y-96312971D02*
X45825940Y-96455828D01*
X47183082Y-96955828D02*
X47183082Y-95955828D01*
X47183082Y-96241542D02*
X47254511Y-96098685D01*
X47254511Y-96098685D02*
X47325940Y-96027257D01*
X47325940Y-96027257D02*
X47468797Y-95955828D01*
X47468797Y-95955828D02*
X47611654Y-95955828D01*
X47897368Y-95955828D02*
X48468796Y-95955828D01*
X48111653Y-96955828D02*
X48111653Y-95670114D01*
X48111653Y-95670114D02*
X48183082Y-95527257D01*
X48183082Y-95527257D02*
X48325939Y-95455828D01*
X48325939Y-95455828D02*
X48468796Y-95455828D01*
X49611654Y-96955828D02*
X49611654Y-96170114D01*
X49611654Y-96170114D02*
X49540225Y-96027257D01*
X49540225Y-96027257D02*
X49397368Y-95955828D01*
X49397368Y-95955828D02*
X49111654Y-95955828D01*
X49111654Y-95955828D02*
X48968796Y-96027257D01*
X49611654Y-96884400D02*
X49468796Y-96955828D01*
X49468796Y-96955828D02*
X49111654Y-96955828D01*
X49111654Y-96955828D02*
X48968796Y-96884400D01*
X48968796Y-96884400D02*
X48897368Y-96741542D01*
X48897368Y-96741542D02*
X48897368Y-96598685D01*
X48897368Y-96598685D02*
X48968796Y-96455828D01*
X48968796Y-96455828D02*
X49111654Y-96384400D01*
X49111654Y-96384400D02*
X49468796Y-96384400D01*
X49468796Y-96384400D02*
X49611654Y-96312971D01*
X50968797Y-96884400D02*
X50825939Y-96955828D01*
X50825939Y-96955828D02*
X50540225Y-96955828D01*
X50540225Y-96955828D02*
X50397368Y-96884400D01*
X50397368Y-96884400D02*
X50325939Y-96812971D01*
X50325939Y-96812971D02*
X50254511Y-96670114D01*
X50254511Y-96670114D02*
X50254511Y-96241542D01*
X50254511Y-96241542D02*
X50325939Y-96098685D01*
X50325939Y-96098685D02*
X50397368Y-96027257D01*
X50397368Y-96027257D02*
X50540225Y-95955828D01*
X50540225Y-95955828D02*
X50825939Y-95955828D01*
X50825939Y-95955828D02*
X50968797Y-96027257D01*
X52183082Y-96884400D02*
X52040225Y-96955828D01*
X52040225Y-96955828D02*
X51754511Y-96955828D01*
X51754511Y-96955828D02*
X51611653Y-96884400D01*
X51611653Y-96884400D02*
X51540225Y-96741542D01*
X51540225Y-96741542D02*
X51540225Y-96170114D01*
X51540225Y-96170114D02*
X51611653Y-96027257D01*
X51611653Y-96027257D02*
X51754511Y-95955828D01*
X51754511Y-95955828D02*
X52040225Y-95955828D01*
X52040225Y-95955828D02*
X52183082Y-96027257D01*
X52183082Y-96027257D02*
X52254511Y-96170114D01*
X52254511Y-96170114D02*
X52254511Y-96312971D01*
X52254511Y-96312971D02*
X51540225Y-96455828D01*
D11*
X68144895Y-90565789D02*
X68944895Y-90375313D01*
X68944895Y-90375313D02*
X68373466Y-90222932D01*
X68373466Y-90222932D02*
X68944895Y-90070551D01*
X68944895Y-90070551D02*
X68144895Y-89880075D01*
X68944895Y-89118169D02*
X68563942Y-89384836D01*
X68944895Y-89575312D02*
X68144895Y-89575312D01*
X68144895Y-89575312D02*
X68144895Y-89270550D01*
X68144895Y-89270550D02*
X68182990Y-89194360D01*
X68182990Y-89194360D02*
X68221085Y-89156265D01*
X68221085Y-89156265D02*
X68297276Y-89118169D01*
X68297276Y-89118169D02*
X68411561Y-89118169D01*
X68411561Y-89118169D02*
X68487752Y-89156265D01*
X68487752Y-89156265D02*
X68525847Y-89194360D01*
X68525847Y-89194360D02*
X68563942Y-89270550D01*
X68563942Y-89270550D02*
X68563942Y-89575312D01*
X67922800Y-90600075D02*
X67922800Y-89045789D01*
X66404895Y-58163734D02*
X65604895Y-58163734D01*
X65604895Y-58163734D02*
X65604895Y-57973258D01*
X65604895Y-57973258D02*
X65642990Y-57858972D01*
X65642990Y-57858972D02*
X65719180Y-57782782D01*
X65719180Y-57782782D02*
X65795371Y-57744687D01*
X65795371Y-57744687D02*
X65947752Y-57706591D01*
X65947752Y-57706591D02*
X66062038Y-57706591D01*
X66062038Y-57706591D02*
X66214419Y-57744687D01*
X66214419Y-57744687D02*
X66290609Y-57782782D01*
X66290609Y-57782782D02*
X66366800Y-57858972D01*
X66366800Y-57858972D02*
X66404895Y-57973258D01*
X66404895Y-57973258D02*
X66404895Y-58163734D01*
X65985847Y-57097068D02*
X66023942Y-56982782D01*
X66023942Y-56982782D02*
X66062038Y-56944687D01*
X66062038Y-56944687D02*
X66138228Y-56906591D01*
X66138228Y-56906591D02*
X66252514Y-56906591D01*
X66252514Y-56906591D02*
X66328704Y-56944687D01*
X66328704Y-56944687D02*
X66366800Y-56982782D01*
X66366800Y-56982782D02*
X66404895Y-57058972D01*
X66404895Y-57058972D02*
X66404895Y-57363734D01*
X66404895Y-57363734D02*
X65604895Y-57363734D01*
X65604895Y-57363734D02*
X65604895Y-57097068D01*
X65604895Y-57097068D02*
X65642990Y-57020877D01*
X65642990Y-57020877D02*
X65681085Y-56982782D01*
X65681085Y-56982782D02*
X65757276Y-56944687D01*
X65757276Y-56944687D02*
X65833466Y-56944687D01*
X65833466Y-56944687D02*
X65909657Y-56982782D01*
X65909657Y-56982782D02*
X65947752Y-57020877D01*
X65947752Y-57020877D02*
X65985847Y-57097068D01*
X65985847Y-57097068D02*
X65985847Y-57363734D01*
X66404895Y-56563734D02*
X65604895Y-56563734D01*
X66404895Y-56182782D02*
X65604895Y-56182782D01*
X65604895Y-56182782D02*
X66404895Y-55725639D01*
X66404895Y-55725639D02*
X65604895Y-55725639D01*
X58784895Y-57706591D02*
X58403942Y-57973258D01*
X58784895Y-58163734D02*
X57984895Y-58163734D01*
X57984895Y-58163734D02*
X57984895Y-57858972D01*
X57984895Y-57858972D02*
X58022990Y-57782782D01*
X58022990Y-57782782D02*
X58061085Y-57744687D01*
X58061085Y-57744687D02*
X58137276Y-57706591D01*
X58137276Y-57706591D02*
X58251561Y-57706591D01*
X58251561Y-57706591D02*
X58327752Y-57744687D01*
X58327752Y-57744687D02*
X58365847Y-57782782D01*
X58365847Y-57782782D02*
X58403942Y-57858972D01*
X58403942Y-57858972D02*
X58403942Y-58163734D01*
X58022990Y-56944687D02*
X57984895Y-57020877D01*
X57984895Y-57020877D02*
X57984895Y-57135163D01*
X57984895Y-57135163D02*
X58022990Y-57249449D01*
X58022990Y-57249449D02*
X58099180Y-57325639D01*
X58099180Y-57325639D02*
X58175371Y-57363734D01*
X58175371Y-57363734D02*
X58327752Y-57401830D01*
X58327752Y-57401830D02*
X58442038Y-57401830D01*
X58442038Y-57401830D02*
X58594419Y-57363734D01*
X58594419Y-57363734D02*
X58670609Y-57325639D01*
X58670609Y-57325639D02*
X58746800Y-57249449D01*
X58746800Y-57249449D02*
X58784895Y-57135163D01*
X58784895Y-57135163D02*
X58784895Y-57058972D01*
X58784895Y-57058972D02*
X58746800Y-56944687D01*
X58746800Y-56944687D02*
X58708704Y-56906591D01*
X58708704Y-56906591D02*
X58442038Y-56906591D01*
X58442038Y-56906591D02*
X58442038Y-57058972D01*
X58365847Y-56297068D02*
X58403942Y-56182782D01*
X58403942Y-56182782D02*
X58442038Y-56144687D01*
X58442038Y-56144687D02*
X58518228Y-56106591D01*
X58518228Y-56106591D02*
X58632514Y-56106591D01*
X58632514Y-56106591D02*
X58708704Y-56144687D01*
X58708704Y-56144687D02*
X58746800Y-56182782D01*
X58746800Y-56182782D02*
X58784895Y-56258972D01*
X58784895Y-56258972D02*
X58784895Y-56563734D01*
X58784895Y-56563734D02*
X57984895Y-56563734D01*
X57984895Y-56563734D02*
X57984895Y-56297068D01*
X57984895Y-56297068D02*
X58022990Y-56220877D01*
X58022990Y-56220877D02*
X58061085Y-56182782D01*
X58061085Y-56182782D02*
X58137276Y-56144687D01*
X58137276Y-56144687D02*
X58213466Y-56144687D01*
X58213466Y-56144687D02*
X58289657Y-56182782D01*
X58289657Y-56182782D02*
X58327752Y-56220877D01*
X58327752Y-56220877D02*
X58365847Y-56297068D01*
X58365847Y-56297068D02*
X58365847Y-56563734D01*
D10*
X33680476Y-11578390D02*
X33604286Y-11540295D01*
X33604286Y-11540295D02*
X33490000Y-11540295D01*
X33490000Y-11540295D02*
X33375714Y-11578390D01*
X33375714Y-11578390D02*
X33299524Y-11654580D01*
X33299524Y-11654580D02*
X33261429Y-11730771D01*
X33261429Y-11730771D02*
X33223333Y-11883152D01*
X33223333Y-11883152D02*
X33223333Y-11997438D01*
X33223333Y-11997438D02*
X33261429Y-12149819D01*
X33261429Y-12149819D02*
X33299524Y-12226009D01*
X33299524Y-12226009D02*
X33375714Y-12302200D01*
X33375714Y-12302200D02*
X33490000Y-12340295D01*
X33490000Y-12340295D02*
X33566191Y-12340295D01*
X33566191Y-12340295D02*
X33680476Y-12302200D01*
X33680476Y-12302200D02*
X33718572Y-12264104D01*
X33718572Y-12264104D02*
X33718572Y-11997438D01*
X33718572Y-11997438D02*
X33566191Y-11997438D01*
X34061429Y-12340295D02*
X34061429Y-11540295D01*
X34061429Y-11540295D02*
X34518572Y-12340295D01*
X34518572Y-12340295D02*
X34518572Y-11540295D01*
X34899524Y-12340295D02*
X34899524Y-11540295D01*
X34899524Y-11540295D02*
X35090000Y-11540295D01*
X35090000Y-11540295D02*
X35204286Y-11578390D01*
X35204286Y-11578390D02*
X35280476Y-11654580D01*
X35280476Y-11654580D02*
X35318571Y-11730771D01*
X35318571Y-11730771D02*
X35356667Y-11883152D01*
X35356667Y-11883152D02*
X35356667Y-11997438D01*
X35356667Y-11997438D02*
X35318571Y-12149819D01*
X35318571Y-12149819D02*
X35280476Y-12226009D01*
X35280476Y-12226009D02*
X35204286Y-12302200D01*
X35204286Y-12302200D02*
X35090000Y-12340295D01*
X35090000Y-12340295D02*
X34899524Y-12340295D01*
D11*
X43544895Y-58163734D02*
X42744895Y-58163734D01*
X42744895Y-58163734D02*
X42744895Y-57973258D01*
X42744895Y-57973258D02*
X42782990Y-57858972D01*
X42782990Y-57858972D02*
X42859180Y-57782782D01*
X42859180Y-57782782D02*
X42935371Y-57744687D01*
X42935371Y-57744687D02*
X43087752Y-57706591D01*
X43087752Y-57706591D02*
X43202038Y-57706591D01*
X43202038Y-57706591D02*
X43354419Y-57744687D01*
X43354419Y-57744687D02*
X43430609Y-57782782D01*
X43430609Y-57782782D02*
X43506800Y-57858972D01*
X43506800Y-57858972D02*
X43544895Y-57973258D01*
X43544895Y-57973258D02*
X43544895Y-58163734D01*
X42744895Y-57439925D02*
X42744895Y-56906591D01*
X42744895Y-56906591D02*
X43544895Y-57249449D01*
X63636323Y-90261027D02*
X63636323Y-89880074D01*
X63864895Y-90337217D02*
X63064895Y-90070550D01*
X63064895Y-90070550D02*
X63864895Y-89803884D01*
X63864895Y-89118170D02*
X63864895Y-89575313D01*
X63864895Y-89346741D02*
X63064895Y-89346741D01*
X63064895Y-89346741D02*
X63179180Y-89422932D01*
X63179180Y-89422932D02*
X63255371Y-89499122D01*
X63255371Y-89499122D02*
X63293466Y-89575313D01*
D10*
X34502969Y-83735342D02*
X35188684Y-83735342D01*
X34845826Y-84935342D02*
X34845826Y-83735342D01*
X36102970Y-84935342D02*
X36102970Y-84306771D01*
X36102970Y-84306771D02*
X36045827Y-84192485D01*
X36045827Y-84192485D02*
X35931541Y-84135342D01*
X35931541Y-84135342D02*
X35702970Y-84135342D01*
X35702970Y-84135342D02*
X35588684Y-84192485D01*
X36102970Y-84878200D02*
X35988684Y-84935342D01*
X35988684Y-84935342D02*
X35702970Y-84935342D01*
X35702970Y-84935342D02*
X35588684Y-84878200D01*
X35588684Y-84878200D02*
X35531541Y-84763914D01*
X35531541Y-84763914D02*
X35531541Y-84649628D01*
X35531541Y-84649628D02*
X35588684Y-84535342D01*
X35588684Y-84535342D02*
X35702970Y-84478200D01*
X35702970Y-84478200D02*
X35988684Y-84478200D01*
X35988684Y-84478200D02*
X36102970Y-84421057D01*
X36674398Y-84135342D02*
X36674398Y-84935342D01*
X36674398Y-84249628D02*
X36731541Y-84192485D01*
X36731541Y-84192485D02*
X36845826Y-84135342D01*
X36845826Y-84135342D02*
X37017255Y-84135342D01*
X37017255Y-84135342D02*
X37131541Y-84192485D01*
X37131541Y-84192485D02*
X37188684Y-84306771D01*
X37188684Y-84306771D02*
X37188684Y-84935342D01*
X38274398Y-84135342D02*
X38274398Y-85106771D01*
X38274398Y-85106771D02*
X38217255Y-85221057D01*
X38217255Y-85221057D02*
X38160112Y-85278200D01*
X38160112Y-85278200D02*
X38045826Y-85335342D01*
X38045826Y-85335342D02*
X37874398Y-85335342D01*
X37874398Y-85335342D02*
X37760112Y-85278200D01*
X38274398Y-84878200D02*
X38160112Y-84935342D01*
X38160112Y-84935342D02*
X37931540Y-84935342D01*
X37931540Y-84935342D02*
X37817255Y-84878200D01*
X37817255Y-84878200D02*
X37760112Y-84821057D01*
X37760112Y-84821057D02*
X37702969Y-84706771D01*
X37702969Y-84706771D02*
X37702969Y-84363914D01*
X37702969Y-84363914D02*
X37760112Y-84249628D01*
X37760112Y-84249628D02*
X37817255Y-84192485D01*
X37817255Y-84192485D02*
X37931540Y-84135342D01*
X37931540Y-84135342D02*
X38160112Y-84135342D01*
X38160112Y-84135342D02*
X38274398Y-84192485D01*
X39760112Y-84935342D02*
X39760112Y-83735342D01*
X39760112Y-83735342D02*
X40445826Y-84935342D01*
X40445826Y-84935342D02*
X40445826Y-83735342D01*
X41531541Y-84935342D02*
X41531541Y-84306771D01*
X41531541Y-84306771D02*
X41474398Y-84192485D01*
X41474398Y-84192485D02*
X41360112Y-84135342D01*
X41360112Y-84135342D02*
X41131541Y-84135342D01*
X41131541Y-84135342D02*
X41017255Y-84192485D01*
X41531541Y-84878200D02*
X41417255Y-84935342D01*
X41417255Y-84935342D02*
X41131541Y-84935342D01*
X41131541Y-84935342D02*
X41017255Y-84878200D01*
X41017255Y-84878200D02*
X40960112Y-84763914D01*
X40960112Y-84763914D02*
X40960112Y-84649628D01*
X40960112Y-84649628D02*
X41017255Y-84535342D01*
X41017255Y-84535342D02*
X41131541Y-84478200D01*
X41131541Y-84478200D02*
X41417255Y-84478200D01*
X41417255Y-84478200D02*
X41531541Y-84421057D01*
X42102969Y-84135342D02*
X42102969Y-84935342D01*
X42102969Y-84249628D02*
X42160112Y-84192485D01*
X42160112Y-84192485D02*
X42274397Y-84135342D01*
X42274397Y-84135342D02*
X42445826Y-84135342D01*
X42445826Y-84135342D02*
X42560112Y-84192485D01*
X42560112Y-84192485D02*
X42617255Y-84306771D01*
X42617255Y-84306771D02*
X42617255Y-84935342D01*
X43360111Y-84935342D02*
X43245826Y-84878200D01*
X43245826Y-84878200D02*
X43188683Y-84821057D01*
X43188683Y-84821057D02*
X43131540Y-84706771D01*
X43131540Y-84706771D02*
X43131540Y-84363914D01*
X43131540Y-84363914D02*
X43188683Y-84249628D01*
X43188683Y-84249628D02*
X43245826Y-84192485D01*
X43245826Y-84192485D02*
X43360111Y-84135342D01*
X43360111Y-84135342D02*
X43531540Y-84135342D01*
X43531540Y-84135342D02*
X43645826Y-84192485D01*
X43645826Y-84192485D02*
X43702969Y-84249628D01*
X43702969Y-84249628D02*
X43760111Y-84363914D01*
X43760111Y-84363914D02*
X43760111Y-84706771D01*
X43760111Y-84706771D02*
X43702969Y-84821057D01*
X43702969Y-84821057D02*
X43645826Y-84878200D01*
X43645826Y-84878200D02*
X43531540Y-84935342D01*
X43531540Y-84935342D02*
X43360111Y-84935342D01*
X45131540Y-83849628D02*
X45188683Y-83792485D01*
X45188683Y-83792485D02*
X45302969Y-83735342D01*
X45302969Y-83735342D02*
X45588683Y-83735342D01*
X45588683Y-83735342D02*
X45702969Y-83792485D01*
X45702969Y-83792485D02*
X45760111Y-83849628D01*
X45760111Y-83849628D02*
X45817254Y-83963914D01*
X45817254Y-83963914D02*
X45817254Y-84078200D01*
X45817254Y-84078200D02*
X45760111Y-84249628D01*
X45760111Y-84249628D02*
X45074397Y-84935342D01*
X45074397Y-84935342D02*
X45817254Y-84935342D01*
X46560111Y-83735342D02*
X46674397Y-83735342D01*
X46674397Y-83735342D02*
X46788683Y-83792485D01*
X46788683Y-83792485D02*
X46845826Y-83849628D01*
X46845826Y-83849628D02*
X46902968Y-83963914D01*
X46902968Y-83963914D02*
X46960111Y-84192485D01*
X46960111Y-84192485D02*
X46960111Y-84478200D01*
X46960111Y-84478200D02*
X46902968Y-84706771D01*
X46902968Y-84706771D02*
X46845826Y-84821057D01*
X46845826Y-84821057D02*
X46788683Y-84878200D01*
X46788683Y-84878200D02*
X46674397Y-84935342D01*
X46674397Y-84935342D02*
X46560111Y-84935342D01*
X46560111Y-84935342D02*
X46445826Y-84878200D01*
X46445826Y-84878200D02*
X46388683Y-84821057D01*
X46388683Y-84821057D02*
X46331540Y-84706771D01*
X46331540Y-84706771D02*
X46274397Y-84478200D01*
X46274397Y-84478200D02*
X46274397Y-84192485D01*
X46274397Y-84192485D02*
X46331540Y-83963914D01*
X46331540Y-83963914D02*
X46388683Y-83849628D01*
X46388683Y-83849628D02*
X46445826Y-83792485D01*
X46445826Y-83792485D02*
X46560111Y-83735342D01*
X47474397Y-84935342D02*
X47474397Y-83735342D01*
X48160111Y-84935342D02*
X47645825Y-84249628D01*
X48160111Y-83735342D02*
X47474397Y-84421057D01*
X49474397Y-84135342D02*
X49702969Y-84935342D01*
X49702969Y-84935342D02*
X49931540Y-84363914D01*
X49931540Y-84363914D02*
X50160111Y-84935342D01*
X50160111Y-84935342D02*
X50388683Y-84135342D01*
X50845826Y-84935342D02*
X50845826Y-84135342D01*
X50845826Y-83735342D02*
X50788683Y-83792485D01*
X50788683Y-83792485D02*
X50845826Y-83849628D01*
X50845826Y-83849628D02*
X50902969Y-83792485D01*
X50902969Y-83792485D02*
X50845826Y-83735342D01*
X50845826Y-83735342D02*
X50845826Y-83849628D01*
X51245826Y-84135342D02*
X51702969Y-84135342D01*
X51417255Y-83735342D02*
X51417255Y-84763914D01*
X51417255Y-84763914D02*
X51474398Y-84878200D01*
X51474398Y-84878200D02*
X51588683Y-84935342D01*
X51588683Y-84935342D02*
X51702969Y-84935342D01*
X52102969Y-84935342D02*
X52102969Y-83735342D01*
X52617255Y-84935342D02*
X52617255Y-84306771D01*
X52617255Y-84306771D02*
X52560112Y-84192485D01*
X52560112Y-84192485D02*
X52445826Y-84135342D01*
X52445826Y-84135342D02*
X52274397Y-84135342D01*
X52274397Y-84135342D02*
X52160112Y-84192485D01*
X52160112Y-84192485D02*
X52102969Y-84249628D01*
X54674397Y-83735342D02*
X54102969Y-83735342D01*
X54102969Y-83735342D02*
X54045826Y-84306771D01*
X54045826Y-84306771D02*
X54102969Y-84249628D01*
X54102969Y-84249628D02*
X54217255Y-84192485D01*
X54217255Y-84192485D02*
X54502969Y-84192485D01*
X54502969Y-84192485D02*
X54617255Y-84249628D01*
X54617255Y-84249628D02*
X54674397Y-84306771D01*
X54674397Y-84306771D02*
X54731540Y-84421057D01*
X54731540Y-84421057D02*
X54731540Y-84706771D01*
X54731540Y-84706771D02*
X54674397Y-84821057D01*
X54674397Y-84821057D02*
X54617255Y-84878200D01*
X54617255Y-84878200D02*
X54502969Y-84935342D01*
X54502969Y-84935342D02*
X54217255Y-84935342D01*
X54217255Y-84935342D02*
X54102969Y-84878200D01*
X54102969Y-84878200D02*
X54045826Y-84821057D01*
X55074397Y-83735342D02*
X55474397Y-84935342D01*
X55474397Y-84935342D02*
X55874397Y-83735342D01*
X57017254Y-83735342D02*
X57702969Y-83735342D01*
X57360111Y-84935342D02*
X57360111Y-83735342D01*
X58274397Y-84935342D02*
X58160112Y-84878200D01*
X58160112Y-84878200D02*
X58102969Y-84821057D01*
X58102969Y-84821057D02*
X58045826Y-84706771D01*
X58045826Y-84706771D02*
X58045826Y-84363914D01*
X58045826Y-84363914D02*
X58102969Y-84249628D01*
X58102969Y-84249628D02*
X58160112Y-84192485D01*
X58160112Y-84192485D02*
X58274397Y-84135342D01*
X58274397Y-84135342D02*
X58445826Y-84135342D01*
X58445826Y-84135342D02*
X58560112Y-84192485D01*
X58560112Y-84192485D02*
X58617255Y-84249628D01*
X58617255Y-84249628D02*
X58674397Y-84363914D01*
X58674397Y-84363914D02*
X58674397Y-84706771D01*
X58674397Y-84706771D02*
X58617255Y-84821057D01*
X58617255Y-84821057D02*
X58560112Y-84878200D01*
X58560112Y-84878200D02*
X58445826Y-84935342D01*
X58445826Y-84935342D02*
X58274397Y-84935342D01*
X59360111Y-84935342D02*
X59245826Y-84878200D01*
X59245826Y-84878200D02*
X59188683Y-84763914D01*
X59188683Y-84763914D02*
X59188683Y-83735342D01*
X60274397Y-84878200D02*
X60160111Y-84935342D01*
X60160111Y-84935342D02*
X59931540Y-84935342D01*
X59931540Y-84935342D02*
X59817254Y-84878200D01*
X59817254Y-84878200D02*
X59760111Y-84763914D01*
X59760111Y-84763914D02*
X59760111Y-84306771D01*
X59760111Y-84306771D02*
X59817254Y-84192485D01*
X59817254Y-84192485D02*
X59931540Y-84135342D01*
X59931540Y-84135342D02*
X60160111Y-84135342D01*
X60160111Y-84135342D02*
X60274397Y-84192485D01*
X60274397Y-84192485D02*
X60331540Y-84306771D01*
X60331540Y-84306771D02*
X60331540Y-84421057D01*
X60331540Y-84421057D02*
X59760111Y-84535342D01*
X60845825Y-84935342D02*
X60845825Y-84135342D01*
X60845825Y-84363914D02*
X60902968Y-84249628D01*
X60902968Y-84249628D02*
X60960111Y-84192485D01*
X60960111Y-84192485D02*
X61074396Y-84135342D01*
X61074396Y-84135342D02*
X61188682Y-84135342D01*
X62102968Y-84935342D02*
X62102968Y-84306771D01*
X62102968Y-84306771D02*
X62045825Y-84192485D01*
X62045825Y-84192485D02*
X61931539Y-84135342D01*
X61931539Y-84135342D02*
X61702968Y-84135342D01*
X61702968Y-84135342D02*
X61588682Y-84192485D01*
X62102968Y-84878200D02*
X61988682Y-84935342D01*
X61988682Y-84935342D02*
X61702968Y-84935342D01*
X61702968Y-84935342D02*
X61588682Y-84878200D01*
X61588682Y-84878200D02*
X61531539Y-84763914D01*
X61531539Y-84763914D02*
X61531539Y-84649628D01*
X61531539Y-84649628D02*
X61588682Y-84535342D01*
X61588682Y-84535342D02*
X61702968Y-84478200D01*
X61702968Y-84478200D02*
X61988682Y-84478200D01*
X61988682Y-84478200D02*
X62102968Y-84421057D01*
X62674396Y-84135342D02*
X62674396Y-84935342D01*
X62674396Y-84249628D02*
X62731539Y-84192485D01*
X62731539Y-84192485D02*
X62845824Y-84135342D01*
X62845824Y-84135342D02*
X63017253Y-84135342D01*
X63017253Y-84135342D02*
X63131539Y-84192485D01*
X63131539Y-84192485D02*
X63188682Y-84306771D01*
X63188682Y-84306771D02*
X63188682Y-84935342D01*
X63588681Y-84135342D02*
X64045824Y-84135342D01*
X63760110Y-83735342D02*
X63760110Y-84763914D01*
X63760110Y-84763914D02*
X63817253Y-84878200D01*
X63817253Y-84878200D02*
X63931538Y-84935342D01*
X63931538Y-84935342D02*
X64045824Y-84935342D01*
X65360110Y-84935342D02*
X65360110Y-83735342D01*
X65931539Y-84135342D02*
X65931539Y-84935342D01*
X65931539Y-84249628D02*
X65988682Y-84192485D01*
X65988682Y-84192485D02*
X66102967Y-84135342D01*
X66102967Y-84135342D02*
X66274396Y-84135342D01*
X66274396Y-84135342D02*
X66388682Y-84192485D01*
X66388682Y-84192485D02*
X66445825Y-84306771D01*
X66445825Y-84306771D02*
X66445825Y-84935342D01*
X66845824Y-84135342D02*
X67302967Y-84135342D01*
X67017253Y-83735342D02*
X67017253Y-84763914D01*
X67017253Y-84763914D02*
X67074396Y-84878200D01*
X67074396Y-84878200D02*
X67188681Y-84935342D01*
X67188681Y-84935342D02*
X67302967Y-84935342D01*
X68160110Y-84878200D02*
X68045824Y-84935342D01*
X68045824Y-84935342D02*
X67817253Y-84935342D01*
X67817253Y-84935342D02*
X67702967Y-84878200D01*
X67702967Y-84878200D02*
X67645824Y-84763914D01*
X67645824Y-84763914D02*
X67645824Y-84306771D01*
X67645824Y-84306771D02*
X67702967Y-84192485D01*
X67702967Y-84192485D02*
X67817253Y-84135342D01*
X67817253Y-84135342D02*
X68045824Y-84135342D01*
X68045824Y-84135342D02*
X68160110Y-84192485D01*
X68160110Y-84192485D02*
X68217253Y-84306771D01*
X68217253Y-84306771D02*
X68217253Y-84421057D01*
X68217253Y-84421057D02*
X67645824Y-84535342D01*
X68731538Y-84935342D02*
X68731538Y-84135342D01*
X68731538Y-84363914D02*
X68788681Y-84249628D01*
X68788681Y-84249628D02*
X68845824Y-84192485D01*
X68845824Y-84192485D02*
X68960109Y-84135342D01*
X68960109Y-84135342D02*
X69074395Y-84135342D01*
X69302966Y-84135342D02*
X69760109Y-84135342D01*
X69474395Y-84935342D02*
X69474395Y-83906771D01*
X69474395Y-83906771D02*
X69531538Y-83792485D01*
X69531538Y-83792485D02*
X69645823Y-83735342D01*
X69645823Y-83735342D02*
X69760109Y-83735342D01*
X70674395Y-84935342D02*
X70674395Y-84306771D01*
X70674395Y-84306771D02*
X70617252Y-84192485D01*
X70617252Y-84192485D02*
X70502966Y-84135342D01*
X70502966Y-84135342D02*
X70274395Y-84135342D01*
X70274395Y-84135342D02*
X70160109Y-84192485D01*
X70674395Y-84878200D02*
X70560109Y-84935342D01*
X70560109Y-84935342D02*
X70274395Y-84935342D01*
X70274395Y-84935342D02*
X70160109Y-84878200D01*
X70160109Y-84878200D02*
X70102966Y-84763914D01*
X70102966Y-84763914D02*
X70102966Y-84649628D01*
X70102966Y-84649628D02*
X70160109Y-84535342D01*
X70160109Y-84535342D02*
X70274395Y-84478200D01*
X70274395Y-84478200D02*
X70560109Y-84478200D01*
X70560109Y-84478200D02*
X70674395Y-84421057D01*
X71760109Y-84878200D02*
X71645823Y-84935342D01*
X71645823Y-84935342D02*
X71417251Y-84935342D01*
X71417251Y-84935342D02*
X71302966Y-84878200D01*
X71302966Y-84878200D02*
X71245823Y-84821057D01*
X71245823Y-84821057D02*
X71188680Y-84706771D01*
X71188680Y-84706771D02*
X71188680Y-84363914D01*
X71188680Y-84363914D02*
X71245823Y-84249628D01*
X71245823Y-84249628D02*
X71302966Y-84192485D01*
X71302966Y-84192485D02*
X71417251Y-84135342D01*
X71417251Y-84135342D02*
X71645823Y-84135342D01*
X71645823Y-84135342D02*
X71760109Y-84192485D01*
X72731537Y-84878200D02*
X72617251Y-84935342D01*
X72617251Y-84935342D02*
X72388680Y-84935342D01*
X72388680Y-84935342D02*
X72274394Y-84878200D01*
X72274394Y-84878200D02*
X72217251Y-84763914D01*
X72217251Y-84763914D02*
X72217251Y-84306771D01*
X72217251Y-84306771D02*
X72274394Y-84192485D01*
X72274394Y-84192485D02*
X72388680Y-84135342D01*
X72388680Y-84135342D02*
X72617251Y-84135342D01*
X72617251Y-84135342D02*
X72731537Y-84192485D01*
X72731537Y-84192485D02*
X72788680Y-84306771D01*
X72788680Y-84306771D02*
X72788680Y-84421057D01*
X72788680Y-84421057D02*
X72217251Y-84535342D01*
D11*
X43316323Y-90261027D02*
X43316323Y-89880074D01*
X43544895Y-90337217D02*
X42744895Y-90070550D01*
X42744895Y-90070550D02*
X43544895Y-89803884D01*
X43544895Y-89499122D02*
X43544895Y-89346741D01*
X43544895Y-89346741D02*
X43506800Y-89270551D01*
X43506800Y-89270551D02*
X43468704Y-89232455D01*
X43468704Y-89232455D02*
X43354419Y-89156265D01*
X43354419Y-89156265D02*
X43202038Y-89118170D01*
X43202038Y-89118170D02*
X42897276Y-89118170D01*
X42897276Y-89118170D02*
X42821085Y-89156265D01*
X42821085Y-89156265D02*
X42782990Y-89194360D01*
X42782990Y-89194360D02*
X42744895Y-89270551D01*
X42744895Y-89270551D02*
X42744895Y-89422932D01*
X42744895Y-89422932D02*
X42782990Y-89499122D01*
X42782990Y-89499122D02*
X42821085Y-89537217D01*
X42821085Y-89537217D02*
X42897276Y-89575313D01*
X42897276Y-89575313D02*
X43087752Y-89575313D01*
X43087752Y-89575313D02*
X43163942Y-89537217D01*
X43163942Y-89537217D02*
X43202038Y-89499122D01*
X43202038Y-89499122D02*
X43240133Y-89422932D01*
X43240133Y-89422932D02*
X43240133Y-89270551D01*
X43240133Y-89270551D02*
X43202038Y-89194360D01*
X43202038Y-89194360D02*
X43163942Y-89156265D01*
X43163942Y-89156265D02*
X43087752Y-89118170D01*
D10*
X20656779Y-15109819D02*
X20656779Y-14109819D01*
X21228207Y-15109819D02*
X20799636Y-14538390D01*
X21228207Y-14109819D02*
X20656779Y-14681247D01*
D11*
X48624895Y-58163734D02*
X47824895Y-58163734D01*
X47824895Y-58163734D02*
X47824895Y-57973258D01*
X47824895Y-57973258D02*
X47862990Y-57858972D01*
X47862990Y-57858972D02*
X47939180Y-57782782D01*
X47939180Y-57782782D02*
X48015371Y-57744687D01*
X48015371Y-57744687D02*
X48167752Y-57706591D01*
X48167752Y-57706591D02*
X48282038Y-57706591D01*
X48282038Y-57706591D02*
X48434419Y-57744687D01*
X48434419Y-57744687D02*
X48510609Y-57782782D01*
X48510609Y-57782782D02*
X48586800Y-57858972D01*
X48586800Y-57858972D02*
X48624895Y-57973258D01*
X48624895Y-57973258D02*
X48624895Y-58163734D01*
X47901085Y-57401830D02*
X47862990Y-57363734D01*
X47862990Y-57363734D02*
X47824895Y-57287544D01*
X47824895Y-57287544D02*
X47824895Y-57097068D01*
X47824895Y-57097068D02*
X47862990Y-57020877D01*
X47862990Y-57020877D02*
X47901085Y-56982782D01*
X47901085Y-56982782D02*
X47977276Y-56944687D01*
X47977276Y-56944687D02*
X48053466Y-56944687D01*
X48053466Y-56944687D02*
X48167752Y-56982782D01*
X48167752Y-56982782D02*
X48624895Y-57439925D01*
X48624895Y-57439925D02*
X48624895Y-56944687D01*
X60562990Y-57744687D02*
X60524895Y-57820877D01*
X60524895Y-57820877D02*
X60524895Y-57935163D01*
X60524895Y-57935163D02*
X60562990Y-58049449D01*
X60562990Y-58049449D02*
X60639180Y-58125639D01*
X60639180Y-58125639D02*
X60715371Y-58163734D01*
X60715371Y-58163734D02*
X60867752Y-58201830D01*
X60867752Y-58201830D02*
X60982038Y-58201830D01*
X60982038Y-58201830D02*
X61134419Y-58163734D01*
X61134419Y-58163734D02*
X61210609Y-58125639D01*
X61210609Y-58125639D02*
X61286800Y-58049449D01*
X61286800Y-58049449D02*
X61324895Y-57935163D01*
X61324895Y-57935163D02*
X61324895Y-57858972D01*
X61324895Y-57858972D02*
X61286800Y-57744687D01*
X61286800Y-57744687D02*
X61248704Y-57706591D01*
X61248704Y-57706591D02*
X60982038Y-57706591D01*
X60982038Y-57706591D02*
X60982038Y-57858972D01*
X61324895Y-57363734D02*
X60524895Y-57363734D01*
X60524895Y-57363734D02*
X61324895Y-56906591D01*
X61324895Y-56906591D02*
X60524895Y-56906591D01*
X61324895Y-56525639D02*
X60524895Y-56525639D01*
X60524895Y-56525639D02*
X60524895Y-56335163D01*
X60524895Y-56335163D02*
X60562990Y-56220877D01*
X60562990Y-56220877D02*
X60639180Y-56144687D01*
X60639180Y-56144687D02*
X60715371Y-56106592D01*
X60715371Y-56106592D02*
X60867752Y-56068496D01*
X60867752Y-56068496D02*
X60982038Y-56068496D01*
X60982038Y-56068496D02*
X61134419Y-56106592D01*
X61134419Y-56106592D02*
X61210609Y-56144687D01*
X61210609Y-56144687D02*
X61286800Y-56220877D01*
X61286800Y-56220877D02*
X61324895Y-56335163D01*
X61324895Y-56335163D02*
X61324895Y-56525639D01*
X71738895Y-58163734D02*
X70938895Y-58163734D01*
X71319847Y-58163734D02*
X71319847Y-57706591D01*
X71738895Y-57706591D02*
X70938895Y-57706591D01*
X70938895Y-57173258D02*
X70938895Y-57020877D01*
X70938895Y-57020877D02*
X70976990Y-56944687D01*
X70976990Y-56944687D02*
X71053180Y-56868496D01*
X71053180Y-56868496D02*
X71205561Y-56830401D01*
X71205561Y-56830401D02*
X71472228Y-56830401D01*
X71472228Y-56830401D02*
X71624609Y-56868496D01*
X71624609Y-56868496D02*
X71700800Y-56944687D01*
X71700800Y-56944687D02*
X71738895Y-57020877D01*
X71738895Y-57020877D02*
X71738895Y-57173258D01*
X71738895Y-57173258D02*
X71700800Y-57249449D01*
X71700800Y-57249449D02*
X71624609Y-57325639D01*
X71624609Y-57325639D02*
X71472228Y-57363735D01*
X71472228Y-57363735D02*
X71205561Y-57363735D01*
X71205561Y-57363735D02*
X71053180Y-57325639D01*
X71053180Y-57325639D02*
X70976990Y-57249449D01*
X70976990Y-57249449D02*
X70938895Y-57173258D01*
X71738895Y-56106592D02*
X71738895Y-56487544D01*
X71738895Y-56487544D02*
X70938895Y-56487544D01*
X71738895Y-55839925D02*
X70938895Y-55839925D01*
X70938895Y-55839925D02*
X70938895Y-55649449D01*
X70938895Y-55649449D02*
X70976990Y-55535163D01*
X70976990Y-55535163D02*
X71053180Y-55458973D01*
X71053180Y-55458973D02*
X71129371Y-55420878D01*
X71129371Y-55420878D02*
X71281752Y-55382782D01*
X71281752Y-55382782D02*
X71396038Y-55382782D01*
X71396038Y-55382782D02*
X71548419Y-55420878D01*
X71548419Y-55420878D02*
X71624609Y-55458973D01*
X71624609Y-55458973D02*
X71700800Y-55535163D01*
X71700800Y-55535163D02*
X71738895Y-55649449D01*
X71738895Y-55649449D02*
X71738895Y-55839925D01*
D10*
X67658458Y-98035342D02*
X67372744Y-98035342D01*
X67372744Y-98035342D02*
X67372744Y-96321057D01*
X67372744Y-96321057D02*
X67658458Y-96321057D01*
X67944172Y-96435342D02*
X68629887Y-96435342D01*
X68287029Y-97635342D02*
X68287029Y-96435342D01*
X69029887Y-97635342D02*
X69029887Y-96435342D01*
X69029887Y-96435342D02*
X69715601Y-97635342D01*
X69715601Y-97635342D02*
X69715601Y-96435342D01*
X70229887Y-96549628D02*
X70287030Y-96492485D01*
X70287030Y-96492485D02*
X70401316Y-96435342D01*
X70401316Y-96435342D02*
X70687030Y-96435342D01*
X70687030Y-96435342D02*
X70801316Y-96492485D01*
X70801316Y-96492485D02*
X70858458Y-96549628D01*
X70858458Y-96549628D02*
X70915601Y-96663914D01*
X70915601Y-96663914D02*
X70915601Y-96778200D01*
X70915601Y-96778200D02*
X70858458Y-96949628D01*
X70858458Y-96949628D02*
X70172744Y-97635342D01*
X70172744Y-97635342D02*
X70915601Y-97635342D01*
X71658458Y-96435342D02*
X71772744Y-96435342D01*
X71772744Y-96435342D02*
X71887030Y-96492485D01*
X71887030Y-96492485D02*
X71944173Y-96549628D01*
X71944173Y-96549628D02*
X72001315Y-96663914D01*
X72001315Y-96663914D02*
X72058458Y-96892485D01*
X72058458Y-96892485D02*
X72058458Y-97178200D01*
X72058458Y-97178200D02*
X72001315Y-97406771D01*
X72001315Y-97406771D02*
X71944173Y-97521057D01*
X71944173Y-97521057D02*
X71887030Y-97578200D01*
X71887030Y-97578200D02*
X71772744Y-97635342D01*
X71772744Y-97635342D02*
X71658458Y-97635342D01*
X71658458Y-97635342D02*
X71544173Y-97578200D01*
X71544173Y-97578200D02*
X71487030Y-97521057D01*
X71487030Y-97521057D02*
X71429887Y-97406771D01*
X71429887Y-97406771D02*
X71372744Y-97178200D01*
X71372744Y-97178200D02*
X71372744Y-96892485D01*
X71372744Y-96892485D02*
X71429887Y-96663914D01*
X71429887Y-96663914D02*
X71487030Y-96549628D01*
X71487030Y-96549628D02*
X71544173Y-96492485D01*
X71544173Y-96492485D02*
X71658458Y-96435342D01*
X72572744Y-97635342D02*
X72572744Y-96435342D01*
X73258458Y-97635342D02*
X72744172Y-96949628D01*
X73258458Y-96435342D02*
X72572744Y-97121057D01*
X73944172Y-96949628D02*
X73829887Y-96892485D01*
X73829887Y-96892485D02*
X73772744Y-96835342D01*
X73772744Y-96835342D02*
X73715601Y-96721057D01*
X73715601Y-96721057D02*
X73715601Y-96663914D01*
X73715601Y-96663914D02*
X73772744Y-96549628D01*
X73772744Y-96549628D02*
X73829887Y-96492485D01*
X73829887Y-96492485D02*
X73944172Y-96435342D01*
X73944172Y-96435342D02*
X74172744Y-96435342D01*
X74172744Y-96435342D02*
X74287030Y-96492485D01*
X74287030Y-96492485D02*
X74344172Y-96549628D01*
X74344172Y-96549628D02*
X74401315Y-96663914D01*
X74401315Y-96663914D02*
X74401315Y-96721057D01*
X74401315Y-96721057D02*
X74344172Y-96835342D01*
X74344172Y-96835342D02*
X74287030Y-96892485D01*
X74287030Y-96892485D02*
X74172744Y-96949628D01*
X74172744Y-96949628D02*
X73944172Y-96949628D01*
X73944172Y-96949628D02*
X73829887Y-97006771D01*
X73829887Y-97006771D02*
X73772744Y-97063914D01*
X73772744Y-97063914D02*
X73715601Y-97178200D01*
X73715601Y-97178200D02*
X73715601Y-97406771D01*
X73715601Y-97406771D02*
X73772744Y-97521057D01*
X73772744Y-97521057D02*
X73829887Y-97578200D01*
X73829887Y-97578200D02*
X73944172Y-97635342D01*
X73944172Y-97635342D02*
X74172744Y-97635342D01*
X74172744Y-97635342D02*
X74287030Y-97578200D01*
X74287030Y-97578200D02*
X74344172Y-97521057D01*
X74344172Y-97521057D02*
X74401315Y-97406771D01*
X74401315Y-97406771D02*
X74401315Y-97178200D01*
X74401315Y-97178200D02*
X74344172Y-97063914D01*
X74344172Y-97063914D02*
X74287030Y-97006771D01*
X74287030Y-97006771D02*
X74172744Y-96949628D01*
X75144172Y-96435342D02*
X75258458Y-96435342D01*
X75258458Y-96435342D02*
X75372744Y-96492485D01*
X75372744Y-96492485D02*
X75429887Y-96549628D01*
X75429887Y-96549628D02*
X75487029Y-96663914D01*
X75487029Y-96663914D02*
X75544172Y-96892485D01*
X75544172Y-96892485D02*
X75544172Y-97178200D01*
X75544172Y-97178200D02*
X75487029Y-97406771D01*
X75487029Y-97406771D02*
X75429887Y-97521057D01*
X75429887Y-97521057D02*
X75372744Y-97578200D01*
X75372744Y-97578200D02*
X75258458Y-97635342D01*
X75258458Y-97635342D02*
X75144172Y-97635342D01*
X75144172Y-97635342D02*
X75029887Y-97578200D01*
X75029887Y-97578200D02*
X74972744Y-97521057D01*
X74972744Y-97521057D02*
X74915601Y-97406771D01*
X74915601Y-97406771D02*
X74858458Y-97178200D01*
X74858458Y-97178200D02*
X74858458Y-96892485D01*
X74858458Y-96892485D02*
X74915601Y-96663914D01*
X74915601Y-96663914D02*
X74972744Y-96549628D01*
X74972744Y-96549628D02*
X75029887Y-96492485D01*
X75029887Y-96492485D02*
X75144172Y-96435342D01*
X76229886Y-96949628D02*
X76115601Y-96892485D01*
X76115601Y-96892485D02*
X76058458Y-96835342D01*
X76058458Y-96835342D02*
X76001315Y-96721057D01*
X76001315Y-96721057D02*
X76001315Y-96663914D01*
X76001315Y-96663914D02*
X76058458Y-96549628D01*
X76058458Y-96549628D02*
X76115601Y-96492485D01*
X76115601Y-96492485D02*
X76229886Y-96435342D01*
X76229886Y-96435342D02*
X76458458Y-96435342D01*
X76458458Y-96435342D02*
X76572744Y-96492485D01*
X76572744Y-96492485D02*
X76629886Y-96549628D01*
X76629886Y-96549628D02*
X76687029Y-96663914D01*
X76687029Y-96663914D02*
X76687029Y-96721057D01*
X76687029Y-96721057D02*
X76629886Y-96835342D01*
X76629886Y-96835342D02*
X76572744Y-96892485D01*
X76572744Y-96892485D02*
X76458458Y-96949628D01*
X76458458Y-96949628D02*
X76229886Y-96949628D01*
X76229886Y-96949628D02*
X76115601Y-97006771D01*
X76115601Y-97006771D02*
X76058458Y-97063914D01*
X76058458Y-97063914D02*
X76001315Y-97178200D01*
X76001315Y-97178200D02*
X76001315Y-97406771D01*
X76001315Y-97406771D02*
X76058458Y-97521057D01*
X76058458Y-97521057D02*
X76115601Y-97578200D01*
X76115601Y-97578200D02*
X76229886Y-97635342D01*
X76229886Y-97635342D02*
X76458458Y-97635342D01*
X76458458Y-97635342D02*
X76572744Y-97578200D01*
X76572744Y-97578200D02*
X76629886Y-97521057D01*
X76629886Y-97521057D02*
X76687029Y-97406771D01*
X76687029Y-97406771D02*
X76687029Y-97178200D01*
X76687029Y-97178200D02*
X76629886Y-97063914D01*
X76629886Y-97063914D02*
X76572744Y-97006771D01*
X76572744Y-97006771D02*
X76458458Y-96949628D01*
X77429886Y-96435342D02*
X77544172Y-96435342D01*
X77544172Y-96435342D02*
X77658458Y-96492485D01*
X77658458Y-96492485D02*
X77715601Y-96549628D01*
X77715601Y-96549628D02*
X77772743Y-96663914D01*
X77772743Y-96663914D02*
X77829886Y-96892485D01*
X77829886Y-96892485D02*
X77829886Y-97178200D01*
X77829886Y-97178200D02*
X77772743Y-97406771D01*
X77772743Y-97406771D02*
X77715601Y-97521057D01*
X77715601Y-97521057D02*
X77658458Y-97578200D01*
X77658458Y-97578200D02*
X77544172Y-97635342D01*
X77544172Y-97635342D02*
X77429886Y-97635342D01*
X77429886Y-97635342D02*
X77315601Y-97578200D01*
X77315601Y-97578200D02*
X77258458Y-97521057D01*
X77258458Y-97521057D02*
X77201315Y-97406771D01*
X77201315Y-97406771D02*
X77144172Y-97178200D01*
X77144172Y-97178200D02*
X77144172Y-96892485D01*
X77144172Y-96892485D02*
X77201315Y-96663914D01*
X77201315Y-96663914D02*
X77258458Y-96549628D01*
X77258458Y-96549628D02*
X77315601Y-96492485D01*
X77315601Y-96492485D02*
X77429886Y-96435342D01*
X78344172Y-97635342D02*
X78344172Y-96435342D01*
X78344172Y-96435342D02*
X78744172Y-97292485D01*
X78744172Y-97292485D02*
X79144172Y-96435342D01*
X79144172Y-96435342D02*
X79144172Y-97635342D01*
X79715601Y-97006771D02*
X80115601Y-97006771D01*
X80287029Y-97635342D02*
X79715601Y-97635342D01*
X79715601Y-97635342D02*
X79715601Y-96435342D01*
X79715601Y-96435342D02*
X80287029Y-96435342D01*
X80801315Y-97635342D02*
X80801315Y-96435342D01*
X80801315Y-96435342D02*
X81201315Y-97292485D01*
X81201315Y-97292485D02*
X81601315Y-96435342D01*
X81601315Y-96435342D02*
X81601315Y-97635342D01*
X82058458Y-98035342D02*
X82344172Y-98035342D01*
X82344172Y-98035342D02*
X82344172Y-96321057D01*
X82344172Y-96321057D02*
X82058458Y-96321057D01*
X82972744Y-97635342D02*
X82972744Y-96835342D01*
X82972744Y-97063914D02*
X83029887Y-96949628D01*
X83029887Y-96949628D02*
X83087030Y-96892485D01*
X83087030Y-96892485D02*
X83201315Y-96835342D01*
X83201315Y-96835342D02*
X83315601Y-96835342D01*
X84172744Y-97578200D02*
X84058458Y-97635342D01*
X84058458Y-97635342D02*
X83829887Y-97635342D01*
X83829887Y-97635342D02*
X83715601Y-97578200D01*
X83715601Y-97578200D02*
X83658458Y-97463914D01*
X83658458Y-97463914D02*
X83658458Y-97006771D01*
X83658458Y-97006771D02*
X83715601Y-96892485D01*
X83715601Y-96892485D02*
X83829887Y-96835342D01*
X83829887Y-96835342D02*
X84058458Y-96835342D01*
X84058458Y-96835342D02*
X84172744Y-96892485D01*
X84172744Y-96892485D02*
X84229887Y-97006771D01*
X84229887Y-97006771D02*
X84229887Y-97121057D01*
X84229887Y-97121057D02*
X83658458Y-97235342D01*
X84629886Y-96835342D02*
X84915600Y-97635342D01*
X84915600Y-97635342D02*
X85201315Y-96835342D01*
X85658458Y-97521057D02*
X85715601Y-97578200D01*
X85715601Y-97578200D02*
X85658458Y-97635342D01*
X85658458Y-97635342D02*
X85601315Y-97578200D01*
X85601315Y-97578200D02*
X85658458Y-97521057D01*
X85658458Y-97521057D02*
X85658458Y-97635342D01*
X86858458Y-97635342D02*
X86172744Y-97635342D01*
X86515601Y-97635342D02*
X86515601Y-96435342D01*
X86515601Y-96435342D02*
X86401315Y-96606771D01*
X86401315Y-96606771D02*
X86287030Y-96721057D01*
X86287030Y-96721057D02*
X86172744Y-96778200D01*
X87372744Y-97521057D02*
X87429887Y-97578200D01*
X87429887Y-97578200D02*
X87372744Y-97635342D01*
X87372744Y-97635342D02*
X87315601Y-97578200D01*
X87315601Y-97578200D02*
X87372744Y-97521057D01*
X87372744Y-97521057D02*
X87372744Y-97635342D01*
X88572744Y-97635342D02*
X87887030Y-97635342D01*
X88229887Y-97635342D02*
X88229887Y-96435342D01*
X88229887Y-96435342D02*
X88115601Y-96606771D01*
X88115601Y-96606771D02*
X88001316Y-96721057D01*
X88001316Y-96721057D02*
X87887030Y-96778200D01*
D11*
X63064895Y-58239925D02*
X63064895Y-57744687D01*
X63064895Y-57744687D02*
X63369657Y-58011353D01*
X63369657Y-58011353D02*
X63369657Y-57897068D01*
X63369657Y-57897068D02*
X63407752Y-57820877D01*
X63407752Y-57820877D02*
X63445847Y-57782782D01*
X63445847Y-57782782D02*
X63522038Y-57744687D01*
X63522038Y-57744687D02*
X63712514Y-57744687D01*
X63712514Y-57744687D02*
X63788704Y-57782782D01*
X63788704Y-57782782D02*
X63826800Y-57820877D01*
X63826800Y-57820877D02*
X63864895Y-57897068D01*
X63864895Y-57897068D02*
X63864895Y-58125639D01*
X63864895Y-58125639D02*
X63826800Y-58201830D01*
X63826800Y-58201830D02*
X63788704Y-58239925D01*
X63064895Y-57516115D02*
X63864895Y-57249448D01*
X63864895Y-57249448D02*
X63064895Y-56982782D01*
X63064895Y-56792306D02*
X63064895Y-56297068D01*
X63064895Y-56297068D02*
X63369657Y-56563734D01*
X63369657Y-56563734D02*
X63369657Y-56449449D01*
X63369657Y-56449449D02*
X63407752Y-56373258D01*
X63407752Y-56373258D02*
X63445847Y-56335163D01*
X63445847Y-56335163D02*
X63522038Y-56297068D01*
X63522038Y-56297068D02*
X63712514Y-56297068D01*
X63712514Y-56297068D02*
X63788704Y-56335163D01*
X63788704Y-56335163D02*
X63826800Y-56373258D01*
X63826800Y-56373258D02*
X63864895Y-56449449D01*
X63864895Y-56449449D02*
X63864895Y-56678020D01*
X63864895Y-56678020D02*
X63826800Y-56754211D01*
X63826800Y-56754211D02*
X63788704Y-56792306D01*
X33308704Y-57706591D02*
X33346800Y-57744687D01*
X33346800Y-57744687D02*
X33384895Y-57858972D01*
X33384895Y-57858972D02*
X33384895Y-57935163D01*
X33384895Y-57935163D02*
X33346800Y-58049449D01*
X33346800Y-58049449D02*
X33270609Y-58125639D01*
X33270609Y-58125639D02*
X33194419Y-58163734D01*
X33194419Y-58163734D02*
X33042038Y-58201830D01*
X33042038Y-58201830D02*
X32927752Y-58201830D01*
X32927752Y-58201830D02*
X32775371Y-58163734D01*
X32775371Y-58163734D02*
X32699180Y-58125639D01*
X32699180Y-58125639D02*
X32622990Y-58049449D01*
X32622990Y-58049449D02*
X32584895Y-57935163D01*
X32584895Y-57935163D02*
X32584895Y-57858972D01*
X32584895Y-57858972D02*
X32622990Y-57744687D01*
X32622990Y-57744687D02*
X32661085Y-57706591D01*
X33384895Y-56982782D02*
X33384895Y-57363734D01*
X33384895Y-57363734D02*
X32584895Y-57363734D01*
X33384895Y-56716115D02*
X32584895Y-56716115D01*
X33384895Y-56258972D02*
X32927752Y-56601830D01*
X32584895Y-56258972D02*
X33042038Y-56716115D01*
X32661085Y-55954211D02*
X32622990Y-55916115D01*
X32622990Y-55916115D02*
X32584895Y-55839925D01*
X32584895Y-55839925D02*
X32584895Y-55649449D01*
X32584895Y-55649449D02*
X32622990Y-55573258D01*
X32622990Y-55573258D02*
X32661085Y-55535163D01*
X32661085Y-55535163D02*
X32737276Y-55497068D01*
X32737276Y-55497068D02*
X32813466Y-55497068D01*
X32813466Y-55497068D02*
X32927752Y-55535163D01*
X32927752Y-55535163D02*
X33384895Y-55992306D01*
X33384895Y-55992306D02*
X33384895Y-55497068D01*
X28076323Y-91022932D02*
X28076323Y-90641979D01*
X28304895Y-91099122D02*
X27504895Y-90832455D01*
X27504895Y-90832455D02*
X28304895Y-90565789D01*
X28304895Y-89880075D02*
X28304895Y-90337218D01*
X28304895Y-90108646D02*
X27504895Y-90108646D01*
X27504895Y-90108646D02*
X27619180Y-90184837D01*
X27619180Y-90184837D02*
X27695371Y-90261027D01*
X27695371Y-90261027D02*
X27733466Y-90337218D01*
X28304895Y-89118170D02*
X28304895Y-89575313D01*
X28304895Y-89346741D02*
X27504895Y-89346741D01*
X27504895Y-89346741D02*
X27619180Y-89422932D01*
X27619180Y-89422932D02*
X27695371Y-89499122D01*
X27695371Y-89499122D02*
X27733466Y-89575313D01*
D10*
X16243429Y-25497533D02*
X16852953Y-25497533D01*
X17614857Y-25002295D02*
X17233905Y-25002295D01*
X17233905Y-25002295D02*
X17195809Y-25383247D01*
X17195809Y-25383247D02*
X17233905Y-25345152D01*
X17233905Y-25345152D02*
X17310095Y-25307057D01*
X17310095Y-25307057D02*
X17500571Y-25307057D01*
X17500571Y-25307057D02*
X17576762Y-25345152D01*
X17576762Y-25345152D02*
X17614857Y-25383247D01*
X17614857Y-25383247D02*
X17652952Y-25459438D01*
X17652952Y-25459438D02*
X17652952Y-25649914D01*
X17652952Y-25649914D02*
X17614857Y-25726104D01*
X17614857Y-25726104D02*
X17576762Y-25764200D01*
X17576762Y-25764200D02*
X17500571Y-25802295D01*
X17500571Y-25802295D02*
X17310095Y-25802295D01*
X17310095Y-25802295D02*
X17233905Y-25764200D01*
X17233905Y-25764200D02*
X17195809Y-25726104D01*
X17881524Y-25002295D02*
X18148191Y-25802295D01*
X18148191Y-25802295D02*
X18414857Y-25002295D01*
D11*
X53476323Y-90261027D02*
X53476323Y-89880074D01*
X53704895Y-90337217D02*
X52904895Y-90070550D01*
X52904895Y-90070550D02*
X53704895Y-89803884D01*
X52904895Y-89156265D02*
X52904895Y-89537217D01*
X52904895Y-89537217D02*
X53285847Y-89575313D01*
X53285847Y-89575313D02*
X53247752Y-89537217D01*
X53247752Y-89537217D02*
X53209657Y-89461027D01*
X53209657Y-89461027D02*
X53209657Y-89270551D01*
X53209657Y-89270551D02*
X53247752Y-89194360D01*
X53247752Y-89194360D02*
X53285847Y-89156265D01*
X53285847Y-89156265D02*
X53362038Y-89118170D01*
X53362038Y-89118170D02*
X53552514Y-89118170D01*
X53552514Y-89118170D02*
X53628704Y-89156265D01*
X53628704Y-89156265D02*
X53666800Y-89194360D01*
X53666800Y-89194360D02*
X53704895Y-89270551D01*
X53704895Y-89270551D02*
X53704895Y-89461027D01*
X53704895Y-89461027D02*
X53666800Y-89537217D01*
X53666800Y-89537217D02*
X53628704Y-89575313D01*
X73262990Y-90794360D02*
X73224895Y-90870550D01*
X73224895Y-90870550D02*
X73224895Y-90984836D01*
X73224895Y-90984836D02*
X73262990Y-91099122D01*
X73262990Y-91099122D02*
X73339180Y-91175312D01*
X73339180Y-91175312D02*
X73415371Y-91213407D01*
X73415371Y-91213407D02*
X73567752Y-91251503D01*
X73567752Y-91251503D02*
X73682038Y-91251503D01*
X73682038Y-91251503D02*
X73834419Y-91213407D01*
X73834419Y-91213407D02*
X73910609Y-91175312D01*
X73910609Y-91175312D02*
X73986800Y-91099122D01*
X73986800Y-91099122D02*
X74024895Y-90984836D01*
X74024895Y-90984836D02*
X74024895Y-90908645D01*
X74024895Y-90908645D02*
X73986800Y-90794360D01*
X73986800Y-90794360D02*
X73948704Y-90756264D01*
X73948704Y-90756264D02*
X73682038Y-90756264D01*
X73682038Y-90756264D02*
X73682038Y-90908645D01*
X74024895Y-90413407D02*
X73224895Y-90413407D01*
X73224895Y-90413407D02*
X74024895Y-89956264D01*
X74024895Y-89956264D02*
X73224895Y-89956264D01*
X74024895Y-89575312D02*
X73224895Y-89575312D01*
X73224895Y-89575312D02*
X73224895Y-89384836D01*
X73224895Y-89384836D02*
X73262990Y-89270550D01*
X73262990Y-89270550D02*
X73339180Y-89194360D01*
X73339180Y-89194360D02*
X73415371Y-89156265D01*
X73415371Y-89156265D02*
X73567752Y-89118169D01*
X73567752Y-89118169D02*
X73682038Y-89118169D01*
X73682038Y-89118169D02*
X73834419Y-89156265D01*
X73834419Y-89156265D02*
X73910609Y-89194360D01*
X73910609Y-89194360D02*
X73986800Y-89270550D01*
X73986800Y-89270550D02*
X74024895Y-89384836D01*
X74024895Y-89384836D02*
X74024895Y-89575312D01*
X56206800Y-58201830D02*
X56244895Y-58087544D01*
X56244895Y-58087544D02*
X56244895Y-57897068D01*
X56244895Y-57897068D02*
X56206800Y-57820877D01*
X56206800Y-57820877D02*
X56168704Y-57782782D01*
X56168704Y-57782782D02*
X56092514Y-57744687D01*
X56092514Y-57744687D02*
X56016323Y-57744687D01*
X56016323Y-57744687D02*
X55940133Y-57782782D01*
X55940133Y-57782782D02*
X55902038Y-57820877D01*
X55902038Y-57820877D02*
X55863942Y-57897068D01*
X55863942Y-57897068D02*
X55825847Y-58049449D01*
X55825847Y-58049449D02*
X55787752Y-58125639D01*
X55787752Y-58125639D02*
X55749657Y-58163734D01*
X55749657Y-58163734D02*
X55673466Y-58201830D01*
X55673466Y-58201830D02*
X55597276Y-58201830D01*
X55597276Y-58201830D02*
X55521085Y-58163734D01*
X55521085Y-58163734D02*
X55482990Y-58125639D01*
X55482990Y-58125639D02*
X55444895Y-58049449D01*
X55444895Y-58049449D02*
X55444895Y-57858972D01*
X55444895Y-57858972D02*
X55482990Y-57744687D01*
X55863942Y-57249448D02*
X56244895Y-57249448D01*
X55444895Y-57516115D02*
X55863942Y-57249448D01*
X55863942Y-57249448D02*
X55444895Y-56982782D01*
X56244895Y-56716115D02*
X55444895Y-56716115D01*
X55444895Y-56716115D02*
X56244895Y-56258972D01*
X56244895Y-56258972D02*
X55444895Y-56258972D01*
X56168704Y-55420877D02*
X56206800Y-55458973D01*
X56206800Y-55458973D02*
X56244895Y-55573258D01*
X56244895Y-55573258D02*
X56244895Y-55649449D01*
X56244895Y-55649449D02*
X56206800Y-55763735D01*
X56206800Y-55763735D02*
X56130609Y-55839925D01*
X56130609Y-55839925D02*
X56054419Y-55878020D01*
X56054419Y-55878020D02*
X55902038Y-55916116D01*
X55902038Y-55916116D02*
X55787752Y-55916116D01*
X55787752Y-55916116D02*
X55635371Y-55878020D01*
X55635371Y-55878020D02*
X55559180Y-55839925D01*
X55559180Y-55839925D02*
X55482990Y-55763735D01*
X55482990Y-55763735D02*
X55444895Y-55649449D01*
X55444895Y-55649449D02*
X55444895Y-55573258D01*
X55444895Y-55573258D02*
X55482990Y-55458973D01*
X55482990Y-55458973D02*
X55521085Y-55420877D01*
X51164895Y-58163734D02*
X50364895Y-58163734D01*
X50364895Y-58163734D02*
X50364895Y-57973258D01*
X50364895Y-57973258D02*
X50402990Y-57858972D01*
X50402990Y-57858972D02*
X50479180Y-57782782D01*
X50479180Y-57782782D02*
X50555371Y-57744687D01*
X50555371Y-57744687D02*
X50707752Y-57706591D01*
X50707752Y-57706591D02*
X50822038Y-57706591D01*
X50822038Y-57706591D02*
X50974419Y-57744687D01*
X50974419Y-57744687D02*
X51050609Y-57782782D01*
X51050609Y-57782782D02*
X51126800Y-57858972D01*
X51126800Y-57858972D02*
X51164895Y-57973258D01*
X51164895Y-57973258D02*
X51164895Y-58163734D01*
X51164895Y-56944687D02*
X51164895Y-57401830D01*
X51164895Y-57173258D02*
X50364895Y-57173258D01*
X50364895Y-57173258D02*
X50479180Y-57249449D01*
X50479180Y-57249449D02*
X50555371Y-57325639D01*
X50555371Y-57325639D02*
X50593466Y-57401830D01*
X33156323Y-91022932D02*
X33156323Y-90641979D01*
X33384895Y-91099122D02*
X32584895Y-90832455D01*
X32584895Y-90832455D02*
X33384895Y-90565789D01*
X33384895Y-89880075D02*
X33384895Y-90337218D01*
X33384895Y-90108646D02*
X32584895Y-90108646D01*
X32584895Y-90108646D02*
X32699180Y-90184837D01*
X32699180Y-90184837D02*
X32775371Y-90261027D01*
X32775371Y-90261027D02*
X32813466Y-90337218D01*
X32851561Y-89194360D02*
X33384895Y-89194360D01*
X32546800Y-89384836D02*
X33118228Y-89575313D01*
X33118228Y-89575313D02*
X33118228Y-89080074D01*
X53704895Y-58163734D02*
X52904895Y-58163734D01*
X52904895Y-58163734D02*
X52904895Y-57973258D01*
X52904895Y-57973258D02*
X52942990Y-57858972D01*
X52942990Y-57858972D02*
X53019180Y-57782782D01*
X53019180Y-57782782D02*
X53095371Y-57744687D01*
X53095371Y-57744687D02*
X53247752Y-57706591D01*
X53247752Y-57706591D02*
X53362038Y-57706591D01*
X53362038Y-57706591D02*
X53514419Y-57744687D01*
X53514419Y-57744687D02*
X53590609Y-57782782D01*
X53590609Y-57782782D02*
X53666800Y-57858972D01*
X53666800Y-57858972D02*
X53704895Y-57973258D01*
X53704895Y-57973258D02*
X53704895Y-58163734D01*
X52904895Y-57211353D02*
X52904895Y-57135163D01*
X52904895Y-57135163D02*
X52942990Y-57058972D01*
X52942990Y-57058972D02*
X52981085Y-57020877D01*
X52981085Y-57020877D02*
X53057276Y-56982782D01*
X53057276Y-56982782D02*
X53209657Y-56944687D01*
X53209657Y-56944687D02*
X53400133Y-56944687D01*
X53400133Y-56944687D02*
X53552514Y-56982782D01*
X53552514Y-56982782D02*
X53628704Y-57020877D01*
X53628704Y-57020877D02*
X53666800Y-57058972D01*
X53666800Y-57058972D02*
X53704895Y-57135163D01*
X53704895Y-57135163D02*
X53704895Y-57211353D01*
X53704895Y-57211353D02*
X53666800Y-57287544D01*
X53666800Y-57287544D02*
X53628704Y-57325639D01*
X53628704Y-57325639D02*
X53552514Y-57363734D01*
X53552514Y-57363734D02*
X53400133Y-57401830D01*
X53400133Y-57401830D02*
X53209657Y-57401830D01*
X53209657Y-57401830D02*
X53057276Y-57363734D01*
X53057276Y-57363734D02*
X52981085Y-57325639D01*
X52981085Y-57325639D02*
X52942990Y-57287544D01*
X52942990Y-57287544D02*
X52904895Y-57211353D01*
X27542990Y-57744687D02*
X27504895Y-57820877D01*
X27504895Y-57820877D02*
X27504895Y-57935163D01*
X27504895Y-57935163D02*
X27542990Y-58049449D01*
X27542990Y-58049449D02*
X27619180Y-58125639D01*
X27619180Y-58125639D02*
X27695371Y-58163734D01*
X27695371Y-58163734D02*
X27847752Y-58201830D01*
X27847752Y-58201830D02*
X27962038Y-58201830D01*
X27962038Y-58201830D02*
X28114419Y-58163734D01*
X28114419Y-58163734D02*
X28190609Y-58125639D01*
X28190609Y-58125639D02*
X28266800Y-58049449D01*
X28266800Y-58049449D02*
X28304895Y-57935163D01*
X28304895Y-57935163D02*
X28304895Y-57858972D01*
X28304895Y-57858972D02*
X28266800Y-57744687D01*
X28266800Y-57744687D02*
X28228704Y-57706591D01*
X28228704Y-57706591D02*
X27962038Y-57706591D01*
X27962038Y-57706591D02*
X27962038Y-57858972D01*
X28304895Y-57363734D02*
X27504895Y-57363734D01*
X27504895Y-57363734D02*
X28304895Y-56906591D01*
X28304895Y-56906591D02*
X27504895Y-56906591D01*
X28304895Y-56525639D02*
X27504895Y-56525639D01*
X27504895Y-56525639D02*
X27504895Y-56335163D01*
X27504895Y-56335163D02*
X27542990Y-56220877D01*
X27542990Y-56220877D02*
X27619180Y-56144687D01*
X27619180Y-56144687D02*
X27695371Y-56106592D01*
X27695371Y-56106592D02*
X27847752Y-56068496D01*
X27847752Y-56068496D02*
X27962038Y-56068496D01*
X27962038Y-56068496D02*
X28114419Y-56106592D01*
X28114419Y-56106592D02*
X28190609Y-56144687D01*
X28190609Y-56144687D02*
X28266800Y-56220877D01*
X28266800Y-56220877D02*
X28304895Y-56335163D01*
X28304895Y-56335163D02*
X28304895Y-56525639D01*
D10*
X16343333Y-11884819D02*
X16010000Y-11408628D01*
X15771905Y-11884819D02*
X15771905Y-10884819D01*
X15771905Y-10884819D02*
X16152857Y-10884819D01*
X16152857Y-10884819D02*
X16248095Y-10932438D01*
X16248095Y-10932438D02*
X16295714Y-10980057D01*
X16295714Y-10980057D02*
X16343333Y-11075295D01*
X16343333Y-11075295D02*
X16343333Y-11218152D01*
X16343333Y-11218152D02*
X16295714Y-11313390D01*
X16295714Y-11313390D02*
X16248095Y-11361009D01*
X16248095Y-11361009D02*
X16152857Y-11408628D01*
X16152857Y-11408628D02*
X15771905Y-11408628D01*
X16676667Y-10884819D02*
X17295714Y-10884819D01*
X17295714Y-10884819D02*
X16962381Y-11265771D01*
X16962381Y-11265771D02*
X17105238Y-11265771D01*
X17105238Y-11265771D02*
X17200476Y-11313390D01*
X17200476Y-11313390D02*
X17248095Y-11361009D01*
X17248095Y-11361009D02*
X17295714Y-11456247D01*
X17295714Y-11456247D02*
X17295714Y-11694342D01*
X17295714Y-11694342D02*
X17248095Y-11789580D01*
X17248095Y-11789580D02*
X17200476Y-11837200D01*
X17200476Y-11837200D02*
X17105238Y-11884819D01*
X17105238Y-11884819D02*
X16819524Y-11884819D01*
X16819524Y-11884819D02*
X16724286Y-11837200D01*
X16724286Y-11837200D02*
X16676667Y-11789580D01*
X13231905Y-13916819D02*
X13231905Y-12916819D01*
X13231905Y-12916819D02*
X13470000Y-12916819D01*
X13470000Y-12916819D02*
X13612857Y-12964438D01*
X13612857Y-12964438D02*
X13708095Y-13059676D01*
X13708095Y-13059676D02*
X13755714Y-13154914D01*
X13755714Y-13154914D02*
X13803333Y-13345390D01*
X13803333Y-13345390D02*
X13803333Y-13488247D01*
X13803333Y-13488247D02*
X13755714Y-13678723D01*
X13755714Y-13678723D02*
X13708095Y-13773961D01*
X13708095Y-13773961D02*
X13612857Y-13869200D01*
X13612857Y-13869200D02*
X13470000Y-13916819D01*
X13470000Y-13916819D02*
X13231905Y-13916819D01*
X14184286Y-13012057D02*
X14231905Y-12964438D01*
X14231905Y-12964438D02*
X14327143Y-12916819D01*
X14327143Y-12916819D02*
X14565238Y-12916819D01*
X14565238Y-12916819D02*
X14660476Y-12964438D01*
X14660476Y-12964438D02*
X14708095Y-13012057D01*
X14708095Y-13012057D02*
X14755714Y-13107295D01*
X14755714Y-13107295D02*
X14755714Y-13202533D01*
X14755714Y-13202533D02*
X14708095Y-13345390D01*
X14708095Y-13345390D02*
X14136667Y-13916819D01*
X14136667Y-13916819D02*
X14755714Y-13916819D01*
X74763333Y-7979580D02*
X74715714Y-8027200D01*
X74715714Y-8027200D02*
X74572857Y-8074819D01*
X74572857Y-8074819D02*
X74477619Y-8074819D01*
X74477619Y-8074819D02*
X74334762Y-8027200D01*
X74334762Y-8027200D02*
X74239524Y-7931961D01*
X74239524Y-7931961D02*
X74191905Y-7836723D01*
X74191905Y-7836723D02*
X74144286Y-7646247D01*
X74144286Y-7646247D02*
X74144286Y-7503390D01*
X74144286Y-7503390D02*
X74191905Y-7312914D01*
X74191905Y-7312914D02*
X74239524Y-7217676D01*
X74239524Y-7217676D02*
X74334762Y-7122438D01*
X74334762Y-7122438D02*
X74477619Y-7074819D01*
X74477619Y-7074819D02*
X74572857Y-7074819D01*
X74572857Y-7074819D02*
X74715714Y-7122438D01*
X74715714Y-7122438D02*
X74763333Y-7170057D01*
X75668095Y-7074819D02*
X75191905Y-7074819D01*
X75191905Y-7074819D02*
X75144286Y-7551009D01*
X75144286Y-7551009D02*
X75191905Y-7503390D01*
X75191905Y-7503390D02*
X75287143Y-7455771D01*
X75287143Y-7455771D02*
X75525238Y-7455771D01*
X75525238Y-7455771D02*
X75620476Y-7503390D01*
X75620476Y-7503390D02*
X75668095Y-7551009D01*
X75668095Y-7551009D02*
X75715714Y-7646247D01*
X75715714Y-7646247D02*
X75715714Y-7884342D01*
X75715714Y-7884342D02*
X75668095Y-7979580D01*
X75668095Y-7979580D02*
X75620476Y-8027200D01*
X75620476Y-8027200D02*
X75525238Y-8074819D01*
X75525238Y-8074819D02*
X75287143Y-8074819D01*
X75287143Y-8074819D02*
X75191905Y-8027200D01*
X75191905Y-8027200D02*
X75144286Y-7979580D01*
X59523333Y-17504580D02*
X59475714Y-17552200D01*
X59475714Y-17552200D02*
X59332857Y-17599819D01*
X59332857Y-17599819D02*
X59237619Y-17599819D01*
X59237619Y-17599819D02*
X59094762Y-17552200D01*
X59094762Y-17552200D02*
X58999524Y-17456961D01*
X58999524Y-17456961D02*
X58951905Y-17361723D01*
X58951905Y-17361723D02*
X58904286Y-17171247D01*
X58904286Y-17171247D02*
X58904286Y-17028390D01*
X58904286Y-17028390D02*
X58951905Y-16837914D01*
X58951905Y-16837914D02*
X58999524Y-16742676D01*
X58999524Y-16742676D02*
X59094762Y-16647438D01*
X59094762Y-16647438D02*
X59237619Y-16599819D01*
X59237619Y-16599819D02*
X59332857Y-16599819D01*
X59332857Y-16599819D02*
X59475714Y-16647438D01*
X59475714Y-16647438D02*
X59523333Y-16695057D01*
X60094762Y-17028390D02*
X59999524Y-16980771D01*
X59999524Y-16980771D02*
X59951905Y-16933152D01*
X59951905Y-16933152D02*
X59904286Y-16837914D01*
X59904286Y-16837914D02*
X59904286Y-16790295D01*
X59904286Y-16790295D02*
X59951905Y-16695057D01*
X59951905Y-16695057D02*
X59999524Y-16647438D01*
X59999524Y-16647438D02*
X60094762Y-16599819D01*
X60094762Y-16599819D02*
X60285238Y-16599819D01*
X60285238Y-16599819D02*
X60380476Y-16647438D01*
X60380476Y-16647438D02*
X60428095Y-16695057D01*
X60428095Y-16695057D02*
X60475714Y-16790295D01*
X60475714Y-16790295D02*
X60475714Y-16837914D01*
X60475714Y-16837914D02*
X60428095Y-16933152D01*
X60428095Y-16933152D02*
X60380476Y-16980771D01*
X60380476Y-16980771D02*
X60285238Y-17028390D01*
X60285238Y-17028390D02*
X60094762Y-17028390D01*
X60094762Y-17028390D02*
X59999524Y-17076009D01*
X59999524Y-17076009D02*
X59951905Y-17123628D01*
X59951905Y-17123628D02*
X59904286Y-17218866D01*
X59904286Y-17218866D02*
X59904286Y-17409342D01*
X59904286Y-17409342D02*
X59951905Y-17504580D01*
X59951905Y-17504580D02*
X59999524Y-17552200D01*
X59999524Y-17552200D02*
X60094762Y-17599819D01*
X60094762Y-17599819D02*
X60285238Y-17599819D01*
X60285238Y-17599819D02*
X60380476Y-17552200D01*
X60380476Y-17552200D02*
X60428095Y-17504580D01*
X60428095Y-17504580D02*
X60475714Y-17409342D01*
X60475714Y-17409342D02*
X60475714Y-17218866D01*
X60475714Y-17218866D02*
X60428095Y-17123628D01*
X60428095Y-17123628D02*
X60380476Y-17076009D01*
X60380476Y-17076009D02*
X60285238Y-17028390D01*
X72223333Y-5439580D02*
X72175714Y-5487200D01*
X72175714Y-5487200D02*
X72032857Y-5534819D01*
X72032857Y-5534819D02*
X71937619Y-5534819D01*
X71937619Y-5534819D02*
X71794762Y-5487200D01*
X71794762Y-5487200D02*
X71699524Y-5391961D01*
X71699524Y-5391961D02*
X71651905Y-5296723D01*
X71651905Y-5296723D02*
X71604286Y-5106247D01*
X71604286Y-5106247D02*
X71604286Y-4963390D01*
X71604286Y-4963390D02*
X71651905Y-4772914D01*
X71651905Y-4772914D02*
X71699524Y-4677676D01*
X71699524Y-4677676D02*
X71794762Y-4582438D01*
X71794762Y-4582438D02*
X71937619Y-4534819D01*
X71937619Y-4534819D02*
X72032857Y-4534819D01*
X72032857Y-4534819D02*
X72175714Y-4582438D01*
X72175714Y-4582438D02*
X72223333Y-4630057D01*
X73080476Y-4534819D02*
X72890000Y-4534819D01*
X72890000Y-4534819D02*
X72794762Y-4582438D01*
X72794762Y-4582438D02*
X72747143Y-4630057D01*
X72747143Y-4630057D02*
X72651905Y-4772914D01*
X72651905Y-4772914D02*
X72604286Y-4963390D01*
X72604286Y-4963390D02*
X72604286Y-5344342D01*
X72604286Y-5344342D02*
X72651905Y-5439580D01*
X72651905Y-5439580D02*
X72699524Y-5487200D01*
X72699524Y-5487200D02*
X72794762Y-5534819D01*
X72794762Y-5534819D02*
X72985238Y-5534819D01*
X72985238Y-5534819D02*
X73080476Y-5487200D01*
X73080476Y-5487200D02*
X73128095Y-5439580D01*
X73128095Y-5439580D02*
X73175714Y-5344342D01*
X73175714Y-5344342D02*
X73175714Y-5106247D01*
X73175714Y-5106247D02*
X73128095Y-5011009D01*
X73128095Y-5011009D02*
X73080476Y-4963390D01*
X73080476Y-4963390D02*
X72985238Y-4915771D01*
X72985238Y-4915771D02*
X72794762Y-4915771D01*
X72794762Y-4915771D02*
X72699524Y-4963390D01*
X72699524Y-4963390D02*
X72651905Y-5011009D01*
X72651905Y-5011009D02*
X72604286Y-5106247D01*
X79194819Y-14136666D02*
X78718628Y-14469999D01*
X79194819Y-14708094D02*
X78194819Y-14708094D01*
X78194819Y-14708094D02*
X78194819Y-14327142D01*
X78194819Y-14327142D02*
X78242438Y-14231904D01*
X78242438Y-14231904D02*
X78290057Y-14184285D01*
X78290057Y-14184285D02*
X78385295Y-14136666D01*
X78385295Y-14136666D02*
X78528152Y-14136666D01*
X78528152Y-14136666D02*
X78623390Y-14184285D01*
X78623390Y-14184285D02*
X78671009Y-14231904D01*
X78671009Y-14231904D02*
X78718628Y-14327142D01*
X78718628Y-14327142D02*
X78718628Y-14708094D01*
X78528152Y-13279523D02*
X79194819Y-13279523D01*
X78147200Y-13517618D02*
X78861485Y-13755713D01*
X78861485Y-13755713D02*
X78861485Y-13136666D01*
X16343333Y-9344819D02*
X16010000Y-8868628D01*
X15771905Y-9344819D02*
X15771905Y-8344819D01*
X15771905Y-8344819D02*
X16152857Y-8344819D01*
X16152857Y-8344819D02*
X16248095Y-8392438D01*
X16248095Y-8392438D02*
X16295714Y-8440057D01*
X16295714Y-8440057D02*
X16343333Y-8535295D01*
X16343333Y-8535295D02*
X16343333Y-8678152D01*
X16343333Y-8678152D02*
X16295714Y-8773390D01*
X16295714Y-8773390D02*
X16248095Y-8821009D01*
X16248095Y-8821009D02*
X16152857Y-8868628D01*
X16152857Y-8868628D02*
X15771905Y-8868628D01*
X16724286Y-8440057D02*
X16771905Y-8392438D01*
X16771905Y-8392438D02*
X16867143Y-8344819D01*
X16867143Y-8344819D02*
X17105238Y-8344819D01*
X17105238Y-8344819D02*
X17200476Y-8392438D01*
X17200476Y-8392438D02*
X17248095Y-8440057D01*
X17248095Y-8440057D02*
X17295714Y-8535295D01*
X17295714Y-8535295D02*
X17295714Y-8630533D01*
X17295714Y-8630533D02*
X17248095Y-8773390D01*
X17248095Y-8773390D02*
X16676667Y-9344819D01*
X16676667Y-9344819D02*
X17295714Y-9344819D01*
X5744819Y-30424285D02*
X4744819Y-30424285D01*
X4744819Y-30424285D02*
X4744819Y-30043333D01*
X4744819Y-30043333D02*
X4792438Y-29948095D01*
X4792438Y-29948095D02*
X4840057Y-29900476D01*
X4840057Y-29900476D02*
X4935295Y-29852857D01*
X4935295Y-29852857D02*
X5078152Y-29852857D01*
X5078152Y-29852857D02*
X5173390Y-29900476D01*
X5173390Y-29900476D02*
X5221009Y-29948095D01*
X5221009Y-29948095D02*
X5268628Y-30043333D01*
X5268628Y-30043333D02*
X5268628Y-30424285D01*
X5697200Y-29471904D02*
X5744819Y-29329047D01*
X5744819Y-29329047D02*
X5744819Y-29090952D01*
X5744819Y-29090952D02*
X5697200Y-28995714D01*
X5697200Y-28995714D02*
X5649580Y-28948095D01*
X5649580Y-28948095D02*
X5554342Y-28900476D01*
X5554342Y-28900476D02*
X5459104Y-28900476D01*
X5459104Y-28900476D02*
X5363866Y-28948095D01*
X5363866Y-28948095D02*
X5316247Y-28995714D01*
X5316247Y-28995714D02*
X5268628Y-29090952D01*
X5268628Y-29090952D02*
X5221009Y-29281428D01*
X5221009Y-29281428D02*
X5173390Y-29376666D01*
X5173390Y-29376666D02*
X5125771Y-29424285D01*
X5125771Y-29424285D02*
X5030533Y-29471904D01*
X5030533Y-29471904D02*
X4935295Y-29471904D01*
X4935295Y-29471904D02*
X4840057Y-29424285D01*
X4840057Y-29424285D02*
X4792438Y-29376666D01*
X4792438Y-29376666D02*
X4744819Y-29281428D01*
X4744819Y-29281428D02*
X4744819Y-29043333D01*
X4744819Y-29043333D02*
X4792438Y-28900476D01*
X4840057Y-28519523D02*
X4792438Y-28471904D01*
X4792438Y-28471904D02*
X4744819Y-28376666D01*
X4744819Y-28376666D02*
X4744819Y-28138571D01*
X4744819Y-28138571D02*
X4792438Y-28043333D01*
X4792438Y-28043333D02*
X4840057Y-27995714D01*
X4840057Y-27995714D02*
X4935295Y-27948095D01*
X4935295Y-27948095D02*
X5030533Y-27948095D01*
X5030533Y-27948095D02*
X5173390Y-27995714D01*
X5173390Y-27995714D02*
X5744819Y-28567142D01*
X5744819Y-28567142D02*
X5744819Y-27948095D01*
X9112571Y-28918819D02*
X9683999Y-28918819D01*
X9398285Y-29918819D02*
X9398285Y-28918819D01*
X10303047Y-28918819D02*
X10303047Y-29633104D01*
X10303047Y-29633104D02*
X10255428Y-29775961D01*
X10255428Y-29775961D02*
X10160190Y-29871200D01*
X10160190Y-29871200D02*
X10017333Y-29918819D01*
X10017333Y-29918819D02*
X9922095Y-29918819D01*
X10684000Y-28918819D02*
X11350666Y-28918819D01*
X11350666Y-28918819D02*
X10922095Y-29918819D01*
X12160190Y-28918819D02*
X11969714Y-28918819D01*
X11969714Y-28918819D02*
X11874476Y-28966438D01*
X11874476Y-28966438D02*
X11826857Y-29014057D01*
X11826857Y-29014057D02*
X11731619Y-29156914D01*
X11731619Y-29156914D02*
X11684000Y-29347390D01*
X11684000Y-29347390D02*
X11684000Y-29728342D01*
X11684000Y-29728342D02*
X11731619Y-29823580D01*
X11731619Y-29823580D02*
X11779238Y-29871200D01*
X11779238Y-29871200D02*
X11874476Y-29918819D01*
X11874476Y-29918819D02*
X12064952Y-29918819D01*
X12064952Y-29918819D02*
X12160190Y-29871200D01*
X12160190Y-29871200D02*
X12207809Y-29823580D01*
X12207809Y-29823580D02*
X12255428Y-29728342D01*
X12255428Y-29728342D02*
X12255428Y-29490247D01*
X12255428Y-29490247D02*
X12207809Y-29395009D01*
X12207809Y-29395009D02*
X12160190Y-29347390D01*
X12160190Y-29347390D02*
X12064952Y-29299771D01*
X12064952Y-29299771D02*
X11874476Y-29299771D01*
X11874476Y-29299771D02*
X11779238Y-29347390D01*
X11779238Y-29347390D02*
X11731619Y-29395009D01*
X11731619Y-29395009D02*
X11684000Y-29490247D01*
X13112571Y-28918819D02*
X12922095Y-28918819D01*
X12922095Y-28918819D02*
X12826857Y-28966438D01*
X12826857Y-28966438D02*
X12779238Y-29014057D01*
X12779238Y-29014057D02*
X12684000Y-29156914D01*
X12684000Y-29156914D02*
X12636381Y-29347390D01*
X12636381Y-29347390D02*
X12636381Y-29728342D01*
X12636381Y-29728342D02*
X12684000Y-29823580D01*
X12684000Y-29823580D02*
X12731619Y-29871200D01*
X12731619Y-29871200D02*
X12826857Y-29918819D01*
X12826857Y-29918819D02*
X13017333Y-29918819D01*
X13017333Y-29918819D02*
X13112571Y-29871200D01*
X13112571Y-29871200D02*
X13160190Y-29823580D01*
X13160190Y-29823580D02*
X13207809Y-29728342D01*
X13207809Y-29728342D02*
X13207809Y-29490247D01*
X13207809Y-29490247D02*
X13160190Y-29395009D01*
X13160190Y-29395009D02*
X13112571Y-29347390D01*
X13112571Y-29347390D02*
X13017333Y-29299771D01*
X13017333Y-29299771D02*
X12826857Y-29299771D01*
X12826857Y-29299771D02*
X12731619Y-29347390D01*
X12731619Y-29347390D02*
X12684000Y-29395009D01*
X12684000Y-29395009D02*
X12636381Y-29490247D01*
X13826857Y-28918819D02*
X13922095Y-28918819D01*
X13922095Y-28918819D02*
X14017333Y-28966438D01*
X14017333Y-28966438D02*
X14064952Y-29014057D01*
X14064952Y-29014057D02*
X14112571Y-29109295D01*
X14112571Y-29109295D02*
X14160190Y-29299771D01*
X14160190Y-29299771D02*
X14160190Y-29537866D01*
X14160190Y-29537866D02*
X14112571Y-29728342D01*
X14112571Y-29728342D02*
X14064952Y-29823580D01*
X14064952Y-29823580D02*
X14017333Y-29871200D01*
X14017333Y-29871200D02*
X13922095Y-29918819D01*
X13922095Y-29918819D02*
X13826857Y-29918819D01*
X13826857Y-29918819D02*
X13731619Y-29871200D01*
X13731619Y-29871200D02*
X13684000Y-29823580D01*
X13684000Y-29823580D02*
X13636381Y-29728342D01*
X13636381Y-29728342D02*
X13588762Y-29537866D01*
X13588762Y-29537866D02*
X13588762Y-29299771D01*
X13588762Y-29299771D02*
X13636381Y-29109295D01*
X13636381Y-29109295D02*
X13684000Y-29014057D01*
X13684000Y-29014057D02*
X13731619Y-28966438D01*
X13731619Y-28966438D02*
X13826857Y-28918819D01*
X41663333Y-10519580D02*
X41615714Y-10567200D01*
X41615714Y-10567200D02*
X41472857Y-10614819D01*
X41472857Y-10614819D02*
X41377619Y-10614819D01*
X41377619Y-10614819D02*
X41234762Y-10567200D01*
X41234762Y-10567200D02*
X41139524Y-10471961D01*
X41139524Y-10471961D02*
X41091905Y-10376723D01*
X41091905Y-10376723D02*
X41044286Y-10186247D01*
X41044286Y-10186247D02*
X41044286Y-10043390D01*
X41044286Y-10043390D02*
X41091905Y-9852914D01*
X41091905Y-9852914D02*
X41139524Y-9757676D01*
X41139524Y-9757676D02*
X41234762Y-9662438D01*
X41234762Y-9662438D02*
X41377619Y-9614819D01*
X41377619Y-9614819D02*
X41472857Y-9614819D01*
X41472857Y-9614819D02*
X41615714Y-9662438D01*
X41615714Y-9662438D02*
X41663333Y-9710057D01*
X42044286Y-9710057D02*
X42091905Y-9662438D01*
X42091905Y-9662438D02*
X42187143Y-9614819D01*
X42187143Y-9614819D02*
X42425238Y-9614819D01*
X42425238Y-9614819D02*
X42520476Y-9662438D01*
X42520476Y-9662438D02*
X42568095Y-9710057D01*
X42568095Y-9710057D02*
X42615714Y-9805295D01*
X42615714Y-9805295D02*
X42615714Y-9900533D01*
X42615714Y-9900533D02*
X42568095Y-10043390D01*
X42568095Y-10043390D02*
X41996667Y-10614819D01*
X41996667Y-10614819D02*
X42615714Y-10614819D01*
X22314819Y-87963333D02*
X23029104Y-87963333D01*
X23029104Y-87963333D02*
X23171961Y-88010952D01*
X23171961Y-88010952D02*
X23267200Y-88106190D01*
X23267200Y-88106190D02*
X23314819Y-88249047D01*
X23314819Y-88249047D02*
X23314819Y-88344285D01*
X22410057Y-87534761D02*
X22362438Y-87487142D01*
X22362438Y-87487142D02*
X22314819Y-87391904D01*
X22314819Y-87391904D02*
X22314819Y-87153809D01*
X22314819Y-87153809D02*
X22362438Y-87058571D01*
X22362438Y-87058571D02*
X22410057Y-87010952D01*
X22410057Y-87010952D02*
X22505295Y-86963333D01*
X22505295Y-86963333D02*
X22600533Y-86963333D01*
X22600533Y-86963333D02*
X22743390Y-87010952D01*
X22743390Y-87010952D02*
X23314819Y-87582380D01*
X23314819Y-87582380D02*
X23314819Y-86963333D01*
X61684819Y-14731904D02*
X62494342Y-14731904D01*
X62494342Y-14731904D02*
X62589580Y-14684285D01*
X62589580Y-14684285D02*
X62637200Y-14636666D01*
X62637200Y-14636666D02*
X62684819Y-14541428D01*
X62684819Y-14541428D02*
X62684819Y-14350952D01*
X62684819Y-14350952D02*
X62637200Y-14255714D01*
X62637200Y-14255714D02*
X62589580Y-14208095D01*
X62589580Y-14208095D02*
X62494342Y-14160476D01*
X62494342Y-14160476D02*
X61684819Y-14160476D01*
X62684819Y-13160476D02*
X62684819Y-13731904D01*
X62684819Y-13446190D02*
X61684819Y-13446190D01*
X61684819Y-13446190D02*
X61827676Y-13541428D01*
X61827676Y-13541428D02*
X61922914Y-13636666D01*
X61922914Y-13636666D02*
X61970533Y-13731904D01*
X65603810Y-14678819D02*
X65603810Y-13678819D01*
X65603810Y-13678819D02*
X65937143Y-14393104D01*
X65937143Y-14393104D02*
X66270476Y-13678819D01*
X66270476Y-13678819D02*
X66270476Y-14678819D01*
X66746667Y-14678819D02*
X66746667Y-13678819D01*
X67794285Y-14583580D02*
X67746666Y-14631200D01*
X67746666Y-14631200D02*
X67603809Y-14678819D01*
X67603809Y-14678819D02*
X67508571Y-14678819D01*
X67508571Y-14678819D02*
X67365714Y-14631200D01*
X67365714Y-14631200D02*
X67270476Y-14535961D01*
X67270476Y-14535961D02*
X67222857Y-14440723D01*
X67222857Y-14440723D02*
X67175238Y-14250247D01*
X67175238Y-14250247D02*
X67175238Y-14107390D01*
X67175238Y-14107390D02*
X67222857Y-13916914D01*
X67222857Y-13916914D02*
X67270476Y-13821676D01*
X67270476Y-13821676D02*
X67365714Y-13726438D01*
X67365714Y-13726438D02*
X67508571Y-13678819D01*
X67508571Y-13678819D02*
X67603809Y-13678819D01*
X67603809Y-13678819D02*
X67746666Y-13726438D01*
X67746666Y-13726438D02*
X67794285Y-13774057D01*
X68651428Y-14012152D02*
X68651428Y-14678819D01*
X68413333Y-13631200D02*
X68175238Y-14345485D01*
X68175238Y-14345485D02*
X68794285Y-14345485D01*
X69603809Y-14012152D02*
X69603809Y-14678819D01*
X69365714Y-13631200D02*
X69127619Y-14345485D01*
X69127619Y-14345485D02*
X69746666Y-14345485D01*
X70080000Y-13774057D02*
X70127619Y-13726438D01*
X70127619Y-13726438D02*
X70222857Y-13678819D01*
X70222857Y-13678819D02*
X70460952Y-13678819D01*
X70460952Y-13678819D02*
X70556190Y-13726438D01*
X70556190Y-13726438D02*
X70603809Y-13774057D01*
X70603809Y-13774057D02*
X70651428Y-13869295D01*
X70651428Y-13869295D02*
X70651428Y-13964533D01*
X70651428Y-13964533D02*
X70603809Y-14107390D01*
X70603809Y-14107390D02*
X70032381Y-14678819D01*
X70032381Y-14678819D02*
X70651428Y-14678819D01*
X70984762Y-13678819D02*
X71651428Y-13678819D01*
X71651428Y-13678819D02*
X71222857Y-14678819D01*
X18374819Y-33781904D02*
X19184342Y-33781904D01*
X19184342Y-33781904D02*
X19279580Y-33734285D01*
X19279580Y-33734285D02*
X19327200Y-33686666D01*
X19327200Y-33686666D02*
X19374819Y-33591428D01*
X19374819Y-33591428D02*
X19374819Y-33400952D01*
X19374819Y-33400952D02*
X19327200Y-33305714D01*
X19327200Y-33305714D02*
X19279580Y-33258095D01*
X19279580Y-33258095D02*
X19184342Y-33210476D01*
X19184342Y-33210476D02*
X18374819Y-33210476D01*
X18470057Y-32781904D02*
X18422438Y-32734285D01*
X18422438Y-32734285D02*
X18374819Y-32639047D01*
X18374819Y-32639047D02*
X18374819Y-32400952D01*
X18374819Y-32400952D02*
X18422438Y-32305714D01*
X18422438Y-32305714D02*
X18470057Y-32258095D01*
X18470057Y-32258095D02*
X18565295Y-32210476D01*
X18565295Y-32210476D02*
X18660533Y-32210476D01*
X18660533Y-32210476D02*
X18803390Y-32258095D01*
X18803390Y-32258095D02*
X19374819Y-32829523D01*
X19374819Y-32829523D02*
X19374819Y-32210476D01*
X86751390Y-35051809D02*
X86703771Y-35147047D01*
X86703771Y-35147047D02*
X86656152Y-35194666D01*
X86656152Y-35194666D02*
X86560914Y-35242285D01*
X86560914Y-35242285D02*
X86513295Y-35242285D01*
X86513295Y-35242285D02*
X86418057Y-35194666D01*
X86418057Y-35194666D02*
X86370438Y-35147047D01*
X86370438Y-35147047D02*
X86322819Y-35051809D01*
X86322819Y-35051809D02*
X86322819Y-34861333D01*
X86322819Y-34861333D02*
X86370438Y-34766095D01*
X86370438Y-34766095D02*
X86418057Y-34718476D01*
X86418057Y-34718476D02*
X86513295Y-34670857D01*
X86513295Y-34670857D02*
X86560914Y-34670857D01*
X86560914Y-34670857D02*
X86656152Y-34718476D01*
X86656152Y-34718476D02*
X86703771Y-34766095D01*
X86703771Y-34766095D02*
X86751390Y-34861333D01*
X86751390Y-34861333D02*
X86751390Y-35051809D01*
X86751390Y-35051809D02*
X86799009Y-35147047D01*
X86799009Y-35147047D02*
X86846628Y-35194666D01*
X86846628Y-35194666D02*
X86941866Y-35242285D01*
X86941866Y-35242285D02*
X87132342Y-35242285D01*
X87132342Y-35242285D02*
X87227580Y-35194666D01*
X87227580Y-35194666D02*
X87275200Y-35147047D01*
X87275200Y-35147047D02*
X87322819Y-35051809D01*
X87322819Y-35051809D02*
X87322819Y-34861333D01*
X87322819Y-34861333D02*
X87275200Y-34766095D01*
X87275200Y-34766095D02*
X87227580Y-34718476D01*
X87227580Y-34718476D02*
X87132342Y-34670857D01*
X87132342Y-34670857D02*
X86941866Y-34670857D01*
X86941866Y-34670857D02*
X86846628Y-34718476D01*
X86846628Y-34718476D02*
X86799009Y-34766095D01*
X86799009Y-34766095D02*
X86751390Y-34861333D01*
X86322819Y-34051809D02*
X86322819Y-33956571D01*
X86322819Y-33956571D02*
X86370438Y-33861333D01*
X86370438Y-33861333D02*
X86418057Y-33813714D01*
X86418057Y-33813714D02*
X86513295Y-33766095D01*
X86513295Y-33766095D02*
X86703771Y-33718476D01*
X86703771Y-33718476D02*
X86941866Y-33718476D01*
X86941866Y-33718476D02*
X87132342Y-33766095D01*
X87132342Y-33766095D02*
X87227580Y-33813714D01*
X87227580Y-33813714D02*
X87275200Y-33861333D01*
X87275200Y-33861333D02*
X87322819Y-33956571D01*
X87322819Y-33956571D02*
X87322819Y-34051809D01*
X87322819Y-34051809D02*
X87275200Y-34147047D01*
X87275200Y-34147047D02*
X87227580Y-34194666D01*
X87227580Y-34194666D02*
X87132342Y-34242285D01*
X87132342Y-34242285D02*
X86941866Y-34289904D01*
X86941866Y-34289904D02*
X86703771Y-34289904D01*
X86703771Y-34289904D02*
X86513295Y-34242285D01*
X86513295Y-34242285D02*
X86418057Y-34194666D01*
X86418057Y-34194666D02*
X86370438Y-34147047D01*
X86370438Y-34147047D02*
X86322819Y-34051809D01*
X86751390Y-33147047D02*
X86703771Y-33242285D01*
X86703771Y-33242285D02*
X86656152Y-33289904D01*
X86656152Y-33289904D02*
X86560914Y-33337523D01*
X86560914Y-33337523D02*
X86513295Y-33337523D01*
X86513295Y-33337523D02*
X86418057Y-33289904D01*
X86418057Y-33289904D02*
X86370438Y-33242285D01*
X86370438Y-33242285D02*
X86322819Y-33147047D01*
X86322819Y-33147047D02*
X86322819Y-32956571D01*
X86322819Y-32956571D02*
X86370438Y-32861333D01*
X86370438Y-32861333D02*
X86418057Y-32813714D01*
X86418057Y-32813714D02*
X86513295Y-32766095D01*
X86513295Y-32766095D02*
X86560914Y-32766095D01*
X86560914Y-32766095D02*
X86656152Y-32813714D01*
X86656152Y-32813714D02*
X86703771Y-32861333D01*
X86703771Y-32861333D02*
X86751390Y-32956571D01*
X86751390Y-32956571D02*
X86751390Y-33147047D01*
X86751390Y-33147047D02*
X86799009Y-33242285D01*
X86799009Y-33242285D02*
X86846628Y-33289904D01*
X86846628Y-33289904D02*
X86941866Y-33337523D01*
X86941866Y-33337523D02*
X87132342Y-33337523D01*
X87132342Y-33337523D02*
X87227580Y-33289904D01*
X87227580Y-33289904D02*
X87275200Y-33242285D01*
X87275200Y-33242285D02*
X87322819Y-33147047D01*
X87322819Y-33147047D02*
X87322819Y-32956571D01*
X87322819Y-32956571D02*
X87275200Y-32861333D01*
X87275200Y-32861333D02*
X87227580Y-32813714D01*
X87227580Y-32813714D02*
X87132342Y-32766095D01*
X87132342Y-32766095D02*
X86941866Y-32766095D01*
X86941866Y-32766095D02*
X86846628Y-32813714D01*
X86846628Y-32813714D02*
X86799009Y-32861333D01*
X86799009Y-32861333D02*
X86751390Y-32956571D01*
X86322819Y-32147047D02*
X86322819Y-32051809D01*
X86322819Y-32051809D02*
X86370438Y-31956571D01*
X86370438Y-31956571D02*
X86418057Y-31908952D01*
X86418057Y-31908952D02*
X86513295Y-31861333D01*
X86513295Y-31861333D02*
X86703771Y-31813714D01*
X86703771Y-31813714D02*
X86941866Y-31813714D01*
X86941866Y-31813714D02*
X87132342Y-31861333D01*
X87132342Y-31861333D02*
X87227580Y-31908952D01*
X87227580Y-31908952D02*
X87275200Y-31956571D01*
X87275200Y-31956571D02*
X87322819Y-32051809D01*
X87322819Y-32051809D02*
X87322819Y-32147047D01*
X87322819Y-32147047D02*
X87275200Y-32242285D01*
X87275200Y-32242285D02*
X87227580Y-32289904D01*
X87227580Y-32289904D02*
X87132342Y-32337523D01*
X87132342Y-32337523D02*
X86941866Y-32385142D01*
X86941866Y-32385142D02*
X86703771Y-32385142D01*
X86703771Y-32385142D02*
X86513295Y-32337523D01*
X86513295Y-32337523D02*
X86418057Y-32289904D01*
X86418057Y-32289904D02*
X86370438Y-32242285D01*
X86370438Y-32242285D02*
X86322819Y-32147047D01*
X22524819Y-73993333D02*
X23239104Y-73993333D01*
X23239104Y-73993333D02*
X23381961Y-74040952D01*
X23381961Y-74040952D02*
X23477200Y-74136190D01*
X23477200Y-74136190D02*
X23524819Y-74279047D01*
X23524819Y-74279047D02*
X23524819Y-74374285D01*
X23524819Y-72993333D02*
X23524819Y-73564761D01*
X23524819Y-73279047D02*
X22524819Y-73279047D01*
X22524819Y-73279047D02*
X22667676Y-73374285D01*
X22667676Y-73374285D02*
X22762914Y-73469523D01*
X22762914Y-73469523D02*
X22810533Y-73564761D01*
X18311905Y-13916819D02*
X18311905Y-12916819D01*
X18311905Y-12916819D02*
X18550000Y-12916819D01*
X18550000Y-12916819D02*
X18692857Y-12964438D01*
X18692857Y-12964438D02*
X18788095Y-13059676D01*
X18788095Y-13059676D02*
X18835714Y-13154914D01*
X18835714Y-13154914D02*
X18883333Y-13345390D01*
X18883333Y-13345390D02*
X18883333Y-13488247D01*
X18883333Y-13488247D02*
X18835714Y-13678723D01*
X18835714Y-13678723D02*
X18788095Y-13773961D01*
X18788095Y-13773961D02*
X18692857Y-13869200D01*
X18692857Y-13869200D02*
X18550000Y-13916819D01*
X18550000Y-13916819D02*
X18311905Y-13916819D01*
X19835714Y-13916819D02*
X19264286Y-13916819D01*
X19550000Y-13916819D02*
X19550000Y-12916819D01*
X19550000Y-12916819D02*
X19454762Y-13059676D01*
X19454762Y-13059676D02*
X19359524Y-13154914D01*
X19359524Y-13154914D02*
X19264286Y-13202533D01*
X71699523Y-47444819D02*
X71366190Y-46968628D01*
X71128095Y-47444819D02*
X71128095Y-46444819D01*
X71128095Y-46444819D02*
X71509047Y-46444819D01*
X71509047Y-46444819D02*
X71604285Y-46492438D01*
X71604285Y-46492438D02*
X71651904Y-46540057D01*
X71651904Y-46540057D02*
X71699523Y-46635295D01*
X71699523Y-46635295D02*
X71699523Y-46778152D01*
X71699523Y-46778152D02*
X71651904Y-46873390D01*
X71651904Y-46873390D02*
X71604285Y-46921009D01*
X71604285Y-46921009D02*
X71509047Y-46968628D01*
X71509047Y-46968628D02*
X71128095Y-46968628D01*
X72128095Y-47444819D02*
X72128095Y-46444819D01*
X72128095Y-46444819D02*
X72699523Y-47444819D01*
X72699523Y-47444819D02*
X72699523Y-46444819D01*
X73128095Y-46540057D02*
X73175714Y-46492438D01*
X73175714Y-46492438D02*
X73270952Y-46444819D01*
X73270952Y-46444819D02*
X73509047Y-46444819D01*
X73509047Y-46444819D02*
X73604285Y-46492438D01*
X73604285Y-46492438D02*
X73651904Y-46540057D01*
X73651904Y-46540057D02*
X73699523Y-46635295D01*
X73699523Y-46635295D02*
X73699523Y-46730533D01*
X73699523Y-46730533D02*
X73651904Y-46873390D01*
X73651904Y-46873390D02*
X73080476Y-47444819D01*
X73080476Y-47444819D02*
X73699523Y-47444819D01*
X43759523Y-47444819D02*
X43426190Y-46968628D01*
X43188095Y-47444819D02*
X43188095Y-46444819D01*
X43188095Y-46444819D02*
X43569047Y-46444819D01*
X43569047Y-46444819D02*
X43664285Y-46492438D01*
X43664285Y-46492438D02*
X43711904Y-46540057D01*
X43711904Y-46540057D02*
X43759523Y-46635295D01*
X43759523Y-46635295D02*
X43759523Y-46778152D01*
X43759523Y-46778152D02*
X43711904Y-46873390D01*
X43711904Y-46873390D02*
X43664285Y-46921009D01*
X43664285Y-46921009D02*
X43569047Y-46968628D01*
X43569047Y-46968628D02*
X43188095Y-46968628D01*
X44188095Y-47444819D02*
X44188095Y-46444819D01*
X44188095Y-46444819D02*
X44759523Y-47444819D01*
X44759523Y-47444819D02*
X44759523Y-46444819D01*
X45759523Y-47444819D02*
X45188095Y-47444819D01*
X45473809Y-47444819D02*
X45473809Y-46444819D01*
X45473809Y-46444819D02*
X45378571Y-46587676D01*
X45378571Y-46587676D02*
X45283333Y-46682914D01*
X45283333Y-46682914D02*
X45188095Y-46730533D01*
X76654819Y-14136666D02*
X76178628Y-14469999D01*
X76654819Y-14708094D02*
X75654819Y-14708094D01*
X75654819Y-14708094D02*
X75654819Y-14327142D01*
X75654819Y-14327142D02*
X75702438Y-14231904D01*
X75702438Y-14231904D02*
X75750057Y-14184285D01*
X75750057Y-14184285D02*
X75845295Y-14136666D01*
X75845295Y-14136666D02*
X75988152Y-14136666D01*
X75988152Y-14136666D02*
X76083390Y-14184285D01*
X76083390Y-14184285D02*
X76131009Y-14231904D01*
X76131009Y-14231904D02*
X76178628Y-14327142D01*
X76178628Y-14327142D02*
X76178628Y-14708094D01*
X75654819Y-13231904D02*
X75654819Y-13708094D01*
X75654819Y-13708094D02*
X76131009Y-13755713D01*
X76131009Y-13755713D02*
X76083390Y-13708094D01*
X76083390Y-13708094D02*
X76035771Y-13612856D01*
X76035771Y-13612856D02*
X76035771Y-13374761D01*
X76035771Y-13374761D02*
X76083390Y-13279523D01*
X76083390Y-13279523D02*
X76131009Y-13231904D01*
X76131009Y-13231904D02*
X76226247Y-13184285D01*
X76226247Y-13184285D02*
X76464342Y-13184285D01*
X76464342Y-13184285D02*
X76559580Y-13231904D01*
X76559580Y-13231904D02*
X76607200Y-13279523D01*
X76607200Y-13279523D02*
X76654819Y-13374761D01*
X76654819Y-13374761D02*
X76654819Y-13612856D01*
X76654819Y-13612856D02*
X76607200Y-13708094D01*
X76607200Y-13708094D02*
X76559580Y-13755713D01*
X12533333Y-35919580D02*
X12485714Y-35967200D01*
X12485714Y-35967200D02*
X12342857Y-36014819D01*
X12342857Y-36014819D02*
X12247619Y-36014819D01*
X12247619Y-36014819D02*
X12104762Y-35967200D01*
X12104762Y-35967200D02*
X12009524Y-35871961D01*
X12009524Y-35871961D02*
X11961905Y-35776723D01*
X11961905Y-35776723D02*
X11914286Y-35586247D01*
X11914286Y-35586247D02*
X11914286Y-35443390D01*
X11914286Y-35443390D02*
X11961905Y-35252914D01*
X11961905Y-35252914D02*
X12009524Y-35157676D01*
X12009524Y-35157676D02*
X12104762Y-35062438D01*
X12104762Y-35062438D02*
X12247619Y-35014819D01*
X12247619Y-35014819D02*
X12342857Y-35014819D01*
X12342857Y-35014819D02*
X12485714Y-35062438D01*
X12485714Y-35062438D02*
X12533333Y-35110057D01*
X12866667Y-35014819D02*
X13485714Y-35014819D01*
X13485714Y-35014819D02*
X13152381Y-35395771D01*
X13152381Y-35395771D02*
X13295238Y-35395771D01*
X13295238Y-35395771D02*
X13390476Y-35443390D01*
X13390476Y-35443390D02*
X13438095Y-35491009D01*
X13438095Y-35491009D02*
X13485714Y-35586247D01*
X13485714Y-35586247D02*
X13485714Y-35824342D01*
X13485714Y-35824342D02*
X13438095Y-35919580D01*
X13438095Y-35919580D02*
X13390476Y-35967200D01*
X13390476Y-35967200D02*
X13295238Y-36014819D01*
X13295238Y-36014819D02*
X13009524Y-36014819D01*
X13009524Y-36014819D02*
X12914286Y-35967200D01*
X12914286Y-35967200D02*
X12866667Y-35919580D01*
X32853333Y-10519580D02*
X32805714Y-10567200D01*
X32805714Y-10567200D02*
X32662857Y-10614819D01*
X32662857Y-10614819D02*
X32567619Y-10614819D01*
X32567619Y-10614819D02*
X32424762Y-10567200D01*
X32424762Y-10567200D02*
X32329524Y-10471961D01*
X32329524Y-10471961D02*
X32281905Y-10376723D01*
X32281905Y-10376723D02*
X32234286Y-10186247D01*
X32234286Y-10186247D02*
X32234286Y-10043390D01*
X32234286Y-10043390D02*
X32281905Y-9852914D01*
X32281905Y-9852914D02*
X32329524Y-9757676D01*
X32329524Y-9757676D02*
X32424762Y-9662438D01*
X32424762Y-9662438D02*
X32567619Y-9614819D01*
X32567619Y-9614819D02*
X32662857Y-9614819D01*
X32662857Y-9614819D02*
X32805714Y-9662438D01*
X32805714Y-9662438D02*
X32853333Y-9710057D01*
X33805714Y-10614819D02*
X33234286Y-10614819D01*
X33520000Y-10614819D02*
X33520000Y-9614819D01*
X33520000Y-9614819D02*
X33424762Y-9757676D01*
X33424762Y-9757676D02*
X33329524Y-9852914D01*
X33329524Y-9852914D02*
X33234286Y-9900533D01*
X28394819Y-17089285D02*
X27394819Y-17089285D01*
X27394819Y-17089285D02*
X27394819Y-16708333D01*
X27394819Y-16708333D02*
X27442438Y-16613095D01*
X27442438Y-16613095D02*
X27490057Y-16565476D01*
X27490057Y-16565476D02*
X27585295Y-16517857D01*
X27585295Y-16517857D02*
X27728152Y-16517857D01*
X27728152Y-16517857D02*
X27823390Y-16565476D01*
X27823390Y-16565476D02*
X27871009Y-16613095D01*
X27871009Y-16613095D02*
X27918628Y-16708333D01*
X27918628Y-16708333D02*
X27918628Y-17089285D01*
X28347200Y-16136904D02*
X28394819Y-15994047D01*
X28394819Y-15994047D02*
X28394819Y-15755952D01*
X28394819Y-15755952D02*
X28347200Y-15660714D01*
X28347200Y-15660714D02*
X28299580Y-15613095D01*
X28299580Y-15613095D02*
X28204342Y-15565476D01*
X28204342Y-15565476D02*
X28109104Y-15565476D01*
X28109104Y-15565476D02*
X28013866Y-15613095D01*
X28013866Y-15613095D02*
X27966247Y-15660714D01*
X27966247Y-15660714D02*
X27918628Y-15755952D01*
X27918628Y-15755952D02*
X27871009Y-15946428D01*
X27871009Y-15946428D02*
X27823390Y-16041666D01*
X27823390Y-16041666D02*
X27775771Y-16089285D01*
X27775771Y-16089285D02*
X27680533Y-16136904D01*
X27680533Y-16136904D02*
X27585295Y-16136904D01*
X27585295Y-16136904D02*
X27490057Y-16089285D01*
X27490057Y-16089285D02*
X27442438Y-16041666D01*
X27442438Y-16041666D02*
X27394819Y-15946428D01*
X27394819Y-15946428D02*
X27394819Y-15708333D01*
X27394819Y-15708333D02*
X27442438Y-15565476D01*
X28394819Y-14613095D02*
X28394819Y-15184523D01*
X28394819Y-14898809D02*
X27394819Y-14898809D01*
X27394819Y-14898809D02*
X27537676Y-14994047D01*
X27537676Y-14994047D02*
X27632914Y-15089285D01*
X27632914Y-15089285D02*
X27680533Y-15184523D01*
X36401714Y-16964819D02*
X36401714Y-15964819D01*
X36401714Y-15964819D02*
X36735047Y-16679104D01*
X36735047Y-16679104D02*
X37068380Y-15964819D01*
X37068380Y-15964819D02*
X37068380Y-16964819D01*
X37496952Y-16679104D02*
X37973142Y-16679104D01*
X37401714Y-16964819D02*
X37735047Y-15964819D01*
X37735047Y-15964819D02*
X38068380Y-16964819D01*
X38401714Y-15964819D02*
X38401714Y-16774342D01*
X38401714Y-16774342D02*
X38449333Y-16869580D01*
X38449333Y-16869580D02*
X38496952Y-16917200D01*
X38496952Y-16917200D02*
X38592190Y-16964819D01*
X38592190Y-16964819D02*
X38782666Y-16964819D01*
X38782666Y-16964819D02*
X38877904Y-16917200D01*
X38877904Y-16917200D02*
X38925523Y-16869580D01*
X38925523Y-16869580D02*
X38973142Y-16774342D01*
X38973142Y-16774342D02*
X38973142Y-15964819D01*
X39973142Y-16964819D02*
X39401714Y-16964819D01*
X39687428Y-16964819D02*
X39687428Y-15964819D01*
X39687428Y-15964819D02*
X39592190Y-16107676D01*
X39592190Y-16107676D02*
X39496952Y-16202914D01*
X39496952Y-16202914D02*
X39401714Y-16250533D01*
X40592190Y-15964819D02*
X40687428Y-15964819D01*
X40687428Y-15964819D02*
X40782666Y-16012438D01*
X40782666Y-16012438D02*
X40830285Y-16060057D01*
X40830285Y-16060057D02*
X40877904Y-16155295D01*
X40877904Y-16155295D02*
X40925523Y-16345771D01*
X40925523Y-16345771D02*
X40925523Y-16583866D01*
X40925523Y-16583866D02*
X40877904Y-16774342D01*
X40877904Y-16774342D02*
X40830285Y-16869580D01*
X40830285Y-16869580D02*
X40782666Y-16917200D01*
X40782666Y-16917200D02*
X40687428Y-16964819D01*
X40687428Y-16964819D02*
X40592190Y-16964819D01*
X40592190Y-16964819D02*
X40496952Y-16917200D01*
X40496952Y-16917200D02*
X40449333Y-16869580D01*
X40449333Y-16869580D02*
X40401714Y-16774342D01*
X40401714Y-16774342D02*
X40354095Y-16583866D01*
X40354095Y-16583866D02*
X40354095Y-16345771D01*
X40354095Y-16345771D02*
X40401714Y-16155295D01*
X40401714Y-16155295D02*
X40449333Y-16060057D01*
X40449333Y-16060057D02*
X40496952Y-16012438D01*
X40496952Y-16012438D02*
X40592190Y-15964819D01*
X41782666Y-16298152D02*
X41782666Y-16964819D01*
X41544571Y-15917200D02*
X41306476Y-16631485D01*
X41306476Y-16631485D02*
X41925523Y-16631485D01*
X82363333Y-49254580D02*
X82315714Y-49302200D01*
X82315714Y-49302200D02*
X82172857Y-49349819D01*
X82172857Y-49349819D02*
X82077619Y-49349819D01*
X82077619Y-49349819D02*
X81934762Y-49302200D01*
X81934762Y-49302200D02*
X81839524Y-49206961D01*
X81839524Y-49206961D02*
X81791905Y-49111723D01*
X81791905Y-49111723D02*
X81744286Y-48921247D01*
X81744286Y-48921247D02*
X81744286Y-48778390D01*
X81744286Y-48778390D02*
X81791905Y-48587914D01*
X81791905Y-48587914D02*
X81839524Y-48492676D01*
X81839524Y-48492676D02*
X81934762Y-48397438D01*
X81934762Y-48397438D02*
X82077619Y-48349819D01*
X82077619Y-48349819D02*
X82172857Y-48349819D01*
X82172857Y-48349819D02*
X82315714Y-48397438D01*
X82315714Y-48397438D02*
X82363333Y-48445057D01*
X82696667Y-48349819D02*
X83363333Y-48349819D01*
X83363333Y-48349819D02*
X82934762Y-49349819D01*
X22314819Y-60023333D02*
X23029104Y-60023333D01*
X23029104Y-60023333D02*
X23171961Y-60070952D01*
X23171961Y-60070952D02*
X23267200Y-60166190D01*
X23267200Y-60166190D02*
X23314819Y-60309047D01*
X23314819Y-60309047D02*
X23314819Y-60404285D01*
X22314819Y-59642380D02*
X22314819Y-59023333D01*
X22314819Y-59023333D02*
X22695771Y-59356666D01*
X22695771Y-59356666D02*
X22695771Y-59213809D01*
X22695771Y-59213809D02*
X22743390Y-59118571D01*
X22743390Y-59118571D02*
X22791009Y-59070952D01*
X22791009Y-59070952D02*
X22886247Y-59023333D01*
X22886247Y-59023333D02*
X23124342Y-59023333D01*
X23124342Y-59023333D02*
X23219580Y-59070952D01*
X23219580Y-59070952D02*
X23267200Y-59118571D01*
X23267200Y-59118571D02*
X23314819Y-59213809D01*
X23314819Y-59213809D02*
X23314819Y-59499523D01*
X23314819Y-59499523D02*
X23267200Y-59594761D01*
X23267200Y-59594761D02*
X23219580Y-59642380D01*
X12453333Y-23219580D02*
X12405714Y-23267200D01*
X12405714Y-23267200D02*
X12262857Y-23314819D01*
X12262857Y-23314819D02*
X12167619Y-23314819D01*
X12167619Y-23314819D02*
X12024762Y-23267200D01*
X12024762Y-23267200D02*
X11929524Y-23171961D01*
X11929524Y-23171961D02*
X11881905Y-23076723D01*
X11881905Y-23076723D02*
X11834286Y-22886247D01*
X11834286Y-22886247D02*
X11834286Y-22743390D01*
X11834286Y-22743390D02*
X11881905Y-22552914D01*
X11881905Y-22552914D02*
X11929524Y-22457676D01*
X11929524Y-22457676D02*
X12024762Y-22362438D01*
X12024762Y-22362438D02*
X12167619Y-22314819D01*
X12167619Y-22314819D02*
X12262857Y-22314819D01*
X12262857Y-22314819D02*
X12405714Y-22362438D01*
X12405714Y-22362438D02*
X12453333Y-22410057D01*
X13310476Y-22648152D02*
X13310476Y-23314819D01*
X13072381Y-22267200D02*
X12834286Y-22981485D01*
X12834286Y-22981485D02*
X13453333Y-22981485D01*
X40473333Y-6804819D02*
X40140000Y-6328628D01*
X39901905Y-6804819D02*
X39901905Y-5804819D01*
X39901905Y-5804819D02*
X40282857Y-5804819D01*
X40282857Y-5804819D02*
X40378095Y-5852438D01*
X40378095Y-5852438D02*
X40425714Y-5900057D01*
X40425714Y-5900057D02*
X40473333Y-5995295D01*
X40473333Y-5995295D02*
X40473333Y-6138152D01*
X40473333Y-6138152D02*
X40425714Y-6233390D01*
X40425714Y-6233390D02*
X40378095Y-6281009D01*
X40378095Y-6281009D02*
X40282857Y-6328628D01*
X40282857Y-6328628D02*
X39901905Y-6328628D01*
X41425714Y-6804819D02*
X40854286Y-6804819D01*
X41140000Y-6804819D02*
X41140000Y-5804819D01*
X41140000Y-5804819D02*
X41044762Y-5947676D01*
X41044762Y-5947676D02*
X40949524Y-6042914D01*
X40949524Y-6042914D02*
X40854286Y-6090533D01*
D13*
%TO.C,R3*%
X13240000Y-10261600D02*
X19780000Y-10261600D01*
X13240000Y-10591600D02*
X13240000Y-10261600D01*
X13240000Y-12268400D02*
X13240000Y-12598400D01*
X13240000Y-12598400D02*
X19780000Y-12598400D01*
X19780000Y-10261600D02*
X19780000Y-10591600D01*
X19780000Y-12598400D02*
X19780000Y-12268400D01*
%TO.C,D2*%
X15206000Y-14950000D02*
X15050000Y-14950000D01*
X12890000Y-14950000D02*
X12734000Y-14950000D01*
X15205516Y-14950000D02*
G75*
G02*
X15048608Y-18182335I-1235516J-1560000D01*
G01*
X15050000Y-15469039D02*
G75*
G02*
X15049837Y-17551130I-1080000J-1040961D01*
G01*
X12890163Y-17551130D02*
G75*
G02*
X12890000Y-15469039I1079837J1041130D01*
G01*
X12891392Y-18182335D02*
G75*
G02*
X12734484Y-14950000I1078608J1672335D01*
G01*
%TO.C,C5*%
X68550000Y-6620000D02*
X68550000Y-8620000D01*
X68550000Y-6620000D02*
X73650000Y-6620000D01*
X68550000Y-8620000D02*
X73650000Y-8620000D01*
X73650000Y-6620000D02*
X73650000Y-8620000D01*
%TO.C,C8*%
X57120000Y-20050000D02*
X57120000Y-18050000D01*
X62220000Y-18050000D02*
X57120000Y-18050000D01*
X62220000Y-20050000D02*
X57120000Y-20050000D01*
X62220000Y-20050000D02*
X62220000Y-18050000D01*
%TO.C,C6*%
X69920000Y-4064000D02*
X74860000Y-4064000D01*
X69920000Y-6096000D02*
X74860000Y-6096000D01*
%TO.C,R4*%
X79908400Y-17240000D02*
X79578400Y-17240000D01*
X79908400Y-10700000D02*
X79908400Y-17240000D01*
X79578400Y-10700000D02*
X79908400Y-10700000D01*
X77901600Y-10700000D02*
X77571600Y-10700000D01*
X77571600Y-17240000D02*
X77901600Y-17240000D01*
X77571600Y-10700000D02*
X77571600Y-17240000D01*
%TO.C,R2*%
X19780000Y-7721600D02*
X19780000Y-8051600D01*
X13240000Y-7721600D02*
X19780000Y-7721600D01*
X13240000Y-8051600D02*
X13240000Y-7721600D01*
X13240000Y-9728400D02*
X13240000Y-10058400D01*
X19780000Y-10058400D02*
X19780000Y-9728400D01*
X13240000Y-10058400D02*
X19780000Y-10058400D01*
%TO.C,PS2*%
X6290000Y-26560000D02*
X6290000Y-28210000D01*
X6290000Y-30210000D02*
X6290000Y-31860000D01*
X6290000Y-31860000D02*
X16570000Y-31860000D01*
X16570000Y-26560000D02*
X6290000Y-26560000D01*
X16570000Y-31860000D02*
X16570000Y-26560000D01*
X6290000Y-28210000D02*
G75*
G02*
X6290000Y-30210000I0J-1000000D01*
G01*
%TO.C,C2*%
X44300000Y-9144000D02*
X39360000Y-9144000D01*
X44300000Y-11176000D02*
X39360000Y-11176000D01*
%TO.C,J2*%
X24070000Y-86614000D02*
X25400000Y-86614000D01*
X24070000Y-87944000D02*
X24070000Y-86614000D01*
X26670000Y-86614000D02*
X74990000Y-86614000D01*
X26670000Y-88646000D02*
X26670000Y-86614000D01*
X26670000Y-88646000D02*
X74990000Y-88646000D01*
X74990000Y-88646000D02*
X74990000Y-86614000D01*
%TO.C,U1*%
X63440000Y-11320000D02*
X63440000Y-12970000D01*
X63440000Y-14970000D02*
X63440000Y-16620000D01*
X63440000Y-16620000D02*
X73720000Y-16620000D01*
X73720000Y-11320000D02*
X63440000Y-11320000D01*
X73720000Y-16620000D02*
X73720000Y-11320000D01*
X63440000Y-12970000D02*
G75*
G02*
X63440000Y-14970000I0J-1000000D01*
G01*
%TO.C,U2*%
X19820000Y-21470000D02*
X19820000Y-44570000D01*
X19820000Y-42290000D02*
X22080000Y-42290000D01*
X19820000Y-44570000D02*
X21680000Y-44570000D01*
X26580000Y-44570000D02*
X85620000Y-44570000D01*
X31750000Y-45590000D02*
X29210000Y-45590000D01*
X85620000Y-21470000D02*
X19820000Y-21470000D01*
X85620000Y-44570000D02*
X85620000Y-21470000D01*
X26680000Y-43840000D02*
G75*
G02*
X21580000Y-43840000I-2550000J0D01*
G01*
X21580000Y-43840000D02*
G75*
G02*
X26680000Y-43840000I2550000J0D01*
G01*
X25030000Y-43840000D02*
G75*
G02*
X23230000Y-43840000I-900000J0D01*
G01*
X23230000Y-43840000D02*
G75*
G02*
X25030000Y-43840000I900000J0D01*
G01*
%TO.C,J1*%
X24010000Y-64710000D02*
X24010000Y-82610000D01*
X24010000Y-82610000D02*
X75050000Y-82610000D01*
X24070000Y-67200000D02*
X24070000Y-72660000D01*
X24070000Y-74660000D02*
X24070000Y-80120000D01*
X24070000Y-80120000D02*
X74990000Y-80120000D01*
X74990000Y-67200000D02*
X24070000Y-67200000D01*
X74990000Y-80120000D02*
X74990000Y-67200000D01*
X75050000Y-64710000D02*
X24010000Y-64710000D01*
X75050000Y-82610000D02*
X75050000Y-64710000D01*
X24070000Y-72660000D02*
G75*
G02*
X24070000Y-74660000I0J-1000000D01*
G01*
%TO.C,D1*%
X17970000Y-14950000D02*
X17814000Y-14950000D01*
X20286000Y-14950000D02*
X20130000Y-14950000D01*
X17970163Y-17551130D02*
G75*
G02*
X17970000Y-15469039I1079837J1041130D01*
G01*
X17971392Y-18182335D02*
G75*
G02*
X17814484Y-14950000I1078608J1672335D01*
G01*
X20130000Y-15469039D02*
G75*
G02*
X20129837Y-17551130I-1080000J-1040961D01*
G01*
X20285516Y-14950000D02*
G75*
G02*
X20128608Y-18182335I-1235516J-1560000D01*
G01*
%TO.C,RN2*%
X64600000Y-48130000D02*
X64600000Y-50930000D01*
X64600000Y-50930000D02*
X77640000Y-50930000D01*
X67310000Y-48130000D02*
X67310000Y-50930000D01*
X77640000Y-48130000D02*
X64600000Y-48130000D01*
X77640000Y-50930000D02*
X77640000Y-48130000D01*
%TO.C,RN1*%
X31580000Y-48130000D02*
X31580000Y-50930000D01*
X31580000Y-50930000D02*
X54780000Y-50930000D01*
X34290000Y-48130000D02*
X34290000Y-50930000D01*
X54780000Y-48130000D02*
X31580000Y-48130000D01*
X54780000Y-50930000D02*
X54780000Y-48130000D01*
%TO.C,R5*%
X75031600Y-10700000D02*
X75031600Y-17240000D01*
X75031600Y-17240000D02*
X75361600Y-17240000D01*
X75361600Y-10700000D02*
X75031600Y-10700000D01*
X77038400Y-10700000D02*
X77368400Y-10700000D01*
X77368400Y-10700000D02*
X77368400Y-17240000D01*
X77368400Y-17240000D02*
X77038400Y-17240000D01*
%TO.C,C3*%
X10230000Y-34544000D02*
X15170000Y-34544000D01*
X10230000Y-36576000D02*
X15170000Y-36576000D01*
%TO.C,C1*%
X30550000Y-9144000D02*
X35490000Y-9144000D01*
X30550000Y-11176000D02*
X35490000Y-11176000D01*
D11*
%TO.C,PS1*%
X29210000Y-12700000D02*
X48895000Y-12700000D01*
X29210000Y-19050000D02*
X29210000Y-12700000D01*
X30480000Y-12700000D02*
X30480000Y-15240000D01*
X33020000Y-12700000D02*
X33020000Y-15240000D01*
X33020000Y-15240000D02*
X30480000Y-15240000D01*
X48895000Y-12700000D02*
X48895000Y-19050000D01*
X48895000Y-19050000D02*
X29210000Y-19050000D01*
D13*
%TO.C,C7*%
X79980000Y-45990000D02*
X79980000Y-47990000D01*
X79980000Y-45990000D02*
X85080000Y-45990000D01*
X79980000Y-47990000D02*
X85080000Y-47990000D01*
X85080000Y-45990000D02*
X85080000Y-47990000D01*
%TO.C,J3*%
X24070000Y-58674000D02*
X25400000Y-58674000D01*
X24070000Y-60004000D02*
X24070000Y-58674000D01*
X26670000Y-58674000D02*
X74990000Y-58674000D01*
X26670000Y-60706000D02*
X26670000Y-58674000D01*
X26670000Y-60706000D02*
X74990000Y-60706000D01*
X74990000Y-60706000D02*
X74990000Y-58674000D01*
%TO.C,C4*%
X15090000Y-21844000D02*
X10150000Y-21844000D01*
X15090000Y-23876000D02*
X10150000Y-23876000D01*
%TO.C,R1*%
X43910000Y-5181600D02*
X37370000Y-5181600D01*
X37370000Y-5181600D02*
X37370000Y-5511600D01*
X43910000Y-5511600D02*
X43910000Y-5181600D01*
X43910000Y-7188400D02*
X43910000Y-7518400D01*
X43910000Y-7518400D02*
X37370000Y-7518400D01*
X37370000Y-7518400D02*
X37370000Y-7188400D01*
%TD*%
M02*
