%TF.GenerationSoftware,KiCad,Pcbnew,8.0.4*%
%TF.CreationDate,2024-08-29T15:53:48+09:00*%
%TF.ProjectId,TangNano8080MEM,54616e67-4e61-46e6-9f38-3038304d454d,rev?*%
%TF.SameCoordinates,Original*%
%TF.FileFunction,Copper,L2,Bot*%
%TF.FilePolarity,Positive*%
%FSLAX46Y46*%
G04 Gerber Fmt 4.6, Leading zero omitted, Abs format (unit mm)*
G04 Created by KiCad (PCBNEW 8.0.4) date 2024-08-29 15:53:48*
%MOMM*%
%LPD*%
G01*
G04 APERTURE LIST*
%ADD10C,0.300000*%
%TA.AperFunction,NonConductor*%
%ADD11C,0.300000*%
%TD*%
%TA.AperFunction,ComponentPad*%
%ADD12C,1.600000*%
%TD*%
%TA.AperFunction,ComponentPad*%
%ADD13O,1.600000X1.600000*%
%TD*%
%TA.AperFunction,ComponentPad*%
%ADD14R,1.800000X1.800000*%
%TD*%
%TA.AperFunction,ComponentPad*%
%ADD15C,1.800000*%
%TD*%
%TA.AperFunction,ComponentPad*%
%ADD16R,1.600000X1.600000*%
%TD*%
%TA.AperFunction,ComponentPad*%
%ADD17R,1.700000X1.700000*%
%TD*%
%TA.AperFunction,ComponentPad*%
%ADD18O,1.700000X1.700000*%
%TD*%
%TA.AperFunction,ComponentPad*%
%ADD19R,1.440000X2.000000*%
%TD*%
%TA.AperFunction,ComponentPad*%
%ADD20O,1.440000X2.000000*%
%TD*%
%TA.AperFunction,ComponentPad*%
%ADD21R,1.450000X1.450000*%
%TD*%
%TA.AperFunction,ComponentPad*%
%ADD22C,1.450000*%
%TD*%
%TA.AperFunction,ViaPad*%
%ADD23C,0.800000*%
%TD*%
%TA.AperFunction,Conductor*%
%ADD24C,0.500000*%
%TD*%
%TA.AperFunction,Conductor*%
%ADD25C,0.250000*%
%TD*%
%TA.AperFunction,Conductor*%
%ADD26C,1.000000*%
%TD*%
%TA.AperFunction,Conductor*%
%ADD27C,2.000000*%
%TD*%
%TA.AperFunction,Conductor*%
%ADD28C,2.500000*%
%TD*%
G04 APERTURE END LIST*
D10*
D11*
X87978801Y-94658328D02*
X87978801Y-93158328D01*
X87978801Y-93158328D02*
X87621658Y-93158328D01*
X87621658Y-93158328D02*
X87407372Y-93229757D01*
X87407372Y-93229757D02*
X87264515Y-93372614D01*
X87264515Y-93372614D02*
X87193086Y-93515471D01*
X87193086Y-93515471D02*
X87121658Y-93801185D01*
X87121658Y-93801185D02*
X87121658Y-94015471D01*
X87121658Y-94015471D02*
X87193086Y-94301185D01*
X87193086Y-94301185D02*
X87264515Y-94444042D01*
X87264515Y-94444042D02*
X87407372Y-94586900D01*
X87407372Y-94586900D02*
X87621658Y-94658328D01*
X87621658Y-94658328D02*
X87978801Y-94658328D01*
X85907372Y-94586900D02*
X86050229Y-94658328D01*
X86050229Y-94658328D02*
X86335944Y-94658328D01*
X86335944Y-94658328D02*
X86478801Y-94586900D01*
X86478801Y-94586900D02*
X86550229Y-94444042D01*
X86550229Y-94444042D02*
X86550229Y-93872614D01*
X86550229Y-93872614D02*
X86478801Y-93729757D01*
X86478801Y-93729757D02*
X86335944Y-93658328D01*
X86335944Y-93658328D02*
X86050229Y-93658328D01*
X86050229Y-93658328D02*
X85907372Y-93729757D01*
X85907372Y-93729757D02*
X85835944Y-93872614D01*
X85835944Y-93872614D02*
X85835944Y-94015471D01*
X85835944Y-94015471D02*
X86550229Y-94158328D01*
X85264515Y-94586900D02*
X85121658Y-94658328D01*
X85121658Y-94658328D02*
X84835944Y-94658328D01*
X84835944Y-94658328D02*
X84693087Y-94586900D01*
X84693087Y-94586900D02*
X84621658Y-94444042D01*
X84621658Y-94444042D02*
X84621658Y-94372614D01*
X84621658Y-94372614D02*
X84693087Y-94229757D01*
X84693087Y-94229757D02*
X84835944Y-94158328D01*
X84835944Y-94158328D02*
X85050230Y-94158328D01*
X85050230Y-94158328D02*
X85193087Y-94086900D01*
X85193087Y-94086900D02*
X85264515Y-93944042D01*
X85264515Y-93944042D02*
X85264515Y-93872614D01*
X85264515Y-93872614D02*
X85193087Y-93729757D01*
X85193087Y-93729757D02*
X85050230Y-93658328D01*
X85050230Y-93658328D02*
X84835944Y-93658328D01*
X84835944Y-93658328D02*
X84693087Y-93729757D01*
X83978801Y-94658328D02*
X83978801Y-93658328D01*
X83978801Y-93158328D02*
X84050229Y-93229757D01*
X84050229Y-93229757D02*
X83978801Y-93301185D01*
X83978801Y-93301185D02*
X83907372Y-93229757D01*
X83907372Y-93229757D02*
X83978801Y-93158328D01*
X83978801Y-93158328D02*
X83978801Y-93301185D01*
X82621658Y-93658328D02*
X82621658Y-94872614D01*
X82621658Y-94872614D02*
X82693086Y-95015471D01*
X82693086Y-95015471D02*
X82764515Y-95086900D01*
X82764515Y-95086900D02*
X82907372Y-95158328D01*
X82907372Y-95158328D02*
X83121658Y-95158328D01*
X83121658Y-95158328D02*
X83264515Y-95086900D01*
X82621658Y-94586900D02*
X82764515Y-94658328D01*
X82764515Y-94658328D02*
X83050229Y-94658328D01*
X83050229Y-94658328D02*
X83193086Y-94586900D01*
X83193086Y-94586900D02*
X83264515Y-94515471D01*
X83264515Y-94515471D02*
X83335943Y-94372614D01*
X83335943Y-94372614D02*
X83335943Y-93944042D01*
X83335943Y-93944042D02*
X83264515Y-93801185D01*
X83264515Y-93801185D02*
X83193086Y-93729757D01*
X83193086Y-93729757D02*
X83050229Y-93658328D01*
X83050229Y-93658328D02*
X82764515Y-93658328D01*
X82764515Y-93658328D02*
X82621658Y-93729757D01*
X81907372Y-93658328D02*
X81907372Y-94658328D01*
X81907372Y-93801185D02*
X81835943Y-93729757D01*
X81835943Y-93729757D02*
X81693086Y-93658328D01*
X81693086Y-93658328D02*
X81478800Y-93658328D01*
X81478800Y-93658328D02*
X81335943Y-93729757D01*
X81335943Y-93729757D02*
X81264515Y-93872614D01*
X81264515Y-93872614D02*
X81264515Y-94658328D01*
X79978800Y-94586900D02*
X80121657Y-94658328D01*
X80121657Y-94658328D02*
X80407372Y-94658328D01*
X80407372Y-94658328D02*
X80550229Y-94586900D01*
X80550229Y-94586900D02*
X80621657Y-94444042D01*
X80621657Y-94444042D02*
X80621657Y-93872614D01*
X80621657Y-93872614D02*
X80550229Y-93729757D01*
X80550229Y-93729757D02*
X80407372Y-93658328D01*
X80407372Y-93658328D02*
X80121657Y-93658328D01*
X80121657Y-93658328D02*
X79978800Y-93729757D01*
X79978800Y-93729757D02*
X79907372Y-93872614D01*
X79907372Y-93872614D02*
X79907372Y-94015471D01*
X79907372Y-94015471D02*
X80621657Y-94158328D01*
X78621658Y-94658328D02*
X78621658Y-93158328D01*
X78621658Y-94586900D02*
X78764515Y-94658328D01*
X78764515Y-94658328D02*
X79050229Y-94658328D01*
X79050229Y-94658328D02*
X79193086Y-94586900D01*
X79193086Y-94586900D02*
X79264515Y-94515471D01*
X79264515Y-94515471D02*
X79335943Y-94372614D01*
X79335943Y-94372614D02*
X79335943Y-93944042D01*
X79335943Y-93944042D02*
X79264515Y-93801185D01*
X79264515Y-93801185D02*
X79193086Y-93729757D01*
X79193086Y-93729757D02*
X79050229Y-93658328D01*
X79050229Y-93658328D02*
X78764515Y-93658328D01*
X78764515Y-93658328D02*
X78621658Y-93729757D01*
X76764515Y-94658328D02*
X76764515Y-93158328D01*
X76764515Y-93729757D02*
X76621658Y-93658328D01*
X76621658Y-93658328D02*
X76335943Y-93658328D01*
X76335943Y-93658328D02*
X76193086Y-93729757D01*
X76193086Y-93729757D02*
X76121658Y-93801185D01*
X76121658Y-93801185D02*
X76050229Y-93944042D01*
X76050229Y-93944042D02*
X76050229Y-94372614D01*
X76050229Y-94372614D02*
X76121658Y-94515471D01*
X76121658Y-94515471D02*
X76193086Y-94586900D01*
X76193086Y-94586900D02*
X76335943Y-94658328D01*
X76335943Y-94658328D02*
X76621658Y-94658328D01*
X76621658Y-94658328D02*
X76764515Y-94586900D01*
X75550229Y-93658328D02*
X75193086Y-94658328D01*
X74835943Y-93658328D02*
X75193086Y-94658328D01*
X75193086Y-94658328D02*
X75335943Y-95015471D01*
X75335943Y-95015471D02*
X75407372Y-95086900D01*
X75407372Y-95086900D02*
X75550229Y-95158328D01*
X72264515Y-94658328D02*
X72764515Y-93944042D01*
X73121658Y-94658328D02*
X73121658Y-93158328D01*
X73121658Y-93158328D02*
X72550229Y-93158328D01*
X72550229Y-93158328D02*
X72407372Y-93229757D01*
X72407372Y-93229757D02*
X72335943Y-93301185D01*
X72335943Y-93301185D02*
X72264515Y-93444042D01*
X72264515Y-93444042D02*
X72264515Y-93658328D01*
X72264515Y-93658328D02*
X72335943Y-93801185D01*
X72335943Y-93801185D02*
X72407372Y-93872614D01*
X72407372Y-93872614D02*
X72550229Y-93944042D01*
X72550229Y-93944042D02*
X73121658Y-93944042D01*
X71764515Y-93658328D02*
X71407372Y-94658328D01*
X71050229Y-93658328D02*
X71407372Y-94658328D01*
X71407372Y-94658328D02*
X71550229Y-95015471D01*
X71550229Y-95015471D02*
X71621658Y-95086900D01*
X71621658Y-95086900D02*
X71764515Y-95158328D01*
X70264515Y-94658328D02*
X70407372Y-94586900D01*
X70407372Y-94586900D02*
X70478801Y-94515471D01*
X70478801Y-94515471D02*
X70550229Y-94372614D01*
X70550229Y-94372614D02*
X70550229Y-93944042D01*
X70550229Y-93944042D02*
X70478801Y-93801185D01*
X70478801Y-93801185D02*
X70407372Y-93729757D01*
X70407372Y-93729757D02*
X70264515Y-93658328D01*
X70264515Y-93658328D02*
X70050229Y-93658328D01*
X70050229Y-93658328D02*
X69907372Y-93729757D01*
X69907372Y-93729757D02*
X69835944Y-93801185D01*
X69835944Y-93801185D02*
X69764515Y-93944042D01*
X69764515Y-93944042D02*
X69764515Y-94372614D01*
X69764515Y-94372614D02*
X69835944Y-94515471D01*
X69835944Y-94515471D02*
X69907372Y-94586900D01*
X69907372Y-94586900D02*
X70050229Y-94658328D01*
X70050229Y-94658328D02*
X70264515Y-94658328D01*
X67978801Y-94658328D02*
X67978801Y-93158328D01*
X67978801Y-93158328D02*
X67478801Y-94229757D01*
X67478801Y-94229757D02*
X66978801Y-93158328D01*
X66978801Y-93158328D02*
X66978801Y-94658328D01*
X65621658Y-93658328D02*
X65621658Y-94658328D01*
X66264515Y-93658328D02*
X66264515Y-94444042D01*
X66264515Y-94444042D02*
X66193086Y-94586900D01*
X66193086Y-94586900D02*
X66050229Y-94658328D01*
X66050229Y-94658328D02*
X65835943Y-94658328D01*
X65835943Y-94658328D02*
X65693086Y-94586900D01*
X65693086Y-94586900D02*
X65621658Y-94515471D01*
X64907372Y-94658328D02*
X64907372Y-93158328D01*
X64764515Y-94086900D02*
X64335943Y-94658328D01*
X64335943Y-93658328D02*
X64907372Y-94229757D01*
X63050229Y-94658328D02*
X63050229Y-93872614D01*
X63050229Y-93872614D02*
X63121657Y-93729757D01*
X63121657Y-93729757D02*
X63264514Y-93658328D01*
X63264514Y-93658328D02*
X63550229Y-93658328D01*
X63550229Y-93658328D02*
X63693086Y-93729757D01*
X63050229Y-94586900D02*
X63193086Y-94658328D01*
X63193086Y-94658328D02*
X63550229Y-94658328D01*
X63550229Y-94658328D02*
X63693086Y-94586900D01*
X63693086Y-94586900D02*
X63764514Y-94444042D01*
X63764514Y-94444042D02*
X63764514Y-94301185D01*
X63764514Y-94301185D02*
X63693086Y-94158328D01*
X63693086Y-94158328D02*
X63550229Y-94086900D01*
X63550229Y-94086900D02*
X63193086Y-94086900D01*
X63193086Y-94086900D02*
X63050229Y-94015471D01*
X62335943Y-94658328D02*
X62335943Y-93658328D01*
X62335943Y-93158328D02*
X62407371Y-93229757D01*
X62407371Y-93229757D02*
X62335943Y-93301185D01*
X62335943Y-93301185D02*
X62264514Y-93229757D01*
X62264514Y-93229757D02*
X62335943Y-93158328D01*
X62335943Y-93158328D02*
X62335943Y-93301185D01*
X60478800Y-94658328D02*
X60478800Y-93158328D01*
X59835943Y-94658328D02*
X59835943Y-93872614D01*
X59835943Y-93872614D02*
X59907371Y-93729757D01*
X59907371Y-93729757D02*
X60050228Y-93658328D01*
X60050228Y-93658328D02*
X60264514Y-93658328D01*
X60264514Y-93658328D02*
X60407371Y-93729757D01*
X60407371Y-93729757D02*
X60478800Y-93801185D01*
X59335942Y-93658328D02*
X58764514Y-93658328D01*
X59121657Y-93158328D02*
X59121657Y-94444042D01*
X59121657Y-94444042D02*
X59050228Y-94586900D01*
X59050228Y-94586900D02*
X58907371Y-94658328D01*
X58907371Y-94658328D02*
X58764514Y-94658328D01*
X58478799Y-93658328D02*
X57907371Y-93658328D01*
X58264514Y-93158328D02*
X58264514Y-94444042D01*
X58264514Y-94444042D02*
X58193085Y-94586900D01*
X58193085Y-94586900D02*
X58050228Y-94658328D01*
X58050228Y-94658328D02*
X57907371Y-94658328D01*
X57407371Y-93658328D02*
X57407371Y-95158328D01*
X57407371Y-93729757D02*
X57264514Y-93658328D01*
X57264514Y-93658328D02*
X56978799Y-93658328D01*
X56978799Y-93658328D02*
X56835942Y-93729757D01*
X56835942Y-93729757D02*
X56764514Y-93801185D01*
X56764514Y-93801185D02*
X56693085Y-93944042D01*
X56693085Y-93944042D02*
X56693085Y-94372614D01*
X56693085Y-94372614D02*
X56764514Y-94515471D01*
X56764514Y-94515471D02*
X56835942Y-94586900D01*
X56835942Y-94586900D02*
X56978799Y-94658328D01*
X56978799Y-94658328D02*
X57264514Y-94658328D01*
X57264514Y-94658328D02*
X57407371Y-94586900D01*
X56121656Y-94586900D02*
X55978799Y-94658328D01*
X55978799Y-94658328D02*
X55693085Y-94658328D01*
X55693085Y-94658328D02*
X55550228Y-94586900D01*
X55550228Y-94586900D02*
X55478799Y-94444042D01*
X55478799Y-94444042D02*
X55478799Y-94372614D01*
X55478799Y-94372614D02*
X55550228Y-94229757D01*
X55550228Y-94229757D02*
X55693085Y-94158328D01*
X55693085Y-94158328D02*
X55907371Y-94158328D01*
X55907371Y-94158328D02*
X56050228Y-94086900D01*
X56050228Y-94086900D02*
X56121656Y-93944042D01*
X56121656Y-93944042D02*
X56121656Y-93872614D01*
X56121656Y-93872614D02*
X56050228Y-93729757D01*
X56050228Y-93729757D02*
X55907371Y-93658328D01*
X55907371Y-93658328D02*
X55693085Y-93658328D01*
X55693085Y-93658328D02*
X55550228Y-93729757D01*
X54835942Y-94515471D02*
X54764513Y-94586900D01*
X54764513Y-94586900D02*
X54835942Y-94658328D01*
X54835942Y-94658328D02*
X54907370Y-94586900D01*
X54907370Y-94586900D02*
X54835942Y-94515471D01*
X54835942Y-94515471D02*
X54835942Y-94658328D01*
X54835942Y-93729757D02*
X54764513Y-93801185D01*
X54764513Y-93801185D02*
X54835942Y-93872614D01*
X54835942Y-93872614D02*
X54907370Y-93801185D01*
X54907370Y-93801185D02*
X54835942Y-93729757D01*
X54835942Y-93729757D02*
X54835942Y-93872614D01*
X53050227Y-93086900D02*
X54335941Y-95015471D01*
X51478798Y-93086900D02*
X52764512Y-95015471D01*
X50335941Y-93658328D02*
X50335941Y-94872614D01*
X50335941Y-94872614D02*
X50407369Y-95015471D01*
X50407369Y-95015471D02*
X50478798Y-95086900D01*
X50478798Y-95086900D02*
X50621655Y-95158328D01*
X50621655Y-95158328D02*
X50835941Y-95158328D01*
X50835941Y-95158328D02*
X50978798Y-95086900D01*
X50335941Y-94586900D02*
X50478798Y-94658328D01*
X50478798Y-94658328D02*
X50764512Y-94658328D01*
X50764512Y-94658328D02*
X50907369Y-94586900D01*
X50907369Y-94586900D02*
X50978798Y-94515471D01*
X50978798Y-94515471D02*
X51050226Y-94372614D01*
X51050226Y-94372614D02*
X51050226Y-93944042D01*
X51050226Y-93944042D02*
X50978798Y-93801185D01*
X50978798Y-93801185D02*
X50907369Y-93729757D01*
X50907369Y-93729757D02*
X50764512Y-93658328D01*
X50764512Y-93658328D02*
X50478798Y-93658328D01*
X50478798Y-93658328D02*
X50335941Y-93729757D01*
X49621655Y-94658328D02*
X49621655Y-93658328D01*
X49621655Y-93158328D02*
X49693083Y-93229757D01*
X49693083Y-93229757D02*
X49621655Y-93301185D01*
X49621655Y-93301185D02*
X49550226Y-93229757D01*
X49550226Y-93229757D02*
X49621655Y-93158328D01*
X49621655Y-93158328D02*
X49621655Y-93301185D01*
X49121654Y-93658328D02*
X48550226Y-93658328D01*
X48907369Y-93158328D02*
X48907369Y-94444042D01*
X48907369Y-94444042D02*
X48835940Y-94586900D01*
X48835940Y-94586900D02*
X48693083Y-94658328D01*
X48693083Y-94658328D02*
X48550226Y-94658328D01*
X48050226Y-94658328D02*
X48050226Y-93158328D01*
X47407369Y-94658328D02*
X47407369Y-93872614D01*
X47407369Y-93872614D02*
X47478797Y-93729757D01*
X47478797Y-93729757D02*
X47621654Y-93658328D01*
X47621654Y-93658328D02*
X47835940Y-93658328D01*
X47835940Y-93658328D02*
X47978797Y-93729757D01*
X47978797Y-93729757D02*
X48050226Y-93801185D01*
X46050226Y-93658328D02*
X46050226Y-94658328D01*
X46693083Y-93658328D02*
X46693083Y-94444042D01*
X46693083Y-94444042D02*
X46621654Y-94586900D01*
X46621654Y-94586900D02*
X46478797Y-94658328D01*
X46478797Y-94658328D02*
X46264511Y-94658328D01*
X46264511Y-94658328D02*
X46121654Y-94586900D01*
X46121654Y-94586900D02*
X46050226Y-94515471D01*
X45335940Y-94658328D02*
X45335940Y-93158328D01*
X45335940Y-93729757D02*
X45193083Y-93658328D01*
X45193083Y-93658328D02*
X44907368Y-93658328D01*
X44907368Y-93658328D02*
X44764511Y-93729757D01*
X44764511Y-93729757D02*
X44693083Y-93801185D01*
X44693083Y-93801185D02*
X44621654Y-93944042D01*
X44621654Y-93944042D02*
X44621654Y-94372614D01*
X44621654Y-94372614D02*
X44693083Y-94515471D01*
X44693083Y-94515471D02*
X44764511Y-94586900D01*
X44764511Y-94586900D02*
X44907368Y-94658328D01*
X44907368Y-94658328D02*
X45193083Y-94658328D01*
X45193083Y-94658328D02*
X45335940Y-94586900D01*
X43978797Y-94515471D02*
X43907368Y-94586900D01*
X43907368Y-94586900D02*
X43978797Y-94658328D01*
X43978797Y-94658328D02*
X44050225Y-94586900D01*
X44050225Y-94586900D02*
X43978797Y-94515471D01*
X43978797Y-94515471D02*
X43978797Y-94658328D01*
X42621654Y-94586900D02*
X42764511Y-94658328D01*
X42764511Y-94658328D02*
X43050225Y-94658328D01*
X43050225Y-94658328D02*
X43193082Y-94586900D01*
X43193082Y-94586900D02*
X43264511Y-94515471D01*
X43264511Y-94515471D02*
X43335939Y-94372614D01*
X43335939Y-94372614D02*
X43335939Y-93944042D01*
X43335939Y-93944042D02*
X43264511Y-93801185D01*
X43264511Y-93801185D02*
X43193082Y-93729757D01*
X43193082Y-93729757D02*
X43050225Y-93658328D01*
X43050225Y-93658328D02*
X42764511Y-93658328D01*
X42764511Y-93658328D02*
X42621654Y-93729757D01*
X41764511Y-94658328D02*
X41907368Y-94586900D01*
X41907368Y-94586900D02*
X41978797Y-94515471D01*
X41978797Y-94515471D02*
X42050225Y-94372614D01*
X42050225Y-94372614D02*
X42050225Y-93944042D01*
X42050225Y-93944042D02*
X41978797Y-93801185D01*
X41978797Y-93801185D02*
X41907368Y-93729757D01*
X41907368Y-93729757D02*
X41764511Y-93658328D01*
X41764511Y-93658328D02*
X41550225Y-93658328D01*
X41550225Y-93658328D02*
X41407368Y-93729757D01*
X41407368Y-93729757D02*
X41335940Y-93801185D01*
X41335940Y-93801185D02*
X41264511Y-93944042D01*
X41264511Y-93944042D02*
X41264511Y-94372614D01*
X41264511Y-94372614D02*
X41335940Y-94515471D01*
X41335940Y-94515471D02*
X41407368Y-94586900D01*
X41407368Y-94586900D02*
X41550225Y-94658328D01*
X41550225Y-94658328D02*
X41764511Y-94658328D01*
X40621654Y-94658328D02*
X40621654Y-93658328D01*
X40621654Y-93801185D02*
X40550225Y-93729757D01*
X40550225Y-93729757D02*
X40407368Y-93658328D01*
X40407368Y-93658328D02*
X40193082Y-93658328D01*
X40193082Y-93658328D02*
X40050225Y-93729757D01*
X40050225Y-93729757D02*
X39978797Y-93872614D01*
X39978797Y-93872614D02*
X39978797Y-94658328D01*
X39978797Y-93872614D02*
X39907368Y-93729757D01*
X39907368Y-93729757D02*
X39764511Y-93658328D01*
X39764511Y-93658328D02*
X39550225Y-93658328D01*
X39550225Y-93658328D02*
X39407368Y-93729757D01*
X39407368Y-93729757D02*
X39335939Y-93872614D01*
X39335939Y-93872614D02*
X39335939Y-94658328D01*
X37550225Y-93086900D02*
X38835939Y-95015471D01*
X37050225Y-94658328D02*
X37050225Y-93658328D01*
X37050225Y-93944042D02*
X36978796Y-93801185D01*
X36978796Y-93801185D02*
X36907368Y-93729757D01*
X36907368Y-93729757D02*
X36764510Y-93658328D01*
X36764510Y-93658328D02*
X36621653Y-93658328D01*
X36264511Y-93658328D02*
X35907368Y-94658328D01*
X35550225Y-93658328D02*
X35907368Y-94658328D01*
X35907368Y-94658328D02*
X36050225Y-95015471D01*
X36050225Y-95015471D02*
X36121654Y-95086900D01*
X36121654Y-95086900D02*
X36264511Y-95158328D01*
X34764511Y-94658328D02*
X34907368Y-94586900D01*
X34907368Y-94586900D02*
X34978797Y-94515471D01*
X34978797Y-94515471D02*
X35050225Y-94372614D01*
X35050225Y-94372614D02*
X35050225Y-93944042D01*
X35050225Y-93944042D02*
X34978797Y-93801185D01*
X34978797Y-93801185D02*
X34907368Y-93729757D01*
X34907368Y-93729757D02*
X34764511Y-93658328D01*
X34764511Y-93658328D02*
X34550225Y-93658328D01*
X34550225Y-93658328D02*
X34407368Y-93729757D01*
X34407368Y-93729757D02*
X34335940Y-93801185D01*
X34335940Y-93801185D02*
X34264511Y-93944042D01*
X34264511Y-93944042D02*
X34264511Y-94372614D01*
X34264511Y-94372614D02*
X34335940Y-94515471D01*
X34335940Y-94515471D02*
X34407368Y-94586900D01*
X34407368Y-94586900D02*
X34550225Y-94658328D01*
X34550225Y-94658328D02*
X34764511Y-94658328D01*
X33621654Y-94658328D02*
X33621654Y-93658328D01*
X33621654Y-93801185D02*
X33550225Y-93729757D01*
X33550225Y-93729757D02*
X33407368Y-93658328D01*
X33407368Y-93658328D02*
X33193082Y-93658328D01*
X33193082Y-93658328D02*
X33050225Y-93729757D01*
X33050225Y-93729757D02*
X32978797Y-93872614D01*
X32978797Y-93872614D02*
X32978797Y-94658328D01*
X32978797Y-93872614D02*
X32907368Y-93729757D01*
X32907368Y-93729757D02*
X32764511Y-93658328D01*
X32764511Y-93658328D02*
X32550225Y-93658328D01*
X32550225Y-93658328D02*
X32407368Y-93729757D01*
X32407368Y-93729757D02*
X32335939Y-93872614D01*
X32335939Y-93872614D02*
X32335939Y-94658328D01*
X30978797Y-93658328D02*
X30978797Y-94658328D01*
X31621654Y-93658328D02*
X31621654Y-94444042D01*
X31621654Y-94444042D02*
X31550225Y-94586900D01*
X31550225Y-94586900D02*
X31407368Y-94658328D01*
X31407368Y-94658328D02*
X31193082Y-94658328D01*
X31193082Y-94658328D02*
X31050225Y-94586900D01*
X31050225Y-94586900D02*
X30978797Y-94515471D01*
X30264511Y-94658328D02*
X30264511Y-93158328D01*
X30121654Y-94086900D02*
X29693082Y-94658328D01*
X29693082Y-93658328D02*
X30264511Y-94229757D01*
D12*
%TO.P,R3,1*%
%TO.N,Net-(D2-A)*%
X12700000Y-11430000D03*
D13*
%TO.P,R3,2*%
%TO.N,GND*%
X20320000Y-11430000D03*
%TD*%
D14*
%TO.P,D2,1,K*%
%TO.N,-5V*%
X13970000Y-15240000D03*
D15*
%TO.P,D2,2,A*%
%TO.N,Net-(D2-A)*%
X13970000Y-17780000D03*
%TD*%
D12*
%TO.P,C5,1*%
%TO.N,+12V*%
X69850000Y-7620000D03*
%TO.P,C5,2*%
%TO.N,GND*%
X72350000Y-7620000D03*
%TD*%
%TO.P,C8,1*%
%TO.N,+12V*%
X60920000Y-19050000D03*
%TO.P,C8,2*%
%TO.N,GND*%
X58420000Y-19050000D03*
%TD*%
%TO.P,C6,1*%
%TO.N,+12V*%
X69850000Y-5080000D03*
%TO.P,C6,2*%
%TO.N,GND*%
X74850000Y-5080000D03*
%TD*%
D13*
%TO.P,R4,2*%
%TO.N,Net-(U2-\u03D51)*%
X78740000Y-17780000D03*
D12*
%TO.P,R4,1*%
%TO.N,Net-(U1-OUTA)*%
X78740000Y-10160000D03*
%TD*%
%TO.P,R2,1*%
%TO.N,Net-(D1-A)*%
X12700000Y-8890000D03*
D13*
%TO.P,R2,2*%
%TO.N,+12V*%
X20320000Y-8890000D03*
%TD*%
D16*
%TO.P,PS2,1,NC*%
%TO.N,unconnected-(PS2-NC-Pad1)*%
X7620000Y-33020000D03*
D13*
%TO.P,PS2,2,CAP+*%
%TO.N,Net-(PS2-CAP+)*%
X10160000Y-33020000D03*
%TO.P,PS2,3,GND*%
%TO.N,GND*%
X12700000Y-33020000D03*
%TO.P,PS2,4,CAP-*%
%TO.N,Net-(PS2-CAP-)*%
X15240000Y-33020000D03*
%TO.P,PS2,5,VOUT*%
%TO.N,-5V*%
X15240000Y-25400000D03*
%TO.P,PS2,6,LV*%
%TO.N,unconnected-(PS2-LV-Pad6)*%
X12700000Y-25400000D03*
%TO.P,PS2,7,OSC*%
%TO.N,unconnected-(PS2-OSC-Pad7)*%
X10160000Y-25400000D03*
%TO.P,PS2,8,V+*%
%TO.N,+5V*%
X7620000Y-25400000D03*
%TD*%
D12*
%TO.P,C2,1*%
%TO.N,+12V*%
X44370000Y-10160000D03*
%TO.P,C2,2*%
%TO.N,GND*%
X39370000Y-10160000D03*
%TD*%
D17*
%TO.P,J2,1,Pin_1*%
%TO.N,A10*%
X25400000Y-87630000D03*
D18*
%TO.P,J2,2,Pin_2*%
%TO.N,A11*%
X27940000Y-87630000D03*
%TO.P,J2,3,Pin_3*%
%TO.N,RESET*%
X30480000Y-87630000D03*
%TO.P,J2,4,Pin_4*%
%TO.N,A14*%
X33020000Y-87630000D03*
%TO.P,J2,5,Pin_5*%
%TO.N,A13*%
X35560000Y-87630000D03*
%TO.P,J2,6,Pin_6*%
%TO.N,A12*%
X38100000Y-87630000D03*
%TO.P,J2,7,Pin_7*%
%TO.N,A15*%
X40640000Y-87630000D03*
%TO.P,J2,8,Pin_8*%
%TO.N,A9*%
X43180000Y-87630000D03*
%TO.P,J2,9,Pin_9*%
%TO.N,A8*%
X45720000Y-87630000D03*
%TO.P,J2,10,Pin_10*%
%TO.N,A7*%
X48260000Y-87630000D03*
%TO.P,J2,11,Pin_11*%
%TO.N,A6*%
X50800000Y-87630000D03*
%TO.P,J2,12,Pin_12*%
%TO.N,A5*%
X53340000Y-87630000D03*
%TO.P,J2,13,Pin_13*%
%TO.N,A4*%
X55880000Y-87630000D03*
%TO.P,J2,14,Pin_14*%
%TO.N,A3*%
X58420000Y-87630000D03*
%TO.P,J2,15,Pin_15*%
%TO.N,A2*%
X60960000Y-87630000D03*
%TO.P,J2,16,Pin_16*%
%TO.N,A1*%
X63500000Y-87630000D03*
%TO.P,J2,17,Pin_17*%
%TO.N,A0*%
X66040000Y-87630000D03*
%TO.P,J2,18,Pin_18*%
%TO.N,WR_n*%
X68580000Y-87630000D03*
%TO.P,J2,19,Pin_19*%
%TO.N,3V3a*%
X71120000Y-87630000D03*
%TO.P,J2,20,Pin_20*%
%TO.N,GND*%
X73660000Y-87630000D03*
%TD*%
D16*
%TO.P,U1,1,NC*%
%TO.N,unconnected-(U1-NC-Pad1)*%
X64770000Y-17780000D03*
D13*
%TO.P,U1,2,INA*%
%TO.N,CLK1*%
X67310000Y-17780000D03*
%TO.P,U1,3,GND*%
%TO.N,GND*%
X69850000Y-17780000D03*
%TO.P,U1,4,INB*%
%TO.N,CLK2*%
X72390000Y-17780000D03*
%TO.P,U1,5,OUTB*%
%TO.N,Net-(U1-OUTB)*%
X72390000Y-10160000D03*
%TO.P,U1,6,Vs*%
%TO.N,+12V*%
X69850000Y-10160000D03*
%TO.P,U1,7,OUTA*%
%TO.N,Net-(U1-OUTA)*%
X67310000Y-10160000D03*
%TO.P,U1,8,NC*%
%TO.N,unconnected-(U1-NC-Pad8)*%
X64770000Y-10160000D03*
%TD*%
D19*
%TO.P,U2,1,A10*%
%TO.N,A10*%
X30480000Y-40640000D03*
D20*
%TO.P,U2,2,GND*%
%TO.N,GND*%
X33020000Y-40640000D03*
%TO.P,U2,3,D4*%
%TO.N,D4*%
X35560000Y-40640000D03*
%TO.P,U2,4,D5*%
%TO.N,D5*%
X38100000Y-40640000D03*
%TO.P,U2,5,D6*%
%TO.N,D6*%
X40640000Y-40640000D03*
%TO.P,U2,6,D7*%
%TO.N,D7*%
X43180000Y-40640000D03*
%TO.P,U2,7,D3*%
%TO.N,D3*%
X45720000Y-40640000D03*
%TO.P,U2,8,D2*%
%TO.N,D2*%
X48260000Y-40640000D03*
%TO.P,U2,9,D1*%
%TO.N,D1*%
X50800000Y-40640000D03*
%TO.P,U2,10,D0*%
%TO.N,D0*%
X53340000Y-40640000D03*
%TO.P,U2,11,-5V*%
%TO.N,-5V*%
X55880000Y-40640000D03*
%TO.P,U2,12,RESET*%
%TO.N,RESET*%
X58420000Y-40640000D03*
%TO.P,U2,13,HOLD*%
%TO.N,HOLD*%
X60960000Y-40640000D03*
%TO.P,U2,14,INT*%
%TO.N,INT*%
X63500000Y-40640000D03*
%TO.P,U2,15,\u03D52*%
%TO.N,Net-(U2-\u03D52)*%
X66040000Y-40640000D03*
%TO.P,U2,16,INTE*%
%TO.N,unconnected-(U2-INTE-Pad16)*%
X68580000Y-40640000D03*
%TO.P,U2,17,DBIN*%
%TO.N,DBIN*%
X71120000Y-40640000D03*
%TO.P,U2,18,~{WR}*%
%TO.N,WR_n*%
X73660000Y-40640000D03*
%TO.P,U2,19,SYNC*%
%TO.N,SYNC*%
X76200000Y-40640000D03*
%TO.P,U2,20,+5V*%
%TO.N,+5V*%
X78740000Y-40640000D03*
%TO.P,U2,21,HLDA*%
%TO.N,HLDA*%
X78740000Y-25400000D03*
%TO.P,U2,22,\u03D51*%
%TO.N,Net-(U2-\u03D51)*%
X76200000Y-25400000D03*
%TO.P,U2,23,READY*%
%TO.N,READY*%
X73660000Y-25400000D03*
%TO.P,U2,24,WAIT*%
%TO.N,unconnected-(U2-WAIT-Pad24)*%
X71120000Y-25400000D03*
%TO.P,U2,25,A0*%
%TO.N,A0*%
X68580000Y-25400000D03*
%TO.P,U2,26,A1*%
%TO.N,A1*%
X66040000Y-25400000D03*
%TO.P,U2,27,A2*%
%TO.N,A2*%
X63500000Y-25400000D03*
%TO.P,U2,28,+12V*%
%TO.N,+12V*%
X60960000Y-25400000D03*
%TO.P,U2,29,A3*%
%TO.N,A3*%
X58420000Y-25400000D03*
%TO.P,U2,30,A4*%
%TO.N,A4*%
X55880000Y-25400000D03*
%TO.P,U2,31,A5*%
%TO.N,A5*%
X53340000Y-25400000D03*
%TO.P,U2,32,A6*%
%TO.N,A6*%
X50800000Y-25400000D03*
%TO.P,U2,33,A7*%
%TO.N,A7*%
X48260000Y-25400000D03*
%TO.P,U2,34,A8*%
%TO.N,A8*%
X45720000Y-25400000D03*
%TO.P,U2,35,A9*%
%TO.N,A9*%
X43180000Y-25400000D03*
%TO.P,U2,36,A15*%
%TO.N,A15*%
X40640000Y-25400000D03*
%TO.P,U2,37,A12*%
%TO.N,A12*%
X38100000Y-25400000D03*
%TO.P,U2,38,A13*%
%TO.N,A13*%
X35560000Y-25400000D03*
%TO.P,U2,39,A14*%
%TO.N,A14*%
X33020000Y-25400000D03*
%TO.P,U2,40,A11*%
%TO.N,A11*%
X30480000Y-25400000D03*
%TD*%
D16*
%TO.P,J1,1,Pin_1*%
%TO.N,A10*%
X25400000Y-81280000D03*
D13*
%TO.P,J1,2,Pin_2*%
%TO.N,A11*%
X27940000Y-81280000D03*
%TO.P,J1,3,Pin_3*%
%TO.N,RESET*%
X30480000Y-81280000D03*
%TO.P,J1,4,Pin_4*%
%TO.N,A14*%
X33020000Y-81280000D03*
%TO.P,J1,5,Pin_5*%
%TO.N,A13*%
X35560000Y-81280000D03*
%TO.P,J1,6,Pin_6*%
%TO.N,A12*%
X38100000Y-81280000D03*
%TO.P,J1,7,Pin_7*%
%TO.N,A15*%
X40640000Y-81280000D03*
%TO.P,J1,8,Pin_8*%
%TO.N,A9*%
X43180000Y-81280000D03*
%TO.P,J1,9,Pin_9*%
%TO.N,A8*%
X45720000Y-81280000D03*
%TO.P,J1,10,Pin_10*%
%TO.N,A7*%
X48260000Y-81280000D03*
%TO.P,J1,11,Pin_11*%
%TO.N,A6*%
X50800000Y-81280000D03*
%TO.P,J1,12,Pin_12*%
%TO.N,A5*%
X53340000Y-81280000D03*
%TO.P,J1,13,Pin_13*%
%TO.N,A4*%
X55880000Y-81280000D03*
%TO.P,J1,14,Pin_14*%
%TO.N,A3*%
X58420000Y-81280000D03*
%TO.P,J1,15,Pin_15*%
%TO.N,A2*%
X60960000Y-81280000D03*
%TO.P,J1,16,Pin_16*%
%TO.N,A1*%
X63500000Y-81280000D03*
%TO.P,J1,17,Pin_17*%
%TO.N,A0*%
X66040000Y-81280000D03*
%TO.P,J1,18,Pin_18*%
%TO.N,WR_n*%
X68580000Y-81280000D03*
%TO.P,J1,19,Pin_19*%
%TO.N,3V3a*%
X71120000Y-81280000D03*
%TO.P,J1,20,Pin_20*%
%TO.N,GND*%
X73660000Y-81280000D03*
%TO.P,J1,21,Pin_21*%
%TO.N,INT*%
X73660000Y-66040000D03*
%TO.P,J1,22,Pin_22*%
%TO.N,HOLD*%
X71120000Y-66040000D03*
%TO.P,J1,23,Pin_23*%
%TO.N,HLDA*%
X68580000Y-66040000D03*
%TO.P,J1,24,Pin_24*%
%TO.N,DBIN*%
X66040000Y-66040000D03*
%TO.P,J1,25,Pin_25*%
%TO.N,3V3b*%
X63500000Y-66040000D03*
%TO.P,J1,26,Pin_26*%
%TO.N,GND*%
X60960000Y-66040000D03*
%TO.P,J1,27,Pin_27*%
%TO.N,LED_RGB*%
X58420000Y-66040000D03*
%TO.P,J1,28,Pin_28*%
%TO.N,SYNC*%
X55880000Y-66040000D03*
%TO.P,J1,29,Pin_29*%
%TO.N,D0*%
X53340000Y-66040000D03*
%TO.P,J1,30,Pin_30*%
%TO.N,D1*%
X50800000Y-66040000D03*
%TO.P,J1,31,Pin_31*%
%TO.N,D2*%
X48260000Y-66040000D03*
%TO.P,J1,32,Pin_32*%
%TO.N,D3*%
X45720000Y-66040000D03*
%TO.P,J1,33,Pin_33*%
%TO.N,D7*%
X43180000Y-66040000D03*
%TO.P,J1,34,Pin_34*%
%TO.N,D6*%
X40640000Y-66040000D03*
%TO.P,J1,35,Pin_35*%
%TO.N,D5*%
X38100000Y-66040000D03*
%TO.P,J1,36,Pin_36*%
%TO.N,D4*%
X35560000Y-66040000D03*
%TO.P,J1,37,Pin_37*%
%TO.N,CLK2*%
X33020000Y-66040000D03*
%TO.P,J1,38,Pin_38*%
%TO.N,CLK1*%
X30480000Y-66040000D03*
%TO.P,J1,39,Pin_39*%
%TO.N,GND*%
X27940000Y-66040000D03*
%TO.P,J1,40,Pin_40*%
%TO.N,+5V*%
X25400000Y-66040000D03*
%TD*%
D14*
%TO.P,D1,1,K*%
%TO.N,GND*%
X19050000Y-15240000D03*
D15*
%TO.P,D1,2,A*%
%TO.N,Net-(D1-A)*%
X19050000Y-17780000D03*
%TD*%
D16*
%TO.P,RN2,1,common*%
%TO.N,+5V*%
X66040000Y-49530000D03*
D13*
%TO.P,RN2,2,R1*%
%TO.N,RESET*%
X68580000Y-49530000D03*
%TO.P,RN2,3,R2*%
%TO.N,HOLD*%
X71120000Y-49530000D03*
%TO.P,RN2,4,R3*%
%TO.N,INT*%
X73660000Y-49530000D03*
%TO.P,RN2,5,R4*%
%TO.N,READY*%
X76200000Y-49530000D03*
%TD*%
D16*
%TO.P,RN1,1,common*%
%TO.N,+5V*%
X33020000Y-49530000D03*
D13*
%TO.P,RN1,2,R1*%
%TO.N,D4*%
X35560000Y-49530000D03*
%TO.P,RN1,3,R2*%
%TO.N,D5*%
X38100000Y-49530000D03*
%TO.P,RN1,4,R3*%
%TO.N,D6*%
X40640000Y-49530000D03*
%TO.P,RN1,5,R4*%
%TO.N,D7*%
X43180000Y-49530000D03*
%TO.P,RN1,6,R5*%
%TO.N,D3*%
X45720000Y-49530000D03*
%TO.P,RN1,7,R6*%
%TO.N,D2*%
X48260000Y-49530000D03*
%TO.P,RN1,8,R7*%
%TO.N,D1*%
X50800000Y-49530000D03*
%TO.P,RN1,9,R8*%
%TO.N,D0*%
X53340000Y-49530000D03*
%TD*%
D12*
%TO.P,R5,1*%
%TO.N,Net-(U1-OUTB)*%
X76200000Y-10160000D03*
D13*
%TO.P,R5,2*%
%TO.N,Net-(U2-\u03D52)*%
X76200000Y-17780000D03*
%TD*%
D12*
%TO.P,C3,1*%
%TO.N,Net-(PS2-CAP+)*%
X10160000Y-35560000D03*
%TO.P,C3,2*%
%TO.N,Net-(PS2-CAP-)*%
X15160000Y-35560000D03*
%TD*%
%TO.P,C1,1*%
%TO.N,+5V*%
X30480000Y-10160000D03*
%TO.P,C1,2*%
%TO.N,GND*%
X35480000Y-10160000D03*
%TD*%
D21*
%TO.P,PS1,1,+VIN*%
%TO.N,+5V*%
X31750000Y-13970000D03*
D22*
%TO.P,PS1,2,-VIN*%
%TO.N,GND*%
X34290000Y-13970000D03*
%TO.P,PS1,4,-VOUT*%
X39370000Y-13970000D03*
%TO.P,PS1,6,+VOUT*%
%TO.N,+12V*%
X44450000Y-13970000D03*
%TD*%
D12*
%TO.P,C7,1*%
%TO.N,+5V*%
X81280000Y-46990000D03*
%TO.P,C7,2*%
%TO.N,GND*%
X83780000Y-46990000D03*
%TD*%
D17*
%TO.P,J3,1,Pin_1*%
%TO.N,+5V*%
X25400000Y-59690000D03*
D18*
%TO.P,J3,2,Pin_2*%
%TO.N,GND*%
X27940000Y-59690000D03*
%TO.P,J3,3,Pin_3*%
%TO.N,CLK1*%
X30480000Y-59690000D03*
%TO.P,J3,4,Pin_4*%
%TO.N,CLK2*%
X33020000Y-59690000D03*
%TO.P,J3,5,Pin_5*%
%TO.N,D4*%
X35560000Y-59690000D03*
%TO.P,J3,6,Pin_6*%
%TO.N,D5*%
X38100000Y-59690000D03*
%TO.P,J3,7,Pin_7*%
%TO.N,D6*%
X40640000Y-59690000D03*
%TO.P,J3,8,Pin_8*%
%TO.N,D7*%
X43180000Y-59690000D03*
%TO.P,J3,9,Pin_9*%
%TO.N,D3*%
X45720000Y-59690000D03*
%TO.P,J3,10,Pin_10*%
%TO.N,D2*%
X48260000Y-59690000D03*
%TO.P,J3,11,Pin_11*%
%TO.N,D1*%
X50800000Y-59690000D03*
%TO.P,J3,12,Pin_12*%
%TO.N,D0*%
X53340000Y-59690000D03*
%TO.P,J3,13,Pin_13*%
%TO.N,SYNC*%
X55880000Y-59690000D03*
%TO.P,J3,14,Pin_14*%
%TO.N,LED_RGB*%
X58420000Y-59690000D03*
%TO.P,J3,15,Pin_15*%
%TO.N,GND*%
X60960000Y-59690000D03*
%TO.P,J3,16,Pin_16*%
%TO.N,3V3b*%
X63500000Y-59690000D03*
%TO.P,J3,17,Pin_17*%
%TO.N,DBIN*%
X66040000Y-59690000D03*
%TO.P,J3,18,Pin_18*%
%TO.N,HLDA*%
X68580000Y-59690000D03*
%TO.P,J3,19,Pin_19*%
%TO.N,HOLD*%
X71120000Y-59690000D03*
%TO.P,J3,20,Pin_20*%
%TO.N,INT*%
X73660000Y-59690000D03*
%TD*%
D12*
%TO.P,C4,1*%
%TO.N,-5V*%
X15160000Y-22860000D03*
%TO.P,C4,2*%
%TO.N,GND*%
X10160000Y-22860000D03*
%TD*%
%TO.P,R1,1*%
%TO.N,+12V*%
X44450000Y-6350000D03*
D13*
%TO.P,R1,2*%
%TO.N,GND*%
X36830000Y-6350000D03*
%TD*%
D23*
%TO.N,INT*%
X63500000Y-46175000D03*
%TO.N,RESET*%
X19685000Y-82550000D03*
X58420000Y-47625000D03*
X19685000Y-47625000D03*
%TO.N,SYNC*%
X77470000Y-68580000D03*
%TO.N,HLDA*%
X78740000Y-67310000D03*
%TO.N,HOLD*%
X60960000Y-46900000D03*
%TO.N,DBIN*%
X66040000Y-43180000D03*
%TD*%
D24*
%TO.N,Net-(U1-OUTA)*%
X68560000Y-11410000D02*
X67310000Y-10160000D01*
X77490000Y-11410000D02*
X68560000Y-11410000D01*
X78740000Y-10160000D02*
X77490000Y-11410000D01*
%TO.N,Net-(U1-OUTB)*%
X76200000Y-10160000D02*
X72390000Y-10160000D01*
%TO.N,Net-(U2-\u03D52)*%
X66645370Y-20320000D02*
X73660000Y-20320000D01*
X62230000Y-24735370D02*
X66645370Y-20320000D01*
X73660000Y-20320000D02*
X76200000Y-17780000D01*
X62230000Y-30480000D02*
X62230000Y-24735370D01*
X66040000Y-34290000D02*
X62230000Y-30480000D01*
X66040000Y-40640000D02*
X66040000Y-34290000D01*
%TO.N,Net-(U2-\u03D51)*%
X76200000Y-22860000D02*
X76200000Y-25400000D01*
X78740000Y-20320000D02*
X76200000Y-22860000D01*
X78740000Y-17780000D02*
X78740000Y-20320000D01*
%TO.N,CLK2*%
X32180000Y-17350000D02*
X28575000Y-20955000D01*
X28575000Y-20955000D02*
X28575000Y-55245000D01*
X32180000Y-17350000D02*
X61840000Y-17350000D01*
X28575000Y-55245000D02*
X33020000Y-59690000D01*
X61840000Y-17350000D02*
X63520000Y-19030000D01*
D25*
%TO.N,+12V*%
X42465000Y-8255000D02*
X44370000Y-10160000D01*
X20955000Y-8255000D02*
X42465000Y-8255000D01*
X20320000Y-8890000D02*
X20955000Y-8255000D01*
%TO.N,Net-(D1-A)*%
X17145000Y-11430000D02*
X14605000Y-8890000D01*
X17145000Y-15785000D02*
X17145000Y-11430000D01*
X14605000Y-8890000D02*
X12700000Y-8890000D01*
X19050000Y-17690000D02*
X17145000Y-15785000D01*
%TO.N,Net-(D2-A)*%
X13970000Y-17780000D02*
X12700000Y-16510000D01*
X12700000Y-16510000D02*
X12700000Y-11430000D01*
%TO.N,-5V*%
X15959999Y-17229999D02*
X13970000Y-15240000D01*
X15160000Y-22860000D02*
X15959999Y-22060001D01*
X15959999Y-22060001D02*
X15959999Y-17229999D01*
D26*
%TO.N,GND*%
X60960000Y-66040000D02*
X60960000Y-59690000D01*
D27*
X27940000Y-66040000D02*
X27940000Y-59690000D01*
X73660000Y-87630000D02*
X73660000Y-81280000D01*
D28*
%TO.N,+5V*%
X31750000Y-13970000D02*
X30480000Y-12700000D01*
X30480000Y-12700000D02*
X30480000Y-10160000D01*
X22860000Y-27940000D02*
X22860000Y-57150000D01*
X81280000Y-42875000D02*
X79045000Y-40640000D01*
D27*
X7620000Y-25400000D02*
X7620000Y-26531370D01*
D28*
X30480000Y-12700000D02*
X27298019Y-12700000D01*
D27*
X9028630Y-27940000D02*
X22860000Y-27940000D01*
X7620000Y-26531370D02*
X9028630Y-27940000D01*
D28*
X81280000Y-46990000D02*
X81280000Y-42875000D01*
X25400000Y-66040000D02*
X25400000Y-59690000D01*
X22860000Y-57150000D02*
X25400000Y-59690000D01*
X27298019Y-12700000D02*
X22860000Y-17138019D01*
X22860000Y-17138019D02*
X22860000Y-27940000D01*
D26*
%TO.N,Net-(PS2-CAP+)*%
X10160000Y-35560000D02*
X10160000Y-33020000D01*
%TO.N,Net-(PS2-CAP-)*%
X15240000Y-33020000D02*
X15240000Y-35480000D01*
%TO.N,A11*%
X27940000Y-87630000D02*
X27940000Y-81280000D01*
D25*
X27940000Y-81280000D02*
X36735000Y-72485000D01*
X30480000Y-29210000D02*
X30480000Y-25400000D01*
X36735000Y-72485000D02*
X36735000Y-35465000D01*
X36735000Y-35465000D02*
X30480000Y-29210000D01*
D26*
%TO.N,D4*%
X35560000Y-66040000D02*
X35560000Y-59690000D01*
D25*
X35560000Y-49530000D02*
X35560000Y-40640000D01*
X35560000Y-59690000D02*
X35560000Y-49530000D01*
%TO.N,A1*%
X66040000Y-29210000D02*
X66040000Y-25400000D01*
X63500000Y-81280000D02*
X69755000Y-75025000D01*
D26*
X63500000Y-87630000D02*
X63500000Y-81280000D01*
D25*
X69755000Y-75025000D02*
X69755000Y-32925000D01*
X69755000Y-32925000D02*
X66040000Y-29210000D01*
D26*
%TO.N,D2*%
X48260000Y-66040000D02*
X48260000Y-59690000D01*
D25*
X48260000Y-59690000D02*
X48260000Y-49530000D01*
X48260000Y-49530000D02*
X48260000Y-40640000D01*
D26*
%TO.N,INT*%
X73660000Y-66040000D02*
X73660000Y-59690000D01*
D25*
X73660000Y-49530000D02*
X73660000Y-59690000D01*
X63500000Y-46175000D02*
X63500000Y-40640000D01*
D27*
%TO.N,3V3a*%
X71120000Y-87630000D02*
X71120000Y-81280000D01*
D25*
%TO.N,A0*%
X66040000Y-81280000D02*
X72295000Y-75025000D01*
X72295000Y-75025000D02*
X72295000Y-32925000D01*
X72295000Y-32925000D02*
X68580000Y-29210000D01*
X68580000Y-29210000D02*
X68580000Y-25400000D01*
D26*
X66040000Y-87630000D02*
X66040000Y-81280000D01*
D25*
%TO.N,D7*%
X43180000Y-49530000D02*
X43180000Y-40640000D01*
X43180000Y-59690000D02*
X43180000Y-49530000D01*
D26*
X43180000Y-66040000D02*
X43180000Y-59690000D01*
D25*
%TO.N,A12*%
X44355000Y-75025000D02*
X44355000Y-35465000D01*
D26*
X38100000Y-87630000D02*
X38100000Y-81280000D01*
D25*
X38100000Y-81280000D02*
X44355000Y-75025000D01*
X44355000Y-35465000D02*
X38100000Y-29210000D01*
X38100000Y-29210000D02*
X38100000Y-25400000D01*
%TO.N,A2*%
X63500000Y-29210000D02*
X63500000Y-25400000D01*
X67215000Y-75025000D02*
X67215000Y-32925000D01*
X67215000Y-32925000D02*
X63500000Y-29210000D01*
X60960000Y-81280000D02*
X67215000Y-75025000D01*
D26*
X60960000Y-87630000D02*
X60960000Y-81280000D01*
%TO.N,3V3b*%
X63500000Y-66040000D02*
X63500000Y-59690000D01*
D25*
%TO.N,A15*%
X46895000Y-35465000D02*
X40640000Y-29210000D01*
X40640000Y-81280000D02*
X46895000Y-75025000D01*
X46895000Y-75025000D02*
X46895000Y-35465000D01*
D26*
X40640000Y-87630000D02*
X40640000Y-81280000D01*
D25*
X40640000Y-29210000D02*
X40640000Y-25400000D01*
D26*
%TO.N,LED_RGB*%
X58420000Y-66040000D02*
X58420000Y-59690000D01*
%TO.N,RESET*%
X30480000Y-87630000D02*
X30480000Y-81280000D01*
D25*
X19685000Y-47625000D02*
X19685000Y-82550000D01*
X58420000Y-47625000D02*
X58420000Y-40640000D01*
D24*
%TO.N,SYNC*%
X77450000Y-67330000D02*
X77450000Y-48075000D01*
X77470000Y-68580000D02*
X77470000Y-67350000D01*
X77450000Y-48075000D02*
X76200000Y-46825000D01*
X76200000Y-46825000D02*
X76200000Y-40640000D01*
X77470000Y-67350000D02*
X77450000Y-67330000D01*
D26*
X55880000Y-66040000D02*
X55880000Y-59690000D01*
D25*
%TO.N,A5*%
X59595000Y-35465000D02*
X53340000Y-29210000D01*
X53340000Y-81280000D02*
X59595000Y-75025000D01*
X53340000Y-29210000D02*
X53340000Y-25400000D01*
D26*
X53340000Y-87630000D02*
X53340000Y-81280000D01*
D25*
X59595000Y-75025000D02*
X59595000Y-35465000D01*
D26*
%TO.N,WR_n*%
X68580000Y-87630000D02*
X68580000Y-81280000D01*
D25*
X73660000Y-40640000D02*
X73660000Y-47939009D01*
X74835000Y-75025000D02*
X68580000Y-81280000D01*
X74835000Y-49114009D02*
X74835000Y-75025000D01*
X73660000Y-47939009D02*
X74835000Y-49114009D01*
%TO.N,A3*%
X58420000Y-29210000D02*
X58420000Y-25400000D01*
X64675000Y-35465000D02*
X58420000Y-29210000D01*
X64675000Y-43908604D02*
X64225000Y-44358604D01*
D26*
X58420000Y-87630000D02*
X58420000Y-81280000D01*
D25*
X64225000Y-44358604D02*
X64225000Y-58563299D01*
X64675000Y-35465000D02*
X64675000Y-43908604D01*
X58420000Y-81280000D02*
X64675000Y-75025000D01*
X64225000Y-58563299D02*
X64675000Y-59013299D01*
X64675000Y-59013299D02*
X64675000Y-75025000D01*
D26*
%TO.N,D5*%
X38100000Y-66040000D02*
X38100000Y-59690000D01*
D25*
X38100000Y-59690000D02*
X38100000Y-49530000D01*
X38100000Y-49530000D02*
X38100000Y-40640000D01*
%TO.N,HLDA*%
X77470000Y-30480000D02*
X78740000Y-29210000D01*
X78740000Y-48540991D02*
X77470000Y-47270991D01*
X78740000Y-29210000D02*
X78740000Y-25400000D01*
D26*
X68580000Y-66040000D02*
X68580000Y-59690000D01*
D25*
X78740000Y-67310000D02*
X78740000Y-48540991D01*
X77470000Y-47270991D02*
X77470000Y-30480000D01*
%TO.N,HOLD*%
X71120000Y-49530000D02*
X71120000Y-59690000D01*
X60960000Y-46900000D02*
X60960000Y-40640000D01*
D26*
X71120000Y-66040000D02*
X71120000Y-59690000D01*
%TO.N,D3*%
X45720000Y-66040000D02*
X45720000Y-59690000D01*
D25*
X45720000Y-40640000D02*
X45720000Y-49530000D01*
X45720000Y-59690000D02*
X45720000Y-49530000D01*
%TO.N,A8*%
X52070000Y-35560000D02*
X45720000Y-29210000D01*
X45720000Y-81280000D02*
X52070000Y-74930000D01*
X52070000Y-74930000D02*
X52070000Y-35560000D01*
D26*
X45720000Y-81280000D02*
X45720000Y-87630000D01*
D25*
X45720000Y-29210000D02*
X45720000Y-25400000D01*
%TO.N,A7*%
X54515000Y-35465000D02*
X48260000Y-29210000D01*
X48260000Y-81280000D02*
X54515000Y-75025000D01*
D26*
X48260000Y-87630000D02*
X48260000Y-81280000D01*
D25*
X54515000Y-75025000D02*
X54515000Y-35465000D01*
X48260000Y-29210000D02*
X48260000Y-25400000D01*
%TO.N,A13*%
X35560000Y-81280000D02*
X41815000Y-75025000D01*
D26*
X35560000Y-81280000D02*
X35560000Y-87630000D01*
D25*
X41815000Y-75025000D02*
X41815000Y-35465000D01*
X35560000Y-29210000D02*
X35560000Y-25400000D01*
X41815000Y-35465000D02*
X35560000Y-29210000D01*
%TO.N,A14*%
X39275000Y-35465000D02*
X33020000Y-29210000D01*
X33020000Y-29210000D02*
X33020000Y-25400000D01*
X33020000Y-81280000D02*
X39275000Y-75025000D01*
X39275000Y-75025000D02*
X39275000Y-35465000D01*
D26*
X33020000Y-87630000D02*
X33020000Y-81280000D01*
%TO.N,A10*%
X25400000Y-81280000D02*
X25400000Y-87630000D01*
D25*
X34290000Y-72390000D02*
X25400000Y-81280000D01*
X30480000Y-43180000D02*
X34290000Y-46990000D01*
X34290000Y-46990000D02*
X34290000Y-72390000D01*
X30480000Y-40640000D02*
X30480000Y-43180000D01*
%TO.N,D1*%
X50800000Y-59690000D02*
X50800000Y-49530000D01*
X50800000Y-49530000D02*
X50800000Y-40640000D01*
D26*
X50800000Y-66040000D02*
X50800000Y-59690000D01*
D24*
%TO.N,CLK1*%
X27240000Y-56450000D02*
X27240000Y-19750000D01*
X31115000Y-15875000D02*
X65405000Y-15875000D01*
D26*
X30480000Y-66040000D02*
X30480000Y-59690000D01*
D24*
X65405000Y-15875000D02*
X67310000Y-17780000D01*
X30480000Y-59690000D02*
X27240000Y-56450000D01*
X27240000Y-19750000D02*
X31115000Y-15875000D01*
D25*
%TO.N,DBIN*%
X66040000Y-56515000D02*
X66040000Y-59690000D01*
X66040000Y-43180000D02*
X64915000Y-44305000D01*
D26*
X66040000Y-66040000D02*
X66040000Y-59690000D01*
D25*
X64915000Y-44305000D02*
X64915000Y-55390000D01*
X64915000Y-55390000D02*
X66040000Y-56515000D01*
D24*
%TO.N,CLK2*%
X71140000Y-19030000D02*
X72390000Y-17780000D01*
X63520000Y-19030000D02*
X71140000Y-19030000D01*
D26*
X33020000Y-66040000D02*
X33020000Y-59690000D01*
D25*
%TO.N,A4*%
X55880000Y-29210000D02*
X55880000Y-25400000D01*
D26*
X55880000Y-81280000D02*
X55880000Y-87630000D01*
D25*
X62135000Y-75025000D02*
X62135000Y-35465000D01*
X62135000Y-35465000D02*
X55880000Y-29210000D01*
X55880000Y-81280000D02*
X62135000Y-75025000D01*
D26*
%TO.N,D0*%
X53340000Y-66040000D02*
X53340000Y-59690000D01*
D25*
X53340000Y-59690000D02*
X53340000Y-49530000D01*
X53340000Y-49530000D02*
X53340000Y-40640000D01*
%TO.N,A9*%
X43180000Y-29210000D02*
X43180000Y-25400000D01*
X49435000Y-75025000D02*
X49435000Y-35465000D01*
D26*
X43180000Y-87630000D02*
X43180000Y-81280000D01*
D25*
X43180000Y-81280000D02*
X49435000Y-75025000D01*
X49435000Y-35465000D02*
X43180000Y-29210000D01*
%TO.N,A6*%
X50800000Y-81280000D02*
X57055000Y-75025000D01*
X57055000Y-75025000D02*
X57055000Y-35465000D01*
X50800000Y-29210000D02*
X50800000Y-25400000D01*
D26*
X50800000Y-87630000D02*
X50800000Y-81280000D01*
D25*
X57055000Y-35465000D02*
X50800000Y-29210000D01*
%TO.N,D6*%
X40640000Y-59690000D02*
X40640000Y-49530000D01*
D26*
X40640000Y-66040000D02*
X40640000Y-59690000D01*
D25*
X40640000Y-49530000D02*
X40640000Y-40640000D01*
%TO.N,READY*%
X73660000Y-25400000D02*
X73660000Y-31750000D01*
X75155000Y-33245000D02*
X75155000Y-48485000D01*
X75155000Y-48485000D02*
X76200000Y-49530000D01*
X73660000Y-31750000D02*
X75155000Y-33245000D01*
%TD*%
M02*
