M48
; DRILL file {KiCad 8.0.4} date 2024-08-29T15:53:51+0900
; FORMAT={-:-/ absolute / inch / decimal}
; #@! TF.CreationDate,2024-08-29T15:53:51+09:00
; #@! TF.GenerationSoftware,Kicad,Pcbnew,8.0.4
; #@! TF.FileFunction,Plated,1,2,PTH
FMAT,2
INCH
; #@! TA.AperFunction,Plated,PTH,ViaDrill
T1C0.0157
; #@! TA.AperFunction,Plated,PTH,ComponentDrill
T2C0.0315
; #@! TA.AperFunction,Plated,PTH,ComponentDrill
T3C0.0335
; #@! TA.AperFunction,Plated,PTH,ComponentDrill
T4C0.0354
; #@! TA.AperFunction,Plated,PTH,ComponentDrill
T5C0.0394
%
G90
G05
T1
X0.775Y-1.875
X0.775Y-3.25
X2.3Y-1.875
X2.4Y-1.8465
X2.5Y-1.8179
X2.6Y-1.7
X3.05Y-2.7
X3.1Y-2.65
T2
X0.3Y-1.0
X0.3Y-1.3
X0.4Y-0.9
X0.4Y-1.0
X0.4Y-1.3
X0.4Y-1.4
X0.5Y-0.35
X0.5Y-0.45
X0.5Y-1.0
X0.5Y-1.3
X0.5969Y-0.9
X0.5969Y-1.4
X0.6Y-1.0
X0.6Y-1.3
X0.8Y-0.35
X0.8Y-0.45
X1.0Y-2.6
X1.0Y-3.2
X1.1Y-2.6
X1.1Y-3.2
X1.2Y-0.4
X1.2Y-2.6
X1.2Y-3.2
X1.3Y-1.95
X1.3Y-2.6
X1.3Y-3.2
X1.3969Y-0.4
X1.4Y-1.95
X1.4Y-2.6
X1.4Y-3.2
X1.45Y-0.25
X1.5Y-1.95
X1.5Y-2.6
X1.5Y-3.2
X1.55Y-0.4
X1.6Y-1.95
X1.6Y-2.6
X1.6Y-3.2
X1.7Y-1.95
X1.7Y-2.6
X1.7Y-3.2
X1.7469Y-0.4
X1.75Y-0.25
X1.8Y-1.95
X1.8Y-2.6
X1.8Y-3.2
X1.9Y-1.95
X1.9Y-2.6
X1.9Y-3.2
X2.0Y-1.95
X2.0Y-2.6
X2.0Y-3.2
X2.1Y-1.95
X2.1Y-2.6
X2.1Y-3.2
X2.2Y-2.6
X2.2Y-3.2
X2.3Y-0.75
X2.3Y-2.6
X2.3Y-3.2
X2.3984Y-0.75
X2.4Y-2.6
X2.4Y-3.2
X2.5Y-2.6
X2.5Y-3.2
X2.55Y-0.4
X2.55Y-0.7
X2.6Y-1.95
X2.6Y-2.6
X2.6Y-3.2
X2.65Y-0.4
X2.65Y-0.7
X2.7Y-1.95
X2.7Y-2.6
X2.7Y-3.2
X2.75Y-0.2
X2.75Y-0.3
X2.75Y-0.4
X2.75Y-0.7
X2.8Y-1.95
X2.8Y-2.6
X2.8Y-3.2
X2.8484Y-0.3
X2.85Y-0.4
X2.85Y-0.7
X2.9Y-1.95
X2.9Y-2.6
X2.9Y-3.2
X2.9469Y-0.2
X3.0Y-0.4
X3.0Y-0.7
X3.0Y-1.95
X3.1Y-0.4
X3.1Y-0.7
X3.2Y-1.85
X3.2984Y-1.85
T3
X1.25Y-0.55
X1.35Y-0.55
X1.55Y-0.55
X1.75Y-0.55
T4
X0.55Y-0.6
X0.55Y-0.7
X0.75Y-0.6
X0.75Y-0.7
T5
X1.0Y-2.35
X1.0Y-3.45
X1.1Y-2.35
X1.1Y-3.45
X1.2Y-1.0
X1.2Y-1.6
X1.2Y-2.35
X1.2Y-3.45
X1.3Y-1.0
X1.3Y-1.6
X1.3Y-2.35
X1.3Y-3.45
X1.4Y-1.0
X1.4Y-1.6
X1.4Y-2.35
X1.4Y-3.45
X1.5Y-1.0
X1.5Y-1.6
X1.5Y-2.35
X1.5Y-3.45
X1.6Y-1.0
X1.6Y-1.6
X1.6Y-2.35
X1.6Y-3.45
X1.7Y-1.0
X1.7Y-1.6
X1.7Y-2.35
X1.7Y-3.45
X1.8Y-1.0
X1.8Y-1.6
X1.8Y-2.35
X1.8Y-3.45
X1.9Y-1.0
X1.9Y-1.6
X1.9Y-2.35
X1.9Y-3.45
X2.0Y-1.0
X2.0Y-1.6
X2.0Y-2.35
X2.0Y-3.45
X2.1Y-1.0
X2.1Y-1.6
X2.1Y-2.35
X2.1Y-3.45
X2.2Y-1.0
X2.2Y-1.6
X2.2Y-2.35
X2.2Y-3.45
X2.3Y-1.0
X2.3Y-1.6
X2.3Y-2.35
X2.3Y-3.45
X2.4Y-1.0
X2.4Y-1.6
X2.4Y-2.35
X2.4Y-3.45
X2.5Y-1.0
X2.5Y-1.6
X2.5Y-2.35
X2.5Y-3.45
X2.6Y-1.0
X2.6Y-1.6
X2.6Y-2.35
X2.6Y-3.45
X2.7Y-1.0
X2.7Y-1.6
X2.7Y-2.35
X2.7Y-3.45
X2.8Y-1.0
X2.8Y-1.6
X2.8Y-2.35
X2.8Y-3.45
X2.9Y-1.0
X2.9Y-1.6
X2.9Y-2.35
X2.9Y-3.45
X3.0Y-1.0
X3.0Y-1.6
X3.1Y-1.0
X3.1Y-1.6
M30
