%TF.GenerationSoftware,KiCad,Pcbnew,8.0.4*%
%TF.CreationDate,2024-08-29T15:53:49+09:00*%
%TF.ProjectId,TangNano8080MEM,54616e67-4e61-46e6-9f38-3038304d454d,rev?*%
%TF.SameCoordinates,Original*%
%TF.FileFunction,Soldermask,Bot*%
%TF.FilePolarity,Negative*%
%FSLAX46Y46*%
G04 Gerber Fmt 4.6, Leading zero omitted, Abs format (unit mm)*
G04 Created by KiCad (PCBNEW 8.0.4) date 2024-08-29 15:53:49*
%MOMM*%
%LPD*%
G01*
G04 APERTURE LIST*
%ADD10C,1.600000*%
%ADD11O,1.600000X1.600000*%
%ADD12R,1.800000X1.800000*%
%ADD13C,1.800000*%
%ADD14C,3.000000*%
%ADD15R,1.600000X1.600000*%
%ADD16R,1.700000X1.700000*%
%ADD17O,1.700000X1.700000*%
%ADD18R,1.440000X2.000000*%
%ADD19O,1.440000X2.000000*%
%ADD20R,1.450000X1.450000*%
%ADD21C,1.450000*%
G04 APERTURE END LIST*
D10*
%TO.C,R3*%
X12700000Y-11430000D03*
D11*
X20320000Y-11430000D03*
%TD*%
D12*
%TO.C,D2*%
X13970000Y-15240000D03*
D13*
X13970000Y-17780000D03*
%TD*%
D10*
%TO.C,C5*%
X69850000Y-7620000D03*
X72350000Y-7620000D03*
%TD*%
D14*
%TO.C,REF\u002A\u002A*%
X93980000Y-93980000D03*
%TD*%
D10*
%TO.C,C8*%
X60920000Y-19050000D03*
X58420000Y-19050000D03*
%TD*%
%TO.C,C6*%
X69850000Y-5080000D03*
X74850000Y-5080000D03*
%TD*%
D11*
%TO.C,R4*%
X78740000Y-17780000D03*
D10*
X78740000Y-10160000D03*
%TD*%
%TO.C,R2*%
X12700000Y-8890000D03*
D11*
X20320000Y-8890000D03*
%TD*%
D15*
%TO.C,PS2*%
X7620000Y-33020000D03*
D11*
X10160000Y-33020000D03*
X12700000Y-33020000D03*
X15240000Y-33020000D03*
X15240000Y-25400000D03*
X12700000Y-25400000D03*
X10160000Y-25400000D03*
X7620000Y-25400000D03*
%TD*%
D10*
%TO.C,C2*%
X44370000Y-10160000D03*
X39370000Y-10160000D03*
%TD*%
D16*
%TO.C,J2*%
X25400000Y-87630000D03*
D17*
X27940000Y-87630000D03*
X30480000Y-87630000D03*
X33020000Y-87630000D03*
X35560000Y-87630000D03*
X38100000Y-87630000D03*
X40640000Y-87630000D03*
X43180000Y-87630000D03*
X45720000Y-87630000D03*
X48260000Y-87630000D03*
X50800000Y-87630000D03*
X53340000Y-87630000D03*
X55880000Y-87630000D03*
X58420000Y-87630000D03*
X60960000Y-87630000D03*
X63500000Y-87630000D03*
X66040000Y-87630000D03*
X68580000Y-87630000D03*
X71120000Y-87630000D03*
X73660000Y-87630000D03*
%TD*%
D15*
%TO.C,U1*%
X64770000Y-17780000D03*
D11*
X67310000Y-17780000D03*
X69850000Y-17780000D03*
X72390000Y-17780000D03*
X72390000Y-10160000D03*
X69850000Y-10160000D03*
X67310000Y-10160000D03*
X64770000Y-10160000D03*
%TD*%
D18*
%TO.C,U2*%
X30480000Y-40640000D03*
D19*
X33020000Y-40640000D03*
X35560000Y-40640000D03*
X38100000Y-40640000D03*
X40640000Y-40640000D03*
X43180000Y-40640000D03*
X45720000Y-40640000D03*
X48260000Y-40640000D03*
X50800000Y-40640000D03*
X53340000Y-40640000D03*
X55880000Y-40640000D03*
X58420000Y-40640000D03*
X60960000Y-40640000D03*
X63500000Y-40640000D03*
X66040000Y-40640000D03*
X68580000Y-40640000D03*
X71120000Y-40640000D03*
X73660000Y-40640000D03*
X76200000Y-40640000D03*
X78740000Y-40640000D03*
X78740000Y-25400000D03*
X76200000Y-25400000D03*
X73660000Y-25400000D03*
X71120000Y-25400000D03*
X68580000Y-25400000D03*
X66040000Y-25400000D03*
X63500000Y-25400000D03*
X60960000Y-25400000D03*
X58420000Y-25400000D03*
X55880000Y-25400000D03*
X53340000Y-25400000D03*
X50800000Y-25400000D03*
X48260000Y-25400000D03*
X45720000Y-25400000D03*
X43180000Y-25400000D03*
X40640000Y-25400000D03*
X38100000Y-25400000D03*
X35560000Y-25400000D03*
X33020000Y-25400000D03*
X30480000Y-25400000D03*
%TD*%
D15*
%TO.C,J1*%
X25400000Y-81280000D03*
D11*
X27940000Y-81280000D03*
X30480000Y-81280000D03*
X33020000Y-81280000D03*
X35560000Y-81280000D03*
X38100000Y-81280000D03*
X40640000Y-81280000D03*
X43180000Y-81280000D03*
X45720000Y-81280000D03*
X48260000Y-81280000D03*
X50800000Y-81280000D03*
X53340000Y-81280000D03*
X55880000Y-81280000D03*
X58420000Y-81280000D03*
X60960000Y-81280000D03*
X63500000Y-81280000D03*
X66040000Y-81280000D03*
X68580000Y-81280000D03*
X71120000Y-81280000D03*
X73660000Y-81280000D03*
X73660000Y-66040000D03*
X71120000Y-66040000D03*
X68580000Y-66040000D03*
X66040000Y-66040000D03*
X63500000Y-66040000D03*
X60960000Y-66040000D03*
X58420000Y-66040000D03*
X55880000Y-66040000D03*
X53340000Y-66040000D03*
X50800000Y-66040000D03*
X48260000Y-66040000D03*
X45720000Y-66040000D03*
X43180000Y-66040000D03*
X40640000Y-66040000D03*
X38100000Y-66040000D03*
X35560000Y-66040000D03*
X33020000Y-66040000D03*
X30480000Y-66040000D03*
X27940000Y-66040000D03*
X25400000Y-66040000D03*
%TD*%
D14*
%TO.C,REF\u002A\u002A*%
X5080000Y-5080000D03*
%TD*%
D12*
%TO.C,D1*%
X19050000Y-15240000D03*
D13*
X19050000Y-17780000D03*
%TD*%
D15*
%TO.C,RN2*%
X66040000Y-49530000D03*
D11*
X68580000Y-49530000D03*
X71120000Y-49530000D03*
X73660000Y-49530000D03*
X76200000Y-49530000D03*
%TD*%
D15*
%TO.C,RN1*%
X33020000Y-49530000D03*
D11*
X35560000Y-49530000D03*
X38100000Y-49530000D03*
X40640000Y-49530000D03*
X43180000Y-49530000D03*
X45720000Y-49530000D03*
X48260000Y-49530000D03*
X50800000Y-49530000D03*
X53340000Y-49530000D03*
%TD*%
D10*
%TO.C,R5*%
X76200000Y-10160000D03*
D11*
X76200000Y-17780000D03*
%TD*%
D10*
%TO.C,C3*%
X10160000Y-35560000D03*
X15160000Y-35560000D03*
%TD*%
%TO.C,C1*%
X30480000Y-10160000D03*
X35480000Y-10160000D03*
%TD*%
D14*
%TO.C,REF\u002A\u002A*%
X5080000Y-93980000D03*
%TD*%
D20*
%TO.C,PS1*%
X31750000Y-13970000D03*
D21*
X34290000Y-13970000D03*
X39370000Y-13970000D03*
X44450000Y-13970000D03*
%TD*%
D10*
%TO.C,C7*%
X81280000Y-46990000D03*
X83780000Y-46990000D03*
%TD*%
D16*
%TO.C,J3*%
X25400000Y-59690000D03*
D17*
X27940000Y-59690000D03*
X30480000Y-59690000D03*
X33020000Y-59690000D03*
X35560000Y-59690000D03*
X38100000Y-59690000D03*
X40640000Y-59690000D03*
X43180000Y-59690000D03*
X45720000Y-59690000D03*
X48260000Y-59690000D03*
X50800000Y-59690000D03*
X53340000Y-59690000D03*
X55880000Y-59690000D03*
X58420000Y-59690000D03*
X60960000Y-59690000D03*
X63500000Y-59690000D03*
X66040000Y-59690000D03*
X68580000Y-59690000D03*
X71120000Y-59690000D03*
X73660000Y-59690000D03*
%TD*%
D10*
%TO.C,C4*%
X15160000Y-22860000D03*
X10160000Y-22860000D03*
%TD*%
%TO.C,R1*%
X44450000Y-6350000D03*
D11*
X36830000Y-6350000D03*
%TD*%
D14*
%TO.C,REF\u002A\u002A*%
X93980000Y-5080000D03*
%TD*%
M02*
