%TF.GenerationSoftware,KiCad,Pcbnew,8.0.1*%
%TF.CreationDate,2024-03-31T10:02:36+09:00*%
%TF.ProjectId,TangNano9k5V,54616e67-4e61-46e6-9f39-6b35562e6b69,rev?*%
%TF.SameCoordinates,Original*%
%TF.FileFunction,Legend,Bot*%
%TF.FilePolarity,Positive*%
%FSLAX46Y46*%
G04 Gerber Fmt 4.6, Leading zero omitted, Abs format (unit mm)*
G04 Created by KiCad (PCBNEW 8.0.1) date 2024-03-31 10:02:36*
%MOMM*%
%LPD*%
G01*
G04 APERTURE LIST*
%ADD10C,0.100000*%
%ADD11C,0.120000*%
G04 APERTURE END LIST*
D10*
X199895Y-6083333D02*
X771323Y-6083333D01*
X771323Y-6083333D02*
X885609Y-6045238D01*
X885609Y-6045238D02*
X961800Y-5969047D01*
X961800Y-5969047D02*
X999895Y-5854762D01*
X999895Y-5854762D02*
X999895Y-5778571D01*
X199895Y-6845238D02*
X199895Y-6464286D01*
X199895Y-6464286D02*
X580847Y-6426190D01*
X580847Y-6426190D02*
X542752Y-6464286D01*
X542752Y-6464286D02*
X504657Y-6540476D01*
X504657Y-6540476D02*
X504657Y-6730952D01*
X504657Y-6730952D02*
X542752Y-6807143D01*
X542752Y-6807143D02*
X580847Y-6845238D01*
X580847Y-6845238D02*
X657038Y-6883333D01*
X657038Y-6883333D02*
X847514Y-6883333D01*
X847514Y-6883333D02*
X923704Y-6845238D01*
X923704Y-6845238D02*
X961800Y-6807143D01*
X961800Y-6807143D02*
X999895Y-6730952D01*
X999895Y-6730952D02*
X999895Y-6540476D01*
X999895Y-6540476D02*
X961800Y-6464286D01*
X961800Y-6464286D02*
X923704Y-6426190D01*
X199895Y-21323333D02*
X771323Y-21323333D01*
X771323Y-21323333D02*
X885609Y-21285238D01*
X885609Y-21285238D02*
X961800Y-21209047D01*
X961800Y-21209047D02*
X999895Y-21094762D01*
X999895Y-21094762D02*
X999895Y-21018571D01*
X466561Y-22047143D02*
X999895Y-22047143D01*
X161800Y-21856667D02*
X733228Y-21666190D01*
X733228Y-21666190D02*
X733228Y-22161429D01*
D11*
%TO.C,J5*%
X1210000Y-5020000D02*
X2540000Y-5020000D01*
X1210000Y-6350000D02*
X1210000Y-5020000D01*
X3750000Y-7366000D02*
X3750000Y-5334000D01*
X62230000Y-5334000D02*
X3750000Y-5334000D01*
X62230000Y-7366000D02*
X3750000Y-7366000D01*
X62230000Y-7366000D02*
X62230000Y-5334000D01*
%TO.C,J4*%
X1210000Y-20260000D02*
X2540000Y-20260000D01*
X1210000Y-21590000D02*
X1210000Y-20260000D01*
X3750000Y-22606000D02*
X3750000Y-20574000D01*
X62230000Y-20574000D02*
X3750000Y-20574000D01*
X62230000Y-22606000D02*
X3750000Y-22606000D01*
X62230000Y-22606000D02*
X62230000Y-20574000D01*
%TD*%
M02*
