%TF.GenerationSoftware,KiCad,Pcbnew,8.0.1*%
%TF.CreationDate,2024-03-31T10:02:36+09:00*%
%TF.ProjectId,TangNano9k5V,54616e67-4e61-46e6-9f39-6b35562e6b69,rev?*%
%TF.SameCoordinates,Original*%
%TF.FileFunction,Copper,L3,Inr*%
%TF.FilePolarity,Positive*%
%FSLAX46Y46*%
G04 Gerber Fmt 4.6, Leading zero omitted, Abs format (unit mm)*
G04 Created by KiCad (PCBNEW 8.0.1) date 2024-03-31 10:02:36*
%MOMM*%
%LPD*%
G01*
G04 APERTURE LIST*
%TA.AperFunction,ComponentPad*%
%ADD10R,1.700000X1.700000*%
%TD*%
%TA.AperFunction,ComponentPad*%
%ADD11O,1.700000X1.700000*%
%TD*%
%TA.AperFunction,ViaPad*%
%ADD12C,0.600000*%
%TD*%
%TA.AperFunction,Conductor*%
%ADD13C,2.000000*%
%TD*%
%TA.AperFunction,Conductor*%
%ADD14C,1.000000*%
%TD*%
G04 APERTURE END LIST*
D10*
%TO.N,PIN63*%
%TO.C,J3*%
X2540000Y-2540000D03*
D11*
%TO.N,PIN86*%
X5080000Y-2540000D03*
%TO.N,PIN85*%
X7620000Y-2540000D03*
%TO.N,PIN84*%
X10160000Y-2540000D03*
%TO.N,PIN83*%
X12700000Y-2540000D03*
%TO.N,PIN82*%
X15240000Y-2540000D03*
%TO.N,PIN81*%
X17780000Y-2540000D03*
%TO.N,PIN80*%
X20320000Y-2540000D03*
%TO.N,PIN79*%
X22860000Y-2540000D03*
%TO.N,PIN77*%
X25400000Y-2540000D03*
%TO.N,PIN76*%
X27940000Y-2540000D03*
%TO.N,PIN75*%
X30480000Y-2540000D03*
%TO.N,PIN74*%
X33020000Y-2540000D03*
%TO.N,PIN73*%
X35560000Y-2540000D03*
%TO.N,PIN72*%
X38100000Y-2540000D03*
%TO.N,PIN71*%
X40640000Y-2540000D03*
%TO.N,PIN70*%
X43180000Y-2540000D03*
%TO.N,+5V*%
X45720000Y-2540000D03*
%TO.N,PIN48*%
X48260000Y-2540000D03*
%TO.N,PIN49*%
X50800000Y-2540000D03*
%TO.N,PIN31*%
X53340000Y-2540000D03*
%TO.N,PIN32*%
X55880000Y-2540000D03*
%TO.N,GND*%
X58420000Y-2540000D03*
%TO.N,+3.3V*%
X60960000Y-2540000D03*
%TD*%
D10*
%TO.N,+5V*%
%TO.C,J1*%
X7605000Y-8890000D03*
D11*
%TO.N,Net-(J1-Pin_2)*%
X5065000Y-8890000D03*
%TO.N,+3.3V*%
X2525000Y-8890000D03*
%TD*%
D10*
%TO.N,PIN38*%
%TO.C,J2*%
X2540000Y-25400000D03*
D11*
%TO.N,PIN37*%
X5080000Y-25400000D03*
%TO.N,PIN36*%
X7620000Y-25400000D03*
%TO.N,PIN39*%
X10160000Y-25400000D03*
%TO.N,PIN25*%
X12700000Y-25400000D03*
%TO.N,PIN26*%
X15240000Y-25400000D03*
%TO.N,PIN27*%
X17780000Y-25400000D03*
%TO.N,PIN28*%
X20320000Y-25400000D03*
%TO.N,PIN29*%
X22860000Y-25400000D03*
%TO.N,PIN30*%
X25400000Y-25400000D03*
%TO.N,PIN33*%
X27940000Y-25400000D03*
%TO.N,PIN34*%
X30480000Y-25400000D03*
%TO.N,PIN40*%
X33020000Y-25400000D03*
%TO.N,PIN35*%
X35560000Y-25400000D03*
%TO.N,PIN41*%
X38100000Y-25400000D03*
%TO.N,PIN42*%
X40640000Y-25400000D03*
%TO.N,PIN51*%
X43180000Y-25400000D03*
%TO.N,PIN53*%
X45720000Y-25400000D03*
%TO.N,PIN54*%
X48260000Y-25400000D03*
%TO.N,PIN55*%
X50800000Y-25400000D03*
%TO.N,PIN56*%
X53340000Y-25400000D03*
%TO.N,PIN57*%
X55880000Y-25400000D03*
%TO.N,PIN68*%
X58420000Y-25400000D03*
%TO.N,PIN69*%
X60960000Y-25400000D03*
%TD*%
D10*
%TO.N,PIN63_H*%
%TO.C,J5*%
X2540000Y-6350000D03*
D11*
%TO.N,PIN86_H*%
X5080000Y-6350000D03*
%TO.N,PIN85_H*%
X7620000Y-6350000D03*
%TO.N,PIN84_H*%
X10160000Y-6350000D03*
%TO.N,PIN83_H*%
X12700000Y-6350000D03*
%TO.N,PIN82_H*%
X15240000Y-6350000D03*
%TO.N,PIN81_H*%
X17780000Y-6350000D03*
%TO.N,PIN80_H*%
X20320000Y-6350000D03*
%TO.N,PIN79_H*%
X22860000Y-6350000D03*
%TO.N,PIN77_H*%
X25400000Y-6350000D03*
%TO.N,PIN76_H*%
X27940000Y-6350000D03*
%TO.N,PIN75_H*%
X30480000Y-6350000D03*
%TO.N,PIN74_H*%
X33020000Y-6350000D03*
%TO.N,PIN73_H*%
X35560000Y-6350000D03*
%TO.N,PIN72_H*%
X38100000Y-6350000D03*
%TO.N,PIN71_H*%
X40640000Y-6350000D03*
%TO.N,PIN70_H*%
X43180000Y-6350000D03*
%TO.N,+5V*%
X45720000Y-6350000D03*
%TO.N,PIN48_H*%
X48260000Y-6350000D03*
%TO.N,PIN49_H*%
X50800000Y-6350000D03*
%TO.N,PIN31_H*%
X53340000Y-6350000D03*
%TO.N,PIN32_H*%
X55880000Y-6350000D03*
%TO.N,GND*%
X58420000Y-6350000D03*
%TO.N,+3.3V*%
X60960000Y-6350000D03*
%TD*%
D10*
%TO.N,PIN38_H*%
%TO.C,J4*%
X2540000Y-21590000D03*
D11*
%TO.N,PIN37_H*%
X5080000Y-21590000D03*
%TO.N,PIN36_H*%
X7620000Y-21590000D03*
%TO.N,PIN39_H*%
X10160000Y-21590000D03*
%TO.N,PIN25_H*%
X12700000Y-21590000D03*
%TO.N,PIN26_H*%
X15240000Y-21590000D03*
%TO.N,PIN27_H*%
X17780000Y-21590000D03*
%TO.N,PIN28_H*%
X20320000Y-21590000D03*
%TO.N,PIN29_H*%
X22860000Y-21590000D03*
%TO.N,PIN30_H*%
X25400000Y-21590000D03*
%TO.N,PIN33_H*%
X27940000Y-21590000D03*
%TO.N,PIN34_H*%
X30480000Y-21590000D03*
%TO.N,PIN40_H*%
X33020000Y-21590000D03*
%TO.N,PIN35_H*%
X35560000Y-21590000D03*
%TO.N,PIN41_H*%
X38100000Y-21590000D03*
%TO.N,PIN42_H*%
X40640000Y-21590000D03*
%TO.N,PIN51_H*%
X43180000Y-21590000D03*
%TO.N,PIN53_H*%
X45720000Y-21590000D03*
%TO.N,PIN54_H*%
X48260000Y-21590000D03*
%TO.N,PIN55_H*%
X50800000Y-21590000D03*
%TO.N,PIN56_H*%
X53340000Y-21590000D03*
%TO.N,PIN57_H*%
X55880000Y-21590000D03*
%TO.N,PIN68_H*%
X58420000Y-21590000D03*
%TO.N,PIN69_H*%
X60960000Y-21590000D03*
%TD*%
D12*
%TO.N,+3.3V*%
X53086000Y-11176000D03*
X43434000Y-11176000D03*
X34036000Y-11176000D03*
X24384000Y-11176000D03*
X14986000Y-11176000D03*
%TO.N,GND*%
X25400000Y-13970000D03*
X34925000Y-13970000D03*
X13716000Y-12446000D03*
X51816000Y-18288000D03*
X61468000Y-12700000D03*
X4572000Y-16764000D03*
X2474000Y-13015000D03*
X5588000Y-15240000D03*
X53975000Y-13970000D03*
X1331000Y-13015000D03*
X61277500Y-18097500D03*
X23241000Y-18288000D03*
X32766000Y-18288000D03*
X42291000Y-18288000D03*
X15875000Y-13970000D03*
X44450000Y-13970000D03*
%TO.N,PIN86*%
X7874000Y-15748000D03*
%TO.N,PIN85*%
X8382000Y-14132000D03*
%TO.N,PIN84*%
X9398000Y-13970000D03*
%TO.N,PIN83*%
X10414000Y-13970000D03*
%TO.N,PIN82*%
X10922000Y-13208000D03*
%TO.N,PIN81*%
X11720000Y-13970000D03*
%TO.N,PIN80*%
X12520003Y-13970000D03*
%TO.N,PIN79*%
X13320006Y-13970000D03*
%TO.N,PIN77*%
X27432000Y-13970000D03*
%TO.N,PIN76*%
X28232003Y-13970000D03*
%TO.N,PIN75*%
X29032006Y-13970000D03*
%TO.N,PIN74*%
X29829706Y-14030650D03*
%TO.N,PIN73*%
X36830000Y-13970000D03*
%TO.N,PIN72*%
X37630003Y-13970000D03*
%TO.N,PIN71*%
X38430006Y-13970000D03*
%TO.N,PIN70*%
X39370000Y-13970000D03*
%TO.N,PIN48*%
X46600276Y-13326276D03*
%TO.N,PIN49*%
X47375805Y-13522639D03*
%TO.N,PIN31*%
X48172129Y-13446015D03*
%TO.N,PIN32*%
X48915758Y-13151024D03*
%TO.N,PIN38_H*%
X19260619Y-12656619D03*
%TO.N,PIN37_H*%
X20084937Y-12452238D03*
%TO.N,PIN36_H*%
X20884911Y-12445522D03*
%TO.N,PIN39_H*%
X21581684Y-12838601D03*
%TO.N,PIN25_H*%
X21590000Y-13716000D03*
%TO.N,PIN26_H*%
X22414266Y-13740263D03*
%TO.N,PIN27_H*%
X23213788Y-13712540D03*
%TO.N,PIN28_H*%
X30734000Y-12954000D03*
%TO.N,PIN29_H*%
X31344556Y-13724938D03*
%TO.N,PIN30_H*%
X32070001Y-12954000D03*
%TO.N,PIN33_H*%
X32670001Y-13716000D03*
%TO.N,PIN34_H*%
X40132000Y-12700000D03*
%TO.N,PIN40_H*%
X40894000Y-13462000D03*
%TO.N,PIN35_H*%
X41595001Y-12642313D03*
%TO.N,PIN41_H*%
X42418000Y-13462000D03*
%TO.N,PIN42_H*%
X49784000Y-12954000D03*
%TO.N,PIN51_H*%
X50349687Y-13519687D03*
%TO.N,PIN53_H*%
X51120001Y-12954000D03*
%TO.N,PIN54_H*%
X51816000Y-13462000D03*
%TO.N,PIN55_H*%
X56804000Y-13208000D03*
%TO.N,PIN56_H*%
X57344998Y-12446000D03*
%TO.N,PIN57_H*%
X58145001Y-12446000D03*
%TO.N,PIN68_H*%
X58928000Y-13208000D03*
%TO.N,PIN69_H*%
X59690000Y-12700000D03*
%TO.N,PIN63_H*%
X18263291Y-13088261D03*
%TD*%
D13*
%TO.N,+3.3V*%
X2525000Y-9891000D02*
X2525000Y-8890000D01*
X57590081Y-10922000D02*
X9655000Y-10922000D01*
X60960000Y-6350000D02*
X60960000Y-7552081D01*
X3724000Y-11090000D02*
X2525000Y-9891000D01*
X9655000Y-10922000D02*
X9487000Y-11090000D01*
X60960000Y-7552081D02*
X57590081Y-10922000D01*
X9487000Y-11090000D02*
X3724000Y-11090000D01*
%TO.N,+5V*%
X7835000Y-8660000D02*
X44612081Y-8660000D01*
X44612081Y-8660000D02*
X45720000Y-7552081D01*
X7605000Y-8890000D02*
X7835000Y-8660000D01*
X45720000Y-7552081D02*
X45720000Y-6350000D01*
D14*
X7605000Y-8890000D02*
X8035000Y-8460000D01*
%TD*%
M02*
