%TF.GenerationSoftware,KiCad,Pcbnew,8.0.1*%
%TF.CreationDate,2024-03-31T10:02:36+09:00*%
%TF.ProjectId,TangNano9k5V,54616e67-4e61-46e6-9f39-6b35562e6b69,rev?*%
%TF.SameCoordinates,Original*%
%TF.FileFunction,Copper,L1,Top*%
%TF.FilePolarity,Positive*%
%FSLAX46Y46*%
G04 Gerber Fmt 4.6, Leading zero omitted, Abs format (unit mm)*
G04 Created by KiCad (PCBNEW 8.0.1) date 2024-03-31 10:02:36*
%MOMM*%
%LPD*%
G01*
G04 APERTURE LIST*
G04 Aperture macros list*
%AMRoundRect*
0 Rectangle with rounded corners*
0 $1 Rounding radius*
0 $2 $3 $4 $5 $6 $7 $8 $9 X,Y pos of 4 corners*
0 Add a 4 corners polygon primitive as box body*
4,1,4,$2,$3,$4,$5,$6,$7,$8,$9,$2,$3,0*
0 Add four circle primitives for the rounded corners*
1,1,$1+$1,$2,$3*
1,1,$1+$1,$4,$5*
1,1,$1+$1,$6,$7*
1,1,$1+$1,$8,$9*
0 Add four rect primitives between the rounded corners*
20,1,$1+$1,$2,$3,$4,$5,0*
20,1,$1+$1,$4,$5,$6,$7,0*
20,1,$1+$1,$6,$7,$8,$9,0*
20,1,$1+$1,$8,$9,$2,$3,0*%
G04 Aperture macros list end*
%TA.AperFunction,SMDPad,CuDef*%
%ADD10RoundRect,0.237500X-0.237500X0.300000X-0.237500X-0.300000X0.237500X-0.300000X0.237500X0.300000X0*%
%TD*%
%TA.AperFunction,SMDPad,CuDef*%
%ADD11RoundRect,0.237500X0.237500X-0.300000X0.237500X0.300000X-0.237500X0.300000X-0.237500X-0.300000X0*%
%TD*%
%TA.AperFunction,ComponentPad*%
%ADD12R,1.700000X1.700000*%
%TD*%
%TA.AperFunction,ComponentPad*%
%ADD13O,1.700000X1.700000*%
%TD*%
%TA.AperFunction,SMDPad,CuDef*%
%ADD14R,0.355600X1.676400*%
%TD*%
%TA.AperFunction,SMDPad,CuDef*%
%ADD15RoundRect,0.100000X0.100000X-0.637500X0.100000X0.637500X-0.100000X0.637500X-0.100000X-0.637500X0*%
%TD*%
%TA.AperFunction,SMDPad,CuDef*%
%ADD16RoundRect,0.150000X-0.150000X0.512500X-0.150000X-0.512500X0.150000X-0.512500X0.150000X0.512500X0*%
%TD*%
%TA.AperFunction,ViaPad*%
%ADD17C,0.600000*%
%TD*%
%TA.AperFunction,Conductor*%
%ADD18C,0.400000*%
%TD*%
%TA.AperFunction,Conductor*%
%ADD19C,1.000000*%
%TD*%
%TA.AperFunction,Conductor*%
%ADD20C,0.200000*%
%TD*%
G04 APERTURE END LIST*
D10*
%TO.P,C6,1*%
%TO.N,+3.3V*%
X25400000Y-11202500D03*
%TO.P,C6,2*%
%TO.N,GND*%
X25400000Y-12927500D03*
%TD*%
D11*
%TO.P,C3,1*%
%TO.N,+1V8*%
X5588000Y-18007500D03*
%TO.P,C3,2*%
%TO.N,GND*%
X5588000Y-16282500D03*
%TD*%
D12*
%TO.P,J3,1,Pin_1*%
%TO.N,PIN63*%
X2540000Y-2540000D03*
D13*
%TO.P,J3,2,Pin_2*%
%TO.N,PIN86*%
X5080000Y-2540000D03*
%TO.P,J3,3,Pin_3*%
%TO.N,PIN85*%
X7620000Y-2540000D03*
%TO.P,J3,4,Pin_4*%
%TO.N,PIN84*%
X10160000Y-2540000D03*
%TO.P,J3,5,Pin_5*%
%TO.N,PIN83*%
X12700000Y-2540000D03*
%TO.P,J3,6,Pin_6*%
%TO.N,PIN82*%
X15240000Y-2540000D03*
%TO.P,J3,7,Pin_7*%
%TO.N,PIN81*%
X17780000Y-2540000D03*
%TO.P,J3,8,Pin_8*%
%TO.N,PIN80*%
X20320000Y-2540000D03*
%TO.P,J3,9,Pin_9*%
%TO.N,PIN79*%
X22860000Y-2540000D03*
%TO.P,J3,10,Pin_10*%
%TO.N,PIN77*%
X25400000Y-2540000D03*
%TO.P,J3,11,Pin_11*%
%TO.N,PIN76*%
X27940000Y-2540000D03*
%TO.P,J3,12,Pin_12*%
%TO.N,PIN75*%
X30480000Y-2540000D03*
%TO.P,J3,13,Pin_13*%
%TO.N,PIN74*%
X33020000Y-2540000D03*
%TO.P,J3,14,Pin_14*%
%TO.N,PIN73*%
X35560000Y-2540000D03*
%TO.P,J3,15,Pin_15*%
%TO.N,PIN72*%
X38100000Y-2540000D03*
%TO.P,J3,16,Pin_16*%
%TO.N,PIN71*%
X40640000Y-2540000D03*
%TO.P,J3,17,Pin_17*%
%TO.N,PIN70*%
X43180000Y-2540000D03*
%TO.P,J3,18,Pin_18*%
%TO.N,+5V*%
X45720000Y-2540000D03*
%TO.P,J3,19,Pin_19*%
%TO.N,PIN48*%
X48260000Y-2540000D03*
%TO.P,J3,20,Pin_20*%
%TO.N,PIN49*%
X50800000Y-2540000D03*
%TO.P,J3,21,Pin_21*%
%TO.N,PIN31*%
X53340000Y-2540000D03*
%TO.P,J3,22,Pin_22*%
%TO.N,PIN32*%
X55880000Y-2540000D03*
%TO.P,J3,23,Pin_23*%
%TO.N,GND*%
X58420000Y-2540000D03*
%TO.P,J3,24,Pin_24*%
%TO.N,+3.3V*%
X60960000Y-2540000D03*
%TD*%
D14*
%TO.P,U5,1,NC*%
%TO.N,unconnected-(U5-NC-Pad1)*%
X45970000Y-16789400D03*
%TO.P,U5,2,A1*%
%TO.N,PIN48*%
X46620001Y-16789400D03*
%TO.P,U5,3,A2*%
%TO.N,PIN49*%
X47269999Y-16789400D03*
%TO.P,U5,4,A3*%
%TO.N,PIN31*%
X47920001Y-16789400D03*
%TO.P,U5,5,A4*%
%TO.N,PIN32*%
X48569999Y-16789400D03*
%TO.P,U5,6,A5*%
%TO.N,PIN42*%
X49219998Y-16789400D03*
%TO.P,U5,7,A6*%
%TO.N,PIN51*%
X49869999Y-16789400D03*
%TO.P,U5,8,A7*%
%TO.N,PIN53*%
X50519998Y-16789400D03*
%TO.P,U5,9,A8*%
%TO.N,PIN54*%
X51169999Y-16789400D03*
%TO.P,U5,10,GND*%
%TO.N,GND*%
X51819998Y-16789400D03*
%TO.P,U5,11,B8*%
%TO.N,PIN54_H*%
X51820000Y-11150600D03*
%TO.P,U5,12,B7*%
%TO.N,PIN53_H*%
X51170002Y-11150600D03*
%TO.P,U5,13,B6*%
%TO.N,PIN51_H*%
X50520001Y-11150600D03*
%TO.P,U5,14,B5*%
%TO.N,PIN42_H*%
X49870002Y-11150600D03*
%TO.P,U5,15,B4*%
%TO.N,PIN32_H*%
X49220001Y-11150600D03*
%TO.P,U5,16,B3*%
%TO.N,PIN31_H*%
X48570002Y-11150600D03*
%TO.P,U5,17,B2*%
%TO.N,PIN49_H*%
X47920001Y-11150600D03*
%TO.P,U5,18,B1*%
%TO.N,PIN48_H*%
X47270002Y-11150600D03*
%TO.P,U5,19,\u002AOE*%
%TO.N,GND*%
X46620001Y-11150600D03*
%TO.P,U5,20,VCC*%
%TO.N,+3.3V*%
X45970002Y-11150600D03*
%TD*%
D10*
%TO.P,C7,1*%
%TO.N,+3.3V*%
X34925000Y-11202500D03*
%TO.P,C7,2*%
%TO.N,GND*%
X34925000Y-12927500D03*
%TD*%
%TO.P,C8,1*%
%TO.N,+3.3V*%
X44450000Y-11202500D03*
%TO.P,C8,2*%
%TO.N,GND*%
X44450000Y-12927500D03*
%TD*%
D14*
%TO.P,U3,1,NC*%
%TO.N,unconnected-(U3-NC-Pad1)*%
X26920000Y-16789400D03*
%TO.P,U3,2,A1*%
%TO.N,PIN77*%
X27570001Y-16789400D03*
%TO.P,U3,3,A2*%
%TO.N,PIN76*%
X28219999Y-16789400D03*
%TO.P,U3,4,A3*%
%TO.N,PIN75*%
X28870001Y-16789400D03*
%TO.P,U3,5,A4*%
%TO.N,PIN74*%
X29519999Y-16789400D03*
%TO.P,U3,6,A5*%
%TO.N,PIN28*%
X30169998Y-16789400D03*
%TO.P,U3,7,A6*%
%TO.N,PIN29*%
X30819999Y-16789400D03*
%TO.P,U3,8,A7*%
%TO.N,PIN30*%
X31469998Y-16789400D03*
%TO.P,U3,9,A8*%
%TO.N,PIN33*%
X32119999Y-16789400D03*
%TO.P,U3,10,GND*%
%TO.N,GND*%
X32769998Y-16789400D03*
%TO.P,U3,11,B8*%
%TO.N,PIN33_H*%
X32770000Y-11150600D03*
%TO.P,U3,12,B7*%
%TO.N,PIN30_H*%
X32120002Y-11150600D03*
%TO.P,U3,13,B6*%
%TO.N,PIN29_H*%
X31470001Y-11150600D03*
%TO.P,U3,14,B5*%
%TO.N,PIN28_H*%
X30820002Y-11150600D03*
%TO.P,U3,15,B4*%
%TO.N,PIN74_H*%
X30170001Y-11150600D03*
%TO.P,U3,16,B3*%
%TO.N,PIN75_H*%
X29520002Y-11150600D03*
%TO.P,U3,17,B2*%
%TO.N,PIN76_H*%
X28870001Y-11150600D03*
%TO.P,U3,18,B1*%
%TO.N,PIN77_H*%
X28220002Y-11150600D03*
%TO.P,U3,19,\u002AOE*%
%TO.N,GND*%
X27570001Y-11150600D03*
%TO.P,U3,20,VCC*%
%TO.N,+3.3V*%
X26920002Y-11150600D03*
%TD*%
%TO.P,U6,1,NC*%
%TO.N,unconnected-(U6-NC-Pad1)*%
X55495000Y-16789400D03*
%TO.P,U6,2,A1*%
%TO.N,PIN55*%
X56145001Y-16789400D03*
%TO.P,U6,3,A2*%
%TO.N,PIN56*%
X56794999Y-16789400D03*
%TO.P,U6,4,A3*%
%TO.N,PIN57*%
X57445001Y-16789400D03*
%TO.P,U6,5,A4*%
%TO.N,PIN68*%
X58094999Y-16789400D03*
%TO.P,U6,6,A5*%
%TO.N,PIN69*%
X58744998Y-16789400D03*
%TO.P,U6,7,A6*%
%TO.N,GND*%
X59394999Y-16789400D03*
%TO.P,U6,8,A7*%
X60044998Y-16789400D03*
%TO.P,U6,9,A8*%
X60694999Y-16789400D03*
%TO.P,U6,10,GND*%
X61344998Y-16789400D03*
%TO.P,U6,11,B8*%
X61345000Y-11150600D03*
%TO.P,U6,12,B7*%
X60695002Y-11150600D03*
%TO.P,U6,13,B6*%
X60045001Y-11150600D03*
%TO.P,U6,14,B5*%
%TO.N,PIN69_H*%
X59395002Y-11150600D03*
%TO.P,U6,15,B4*%
%TO.N,PIN68_H*%
X58745001Y-11150600D03*
%TO.P,U6,16,B3*%
%TO.N,PIN57_H*%
X58095002Y-11150600D03*
%TO.P,U6,17,B2*%
%TO.N,PIN56_H*%
X57445001Y-11150600D03*
%TO.P,U6,18,B1*%
%TO.N,PIN55_H*%
X56795002Y-11150600D03*
%TO.P,U6,19,\u002AOE*%
%TO.N,GND*%
X56145001Y-11150600D03*
%TO.P,U6,20,VCC*%
%TO.N,+3.3V*%
X55495002Y-11150600D03*
%TD*%
%TO.P,U4,1,NC*%
%TO.N,unconnected-(U4-NC-Pad1)*%
X36445000Y-16789400D03*
%TO.P,U4,2,A1*%
%TO.N,PIN73*%
X37095001Y-16789400D03*
%TO.P,U4,3,A2*%
%TO.N,PIN72*%
X37744999Y-16789400D03*
%TO.P,U4,4,A3*%
%TO.N,PIN71*%
X38395001Y-16789400D03*
%TO.P,U4,5,A4*%
%TO.N,PIN70*%
X39044999Y-16789400D03*
%TO.P,U4,6,A5*%
%TO.N,PIN34*%
X39694998Y-16789400D03*
%TO.P,U4,7,A6*%
%TO.N,PIN40*%
X40344999Y-16789400D03*
%TO.P,U4,8,A7*%
%TO.N,PIN35*%
X40994998Y-16789400D03*
%TO.P,U4,9,A8*%
%TO.N,PIN41*%
X41644999Y-16789400D03*
%TO.P,U4,10,GND*%
%TO.N,GND*%
X42294998Y-16789400D03*
%TO.P,U4,11,B8*%
%TO.N,PIN41_H*%
X42295000Y-11150600D03*
%TO.P,U4,12,B7*%
%TO.N,PIN35_H*%
X41645002Y-11150600D03*
%TO.P,U4,13,B6*%
%TO.N,PIN40_H*%
X40995001Y-11150600D03*
%TO.P,U4,14,B5*%
%TO.N,PIN34_H*%
X40345002Y-11150600D03*
%TO.P,U4,15,B4*%
%TO.N,PIN70_H*%
X39695001Y-11150600D03*
%TO.P,U4,16,B3*%
%TO.N,PIN71_H*%
X39045002Y-11150600D03*
%TO.P,U4,17,B2*%
%TO.N,PIN72_H*%
X38395001Y-11150600D03*
%TO.P,U4,18,B1*%
%TO.N,PIN73_H*%
X37745002Y-11150600D03*
%TO.P,U4,19,\u002AOE*%
%TO.N,GND*%
X37095001Y-11150600D03*
%TO.P,U4,20,VCC*%
%TO.N,+3.3V*%
X36445002Y-11150600D03*
%TD*%
D12*
%TO.P,J1,1,Pin_1*%
%TO.N,+5V*%
X7605000Y-8890000D03*
D13*
%TO.P,J1,2,Pin_2*%
%TO.N,Net-(J1-Pin_2)*%
X5065000Y-8890000D03*
%TO.P,J1,3,Pin_3*%
%TO.N,+3.3V*%
X2525000Y-8890000D03*
%TD*%
D14*
%TO.P,U2,1,NC*%
%TO.N,unconnected-(U2-NC-Pad1)*%
X17395000Y-16789400D03*
%TO.P,U2,2,A1*%
%TO.N,PIN63*%
X18045001Y-16789400D03*
%TO.P,U2,3,A2*%
%TO.N,PIN38*%
X18694999Y-16789400D03*
%TO.P,U2,4,A3*%
%TO.N,PIN37*%
X19345001Y-16789400D03*
%TO.P,U2,5,A4*%
%TO.N,PIN36*%
X19994999Y-16789400D03*
%TO.P,U2,6,A5*%
%TO.N,PIN39*%
X20644998Y-16789400D03*
%TO.P,U2,7,A6*%
%TO.N,PIN25*%
X21294999Y-16789400D03*
%TO.P,U2,8,A7*%
%TO.N,PIN26*%
X21944998Y-16789400D03*
%TO.P,U2,9,A8*%
%TO.N,PIN27*%
X22594999Y-16789400D03*
%TO.P,U2,10,GND*%
%TO.N,GND*%
X23244998Y-16789400D03*
%TO.P,U2,11,B8*%
%TO.N,PIN27_H*%
X23245000Y-11150600D03*
%TO.P,U2,12,B7*%
%TO.N,PIN26_H*%
X22595002Y-11150600D03*
%TO.P,U2,13,B6*%
%TO.N,PIN25_H*%
X21945001Y-11150600D03*
%TO.P,U2,14,B5*%
%TO.N,PIN39_H*%
X21295002Y-11150600D03*
%TO.P,U2,15,B4*%
%TO.N,PIN36_H*%
X20645001Y-11150600D03*
%TO.P,U2,16,B3*%
%TO.N,PIN37_H*%
X19995002Y-11150600D03*
%TO.P,U2,17,B2*%
%TO.N,PIN38_H*%
X19345001Y-11150600D03*
%TO.P,U2,18,B1*%
%TO.N,PIN63_H*%
X18695002Y-11150600D03*
%TO.P,U2,19,\u002AOE*%
%TO.N,GND*%
X18045001Y-11150600D03*
%TO.P,U2,20,VCC*%
%TO.N,+3.3V*%
X17395002Y-11150600D03*
%TD*%
D15*
%TO.P,U1,1,A1*%
%TO.N,PIN86*%
X7870000Y-16832500D03*
%TO.P,U1,2,VCCA*%
%TO.N,+1V8*%
X8520000Y-16832500D03*
%TO.P,U1,3,A2*%
%TO.N,PIN85*%
X9170000Y-16832500D03*
%TO.P,U1,4,A3*%
%TO.N,PIN84*%
X9820000Y-16832500D03*
%TO.P,U1,5,A4*%
%TO.N,PIN83*%
X10470000Y-16832500D03*
%TO.P,U1,6,A5*%
%TO.N,PIN82*%
X11120000Y-16832500D03*
%TO.P,U1,7,A6*%
%TO.N,PIN81*%
X11770000Y-16832500D03*
%TO.P,U1,8,A7*%
%TO.N,PIN80*%
X12420000Y-16832500D03*
%TO.P,U1,9,A8*%
%TO.N,PIN79*%
X13070000Y-16832500D03*
%TO.P,U1,10,OE*%
%TO.N,+1V8*%
X13720000Y-16832500D03*
%TO.P,U1,11,GND*%
%TO.N,GND*%
X13720000Y-11107500D03*
%TO.P,U1,12,B8*%
%TO.N,PIN79_H*%
X13070000Y-11107500D03*
%TO.P,U1,13,B7*%
%TO.N,PIN80_H*%
X12420000Y-11107500D03*
%TO.P,U1,14,B6*%
%TO.N,PIN81_H*%
X11770000Y-11107500D03*
%TO.P,U1,15,B5*%
%TO.N,PIN82_H*%
X11120000Y-11107500D03*
%TO.P,U1,16,B4*%
%TO.N,PIN83_H*%
X10470000Y-11107500D03*
%TO.P,U1,17,B3*%
%TO.N,PIN84_H*%
X9820000Y-11107500D03*
%TO.P,U1,18,B2*%
%TO.N,PIN85_H*%
X9170000Y-11107500D03*
%TO.P,U1,19,VCCB*%
%TO.N,Net-(J1-Pin_2)*%
X8520000Y-11107500D03*
%TO.P,U1,20,B1*%
%TO.N,PIN86_H*%
X7870000Y-11107500D03*
%TD*%
D10*
%TO.P,C4,1*%
%TO.N,Net-(J1-Pin_2)*%
X5588000Y-12525500D03*
%TO.P,C4,2*%
%TO.N,GND*%
X5588000Y-14250500D03*
%TD*%
D16*
%TO.P,PS1,1,IN*%
%TO.N,+3.3V*%
X3424000Y-14197000D03*
%TO.P,PS1,2,GND*%
%TO.N,GND*%
X2474000Y-14197000D03*
%TO.P,PS1,3,EN*%
%TO.N,+3.3V*%
X1524000Y-14197000D03*
%TO.P,PS1,4,NC*%
%TO.N,unconnected-(PS1-NC-Pad4)*%
X1524000Y-16472000D03*
%TO.P,PS1,5,OUT*%
%TO.N,+1V8*%
X3424000Y-16472000D03*
%TD*%
D10*
%TO.P,C5,1*%
%TO.N,+3.3V*%
X15875000Y-11202500D03*
%TO.P,C5,2*%
%TO.N,GND*%
X15875000Y-12927500D03*
%TD*%
%TO.P,C9,1*%
%TO.N,+3.3V*%
X53975000Y-11202500D03*
%TO.P,C9,2*%
%TO.N,GND*%
X53975000Y-12927500D03*
%TD*%
D12*
%TO.P,J2,1,Pin_1*%
%TO.N,PIN38*%
X2540000Y-25400000D03*
D13*
%TO.P,J2,2,Pin_2*%
%TO.N,PIN37*%
X5080000Y-25400000D03*
%TO.P,J2,3,Pin_3*%
%TO.N,PIN36*%
X7620000Y-25400000D03*
%TO.P,J2,4,Pin_4*%
%TO.N,PIN39*%
X10160000Y-25400000D03*
%TO.P,J2,5,Pin_5*%
%TO.N,PIN25*%
X12700000Y-25400000D03*
%TO.P,J2,6,Pin_6*%
%TO.N,PIN26*%
X15240000Y-25400000D03*
%TO.P,J2,7,Pin_7*%
%TO.N,PIN27*%
X17780000Y-25400000D03*
%TO.P,J2,8,Pin_8*%
%TO.N,PIN28*%
X20320000Y-25400000D03*
%TO.P,J2,9,Pin_9*%
%TO.N,PIN29*%
X22860000Y-25400000D03*
%TO.P,J2,10,Pin_10*%
%TO.N,PIN30*%
X25400000Y-25400000D03*
%TO.P,J2,11,Pin_11*%
%TO.N,PIN33*%
X27940000Y-25400000D03*
%TO.P,J2,12,Pin_12*%
%TO.N,PIN34*%
X30480000Y-25400000D03*
%TO.P,J2,13,Pin_13*%
%TO.N,PIN40*%
X33020000Y-25400000D03*
%TO.P,J2,14,Pin_14*%
%TO.N,PIN35*%
X35560000Y-25400000D03*
%TO.P,J2,15,Pin_15*%
%TO.N,PIN41*%
X38100000Y-25400000D03*
%TO.P,J2,16,Pin_16*%
%TO.N,PIN42*%
X40640000Y-25400000D03*
%TO.P,J2,17,Pin_17*%
%TO.N,PIN51*%
X43180000Y-25400000D03*
%TO.P,J2,18,Pin_18*%
%TO.N,PIN53*%
X45720000Y-25400000D03*
%TO.P,J2,19,Pin_19*%
%TO.N,PIN54*%
X48260000Y-25400000D03*
%TO.P,J2,20,Pin_20*%
%TO.N,PIN55*%
X50800000Y-25400000D03*
%TO.P,J2,21,Pin_21*%
%TO.N,PIN56*%
X53340000Y-25400000D03*
%TO.P,J2,22,Pin_22*%
%TO.N,PIN57*%
X55880000Y-25400000D03*
%TO.P,J2,23,Pin_23*%
%TO.N,PIN68*%
X58420000Y-25400000D03*
%TO.P,J2,24,Pin_24*%
%TO.N,PIN69*%
X60960000Y-25400000D03*
%TD*%
D12*
%TO.P,J5,1,Pin_1*%
%TO.N,PIN63_H*%
X2540000Y-6350000D03*
D13*
%TO.P,J5,2,Pin_2*%
%TO.N,PIN86_H*%
X5080000Y-6350000D03*
%TO.P,J5,3,Pin_3*%
%TO.N,PIN85_H*%
X7620000Y-6350000D03*
%TO.P,J5,4,Pin_4*%
%TO.N,PIN84_H*%
X10160000Y-6350000D03*
%TO.P,J5,5,Pin_5*%
%TO.N,PIN83_H*%
X12700000Y-6350000D03*
%TO.P,J5,6,Pin_6*%
%TO.N,PIN82_H*%
X15240000Y-6350000D03*
%TO.P,J5,7,Pin_7*%
%TO.N,PIN81_H*%
X17780000Y-6350000D03*
%TO.P,J5,8,Pin_8*%
%TO.N,PIN80_H*%
X20320000Y-6350000D03*
%TO.P,J5,9,Pin_9*%
%TO.N,PIN79_H*%
X22860000Y-6350000D03*
%TO.P,J5,10,Pin_10*%
%TO.N,PIN77_H*%
X25400000Y-6350000D03*
%TO.P,J5,11,Pin_11*%
%TO.N,PIN76_H*%
X27940000Y-6350000D03*
%TO.P,J5,12,Pin_12*%
%TO.N,PIN75_H*%
X30480000Y-6350000D03*
%TO.P,J5,13,Pin_13*%
%TO.N,PIN74_H*%
X33020000Y-6350000D03*
%TO.P,J5,14,Pin_14*%
%TO.N,PIN73_H*%
X35560000Y-6350000D03*
%TO.P,J5,15,Pin_15*%
%TO.N,PIN72_H*%
X38100000Y-6350000D03*
%TO.P,J5,16,Pin_16*%
%TO.N,PIN71_H*%
X40640000Y-6350000D03*
%TO.P,J5,17,Pin_17*%
%TO.N,PIN70_H*%
X43180000Y-6350000D03*
%TO.P,J5,18,Pin_18*%
%TO.N,+5V*%
X45720000Y-6350000D03*
%TO.P,J5,19,Pin_19*%
%TO.N,PIN48_H*%
X48260000Y-6350000D03*
%TO.P,J5,20,Pin_20*%
%TO.N,PIN49_H*%
X50800000Y-6350000D03*
%TO.P,J5,21,Pin_21*%
%TO.N,PIN31_H*%
X53340000Y-6350000D03*
%TO.P,J5,22,Pin_22*%
%TO.N,PIN32_H*%
X55880000Y-6350000D03*
%TO.P,J5,23,Pin_23*%
%TO.N,GND*%
X58420000Y-6350000D03*
%TO.P,J5,24,Pin_24*%
%TO.N,+3.3V*%
X60960000Y-6350000D03*
%TD*%
D12*
%TO.P,J4,1,Pin_1*%
%TO.N,PIN38_H*%
X2540000Y-21590000D03*
D13*
%TO.P,J4,2,Pin_2*%
%TO.N,PIN37_H*%
X5080000Y-21590000D03*
%TO.P,J4,3,Pin_3*%
%TO.N,PIN36_H*%
X7620000Y-21590000D03*
%TO.P,J4,4,Pin_4*%
%TO.N,PIN39_H*%
X10160000Y-21590000D03*
%TO.P,J4,5,Pin_5*%
%TO.N,PIN25_H*%
X12700000Y-21590000D03*
%TO.P,J4,6,Pin_6*%
%TO.N,PIN26_H*%
X15240000Y-21590000D03*
%TO.P,J4,7,Pin_7*%
%TO.N,PIN27_H*%
X17780000Y-21590000D03*
%TO.P,J4,8,Pin_8*%
%TO.N,PIN28_H*%
X20320000Y-21590000D03*
%TO.P,J4,9,Pin_9*%
%TO.N,PIN29_H*%
X22860000Y-21590000D03*
%TO.P,J4,10,Pin_10*%
%TO.N,PIN30_H*%
X25400000Y-21590000D03*
%TO.P,J4,11,Pin_11*%
%TO.N,PIN33_H*%
X27940000Y-21590000D03*
%TO.P,J4,12,Pin_12*%
%TO.N,PIN34_H*%
X30480000Y-21590000D03*
%TO.P,J4,13,Pin_13*%
%TO.N,PIN40_H*%
X33020000Y-21590000D03*
%TO.P,J4,14,Pin_14*%
%TO.N,PIN35_H*%
X35560000Y-21590000D03*
%TO.P,J4,15,Pin_15*%
%TO.N,PIN41_H*%
X38100000Y-21590000D03*
%TO.P,J4,16,Pin_16*%
%TO.N,PIN42_H*%
X40640000Y-21590000D03*
%TO.P,J4,17,Pin_17*%
%TO.N,PIN51_H*%
X43180000Y-21590000D03*
%TO.P,J4,18,Pin_18*%
%TO.N,PIN53_H*%
X45720000Y-21590000D03*
%TO.P,J4,19,Pin_19*%
%TO.N,PIN54_H*%
X48260000Y-21590000D03*
%TO.P,J4,20,Pin_20*%
%TO.N,PIN55_H*%
X50800000Y-21590000D03*
%TO.P,J4,21,Pin_21*%
%TO.N,PIN56_H*%
X53340000Y-21590000D03*
%TO.P,J4,22,Pin_22*%
%TO.N,PIN57_H*%
X55880000Y-21590000D03*
%TO.P,J4,23,Pin_23*%
%TO.N,PIN68_H*%
X58420000Y-21590000D03*
%TO.P,J4,24,Pin_24*%
%TO.N,PIN69_H*%
X60960000Y-21590000D03*
%TD*%
D17*
%TO.N,+3.3V*%
X53086000Y-11176000D03*
X43434000Y-11176000D03*
X34036000Y-11176000D03*
X24384000Y-11176000D03*
X14986000Y-11176000D03*
%TO.N,GND*%
X25400000Y-13970000D03*
X34925000Y-13970000D03*
X13716000Y-12446000D03*
X51816000Y-18288000D03*
X61468000Y-12700000D03*
X4572000Y-16764000D03*
X2474000Y-13015000D03*
X5588000Y-15240000D03*
X53975000Y-13970000D03*
X1331000Y-13015000D03*
X61277500Y-18097500D03*
X23241000Y-18288000D03*
X32766000Y-18288000D03*
X42291000Y-18288000D03*
X15875000Y-13970000D03*
X44450000Y-13970000D03*
%TO.N,PIN86*%
X7874000Y-15748000D03*
%TO.N,PIN85*%
X8382000Y-14132000D03*
%TO.N,PIN84*%
X9398000Y-13970000D03*
%TO.N,PIN83*%
X10414000Y-13970000D03*
%TO.N,PIN82*%
X10922000Y-13208000D03*
%TO.N,PIN81*%
X11720000Y-13970000D03*
%TO.N,PIN80*%
X12520003Y-13970000D03*
%TO.N,PIN79*%
X13320006Y-13970000D03*
%TO.N,PIN77*%
X27432000Y-13970000D03*
%TO.N,PIN76*%
X28232003Y-13970000D03*
%TO.N,PIN75*%
X29032006Y-13970000D03*
%TO.N,PIN74*%
X29829706Y-14030650D03*
%TO.N,PIN73*%
X36830000Y-13970000D03*
%TO.N,PIN72*%
X37630003Y-13970000D03*
%TO.N,PIN71*%
X38430006Y-13970000D03*
%TO.N,PIN70*%
X39370000Y-13970000D03*
%TO.N,PIN48*%
X46600276Y-13326276D03*
%TO.N,PIN49*%
X47375805Y-13522639D03*
%TO.N,PIN31*%
X48172129Y-13446015D03*
%TO.N,PIN32*%
X48915758Y-13151024D03*
%TO.N,PIN38_H*%
X19260619Y-12656619D03*
%TO.N,PIN37_H*%
X20084937Y-12452238D03*
%TO.N,PIN36_H*%
X20884911Y-12445522D03*
%TO.N,PIN39_H*%
X21581684Y-12838601D03*
%TO.N,PIN25_H*%
X21590000Y-13716000D03*
%TO.N,PIN26_H*%
X22414266Y-13740263D03*
%TO.N,PIN27_H*%
X23213788Y-13712540D03*
%TO.N,PIN28_H*%
X30734000Y-12954000D03*
%TO.N,PIN29_H*%
X31344556Y-13724938D03*
%TO.N,PIN30_H*%
X32070001Y-12954000D03*
%TO.N,PIN33_H*%
X32670001Y-13716000D03*
%TO.N,PIN34_H*%
X40132000Y-12700000D03*
%TO.N,PIN40_H*%
X40894000Y-13462000D03*
%TO.N,PIN35_H*%
X41595001Y-12642313D03*
%TO.N,PIN41_H*%
X42418000Y-13462000D03*
%TO.N,PIN42_H*%
X49784000Y-12954000D03*
%TO.N,PIN51_H*%
X50349687Y-13519687D03*
%TO.N,PIN53_H*%
X51120001Y-12954000D03*
%TO.N,PIN54_H*%
X51816000Y-13462000D03*
%TO.N,PIN55_H*%
X56804000Y-13208000D03*
%TO.N,PIN56_H*%
X57344998Y-12446000D03*
%TO.N,PIN57_H*%
X58145001Y-12446000D03*
%TO.N,PIN68_H*%
X58928000Y-13208000D03*
%TO.N,PIN69_H*%
X59690000Y-12700000D03*
%TO.N,PIN63_H*%
X18263291Y-13088261D03*
%TD*%
D18*
%TO.N,+3.3V*%
X3023999Y-15259500D02*
X3424000Y-14859499D01*
X25373500Y-11176000D02*
X25400000Y-11202500D01*
X54026900Y-11150600D02*
X53975000Y-11202500D01*
X14986000Y-11176000D02*
X15848500Y-11176000D01*
X3424000Y-14859499D02*
X3424000Y-14197000D01*
X53086000Y-11176000D02*
X53948500Y-11176000D01*
X34036000Y-11176000D02*
X34898500Y-11176000D01*
D19*
X3474000Y-9839000D02*
X3474000Y-14197000D01*
D18*
X34976900Y-11150600D02*
X34925000Y-11202500D01*
X1524000Y-14859499D02*
X1924001Y-15259500D01*
X43434000Y-11176000D02*
X44423500Y-11176000D01*
X36445002Y-11150600D02*
X34976900Y-11150600D01*
X45970002Y-11150600D02*
X44501900Y-11150600D01*
X34898500Y-11176000D02*
X34925000Y-11202500D01*
X44423500Y-11176000D02*
X44450000Y-11202500D01*
D19*
X2525000Y-8890000D02*
X3474000Y-9839000D01*
D18*
X1924001Y-15259500D02*
X3023999Y-15259500D01*
X26920002Y-11150600D02*
X25451900Y-11150600D01*
X24384000Y-11176000D02*
X25373500Y-11176000D01*
D19*
X60960000Y-2540000D02*
X60960000Y-6350000D01*
D18*
X53948500Y-11176000D02*
X53975000Y-11202500D01*
X15848500Y-11176000D02*
X15875000Y-11202500D01*
X55495002Y-11150600D02*
X54026900Y-11150600D01*
X15926900Y-11150600D02*
X15875000Y-11202500D01*
X1524000Y-14197000D02*
X1524000Y-14859499D01*
X17395002Y-11150600D02*
X15926900Y-11150600D01*
X25451900Y-11150600D02*
X25400000Y-11202500D01*
X44501900Y-11150600D02*
X44450000Y-11202500D01*
%TO.N,GND*%
X23244998Y-16789400D02*
X23244998Y-18284002D01*
X14197500Y-12927500D02*
X13716000Y-12446000D01*
X2474000Y-14197000D02*
X2474000Y-13015000D01*
X25400000Y-12927500D02*
X25400000Y-13970000D01*
D20*
X61345000Y-11150600D02*
X61345000Y-12577000D01*
X34925000Y-12927500D02*
X36284102Y-12927500D01*
D18*
X32769998Y-18284002D02*
X32766000Y-18288000D01*
D20*
X61345000Y-12577000D02*
X61468000Y-12700000D01*
X55406301Y-12927500D02*
X56145001Y-12188800D01*
D18*
X2474000Y-13015000D02*
X1331000Y-13015000D01*
X61344998Y-18030002D02*
X61277500Y-18097500D01*
D20*
X27570001Y-12116601D02*
X27570001Y-11150600D01*
D18*
X13720000Y-12442000D02*
X13716000Y-12446000D01*
X23244998Y-18284002D02*
X23241000Y-18288000D01*
X32769998Y-16789400D02*
X32769998Y-18284002D01*
X5588000Y-14250500D02*
X5588000Y-16282500D01*
X34925000Y-12927500D02*
X34925000Y-13970000D01*
X51819998Y-16789400D02*
X51819998Y-18284002D01*
D20*
X37095001Y-12116601D02*
X37095001Y-11150600D01*
D18*
X5588000Y-16282500D02*
X5053500Y-16282500D01*
X44450000Y-12927500D02*
X44450000Y-13970000D01*
D20*
X46620001Y-12188800D02*
X46620001Y-11150600D01*
D18*
X42294998Y-16789400D02*
X42294998Y-18284002D01*
D20*
X56145001Y-12188800D02*
X56145001Y-11150600D01*
D18*
X53975000Y-12927500D02*
X53975000Y-13970000D01*
D20*
X15875000Y-12927500D02*
X17306301Y-12927500D01*
X44450000Y-12927500D02*
X45881301Y-12927500D01*
X53975000Y-12927500D02*
X55406301Y-12927500D01*
X18045001Y-12188800D02*
X18045001Y-11150600D01*
X45881301Y-12927500D02*
X46620001Y-12188800D01*
X36284102Y-12927500D02*
X37095001Y-12116601D01*
X60694999Y-16789400D02*
X59394999Y-16789400D01*
X61345000Y-11150600D02*
X60045001Y-11150600D01*
D18*
X15875000Y-12927500D02*
X15875000Y-13970000D01*
D20*
X60694999Y-16789400D02*
X61344998Y-16789400D01*
D18*
X61344998Y-16789400D02*
X61344998Y-18030002D01*
X42294998Y-18284002D02*
X42291000Y-18288000D01*
D20*
X26759102Y-12927500D02*
X27570001Y-12116601D01*
D18*
X15875000Y-12927500D02*
X14197500Y-12927500D01*
X13720000Y-11107500D02*
X13720000Y-12442000D01*
X5053500Y-16282500D02*
X4572000Y-16764000D01*
D20*
X17306301Y-12927500D02*
X18045001Y-12188800D01*
X25400000Y-12927500D02*
X26759102Y-12927500D01*
D18*
X51819998Y-18284002D02*
X51816000Y-18288000D01*
D19*
X58420000Y-6350000D02*
X58420000Y-2540000D01*
%TO.N,+5V*%
X45720000Y-2540000D02*
X45720000Y-6350000D01*
D20*
%TO.N,+1V8*%
X8901544Y-17870000D02*
X8520000Y-17488456D01*
D18*
X4297001Y-18007500D02*
X5588000Y-18007500D01*
D20*
X8520000Y-17488456D02*
X8520000Y-16832500D01*
D18*
X6463000Y-17132500D02*
X5588000Y-18007500D01*
D20*
X13419999Y-17870000D02*
X8901544Y-17870000D01*
D18*
X8574000Y-16037950D02*
X8574000Y-15432000D01*
D20*
X13720000Y-17569999D02*
X13419999Y-17870000D01*
D18*
X8190000Y-15048000D02*
X7584050Y-15048000D01*
X3424000Y-17134499D02*
X4297001Y-18007500D01*
X3424000Y-16472000D02*
X3424000Y-17134499D01*
X8520000Y-16832500D02*
X8520000Y-16091950D01*
D20*
X13720000Y-16832500D02*
X13720000Y-17569999D01*
D18*
X8520000Y-16091950D02*
X8574000Y-16037950D01*
X8574000Y-15432000D02*
X8190000Y-15048000D01*
X7584050Y-15048000D02*
X6463000Y-16169050D01*
X6463000Y-16169050D02*
X6463000Y-17132500D01*
D20*
%TO.N,PIN38*%
X2540000Y-25400000D02*
X1390000Y-24250000D01*
X1778000Y-20050000D02*
X5732000Y-20050000D01*
X18694999Y-17827600D02*
X18694999Y-16789400D01*
X5732000Y-20050000D02*
X7112000Y-18670000D01*
X1390000Y-24250000D02*
X1390000Y-20438000D01*
X17852599Y-18670000D02*
X18694999Y-17827600D01*
X7112000Y-18670000D02*
X17852599Y-18670000D01*
X1390000Y-20438000D02*
X1778000Y-20050000D01*
%TO.N,PIN37*%
X7620000Y-19070000D02*
X18102601Y-19070000D01*
X5080000Y-25400000D02*
X6230000Y-24250000D01*
X18102601Y-19070000D02*
X19345001Y-17827600D01*
X6230000Y-20460000D02*
X7620000Y-19070000D01*
X6230000Y-24250000D02*
X6230000Y-20460000D01*
X19345001Y-17827600D02*
X19345001Y-16789400D01*
%TO.N,PIN36*%
X9144000Y-19470000D02*
X18352599Y-19470000D01*
X8770000Y-24250000D02*
X8770000Y-19844000D01*
X7620000Y-25400000D02*
X8770000Y-24250000D01*
X18352599Y-19470000D02*
X19994999Y-17827600D01*
X19994999Y-17827600D02*
X19994999Y-16789400D01*
X8770000Y-19844000D02*
X9144000Y-19470000D01*
%TO.N,PIN39*%
X20644998Y-17755401D02*
X20644998Y-16789400D01*
X11310000Y-20498000D02*
X11938000Y-19870000D01*
X11310000Y-24250000D02*
X11310000Y-20498000D01*
X18530399Y-19870000D02*
X20644998Y-17755401D01*
X11938000Y-19870000D02*
X18530399Y-19870000D01*
X10160000Y-25400000D02*
X11310000Y-24250000D01*
%TO.N,PIN25*%
X14020000Y-24080000D02*
X14020000Y-20982000D01*
X14732000Y-20270000D02*
X18852599Y-20270000D01*
X14020000Y-20982000D02*
X14732000Y-20270000D01*
X21294999Y-17827600D02*
X21294999Y-16789400D01*
X12700000Y-25400000D02*
X14020000Y-24080000D01*
X18852599Y-20270000D02*
X21294999Y-17827600D01*
%TO.N,PIN26*%
X21944998Y-17743287D02*
X21944998Y-16789400D01*
X19170000Y-21826346D02*
X19170000Y-20518285D01*
X19170000Y-20518285D02*
X21944998Y-17743287D01*
X15240000Y-25400000D02*
X15596346Y-25400000D01*
X15596346Y-25400000D02*
X19170000Y-21826346D01*
%TO.N,PIN27*%
X19946000Y-24250000D02*
X21710000Y-22486000D01*
X21710000Y-18676000D02*
X22594999Y-17791001D01*
X21710000Y-22486000D02*
X21710000Y-18676000D01*
X17780000Y-25400000D02*
X18930000Y-24250000D01*
X18930000Y-24250000D02*
X19946000Y-24250000D01*
X22594999Y-17791001D02*
X22594999Y-16789400D01*
%TO.N,PIN28*%
X30169998Y-17827600D02*
X30169998Y-16789400D01*
X27284400Y-17927600D02*
X30069998Y-17927600D01*
X30069998Y-17927600D02*
X30169998Y-17827600D01*
X20676346Y-25400000D02*
X24130000Y-21946346D01*
X24130000Y-21082000D02*
X27284400Y-17927600D01*
X20320000Y-25400000D02*
X20676346Y-25400000D01*
X24130000Y-21946346D02*
X24130000Y-21082000D01*
%TO.N,PIN29*%
X30819999Y-17827600D02*
X30819999Y-16789400D01*
X26670000Y-21946346D02*
X26670000Y-20828000D01*
X22860000Y-25400000D02*
X23216346Y-25400000D01*
X29170400Y-18327600D02*
X30319999Y-18327600D01*
X26670000Y-20828000D02*
X29170400Y-18327600D01*
X30319999Y-18327600D02*
X30819999Y-17827600D01*
X23216346Y-25400000D02*
X26670000Y-21946346D01*
%TO.N,PIN30*%
X25756346Y-25400000D02*
X29210000Y-21946346D01*
X31469998Y-17827600D02*
X31469998Y-16789400D01*
X29210000Y-20087598D02*
X31469998Y-17827600D01*
X25400000Y-25400000D02*
X25756346Y-25400000D01*
X29210000Y-21946346D02*
X29210000Y-20087598D01*
%TO.N,PIN33*%
X27940000Y-25400000D02*
X28296346Y-25400000D01*
X31750000Y-21946346D02*
X31750000Y-18455471D01*
X31750000Y-18455471D02*
X32119999Y-18085472D01*
X28296346Y-25400000D02*
X31750000Y-21946346D01*
X32119999Y-18085472D02*
X32119999Y-16789400D01*
%TO.N,PIN34*%
X30988000Y-25400000D02*
X34410000Y-21978000D01*
X30480000Y-25400000D02*
X30988000Y-25400000D01*
X34410000Y-21978000D02*
X34410000Y-21109600D01*
X39594998Y-17927600D02*
X39694998Y-17827600D01*
X39694998Y-17827600D02*
X39694998Y-16789400D01*
X34410000Y-21109600D02*
X37592000Y-17927600D01*
X37592000Y-17927600D02*
X39594998Y-17927600D01*
%TO.N,PIN40*%
X36830000Y-20828000D02*
X39330400Y-18327600D01*
X39760684Y-18327600D02*
X40344999Y-17743285D01*
X33020000Y-25400000D02*
X33376346Y-25400000D01*
X33376346Y-25400000D02*
X36830000Y-21946346D01*
X39330400Y-18327600D02*
X39760684Y-18327600D01*
X40344999Y-17743285D02*
X40344999Y-16789400D01*
X36830000Y-21946346D02*
X36830000Y-20828000D01*
%TO.N,PIN35*%
X39490000Y-19184000D02*
X40994998Y-17679002D01*
X35560000Y-25400000D02*
X35916346Y-25400000D01*
X39490000Y-21826346D02*
X39490000Y-19184000D01*
X40994998Y-17679002D02*
X40994998Y-16789400D01*
X35916346Y-25400000D02*
X39490000Y-21826346D01*
%TO.N,PIN41*%
X41910000Y-18755529D02*
X41644999Y-18490528D01*
X38100000Y-25400000D02*
X38862000Y-25400000D01*
X41910000Y-22352000D02*
X41910000Y-18755529D01*
X38862000Y-25400000D02*
X41910000Y-22352000D01*
X41644999Y-18490528D02*
X41644999Y-16789400D01*
%TO.N,PIN42*%
X49219998Y-17827600D02*
X49119998Y-17927600D01*
X44330000Y-21202000D02*
X44330000Y-22066346D01*
X47604400Y-17927600D02*
X44330000Y-21202000D01*
X49219998Y-16789400D02*
X49219998Y-17827600D01*
X49119998Y-17927600D02*
X47604400Y-17927600D01*
X40996346Y-25400000D02*
X40640000Y-25400000D01*
X44330000Y-22066346D02*
X40996346Y-25400000D01*
%TO.N,PIN51*%
X43536346Y-25400000D02*
X47110000Y-21826346D01*
X43180000Y-25400000D02*
X43536346Y-25400000D01*
X47110000Y-21826346D02*
X47110000Y-20503283D01*
X47110000Y-20503283D02*
X49869999Y-17743284D01*
X49869999Y-17743284D02*
X49869999Y-16789400D01*
%TO.N,PIN53*%
X49650000Y-21826346D02*
X49650000Y-18676000D01*
X49650000Y-18676000D02*
X50519998Y-17806002D01*
X46076346Y-25400000D02*
X49650000Y-21826346D01*
X50519998Y-17806002D02*
X50519998Y-16789400D01*
X45720000Y-25400000D02*
X46076346Y-25400000D01*
%TO.N,PIN54*%
X48616346Y-25400000D02*
X51950000Y-22066346D01*
X51169999Y-18657999D02*
X51169999Y-16789400D01*
X48260000Y-25400000D02*
X48616346Y-25400000D01*
X51950000Y-22066346D02*
X51950000Y-19438000D01*
X51950000Y-19438000D02*
X51169999Y-18657999D01*
%TO.N,PIN55*%
X56145001Y-16789400D02*
X56145001Y-19419999D01*
X56145001Y-19419999D02*
X54610000Y-20955000D01*
X54610000Y-20955000D02*
X54610000Y-21946346D01*
X54610000Y-21946346D02*
X51156346Y-25400000D01*
X51156346Y-25400000D02*
X50800000Y-25400000D01*
%TO.N,PIN56*%
X57150000Y-20320000D02*
X56794999Y-19964999D01*
X53696346Y-25400000D02*
X53340000Y-25400000D01*
X57150000Y-21946346D02*
X57150000Y-20320000D01*
X53696346Y-25400000D02*
X57150000Y-21946346D01*
X56794999Y-19964999D02*
X56794999Y-16789400D01*
%TO.N,PIN57*%
X56236346Y-25400000D02*
X59690000Y-21946346D01*
X55880000Y-25400000D02*
X56236346Y-25400000D01*
X57445001Y-18710001D02*
X57445001Y-16789400D01*
X59690000Y-20955000D02*
X57445001Y-18710001D01*
X59690000Y-21946346D02*
X59690000Y-20955000D01*
%TO.N,PIN68*%
X59055000Y-25400000D02*
X58420000Y-25400000D01*
X59952399Y-19685000D02*
X60960000Y-19685000D01*
X58094999Y-17827600D02*
X59952399Y-19685000D01*
X62110000Y-22345000D02*
X59055000Y-25400000D01*
X62110000Y-20835000D02*
X62110000Y-22345000D01*
X58094999Y-16789400D02*
X58094999Y-17827600D01*
X60960000Y-19685000D02*
X62110000Y-20835000D01*
%TO.N,PIN69*%
X58744998Y-16789400D02*
X58744998Y-17827600D01*
X60202398Y-19285000D02*
X61195000Y-19285000D01*
X58744998Y-17827600D02*
X60202398Y-19285000D01*
X61195000Y-19285000D02*
X62510000Y-20600000D01*
X62510000Y-23850000D02*
X60960000Y-25400000D01*
X62510000Y-20600000D02*
X62510000Y-23850000D01*
%TO.N,PIN63*%
X17602601Y-18270000D02*
X18045001Y-17827600D01*
X6371314Y-18845000D02*
X6946315Y-18270000D01*
X2540000Y-2540000D02*
X731000Y-4349000D01*
X731000Y-16982052D02*
X2593948Y-18845000D01*
X6946315Y-18270000D02*
X17602601Y-18270000D01*
X731000Y-4349000D02*
X731000Y-16982052D01*
X2593948Y-18845000D02*
X6371314Y-18845000D01*
X18045001Y-17827600D02*
X18045001Y-16789400D01*
%TO.N,PIN86*%
X7870000Y-15752000D02*
X7874000Y-15748000D01*
X7870000Y-16832500D02*
X7870000Y-15752000D01*
%TO.N,PIN85*%
X9170000Y-16832500D02*
X9170000Y-14920000D01*
X9170000Y-14920000D02*
X8382000Y-14132000D01*
%TO.N,PIN84*%
X9398000Y-13970000D02*
X9820000Y-14392000D01*
X9820000Y-14392000D02*
X9820000Y-16832500D01*
%TO.N,PIN83*%
X10470000Y-14534000D02*
X10470000Y-16832500D01*
X10414000Y-14478000D02*
X10470000Y-14534000D01*
X10414000Y-13970000D02*
X10414000Y-14478000D01*
%TO.N,PIN82*%
X11120000Y-13406000D02*
X11120000Y-16832500D01*
X10922000Y-13208000D02*
X11120000Y-13406000D01*
%TO.N,PIN81*%
X11770000Y-16832500D02*
X11770000Y-14020000D01*
X11770000Y-14020000D02*
X11720000Y-13970000D01*
%TO.N,PIN80*%
X12520003Y-13970000D02*
X12420000Y-14070003D01*
X12420000Y-14070003D02*
X12420000Y-16832500D01*
%TO.N,PIN79*%
X13070000Y-14220006D02*
X13070000Y-16832500D01*
X13320006Y-13970000D02*
X13070000Y-14220006D01*
%TO.N,PIN77*%
X27432000Y-14478000D02*
X27570001Y-14616001D01*
X27570001Y-14616001D02*
X27570001Y-16789400D01*
X27432000Y-13970000D02*
X27432000Y-14478000D01*
%TO.N,PIN76*%
X28232003Y-13970000D02*
X28232003Y-14439997D01*
X28219999Y-14452001D02*
X28219999Y-16789400D01*
X28232003Y-14439997D02*
X28219999Y-14452001D01*
%TO.N,PIN75*%
X28870001Y-14132005D02*
X28870001Y-16789400D01*
X29032006Y-13970000D02*
X28870001Y-14132005D01*
%TO.N,PIN74*%
X29829706Y-14030650D02*
X29519999Y-14340357D01*
X29519999Y-14340357D02*
X29519999Y-16789400D01*
%TO.N,PIN73*%
X36830000Y-13970000D02*
X36830000Y-14478000D01*
X36830000Y-14478000D02*
X37095001Y-14743001D01*
X37095001Y-14743001D02*
X37095001Y-16789400D01*
%TO.N,PIN72*%
X37630003Y-13970000D02*
X37630003Y-14439997D01*
X37630003Y-14439997D02*
X37744999Y-14554993D01*
X37744999Y-14554993D02*
X37744999Y-16789400D01*
%TO.N,PIN71*%
X38430006Y-13970000D02*
X38395001Y-14005005D01*
X38395001Y-14005005D02*
X38395001Y-16789400D01*
%TO.N,PIN70*%
X39044999Y-14295001D02*
X39044999Y-16789400D01*
X39370000Y-13970000D02*
X39044999Y-14295001D01*
%TO.N,PIN48*%
X46620001Y-13346001D02*
X46620001Y-16789400D01*
X46600276Y-13326276D02*
X46620001Y-13346001D01*
%TO.N,PIN49*%
X47269999Y-16789400D02*
X47269999Y-13628445D01*
X47269999Y-13628445D02*
X47375805Y-13522639D01*
%TO.N,PIN31*%
X47920001Y-15751200D02*
X48172129Y-15499072D01*
X47920001Y-16789400D02*
X47920001Y-15751200D01*
X48172129Y-15499072D02*
X48172129Y-13446015D01*
%TO.N,PIN32*%
X48569999Y-15751200D02*
X48915758Y-15405441D01*
X48569999Y-16789400D02*
X48569999Y-15751200D01*
X48915758Y-15405441D02*
X48915758Y-13151024D01*
%TO.N,PIN38_H*%
X19345001Y-11150600D02*
X19345001Y-12572237D01*
X19345001Y-12572237D02*
X19260619Y-12656619D01*
%TO.N,PIN37_H*%
X20084937Y-11240535D02*
X19995002Y-11150600D01*
X20084937Y-12452238D02*
X20084937Y-11240535D01*
%TO.N,PIN36_H*%
X20645001Y-12205612D02*
X20645001Y-11150600D01*
X20884911Y-12445522D02*
X20645001Y-12205612D01*
%TO.N,PIN39_H*%
X21581684Y-12838601D02*
X21581684Y-12288800D01*
X21581684Y-12288800D02*
X21295002Y-12002118D01*
X21295002Y-12002118D02*
X21295002Y-11150600D01*
%TO.N,PIN25_H*%
X22181684Y-12392000D02*
X21981684Y-12192000D01*
X21981684Y-12192000D02*
X21981684Y-11187283D01*
X22181684Y-13124316D02*
X22181684Y-12392000D01*
X21590000Y-13716000D02*
X22181684Y-13124316D01*
X21981684Y-11187283D02*
X21945001Y-11150600D01*
%TO.N,PIN26_H*%
X22595002Y-13559527D02*
X22595002Y-11150600D01*
X22414266Y-13740263D02*
X22595002Y-13559527D01*
%TO.N,PIN27_H*%
X23213788Y-13307788D02*
X23245000Y-13276576D01*
X23213788Y-13712540D02*
X23213788Y-13307788D01*
X23245000Y-13276576D02*
X23245000Y-11150600D01*
%TO.N,PIN28_H*%
X30820002Y-11150600D02*
X30820002Y-12867998D01*
X30820002Y-12867998D02*
X30734000Y-12954000D01*
%TO.N,PIN29_H*%
X31344556Y-13724938D02*
X31470001Y-13599493D01*
X31470001Y-13599493D02*
X31470001Y-11150600D01*
%TO.N,PIN30_H*%
X32120002Y-12903999D02*
X32070001Y-12954000D01*
X32120002Y-11150600D02*
X32120002Y-12903999D01*
%TO.N,PIN33_H*%
X32770000Y-11150600D02*
X32770000Y-13616001D01*
X32770000Y-13616001D02*
X32670001Y-13716000D01*
%TO.N,PIN34_H*%
X40345002Y-12740998D02*
X40345002Y-11150600D01*
%TO.N,PIN40_H*%
X40995001Y-11150600D02*
X40995001Y-13360999D01*
X40995001Y-13360999D02*
X40894000Y-13462000D01*
%TO.N,PIN35_H*%
X41595001Y-11200601D02*
X41645002Y-11150600D01*
X41595001Y-12642313D02*
X41595001Y-11200601D01*
%TO.N,PIN41_H*%
X42295000Y-12323000D02*
X42418000Y-12446000D01*
X42295000Y-11150600D02*
X42295000Y-12323000D01*
X42418000Y-12446000D02*
X42418000Y-13462000D01*
%TO.N,PIN42_H*%
X49870002Y-11150600D02*
X49870002Y-12867998D01*
X49870002Y-12867998D02*
X49784000Y-12954000D01*
%TO.N,PIN51_H*%
X50520001Y-13349373D02*
X50520001Y-11150600D01*
X50349687Y-13519687D02*
X50520001Y-13349373D01*
%TO.N,PIN53_H*%
X51120001Y-11200601D02*
X51170002Y-11150600D01*
X51120001Y-12954000D02*
X51120001Y-11200601D01*
%TO.N,PIN54_H*%
X51820000Y-13458000D02*
X51820000Y-11150600D01*
X51816000Y-13462000D02*
X51820000Y-13458000D01*
%TO.N,PIN55_H*%
X56804000Y-13208000D02*
X56744998Y-13148998D01*
X56744998Y-11200604D02*
X56795002Y-11150600D01*
X56744998Y-13148998D02*
X56744998Y-11200604D01*
%TO.N,PIN56_H*%
X57344998Y-12446000D02*
X57344998Y-11250603D01*
X57344998Y-11250603D02*
X57445001Y-11150600D01*
%TO.N,PIN57_H*%
X58145001Y-11200599D02*
X58095002Y-11150600D01*
X58145001Y-12446000D02*
X58145001Y-11200599D01*
%TO.N,PIN68_H*%
X58745001Y-13025001D02*
X58928000Y-13208000D01*
X58745001Y-11150600D02*
X58745001Y-13025001D01*
%TO.N,PIN69_H*%
X59395002Y-12188800D02*
X59690000Y-12483798D01*
X59395002Y-11150600D02*
X59395002Y-12188800D01*
X59690000Y-12483798D02*
X59690000Y-12700000D01*
%TO.N,PIN63_H*%
X18263291Y-13088261D02*
X18263291Y-12620511D01*
X18263291Y-12620511D02*
X18695002Y-12188800D01*
X18695002Y-12188800D02*
X18695002Y-11150600D01*
%TO.N,PIN86_H*%
X6455000Y-8447106D02*
X5080000Y-7072106D01*
X6455000Y-10040000D02*
X6455000Y-8447106D01*
X7522500Y-11107500D02*
X6455000Y-10040000D01*
X7870000Y-11107500D02*
X7522500Y-11107500D01*
X5080000Y-7072106D02*
X5080000Y-6350000D01*
%TO.N,PIN85_H*%
X7620000Y-6350000D02*
X9170000Y-7900000D01*
X9170000Y-7900000D02*
X9170000Y-11107500D01*
%TO.N,PIN84_H*%
X9820000Y-6690000D02*
X9820000Y-11107500D01*
X10160000Y-6350000D02*
X9820000Y-6690000D01*
%TO.N,PIN83_H*%
X12700000Y-6350000D02*
X10470000Y-8580000D01*
X10470000Y-8580000D02*
X10470000Y-11107500D01*
%TO.N,PIN82_H*%
X11684000Y-8128000D02*
X13462000Y-8128000D01*
X11120000Y-8692000D02*
X11684000Y-8128000D01*
X13462000Y-8128000D02*
X15240000Y-6350000D01*
X11120000Y-11107500D02*
X11120000Y-8692000D01*
%TO.N,PIN81_H*%
X14655686Y-7500000D02*
X16630000Y-7500000D01*
X16630000Y-7500000D02*
X17780000Y-6350000D01*
X11770000Y-10385686D02*
X14655686Y-7500000D01*
X11770000Y-11107500D02*
X11770000Y-10385686D01*
%TO.N,PIN80_H*%
X14890001Y-7900000D02*
X18770000Y-7900000D01*
X12420000Y-11107500D02*
X12420000Y-10370001D01*
X12420000Y-10370001D02*
X14890001Y-7900000D01*
X18770000Y-7900000D02*
X20320000Y-6350000D01*
%TO.N,PIN79_H*%
X20910000Y-8300000D02*
X22860000Y-6350000D01*
X15140001Y-8300000D02*
X20910000Y-8300000D01*
X13070000Y-11107500D02*
X13070000Y-10370001D01*
X13070000Y-10370001D02*
X15140001Y-8300000D01*
%TO.N,PIN77_H*%
X28220002Y-9170002D02*
X25400000Y-6350000D01*
X28220002Y-11150600D02*
X28220002Y-9170002D01*
%TO.N,PIN76_H*%
X28870001Y-7280001D02*
X27940000Y-6350000D01*
X28870001Y-11150600D02*
X28870001Y-7280001D01*
%TO.N,PIN75_H*%
X29520002Y-11150600D02*
X29520002Y-7309998D01*
X29520002Y-7309998D02*
X30480000Y-6350000D01*
%TO.N,PIN74_H*%
X30170001Y-9199999D02*
X33020000Y-6350000D01*
X30170001Y-11150600D02*
X30170001Y-9199999D01*
%TO.N,PIN73_H*%
X37745002Y-11150600D02*
X37745002Y-8535002D01*
X37745002Y-8535002D02*
X35560000Y-6350000D01*
%TO.N,PIN72_H*%
X38395001Y-6645001D02*
X38100000Y-6350000D01*
X38395001Y-11150600D02*
X38395001Y-6645001D01*
%TO.N,PIN71_H*%
X39045002Y-11150600D02*
X39045002Y-7944998D01*
X39045002Y-7944998D02*
X40640000Y-6350000D01*
%TO.N,PIN70_H*%
X39695001Y-11150600D02*
X39695001Y-9834999D01*
X39695001Y-9834999D02*
X43180000Y-6350000D01*
%TO.N,PIN48_H*%
X48260000Y-6350000D02*
X47270002Y-7339998D01*
X47270002Y-7339998D02*
X47270002Y-11150600D01*
%TO.N,PIN49_H*%
X47920001Y-9229999D02*
X47920001Y-11150600D01*
X50800000Y-6350000D02*
X47920001Y-9229999D01*
%TO.N,PIN31_H*%
X48570002Y-10112400D02*
X51062402Y-7620000D01*
X52070000Y-7620000D02*
X53340000Y-6350000D01*
X48570002Y-11150600D02*
X48570002Y-10112400D01*
X51062402Y-7620000D02*
X52070000Y-7620000D01*
%TO.N,PIN32_H*%
X54210000Y-8020000D02*
X55880000Y-6350000D01*
X49220001Y-11150600D02*
X49220001Y-10112400D01*
X49220001Y-10112400D02*
X51312401Y-8020000D01*
X51312401Y-8020000D02*
X54210000Y-8020000D01*
D18*
%TO.N,Net-(J1-Pin_2)*%
X5588000Y-12525500D02*
X5588000Y-9413000D01*
X8520000Y-11107500D02*
X8520000Y-12330000D01*
X5588000Y-9413000D02*
X5065000Y-8890000D01*
X8520000Y-12330000D02*
X8324500Y-12525500D01*
X8324500Y-12525500D02*
X5588000Y-12525500D01*
%TD*%
M02*
