M48
; DRILL file {KiCad 8.0.1} date 2024-03-31T10:02:58+0900
; FORMAT={-:-/ absolute / inch / decimal}
; #@! TF.CreationDate,2024-03-31T10:02:58+09:00
; #@! TF.GenerationSoftware,Kicad,Pcbnew,8.0.1
; #@! TF.FileFunction,Plated,1,4,PTH
FMAT,2
INCH
; #@! TA.AperFunction,Plated,PTH,ViaDrill
T1C0.0118
; #@! TA.AperFunction,Plated,PTH,ComponentDrill
T2C0.0394
%
G90
G05
T1
X0.0524Y-0.5124
X0.0974Y-0.5124
X0.18Y-0.66
X0.22Y-0.6
X0.31Y-0.62
X0.33Y-0.5564
X0.37Y-0.55
X0.41Y-0.55
X0.43Y-0.52
X0.4614Y-0.55
X0.4929Y-0.55
X0.5244Y-0.55
X0.54Y-0.49
X0.59Y-0.44
X0.625Y-0.55
X0.719Y-0.5153
X0.7583Y-0.4983
X0.7907Y-0.4902
X0.8222Y-0.49
X0.8497Y-0.5055
X0.85Y-0.54
X0.8825Y-0.541
X0.9139Y-0.5399
X0.915Y-0.72
X0.96Y-0.44
X1.0Y-0.55
X1.08Y-0.55
X1.1115Y-0.55
X1.143Y-0.55
X1.1744Y-0.5524
X1.21Y-0.51
X1.234Y-0.5404
X1.2626Y-0.51
X1.2862Y-0.54
X1.29Y-0.72
X1.34Y-0.44
X1.375Y-0.55
X1.45Y-0.55
X1.4815Y-0.55
X1.513Y-0.55
X1.55Y-0.55
X1.58Y-0.5
X1.61Y-0.53
X1.6376Y-0.4977
X1.665Y-0.72
X1.67Y-0.53
X1.71Y-0.44
X1.75Y-0.55
X1.8347Y-0.5247
X1.8652Y-0.5324
X1.8965Y-0.5294
X1.9258Y-0.5178
X1.96Y-0.51
X1.9823Y-0.5323
X2.0126Y-0.51
X2.04Y-0.53
X2.04Y-0.72
X2.09Y-0.44
X2.125Y-0.55
X2.2364Y-0.52
X2.2577Y-0.49
X2.2892Y-0.49
X2.32Y-0.52
X2.35Y-0.5
X2.4125Y-0.7125
X2.42Y-0.5
T2
X0.0994Y-0.35
X0.1Y-0.1
X0.1Y-0.25
X0.1Y-0.85
X0.1Y-1.0
X0.1994Y-0.35
X0.2Y-0.1
X0.2Y-0.25
X0.2Y-0.85
X0.2Y-1.0
X0.2994Y-0.35
X0.3Y-0.1
X0.3Y-0.25
X0.3Y-0.85
X0.3Y-1.0
X0.4Y-0.1
X0.4Y-0.25
X0.4Y-0.85
X0.4Y-1.0
X0.5Y-0.1
X0.5Y-0.25
X0.5Y-0.85
X0.5Y-1.0
X0.6Y-0.1
X0.6Y-0.25
X0.6Y-0.85
X0.6Y-1.0
X0.7Y-0.1
X0.7Y-0.25
X0.7Y-0.85
X0.7Y-1.0
X0.8Y-0.1
X0.8Y-0.25
X0.8Y-0.85
X0.8Y-1.0
X0.9Y-0.1
X0.9Y-0.25
X0.9Y-0.85
X0.9Y-1.0
X1.0Y-0.1
X1.0Y-0.25
X1.0Y-0.85
X1.0Y-1.0
X1.1Y-0.1
X1.1Y-0.25
X1.1Y-0.85
X1.1Y-1.0
X1.2Y-0.1
X1.2Y-0.25
X1.2Y-0.85
X1.2Y-1.0
X1.3Y-0.1
X1.3Y-0.25
X1.3Y-0.85
X1.3Y-1.0
X1.4Y-0.1
X1.4Y-0.25
X1.4Y-0.85
X1.4Y-1.0
X1.5Y-0.1
X1.5Y-0.25
X1.5Y-0.85
X1.5Y-1.0
X1.6Y-0.1
X1.6Y-0.25
X1.6Y-0.85
X1.6Y-1.0
X1.7Y-0.1
X1.7Y-0.25
X1.7Y-0.85
X1.7Y-1.0
X1.8Y-0.1
X1.8Y-0.25
X1.8Y-0.85
X1.8Y-1.0
X1.9Y-0.1
X1.9Y-0.25
X1.9Y-0.85
X1.9Y-1.0
X2.0Y-0.1
X2.0Y-0.25
X2.0Y-0.85
X2.0Y-1.0
X2.1Y-0.1
X2.1Y-0.25
X2.1Y-0.85
X2.1Y-1.0
X2.2Y-0.1
X2.2Y-0.25
X2.2Y-0.85
X2.2Y-1.0
X2.3Y-0.1
X2.3Y-0.25
X2.3Y-0.85
X2.3Y-1.0
X2.4Y-0.1
X2.4Y-0.25
X2.4Y-0.85
X2.4Y-1.0
M30
