%TF.GenerationSoftware,KiCad,Pcbnew,7.0.2*%
%TF.CreationDate,2023-06-15T20:21:22+09:00*%
%TF.ProjectId,TangNano5V,54616e67-4e61-46e6-9f35-562e6b696361,rev?*%
%TF.SameCoordinates,Original*%
%TF.FileFunction,Copper,L4,Bot*%
%TF.FilePolarity,Positive*%
%FSLAX46Y46*%
G04 Gerber Fmt 4.6, Leading zero omitted, Abs format (unit mm)*
G04 Created by KiCad (PCBNEW 7.0.2) date 2023-06-15 20:21:22*
%MOMM*%
%LPD*%
G01*
G04 APERTURE LIST*
%ADD10C,0.120000*%
%TA.AperFunction,NonConductor*%
%ADD11C,0.120000*%
%TD*%
%TA.AperFunction,ComponentPad*%
%ADD12R,1.700000X1.700000*%
%TD*%
%TA.AperFunction,ComponentPad*%
%ADD13O,1.700000X1.700000*%
%TD*%
%TA.AperFunction,ViaPad*%
%ADD14C,0.800000*%
%TD*%
%TA.AperFunction,Conductor*%
%ADD15C,0.250000*%
%TD*%
%TA.AperFunction,Conductor*%
%ADD16C,1.000000*%
%TD*%
G04 APERTURE END LIST*
D10*
D11*
X52387523Y-10466095D02*
X52387523Y-9666095D01*
X52387523Y-9666095D02*
X52197047Y-9666095D01*
X52197047Y-9666095D02*
X52082761Y-9704190D01*
X52082761Y-9704190D02*
X52006571Y-9780380D01*
X52006571Y-9780380D02*
X51968476Y-9856571D01*
X51968476Y-9856571D02*
X51930380Y-10008952D01*
X51930380Y-10008952D02*
X51930380Y-10123238D01*
X51930380Y-10123238D02*
X51968476Y-10275619D01*
X51968476Y-10275619D02*
X52006571Y-10351809D01*
X52006571Y-10351809D02*
X52082761Y-10428000D01*
X52082761Y-10428000D02*
X52197047Y-10466095D01*
X52197047Y-10466095D02*
X52387523Y-10466095D01*
X51282761Y-10428000D02*
X51358952Y-10466095D01*
X51358952Y-10466095D02*
X51511333Y-10466095D01*
X51511333Y-10466095D02*
X51587523Y-10428000D01*
X51587523Y-10428000D02*
X51625619Y-10351809D01*
X51625619Y-10351809D02*
X51625619Y-10047047D01*
X51625619Y-10047047D02*
X51587523Y-9970857D01*
X51587523Y-9970857D02*
X51511333Y-9932761D01*
X51511333Y-9932761D02*
X51358952Y-9932761D01*
X51358952Y-9932761D02*
X51282761Y-9970857D01*
X51282761Y-9970857D02*
X51244666Y-10047047D01*
X51244666Y-10047047D02*
X51244666Y-10123238D01*
X51244666Y-10123238D02*
X51625619Y-10199428D01*
X50939905Y-10428000D02*
X50863714Y-10466095D01*
X50863714Y-10466095D02*
X50711333Y-10466095D01*
X50711333Y-10466095D02*
X50635143Y-10428000D01*
X50635143Y-10428000D02*
X50597047Y-10351809D01*
X50597047Y-10351809D02*
X50597047Y-10313714D01*
X50597047Y-10313714D02*
X50635143Y-10237523D01*
X50635143Y-10237523D02*
X50711333Y-10199428D01*
X50711333Y-10199428D02*
X50825619Y-10199428D01*
X50825619Y-10199428D02*
X50901809Y-10161333D01*
X50901809Y-10161333D02*
X50939905Y-10085142D01*
X50939905Y-10085142D02*
X50939905Y-10047047D01*
X50939905Y-10047047D02*
X50901809Y-9970857D01*
X50901809Y-9970857D02*
X50825619Y-9932761D01*
X50825619Y-9932761D02*
X50711333Y-9932761D01*
X50711333Y-9932761D02*
X50635143Y-9970857D01*
X50254190Y-10466095D02*
X50254190Y-9932761D01*
X50254190Y-9666095D02*
X50292286Y-9704190D01*
X50292286Y-9704190D02*
X50254190Y-9742285D01*
X50254190Y-9742285D02*
X50216095Y-9704190D01*
X50216095Y-9704190D02*
X50254190Y-9666095D01*
X50254190Y-9666095D02*
X50254190Y-9742285D01*
X49530381Y-9932761D02*
X49530381Y-10580380D01*
X49530381Y-10580380D02*
X49568476Y-10656571D01*
X49568476Y-10656571D02*
X49606572Y-10694666D01*
X49606572Y-10694666D02*
X49682762Y-10732761D01*
X49682762Y-10732761D02*
X49797048Y-10732761D01*
X49797048Y-10732761D02*
X49873238Y-10694666D01*
X49530381Y-10428000D02*
X49606572Y-10466095D01*
X49606572Y-10466095D02*
X49758953Y-10466095D01*
X49758953Y-10466095D02*
X49835143Y-10428000D01*
X49835143Y-10428000D02*
X49873238Y-10389904D01*
X49873238Y-10389904D02*
X49911334Y-10313714D01*
X49911334Y-10313714D02*
X49911334Y-10085142D01*
X49911334Y-10085142D02*
X49873238Y-10008952D01*
X49873238Y-10008952D02*
X49835143Y-9970857D01*
X49835143Y-9970857D02*
X49758953Y-9932761D01*
X49758953Y-9932761D02*
X49606572Y-9932761D01*
X49606572Y-9932761D02*
X49530381Y-9970857D01*
X49149428Y-9932761D02*
X49149428Y-10466095D01*
X49149428Y-10008952D02*
X49111333Y-9970857D01*
X49111333Y-9970857D02*
X49035143Y-9932761D01*
X49035143Y-9932761D02*
X48920857Y-9932761D01*
X48920857Y-9932761D02*
X48844666Y-9970857D01*
X48844666Y-9970857D02*
X48806571Y-10047047D01*
X48806571Y-10047047D02*
X48806571Y-10466095D01*
X48120856Y-10428000D02*
X48197047Y-10466095D01*
X48197047Y-10466095D02*
X48349428Y-10466095D01*
X48349428Y-10466095D02*
X48425618Y-10428000D01*
X48425618Y-10428000D02*
X48463714Y-10351809D01*
X48463714Y-10351809D02*
X48463714Y-10047047D01*
X48463714Y-10047047D02*
X48425618Y-9970857D01*
X48425618Y-9970857D02*
X48349428Y-9932761D01*
X48349428Y-9932761D02*
X48197047Y-9932761D01*
X48197047Y-9932761D02*
X48120856Y-9970857D01*
X48120856Y-9970857D02*
X48082761Y-10047047D01*
X48082761Y-10047047D02*
X48082761Y-10123238D01*
X48082761Y-10123238D02*
X48463714Y-10199428D01*
X47397047Y-10466095D02*
X47397047Y-9666095D01*
X47397047Y-10428000D02*
X47473238Y-10466095D01*
X47473238Y-10466095D02*
X47625619Y-10466095D01*
X47625619Y-10466095D02*
X47701809Y-10428000D01*
X47701809Y-10428000D02*
X47739904Y-10389904D01*
X47739904Y-10389904D02*
X47778000Y-10313714D01*
X47778000Y-10313714D02*
X47778000Y-10085142D01*
X47778000Y-10085142D02*
X47739904Y-10008952D01*
X47739904Y-10008952D02*
X47701809Y-9970857D01*
X47701809Y-9970857D02*
X47625619Y-9932761D01*
X47625619Y-9932761D02*
X47473238Y-9932761D01*
X47473238Y-9932761D02*
X47397047Y-9970857D01*
X46406570Y-10466095D02*
X46406570Y-9666095D01*
X46406570Y-9970857D02*
X46330380Y-9932761D01*
X46330380Y-9932761D02*
X46177999Y-9932761D01*
X46177999Y-9932761D02*
X46101808Y-9970857D01*
X46101808Y-9970857D02*
X46063713Y-10008952D01*
X46063713Y-10008952D02*
X46025618Y-10085142D01*
X46025618Y-10085142D02*
X46025618Y-10313714D01*
X46025618Y-10313714D02*
X46063713Y-10389904D01*
X46063713Y-10389904D02*
X46101808Y-10428000D01*
X46101808Y-10428000D02*
X46177999Y-10466095D01*
X46177999Y-10466095D02*
X46330380Y-10466095D01*
X46330380Y-10466095D02*
X46406570Y-10428000D01*
X45758951Y-9932761D02*
X45568475Y-10466095D01*
X45377998Y-9932761D02*
X45568475Y-10466095D01*
X45568475Y-10466095D02*
X45644665Y-10656571D01*
X45644665Y-10656571D02*
X45682760Y-10694666D01*
X45682760Y-10694666D02*
X45758951Y-10732761D01*
X51930380Y-11762095D02*
X52197047Y-11381142D01*
X52387523Y-11762095D02*
X52387523Y-10962095D01*
X52387523Y-10962095D02*
X52082761Y-10962095D01*
X52082761Y-10962095D02*
X52006571Y-11000190D01*
X52006571Y-11000190D02*
X51968476Y-11038285D01*
X51968476Y-11038285D02*
X51930380Y-11114476D01*
X51930380Y-11114476D02*
X51930380Y-11228761D01*
X51930380Y-11228761D02*
X51968476Y-11304952D01*
X51968476Y-11304952D02*
X52006571Y-11343047D01*
X52006571Y-11343047D02*
X52082761Y-11381142D01*
X52082761Y-11381142D02*
X52387523Y-11381142D01*
X51663714Y-11228761D02*
X51473238Y-11762095D01*
X51282761Y-11228761D02*
X51473238Y-11762095D01*
X51473238Y-11762095D02*
X51549428Y-11952571D01*
X51549428Y-11952571D02*
X51587523Y-11990666D01*
X51587523Y-11990666D02*
X51663714Y-12028761D01*
X50863714Y-11762095D02*
X50939904Y-11724000D01*
X50939904Y-11724000D02*
X50977999Y-11685904D01*
X50977999Y-11685904D02*
X51016095Y-11609714D01*
X51016095Y-11609714D02*
X51016095Y-11381142D01*
X51016095Y-11381142D02*
X50977999Y-11304952D01*
X50977999Y-11304952D02*
X50939904Y-11266857D01*
X50939904Y-11266857D02*
X50863714Y-11228761D01*
X50863714Y-11228761D02*
X50749428Y-11228761D01*
X50749428Y-11228761D02*
X50673237Y-11266857D01*
X50673237Y-11266857D02*
X50635142Y-11304952D01*
X50635142Y-11304952D02*
X50597047Y-11381142D01*
X50597047Y-11381142D02*
X50597047Y-11609714D01*
X50597047Y-11609714D02*
X50635142Y-11685904D01*
X50635142Y-11685904D02*
X50673237Y-11724000D01*
X50673237Y-11724000D02*
X50749428Y-11762095D01*
X50749428Y-11762095D02*
X50863714Y-11762095D01*
X49644665Y-11762095D02*
X49644665Y-10962095D01*
X49644665Y-10962095D02*
X49377999Y-11533523D01*
X49377999Y-11533523D02*
X49111332Y-10962095D01*
X49111332Y-10962095D02*
X49111332Y-11762095D01*
X48387522Y-11228761D02*
X48387522Y-11762095D01*
X48730379Y-11228761D02*
X48730379Y-11647809D01*
X48730379Y-11647809D02*
X48692284Y-11724000D01*
X48692284Y-11724000D02*
X48616094Y-11762095D01*
X48616094Y-11762095D02*
X48501808Y-11762095D01*
X48501808Y-11762095D02*
X48425617Y-11724000D01*
X48425617Y-11724000D02*
X48387522Y-11685904D01*
X48006569Y-11762095D02*
X48006569Y-10962095D01*
X47930379Y-11457333D02*
X47701807Y-11762095D01*
X47701807Y-11228761D02*
X48006569Y-11533523D01*
X47016093Y-11762095D02*
X47016093Y-11343047D01*
X47016093Y-11343047D02*
X47054188Y-11266857D01*
X47054188Y-11266857D02*
X47130379Y-11228761D01*
X47130379Y-11228761D02*
X47282760Y-11228761D01*
X47282760Y-11228761D02*
X47358950Y-11266857D01*
X47016093Y-11724000D02*
X47092284Y-11762095D01*
X47092284Y-11762095D02*
X47282760Y-11762095D01*
X47282760Y-11762095D02*
X47358950Y-11724000D01*
X47358950Y-11724000D02*
X47397046Y-11647809D01*
X47397046Y-11647809D02*
X47397046Y-11571619D01*
X47397046Y-11571619D02*
X47358950Y-11495428D01*
X47358950Y-11495428D02*
X47282760Y-11457333D01*
X47282760Y-11457333D02*
X47092284Y-11457333D01*
X47092284Y-11457333D02*
X47016093Y-11419238D01*
X46635140Y-11762095D02*
X46635140Y-11228761D01*
X46635140Y-10962095D02*
X46673236Y-11000190D01*
X46673236Y-11000190D02*
X46635140Y-11038285D01*
X46635140Y-11038285D02*
X46597045Y-11000190D01*
X46597045Y-11000190D02*
X46635140Y-10962095D01*
X46635140Y-10962095D02*
X46635140Y-11038285D01*
X52158952Y-12258095D02*
X52158952Y-12829523D01*
X52158952Y-12829523D02*
X52197047Y-12943809D01*
X52197047Y-12943809D02*
X52273238Y-13020000D01*
X52273238Y-13020000D02*
X52387523Y-13058095D01*
X52387523Y-13058095D02*
X52463714Y-13058095D01*
X51435142Y-12524761D02*
X51435142Y-13058095D01*
X51777999Y-12524761D02*
X51777999Y-12943809D01*
X51777999Y-12943809D02*
X51739904Y-13020000D01*
X51739904Y-13020000D02*
X51663714Y-13058095D01*
X51663714Y-13058095D02*
X51549428Y-13058095D01*
X51549428Y-13058095D02*
X51473237Y-13020000D01*
X51473237Y-13020000D02*
X51435142Y-12981904D01*
X51054189Y-12524761D02*
X51054189Y-13058095D01*
X51054189Y-12600952D02*
X51016094Y-12562857D01*
X51016094Y-12562857D02*
X50939904Y-12524761D01*
X50939904Y-12524761D02*
X50825618Y-12524761D01*
X50825618Y-12524761D02*
X50749427Y-12562857D01*
X50749427Y-12562857D02*
X50711332Y-12639047D01*
X50711332Y-12639047D02*
X50711332Y-13058095D01*
X50025617Y-13020000D02*
X50101808Y-13058095D01*
X50101808Y-13058095D02*
X50254189Y-13058095D01*
X50254189Y-13058095D02*
X50330379Y-13020000D01*
X50330379Y-13020000D02*
X50368475Y-12943809D01*
X50368475Y-12943809D02*
X50368475Y-12639047D01*
X50368475Y-12639047D02*
X50330379Y-12562857D01*
X50330379Y-12562857D02*
X50254189Y-12524761D01*
X50254189Y-12524761D02*
X50101808Y-12524761D01*
X50101808Y-12524761D02*
X50025617Y-12562857D01*
X50025617Y-12562857D02*
X49987522Y-12639047D01*
X49987522Y-12639047D02*
X49987522Y-12715238D01*
X49987522Y-12715238D02*
X50368475Y-12791428D01*
X49606570Y-13020000D02*
X49606570Y-13058095D01*
X49606570Y-13058095D02*
X49644665Y-13134285D01*
X49644665Y-13134285D02*
X49682761Y-13172380D01*
X48692285Y-12334285D02*
X48654189Y-12296190D01*
X48654189Y-12296190D02*
X48577999Y-12258095D01*
X48577999Y-12258095D02*
X48387523Y-12258095D01*
X48387523Y-12258095D02*
X48311332Y-12296190D01*
X48311332Y-12296190D02*
X48273237Y-12334285D01*
X48273237Y-12334285D02*
X48235142Y-12410476D01*
X48235142Y-12410476D02*
X48235142Y-12486666D01*
X48235142Y-12486666D02*
X48273237Y-12600952D01*
X48273237Y-12600952D02*
X48730380Y-13058095D01*
X48730380Y-13058095D02*
X48235142Y-13058095D01*
X47739903Y-12258095D02*
X47663713Y-12258095D01*
X47663713Y-12258095D02*
X47587522Y-12296190D01*
X47587522Y-12296190D02*
X47549427Y-12334285D01*
X47549427Y-12334285D02*
X47511332Y-12410476D01*
X47511332Y-12410476D02*
X47473237Y-12562857D01*
X47473237Y-12562857D02*
X47473237Y-12753333D01*
X47473237Y-12753333D02*
X47511332Y-12905714D01*
X47511332Y-12905714D02*
X47549427Y-12981904D01*
X47549427Y-12981904D02*
X47587522Y-13020000D01*
X47587522Y-13020000D02*
X47663713Y-13058095D01*
X47663713Y-13058095D02*
X47739903Y-13058095D01*
X47739903Y-13058095D02*
X47816094Y-13020000D01*
X47816094Y-13020000D02*
X47854189Y-12981904D01*
X47854189Y-12981904D02*
X47892284Y-12905714D01*
X47892284Y-12905714D02*
X47930380Y-12753333D01*
X47930380Y-12753333D02*
X47930380Y-12562857D01*
X47930380Y-12562857D02*
X47892284Y-12410476D01*
X47892284Y-12410476D02*
X47854189Y-12334285D01*
X47854189Y-12334285D02*
X47816094Y-12296190D01*
X47816094Y-12296190D02*
X47739903Y-12258095D01*
X47168475Y-12334285D02*
X47130379Y-12296190D01*
X47130379Y-12296190D02*
X47054189Y-12258095D01*
X47054189Y-12258095D02*
X46863713Y-12258095D01*
X46863713Y-12258095D02*
X46787522Y-12296190D01*
X46787522Y-12296190D02*
X46749427Y-12334285D01*
X46749427Y-12334285D02*
X46711332Y-12410476D01*
X46711332Y-12410476D02*
X46711332Y-12486666D01*
X46711332Y-12486666D02*
X46749427Y-12600952D01*
X46749427Y-12600952D02*
X47206570Y-13058095D01*
X47206570Y-13058095D02*
X46711332Y-13058095D01*
X46444665Y-12258095D02*
X45949427Y-12258095D01*
X45949427Y-12258095D02*
X46216093Y-12562857D01*
X46216093Y-12562857D02*
X46101808Y-12562857D01*
X46101808Y-12562857D02*
X46025617Y-12600952D01*
X46025617Y-12600952D02*
X45987522Y-12639047D01*
X45987522Y-12639047D02*
X45949427Y-12715238D01*
X45949427Y-12715238D02*
X45949427Y-12905714D01*
X45949427Y-12905714D02*
X45987522Y-12981904D01*
X45987522Y-12981904D02*
X46025617Y-13020000D01*
X46025617Y-13020000D02*
X46101808Y-13058095D01*
X46101808Y-13058095D02*
X46330379Y-13058095D01*
X46330379Y-13058095D02*
X46406570Y-13020000D01*
X46406570Y-13020000D02*
X46444665Y-12981904D01*
X52387523Y-14354095D02*
X52387523Y-13554095D01*
X52044666Y-14354095D02*
X52044666Y-13935047D01*
X52044666Y-13935047D02*
X52082761Y-13858857D01*
X52082761Y-13858857D02*
X52158952Y-13820761D01*
X52158952Y-13820761D02*
X52273238Y-13820761D01*
X52273238Y-13820761D02*
X52349428Y-13858857D01*
X52349428Y-13858857D02*
X52387523Y-13896952D01*
X51777999Y-13820761D02*
X51473237Y-13820761D01*
X51663713Y-13554095D02*
X51663713Y-14239809D01*
X51663713Y-14239809D02*
X51625618Y-14316000D01*
X51625618Y-14316000D02*
X51549428Y-14354095D01*
X51549428Y-14354095D02*
X51473237Y-14354095D01*
X51320856Y-13820761D02*
X51016094Y-13820761D01*
X51206570Y-13554095D02*
X51206570Y-14239809D01*
X51206570Y-14239809D02*
X51168475Y-14316000D01*
X51168475Y-14316000D02*
X51092285Y-14354095D01*
X51092285Y-14354095D02*
X51016094Y-14354095D01*
X50749427Y-13820761D02*
X50749427Y-14620761D01*
X50749427Y-13858857D02*
X50673237Y-13820761D01*
X50673237Y-13820761D02*
X50520856Y-13820761D01*
X50520856Y-13820761D02*
X50444665Y-13858857D01*
X50444665Y-13858857D02*
X50406570Y-13896952D01*
X50406570Y-13896952D02*
X50368475Y-13973142D01*
X50368475Y-13973142D02*
X50368475Y-14201714D01*
X50368475Y-14201714D02*
X50406570Y-14277904D01*
X50406570Y-14277904D02*
X50444665Y-14316000D01*
X50444665Y-14316000D02*
X50520856Y-14354095D01*
X50520856Y-14354095D02*
X50673237Y-14354095D01*
X50673237Y-14354095D02*
X50749427Y-14316000D01*
X50063713Y-14316000D02*
X49987522Y-14354095D01*
X49987522Y-14354095D02*
X49835141Y-14354095D01*
X49835141Y-14354095D02*
X49758951Y-14316000D01*
X49758951Y-14316000D02*
X49720855Y-14239809D01*
X49720855Y-14239809D02*
X49720855Y-14201714D01*
X49720855Y-14201714D02*
X49758951Y-14125523D01*
X49758951Y-14125523D02*
X49835141Y-14087428D01*
X49835141Y-14087428D02*
X49949427Y-14087428D01*
X49949427Y-14087428D02*
X50025617Y-14049333D01*
X50025617Y-14049333D02*
X50063713Y-13973142D01*
X50063713Y-13973142D02*
X50063713Y-13935047D01*
X50063713Y-13935047D02*
X50025617Y-13858857D01*
X50025617Y-13858857D02*
X49949427Y-13820761D01*
X49949427Y-13820761D02*
X49835141Y-13820761D01*
X49835141Y-13820761D02*
X49758951Y-13858857D01*
X49377998Y-14277904D02*
X49339903Y-14316000D01*
X49339903Y-14316000D02*
X49377998Y-14354095D01*
X49377998Y-14354095D02*
X49416094Y-14316000D01*
X49416094Y-14316000D02*
X49377998Y-14277904D01*
X49377998Y-14277904D02*
X49377998Y-14354095D01*
X49377998Y-13858857D02*
X49339903Y-13896952D01*
X49339903Y-13896952D02*
X49377998Y-13935047D01*
X49377998Y-13935047D02*
X49416094Y-13896952D01*
X49416094Y-13896952D02*
X49377998Y-13858857D01*
X49377998Y-13858857D02*
X49377998Y-13935047D01*
X48425618Y-13516000D02*
X49111332Y-14544571D01*
X47587523Y-13516000D02*
X48273237Y-14544571D01*
X52044666Y-15116761D02*
X52044666Y-15764380D01*
X52044666Y-15764380D02*
X52082761Y-15840571D01*
X52082761Y-15840571D02*
X52120857Y-15878666D01*
X52120857Y-15878666D02*
X52197047Y-15916761D01*
X52197047Y-15916761D02*
X52311333Y-15916761D01*
X52311333Y-15916761D02*
X52387523Y-15878666D01*
X52044666Y-15612000D02*
X52120857Y-15650095D01*
X52120857Y-15650095D02*
X52273238Y-15650095D01*
X52273238Y-15650095D02*
X52349428Y-15612000D01*
X52349428Y-15612000D02*
X52387523Y-15573904D01*
X52387523Y-15573904D02*
X52425619Y-15497714D01*
X52425619Y-15497714D02*
X52425619Y-15269142D01*
X52425619Y-15269142D02*
X52387523Y-15192952D01*
X52387523Y-15192952D02*
X52349428Y-15154857D01*
X52349428Y-15154857D02*
X52273238Y-15116761D01*
X52273238Y-15116761D02*
X52120857Y-15116761D01*
X52120857Y-15116761D02*
X52044666Y-15154857D01*
X51663713Y-15650095D02*
X51663713Y-15116761D01*
X51663713Y-14850095D02*
X51701809Y-14888190D01*
X51701809Y-14888190D02*
X51663713Y-14926285D01*
X51663713Y-14926285D02*
X51625618Y-14888190D01*
X51625618Y-14888190D02*
X51663713Y-14850095D01*
X51663713Y-14850095D02*
X51663713Y-14926285D01*
X51397047Y-15116761D02*
X51092285Y-15116761D01*
X51282761Y-14850095D02*
X51282761Y-15535809D01*
X51282761Y-15535809D02*
X51244666Y-15612000D01*
X51244666Y-15612000D02*
X51168476Y-15650095D01*
X51168476Y-15650095D02*
X51092285Y-15650095D01*
X50825618Y-15650095D02*
X50825618Y-14850095D01*
X50482761Y-15650095D02*
X50482761Y-15231047D01*
X50482761Y-15231047D02*
X50520856Y-15154857D01*
X50520856Y-15154857D02*
X50597047Y-15116761D01*
X50597047Y-15116761D02*
X50711333Y-15116761D01*
X50711333Y-15116761D02*
X50787523Y-15154857D01*
X50787523Y-15154857D02*
X50825618Y-15192952D01*
X49758951Y-15116761D02*
X49758951Y-15650095D01*
X50101808Y-15116761D02*
X50101808Y-15535809D01*
X50101808Y-15535809D02*
X50063713Y-15612000D01*
X50063713Y-15612000D02*
X49987523Y-15650095D01*
X49987523Y-15650095D02*
X49873237Y-15650095D01*
X49873237Y-15650095D02*
X49797046Y-15612000D01*
X49797046Y-15612000D02*
X49758951Y-15573904D01*
X49377998Y-15650095D02*
X49377998Y-14850095D01*
X49377998Y-15154857D02*
X49301808Y-15116761D01*
X49301808Y-15116761D02*
X49149427Y-15116761D01*
X49149427Y-15116761D02*
X49073236Y-15154857D01*
X49073236Y-15154857D02*
X49035141Y-15192952D01*
X49035141Y-15192952D02*
X48997046Y-15269142D01*
X48997046Y-15269142D02*
X48997046Y-15497714D01*
X48997046Y-15497714D02*
X49035141Y-15573904D01*
X49035141Y-15573904D02*
X49073236Y-15612000D01*
X49073236Y-15612000D02*
X49149427Y-15650095D01*
X49149427Y-15650095D02*
X49301808Y-15650095D01*
X49301808Y-15650095D02*
X49377998Y-15612000D01*
X48654188Y-15573904D02*
X48616093Y-15612000D01*
X48616093Y-15612000D02*
X48654188Y-15650095D01*
X48654188Y-15650095D02*
X48692284Y-15612000D01*
X48692284Y-15612000D02*
X48654188Y-15573904D01*
X48654188Y-15573904D02*
X48654188Y-15650095D01*
X47930379Y-15612000D02*
X48006570Y-15650095D01*
X48006570Y-15650095D02*
X48158951Y-15650095D01*
X48158951Y-15650095D02*
X48235141Y-15612000D01*
X48235141Y-15612000D02*
X48273236Y-15573904D01*
X48273236Y-15573904D02*
X48311332Y-15497714D01*
X48311332Y-15497714D02*
X48311332Y-15269142D01*
X48311332Y-15269142D02*
X48273236Y-15192952D01*
X48273236Y-15192952D02*
X48235141Y-15154857D01*
X48235141Y-15154857D02*
X48158951Y-15116761D01*
X48158951Y-15116761D02*
X48006570Y-15116761D01*
X48006570Y-15116761D02*
X47930379Y-15154857D01*
X47473237Y-15650095D02*
X47549427Y-15612000D01*
X47549427Y-15612000D02*
X47587522Y-15573904D01*
X47587522Y-15573904D02*
X47625618Y-15497714D01*
X47625618Y-15497714D02*
X47625618Y-15269142D01*
X47625618Y-15269142D02*
X47587522Y-15192952D01*
X47587522Y-15192952D02*
X47549427Y-15154857D01*
X47549427Y-15154857D02*
X47473237Y-15116761D01*
X47473237Y-15116761D02*
X47358951Y-15116761D01*
X47358951Y-15116761D02*
X47282760Y-15154857D01*
X47282760Y-15154857D02*
X47244665Y-15192952D01*
X47244665Y-15192952D02*
X47206570Y-15269142D01*
X47206570Y-15269142D02*
X47206570Y-15497714D01*
X47206570Y-15497714D02*
X47244665Y-15573904D01*
X47244665Y-15573904D02*
X47282760Y-15612000D01*
X47282760Y-15612000D02*
X47358951Y-15650095D01*
X47358951Y-15650095D02*
X47473237Y-15650095D01*
X46863712Y-15650095D02*
X46863712Y-15116761D01*
X46863712Y-15192952D02*
X46825617Y-15154857D01*
X46825617Y-15154857D02*
X46749427Y-15116761D01*
X46749427Y-15116761D02*
X46635141Y-15116761D01*
X46635141Y-15116761D02*
X46558950Y-15154857D01*
X46558950Y-15154857D02*
X46520855Y-15231047D01*
X46520855Y-15231047D02*
X46520855Y-15650095D01*
X46520855Y-15231047D02*
X46482760Y-15154857D01*
X46482760Y-15154857D02*
X46406569Y-15116761D01*
X46406569Y-15116761D02*
X46292284Y-15116761D01*
X46292284Y-15116761D02*
X46216093Y-15154857D01*
X46216093Y-15154857D02*
X46177998Y-15231047D01*
X46177998Y-15231047D02*
X46177998Y-15650095D01*
X45225617Y-14812000D02*
X45911331Y-15840571D01*
X44958950Y-15650095D02*
X44958950Y-15116761D01*
X44958950Y-15269142D02*
X44920855Y-15192952D01*
X44920855Y-15192952D02*
X44882760Y-15154857D01*
X44882760Y-15154857D02*
X44806569Y-15116761D01*
X44806569Y-15116761D02*
X44730379Y-15116761D01*
X44539903Y-15116761D02*
X44349427Y-15650095D01*
X44158950Y-15116761D02*
X44349427Y-15650095D01*
X44349427Y-15650095D02*
X44425617Y-15840571D01*
X44425617Y-15840571D02*
X44463712Y-15878666D01*
X44463712Y-15878666D02*
X44539903Y-15916761D01*
X43739903Y-15650095D02*
X43816093Y-15612000D01*
X43816093Y-15612000D02*
X43854188Y-15573904D01*
X43854188Y-15573904D02*
X43892284Y-15497714D01*
X43892284Y-15497714D02*
X43892284Y-15269142D01*
X43892284Y-15269142D02*
X43854188Y-15192952D01*
X43854188Y-15192952D02*
X43816093Y-15154857D01*
X43816093Y-15154857D02*
X43739903Y-15116761D01*
X43739903Y-15116761D02*
X43625617Y-15116761D01*
X43625617Y-15116761D02*
X43549426Y-15154857D01*
X43549426Y-15154857D02*
X43511331Y-15192952D01*
X43511331Y-15192952D02*
X43473236Y-15269142D01*
X43473236Y-15269142D02*
X43473236Y-15497714D01*
X43473236Y-15497714D02*
X43511331Y-15573904D01*
X43511331Y-15573904D02*
X43549426Y-15612000D01*
X43549426Y-15612000D02*
X43625617Y-15650095D01*
X43625617Y-15650095D02*
X43739903Y-15650095D01*
X43130378Y-15650095D02*
X43130378Y-15116761D01*
X43130378Y-15192952D02*
X43092283Y-15154857D01*
X43092283Y-15154857D02*
X43016093Y-15116761D01*
X43016093Y-15116761D02*
X42901807Y-15116761D01*
X42901807Y-15116761D02*
X42825616Y-15154857D01*
X42825616Y-15154857D02*
X42787521Y-15231047D01*
X42787521Y-15231047D02*
X42787521Y-15650095D01*
X42787521Y-15231047D02*
X42749426Y-15154857D01*
X42749426Y-15154857D02*
X42673235Y-15116761D01*
X42673235Y-15116761D02*
X42558950Y-15116761D01*
X42558950Y-15116761D02*
X42482759Y-15154857D01*
X42482759Y-15154857D02*
X42444664Y-15231047D01*
X42444664Y-15231047D02*
X42444664Y-15650095D01*
X41720854Y-15116761D02*
X41720854Y-15650095D01*
X42063711Y-15116761D02*
X42063711Y-15535809D01*
X42063711Y-15535809D02*
X42025616Y-15612000D01*
X42025616Y-15612000D02*
X41949426Y-15650095D01*
X41949426Y-15650095D02*
X41835140Y-15650095D01*
X41835140Y-15650095D02*
X41758949Y-15612000D01*
X41758949Y-15612000D02*
X41720854Y-15573904D01*
X41339901Y-15650095D02*
X41339901Y-14850095D01*
X41263711Y-15345333D02*
X41035139Y-15650095D01*
X41035139Y-15116761D02*
X41339901Y-15421523D01*
D12*
%TO.P,J2,1,Pin_1*%
%TO.N,+5V*%
X2540000Y-2540000D03*
D13*
%TO.P,J2,2,Pin_2*%
%TO.N,GND*%
X5080000Y-2540000D03*
%TO.P,J2,3,Pin_3*%
%TO.N,PIN76*%
X7620000Y-2540000D03*
%TO.P,J2,4,Pin_4*%
%TO.N,PIN80*%
X10160000Y-2540000D03*
%TO.P,J2,5,Pin_5*%
%TO.N,PIN42*%
X12700000Y-2540000D03*
%TO.P,J2,6,Pin_6*%
%TO.N,PIN41*%
X15240000Y-2540000D03*
%TO.P,J2,7,Pin_7*%
%TO.N,PIN56*%
X17780000Y-2540000D03*
%TO.P,J2,8,Pin_8*%
%TO.N,PIN54*%
X20320000Y-2540000D03*
%TO.P,J2,9,Pin_9*%
%TO.N,PIN51*%
X22860000Y-2540000D03*
%TO.P,J2,10,Pin_10*%
%TO.N,PIN48*%
X25400000Y-2540000D03*
%TO.P,J2,11,Pin_11*%
%TO.N,PIN55*%
X27940000Y-2540000D03*
%TO.P,J2,12,Pin_12*%
%TO.N,PIN49*%
X30480000Y-2540000D03*
%TO.P,J2,13,Pin_13*%
%TO.N,PIN86*%
X33020000Y-2540000D03*
%TO.P,J2,14,Pin_14*%
%TO.N,PIN79*%
X35560000Y-2540000D03*
%TO.P,J2,15,Pin_15*%
%TO.N,GND*%
X38100000Y-2540000D03*
%TO.P,J2,16,Pin_16*%
%TO.N,+3.3V*%
X40640000Y-2540000D03*
%TO.P,J2,17,Pin_17*%
%TO.N,PIN72*%
X43180000Y-2540000D03*
%TO.P,J2,18,Pin_18*%
%TO.N,PIN71*%
X45720000Y-2540000D03*
%TO.P,J2,19,Pin_19*%
%TO.N,PIN53*%
X48260000Y-2540000D03*
%TO.P,J2,20,Pin_20*%
%TO.N,PIN52*%
X50800000Y-2540000D03*
%TD*%
D12*
%TO.P,J1,1,Pin_1*%
%TO.N,PIN73*%
X2540000Y-22860000D03*
D13*
%TO.P,J1,2,Pin_2*%
%TO.N,PIN74*%
X5080000Y-22860000D03*
%TO.P,J1,3,Pin_3*%
%TO.N,PIN75*%
X7620000Y-22860000D03*
%TO.P,J1,4,Pin_4*%
%TO.N,PIN85*%
X10160000Y-22860000D03*
%TO.P,J1,5,Pin_5*%
%TO.N,PIN77*%
X12700000Y-22860000D03*
%TO.P,J1,6,Pin_6*%
%TO.N,PIN15*%
X15240000Y-22860000D03*
%TO.P,J1,7,Pin_7*%
%TO.N,PIN16*%
X17780000Y-22860000D03*
%TO.P,J1,8,Pin_8*%
%TO.N,PIN27*%
X20320000Y-22860000D03*
%TO.P,J1,9,Pin_9*%
%TO.N,PIN28*%
X22860000Y-22860000D03*
%TO.P,J1,10,Pin_10*%
%TO.N,PIN25*%
X25400000Y-22860000D03*
%TO.P,J1,11,Pin_11*%
%TO.N,PIN26*%
X27940000Y-22860000D03*
%TO.P,J1,12,Pin_12*%
%TO.N,PIN29*%
X30480000Y-22860000D03*
%TO.P,J1,13,Pin_13*%
%TO.N,PIN30*%
X33020000Y-22860000D03*
%TO.P,J1,14,Pin_14*%
%TO.N,PIN31*%
X35560000Y-22860000D03*
%TO.P,J1,15,Pin_15*%
%TO.N,PIN17*%
X38100000Y-22860000D03*
%TO.P,J1,16,Pin_16*%
%TO.N,PIN20*%
X40640000Y-22860000D03*
%TO.P,J1,17,Pin_17*%
%TO.N,PIN19*%
X43180000Y-22860000D03*
%TO.P,J1,18,Pin_18*%
%TO.N,PIN18*%
X45720000Y-22860000D03*
%TO.P,J1,19,Pin_19*%
%TO.N,+3.3V*%
X48260000Y-22860000D03*
%TO.P,J1,20,Pin_20*%
%TO.N,GND*%
X50800000Y-22860000D03*
%TD*%
D12*
%TO.P,J4,1,Pin_1*%
%TO.N,+5V*%
X2540000Y-5080000D03*
D13*
%TO.P,J4,2,Pin_2*%
%TO.N,GND*%
X5080000Y-5080000D03*
%TO.P,J4,3,Pin_3*%
%TO.N,PIN76_H*%
X7620000Y-5080000D03*
%TO.P,J4,4,Pin_4*%
%TO.N,PIN80_H*%
X10160000Y-5080000D03*
%TO.P,J4,5,Pin_5*%
%TO.N,PIN42_H*%
X12700000Y-5080000D03*
%TO.P,J4,6,Pin_6*%
%TO.N,PIN41_H*%
X15240000Y-5080000D03*
%TO.P,J4,7,Pin_7*%
%TO.N,PIN56_H*%
X17780000Y-5080000D03*
%TO.P,J4,8,Pin_8*%
%TO.N,PIN54_H*%
X20320000Y-5080000D03*
%TO.P,J4,9,Pin_9*%
%TO.N,PIN51_H*%
X22860000Y-5080000D03*
%TO.P,J4,10,Pin_10*%
%TO.N,PIN48_H*%
X25400000Y-5080000D03*
%TO.P,J4,11,Pin_11*%
%TO.N,PIN55_H*%
X27940000Y-5080000D03*
%TO.P,J4,12,Pin_12*%
%TO.N,PIN49_H*%
X30480000Y-5080000D03*
%TO.P,J4,13,Pin_13*%
%TO.N,PIN86_H*%
X33020000Y-5080000D03*
%TO.P,J4,14,Pin_14*%
%TO.N,PIN79_H*%
X35560000Y-5080000D03*
%TO.P,J4,15,Pin_15*%
%TO.N,GND*%
X38100000Y-5080000D03*
%TO.P,J4,16,Pin_16*%
%TO.N,+3.3V*%
X40640000Y-5080000D03*
%TO.P,J4,17,Pin_17*%
%TO.N,PIN72_H*%
X43180000Y-5080000D03*
%TO.P,J4,18,Pin_18*%
%TO.N,PIN71_H*%
X45720000Y-5080000D03*
%TO.P,J4,19,Pin_19*%
%TO.N,PIN53_H*%
X48260000Y-5080000D03*
%TO.P,J4,20,Pin_20*%
%TO.N,PIN52_H*%
X50800000Y-5080000D03*
%TD*%
D12*
%TO.P,J3,1,Pin_1*%
%TO.N,PIN73_H*%
X2540000Y-20320000D03*
D13*
%TO.P,J3,2,Pin_2*%
%TO.N,PIN74_H*%
X5080000Y-20320000D03*
%TO.P,J3,3,Pin_3*%
%TO.N,PIN75_H*%
X7620000Y-20320000D03*
%TO.P,J3,4,Pin_4*%
%TO.N,PIN85_H*%
X10160000Y-20320000D03*
%TO.P,J3,5,Pin_5*%
%TO.N,PIN77_H*%
X12700000Y-20320000D03*
%TO.P,J3,6,Pin_6*%
%TO.N,PIN15_H*%
X15240000Y-20320000D03*
%TO.P,J3,7,Pin_7*%
%TO.N,PIN16_H*%
X17780000Y-20320000D03*
%TO.P,J3,8,Pin_8*%
%TO.N,PIN27_H*%
X20320000Y-20320000D03*
%TO.P,J3,9,Pin_9*%
%TO.N,PIN28_H*%
X22860000Y-20320000D03*
%TO.P,J3,10,Pin_10*%
%TO.N,PIN25_H*%
X25400000Y-20320000D03*
%TO.P,J3,11,Pin_11*%
%TO.N,PIN26_H*%
X27940000Y-20320000D03*
%TO.P,J3,12,Pin_12*%
%TO.N,PIN29_H*%
X30480000Y-20320000D03*
%TO.P,J3,13,Pin_13*%
%TO.N,PIN30_H*%
X33020000Y-20320000D03*
%TO.P,J3,14,Pin_14*%
%TO.N,PIN31_H*%
X35560000Y-20320000D03*
%TO.P,J3,15,Pin_15*%
%TO.N,PIN17_H*%
X38100000Y-20320000D03*
%TO.P,J3,16,Pin_16*%
%TO.N,PIN20_H*%
X40640000Y-20320000D03*
%TO.P,J3,17,Pin_17*%
%TO.N,PIN19_H*%
X43180000Y-20320000D03*
%TO.P,J3,18,Pin_18*%
%TO.N,PIN18_H*%
X45720000Y-20320000D03*
%TO.P,J3,19,Pin_19*%
%TO.N,+3.3V*%
X48260000Y-20320000D03*
%TO.P,J3,20,Pin_20*%
%TO.N,GND*%
X50800000Y-20320000D03*
%TD*%
D14*
%TO.N,PIN52_H*%
X43946299Y-12695701D03*
%TO.N,PIN53_H*%
X42926000Y-12700000D03*
%TO.N,PIN71_H*%
X39878000Y-14986000D03*
%TO.N,PIN72_H*%
X38862000Y-13716000D03*
%TO.N,PIN18*%
X37600598Y-13716000D03*
%TO.N,PIN79_H*%
X37846000Y-14986000D03*
%TO.N,PIN19*%
X36322000Y-14986000D03*
%TO.N,PIN20*%
X34544000Y-14986000D03*
%TO.N,PIN17*%
X32512000Y-13716000D03*
%TO.N,PIN31*%
X31750000Y-12700000D03*
%TO.N,PIN86_H*%
X30226000Y-13716000D03*
%TO.N,PIN49_H*%
X29464000Y-12700000D03*
%TO.N,PIN55_H*%
X28702000Y-13716000D03*
%TO.N,PIN48_H*%
X27759149Y-14912850D03*
%TO.N,PIN30*%
X26162000Y-14986000D03*
%TO.N,PIN29*%
X24892000Y-14986000D03*
%TO.N,PIN26*%
X22606000Y-14986000D03*
%TO.N,PIN25*%
X21844000Y-13716000D03*
%TO.N,PIN51_H*%
X20320000Y-13716000D03*
%TO.N,PIN54_H*%
X19304000Y-13716000D03*
%TO.N,PIN56_H*%
X18250500Y-14986000D03*
%TO.N,PIN41_H*%
X15023500Y-14986000D03*
%TO.N,PIN28*%
X17526000Y-13716000D03*
%TO.N,PIN27*%
X15748000Y-13716000D03*
%TO.N,PIN16*%
X12700000Y-13716000D03*
%TO.N,PIN15*%
X11684000Y-12700000D03*
%TO.N,PIN80_H*%
X9652000Y-13208000D03*
%TO.N,PIN75*%
X5588000Y-14224000D03*
%TO.N,PIN85*%
X6604000Y-13716000D03*
%TO.N,PIN77*%
X7620000Y-13208000D03*
%TO.N,PIN76_H*%
X8631701Y-14219701D03*
%TO.N,PIN74*%
X3048000Y-13716000D03*
%TO.N,GND*%
X10668000Y-16764000D03*
X41148000Y-16764000D03*
X30988000Y-16764000D03*
X20828000Y-16764000D03*
%TO.N,+3.3V*%
X43942000Y-11176000D03*
%TO.N,GND*%
X43942000Y-9144000D03*
X33782000Y-9144000D03*
X23622000Y-9144000D03*
X13462000Y-9144000D03*
X3302000Y-9144000D03*
%TO.N,+3.3V*%
X3302000Y-11176000D03*
X13462000Y-11176000D03*
X23622000Y-11176000D03*
X33782000Y-11176000D03*
%TD*%
D15*
%TO.N,PIN52_H*%
X46482000Y-6858000D02*
X49022000Y-6858000D01*
X49022000Y-6858000D02*
X50800000Y-5080000D01*
X44667000Y-8673000D02*
X46482000Y-6858000D01*
X44667000Y-11975000D02*
X44667000Y-8673000D01*
X43946299Y-12695701D02*
X44667000Y-11975000D01*
%TO.N,PIN53_H*%
X45805695Y-6255000D02*
X47085000Y-6255000D01*
X47085000Y-6255000D02*
X48260000Y-5080000D01*
X42926000Y-9134695D02*
X45805695Y-6255000D01*
X42926000Y-12700000D02*
X42926000Y-9134695D01*
%TO.N,PIN71_H*%
X41148000Y-8128000D02*
X42418000Y-6858000D01*
X42418000Y-6858000D02*
X43942000Y-6858000D01*
X43942000Y-6858000D02*
X45720000Y-5080000D01*
X39878000Y-8128000D02*
X41148000Y-8128000D01*
X39878000Y-14986000D02*
X39878000Y-8128000D01*
%TO.N,PIN72_H*%
X38862000Y-8128000D02*
X40132000Y-6858000D01*
X38862000Y-13716000D02*
X38862000Y-8128000D01*
X40132000Y-6858000D02*
X41402000Y-6858000D01*
X41402000Y-6858000D02*
X43180000Y-5080000D01*
%TO.N,PIN18*%
X44545000Y-20023299D02*
X44545000Y-21685000D01*
X42301701Y-17780000D02*
X44545000Y-20023299D01*
X38571000Y-17235000D02*
X39116000Y-17780000D01*
X38571000Y-14686402D02*
X38571000Y-17235000D01*
X37600598Y-13716000D02*
X38571000Y-14686402D01*
X39116000Y-17780000D02*
X42301701Y-17780000D01*
X44545000Y-21685000D02*
X45720000Y-22860000D01*
%TO.N,PIN79_H*%
X35560000Y-12700000D02*
X35560000Y-5080000D01*
X37846000Y-14986000D02*
X35560000Y-12700000D01*
%TO.N,PIN19*%
X42005000Y-21685000D02*
X43180000Y-22860000D01*
X42005000Y-19907000D02*
X42005000Y-21685000D01*
X36322000Y-17018000D02*
X37592000Y-18288000D01*
X36322000Y-14986000D02*
X36322000Y-17018000D01*
X40386000Y-18288000D02*
X42005000Y-19907000D01*
X37592000Y-18288000D02*
X40386000Y-18288000D01*
%TO.N,PIN20*%
X39465000Y-21685000D02*
X40640000Y-22860000D01*
X34544000Y-17005903D02*
X36582049Y-19043952D01*
X34544000Y-14986000D02*
X34544000Y-17005903D01*
X38675653Y-19043952D02*
X39465000Y-19833299D01*
X36582049Y-19043952D02*
X38675653Y-19043952D01*
X39465000Y-19833299D02*
X39465000Y-21685000D01*
%TO.N,PIN17*%
X36925000Y-21685000D02*
X38100000Y-22860000D01*
X32512000Y-13716000D02*
X32512000Y-15610299D01*
X36925000Y-20023299D02*
X36925000Y-21685000D01*
X32512000Y-15610299D02*
X36925000Y-20023299D01*
%TO.N,PIN31*%
X34385000Y-21685000D02*
X35560000Y-22860000D01*
X34385000Y-20023299D02*
X34385000Y-21685000D01*
X31750000Y-17388299D02*
X34385000Y-20023299D01*
X31750000Y-12700000D02*
X31750000Y-17388299D01*
%TO.N,PIN86_H*%
X30226000Y-7874000D02*
X33020000Y-5080000D01*
X30226000Y-13716000D02*
X30226000Y-7874000D01*
%TO.N,PIN49_H*%
X29464000Y-6096000D02*
X30480000Y-5080000D01*
X29464000Y-12700000D02*
X29464000Y-6096000D01*
%TO.N,PIN55_H*%
X28702000Y-13716000D02*
X27940000Y-12954000D01*
X27940000Y-12954000D02*
X27940000Y-5080000D01*
%TO.N,PIN48_H*%
X25400000Y-12553701D02*
X25400000Y-5080000D01*
X27759149Y-14912850D02*
X25400000Y-12553701D01*
%TO.N,PIN30*%
X31845000Y-21685000D02*
X33020000Y-22860000D01*
X26162000Y-14986000D02*
X26807701Y-14986000D01*
X31845000Y-20023299D02*
X31845000Y-21685000D01*
X26807701Y-14986000D02*
X31845000Y-20023299D01*
%TO.N,PIN29*%
X29115000Y-21495000D02*
X30480000Y-22860000D01*
X29115000Y-19209000D02*
X29115000Y-21495000D01*
X24892000Y-14986000D02*
X29115000Y-19209000D01*
%TO.N,PIN26*%
X22606000Y-15864299D02*
X26765000Y-20023299D01*
X22606000Y-14986000D02*
X22606000Y-15864299D01*
X26765000Y-20023299D02*
X26765000Y-21685000D01*
X26765000Y-21685000D02*
X27940000Y-22860000D01*
%TO.N,PIN25*%
X24225000Y-21685000D02*
X25400000Y-22860000D01*
X24225000Y-19907000D02*
X24225000Y-21685000D01*
X21844000Y-17526000D02*
X24225000Y-19907000D01*
X21844000Y-13716000D02*
X21844000Y-17526000D01*
%TO.N,PIN51_H*%
X20320000Y-13716000D02*
X20320000Y-7620000D01*
X20320000Y-7620000D02*
X22860000Y-5080000D01*
%TO.N,PIN54_H*%
X19304000Y-6096000D02*
X20320000Y-5080000D01*
X19304000Y-13716000D02*
X19304000Y-6096000D01*
%TO.N,PIN56_H*%
X18250500Y-5550500D02*
X17780000Y-5080000D01*
X18250500Y-14986000D02*
X18250500Y-5550500D01*
%TO.N,PIN41_H*%
X15023500Y-14986000D02*
X15023500Y-5296500D01*
X15023500Y-5296500D02*
X15240000Y-5080000D01*
%TO.N,PIN28*%
X17526000Y-15864299D02*
X21685000Y-20023299D01*
X17526000Y-13716000D02*
X17526000Y-15864299D01*
X21685000Y-21685000D02*
X22860000Y-22860000D01*
X21685000Y-20023299D02*
X21685000Y-21685000D01*
%TO.N,PIN27*%
X19145000Y-20023299D02*
X19145000Y-21685000D01*
X15748000Y-16626299D02*
X19145000Y-20023299D01*
X19145000Y-21685000D02*
X20320000Y-22860000D01*
X15748000Y-13716000D02*
X15748000Y-16626299D01*
%TO.N,PIN16*%
X14224000Y-18796000D02*
X12700000Y-17272000D01*
X15377701Y-18796000D02*
X14224000Y-18796000D01*
X16415000Y-21495000D02*
X16415000Y-19833299D01*
X16415000Y-19833299D02*
X15377701Y-18796000D01*
X17780000Y-22860000D02*
X16415000Y-21495000D01*
X12700000Y-17272000D02*
X12700000Y-13716000D01*
%TO.N,PIN15*%
X11684000Y-17272000D02*
X11684000Y-12700000D01*
X13875000Y-19463000D02*
X11684000Y-17272000D01*
X13875000Y-21495000D02*
X13875000Y-19463000D01*
X15240000Y-22860000D02*
X13875000Y-21495000D01*
%TO.N,PIN80_H*%
X9652000Y-13208000D02*
X9652000Y-5588000D01*
X9652000Y-5588000D02*
X10160000Y-5080000D01*
%TO.N,PIN75*%
X6445000Y-19833299D02*
X6445000Y-21685000D01*
X6445000Y-21685000D02*
X7620000Y-22860000D01*
X5588000Y-18976299D02*
X6445000Y-19833299D01*
X5588000Y-14224000D02*
X5588000Y-18976299D01*
%TO.N,PIN85*%
X8985000Y-19833299D02*
X8985000Y-21685000D01*
X8985000Y-21685000D02*
X10160000Y-22860000D01*
X6604000Y-13716000D02*
X6604000Y-17452299D01*
X6604000Y-17452299D02*
X8985000Y-19833299D01*
%TO.N,PIN77*%
X7620000Y-16118299D02*
X11335000Y-19833299D01*
X7620000Y-13208000D02*
X7620000Y-16118299D01*
X11335000Y-19833299D02*
X11335000Y-21495000D01*
X11335000Y-21495000D02*
X12700000Y-22860000D01*
%TO.N,PIN76_H*%
X8631701Y-6091701D02*
X7620000Y-5080000D01*
X8631701Y-14219701D02*
X8631701Y-6091701D01*
%TO.N,PIN74*%
X3905000Y-21685000D02*
X5080000Y-22860000D01*
X3905000Y-19145000D02*
X3905000Y-21685000D01*
X3048000Y-18288000D02*
X3905000Y-19145000D01*
X3048000Y-13716000D02*
X3048000Y-18288000D01*
D16*
%TO.N,+5V*%
X2540000Y-5080000D02*
X2540000Y-2540000D01*
%TO.N,GND*%
X5080000Y-5080000D02*
X5080000Y-2540000D01*
X38100000Y-5080000D02*
X38100000Y-2540000D01*
%TO.N,+3.3V*%
X40640000Y-5080000D02*
X40640000Y-2540000D01*
X48260000Y-22860000D02*
X48260000Y-20320000D01*
%TO.N,GND*%
X50800000Y-22860000D02*
X50800000Y-20320000D01*
%TD*%
M02*
