M48
; DRILL file {KiCad 7.0.2} date Thu Jun 15 20:21:26 2023
; FORMAT={-:-/ absolute / inch / decimal}
; #@! TF.CreationDate,2023-06-15T20:21:26+09:00
; #@! TF.GenerationSoftware,Kicad,Pcbnew,7.0.2
; #@! TF.FileFunction,Plated,1,4,PTH
FMAT,2
INCH
; #@! TA.AperFunction,Plated,PTH,ViaDrill
T1C0.0157
; #@! TA.AperFunction,Plated,PTH,ComponentDrill
T2C0.0394
%
G90
G05
T1
X0.12Y-0.54
X0.13Y-0.36
X0.13Y-0.44
X0.22Y-0.56
X0.26Y-0.54
X0.3Y-0.52
X0.3398Y-0.5598
X0.38Y-0.52
X0.42Y-0.66
X0.46Y-0.5
X0.5Y-0.54
X0.53Y-0.36
X0.53Y-0.44
X0.5915Y-0.59
X0.62Y-0.54
X0.69Y-0.54
X0.7185Y-0.59
X0.76Y-0.54
X0.8Y-0.54
X0.82Y-0.66
X0.86Y-0.54
X0.89Y-0.59
X0.93Y-0.36
X0.93Y-0.44
X0.98Y-0.59
X1.03Y-0.59
X1.0929Y-0.5871
X1.13Y-0.54
X1.16Y-0.5
X1.19Y-0.54
X1.22Y-0.66
X1.25Y-0.5
X1.28Y-0.54
X1.33Y-0.36
X1.33Y-0.44
X1.36Y-0.59
X1.43Y-0.59
X1.4803Y-0.54
X1.49Y-0.59
X1.53Y-0.54
X1.57Y-0.59
X1.62Y-0.66
X1.69Y-0.5
X1.73Y-0.36
X1.73Y-0.44
X1.7302Y-0.4998
T2
X0.1Y-0.1
X0.1Y-0.2
X0.1Y-0.8
X0.1Y-0.9
X0.2Y-0.1
X0.2Y-0.2
X0.2Y-0.8
X0.2Y-0.9
X0.3Y-0.1
X0.3Y-0.2
X0.3Y-0.8
X0.3Y-0.9
X0.4Y-0.1
X0.4Y-0.2
X0.4Y-0.8
X0.4Y-0.9
X0.5Y-0.1
X0.5Y-0.2
X0.5Y-0.8
X0.5Y-0.9
X0.6Y-0.1
X0.6Y-0.2
X0.6Y-0.8
X0.6Y-0.9
X0.7Y-0.1
X0.7Y-0.2
X0.7Y-0.8
X0.7Y-0.9
X0.8Y-0.1
X0.8Y-0.2
X0.8Y-0.8
X0.8Y-0.9
X0.9Y-0.1
X0.9Y-0.2
X0.9Y-0.8
X0.9Y-0.9
X1.0Y-0.1
X1.0Y-0.2
X1.0Y-0.8
X1.0Y-0.9
X1.1Y-0.1
X1.1Y-0.2
X1.1Y-0.8
X1.1Y-0.9
X1.2Y-0.1
X1.2Y-0.2
X1.2Y-0.8
X1.2Y-0.9
X1.3Y-0.1
X1.3Y-0.2
X1.3Y-0.8
X1.3Y-0.9
X1.4Y-0.1
X1.4Y-0.2
X1.4Y-0.8
X1.4Y-0.9
X1.5Y-0.1
X1.5Y-0.2
X1.5Y-0.8
X1.5Y-0.9
X1.6Y-0.1
X1.6Y-0.2
X1.6Y-0.8
X1.6Y-0.9
X1.7Y-0.1
X1.7Y-0.2
X1.7Y-0.8
X1.7Y-0.9
X1.8Y-0.1
X1.8Y-0.2
X1.8Y-0.8
X1.8Y-0.9
X1.9Y-0.1
X1.9Y-0.2
X1.9Y-0.8
X1.9Y-0.9
X2.0Y-0.1
X2.0Y-0.2
X2.0Y-0.8
X2.0Y-0.9
T0
M30
