%TF.GenerationSoftware,KiCad,Pcbnew,7.0.2*%
%TF.CreationDate,2023-06-15T20:21:22+09:00*%
%TF.ProjectId,TangNano5V,54616e67-4e61-46e6-9f35-562e6b696361,rev?*%
%TF.SameCoordinates,Original*%
%TF.FileFunction,Legend,Top*%
%TF.FilePolarity,Positive*%
%FSLAX46Y46*%
G04 Gerber Fmt 4.6, Leading zero omitted, Abs format (unit mm)*
G04 Created by KiCad (PCBNEW 7.0.2) date 2023-06-15 20:21:22*
%MOMM*%
%LPD*%
G01*
G04 APERTURE LIST*
%ADD10C,0.150000*%
%ADD11C,0.120000*%
%ADD12C,0.200000*%
%ADD13C,0.100000*%
%ADD14C,0.152400*%
G04 APERTURE END LIST*
D10*
X254000Y-10795000D02*
X1778000Y-10795000D01*
X1778000Y-14605000D01*
X254000Y-14605000D01*
X254000Y-10795000D01*
X51308000Y-8890000D02*
X53086000Y-8890000D01*
X53086000Y-16510000D01*
X51308000Y-16510000D01*
X51308000Y-8890000D01*
D11*
X9524952Y-576190D02*
X9429714Y-528571D01*
X9429714Y-528571D02*
X9382095Y-480952D01*
X9382095Y-480952D02*
X9334476Y-385714D01*
X9334476Y-385714D02*
X9334476Y-338095D01*
X9334476Y-338095D02*
X9382095Y-242857D01*
X9382095Y-242857D02*
X9429714Y-195238D01*
X9429714Y-195238D02*
X9524952Y-147619D01*
X9524952Y-147619D02*
X9715428Y-147619D01*
X9715428Y-147619D02*
X9810666Y-195238D01*
X9810666Y-195238D02*
X9858285Y-242857D01*
X9858285Y-242857D02*
X9905904Y-338095D01*
X9905904Y-338095D02*
X9905904Y-385714D01*
X9905904Y-385714D02*
X9858285Y-480952D01*
X9858285Y-480952D02*
X9810666Y-528571D01*
X9810666Y-528571D02*
X9715428Y-576190D01*
X9715428Y-576190D02*
X9524952Y-576190D01*
X9524952Y-576190D02*
X9429714Y-623809D01*
X9429714Y-623809D02*
X9382095Y-671428D01*
X9382095Y-671428D02*
X9334476Y-766666D01*
X9334476Y-766666D02*
X9334476Y-957142D01*
X9334476Y-957142D02*
X9382095Y-1052380D01*
X9382095Y-1052380D02*
X9429714Y-1100000D01*
X9429714Y-1100000D02*
X9524952Y-1147619D01*
X9524952Y-1147619D02*
X9715428Y-1147619D01*
X9715428Y-1147619D02*
X9810666Y-1100000D01*
X9810666Y-1100000D02*
X9858285Y-1052380D01*
X9858285Y-1052380D02*
X9905904Y-957142D01*
X9905904Y-957142D02*
X9905904Y-766666D01*
X9905904Y-766666D02*
X9858285Y-671428D01*
X9858285Y-671428D02*
X9810666Y-623809D01*
X9810666Y-623809D02*
X9715428Y-576190D01*
X10524952Y-147619D02*
X10620190Y-147619D01*
X10620190Y-147619D02*
X10715428Y-195238D01*
X10715428Y-195238D02*
X10763047Y-242857D01*
X10763047Y-242857D02*
X10810666Y-338095D01*
X10810666Y-338095D02*
X10858285Y-528571D01*
X10858285Y-528571D02*
X10858285Y-766666D01*
X10858285Y-766666D02*
X10810666Y-957142D01*
X10810666Y-957142D02*
X10763047Y-1052380D01*
X10763047Y-1052380D02*
X10715428Y-1100000D01*
X10715428Y-1100000D02*
X10620190Y-1147619D01*
X10620190Y-1147619D02*
X10524952Y-1147619D01*
X10524952Y-1147619D02*
X10429714Y-1100000D01*
X10429714Y-1100000D02*
X10382095Y-1052380D01*
X10382095Y-1052380D02*
X10334476Y-957142D01*
X10334476Y-957142D02*
X10286857Y-766666D01*
X10286857Y-766666D02*
X10286857Y-528571D01*
X10286857Y-528571D02*
X10334476Y-338095D01*
X10334476Y-338095D02*
X10382095Y-242857D01*
X10382095Y-242857D02*
X10429714Y-195238D01*
X10429714Y-195238D02*
X10524952Y-147619D01*
X47583714Y-24277619D02*
X47955142Y-24277619D01*
X47955142Y-24277619D02*
X47755142Y-24658571D01*
X47755142Y-24658571D02*
X47840857Y-24658571D01*
X47840857Y-24658571D02*
X47898000Y-24706190D01*
X47898000Y-24706190D02*
X47926571Y-24753809D01*
X47926571Y-24753809D02*
X47955142Y-24849047D01*
X47955142Y-24849047D02*
X47955142Y-25087142D01*
X47955142Y-25087142D02*
X47926571Y-25182380D01*
X47926571Y-25182380D02*
X47898000Y-25230000D01*
X47898000Y-25230000D02*
X47840857Y-25277619D01*
X47840857Y-25277619D02*
X47669428Y-25277619D01*
X47669428Y-25277619D02*
X47612285Y-25230000D01*
X47612285Y-25230000D02*
X47583714Y-25182380D01*
X48126571Y-24277619D02*
X48326571Y-25277619D01*
X48326571Y-25277619D02*
X48526571Y-24277619D01*
X48669429Y-24277619D02*
X49040857Y-24277619D01*
X49040857Y-24277619D02*
X48840857Y-24658571D01*
X48840857Y-24658571D02*
X48926572Y-24658571D01*
X48926572Y-24658571D02*
X48983715Y-24706190D01*
X48983715Y-24706190D02*
X49012286Y-24753809D01*
X49012286Y-24753809D02*
X49040857Y-24849047D01*
X49040857Y-24849047D02*
X49040857Y-25087142D01*
X49040857Y-25087142D02*
X49012286Y-25182380D01*
X49012286Y-25182380D02*
X48983715Y-25230000D01*
X48983715Y-25230000D02*
X48926572Y-25277619D01*
X48926572Y-25277619D02*
X48755143Y-25277619D01*
X48755143Y-25277619D02*
X48698000Y-25230000D01*
X48698000Y-25230000D02*
X48669429Y-25182380D01*
X50498285Y-147619D02*
X50022095Y-147619D01*
X50022095Y-147619D02*
X49974476Y-623809D01*
X49974476Y-623809D02*
X50022095Y-576190D01*
X50022095Y-576190D02*
X50117333Y-528571D01*
X50117333Y-528571D02*
X50355428Y-528571D01*
X50355428Y-528571D02*
X50450666Y-576190D01*
X50450666Y-576190D02*
X50498285Y-623809D01*
X50498285Y-623809D02*
X50545904Y-719047D01*
X50545904Y-719047D02*
X50545904Y-957142D01*
X50545904Y-957142D02*
X50498285Y-1052380D01*
X50498285Y-1052380D02*
X50450666Y-1100000D01*
X50450666Y-1100000D02*
X50355428Y-1147619D01*
X50355428Y-1147619D02*
X50117333Y-1147619D01*
X50117333Y-1147619D02*
X50022095Y-1100000D01*
X50022095Y-1100000D02*
X49974476Y-1052380D01*
X50926857Y-242857D02*
X50974476Y-195238D01*
X50974476Y-195238D02*
X51069714Y-147619D01*
X51069714Y-147619D02*
X51307809Y-147619D01*
X51307809Y-147619D02*
X51403047Y-195238D01*
X51403047Y-195238D02*
X51450666Y-242857D01*
X51450666Y-242857D02*
X51498285Y-338095D01*
X51498285Y-338095D02*
X51498285Y-433333D01*
X51498285Y-433333D02*
X51450666Y-576190D01*
X51450666Y-576190D02*
X50879238Y-1147619D01*
X50879238Y-1147619D02*
X51498285Y-1147619D01*
X22558285Y-147619D02*
X22082095Y-147619D01*
X22082095Y-147619D02*
X22034476Y-623809D01*
X22034476Y-623809D02*
X22082095Y-576190D01*
X22082095Y-576190D02*
X22177333Y-528571D01*
X22177333Y-528571D02*
X22415428Y-528571D01*
X22415428Y-528571D02*
X22510666Y-576190D01*
X22510666Y-576190D02*
X22558285Y-623809D01*
X22558285Y-623809D02*
X22605904Y-719047D01*
X22605904Y-719047D02*
X22605904Y-957142D01*
X22605904Y-957142D02*
X22558285Y-1052380D01*
X22558285Y-1052380D02*
X22510666Y-1100000D01*
X22510666Y-1100000D02*
X22415428Y-1147619D01*
X22415428Y-1147619D02*
X22177333Y-1147619D01*
X22177333Y-1147619D02*
X22082095Y-1100000D01*
X22082095Y-1100000D02*
X22034476Y-1052380D01*
X23558285Y-1147619D02*
X22986857Y-1147619D01*
X23272571Y-1147619D02*
X23272571Y-147619D01*
X23272571Y-147619D02*
X23177333Y-290476D01*
X23177333Y-290476D02*
X23082095Y-385714D01*
X23082095Y-385714D02*
X22986857Y-433333D01*
X4206857Y-24277619D02*
X4873523Y-24277619D01*
X4873523Y-24277619D02*
X4444952Y-25277619D01*
X5683047Y-24610952D02*
X5683047Y-25277619D01*
X5444952Y-24230000D02*
X5206857Y-24944285D01*
X5206857Y-24944285D02*
X5825904Y-24944285D01*
X12350666Y-480952D02*
X12350666Y-1147619D01*
X12112571Y-100000D02*
X11874476Y-814285D01*
X11874476Y-814285D02*
X12493523Y-814285D01*
X12826857Y-242857D02*
X12874476Y-195238D01*
X12874476Y-195238D02*
X12969714Y-147619D01*
X12969714Y-147619D02*
X13207809Y-147619D01*
X13207809Y-147619D02*
X13303047Y-195238D01*
X13303047Y-195238D02*
X13350666Y-242857D01*
X13350666Y-242857D02*
X13398285Y-338095D01*
X13398285Y-338095D02*
X13398285Y-433333D01*
X13398285Y-433333D02*
X13350666Y-576190D01*
X13350666Y-576190D02*
X12779238Y-1147619D01*
X12779238Y-1147619D02*
X13398285Y-1147619D01*
X34686857Y-24277619D02*
X35305904Y-24277619D01*
X35305904Y-24277619D02*
X34972571Y-24658571D01*
X34972571Y-24658571D02*
X35115428Y-24658571D01*
X35115428Y-24658571D02*
X35210666Y-24706190D01*
X35210666Y-24706190D02*
X35258285Y-24753809D01*
X35258285Y-24753809D02*
X35305904Y-24849047D01*
X35305904Y-24849047D02*
X35305904Y-25087142D01*
X35305904Y-25087142D02*
X35258285Y-25182380D01*
X35258285Y-25182380D02*
X35210666Y-25230000D01*
X35210666Y-25230000D02*
X35115428Y-25277619D01*
X35115428Y-25277619D02*
X34829714Y-25277619D01*
X34829714Y-25277619D02*
X34734476Y-25230000D01*
X34734476Y-25230000D02*
X34686857Y-25182380D01*
X36258285Y-25277619D02*
X35686857Y-25277619D01*
X35972571Y-25277619D02*
X35972571Y-24277619D01*
X35972571Y-24277619D02*
X35877333Y-24420476D01*
X35877333Y-24420476D02*
X35782095Y-24515714D01*
X35782095Y-24515714D02*
X35686857Y-24563333D01*
X19494476Y-24372857D02*
X19542095Y-24325238D01*
X19542095Y-24325238D02*
X19637333Y-24277619D01*
X19637333Y-24277619D02*
X19875428Y-24277619D01*
X19875428Y-24277619D02*
X19970666Y-24325238D01*
X19970666Y-24325238D02*
X20018285Y-24372857D01*
X20018285Y-24372857D02*
X20065904Y-24468095D01*
X20065904Y-24468095D02*
X20065904Y-24563333D01*
X20065904Y-24563333D02*
X20018285Y-24706190D01*
X20018285Y-24706190D02*
X19446857Y-25277619D01*
X19446857Y-25277619D02*
X20065904Y-25277619D01*
X20399238Y-24277619D02*
X21065904Y-24277619D01*
X21065904Y-24277619D02*
X20637333Y-25277619D01*
X32146857Y-24277619D02*
X32765904Y-24277619D01*
X32765904Y-24277619D02*
X32432571Y-24658571D01*
X32432571Y-24658571D02*
X32575428Y-24658571D01*
X32575428Y-24658571D02*
X32670666Y-24706190D01*
X32670666Y-24706190D02*
X32718285Y-24753809D01*
X32718285Y-24753809D02*
X32765904Y-24849047D01*
X32765904Y-24849047D02*
X32765904Y-25087142D01*
X32765904Y-25087142D02*
X32718285Y-25182380D01*
X32718285Y-25182380D02*
X32670666Y-25230000D01*
X32670666Y-25230000D02*
X32575428Y-25277619D01*
X32575428Y-25277619D02*
X32289714Y-25277619D01*
X32289714Y-25277619D02*
X32194476Y-25230000D01*
X32194476Y-25230000D02*
X32146857Y-25182380D01*
X33384952Y-24277619D02*
X33480190Y-24277619D01*
X33480190Y-24277619D02*
X33575428Y-24325238D01*
X33575428Y-24325238D02*
X33623047Y-24372857D01*
X33623047Y-24372857D02*
X33670666Y-24468095D01*
X33670666Y-24468095D02*
X33718285Y-24658571D01*
X33718285Y-24658571D02*
X33718285Y-24896666D01*
X33718285Y-24896666D02*
X33670666Y-25087142D01*
X33670666Y-25087142D02*
X33623047Y-25182380D01*
X33623047Y-25182380D02*
X33575428Y-25230000D01*
X33575428Y-25230000D02*
X33480190Y-25277619D01*
X33480190Y-25277619D02*
X33384952Y-25277619D01*
X33384952Y-25277619D02*
X33289714Y-25230000D01*
X33289714Y-25230000D02*
X33242095Y-25182380D01*
X33242095Y-25182380D02*
X33194476Y-25087142D01*
X33194476Y-25087142D02*
X33146857Y-24896666D01*
X33146857Y-24896666D02*
X33146857Y-24658571D01*
X33146857Y-24658571D02*
X33194476Y-24468095D01*
X33194476Y-24468095D02*
X33242095Y-24372857D01*
X33242095Y-24372857D02*
X33289714Y-24325238D01*
X33289714Y-24325238D02*
X33384952Y-24277619D01*
X47958285Y-147619D02*
X47482095Y-147619D01*
X47482095Y-147619D02*
X47434476Y-623809D01*
X47434476Y-623809D02*
X47482095Y-576190D01*
X47482095Y-576190D02*
X47577333Y-528571D01*
X47577333Y-528571D02*
X47815428Y-528571D01*
X47815428Y-528571D02*
X47910666Y-576190D01*
X47910666Y-576190D02*
X47958285Y-623809D01*
X47958285Y-623809D02*
X48005904Y-719047D01*
X48005904Y-719047D02*
X48005904Y-957142D01*
X48005904Y-957142D02*
X47958285Y-1052380D01*
X47958285Y-1052380D02*
X47910666Y-1100000D01*
X47910666Y-1100000D02*
X47815428Y-1147619D01*
X47815428Y-1147619D02*
X47577333Y-1147619D01*
X47577333Y-1147619D02*
X47482095Y-1100000D01*
X47482095Y-1100000D02*
X47434476Y-1052380D01*
X48339238Y-147619D02*
X48958285Y-147619D01*
X48958285Y-147619D02*
X48624952Y-528571D01*
X48624952Y-528571D02*
X48767809Y-528571D01*
X48767809Y-528571D02*
X48863047Y-576190D01*
X48863047Y-576190D02*
X48910666Y-623809D01*
X48910666Y-623809D02*
X48958285Y-719047D01*
X48958285Y-719047D02*
X48958285Y-957142D01*
X48958285Y-957142D02*
X48910666Y-1052380D01*
X48910666Y-1052380D02*
X48863047Y-1100000D01*
X48863047Y-1100000D02*
X48767809Y-1147619D01*
X48767809Y-1147619D02*
X48482095Y-1147619D01*
X48482095Y-1147619D02*
X48386857Y-1100000D01*
X48386857Y-1100000D02*
X48339238Y-1052380D01*
X1666857Y-24277619D02*
X2333523Y-24277619D01*
X2333523Y-24277619D02*
X1904952Y-25277619D01*
X2619238Y-24277619D02*
X3238285Y-24277619D01*
X3238285Y-24277619D02*
X2904952Y-24658571D01*
X2904952Y-24658571D02*
X3047809Y-24658571D01*
X3047809Y-24658571D02*
X3143047Y-24706190D01*
X3143047Y-24706190D02*
X3190666Y-24753809D01*
X3190666Y-24753809D02*
X3238285Y-24849047D01*
X3238285Y-24849047D02*
X3238285Y-25087142D01*
X3238285Y-25087142D02*
X3190666Y-25182380D01*
X3190666Y-25182380D02*
X3143047Y-25230000D01*
X3143047Y-25230000D02*
X3047809Y-25277619D01*
X3047809Y-25277619D02*
X2762095Y-25277619D01*
X2762095Y-25277619D02*
X2666857Y-25230000D01*
X2666857Y-25230000D02*
X2619238Y-25182380D01*
X34686857Y-147619D02*
X35353523Y-147619D01*
X35353523Y-147619D02*
X34924952Y-1147619D01*
X35782095Y-1147619D02*
X35972571Y-1147619D01*
X35972571Y-1147619D02*
X36067809Y-1100000D01*
X36067809Y-1100000D02*
X36115428Y-1052380D01*
X36115428Y-1052380D02*
X36210666Y-909523D01*
X36210666Y-909523D02*
X36258285Y-719047D01*
X36258285Y-719047D02*
X36258285Y-338095D01*
X36258285Y-338095D02*
X36210666Y-242857D01*
X36210666Y-242857D02*
X36163047Y-195238D01*
X36163047Y-195238D02*
X36067809Y-147619D01*
X36067809Y-147619D02*
X35877333Y-147619D01*
X35877333Y-147619D02*
X35782095Y-195238D01*
X35782095Y-195238D02*
X35734476Y-242857D01*
X35734476Y-242857D02*
X35686857Y-338095D01*
X35686857Y-338095D02*
X35686857Y-576190D01*
X35686857Y-576190D02*
X35734476Y-671428D01*
X35734476Y-671428D02*
X35782095Y-719047D01*
X35782095Y-719047D02*
X35877333Y-766666D01*
X35877333Y-766666D02*
X36067809Y-766666D01*
X36067809Y-766666D02*
X36163047Y-719047D01*
X36163047Y-719047D02*
X36210666Y-671428D01*
X36210666Y-671428D02*
X36258285Y-576190D01*
X17478285Y-147619D02*
X17002095Y-147619D01*
X17002095Y-147619D02*
X16954476Y-623809D01*
X16954476Y-623809D02*
X17002095Y-576190D01*
X17002095Y-576190D02*
X17097333Y-528571D01*
X17097333Y-528571D02*
X17335428Y-528571D01*
X17335428Y-528571D02*
X17430666Y-576190D01*
X17430666Y-576190D02*
X17478285Y-623809D01*
X17478285Y-623809D02*
X17525904Y-719047D01*
X17525904Y-719047D02*
X17525904Y-957142D01*
X17525904Y-957142D02*
X17478285Y-1052380D01*
X17478285Y-1052380D02*
X17430666Y-1100000D01*
X17430666Y-1100000D02*
X17335428Y-1147619D01*
X17335428Y-1147619D02*
X17097333Y-1147619D01*
X17097333Y-1147619D02*
X17002095Y-1100000D01*
X17002095Y-1100000D02*
X16954476Y-1052380D01*
X18383047Y-147619D02*
X18192571Y-147619D01*
X18192571Y-147619D02*
X18097333Y-195238D01*
X18097333Y-195238D02*
X18049714Y-242857D01*
X18049714Y-242857D02*
X17954476Y-385714D01*
X17954476Y-385714D02*
X17906857Y-576190D01*
X17906857Y-576190D02*
X17906857Y-957142D01*
X17906857Y-957142D02*
X17954476Y-1052380D01*
X17954476Y-1052380D02*
X18002095Y-1100000D01*
X18002095Y-1100000D02*
X18097333Y-1147619D01*
X18097333Y-1147619D02*
X18287809Y-1147619D01*
X18287809Y-1147619D02*
X18383047Y-1100000D01*
X18383047Y-1100000D02*
X18430666Y-1052380D01*
X18430666Y-1052380D02*
X18478285Y-957142D01*
X18478285Y-957142D02*
X18478285Y-719047D01*
X18478285Y-719047D02*
X18430666Y-623809D01*
X18430666Y-623809D02*
X18383047Y-576190D01*
X18383047Y-576190D02*
X18287809Y-528571D01*
X18287809Y-528571D02*
X18097333Y-528571D01*
X18097333Y-528571D02*
X18002095Y-576190D01*
X18002095Y-576190D02*
X17954476Y-623809D01*
X17954476Y-623809D02*
X17906857Y-719047D01*
X30130666Y-480952D02*
X30130666Y-1147619D01*
X29892571Y-100000D02*
X29654476Y-814285D01*
X29654476Y-814285D02*
X30273523Y-814285D01*
X30702095Y-1147619D02*
X30892571Y-1147619D01*
X30892571Y-1147619D02*
X30987809Y-1100000D01*
X30987809Y-1100000D02*
X31035428Y-1052380D01*
X31035428Y-1052380D02*
X31130666Y-909523D01*
X31130666Y-909523D02*
X31178285Y-719047D01*
X31178285Y-719047D02*
X31178285Y-338095D01*
X31178285Y-338095D02*
X31130666Y-242857D01*
X31130666Y-242857D02*
X31083047Y-195238D01*
X31083047Y-195238D02*
X30987809Y-147619D01*
X30987809Y-147619D02*
X30797333Y-147619D01*
X30797333Y-147619D02*
X30702095Y-195238D01*
X30702095Y-195238D02*
X30654476Y-242857D01*
X30654476Y-242857D02*
X30606857Y-338095D01*
X30606857Y-338095D02*
X30606857Y-576190D01*
X30606857Y-576190D02*
X30654476Y-671428D01*
X30654476Y-671428D02*
X30702095Y-719047D01*
X30702095Y-719047D02*
X30797333Y-766666D01*
X30797333Y-766666D02*
X30987809Y-766666D01*
X30987809Y-766666D02*
X31083047Y-719047D01*
X31083047Y-719047D02*
X31130666Y-671428D01*
X31130666Y-671428D02*
X31178285Y-576190D01*
X14890666Y-480952D02*
X14890666Y-1147619D01*
X14652571Y-100000D02*
X14414476Y-814285D01*
X14414476Y-814285D02*
X15033523Y-814285D01*
X15938285Y-1147619D02*
X15366857Y-1147619D01*
X15652571Y-1147619D02*
X15652571Y-147619D01*
X15652571Y-147619D02*
X15557333Y-290476D01*
X15557333Y-290476D02*
X15462095Y-385714D01*
X15462095Y-385714D02*
X15366857Y-433333D01*
X6746857Y-24277619D02*
X7413523Y-24277619D01*
X7413523Y-24277619D02*
X6984952Y-25277619D01*
X8270666Y-24277619D02*
X7794476Y-24277619D01*
X7794476Y-24277619D02*
X7746857Y-24753809D01*
X7746857Y-24753809D02*
X7794476Y-24706190D01*
X7794476Y-24706190D02*
X7889714Y-24658571D01*
X7889714Y-24658571D02*
X8127809Y-24658571D01*
X8127809Y-24658571D02*
X8223047Y-24706190D01*
X8223047Y-24706190D02*
X8270666Y-24753809D01*
X8270666Y-24753809D02*
X8318285Y-24849047D01*
X8318285Y-24849047D02*
X8318285Y-25087142D01*
X8318285Y-25087142D02*
X8270666Y-25182380D01*
X8270666Y-25182380D02*
X8223047Y-25230000D01*
X8223047Y-25230000D02*
X8127809Y-25277619D01*
X8127809Y-25277619D02*
X7889714Y-25277619D01*
X7889714Y-25277619D02*
X7794476Y-25230000D01*
X7794476Y-25230000D02*
X7746857Y-25182380D01*
X37541142Y-195238D02*
X37484000Y-147619D01*
X37484000Y-147619D02*
X37398285Y-147619D01*
X37398285Y-147619D02*
X37312571Y-195238D01*
X37312571Y-195238D02*
X37255428Y-290476D01*
X37255428Y-290476D02*
X37226857Y-385714D01*
X37226857Y-385714D02*
X37198285Y-576190D01*
X37198285Y-576190D02*
X37198285Y-719047D01*
X37198285Y-719047D02*
X37226857Y-909523D01*
X37226857Y-909523D02*
X37255428Y-1004761D01*
X37255428Y-1004761D02*
X37312571Y-1100000D01*
X37312571Y-1100000D02*
X37398285Y-1147619D01*
X37398285Y-1147619D02*
X37455428Y-1147619D01*
X37455428Y-1147619D02*
X37541142Y-1100000D01*
X37541142Y-1100000D02*
X37569714Y-1052380D01*
X37569714Y-1052380D02*
X37569714Y-719047D01*
X37569714Y-719047D02*
X37455428Y-719047D01*
X37826857Y-1147619D02*
X37826857Y-147619D01*
X37826857Y-147619D02*
X38169714Y-1147619D01*
X38169714Y-1147619D02*
X38169714Y-147619D01*
X38455428Y-1147619D02*
X38455428Y-147619D01*
X38455428Y-147619D02*
X38598285Y-147619D01*
X38598285Y-147619D02*
X38683999Y-195238D01*
X38683999Y-195238D02*
X38741142Y-290476D01*
X38741142Y-290476D02*
X38769713Y-385714D01*
X38769713Y-385714D02*
X38798285Y-576190D01*
X38798285Y-576190D02*
X38798285Y-719047D01*
X38798285Y-719047D02*
X38769713Y-909523D01*
X38769713Y-909523D02*
X38741142Y-1004761D01*
X38741142Y-1004761D02*
X38683999Y-1100000D01*
X38683999Y-1100000D02*
X38598285Y-1147619D01*
X38598285Y-1147619D02*
X38455428Y-1147619D01*
X27638285Y-147619D02*
X27162095Y-147619D01*
X27162095Y-147619D02*
X27114476Y-623809D01*
X27114476Y-623809D02*
X27162095Y-576190D01*
X27162095Y-576190D02*
X27257333Y-528571D01*
X27257333Y-528571D02*
X27495428Y-528571D01*
X27495428Y-528571D02*
X27590666Y-576190D01*
X27590666Y-576190D02*
X27638285Y-623809D01*
X27638285Y-623809D02*
X27685904Y-719047D01*
X27685904Y-719047D02*
X27685904Y-957142D01*
X27685904Y-957142D02*
X27638285Y-1052380D01*
X27638285Y-1052380D02*
X27590666Y-1100000D01*
X27590666Y-1100000D02*
X27495428Y-1147619D01*
X27495428Y-1147619D02*
X27257333Y-1147619D01*
X27257333Y-1147619D02*
X27162095Y-1100000D01*
X27162095Y-1100000D02*
X27114476Y-1052380D01*
X28590666Y-147619D02*
X28114476Y-147619D01*
X28114476Y-147619D02*
X28066857Y-623809D01*
X28066857Y-623809D02*
X28114476Y-576190D01*
X28114476Y-576190D02*
X28209714Y-528571D01*
X28209714Y-528571D02*
X28447809Y-528571D01*
X28447809Y-528571D02*
X28543047Y-576190D01*
X28543047Y-576190D02*
X28590666Y-623809D01*
X28590666Y-623809D02*
X28638285Y-719047D01*
X28638285Y-719047D02*
X28638285Y-957142D01*
X28638285Y-957142D02*
X28590666Y-1052380D01*
X28590666Y-1052380D02*
X28543047Y-1100000D01*
X28543047Y-1100000D02*
X28447809Y-1147619D01*
X28447809Y-1147619D02*
X28209714Y-1147619D01*
X28209714Y-1147619D02*
X28114476Y-1100000D01*
X28114476Y-1100000D02*
X28066857Y-1052380D01*
X42925904Y-25277619D02*
X42354476Y-25277619D01*
X42640190Y-25277619D02*
X42640190Y-24277619D01*
X42640190Y-24277619D02*
X42544952Y-24420476D01*
X42544952Y-24420476D02*
X42449714Y-24515714D01*
X42449714Y-24515714D02*
X42354476Y-24563333D01*
X43402095Y-25277619D02*
X43592571Y-25277619D01*
X43592571Y-25277619D02*
X43687809Y-25230000D01*
X43687809Y-25230000D02*
X43735428Y-25182380D01*
X43735428Y-25182380D02*
X43830666Y-25039523D01*
X43830666Y-25039523D02*
X43878285Y-24849047D01*
X43878285Y-24849047D02*
X43878285Y-24468095D01*
X43878285Y-24468095D02*
X43830666Y-24372857D01*
X43830666Y-24372857D02*
X43783047Y-24325238D01*
X43783047Y-24325238D02*
X43687809Y-24277619D01*
X43687809Y-24277619D02*
X43497333Y-24277619D01*
X43497333Y-24277619D02*
X43402095Y-24325238D01*
X43402095Y-24325238D02*
X43354476Y-24372857D01*
X43354476Y-24372857D02*
X43306857Y-24468095D01*
X43306857Y-24468095D02*
X43306857Y-24706190D01*
X43306857Y-24706190D02*
X43354476Y-24801428D01*
X43354476Y-24801428D02*
X43402095Y-24849047D01*
X43402095Y-24849047D02*
X43497333Y-24896666D01*
X43497333Y-24896666D02*
X43687809Y-24896666D01*
X43687809Y-24896666D02*
X43783047Y-24849047D01*
X43783047Y-24849047D02*
X43830666Y-24801428D01*
X43830666Y-24801428D02*
X43878285Y-24706190D01*
X42306857Y-147619D02*
X42973523Y-147619D01*
X42973523Y-147619D02*
X42544952Y-1147619D01*
X43306857Y-242857D02*
X43354476Y-195238D01*
X43354476Y-195238D02*
X43449714Y-147619D01*
X43449714Y-147619D02*
X43687809Y-147619D01*
X43687809Y-147619D02*
X43783047Y-195238D01*
X43783047Y-195238D02*
X43830666Y-242857D01*
X43830666Y-242857D02*
X43878285Y-338095D01*
X43878285Y-338095D02*
X43878285Y-433333D01*
X43878285Y-433333D02*
X43830666Y-576190D01*
X43830666Y-576190D02*
X43259238Y-1147619D01*
X43259238Y-1147619D02*
X43878285Y-1147619D01*
X32384952Y-576190D02*
X32289714Y-528571D01*
X32289714Y-528571D02*
X32242095Y-480952D01*
X32242095Y-480952D02*
X32194476Y-385714D01*
X32194476Y-385714D02*
X32194476Y-338095D01*
X32194476Y-338095D02*
X32242095Y-242857D01*
X32242095Y-242857D02*
X32289714Y-195238D01*
X32289714Y-195238D02*
X32384952Y-147619D01*
X32384952Y-147619D02*
X32575428Y-147619D01*
X32575428Y-147619D02*
X32670666Y-195238D01*
X32670666Y-195238D02*
X32718285Y-242857D01*
X32718285Y-242857D02*
X32765904Y-338095D01*
X32765904Y-338095D02*
X32765904Y-385714D01*
X32765904Y-385714D02*
X32718285Y-480952D01*
X32718285Y-480952D02*
X32670666Y-528571D01*
X32670666Y-528571D02*
X32575428Y-576190D01*
X32575428Y-576190D02*
X32384952Y-576190D01*
X32384952Y-576190D02*
X32289714Y-623809D01*
X32289714Y-623809D02*
X32242095Y-671428D01*
X32242095Y-671428D02*
X32194476Y-766666D01*
X32194476Y-766666D02*
X32194476Y-957142D01*
X32194476Y-957142D02*
X32242095Y-1052380D01*
X32242095Y-1052380D02*
X32289714Y-1100000D01*
X32289714Y-1100000D02*
X32384952Y-1147619D01*
X32384952Y-1147619D02*
X32575428Y-1147619D01*
X32575428Y-1147619D02*
X32670666Y-1100000D01*
X32670666Y-1100000D02*
X32718285Y-1052380D01*
X32718285Y-1052380D02*
X32765904Y-957142D01*
X32765904Y-957142D02*
X32765904Y-766666D01*
X32765904Y-766666D02*
X32718285Y-671428D01*
X32718285Y-671428D02*
X32670666Y-623809D01*
X32670666Y-623809D02*
X32575428Y-576190D01*
X33623047Y-147619D02*
X33432571Y-147619D01*
X33432571Y-147619D02*
X33337333Y-195238D01*
X33337333Y-195238D02*
X33289714Y-242857D01*
X33289714Y-242857D02*
X33194476Y-385714D01*
X33194476Y-385714D02*
X33146857Y-576190D01*
X33146857Y-576190D02*
X33146857Y-957142D01*
X33146857Y-957142D02*
X33194476Y-1052380D01*
X33194476Y-1052380D02*
X33242095Y-1100000D01*
X33242095Y-1100000D02*
X33337333Y-1147619D01*
X33337333Y-1147619D02*
X33527809Y-1147619D01*
X33527809Y-1147619D02*
X33623047Y-1100000D01*
X33623047Y-1100000D02*
X33670666Y-1052380D01*
X33670666Y-1052380D02*
X33718285Y-957142D01*
X33718285Y-957142D02*
X33718285Y-719047D01*
X33718285Y-719047D02*
X33670666Y-623809D01*
X33670666Y-623809D02*
X33623047Y-576190D01*
X33623047Y-576190D02*
X33527809Y-528571D01*
X33527809Y-528571D02*
X33337333Y-528571D01*
X33337333Y-528571D02*
X33242095Y-576190D01*
X33242095Y-576190D02*
X33194476Y-623809D01*
X33194476Y-623809D02*
X33146857Y-719047D01*
X25050666Y-480952D02*
X25050666Y-1147619D01*
X24812571Y-100000D02*
X24574476Y-814285D01*
X24574476Y-814285D02*
X25193523Y-814285D01*
X25717333Y-576190D02*
X25622095Y-528571D01*
X25622095Y-528571D02*
X25574476Y-480952D01*
X25574476Y-480952D02*
X25526857Y-385714D01*
X25526857Y-385714D02*
X25526857Y-338095D01*
X25526857Y-338095D02*
X25574476Y-242857D01*
X25574476Y-242857D02*
X25622095Y-195238D01*
X25622095Y-195238D02*
X25717333Y-147619D01*
X25717333Y-147619D02*
X25907809Y-147619D01*
X25907809Y-147619D02*
X26003047Y-195238D01*
X26003047Y-195238D02*
X26050666Y-242857D01*
X26050666Y-242857D02*
X26098285Y-338095D01*
X26098285Y-338095D02*
X26098285Y-385714D01*
X26098285Y-385714D02*
X26050666Y-480952D01*
X26050666Y-480952D02*
X26003047Y-528571D01*
X26003047Y-528571D02*
X25907809Y-576190D01*
X25907809Y-576190D02*
X25717333Y-576190D01*
X25717333Y-576190D02*
X25622095Y-623809D01*
X25622095Y-623809D02*
X25574476Y-671428D01*
X25574476Y-671428D02*
X25526857Y-766666D01*
X25526857Y-766666D02*
X25526857Y-957142D01*
X25526857Y-957142D02*
X25574476Y-1052380D01*
X25574476Y-1052380D02*
X25622095Y-1100000D01*
X25622095Y-1100000D02*
X25717333Y-1147619D01*
X25717333Y-1147619D02*
X25907809Y-1147619D01*
X25907809Y-1147619D02*
X26003047Y-1100000D01*
X26003047Y-1100000D02*
X26050666Y-1052380D01*
X26050666Y-1052380D02*
X26098285Y-957142D01*
X26098285Y-957142D02*
X26098285Y-766666D01*
X26098285Y-766666D02*
X26050666Y-671428D01*
X26050666Y-671428D02*
X26003047Y-623809D01*
X26003047Y-623809D02*
X25907809Y-576190D01*
X20018285Y-147619D02*
X19542095Y-147619D01*
X19542095Y-147619D02*
X19494476Y-623809D01*
X19494476Y-623809D02*
X19542095Y-576190D01*
X19542095Y-576190D02*
X19637333Y-528571D01*
X19637333Y-528571D02*
X19875428Y-528571D01*
X19875428Y-528571D02*
X19970666Y-576190D01*
X19970666Y-576190D02*
X20018285Y-623809D01*
X20018285Y-623809D02*
X20065904Y-719047D01*
X20065904Y-719047D02*
X20065904Y-957142D01*
X20065904Y-957142D02*
X20018285Y-1052380D01*
X20018285Y-1052380D02*
X19970666Y-1100000D01*
X19970666Y-1100000D02*
X19875428Y-1147619D01*
X19875428Y-1147619D02*
X19637333Y-1147619D01*
X19637333Y-1147619D02*
X19542095Y-1100000D01*
X19542095Y-1100000D02*
X19494476Y-1052380D01*
X20923047Y-480952D02*
X20923047Y-1147619D01*
X20684952Y-100000D02*
X20446857Y-814285D01*
X20446857Y-814285D02*
X21065904Y-814285D01*
X39709714Y-147619D02*
X40081142Y-147619D01*
X40081142Y-147619D02*
X39881142Y-528571D01*
X39881142Y-528571D02*
X39966857Y-528571D01*
X39966857Y-528571D02*
X40024000Y-576190D01*
X40024000Y-576190D02*
X40052571Y-623809D01*
X40052571Y-623809D02*
X40081142Y-719047D01*
X40081142Y-719047D02*
X40081142Y-957142D01*
X40081142Y-957142D02*
X40052571Y-1052380D01*
X40052571Y-1052380D02*
X40024000Y-1100000D01*
X40024000Y-1100000D02*
X39966857Y-1147619D01*
X39966857Y-1147619D02*
X39795428Y-1147619D01*
X39795428Y-1147619D02*
X39738285Y-1100000D01*
X39738285Y-1100000D02*
X39709714Y-1052380D01*
X40252571Y-147619D02*
X40452571Y-1147619D01*
X40452571Y-1147619D02*
X40652571Y-147619D01*
X40795429Y-147619D02*
X41166857Y-147619D01*
X41166857Y-147619D02*
X40966857Y-528571D01*
X40966857Y-528571D02*
X41052572Y-528571D01*
X41052572Y-528571D02*
X41109715Y-576190D01*
X41109715Y-576190D02*
X41138286Y-623809D01*
X41138286Y-623809D02*
X41166857Y-719047D01*
X41166857Y-719047D02*
X41166857Y-957142D01*
X41166857Y-957142D02*
X41138286Y-1052380D01*
X41138286Y-1052380D02*
X41109715Y-1100000D01*
X41109715Y-1100000D02*
X41052572Y-1147619D01*
X41052572Y-1147619D02*
X40881143Y-1147619D01*
X40881143Y-1147619D02*
X40824000Y-1100000D01*
X40824000Y-1100000D02*
X40795429Y-1052380D01*
X22034476Y-24372857D02*
X22082095Y-24325238D01*
X22082095Y-24325238D02*
X22177333Y-24277619D01*
X22177333Y-24277619D02*
X22415428Y-24277619D01*
X22415428Y-24277619D02*
X22510666Y-24325238D01*
X22510666Y-24325238D02*
X22558285Y-24372857D01*
X22558285Y-24372857D02*
X22605904Y-24468095D01*
X22605904Y-24468095D02*
X22605904Y-24563333D01*
X22605904Y-24563333D02*
X22558285Y-24706190D01*
X22558285Y-24706190D02*
X21986857Y-25277619D01*
X21986857Y-25277619D02*
X22605904Y-25277619D01*
X23177333Y-24706190D02*
X23082095Y-24658571D01*
X23082095Y-24658571D02*
X23034476Y-24610952D01*
X23034476Y-24610952D02*
X22986857Y-24515714D01*
X22986857Y-24515714D02*
X22986857Y-24468095D01*
X22986857Y-24468095D02*
X23034476Y-24372857D01*
X23034476Y-24372857D02*
X23082095Y-24325238D01*
X23082095Y-24325238D02*
X23177333Y-24277619D01*
X23177333Y-24277619D02*
X23367809Y-24277619D01*
X23367809Y-24277619D02*
X23463047Y-24325238D01*
X23463047Y-24325238D02*
X23510666Y-24372857D01*
X23510666Y-24372857D02*
X23558285Y-24468095D01*
X23558285Y-24468095D02*
X23558285Y-24515714D01*
X23558285Y-24515714D02*
X23510666Y-24610952D01*
X23510666Y-24610952D02*
X23463047Y-24658571D01*
X23463047Y-24658571D02*
X23367809Y-24706190D01*
X23367809Y-24706190D02*
X23177333Y-24706190D01*
X23177333Y-24706190D02*
X23082095Y-24753809D01*
X23082095Y-24753809D02*
X23034476Y-24801428D01*
X23034476Y-24801428D02*
X22986857Y-24896666D01*
X22986857Y-24896666D02*
X22986857Y-25087142D01*
X22986857Y-25087142D02*
X23034476Y-25182380D01*
X23034476Y-25182380D02*
X23082095Y-25230000D01*
X23082095Y-25230000D02*
X23177333Y-25277619D01*
X23177333Y-25277619D02*
X23367809Y-25277619D01*
X23367809Y-25277619D02*
X23463047Y-25230000D01*
X23463047Y-25230000D02*
X23510666Y-25182380D01*
X23510666Y-25182380D02*
X23558285Y-25087142D01*
X23558285Y-25087142D02*
X23558285Y-24896666D01*
X23558285Y-24896666D02*
X23510666Y-24801428D01*
X23510666Y-24801428D02*
X23463047Y-24753809D01*
X23463047Y-24753809D02*
X23367809Y-24706190D01*
X4521142Y-195238D02*
X4464000Y-147619D01*
X4464000Y-147619D02*
X4378285Y-147619D01*
X4378285Y-147619D02*
X4292571Y-195238D01*
X4292571Y-195238D02*
X4235428Y-290476D01*
X4235428Y-290476D02*
X4206857Y-385714D01*
X4206857Y-385714D02*
X4178285Y-576190D01*
X4178285Y-576190D02*
X4178285Y-719047D01*
X4178285Y-719047D02*
X4206857Y-909523D01*
X4206857Y-909523D02*
X4235428Y-1004761D01*
X4235428Y-1004761D02*
X4292571Y-1100000D01*
X4292571Y-1100000D02*
X4378285Y-1147619D01*
X4378285Y-1147619D02*
X4435428Y-1147619D01*
X4435428Y-1147619D02*
X4521142Y-1100000D01*
X4521142Y-1100000D02*
X4549714Y-1052380D01*
X4549714Y-1052380D02*
X4549714Y-719047D01*
X4549714Y-719047D02*
X4435428Y-719047D01*
X4806857Y-1147619D02*
X4806857Y-147619D01*
X4806857Y-147619D02*
X5149714Y-1147619D01*
X5149714Y-1147619D02*
X5149714Y-147619D01*
X5435428Y-1147619D02*
X5435428Y-147619D01*
X5435428Y-147619D02*
X5578285Y-147619D01*
X5578285Y-147619D02*
X5663999Y-195238D01*
X5663999Y-195238D02*
X5721142Y-290476D01*
X5721142Y-290476D02*
X5749713Y-385714D01*
X5749713Y-385714D02*
X5778285Y-576190D01*
X5778285Y-576190D02*
X5778285Y-719047D01*
X5778285Y-719047D02*
X5749713Y-909523D01*
X5749713Y-909523D02*
X5721142Y-1004761D01*
X5721142Y-1004761D02*
X5663999Y-1100000D01*
X5663999Y-1100000D02*
X5578285Y-1147619D01*
X5578285Y-1147619D02*
X5435428Y-1147619D01*
X6746857Y-147619D02*
X7413523Y-147619D01*
X7413523Y-147619D02*
X6984952Y-1147619D01*
X8223047Y-147619D02*
X8032571Y-147619D01*
X8032571Y-147619D02*
X7937333Y-195238D01*
X7937333Y-195238D02*
X7889714Y-242857D01*
X7889714Y-242857D02*
X7794476Y-385714D01*
X7794476Y-385714D02*
X7746857Y-576190D01*
X7746857Y-576190D02*
X7746857Y-957142D01*
X7746857Y-957142D02*
X7794476Y-1052380D01*
X7794476Y-1052380D02*
X7842095Y-1100000D01*
X7842095Y-1100000D02*
X7937333Y-1147619D01*
X7937333Y-1147619D02*
X8127809Y-1147619D01*
X8127809Y-1147619D02*
X8223047Y-1100000D01*
X8223047Y-1100000D02*
X8270666Y-1052380D01*
X8270666Y-1052380D02*
X8318285Y-957142D01*
X8318285Y-957142D02*
X8318285Y-719047D01*
X8318285Y-719047D02*
X8270666Y-623809D01*
X8270666Y-623809D02*
X8223047Y-576190D01*
X8223047Y-576190D02*
X8127809Y-528571D01*
X8127809Y-528571D02*
X7937333Y-528571D01*
X7937333Y-528571D02*
X7842095Y-576190D01*
X7842095Y-576190D02*
X7794476Y-623809D01*
X7794476Y-623809D02*
X7746857Y-719047D01*
X9524952Y-24706190D02*
X9429714Y-24658571D01*
X9429714Y-24658571D02*
X9382095Y-24610952D01*
X9382095Y-24610952D02*
X9334476Y-24515714D01*
X9334476Y-24515714D02*
X9334476Y-24468095D01*
X9334476Y-24468095D02*
X9382095Y-24372857D01*
X9382095Y-24372857D02*
X9429714Y-24325238D01*
X9429714Y-24325238D02*
X9524952Y-24277619D01*
X9524952Y-24277619D02*
X9715428Y-24277619D01*
X9715428Y-24277619D02*
X9810666Y-24325238D01*
X9810666Y-24325238D02*
X9858285Y-24372857D01*
X9858285Y-24372857D02*
X9905904Y-24468095D01*
X9905904Y-24468095D02*
X9905904Y-24515714D01*
X9905904Y-24515714D02*
X9858285Y-24610952D01*
X9858285Y-24610952D02*
X9810666Y-24658571D01*
X9810666Y-24658571D02*
X9715428Y-24706190D01*
X9715428Y-24706190D02*
X9524952Y-24706190D01*
X9524952Y-24706190D02*
X9429714Y-24753809D01*
X9429714Y-24753809D02*
X9382095Y-24801428D01*
X9382095Y-24801428D02*
X9334476Y-24896666D01*
X9334476Y-24896666D02*
X9334476Y-25087142D01*
X9334476Y-25087142D02*
X9382095Y-25182380D01*
X9382095Y-25182380D02*
X9429714Y-25230000D01*
X9429714Y-25230000D02*
X9524952Y-25277619D01*
X9524952Y-25277619D02*
X9715428Y-25277619D01*
X9715428Y-25277619D02*
X9810666Y-25230000D01*
X9810666Y-25230000D02*
X9858285Y-25182380D01*
X9858285Y-25182380D02*
X9905904Y-25087142D01*
X9905904Y-25087142D02*
X9905904Y-24896666D01*
X9905904Y-24896666D02*
X9858285Y-24801428D01*
X9858285Y-24801428D02*
X9810666Y-24753809D01*
X9810666Y-24753809D02*
X9715428Y-24706190D01*
X10810666Y-24277619D02*
X10334476Y-24277619D01*
X10334476Y-24277619D02*
X10286857Y-24753809D01*
X10286857Y-24753809D02*
X10334476Y-24706190D01*
X10334476Y-24706190D02*
X10429714Y-24658571D01*
X10429714Y-24658571D02*
X10667809Y-24658571D01*
X10667809Y-24658571D02*
X10763047Y-24706190D01*
X10763047Y-24706190D02*
X10810666Y-24753809D01*
X10810666Y-24753809D02*
X10858285Y-24849047D01*
X10858285Y-24849047D02*
X10858285Y-25087142D01*
X10858285Y-25087142D02*
X10810666Y-25182380D01*
X10810666Y-25182380D02*
X10763047Y-25230000D01*
X10763047Y-25230000D02*
X10667809Y-25277619D01*
X10667809Y-25277619D02*
X10429714Y-25277619D01*
X10429714Y-25277619D02*
X10334476Y-25230000D01*
X10334476Y-25230000D02*
X10286857Y-25182380D01*
X27114476Y-24372857D02*
X27162095Y-24325238D01*
X27162095Y-24325238D02*
X27257333Y-24277619D01*
X27257333Y-24277619D02*
X27495428Y-24277619D01*
X27495428Y-24277619D02*
X27590666Y-24325238D01*
X27590666Y-24325238D02*
X27638285Y-24372857D01*
X27638285Y-24372857D02*
X27685904Y-24468095D01*
X27685904Y-24468095D02*
X27685904Y-24563333D01*
X27685904Y-24563333D02*
X27638285Y-24706190D01*
X27638285Y-24706190D02*
X27066857Y-25277619D01*
X27066857Y-25277619D02*
X27685904Y-25277619D01*
X28543047Y-24277619D02*
X28352571Y-24277619D01*
X28352571Y-24277619D02*
X28257333Y-24325238D01*
X28257333Y-24325238D02*
X28209714Y-24372857D01*
X28209714Y-24372857D02*
X28114476Y-24515714D01*
X28114476Y-24515714D02*
X28066857Y-24706190D01*
X28066857Y-24706190D02*
X28066857Y-25087142D01*
X28066857Y-25087142D02*
X28114476Y-25182380D01*
X28114476Y-25182380D02*
X28162095Y-25230000D01*
X28162095Y-25230000D02*
X28257333Y-25277619D01*
X28257333Y-25277619D02*
X28447809Y-25277619D01*
X28447809Y-25277619D02*
X28543047Y-25230000D01*
X28543047Y-25230000D02*
X28590666Y-25182380D01*
X28590666Y-25182380D02*
X28638285Y-25087142D01*
X28638285Y-25087142D02*
X28638285Y-24849047D01*
X28638285Y-24849047D02*
X28590666Y-24753809D01*
X28590666Y-24753809D02*
X28543047Y-24706190D01*
X28543047Y-24706190D02*
X28447809Y-24658571D01*
X28447809Y-24658571D02*
X28257333Y-24658571D01*
X28257333Y-24658571D02*
X28162095Y-24706190D01*
X28162095Y-24706190D02*
X28114476Y-24753809D01*
X28114476Y-24753809D02*
X28066857Y-24849047D01*
X14985904Y-25277619D02*
X14414476Y-25277619D01*
X14700190Y-25277619D02*
X14700190Y-24277619D01*
X14700190Y-24277619D02*
X14604952Y-24420476D01*
X14604952Y-24420476D02*
X14509714Y-24515714D01*
X14509714Y-24515714D02*
X14414476Y-24563333D01*
X15890666Y-24277619D02*
X15414476Y-24277619D01*
X15414476Y-24277619D02*
X15366857Y-24753809D01*
X15366857Y-24753809D02*
X15414476Y-24706190D01*
X15414476Y-24706190D02*
X15509714Y-24658571D01*
X15509714Y-24658571D02*
X15747809Y-24658571D01*
X15747809Y-24658571D02*
X15843047Y-24706190D01*
X15843047Y-24706190D02*
X15890666Y-24753809D01*
X15890666Y-24753809D02*
X15938285Y-24849047D01*
X15938285Y-24849047D02*
X15938285Y-25087142D01*
X15938285Y-25087142D02*
X15890666Y-25182380D01*
X15890666Y-25182380D02*
X15843047Y-25230000D01*
X15843047Y-25230000D02*
X15747809Y-25277619D01*
X15747809Y-25277619D02*
X15509714Y-25277619D01*
X15509714Y-25277619D02*
X15414476Y-25230000D01*
X15414476Y-25230000D02*
X15366857Y-25182380D01*
X45504047Y-8270761D02*
X45313571Y-8270761D01*
X45313571Y-8270761D02*
X45313571Y-7127904D01*
X45313571Y-7127904D02*
X45504047Y-7127904D01*
X45694523Y-7204095D02*
X46151666Y-7204095D01*
X45923094Y-8004095D02*
X45923094Y-7204095D01*
X46418333Y-8004095D02*
X46418333Y-7204095D01*
X46418333Y-7204095D02*
X46875476Y-8004095D01*
X46875476Y-8004095D02*
X46875476Y-7204095D01*
X47218332Y-7280285D02*
X47256428Y-7242190D01*
X47256428Y-7242190D02*
X47332618Y-7204095D01*
X47332618Y-7204095D02*
X47523094Y-7204095D01*
X47523094Y-7204095D02*
X47599285Y-7242190D01*
X47599285Y-7242190D02*
X47637380Y-7280285D01*
X47637380Y-7280285D02*
X47675475Y-7356476D01*
X47675475Y-7356476D02*
X47675475Y-7432666D01*
X47675475Y-7432666D02*
X47637380Y-7546952D01*
X47637380Y-7546952D02*
X47180237Y-8004095D01*
X47180237Y-8004095D02*
X47675475Y-8004095D01*
X48170714Y-7204095D02*
X48246904Y-7204095D01*
X48246904Y-7204095D02*
X48323095Y-7242190D01*
X48323095Y-7242190D02*
X48361190Y-7280285D01*
X48361190Y-7280285D02*
X48399285Y-7356476D01*
X48399285Y-7356476D02*
X48437380Y-7508857D01*
X48437380Y-7508857D02*
X48437380Y-7699333D01*
X48437380Y-7699333D02*
X48399285Y-7851714D01*
X48399285Y-7851714D02*
X48361190Y-7927904D01*
X48361190Y-7927904D02*
X48323095Y-7966000D01*
X48323095Y-7966000D02*
X48246904Y-8004095D01*
X48246904Y-8004095D02*
X48170714Y-8004095D01*
X48170714Y-8004095D02*
X48094523Y-7966000D01*
X48094523Y-7966000D02*
X48056428Y-7927904D01*
X48056428Y-7927904D02*
X48018333Y-7851714D01*
X48018333Y-7851714D02*
X47980237Y-7699333D01*
X47980237Y-7699333D02*
X47980237Y-7508857D01*
X47980237Y-7508857D02*
X48018333Y-7356476D01*
X48018333Y-7356476D02*
X48056428Y-7280285D01*
X48056428Y-7280285D02*
X48094523Y-7242190D01*
X48094523Y-7242190D02*
X48170714Y-7204095D01*
X48780238Y-8004095D02*
X48780238Y-7204095D01*
X49237381Y-8004095D02*
X48894523Y-7546952D01*
X49237381Y-7204095D02*
X48780238Y-7661238D01*
X49961190Y-7204095D02*
X49580238Y-7204095D01*
X49580238Y-7204095D02*
X49542142Y-7585047D01*
X49542142Y-7585047D02*
X49580238Y-7546952D01*
X49580238Y-7546952D02*
X49656428Y-7508857D01*
X49656428Y-7508857D02*
X49846904Y-7508857D01*
X49846904Y-7508857D02*
X49923095Y-7546952D01*
X49923095Y-7546952D02*
X49961190Y-7585047D01*
X49961190Y-7585047D02*
X49999285Y-7661238D01*
X49999285Y-7661238D02*
X49999285Y-7851714D01*
X49999285Y-7851714D02*
X49961190Y-7927904D01*
X49961190Y-7927904D02*
X49923095Y-7966000D01*
X49923095Y-7966000D02*
X49846904Y-8004095D01*
X49846904Y-8004095D02*
X49656428Y-8004095D01*
X49656428Y-8004095D02*
X49580238Y-7966000D01*
X49580238Y-7966000D02*
X49542142Y-7927904D01*
X50227857Y-7204095D02*
X50494524Y-8004095D01*
X50494524Y-8004095D02*
X50761190Y-7204095D01*
X50951666Y-8270761D02*
X51142142Y-8270761D01*
X51142142Y-8270761D02*
X51142142Y-7127904D01*
X51142142Y-7127904D02*
X50951666Y-7127904D01*
X45732619Y-9300095D02*
X45465952Y-8919142D01*
X45275476Y-9300095D02*
X45275476Y-8500095D01*
X45275476Y-8500095D02*
X45580238Y-8500095D01*
X45580238Y-8500095D02*
X45656428Y-8538190D01*
X45656428Y-8538190D02*
X45694523Y-8576285D01*
X45694523Y-8576285D02*
X45732619Y-8652476D01*
X45732619Y-8652476D02*
X45732619Y-8766761D01*
X45732619Y-8766761D02*
X45694523Y-8842952D01*
X45694523Y-8842952D02*
X45656428Y-8881047D01*
X45656428Y-8881047D02*
X45580238Y-8919142D01*
X45580238Y-8919142D02*
X45275476Y-8919142D01*
X46380238Y-9262000D02*
X46304047Y-9300095D01*
X46304047Y-9300095D02*
X46151666Y-9300095D01*
X46151666Y-9300095D02*
X46075476Y-9262000D01*
X46075476Y-9262000D02*
X46037380Y-9185809D01*
X46037380Y-9185809D02*
X46037380Y-8881047D01*
X46037380Y-8881047D02*
X46075476Y-8804857D01*
X46075476Y-8804857D02*
X46151666Y-8766761D01*
X46151666Y-8766761D02*
X46304047Y-8766761D01*
X46304047Y-8766761D02*
X46380238Y-8804857D01*
X46380238Y-8804857D02*
X46418333Y-8881047D01*
X46418333Y-8881047D02*
X46418333Y-8957238D01*
X46418333Y-8957238D02*
X46037380Y-9033428D01*
X46684999Y-8766761D02*
X46875475Y-9300095D01*
X46875475Y-9300095D02*
X47065952Y-8766761D01*
X47370714Y-9223904D02*
X47408809Y-9262000D01*
X47408809Y-9262000D02*
X47370714Y-9300095D01*
X47370714Y-9300095D02*
X47332618Y-9262000D01*
X47332618Y-9262000D02*
X47370714Y-9223904D01*
X47370714Y-9223904D02*
X47370714Y-9300095D01*
X48170713Y-9300095D02*
X47713570Y-9300095D01*
X47942142Y-9300095D02*
X47942142Y-8500095D01*
X47942142Y-8500095D02*
X47865951Y-8614380D01*
X47865951Y-8614380D02*
X47789761Y-8690571D01*
X47789761Y-8690571D02*
X47713570Y-8728666D01*
X48513571Y-9223904D02*
X48551666Y-9262000D01*
X48551666Y-9262000D02*
X48513571Y-9300095D01*
X48513571Y-9300095D02*
X48475475Y-9262000D01*
X48475475Y-9262000D02*
X48513571Y-9223904D01*
X48513571Y-9223904D02*
X48513571Y-9300095D01*
X49313570Y-9300095D02*
X48856427Y-9300095D01*
X49084999Y-9300095D02*
X49084999Y-8500095D01*
X49084999Y-8500095D02*
X49008808Y-8614380D01*
X49008808Y-8614380D02*
X48932618Y-8690571D01*
X48932618Y-8690571D02*
X48856427Y-8728666D01*
X24574476Y-24372857D02*
X24622095Y-24325238D01*
X24622095Y-24325238D02*
X24717333Y-24277619D01*
X24717333Y-24277619D02*
X24955428Y-24277619D01*
X24955428Y-24277619D02*
X25050666Y-24325238D01*
X25050666Y-24325238D02*
X25098285Y-24372857D01*
X25098285Y-24372857D02*
X25145904Y-24468095D01*
X25145904Y-24468095D02*
X25145904Y-24563333D01*
X25145904Y-24563333D02*
X25098285Y-24706190D01*
X25098285Y-24706190D02*
X24526857Y-25277619D01*
X24526857Y-25277619D02*
X25145904Y-25277619D01*
X26050666Y-24277619D02*
X25574476Y-24277619D01*
X25574476Y-24277619D02*
X25526857Y-24753809D01*
X25526857Y-24753809D02*
X25574476Y-24706190D01*
X25574476Y-24706190D02*
X25669714Y-24658571D01*
X25669714Y-24658571D02*
X25907809Y-24658571D01*
X25907809Y-24658571D02*
X26003047Y-24706190D01*
X26003047Y-24706190D02*
X26050666Y-24753809D01*
X26050666Y-24753809D02*
X26098285Y-24849047D01*
X26098285Y-24849047D02*
X26098285Y-25087142D01*
X26098285Y-25087142D02*
X26050666Y-25182380D01*
X26050666Y-25182380D02*
X26003047Y-25230000D01*
X26003047Y-25230000D02*
X25907809Y-25277619D01*
X25907809Y-25277619D02*
X25669714Y-25277619D01*
X25669714Y-25277619D02*
X25574476Y-25230000D01*
X25574476Y-25230000D02*
X25526857Y-25182380D01*
X29654476Y-24372857D02*
X29702095Y-24325238D01*
X29702095Y-24325238D02*
X29797333Y-24277619D01*
X29797333Y-24277619D02*
X30035428Y-24277619D01*
X30035428Y-24277619D02*
X30130666Y-24325238D01*
X30130666Y-24325238D02*
X30178285Y-24372857D01*
X30178285Y-24372857D02*
X30225904Y-24468095D01*
X30225904Y-24468095D02*
X30225904Y-24563333D01*
X30225904Y-24563333D02*
X30178285Y-24706190D01*
X30178285Y-24706190D02*
X29606857Y-25277619D01*
X29606857Y-25277619D02*
X30225904Y-25277619D01*
X30702095Y-25277619D02*
X30892571Y-25277619D01*
X30892571Y-25277619D02*
X30987809Y-25230000D01*
X30987809Y-25230000D02*
X31035428Y-25182380D01*
X31035428Y-25182380D02*
X31130666Y-25039523D01*
X31130666Y-25039523D02*
X31178285Y-24849047D01*
X31178285Y-24849047D02*
X31178285Y-24468095D01*
X31178285Y-24468095D02*
X31130666Y-24372857D01*
X31130666Y-24372857D02*
X31083047Y-24325238D01*
X31083047Y-24325238D02*
X30987809Y-24277619D01*
X30987809Y-24277619D02*
X30797333Y-24277619D01*
X30797333Y-24277619D02*
X30702095Y-24325238D01*
X30702095Y-24325238D02*
X30654476Y-24372857D01*
X30654476Y-24372857D02*
X30606857Y-24468095D01*
X30606857Y-24468095D02*
X30606857Y-24706190D01*
X30606857Y-24706190D02*
X30654476Y-24801428D01*
X30654476Y-24801428D02*
X30702095Y-24849047D01*
X30702095Y-24849047D02*
X30797333Y-24896666D01*
X30797333Y-24896666D02*
X30987809Y-24896666D01*
X30987809Y-24896666D02*
X31083047Y-24849047D01*
X31083047Y-24849047D02*
X31130666Y-24801428D01*
X31130666Y-24801428D02*
X31178285Y-24706190D01*
X50368142Y-24325238D02*
X50311000Y-24277619D01*
X50311000Y-24277619D02*
X50225285Y-24277619D01*
X50225285Y-24277619D02*
X50139571Y-24325238D01*
X50139571Y-24325238D02*
X50082428Y-24420476D01*
X50082428Y-24420476D02*
X50053857Y-24515714D01*
X50053857Y-24515714D02*
X50025285Y-24706190D01*
X50025285Y-24706190D02*
X50025285Y-24849047D01*
X50025285Y-24849047D02*
X50053857Y-25039523D01*
X50053857Y-25039523D02*
X50082428Y-25134761D01*
X50082428Y-25134761D02*
X50139571Y-25230000D01*
X50139571Y-25230000D02*
X50225285Y-25277619D01*
X50225285Y-25277619D02*
X50282428Y-25277619D01*
X50282428Y-25277619D02*
X50368142Y-25230000D01*
X50368142Y-25230000D02*
X50396714Y-25182380D01*
X50396714Y-25182380D02*
X50396714Y-24849047D01*
X50396714Y-24849047D02*
X50282428Y-24849047D01*
X50653857Y-25277619D02*
X50653857Y-24277619D01*
X50653857Y-24277619D02*
X50996714Y-25277619D01*
X50996714Y-25277619D02*
X50996714Y-24277619D01*
X51282428Y-25277619D02*
X51282428Y-24277619D01*
X51282428Y-24277619D02*
X51425285Y-24277619D01*
X51425285Y-24277619D02*
X51510999Y-24325238D01*
X51510999Y-24325238D02*
X51568142Y-24420476D01*
X51568142Y-24420476D02*
X51596713Y-24515714D01*
X51596713Y-24515714D02*
X51625285Y-24706190D01*
X51625285Y-24706190D02*
X51625285Y-24849047D01*
X51625285Y-24849047D02*
X51596713Y-25039523D01*
X51596713Y-25039523D02*
X51568142Y-25134761D01*
X51568142Y-25134761D02*
X51510999Y-25230000D01*
X51510999Y-25230000D02*
X51425285Y-25277619D01*
X51425285Y-25277619D02*
X51282428Y-25277619D01*
X37845904Y-25277619D02*
X37274476Y-25277619D01*
X37560190Y-25277619D02*
X37560190Y-24277619D01*
X37560190Y-24277619D02*
X37464952Y-24420476D01*
X37464952Y-24420476D02*
X37369714Y-24515714D01*
X37369714Y-24515714D02*
X37274476Y-24563333D01*
X38179238Y-24277619D02*
X38845904Y-24277619D01*
X38845904Y-24277619D02*
X38417333Y-25277619D01*
X44846857Y-147619D02*
X45513523Y-147619D01*
X45513523Y-147619D02*
X45084952Y-1147619D01*
X46418285Y-1147619D02*
X45846857Y-1147619D01*
X46132571Y-1147619D02*
X46132571Y-147619D01*
X46132571Y-147619D02*
X46037333Y-290476D01*
X46037333Y-290476D02*
X45942095Y-385714D01*
X45942095Y-385714D02*
X45846857Y-433333D01*
X45465904Y-25277619D02*
X44894476Y-25277619D01*
X45180190Y-25277619D02*
X45180190Y-24277619D01*
X45180190Y-24277619D02*
X45084952Y-24420476D01*
X45084952Y-24420476D02*
X44989714Y-24515714D01*
X44989714Y-24515714D02*
X44894476Y-24563333D01*
X46037333Y-24706190D02*
X45942095Y-24658571D01*
X45942095Y-24658571D02*
X45894476Y-24610952D01*
X45894476Y-24610952D02*
X45846857Y-24515714D01*
X45846857Y-24515714D02*
X45846857Y-24468095D01*
X45846857Y-24468095D02*
X45894476Y-24372857D01*
X45894476Y-24372857D02*
X45942095Y-24325238D01*
X45942095Y-24325238D02*
X46037333Y-24277619D01*
X46037333Y-24277619D02*
X46227809Y-24277619D01*
X46227809Y-24277619D02*
X46323047Y-24325238D01*
X46323047Y-24325238D02*
X46370666Y-24372857D01*
X46370666Y-24372857D02*
X46418285Y-24468095D01*
X46418285Y-24468095D02*
X46418285Y-24515714D01*
X46418285Y-24515714D02*
X46370666Y-24610952D01*
X46370666Y-24610952D02*
X46323047Y-24658571D01*
X46323047Y-24658571D02*
X46227809Y-24706190D01*
X46227809Y-24706190D02*
X46037333Y-24706190D01*
X46037333Y-24706190D02*
X45942095Y-24753809D01*
X45942095Y-24753809D02*
X45894476Y-24801428D01*
X45894476Y-24801428D02*
X45846857Y-24896666D01*
X45846857Y-24896666D02*
X45846857Y-25087142D01*
X45846857Y-25087142D02*
X45894476Y-25182380D01*
X45894476Y-25182380D02*
X45942095Y-25230000D01*
X45942095Y-25230000D02*
X46037333Y-25277619D01*
X46037333Y-25277619D02*
X46227809Y-25277619D01*
X46227809Y-25277619D02*
X46323047Y-25230000D01*
X46323047Y-25230000D02*
X46370666Y-25182380D01*
X46370666Y-25182380D02*
X46418285Y-25087142D01*
X46418285Y-25087142D02*
X46418285Y-24896666D01*
X46418285Y-24896666D02*
X46370666Y-24801428D01*
X46370666Y-24801428D02*
X46323047Y-24753809D01*
X46323047Y-24753809D02*
X46227809Y-24706190D01*
X39814476Y-24372857D02*
X39862095Y-24325238D01*
X39862095Y-24325238D02*
X39957333Y-24277619D01*
X39957333Y-24277619D02*
X40195428Y-24277619D01*
X40195428Y-24277619D02*
X40290666Y-24325238D01*
X40290666Y-24325238D02*
X40338285Y-24372857D01*
X40338285Y-24372857D02*
X40385904Y-24468095D01*
X40385904Y-24468095D02*
X40385904Y-24563333D01*
X40385904Y-24563333D02*
X40338285Y-24706190D01*
X40338285Y-24706190D02*
X39766857Y-25277619D01*
X39766857Y-25277619D02*
X40385904Y-25277619D01*
X41004952Y-24277619D02*
X41100190Y-24277619D01*
X41100190Y-24277619D02*
X41195428Y-24325238D01*
X41195428Y-24325238D02*
X41243047Y-24372857D01*
X41243047Y-24372857D02*
X41290666Y-24468095D01*
X41290666Y-24468095D02*
X41338285Y-24658571D01*
X41338285Y-24658571D02*
X41338285Y-24896666D01*
X41338285Y-24896666D02*
X41290666Y-25087142D01*
X41290666Y-25087142D02*
X41243047Y-25182380D01*
X41243047Y-25182380D02*
X41195428Y-25230000D01*
X41195428Y-25230000D02*
X41100190Y-25277619D01*
X41100190Y-25277619D02*
X41004952Y-25277619D01*
X41004952Y-25277619D02*
X40909714Y-25230000D01*
X40909714Y-25230000D02*
X40862095Y-25182380D01*
X40862095Y-25182380D02*
X40814476Y-25087142D01*
X40814476Y-25087142D02*
X40766857Y-24896666D01*
X40766857Y-24896666D02*
X40766857Y-24658571D01*
X40766857Y-24658571D02*
X40814476Y-24468095D01*
X40814476Y-24468095D02*
X40862095Y-24372857D01*
X40862095Y-24372857D02*
X40909714Y-24325238D01*
X40909714Y-24325238D02*
X41004952Y-24277619D01*
X2349428Y-147619D02*
X1968476Y-147619D01*
X1968476Y-147619D02*
X1930380Y-623809D01*
X1930380Y-623809D02*
X1968476Y-576190D01*
X1968476Y-576190D02*
X2044666Y-528571D01*
X2044666Y-528571D02*
X2235142Y-528571D01*
X2235142Y-528571D02*
X2311333Y-576190D01*
X2311333Y-576190D02*
X2349428Y-623809D01*
X2349428Y-623809D02*
X2387523Y-719047D01*
X2387523Y-719047D02*
X2387523Y-957142D01*
X2387523Y-957142D02*
X2349428Y-1052380D01*
X2349428Y-1052380D02*
X2311333Y-1100000D01*
X2311333Y-1100000D02*
X2235142Y-1147619D01*
X2235142Y-1147619D02*
X2044666Y-1147619D01*
X2044666Y-1147619D02*
X1968476Y-1100000D01*
X1968476Y-1100000D02*
X1930380Y-1052380D01*
X2616095Y-147619D02*
X2882762Y-1147619D01*
X2882762Y-1147619D02*
X3149428Y-147619D01*
X17525904Y-25277619D02*
X16954476Y-25277619D01*
X17240190Y-25277619D02*
X17240190Y-24277619D01*
X17240190Y-24277619D02*
X17144952Y-24420476D01*
X17144952Y-24420476D02*
X17049714Y-24515714D01*
X17049714Y-24515714D02*
X16954476Y-24563333D01*
X18383047Y-24277619D02*
X18192571Y-24277619D01*
X18192571Y-24277619D02*
X18097333Y-24325238D01*
X18097333Y-24325238D02*
X18049714Y-24372857D01*
X18049714Y-24372857D02*
X17954476Y-24515714D01*
X17954476Y-24515714D02*
X17906857Y-24706190D01*
X17906857Y-24706190D02*
X17906857Y-25087142D01*
X17906857Y-25087142D02*
X17954476Y-25182380D01*
X17954476Y-25182380D02*
X18002095Y-25230000D01*
X18002095Y-25230000D02*
X18097333Y-25277619D01*
X18097333Y-25277619D02*
X18287809Y-25277619D01*
X18287809Y-25277619D02*
X18383047Y-25230000D01*
X18383047Y-25230000D02*
X18430666Y-25182380D01*
X18430666Y-25182380D02*
X18478285Y-25087142D01*
X18478285Y-25087142D02*
X18478285Y-24849047D01*
X18478285Y-24849047D02*
X18430666Y-24753809D01*
X18430666Y-24753809D02*
X18383047Y-24706190D01*
X18383047Y-24706190D02*
X18287809Y-24658571D01*
X18287809Y-24658571D02*
X18097333Y-24658571D01*
X18097333Y-24658571D02*
X18002095Y-24706190D01*
X18002095Y-24706190D02*
X17954476Y-24753809D01*
X17954476Y-24753809D02*
X17906857Y-24849047D01*
D12*
X7207142Y-7005619D02*
X6635714Y-7005619D01*
X6635714Y-7005619D02*
X6578571Y-7481809D01*
X6578571Y-7481809D02*
X6635714Y-7434190D01*
X6635714Y-7434190D02*
X6750000Y-7386571D01*
X6750000Y-7386571D02*
X7035714Y-7386571D01*
X7035714Y-7386571D02*
X7150000Y-7434190D01*
X7150000Y-7434190D02*
X7207142Y-7481809D01*
X7207142Y-7481809D02*
X7264285Y-7577047D01*
X7264285Y-7577047D02*
X7264285Y-7815142D01*
X7264285Y-7815142D02*
X7207142Y-7910380D01*
X7207142Y-7910380D02*
X7150000Y-7958000D01*
X7150000Y-7958000D02*
X7035714Y-8005619D01*
X7035714Y-8005619D02*
X6750000Y-8005619D01*
X6750000Y-8005619D02*
X6635714Y-7958000D01*
X6635714Y-7958000D02*
X6578571Y-7910380D01*
X7607142Y-7005619D02*
X8007142Y-8005619D01*
X8007142Y-8005619D02*
X8407142Y-7005619D01*
X9549999Y-7005619D02*
X10235714Y-7005619D01*
X9892856Y-8005619D02*
X9892856Y-7005619D01*
X10807142Y-8005619D02*
X10692857Y-7958000D01*
X10692857Y-7958000D02*
X10635714Y-7910380D01*
X10635714Y-7910380D02*
X10578571Y-7815142D01*
X10578571Y-7815142D02*
X10578571Y-7529428D01*
X10578571Y-7529428D02*
X10635714Y-7434190D01*
X10635714Y-7434190D02*
X10692857Y-7386571D01*
X10692857Y-7386571D02*
X10807142Y-7338952D01*
X10807142Y-7338952D02*
X10978571Y-7338952D01*
X10978571Y-7338952D02*
X11092857Y-7386571D01*
X11092857Y-7386571D02*
X11150000Y-7434190D01*
X11150000Y-7434190D02*
X11207142Y-7529428D01*
X11207142Y-7529428D02*
X11207142Y-7815142D01*
X11207142Y-7815142D02*
X11150000Y-7910380D01*
X11150000Y-7910380D02*
X11092857Y-7958000D01*
X11092857Y-7958000D02*
X10978571Y-8005619D01*
X10978571Y-8005619D02*
X10807142Y-8005619D01*
X11892856Y-8005619D02*
X11778571Y-7958000D01*
X11778571Y-7958000D02*
X11721428Y-7862761D01*
X11721428Y-7862761D02*
X11721428Y-7005619D01*
X12807142Y-7958000D02*
X12692856Y-8005619D01*
X12692856Y-8005619D02*
X12464285Y-8005619D01*
X12464285Y-8005619D02*
X12349999Y-7958000D01*
X12349999Y-7958000D02*
X12292856Y-7862761D01*
X12292856Y-7862761D02*
X12292856Y-7481809D01*
X12292856Y-7481809D02*
X12349999Y-7386571D01*
X12349999Y-7386571D02*
X12464285Y-7338952D01*
X12464285Y-7338952D02*
X12692856Y-7338952D01*
X12692856Y-7338952D02*
X12807142Y-7386571D01*
X12807142Y-7386571D02*
X12864285Y-7481809D01*
X12864285Y-7481809D02*
X12864285Y-7577047D01*
X12864285Y-7577047D02*
X12292856Y-7672285D01*
X13378570Y-8005619D02*
X13378570Y-7338952D01*
X13378570Y-7529428D02*
X13435713Y-7434190D01*
X13435713Y-7434190D02*
X13492856Y-7386571D01*
X13492856Y-7386571D02*
X13607141Y-7338952D01*
X13607141Y-7338952D02*
X13721427Y-7338952D01*
X14635713Y-8005619D02*
X14635713Y-7481809D01*
X14635713Y-7481809D02*
X14578570Y-7386571D01*
X14578570Y-7386571D02*
X14464284Y-7338952D01*
X14464284Y-7338952D02*
X14235713Y-7338952D01*
X14235713Y-7338952D02*
X14121427Y-7386571D01*
X14635713Y-7958000D02*
X14521427Y-8005619D01*
X14521427Y-8005619D02*
X14235713Y-8005619D01*
X14235713Y-8005619D02*
X14121427Y-7958000D01*
X14121427Y-7958000D02*
X14064284Y-7862761D01*
X14064284Y-7862761D02*
X14064284Y-7767523D01*
X14064284Y-7767523D02*
X14121427Y-7672285D01*
X14121427Y-7672285D02*
X14235713Y-7624666D01*
X14235713Y-7624666D02*
X14521427Y-7624666D01*
X14521427Y-7624666D02*
X14635713Y-7577047D01*
X15207141Y-7338952D02*
X15207141Y-8005619D01*
X15207141Y-7434190D02*
X15264284Y-7386571D01*
X15264284Y-7386571D02*
X15378569Y-7338952D01*
X15378569Y-7338952D02*
X15549998Y-7338952D01*
X15549998Y-7338952D02*
X15664284Y-7386571D01*
X15664284Y-7386571D02*
X15721427Y-7481809D01*
X15721427Y-7481809D02*
X15721427Y-8005619D01*
X16121426Y-7338952D02*
X16578569Y-7338952D01*
X16292855Y-7005619D02*
X16292855Y-7862761D01*
X16292855Y-7862761D02*
X16349998Y-7958000D01*
X16349998Y-7958000D02*
X16464283Y-8005619D01*
X16464283Y-8005619D02*
X16578569Y-8005619D01*
X17892855Y-8005619D02*
X17892855Y-7005619D01*
X18464284Y-7338952D02*
X18464284Y-8005619D01*
X18464284Y-7434190D02*
X18521427Y-7386571D01*
X18521427Y-7386571D02*
X18635712Y-7338952D01*
X18635712Y-7338952D02*
X18807141Y-7338952D01*
X18807141Y-7338952D02*
X18921427Y-7386571D01*
X18921427Y-7386571D02*
X18978570Y-7481809D01*
X18978570Y-7481809D02*
X18978570Y-8005619D01*
X19378569Y-7338952D02*
X19835712Y-7338952D01*
X19549998Y-7005619D02*
X19549998Y-7862761D01*
X19549998Y-7862761D02*
X19607141Y-7958000D01*
X19607141Y-7958000D02*
X19721426Y-8005619D01*
X19721426Y-8005619D02*
X19835712Y-8005619D01*
X20692855Y-7958000D02*
X20578569Y-8005619D01*
X20578569Y-8005619D02*
X20349998Y-8005619D01*
X20349998Y-8005619D02*
X20235712Y-7958000D01*
X20235712Y-7958000D02*
X20178569Y-7862761D01*
X20178569Y-7862761D02*
X20178569Y-7481809D01*
X20178569Y-7481809D02*
X20235712Y-7386571D01*
X20235712Y-7386571D02*
X20349998Y-7338952D01*
X20349998Y-7338952D02*
X20578569Y-7338952D01*
X20578569Y-7338952D02*
X20692855Y-7386571D01*
X20692855Y-7386571D02*
X20749998Y-7481809D01*
X20749998Y-7481809D02*
X20749998Y-7577047D01*
X20749998Y-7577047D02*
X20178569Y-7672285D01*
X21264283Y-8005619D02*
X21264283Y-7338952D01*
X21264283Y-7529428D02*
X21321426Y-7434190D01*
X21321426Y-7434190D02*
X21378569Y-7386571D01*
X21378569Y-7386571D02*
X21492854Y-7338952D01*
X21492854Y-7338952D02*
X21607140Y-7338952D01*
X21835711Y-7338952D02*
X22292854Y-7338952D01*
X22007140Y-8005619D02*
X22007140Y-7148476D01*
X22007140Y-7148476D02*
X22064283Y-7053238D01*
X22064283Y-7053238D02*
X22178568Y-7005619D01*
X22178568Y-7005619D02*
X22292854Y-7005619D01*
X23207140Y-8005619D02*
X23207140Y-7481809D01*
X23207140Y-7481809D02*
X23149997Y-7386571D01*
X23149997Y-7386571D02*
X23035711Y-7338952D01*
X23035711Y-7338952D02*
X22807140Y-7338952D01*
X22807140Y-7338952D02*
X22692854Y-7386571D01*
X23207140Y-7958000D02*
X23092854Y-8005619D01*
X23092854Y-8005619D02*
X22807140Y-8005619D01*
X22807140Y-8005619D02*
X22692854Y-7958000D01*
X22692854Y-7958000D02*
X22635711Y-7862761D01*
X22635711Y-7862761D02*
X22635711Y-7767523D01*
X22635711Y-7767523D02*
X22692854Y-7672285D01*
X22692854Y-7672285D02*
X22807140Y-7624666D01*
X22807140Y-7624666D02*
X23092854Y-7624666D01*
X23092854Y-7624666D02*
X23207140Y-7577047D01*
X24292854Y-7958000D02*
X24178568Y-8005619D01*
X24178568Y-8005619D02*
X23949996Y-8005619D01*
X23949996Y-8005619D02*
X23835711Y-7958000D01*
X23835711Y-7958000D02*
X23778568Y-7910380D01*
X23778568Y-7910380D02*
X23721425Y-7815142D01*
X23721425Y-7815142D02*
X23721425Y-7529428D01*
X23721425Y-7529428D02*
X23778568Y-7434190D01*
X23778568Y-7434190D02*
X23835711Y-7386571D01*
X23835711Y-7386571D02*
X23949996Y-7338952D01*
X23949996Y-7338952D02*
X24178568Y-7338952D01*
X24178568Y-7338952D02*
X24292854Y-7386571D01*
X25264282Y-7958000D02*
X25149996Y-8005619D01*
X25149996Y-8005619D02*
X24921425Y-8005619D01*
X24921425Y-8005619D02*
X24807139Y-7958000D01*
X24807139Y-7958000D02*
X24749996Y-7862761D01*
X24749996Y-7862761D02*
X24749996Y-7481809D01*
X24749996Y-7481809D02*
X24807139Y-7386571D01*
X24807139Y-7386571D02*
X24921425Y-7338952D01*
X24921425Y-7338952D02*
X25149996Y-7338952D01*
X25149996Y-7338952D02*
X25264282Y-7386571D01*
X25264282Y-7386571D02*
X25321425Y-7481809D01*
X25321425Y-7481809D02*
X25321425Y-7577047D01*
X25321425Y-7577047D02*
X24749996Y-7672285D01*
X26578567Y-7338952D02*
X27035710Y-7338952D01*
X26749996Y-8005619D02*
X26749996Y-7148476D01*
X26749996Y-7148476D02*
X26807139Y-7053238D01*
X26807139Y-7053238D02*
X26921424Y-7005619D01*
X26921424Y-7005619D02*
X27035710Y-7005619D01*
X27607138Y-8005619D02*
X27492853Y-7958000D01*
X27492853Y-7958000D02*
X27435710Y-7910380D01*
X27435710Y-7910380D02*
X27378567Y-7815142D01*
X27378567Y-7815142D02*
X27378567Y-7529428D01*
X27378567Y-7529428D02*
X27435710Y-7434190D01*
X27435710Y-7434190D02*
X27492853Y-7386571D01*
X27492853Y-7386571D02*
X27607138Y-7338952D01*
X27607138Y-7338952D02*
X27778567Y-7338952D01*
X27778567Y-7338952D02*
X27892853Y-7386571D01*
X27892853Y-7386571D02*
X27949996Y-7434190D01*
X27949996Y-7434190D02*
X28007138Y-7529428D01*
X28007138Y-7529428D02*
X28007138Y-7815142D01*
X28007138Y-7815142D02*
X27949996Y-7910380D01*
X27949996Y-7910380D02*
X27892853Y-7958000D01*
X27892853Y-7958000D02*
X27778567Y-8005619D01*
X27778567Y-8005619D02*
X27607138Y-8005619D01*
X28521424Y-8005619D02*
X28521424Y-7338952D01*
X28521424Y-7529428D02*
X28578567Y-7434190D01*
X28578567Y-7434190D02*
X28635710Y-7386571D01*
X28635710Y-7386571D02*
X28749995Y-7338952D01*
X28749995Y-7338952D02*
X28864281Y-7338952D01*
X30007138Y-7005619D02*
X30692853Y-7005619D01*
X30349995Y-8005619D02*
X30349995Y-7005619D01*
X31607139Y-8005619D02*
X31607139Y-7481809D01*
X31607139Y-7481809D02*
X31549996Y-7386571D01*
X31549996Y-7386571D02*
X31435710Y-7338952D01*
X31435710Y-7338952D02*
X31207139Y-7338952D01*
X31207139Y-7338952D02*
X31092853Y-7386571D01*
X31607139Y-7958000D02*
X31492853Y-8005619D01*
X31492853Y-8005619D02*
X31207139Y-8005619D01*
X31207139Y-8005619D02*
X31092853Y-7958000D01*
X31092853Y-7958000D02*
X31035710Y-7862761D01*
X31035710Y-7862761D02*
X31035710Y-7767523D01*
X31035710Y-7767523D02*
X31092853Y-7672285D01*
X31092853Y-7672285D02*
X31207139Y-7624666D01*
X31207139Y-7624666D02*
X31492853Y-7624666D01*
X31492853Y-7624666D02*
X31607139Y-7577047D01*
X32178567Y-7338952D02*
X32178567Y-8005619D01*
X32178567Y-7434190D02*
X32235710Y-7386571D01*
X32235710Y-7386571D02*
X32349995Y-7338952D01*
X32349995Y-7338952D02*
X32521424Y-7338952D01*
X32521424Y-7338952D02*
X32635710Y-7386571D01*
X32635710Y-7386571D02*
X32692853Y-7481809D01*
X32692853Y-7481809D02*
X32692853Y-8005619D01*
X33778567Y-7338952D02*
X33778567Y-8148476D01*
X33778567Y-8148476D02*
X33721424Y-8243714D01*
X33721424Y-8243714D02*
X33664281Y-8291333D01*
X33664281Y-8291333D02*
X33549995Y-8338952D01*
X33549995Y-8338952D02*
X33378567Y-8338952D01*
X33378567Y-8338952D02*
X33264281Y-8291333D01*
X33778567Y-7958000D02*
X33664281Y-8005619D01*
X33664281Y-8005619D02*
X33435709Y-8005619D01*
X33435709Y-8005619D02*
X33321424Y-7958000D01*
X33321424Y-7958000D02*
X33264281Y-7910380D01*
X33264281Y-7910380D02*
X33207138Y-7815142D01*
X33207138Y-7815142D02*
X33207138Y-7529428D01*
X33207138Y-7529428D02*
X33264281Y-7434190D01*
X33264281Y-7434190D02*
X33321424Y-7386571D01*
X33321424Y-7386571D02*
X33435709Y-7338952D01*
X33435709Y-7338952D02*
X33664281Y-7338952D01*
X33664281Y-7338952D02*
X33778567Y-7386571D01*
X35264281Y-8005619D02*
X35264281Y-7005619D01*
X35264281Y-7005619D02*
X35949995Y-8005619D01*
X35949995Y-8005619D02*
X35949995Y-7005619D01*
X37035710Y-8005619D02*
X37035710Y-7481809D01*
X37035710Y-7481809D02*
X36978567Y-7386571D01*
X36978567Y-7386571D02*
X36864281Y-7338952D01*
X36864281Y-7338952D02*
X36635710Y-7338952D01*
X36635710Y-7338952D02*
X36521424Y-7386571D01*
X37035710Y-7958000D02*
X36921424Y-8005619D01*
X36921424Y-8005619D02*
X36635710Y-8005619D01*
X36635710Y-8005619D02*
X36521424Y-7958000D01*
X36521424Y-7958000D02*
X36464281Y-7862761D01*
X36464281Y-7862761D02*
X36464281Y-7767523D01*
X36464281Y-7767523D02*
X36521424Y-7672285D01*
X36521424Y-7672285D02*
X36635710Y-7624666D01*
X36635710Y-7624666D02*
X36921424Y-7624666D01*
X36921424Y-7624666D02*
X37035710Y-7577047D01*
X37607138Y-7338952D02*
X37607138Y-8005619D01*
X37607138Y-7434190D02*
X37664281Y-7386571D01*
X37664281Y-7386571D02*
X37778566Y-7338952D01*
X37778566Y-7338952D02*
X37949995Y-7338952D01*
X37949995Y-7338952D02*
X38064281Y-7386571D01*
X38064281Y-7386571D02*
X38121424Y-7481809D01*
X38121424Y-7481809D02*
X38121424Y-8005619D01*
X38864280Y-8005619D02*
X38749995Y-7958000D01*
X38749995Y-7958000D02*
X38692852Y-7910380D01*
X38692852Y-7910380D02*
X38635709Y-7815142D01*
X38635709Y-7815142D02*
X38635709Y-7529428D01*
X38635709Y-7529428D02*
X38692852Y-7434190D01*
X38692852Y-7434190D02*
X38749995Y-7386571D01*
X38749995Y-7386571D02*
X38864280Y-7338952D01*
X38864280Y-7338952D02*
X39035709Y-7338952D01*
X39035709Y-7338952D02*
X39149995Y-7386571D01*
X39149995Y-7386571D02*
X39207138Y-7434190D01*
X39207138Y-7434190D02*
X39264280Y-7529428D01*
X39264280Y-7529428D02*
X39264280Y-7815142D01*
X39264280Y-7815142D02*
X39207138Y-7910380D01*
X39207138Y-7910380D02*
X39149995Y-7958000D01*
X39149995Y-7958000D02*
X39035709Y-8005619D01*
X39035709Y-8005619D02*
X38864280Y-8005619D01*
X40635709Y-7100857D02*
X40692852Y-7053238D01*
X40692852Y-7053238D02*
X40807138Y-7005619D01*
X40807138Y-7005619D02*
X41092852Y-7005619D01*
X41092852Y-7005619D02*
X41207138Y-7053238D01*
X41207138Y-7053238D02*
X41264280Y-7100857D01*
X41264280Y-7100857D02*
X41321423Y-7196095D01*
X41321423Y-7196095D02*
X41321423Y-7291333D01*
X41321423Y-7291333D02*
X41264280Y-7434190D01*
X41264280Y-7434190D02*
X40578566Y-8005619D01*
X40578566Y-8005619D02*
X41321423Y-8005619D01*
X42064280Y-7005619D02*
X42178566Y-7005619D01*
X42178566Y-7005619D02*
X42292852Y-7053238D01*
X42292852Y-7053238D02*
X42349995Y-7100857D01*
X42349995Y-7100857D02*
X42407137Y-7196095D01*
X42407137Y-7196095D02*
X42464280Y-7386571D01*
X42464280Y-7386571D02*
X42464280Y-7624666D01*
X42464280Y-7624666D02*
X42407137Y-7815142D01*
X42407137Y-7815142D02*
X42349995Y-7910380D01*
X42349995Y-7910380D02*
X42292852Y-7958000D01*
X42292852Y-7958000D02*
X42178566Y-8005619D01*
X42178566Y-8005619D02*
X42064280Y-8005619D01*
X42064280Y-8005619D02*
X41949995Y-7958000D01*
X41949995Y-7958000D02*
X41892852Y-7910380D01*
X41892852Y-7910380D02*
X41835709Y-7815142D01*
X41835709Y-7815142D02*
X41778566Y-7624666D01*
X41778566Y-7624666D02*
X41778566Y-7386571D01*
X41778566Y-7386571D02*
X41835709Y-7196095D01*
X41835709Y-7196095D02*
X41892852Y-7100857D01*
X41892852Y-7100857D02*
X41949995Y-7053238D01*
X41949995Y-7053238D02*
X42064280Y-7005619D01*
X42978566Y-8005619D02*
X42978566Y-7005619D01*
X43664280Y-8005619D02*
X43149994Y-7434190D01*
X43664280Y-7005619D02*
X42978566Y-7577047D01*
D11*
X11826857Y-24277619D02*
X12493523Y-24277619D01*
X12493523Y-24277619D02*
X12064952Y-25277619D01*
X12779238Y-24277619D02*
X13445904Y-24277619D01*
X13445904Y-24277619D02*
X13017333Y-25277619D01*
D10*
%TO.C,U1*%
X6066619Y-14071504D02*
X6876142Y-14071504D01*
X6876142Y-14071504D02*
X6971380Y-14023885D01*
X6971380Y-14023885D02*
X7019000Y-13976266D01*
X7019000Y-13976266D02*
X7066619Y-13881028D01*
X7066619Y-13881028D02*
X7066619Y-13690552D01*
X7066619Y-13690552D02*
X7019000Y-13595314D01*
X7019000Y-13595314D02*
X6971380Y-13547695D01*
X6971380Y-13547695D02*
X6876142Y-13500076D01*
X6876142Y-13500076D02*
X6066619Y-13500076D01*
X7066619Y-12500076D02*
X7066619Y-13071504D01*
X7066619Y-12785790D02*
X6066619Y-12785790D01*
X6066619Y-12785790D02*
X6209476Y-12881028D01*
X6209476Y-12881028D02*
X6304714Y-12976266D01*
X6304714Y-12976266D02*
X6352333Y-13071504D01*
D13*
X4750095Y-15508504D02*
X4711999Y-15546600D01*
X4711999Y-15546600D02*
X4597714Y-15584695D01*
X4597714Y-15584695D02*
X4521523Y-15584695D01*
X4521523Y-15584695D02*
X4407237Y-15546600D01*
X4407237Y-15546600D02*
X4331047Y-15470409D01*
X4331047Y-15470409D02*
X4292952Y-15394219D01*
X4292952Y-15394219D02*
X4254856Y-15241838D01*
X4254856Y-15241838D02*
X4254856Y-15127552D01*
X4254856Y-15127552D02*
X4292952Y-14975171D01*
X4292952Y-14975171D02*
X4331047Y-14898980D01*
X4331047Y-14898980D02*
X4407237Y-14822790D01*
X4407237Y-14822790D02*
X4521523Y-14784695D01*
X4521523Y-14784695D02*
X4597714Y-14784695D01*
X4597714Y-14784695D02*
X4711999Y-14822790D01*
X4711999Y-14822790D02*
X4750095Y-14860885D01*
X5359618Y-15165647D02*
X5473904Y-15203742D01*
X5473904Y-15203742D02*
X5511999Y-15241838D01*
X5511999Y-15241838D02*
X5550095Y-15318028D01*
X5550095Y-15318028D02*
X5550095Y-15432314D01*
X5550095Y-15432314D02*
X5511999Y-15508504D01*
X5511999Y-15508504D02*
X5473904Y-15546600D01*
X5473904Y-15546600D02*
X5397714Y-15584695D01*
X5397714Y-15584695D02*
X5092952Y-15584695D01*
X5092952Y-15584695D02*
X5092952Y-14784695D01*
X5092952Y-14784695D02*
X5359618Y-14784695D01*
X5359618Y-14784695D02*
X5435809Y-14822790D01*
X5435809Y-14822790D02*
X5473904Y-14860885D01*
X5473904Y-14860885D02*
X5511999Y-14937076D01*
X5511999Y-14937076D02*
X5511999Y-15013266D01*
X5511999Y-15013266D02*
X5473904Y-15089457D01*
X5473904Y-15089457D02*
X5435809Y-15127552D01*
X5435809Y-15127552D02*
X5359618Y-15165647D01*
X5359618Y-15165647D02*
X5092952Y-15165647D01*
X5816761Y-14784695D02*
X6311999Y-14784695D01*
X6311999Y-14784695D02*
X6045333Y-15089457D01*
X6045333Y-15089457D02*
X6159618Y-15089457D01*
X6159618Y-15089457D02*
X6235809Y-15127552D01*
X6235809Y-15127552D02*
X6273904Y-15165647D01*
X6273904Y-15165647D02*
X6311999Y-15241838D01*
X6311999Y-15241838D02*
X6311999Y-15432314D01*
X6311999Y-15432314D02*
X6273904Y-15508504D01*
X6273904Y-15508504D02*
X6235809Y-15546600D01*
X6235809Y-15546600D02*
X6159618Y-15584695D01*
X6159618Y-15584695D02*
X5931047Y-15584695D01*
X5931047Y-15584695D02*
X5854856Y-15546600D01*
X5854856Y-15546600D02*
X5816761Y-15508504D01*
X6540571Y-14784695D02*
X6997714Y-14784695D01*
X6769142Y-15584695D02*
X6769142Y-14784695D01*
X7188190Y-14784695D02*
X7683428Y-14784695D01*
X7683428Y-14784695D02*
X7416762Y-15089457D01*
X7416762Y-15089457D02*
X7531047Y-15089457D01*
X7531047Y-15089457D02*
X7607238Y-15127552D01*
X7607238Y-15127552D02*
X7645333Y-15165647D01*
X7645333Y-15165647D02*
X7683428Y-15241838D01*
X7683428Y-15241838D02*
X7683428Y-15432314D01*
X7683428Y-15432314D02*
X7645333Y-15508504D01*
X7645333Y-15508504D02*
X7607238Y-15546600D01*
X7607238Y-15546600D02*
X7531047Y-15584695D01*
X7531047Y-15584695D02*
X7302476Y-15584695D01*
X7302476Y-15584695D02*
X7226285Y-15546600D01*
X7226285Y-15546600D02*
X7188190Y-15508504D01*
X7988190Y-14860885D02*
X8026286Y-14822790D01*
X8026286Y-14822790D02*
X8102476Y-14784695D01*
X8102476Y-14784695D02*
X8292952Y-14784695D01*
X8292952Y-14784695D02*
X8369143Y-14822790D01*
X8369143Y-14822790D02*
X8407238Y-14860885D01*
X8407238Y-14860885D02*
X8445333Y-14937076D01*
X8445333Y-14937076D02*
X8445333Y-15013266D01*
X8445333Y-15013266D02*
X8407238Y-15127552D01*
X8407238Y-15127552D02*
X7950095Y-15584695D01*
X7950095Y-15584695D02*
X8445333Y-15584695D01*
X9131048Y-15051361D02*
X9131048Y-15584695D01*
X8940572Y-14746600D02*
X8750095Y-15318028D01*
X8750095Y-15318028D02*
X9245334Y-15318028D01*
X9931048Y-14784695D02*
X9550096Y-14784695D01*
X9550096Y-14784695D02*
X9512000Y-15165647D01*
X9512000Y-15165647D02*
X9550096Y-15127552D01*
X9550096Y-15127552D02*
X9626286Y-15089457D01*
X9626286Y-15089457D02*
X9816762Y-15089457D01*
X9816762Y-15089457D02*
X9892953Y-15127552D01*
X9892953Y-15127552D02*
X9931048Y-15165647D01*
X9931048Y-15165647D02*
X9969143Y-15241838D01*
X9969143Y-15241838D02*
X9969143Y-15432314D01*
X9969143Y-15432314D02*
X9931048Y-15508504D01*
X9931048Y-15508504D02*
X9892953Y-15546600D01*
X9892953Y-15546600D02*
X9816762Y-15584695D01*
X9816762Y-15584695D02*
X9626286Y-15584695D01*
X9626286Y-15584695D02*
X9550096Y-15546600D01*
X9550096Y-15546600D02*
X9512000Y-15508504D01*
D10*
X3149619Y-17119599D02*
X3387714Y-17119599D01*
X3292476Y-17357694D02*
X3387714Y-17119599D01*
X3387714Y-17119599D02*
X3292476Y-16881504D01*
X3578190Y-17262456D02*
X3387714Y-17119599D01*
X3387714Y-17119599D02*
X3578190Y-16976742D01*
%TO.C,U5*%
X46706619Y-14096904D02*
X47516142Y-14096904D01*
X47516142Y-14096904D02*
X47611380Y-14049285D01*
X47611380Y-14049285D02*
X47659000Y-14001666D01*
X47659000Y-14001666D02*
X47706619Y-13906428D01*
X47706619Y-13906428D02*
X47706619Y-13715952D01*
X47706619Y-13715952D02*
X47659000Y-13620714D01*
X47659000Y-13620714D02*
X47611380Y-13573095D01*
X47611380Y-13573095D02*
X47516142Y-13525476D01*
X47516142Y-13525476D02*
X46706619Y-13525476D01*
X46706619Y-12573095D02*
X46706619Y-13049285D01*
X46706619Y-13049285D02*
X47182809Y-13096904D01*
X47182809Y-13096904D02*
X47135190Y-13049285D01*
X47135190Y-13049285D02*
X47087571Y-12954047D01*
X47087571Y-12954047D02*
X47087571Y-12715952D01*
X47087571Y-12715952D02*
X47135190Y-12620714D01*
X47135190Y-12620714D02*
X47182809Y-12573095D01*
X47182809Y-12573095D02*
X47278047Y-12525476D01*
X47278047Y-12525476D02*
X47516142Y-12525476D01*
X47516142Y-12525476D02*
X47611380Y-12573095D01*
X47611380Y-12573095D02*
X47659000Y-12620714D01*
X47659000Y-12620714D02*
X47706619Y-12715952D01*
X47706619Y-12715952D02*
X47706619Y-12954047D01*
X47706619Y-12954047D02*
X47659000Y-13049285D01*
X47659000Y-13049285D02*
X47611380Y-13096904D01*
D13*
X45241695Y-15533904D02*
X45203599Y-15572000D01*
X45203599Y-15572000D02*
X45089314Y-15610095D01*
X45089314Y-15610095D02*
X45013123Y-15610095D01*
X45013123Y-15610095D02*
X44898837Y-15572000D01*
X44898837Y-15572000D02*
X44822647Y-15495809D01*
X44822647Y-15495809D02*
X44784552Y-15419619D01*
X44784552Y-15419619D02*
X44746456Y-15267238D01*
X44746456Y-15267238D02*
X44746456Y-15152952D01*
X44746456Y-15152952D02*
X44784552Y-15000571D01*
X44784552Y-15000571D02*
X44822647Y-14924380D01*
X44822647Y-14924380D02*
X44898837Y-14848190D01*
X44898837Y-14848190D02*
X45013123Y-14810095D01*
X45013123Y-14810095D02*
X45089314Y-14810095D01*
X45089314Y-14810095D02*
X45203599Y-14848190D01*
X45203599Y-14848190D02*
X45241695Y-14886285D01*
X45851218Y-15191047D02*
X45965504Y-15229142D01*
X45965504Y-15229142D02*
X46003599Y-15267238D01*
X46003599Y-15267238D02*
X46041695Y-15343428D01*
X46041695Y-15343428D02*
X46041695Y-15457714D01*
X46041695Y-15457714D02*
X46003599Y-15533904D01*
X46003599Y-15533904D02*
X45965504Y-15572000D01*
X45965504Y-15572000D02*
X45889314Y-15610095D01*
X45889314Y-15610095D02*
X45584552Y-15610095D01*
X45584552Y-15610095D02*
X45584552Y-14810095D01*
X45584552Y-14810095D02*
X45851218Y-14810095D01*
X45851218Y-14810095D02*
X45927409Y-14848190D01*
X45927409Y-14848190D02*
X45965504Y-14886285D01*
X45965504Y-14886285D02*
X46003599Y-14962476D01*
X46003599Y-14962476D02*
X46003599Y-15038666D01*
X46003599Y-15038666D02*
X45965504Y-15114857D01*
X45965504Y-15114857D02*
X45927409Y-15152952D01*
X45927409Y-15152952D02*
X45851218Y-15191047D01*
X45851218Y-15191047D02*
X45584552Y-15191047D01*
X46308361Y-14810095D02*
X46803599Y-14810095D01*
X46803599Y-14810095D02*
X46536933Y-15114857D01*
X46536933Y-15114857D02*
X46651218Y-15114857D01*
X46651218Y-15114857D02*
X46727409Y-15152952D01*
X46727409Y-15152952D02*
X46765504Y-15191047D01*
X46765504Y-15191047D02*
X46803599Y-15267238D01*
X46803599Y-15267238D02*
X46803599Y-15457714D01*
X46803599Y-15457714D02*
X46765504Y-15533904D01*
X46765504Y-15533904D02*
X46727409Y-15572000D01*
X46727409Y-15572000D02*
X46651218Y-15610095D01*
X46651218Y-15610095D02*
X46422647Y-15610095D01*
X46422647Y-15610095D02*
X46346456Y-15572000D01*
X46346456Y-15572000D02*
X46308361Y-15533904D01*
X47032171Y-14810095D02*
X47489314Y-14810095D01*
X47260742Y-15610095D02*
X47260742Y-14810095D01*
X47679790Y-14810095D02*
X48175028Y-14810095D01*
X48175028Y-14810095D02*
X47908362Y-15114857D01*
X47908362Y-15114857D02*
X48022647Y-15114857D01*
X48022647Y-15114857D02*
X48098838Y-15152952D01*
X48098838Y-15152952D02*
X48136933Y-15191047D01*
X48136933Y-15191047D02*
X48175028Y-15267238D01*
X48175028Y-15267238D02*
X48175028Y-15457714D01*
X48175028Y-15457714D02*
X48136933Y-15533904D01*
X48136933Y-15533904D02*
X48098838Y-15572000D01*
X48098838Y-15572000D02*
X48022647Y-15610095D01*
X48022647Y-15610095D02*
X47794076Y-15610095D01*
X47794076Y-15610095D02*
X47717885Y-15572000D01*
X47717885Y-15572000D02*
X47679790Y-15533904D01*
X48479790Y-14886285D02*
X48517886Y-14848190D01*
X48517886Y-14848190D02*
X48594076Y-14810095D01*
X48594076Y-14810095D02*
X48784552Y-14810095D01*
X48784552Y-14810095D02*
X48860743Y-14848190D01*
X48860743Y-14848190D02*
X48898838Y-14886285D01*
X48898838Y-14886285D02*
X48936933Y-14962476D01*
X48936933Y-14962476D02*
X48936933Y-15038666D01*
X48936933Y-15038666D02*
X48898838Y-15152952D01*
X48898838Y-15152952D02*
X48441695Y-15610095D01*
X48441695Y-15610095D02*
X48936933Y-15610095D01*
X49622648Y-15076761D02*
X49622648Y-15610095D01*
X49432172Y-14772000D02*
X49241695Y-15343428D01*
X49241695Y-15343428D02*
X49736934Y-15343428D01*
X50422648Y-14810095D02*
X50041696Y-14810095D01*
X50041696Y-14810095D02*
X50003600Y-15191047D01*
X50003600Y-15191047D02*
X50041696Y-15152952D01*
X50041696Y-15152952D02*
X50117886Y-15114857D01*
X50117886Y-15114857D02*
X50308362Y-15114857D01*
X50308362Y-15114857D02*
X50384553Y-15152952D01*
X50384553Y-15152952D02*
X50422648Y-15191047D01*
X50422648Y-15191047D02*
X50460743Y-15267238D01*
X50460743Y-15267238D02*
X50460743Y-15457714D01*
X50460743Y-15457714D02*
X50422648Y-15533904D01*
X50422648Y-15533904D02*
X50384553Y-15572000D01*
X50384553Y-15572000D02*
X50308362Y-15610095D01*
X50308362Y-15610095D02*
X50117886Y-15610095D01*
X50117886Y-15610095D02*
X50041696Y-15572000D01*
X50041696Y-15572000D02*
X50003600Y-15533904D01*
D10*
X43789619Y-17144999D02*
X44027714Y-17144999D01*
X43932476Y-17383094D02*
X44027714Y-17144999D01*
X44027714Y-17144999D02*
X43932476Y-16906904D01*
X44218190Y-17287856D02*
X44027714Y-17144999D01*
X44027714Y-17144999D02*
X44218190Y-17002142D01*
%TO.C,J2*%
X205095Y-2806666D02*
X776523Y-2806666D01*
X776523Y-2806666D02*
X890809Y-2844761D01*
X890809Y-2844761D02*
X967000Y-2920952D01*
X967000Y-2920952D02*
X1005095Y-3035237D01*
X1005095Y-3035237D02*
X1005095Y-3111428D01*
X281285Y-2463809D02*
X243190Y-2425713D01*
X243190Y-2425713D02*
X205095Y-2349523D01*
X205095Y-2349523D02*
X205095Y-2159047D01*
X205095Y-2159047D02*
X243190Y-2082856D01*
X243190Y-2082856D02*
X281285Y-2044761D01*
X281285Y-2044761D02*
X357476Y-2006666D01*
X357476Y-2006666D02*
X433666Y-2006666D01*
X433666Y-2006666D02*
X547952Y-2044761D01*
X547952Y-2044761D02*
X1005095Y-2501904D01*
X1005095Y-2501904D02*
X1005095Y-2006666D01*
%TO.C,U2*%
X16226619Y-14071504D02*
X17036142Y-14071504D01*
X17036142Y-14071504D02*
X17131380Y-14023885D01*
X17131380Y-14023885D02*
X17179000Y-13976266D01*
X17179000Y-13976266D02*
X17226619Y-13881028D01*
X17226619Y-13881028D02*
X17226619Y-13690552D01*
X17226619Y-13690552D02*
X17179000Y-13595314D01*
X17179000Y-13595314D02*
X17131380Y-13547695D01*
X17131380Y-13547695D02*
X17036142Y-13500076D01*
X17036142Y-13500076D02*
X16226619Y-13500076D01*
X16321857Y-13071504D02*
X16274238Y-13023885D01*
X16274238Y-13023885D02*
X16226619Y-12928647D01*
X16226619Y-12928647D02*
X16226619Y-12690552D01*
X16226619Y-12690552D02*
X16274238Y-12595314D01*
X16274238Y-12595314D02*
X16321857Y-12547695D01*
X16321857Y-12547695D02*
X16417095Y-12500076D01*
X16417095Y-12500076D02*
X16512333Y-12500076D01*
X16512333Y-12500076D02*
X16655190Y-12547695D01*
X16655190Y-12547695D02*
X17226619Y-13119123D01*
X17226619Y-13119123D02*
X17226619Y-12500076D01*
D13*
X14761695Y-15508504D02*
X14723599Y-15546600D01*
X14723599Y-15546600D02*
X14609314Y-15584695D01*
X14609314Y-15584695D02*
X14533123Y-15584695D01*
X14533123Y-15584695D02*
X14418837Y-15546600D01*
X14418837Y-15546600D02*
X14342647Y-15470409D01*
X14342647Y-15470409D02*
X14304552Y-15394219D01*
X14304552Y-15394219D02*
X14266456Y-15241838D01*
X14266456Y-15241838D02*
X14266456Y-15127552D01*
X14266456Y-15127552D02*
X14304552Y-14975171D01*
X14304552Y-14975171D02*
X14342647Y-14898980D01*
X14342647Y-14898980D02*
X14418837Y-14822790D01*
X14418837Y-14822790D02*
X14533123Y-14784695D01*
X14533123Y-14784695D02*
X14609314Y-14784695D01*
X14609314Y-14784695D02*
X14723599Y-14822790D01*
X14723599Y-14822790D02*
X14761695Y-14860885D01*
X15371218Y-15165647D02*
X15485504Y-15203742D01*
X15485504Y-15203742D02*
X15523599Y-15241838D01*
X15523599Y-15241838D02*
X15561695Y-15318028D01*
X15561695Y-15318028D02*
X15561695Y-15432314D01*
X15561695Y-15432314D02*
X15523599Y-15508504D01*
X15523599Y-15508504D02*
X15485504Y-15546600D01*
X15485504Y-15546600D02*
X15409314Y-15584695D01*
X15409314Y-15584695D02*
X15104552Y-15584695D01*
X15104552Y-15584695D02*
X15104552Y-14784695D01*
X15104552Y-14784695D02*
X15371218Y-14784695D01*
X15371218Y-14784695D02*
X15447409Y-14822790D01*
X15447409Y-14822790D02*
X15485504Y-14860885D01*
X15485504Y-14860885D02*
X15523599Y-14937076D01*
X15523599Y-14937076D02*
X15523599Y-15013266D01*
X15523599Y-15013266D02*
X15485504Y-15089457D01*
X15485504Y-15089457D02*
X15447409Y-15127552D01*
X15447409Y-15127552D02*
X15371218Y-15165647D01*
X15371218Y-15165647D02*
X15104552Y-15165647D01*
X15828361Y-14784695D02*
X16323599Y-14784695D01*
X16323599Y-14784695D02*
X16056933Y-15089457D01*
X16056933Y-15089457D02*
X16171218Y-15089457D01*
X16171218Y-15089457D02*
X16247409Y-15127552D01*
X16247409Y-15127552D02*
X16285504Y-15165647D01*
X16285504Y-15165647D02*
X16323599Y-15241838D01*
X16323599Y-15241838D02*
X16323599Y-15432314D01*
X16323599Y-15432314D02*
X16285504Y-15508504D01*
X16285504Y-15508504D02*
X16247409Y-15546600D01*
X16247409Y-15546600D02*
X16171218Y-15584695D01*
X16171218Y-15584695D02*
X15942647Y-15584695D01*
X15942647Y-15584695D02*
X15866456Y-15546600D01*
X15866456Y-15546600D02*
X15828361Y-15508504D01*
X16552171Y-14784695D02*
X17009314Y-14784695D01*
X16780742Y-15584695D02*
X16780742Y-14784695D01*
X17199790Y-14784695D02*
X17695028Y-14784695D01*
X17695028Y-14784695D02*
X17428362Y-15089457D01*
X17428362Y-15089457D02*
X17542647Y-15089457D01*
X17542647Y-15089457D02*
X17618838Y-15127552D01*
X17618838Y-15127552D02*
X17656933Y-15165647D01*
X17656933Y-15165647D02*
X17695028Y-15241838D01*
X17695028Y-15241838D02*
X17695028Y-15432314D01*
X17695028Y-15432314D02*
X17656933Y-15508504D01*
X17656933Y-15508504D02*
X17618838Y-15546600D01*
X17618838Y-15546600D02*
X17542647Y-15584695D01*
X17542647Y-15584695D02*
X17314076Y-15584695D01*
X17314076Y-15584695D02*
X17237885Y-15546600D01*
X17237885Y-15546600D02*
X17199790Y-15508504D01*
X17999790Y-14860885D02*
X18037886Y-14822790D01*
X18037886Y-14822790D02*
X18114076Y-14784695D01*
X18114076Y-14784695D02*
X18304552Y-14784695D01*
X18304552Y-14784695D02*
X18380743Y-14822790D01*
X18380743Y-14822790D02*
X18418838Y-14860885D01*
X18418838Y-14860885D02*
X18456933Y-14937076D01*
X18456933Y-14937076D02*
X18456933Y-15013266D01*
X18456933Y-15013266D02*
X18418838Y-15127552D01*
X18418838Y-15127552D02*
X17961695Y-15584695D01*
X17961695Y-15584695D02*
X18456933Y-15584695D01*
X19142648Y-15051361D02*
X19142648Y-15584695D01*
X18952172Y-14746600D02*
X18761695Y-15318028D01*
X18761695Y-15318028D02*
X19256934Y-15318028D01*
X19942648Y-14784695D02*
X19561696Y-14784695D01*
X19561696Y-14784695D02*
X19523600Y-15165647D01*
X19523600Y-15165647D02*
X19561696Y-15127552D01*
X19561696Y-15127552D02*
X19637886Y-15089457D01*
X19637886Y-15089457D02*
X19828362Y-15089457D01*
X19828362Y-15089457D02*
X19904553Y-15127552D01*
X19904553Y-15127552D02*
X19942648Y-15165647D01*
X19942648Y-15165647D02*
X19980743Y-15241838D01*
X19980743Y-15241838D02*
X19980743Y-15432314D01*
X19980743Y-15432314D02*
X19942648Y-15508504D01*
X19942648Y-15508504D02*
X19904553Y-15546600D01*
X19904553Y-15546600D02*
X19828362Y-15584695D01*
X19828362Y-15584695D02*
X19637886Y-15584695D01*
X19637886Y-15584695D02*
X19561696Y-15546600D01*
X19561696Y-15546600D02*
X19523600Y-15508504D01*
D10*
X13309619Y-17119599D02*
X13547714Y-17119599D01*
X13452476Y-17357694D02*
X13547714Y-17119599D01*
X13547714Y-17119599D02*
X13452476Y-16881504D01*
X13738190Y-17262456D02*
X13547714Y-17119599D01*
X13547714Y-17119599D02*
X13738190Y-16976742D01*
D13*
%TO.C,C5*%
X42330904Y-10039332D02*
X42369000Y-10077428D01*
X42369000Y-10077428D02*
X42407095Y-10191713D01*
X42407095Y-10191713D02*
X42407095Y-10267904D01*
X42407095Y-10267904D02*
X42369000Y-10382190D01*
X42369000Y-10382190D02*
X42292809Y-10458380D01*
X42292809Y-10458380D02*
X42216619Y-10496475D01*
X42216619Y-10496475D02*
X42064238Y-10534571D01*
X42064238Y-10534571D02*
X41949952Y-10534571D01*
X41949952Y-10534571D02*
X41797571Y-10496475D01*
X41797571Y-10496475D02*
X41721380Y-10458380D01*
X41721380Y-10458380D02*
X41645190Y-10382190D01*
X41645190Y-10382190D02*
X41607095Y-10267904D01*
X41607095Y-10267904D02*
X41607095Y-10191713D01*
X41607095Y-10191713D02*
X41645190Y-10077428D01*
X41645190Y-10077428D02*
X41683285Y-10039332D01*
X41607095Y-9315523D02*
X41607095Y-9696475D01*
X41607095Y-9696475D02*
X41988047Y-9734571D01*
X41988047Y-9734571D02*
X41949952Y-9696475D01*
X41949952Y-9696475D02*
X41911857Y-9620285D01*
X41911857Y-9620285D02*
X41911857Y-9429809D01*
X41911857Y-9429809D02*
X41949952Y-9353618D01*
X41949952Y-9353618D02*
X41988047Y-9315523D01*
X41988047Y-9315523D02*
X42064238Y-9277428D01*
X42064238Y-9277428D02*
X42254714Y-9277428D01*
X42254714Y-9277428D02*
X42330904Y-9315523D01*
X42330904Y-9315523D02*
X42369000Y-9353618D01*
X42369000Y-9353618D02*
X42407095Y-9429809D01*
X42407095Y-9429809D02*
X42407095Y-9620285D01*
X42407095Y-9620285D02*
X42369000Y-9696475D01*
X42369000Y-9696475D02*
X42330904Y-9734571D01*
%TO.C,C2*%
X11850904Y-10039332D02*
X11889000Y-10077428D01*
X11889000Y-10077428D02*
X11927095Y-10191713D01*
X11927095Y-10191713D02*
X11927095Y-10267904D01*
X11927095Y-10267904D02*
X11889000Y-10382190D01*
X11889000Y-10382190D02*
X11812809Y-10458380D01*
X11812809Y-10458380D02*
X11736619Y-10496475D01*
X11736619Y-10496475D02*
X11584238Y-10534571D01*
X11584238Y-10534571D02*
X11469952Y-10534571D01*
X11469952Y-10534571D02*
X11317571Y-10496475D01*
X11317571Y-10496475D02*
X11241380Y-10458380D01*
X11241380Y-10458380D02*
X11165190Y-10382190D01*
X11165190Y-10382190D02*
X11127095Y-10267904D01*
X11127095Y-10267904D02*
X11127095Y-10191713D01*
X11127095Y-10191713D02*
X11165190Y-10077428D01*
X11165190Y-10077428D02*
X11203285Y-10039332D01*
X11203285Y-9734571D02*
X11165190Y-9696475D01*
X11165190Y-9696475D02*
X11127095Y-9620285D01*
X11127095Y-9620285D02*
X11127095Y-9429809D01*
X11127095Y-9429809D02*
X11165190Y-9353618D01*
X11165190Y-9353618D02*
X11203285Y-9315523D01*
X11203285Y-9315523D02*
X11279476Y-9277428D01*
X11279476Y-9277428D02*
X11355666Y-9277428D01*
X11355666Y-9277428D02*
X11469952Y-9315523D01*
X11469952Y-9315523D02*
X11927095Y-9772666D01*
X11927095Y-9772666D02*
X11927095Y-9277428D01*
D10*
%TO.C,J1*%
X205095Y-23126666D02*
X776523Y-23126666D01*
X776523Y-23126666D02*
X890809Y-23164761D01*
X890809Y-23164761D02*
X967000Y-23240952D01*
X967000Y-23240952D02*
X1005095Y-23355237D01*
X1005095Y-23355237D02*
X1005095Y-23431428D01*
X1005095Y-22326666D02*
X1005095Y-22783809D01*
X1005095Y-22555237D02*
X205095Y-22555237D01*
X205095Y-22555237D02*
X319380Y-22631428D01*
X319380Y-22631428D02*
X395571Y-22707618D01*
X395571Y-22707618D02*
X433666Y-22783809D01*
D13*
%TO.C,C4*%
X32170904Y-10039332D02*
X32209000Y-10077428D01*
X32209000Y-10077428D02*
X32247095Y-10191713D01*
X32247095Y-10191713D02*
X32247095Y-10267904D01*
X32247095Y-10267904D02*
X32209000Y-10382190D01*
X32209000Y-10382190D02*
X32132809Y-10458380D01*
X32132809Y-10458380D02*
X32056619Y-10496475D01*
X32056619Y-10496475D02*
X31904238Y-10534571D01*
X31904238Y-10534571D02*
X31789952Y-10534571D01*
X31789952Y-10534571D02*
X31637571Y-10496475D01*
X31637571Y-10496475D02*
X31561380Y-10458380D01*
X31561380Y-10458380D02*
X31485190Y-10382190D01*
X31485190Y-10382190D02*
X31447095Y-10267904D01*
X31447095Y-10267904D02*
X31447095Y-10191713D01*
X31447095Y-10191713D02*
X31485190Y-10077428D01*
X31485190Y-10077428D02*
X31523285Y-10039332D01*
X31713761Y-9353618D02*
X32247095Y-9353618D01*
X31409000Y-9544094D02*
X31980428Y-9734571D01*
X31980428Y-9734571D02*
X31980428Y-9239332D01*
%TO.C,C1*%
X1817904Y-9912332D02*
X1856000Y-9950428D01*
X1856000Y-9950428D02*
X1894095Y-10064713D01*
X1894095Y-10064713D02*
X1894095Y-10140904D01*
X1894095Y-10140904D02*
X1856000Y-10255190D01*
X1856000Y-10255190D02*
X1779809Y-10331380D01*
X1779809Y-10331380D02*
X1703619Y-10369475D01*
X1703619Y-10369475D02*
X1551238Y-10407571D01*
X1551238Y-10407571D02*
X1436952Y-10407571D01*
X1436952Y-10407571D02*
X1284571Y-10369475D01*
X1284571Y-10369475D02*
X1208380Y-10331380D01*
X1208380Y-10331380D02*
X1132190Y-10255190D01*
X1132190Y-10255190D02*
X1094095Y-10140904D01*
X1094095Y-10140904D02*
X1094095Y-10064713D01*
X1094095Y-10064713D02*
X1132190Y-9950428D01*
X1132190Y-9950428D02*
X1170285Y-9912332D01*
X1894095Y-9150428D02*
X1894095Y-9607571D01*
X1894095Y-9378999D02*
X1094095Y-9378999D01*
X1094095Y-9378999D02*
X1208380Y-9455190D01*
X1208380Y-9455190D02*
X1284571Y-9531380D01*
X1284571Y-9531380D02*
X1322666Y-9607571D01*
D10*
%TO.C,U4*%
X36546619Y-14096904D02*
X37356142Y-14096904D01*
X37356142Y-14096904D02*
X37451380Y-14049285D01*
X37451380Y-14049285D02*
X37499000Y-14001666D01*
X37499000Y-14001666D02*
X37546619Y-13906428D01*
X37546619Y-13906428D02*
X37546619Y-13715952D01*
X37546619Y-13715952D02*
X37499000Y-13620714D01*
X37499000Y-13620714D02*
X37451380Y-13573095D01*
X37451380Y-13573095D02*
X37356142Y-13525476D01*
X37356142Y-13525476D02*
X36546619Y-13525476D01*
X36879952Y-12620714D02*
X37546619Y-12620714D01*
X36499000Y-12858809D02*
X37213285Y-13096904D01*
X37213285Y-13096904D02*
X37213285Y-12477857D01*
D13*
X35081695Y-15533904D02*
X35043599Y-15572000D01*
X35043599Y-15572000D02*
X34929314Y-15610095D01*
X34929314Y-15610095D02*
X34853123Y-15610095D01*
X34853123Y-15610095D02*
X34738837Y-15572000D01*
X34738837Y-15572000D02*
X34662647Y-15495809D01*
X34662647Y-15495809D02*
X34624552Y-15419619D01*
X34624552Y-15419619D02*
X34586456Y-15267238D01*
X34586456Y-15267238D02*
X34586456Y-15152952D01*
X34586456Y-15152952D02*
X34624552Y-15000571D01*
X34624552Y-15000571D02*
X34662647Y-14924380D01*
X34662647Y-14924380D02*
X34738837Y-14848190D01*
X34738837Y-14848190D02*
X34853123Y-14810095D01*
X34853123Y-14810095D02*
X34929314Y-14810095D01*
X34929314Y-14810095D02*
X35043599Y-14848190D01*
X35043599Y-14848190D02*
X35081695Y-14886285D01*
X35691218Y-15191047D02*
X35805504Y-15229142D01*
X35805504Y-15229142D02*
X35843599Y-15267238D01*
X35843599Y-15267238D02*
X35881695Y-15343428D01*
X35881695Y-15343428D02*
X35881695Y-15457714D01*
X35881695Y-15457714D02*
X35843599Y-15533904D01*
X35843599Y-15533904D02*
X35805504Y-15572000D01*
X35805504Y-15572000D02*
X35729314Y-15610095D01*
X35729314Y-15610095D02*
X35424552Y-15610095D01*
X35424552Y-15610095D02*
X35424552Y-14810095D01*
X35424552Y-14810095D02*
X35691218Y-14810095D01*
X35691218Y-14810095D02*
X35767409Y-14848190D01*
X35767409Y-14848190D02*
X35805504Y-14886285D01*
X35805504Y-14886285D02*
X35843599Y-14962476D01*
X35843599Y-14962476D02*
X35843599Y-15038666D01*
X35843599Y-15038666D02*
X35805504Y-15114857D01*
X35805504Y-15114857D02*
X35767409Y-15152952D01*
X35767409Y-15152952D02*
X35691218Y-15191047D01*
X35691218Y-15191047D02*
X35424552Y-15191047D01*
X36148361Y-14810095D02*
X36643599Y-14810095D01*
X36643599Y-14810095D02*
X36376933Y-15114857D01*
X36376933Y-15114857D02*
X36491218Y-15114857D01*
X36491218Y-15114857D02*
X36567409Y-15152952D01*
X36567409Y-15152952D02*
X36605504Y-15191047D01*
X36605504Y-15191047D02*
X36643599Y-15267238D01*
X36643599Y-15267238D02*
X36643599Y-15457714D01*
X36643599Y-15457714D02*
X36605504Y-15533904D01*
X36605504Y-15533904D02*
X36567409Y-15572000D01*
X36567409Y-15572000D02*
X36491218Y-15610095D01*
X36491218Y-15610095D02*
X36262647Y-15610095D01*
X36262647Y-15610095D02*
X36186456Y-15572000D01*
X36186456Y-15572000D02*
X36148361Y-15533904D01*
X36872171Y-14810095D02*
X37329314Y-14810095D01*
X37100742Y-15610095D02*
X37100742Y-14810095D01*
X37519790Y-14810095D02*
X38015028Y-14810095D01*
X38015028Y-14810095D02*
X37748362Y-15114857D01*
X37748362Y-15114857D02*
X37862647Y-15114857D01*
X37862647Y-15114857D02*
X37938838Y-15152952D01*
X37938838Y-15152952D02*
X37976933Y-15191047D01*
X37976933Y-15191047D02*
X38015028Y-15267238D01*
X38015028Y-15267238D02*
X38015028Y-15457714D01*
X38015028Y-15457714D02*
X37976933Y-15533904D01*
X37976933Y-15533904D02*
X37938838Y-15572000D01*
X37938838Y-15572000D02*
X37862647Y-15610095D01*
X37862647Y-15610095D02*
X37634076Y-15610095D01*
X37634076Y-15610095D02*
X37557885Y-15572000D01*
X37557885Y-15572000D02*
X37519790Y-15533904D01*
X38319790Y-14886285D02*
X38357886Y-14848190D01*
X38357886Y-14848190D02*
X38434076Y-14810095D01*
X38434076Y-14810095D02*
X38624552Y-14810095D01*
X38624552Y-14810095D02*
X38700743Y-14848190D01*
X38700743Y-14848190D02*
X38738838Y-14886285D01*
X38738838Y-14886285D02*
X38776933Y-14962476D01*
X38776933Y-14962476D02*
X38776933Y-15038666D01*
X38776933Y-15038666D02*
X38738838Y-15152952D01*
X38738838Y-15152952D02*
X38281695Y-15610095D01*
X38281695Y-15610095D02*
X38776933Y-15610095D01*
X39462648Y-15076761D02*
X39462648Y-15610095D01*
X39272172Y-14772000D02*
X39081695Y-15343428D01*
X39081695Y-15343428D02*
X39576934Y-15343428D01*
X40262648Y-14810095D02*
X39881696Y-14810095D01*
X39881696Y-14810095D02*
X39843600Y-15191047D01*
X39843600Y-15191047D02*
X39881696Y-15152952D01*
X39881696Y-15152952D02*
X39957886Y-15114857D01*
X39957886Y-15114857D02*
X40148362Y-15114857D01*
X40148362Y-15114857D02*
X40224553Y-15152952D01*
X40224553Y-15152952D02*
X40262648Y-15191047D01*
X40262648Y-15191047D02*
X40300743Y-15267238D01*
X40300743Y-15267238D02*
X40300743Y-15457714D01*
X40300743Y-15457714D02*
X40262648Y-15533904D01*
X40262648Y-15533904D02*
X40224553Y-15572000D01*
X40224553Y-15572000D02*
X40148362Y-15610095D01*
X40148362Y-15610095D02*
X39957886Y-15610095D01*
X39957886Y-15610095D02*
X39881696Y-15572000D01*
X39881696Y-15572000D02*
X39843600Y-15533904D01*
D10*
X33629619Y-17144999D02*
X33867714Y-17144999D01*
X33772476Y-17383094D02*
X33867714Y-17144999D01*
X33867714Y-17144999D02*
X33772476Y-16906904D01*
X34058190Y-17287856D02*
X33867714Y-17144999D01*
X33867714Y-17144999D02*
X34058190Y-17002142D01*
%TO.C,U3*%
X26386619Y-14071504D02*
X27196142Y-14071504D01*
X27196142Y-14071504D02*
X27291380Y-14023885D01*
X27291380Y-14023885D02*
X27339000Y-13976266D01*
X27339000Y-13976266D02*
X27386619Y-13881028D01*
X27386619Y-13881028D02*
X27386619Y-13690552D01*
X27386619Y-13690552D02*
X27339000Y-13595314D01*
X27339000Y-13595314D02*
X27291380Y-13547695D01*
X27291380Y-13547695D02*
X27196142Y-13500076D01*
X27196142Y-13500076D02*
X26386619Y-13500076D01*
X26386619Y-13119123D02*
X26386619Y-12500076D01*
X26386619Y-12500076D02*
X26767571Y-12833409D01*
X26767571Y-12833409D02*
X26767571Y-12690552D01*
X26767571Y-12690552D02*
X26815190Y-12595314D01*
X26815190Y-12595314D02*
X26862809Y-12547695D01*
X26862809Y-12547695D02*
X26958047Y-12500076D01*
X26958047Y-12500076D02*
X27196142Y-12500076D01*
X27196142Y-12500076D02*
X27291380Y-12547695D01*
X27291380Y-12547695D02*
X27339000Y-12595314D01*
X27339000Y-12595314D02*
X27386619Y-12690552D01*
X27386619Y-12690552D02*
X27386619Y-12976266D01*
X27386619Y-12976266D02*
X27339000Y-13071504D01*
X27339000Y-13071504D02*
X27291380Y-13119123D01*
D13*
X24921695Y-15508504D02*
X24883599Y-15546600D01*
X24883599Y-15546600D02*
X24769314Y-15584695D01*
X24769314Y-15584695D02*
X24693123Y-15584695D01*
X24693123Y-15584695D02*
X24578837Y-15546600D01*
X24578837Y-15546600D02*
X24502647Y-15470409D01*
X24502647Y-15470409D02*
X24464552Y-15394219D01*
X24464552Y-15394219D02*
X24426456Y-15241838D01*
X24426456Y-15241838D02*
X24426456Y-15127552D01*
X24426456Y-15127552D02*
X24464552Y-14975171D01*
X24464552Y-14975171D02*
X24502647Y-14898980D01*
X24502647Y-14898980D02*
X24578837Y-14822790D01*
X24578837Y-14822790D02*
X24693123Y-14784695D01*
X24693123Y-14784695D02*
X24769314Y-14784695D01*
X24769314Y-14784695D02*
X24883599Y-14822790D01*
X24883599Y-14822790D02*
X24921695Y-14860885D01*
X25531218Y-15165647D02*
X25645504Y-15203742D01*
X25645504Y-15203742D02*
X25683599Y-15241838D01*
X25683599Y-15241838D02*
X25721695Y-15318028D01*
X25721695Y-15318028D02*
X25721695Y-15432314D01*
X25721695Y-15432314D02*
X25683599Y-15508504D01*
X25683599Y-15508504D02*
X25645504Y-15546600D01*
X25645504Y-15546600D02*
X25569314Y-15584695D01*
X25569314Y-15584695D02*
X25264552Y-15584695D01*
X25264552Y-15584695D02*
X25264552Y-14784695D01*
X25264552Y-14784695D02*
X25531218Y-14784695D01*
X25531218Y-14784695D02*
X25607409Y-14822790D01*
X25607409Y-14822790D02*
X25645504Y-14860885D01*
X25645504Y-14860885D02*
X25683599Y-14937076D01*
X25683599Y-14937076D02*
X25683599Y-15013266D01*
X25683599Y-15013266D02*
X25645504Y-15089457D01*
X25645504Y-15089457D02*
X25607409Y-15127552D01*
X25607409Y-15127552D02*
X25531218Y-15165647D01*
X25531218Y-15165647D02*
X25264552Y-15165647D01*
X25988361Y-14784695D02*
X26483599Y-14784695D01*
X26483599Y-14784695D02*
X26216933Y-15089457D01*
X26216933Y-15089457D02*
X26331218Y-15089457D01*
X26331218Y-15089457D02*
X26407409Y-15127552D01*
X26407409Y-15127552D02*
X26445504Y-15165647D01*
X26445504Y-15165647D02*
X26483599Y-15241838D01*
X26483599Y-15241838D02*
X26483599Y-15432314D01*
X26483599Y-15432314D02*
X26445504Y-15508504D01*
X26445504Y-15508504D02*
X26407409Y-15546600D01*
X26407409Y-15546600D02*
X26331218Y-15584695D01*
X26331218Y-15584695D02*
X26102647Y-15584695D01*
X26102647Y-15584695D02*
X26026456Y-15546600D01*
X26026456Y-15546600D02*
X25988361Y-15508504D01*
X26712171Y-14784695D02*
X27169314Y-14784695D01*
X26940742Y-15584695D02*
X26940742Y-14784695D01*
X27359790Y-14784695D02*
X27855028Y-14784695D01*
X27855028Y-14784695D02*
X27588362Y-15089457D01*
X27588362Y-15089457D02*
X27702647Y-15089457D01*
X27702647Y-15089457D02*
X27778838Y-15127552D01*
X27778838Y-15127552D02*
X27816933Y-15165647D01*
X27816933Y-15165647D02*
X27855028Y-15241838D01*
X27855028Y-15241838D02*
X27855028Y-15432314D01*
X27855028Y-15432314D02*
X27816933Y-15508504D01*
X27816933Y-15508504D02*
X27778838Y-15546600D01*
X27778838Y-15546600D02*
X27702647Y-15584695D01*
X27702647Y-15584695D02*
X27474076Y-15584695D01*
X27474076Y-15584695D02*
X27397885Y-15546600D01*
X27397885Y-15546600D02*
X27359790Y-15508504D01*
X28159790Y-14860885D02*
X28197886Y-14822790D01*
X28197886Y-14822790D02*
X28274076Y-14784695D01*
X28274076Y-14784695D02*
X28464552Y-14784695D01*
X28464552Y-14784695D02*
X28540743Y-14822790D01*
X28540743Y-14822790D02*
X28578838Y-14860885D01*
X28578838Y-14860885D02*
X28616933Y-14937076D01*
X28616933Y-14937076D02*
X28616933Y-15013266D01*
X28616933Y-15013266D02*
X28578838Y-15127552D01*
X28578838Y-15127552D02*
X28121695Y-15584695D01*
X28121695Y-15584695D02*
X28616933Y-15584695D01*
X29302648Y-15051361D02*
X29302648Y-15584695D01*
X29112172Y-14746600D02*
X28921695Y-15318028D01*
X28921695Y-15318028D02*
X29416934Y-15318028D01*
X30102648Y-14784695D02*
X29721696Y-14784695D01*
X29721696Y-14784695D02*
X29683600Y-15165647D01*
X29683600Y-15165647D02*
X29721696Y-15127552D01*
X29721696Y-15127552D02*
X29797886Y-15089457D01*
X29797886Y-15089457D02*
X29988362Y-15089457D01*
X29988362Y-15089457D02*
X30064553Y-15127552D01*
X30064553Y-15127552D02*
X30102648Y-15165647D01*
X30102648Y-15165647D02*
X30140743Y-15241838D01*
X30140743Y-15241838D02*
X30140743Y-15432314D01*
X30140743Y-15432314D02*
X30102648Y-15508504D01*
X30102648Y-15508504D02*
X30064553Y-15546600D01*
X30064553Y-15546600D02*
X29988362Y-15584695D01*
X29988362Y-15584695D02*
X29797886Y-15584695D01*
X29797886Y-15584695D02*
X29721696Y-15546600D01*
X29721696Y-15546600D02*
X29683600Y-15508504D01*
D10*
X23469619Y-17119599D02*
X23707714Y-17119599D01*
X23612476Y-17357694D02*
X23707714Y-17119599D01*
X23707714Y-17119599D02*
X23612476Y-16881504D01*
X23898190Y-17262456D02*
X23707714Y-17119599D01*
X23707714Y-17119599D02*
X23898190Y-16976742D01*
D13*
%TO.C,C3*%
X22010904Y-10039332D02*
X22049000Y-10077428D01*
X22049000Y-10077428D02*
X22087095Y-10191713D01*
X22087095Y-10191713D02*
X22087095Y-10267904D01*
X22087095Y-10267904D02*
X22049000Y-10382190D01*
X22049000Y-10382190D02*
X21972809Y-10458380D01*
X21972809Y-10458380D02*
X21896619Y-10496475D01*
X21896619Y-10496475D02*
X21744238Y-10534571D01*
X21744238Y-10534571D02*
X21629952Y-10534571D01*
X21629952Y-10534571D02*
X21477571Y-10496475D01*
X21477571Y-10496475D02*
X21401380Y-10458380D01*
X21401380Y-10458380D02*
X21325190Y-10382190D01*
X21325190Y-10382190D02*
X21287095Y-10267904D01*
X21287095Y-10267904D02*
X21287095Y-10191713D01*
X21287095Y-10191713D02*
X21325190Y-10077428D01*
X21325190Y-10077428D02*
X21363285Y-10039332D01*
X21287095Y-9772666D02*
X21287095Y-9277428D01*
X21287095Y-9277428D02*
X21591857Y-9544094D01*
X21591857Y-9544094D02*
X21591857Y-9429809D01*
X21591857Y-9429809D02*
X21629952Y-9353618D01*
X21629952Y-9353618D02*
X21668047Y-9315523D01*
X21668047Y-9315523D02*
X21744238Y-9277428D01*
X21744238Y-9277428D02*
X21934714Y-9277428D01*
X21934714Y-9277428D02*
X22010904Y-9315523D01*
X22010904Y-9315523D02*
X22049000Y-9353618D01*
X22049000Y-9353618D02*
X22087095Y-9429809D01*
X22087095Y-9429809D02*
X22087095Y-9658380D01*
X22087095Y-9658380D02*
X22049000Y-9734571D01*
X22049000Y-9734571D02*
X22010904Y-9772666D01*
D14*
%TO.C,U1*%
X3687000Y-14249400D02*
G75*
G03*
X3687000Y-13639800I0J304800D01*
G01*
X3687000Y-12229923D02*
X3687000Y-15659275D01*
X10291000Y-15659277D02*
X10291000Y-12229925D01*
%TO.C,U5*%
X50931000Y-15684677D02*
X50931000Y-12255325D01*
X44327000Y-12255323D02*
X44327000Y-15684675D01*
X44327000Y-14274800D02*
G75*
G03*
X44327000Y-13665200I0J304800D01*
G01*
D11*
%TO.C,J2*%
X3810000Y-3556000D02*
X52130000Y-3556000D01*
X3810000Y-3556000D02*
X3810000Y-1524000D01*
X52130000Y-3556000D02*
X52130000Y-1524000D01*
X1210000Y-2854000D02*
X1210000Y-1524000D01*
X1210000Y-1524000D02*
X2540000Y-1524000D01*
X3810000Y-1524000D02*
X52130000Y-1524000D01*
D14*
%TO.C,U2*%
X20451000Y-15659277D02*
X20451000Y-12229925D01*
X13847000Y-12229923D02*
X13847000Y-15659275D01*
X13847000Y-14249400D02*
G75*
G03*
X13847000Y-13639800I0J304800D01*
G01*
D11*
%TO.C,C5*%
X42543000Y-10078767D02*
X42543000Y-9786233D01*
X43563000Y-10078767D02*
X43563000Y-9786233D01*
%TO.C,C2*%
X12063000Y-10078767D02*
X12063000Y-9786233D01*
X13083000Y-10078767D02*
X13083000Y-9786233D01*
%TO.C,J1*%
X3810000Y-23876000D02*
X52130000Y-23876000D01*
X3810000Y-23876000D02*
X3810000Y-21844000D01*
X52130000Y-23876000D02*
X52130000Y-21844000D01*
X1210000Y-23174000D02*
X1210000Y-21844000D01*
X1210000Y-21844000D02*
X2540000Y-21844000D01*
X3810000Y-21844000D02*
X52130000Y-21844000D01*
%TO.C,C4*%
X32383000Y-10078767D02*
X32383000Y-9786233D01*
X33403000Y-10078767D02*
X33403000Y-9786233D01*
%TO.C,C1*%
X2030000Y-10078767D02*
X2030000Y-9786233D01*
X3050000Y-10078767D02*
X3050000Y-9786233D01*
D14*
%TO.C,U4*%
X40771000Y-15684677D02*
X40771000Y-12255325D01*
X34167000Y-12255323D02*
X34167000Y-15684675D01*
X34167000Y-14274800D02*
G75*
G03*
X34167000Y-13665200I0J304800D01*
G01*
%TO.C,U3*%
X30611000Y-15659277D02*
X30611000Y-12229925D01*
X24007000Y-12229923D02*
X24007000Y-15659275D01*
X24007000Y-14249400D02*
G75*
G03*
X24007000Y-13639800I0J304800D01*
G01*
D11*
%TO.C,C3*%
X22223000Y-10078767D02*
X22223000Y-9786233D01*
X23243000Y-10078767D02*
X23243000Y-9786233D01*
%TD*%
M02*
