%TF.GenerationSoftware,KiCad,Pcbnew,7.0.2*%
%TF.CreationDate,2023-06-24T18:04:26+09:00*%
%TF.ProjectId,TangNanoZ80MEM,54616e67-4e61-46e6-9f5a-38304d454d2e,rev?*%
%TF.SameCoordinates,Original*%
%TF.FileFunction,Copper,L2,Bot*%
%TF.FilePolarity,Positive*%
%FSLAX46Y46*%
G04 Gerber Fmt 4.6, Leading zero omitted, Abs format (unit mm)*
G04 Created by KiCad (PCBNEW 7.0.2) date 2023-06-24 18:04:26*
%MOMM*%
%LPD*%
G01*
G04 APERTURE LIST*
%ADD10C,0.300000*%
%TA.AperFunction,NonConductor*%
%ADD11C,0.300000*%
%TD*%
%TA.AperFunction,ComponentPad*%
%ADD12R,1.700000X1.700000*%
%TD*%
%TA.AperFunction,ComponentPad*%
%ADD13O,1.700000X1.700000*%
%TD*%
%TA.AperFunction,ComponentPad*%
%ADD14R,1.600000X1.600000*%
%TD*%
%TA.AperFunction,ComponentPad*%
%ADD15O,1.600000X1.600000*%
%TD*%
%TA.AperFunction,ComponentPad*%
%ADD16R,1.200000X1.200000*%
%TD*%
%TA.AperFunction,ComponentPad*%
%ADD17C,1.200000*%
%TD*%
%TA.AperFunction,ComponentPad*%
%ADD18C,1.600000*%
%TD*%
%TA.AperFunction,ViaPad*%
%ADD19C,0.800000*%
%TD*%
%TA.AperFunction,Conductor*%
%ADD20C,0.250000*%
%TD*%
%TA.AperFunction,Conductor*%
%ADD21C,0.500000*%
%TD*%
%TA.AperFunction,Conductor*%
%ADD22C,1.000000*%
%TD*%
%TA.AperFunction,Conductor*%
%ADD23C,2.000000*%
%TD*%
G04 APERTURE END LIST*
D10*
D11*
X41298857Y-69522428D02*
X41298857Y-68022428D01*
X41298857Y-68022428D02*
X40941714Y-68022428D01*
X40941714Y-68022428D02*
X40727428Y-68093857D01*
X40727428Y-68093857D02*
X40584571Y-68236714D01*
X40584571Y-68236714D02*
X40513142Y-68379571D01*
X40513142Y-68379571D02*
X40441714Y-68665285D01*
X40441714Y-68665285D02*
X40441714Y-68879571D01*
X40441714Y-68879571D02*
X40513142Y-69165285D01*
X40513142Y-69165285D02*
X40584571Y-69308142D01*
X40584571Y-69308142D02*
X40727428Y-69451000D01*
X40727428Y-69451000D02*
X40941714Y-69522428D01*
X40941714Y-69522428D02*
X41298857Y-69522428D01*
X39227428Y-69451000D02*
X39370285Y-69522428D01*
X39370285Y-69522428D02*
X39656000Y-69522428D01*
X39656000Y-69522428D02*
X39798857Y-69451000D01*
X39798857Y-69451000D02*
X39870285Y-69308142D01*
X39870285Y-69308142D02*
X39870285Y-68736714D01*
X39870285Y-68736714D02*
X39798857Y-68593857D01*
X39798857Y-68593857D02*
X39656000Y-68522428D01*
X39656000Y-68522428D02*
X39370285Y-68522428D01*
X39370285Y-68522428D02*
X39227428Y-68593857D01*
X39227428Y-68593857D02*
X39156000Y-68736714D01*
X39156000Y-68736714D02*
X39156000Y-68879571D01*
X39156000Y-68879571D02*
X39870285Y-69022428D01*
X38584571Y-69451000D02*
X38441714Y-69522428D01*
X38441714Y-69522428D02*
X38156000Y-69522428D01*
X38156000Y-69522428D02*
X38013143Y-69451000D01*
X38013143Y-69451000D02*
X37941714Y-69308142D01*
X37941714Y-69308142D02*
X37941714Y-69236714D01*
X37941714Y-69236714D02*
X38013143Y-69093857D01*
X38013143Y-69093857D02*
X38156000Y-69022428D01*
X38156000Y-69022428D02*
X38370286Y-69022428D01*
X38370286Y-69022428D02*
X38513143Y-68951000D01*
X38513143Y-68951000D02*
X38584571Y-68808142D01*
X38584571Y-68808142D02*
X38584571Y-68736714D01*
X38584571Y-68736714D02*
X38513143Y-68593857D01*
X38513143Y-68593857D02*
X38370286Y-68522428D01*
X38370286Y-68522428D02*
X38156000Y-68522428D01*
X38156000Y-68522428D02*
X38013143Y-68593857D01*
X37298857Y-69522428D02*
X37298857Y-68522428D01*
X37298857Y-68022428D02*
X37370285Y-68093857D01*
X37370285Y-68093857D02*
X37298857Y-68165285D01*
X37298857Y-68165285D02*
X37227428Y-68093857D01*
X37227428Y-68093857D02*
X37298857Y-68022428D01*
X37298857Y-68022428D02*
X37298857Y-68165285D01*
X35941714Y-68522428D02*
X35941714Y-69736714D01*
X35941714Y-69736714D02*
X36013142Y-69879571D01*
X36013142Y-69879571D02*
X36084571Y-69951000D01*
X36084571Y-69951000D02*
X36227428Y-70022428D01*
X36227428Y-70022428D02*
X36441714Y-70022428D01*
X36441714Y-70022428D02*
X36584571Y-69951000D01*
X35941714Y-69451000D02*
X36084571Y-69522428D01*
X36084571Y-69522428D02*
X36370285Y-69522428D01*
X36370285Y-69522428D02*
X36513142Y-69451000D01*
X36513142Y-69451000D02*
X36584571Y-69379571D01*
X36584571Y-69379571D02*
X36655999Y-69236714D01*
X36655999Y-69236714D02*
X36655999Y-68808142D01*
X36655999Y-68808142D02*
X36584571Y-68665285D01*
X36584571Y-68665285D02*
X36513142Y-68593857D01*
X36513142Y-68593857D02*
X36370285Y-68522428D01*
X36370285Y-68522428D02*
X36084571Y-68522428D01*
X36084571Y-68522428D02*
X35941714Y-68593857D01*
X35227428Y-68522428D02*
X35227428Y-69522428D01*
X35227428Y-68665285D02*
X35155999Y-68593857D01*
X35155999Y-68593857D02*
X35013142Y-68522428D01*
X35013142Y-68522428D02*
X34798856Y-68522428D01*
X34798856Y-68522428D02*
X34655999Y-68593857D01*
X34655999Y-68593857D02*
X34584571Y-68736714D01*
X34584571Y-68736714D02*
X34584571Y-69522428D01*
X33298856Y-69451000D02*
X33441713Y-69522428D01*
X33441713Y-69522428D02*
X33727428Y-69522428D01*
X33727428Y-69522428D02*
X33870285Y-69451000D01*
X33870285Y-69451000D02*
X33941713Y-69308142D01*
X33941713Y-69308142D02*
X33941713Y-68736714D01*
X33941713Y-68736714D02*
X33870285Y-68593857D01*
X33870285Y-68593857D02*
X33727428Y-68522428D01*
X33727428Y-68522428D02*
X33441713Y-68522428D01*
X33441713Y-68522428D02*
X33298856Y-68593857D01*
X33298856Y-68593857D02*
X33227428Y-68736714D01*
X33227428Y-68736714D02*
X33227428Y-68879571D01*
X33227428Y-68879571D02*
X33941713Y-69022428D01*
X31941714Y-69522428D02*
X31941714Y-68022428D01*
X31941714Y-69451000D02*
X32084571Y-69522428D01*
X32084571Y-69522428D02*
X32370285Y-69522428D01*
X32370285Y-69522428D02*
X32513142Y-69451000D01*
X32513142Y-69451000D02*
X32584571Y-69379571D01*
X32584571Y-69379571D02*
X32655999Y-69236714D01*
X32655999Y-69236714D02*
X32655999Y-68808142D01*
X32655999Y-68808142D02*
X32584571Y-68665285D01*
X32584571Y-68665285D02*
X32513142Y-68593857D01*
X32513142Y-68593857D02*
X32370285Y-68522428D01*
X32370285Y-68522428D02*
X32084571Y-68522428D01*
X32084571Y-68522428D02*
X31941714Y-68593857D01*
X30084571Y-69522428D02*
X30084571Y-68022428D01*
X30084571Y-68593857D02*
X29941714Y-68522428D01*
X29941714Y-68522428D02*
X29655999Y-68522428D01*
X29655999Y-68522428D02*
X29513142Y-68593857D01*
X29513142Y-68593857D02*
X29441714Y-68665285D01*
X29441714Y-68665285D02*
X29370285Y-68808142D01*
X29370285Y-68808142D02*
X29370285Y-69236714D01*
X29370285Y-69236714D02*
X29441714Y-69379571D01*
X29441714Y-69379571D02*
X29513142Y-69451000D01*
X29513142Y-69451000D02*
X29655999Y-69522428D01*
X29655999Y-69522428D02*
X29941714Y-69522428D01*
X29941714Y-69522428D02*
X30084571Y-69451000D01*
X28870285Y-68522428D02*
X28513142Y-69522428D01*
X28155999Y-68522428D02*
X28513142Y-69522428D01*
X28513142Y-69522428D02*
X28655999Y-69879571D01*
X28655999Y-69879571D02*
X28727428Y-69951000D01*
X28727428Y-69951000D02*
X28870285Y-70022428D01*
X25584571Y-69522428D02*
X26084571Y-68808142D01*
X26441714Y-69522428D02*
X26441714Y-68022428D01*
X26441714Y-68022428D02*
X25870285Y-68022428D01*
X25870285Y-68022428D02*
X25727428Y-68093857D01*
X25727428Y-68093857D02*
X25655999Y-68165285D01*
X25655999Y-68165285D02*
X25584571Y-68308142D01*
X25584571Y-68308142D02*
X25584571Y-68522428D01*
X25584571Y-68522428D02*
X25655999Y-68665285D01*
X25655999Y-68665285D02*
X25727428Y-68736714D01*
X25727428Y-68736714D02*
X25870285Y-68808142D01*
X25870285Y-68808142D02*
X26441714Y-68808142D01*
X25084571Y-68522428D02*
X24727428Y-69522428D01*
X24370285Y-68522428D02*
X24727428Y-69522428D01*
X24727428Y-69522428D02*
X24870285Y-69879571D01*
X24870285Y-69879571D02*
X24941714Y-69951000D01*
X24941714Y-69951000D02*
X25084571Y-70022428D01*
X23584571Y-69522428D02*
X23727428Y-69451000D01*
X23727428Y-69451000D02*
X23798857Y-69379571D01*
X23798857Y-69379571D02*
X23870285Y-69236714D01*
X23870285Y-69236714D02*
X23870285Y-68808142D01*
X23870285Y-68808142D02*
X23798857Y-68665285D01*
X23798857Y-68665285D02*
X23727428Y-68593857D01*
X23727428Y-68593857D02*
X23584571Y-68522428D01*
X23584571Y-68522428D02*
X23370285Y-68522428D01*
X23370285Y-68522428D02*
X23227428Y-68593857D01*
X23227428Y-68593857D02*
X23156000Y-68665285D01*
X23156000Y-68665285D02*
X23084571Y-68808142D01*
X23084571Y-68808142D02*
X23084571Y-69236714D01*
X23084571Y-69236714D02*
X23156000Y-69379571D01*
X23156000Y-69379571D02*
X23227428Y-69451000D01*
X23227428Y-69451000D02*
X23370285Y-69522428D01*
X23370285Y-69522428D02*
X23584571Y-69522428D01*
X21298857Y-69522428D02*
X21298857Y-68022428D01*
X21298857Y-68022428D02*
X20798857Y-69093857D01*
X20798857Y-69093857D02*
X20298857Y-68022428D01*
X20298857Y-68022428D02*
X20298857Y-69522428D01*
X18941714Y-68522428D02*
X18941714Y-69522428D01*
X19584571Y-68522428D02*
X19584571Y-69308142D01*
X19584571Y-69308142D02*
X19513142Y-69451000D01*
X19513142Y-69451000D02*
X19370285Y-69522428D01*
X19370285Y-69522428D02*
X19155999Y-69522428D01*
X19155999Y-69522428D02*
X19013142Y-69451000D01*
X19013142Y-69451000D02*
X18941714Y-69379571D01*
X18227428Y-69522428D02*
X18227428Y-68022428D01*
X18084571Y-68951000D02*
X17655999Y-69522428D01*
X17655999Y-68522428D02*
X18227428Y-69093857D01*
X16370285Y-69522428D02*
X16370285Y-68736714D01*
X16370285Y-68736714D02*
X16441713Y-68593857D01*
X16441713Y-68593857D02*
X16584570Y-68522428D01*
X16584570Y-68522428D02*
X16870285Y-68522428D01*
X16870285Y-68522428D02*
X17013142Y-68593857D01*
X16370285Y-69451000D02*
X16513142Y-69522428D01*
X16513142Y-69522428D02*
X16870285Y-69522428D01*
X16870285Y-69522428D02*
X17013142Y-69451000D01*
X17013142Y-69451000D02*
X17084570Y-69308142D01*
X17084570Y-69308142D02*
X17084570Y-69165285D01*
X17084570Y-69165285D02*
X17013142Y-69022428D01*
X17013142Y-69022428D02*
X16870285Y-68951000D01*
X16870285Y-68951000D02*
X16513142Y-68951000D01*
X16513142Y-68951000D02*
X16370285Y-68879571D01*
X15655999Y-69522428D02*
X15655999Y-68522428D01*
X15655999Y-68022428D02*
X15727427Y-68093857D01*
X15727427Y-68093857D02*
X15655999Y-68165285D01*
X15655999Y-68165285D02*
X15584570Y-68093857D01*
X15584570Y-68093857D02*
X15655999Y-68022428D01*
X15655999Y-68022428D02*
X15655999Y-68165285D01*
X41298857Y-71952428D02*
X41298857Y-70452428D01*
X40656000Y-71952428D02*
X40656000Y-71166714D01*
X40656000Y-71166714D02*
X40727428Y-71023857D01*
X40727428Y-71023857D02*
X40870285Y-70952428D01*
X40870285Y-70952428D02*
X41084571Y-70952428D01*
X41084571Y-70952428D02*
X41227428Y-71023857D01*
X41227428Y-71023857D02*
X41298857Y-71095285D01*
X40155999Y-70952428D02*
X39584571Y-70952428D01*
X39941714Y-70452428D02*
X39941714Y-71738142D01*
X39941714Y-71738142D02*
X39870285Y-71881000D01*
X39870285Y-71881000D02*
X39727428Y-71952428D01*
X39727428Y-71952428D02*
X39584571Y-71952428D01*
X39298856Y-70952428D02*
X38727428Y-70952428D01*
X39084571Y-70452428D02*
X39084571Y-71738142D01*
X39084571Y-71738142D02*
X39013142Y-71881000D01*
X39013142Y-71881000D02*
X38870285Y-71952428D01*
X38870285Y-71952428D02*
X38727428Y-71952428D01*
X38227428Y-70952428D02*
X38227428Y-72452428D01*
X38227428Y-71023857D02*
X38084571Y-70952428D01*
X38084571Y-70952428D02*
X37798856Y-70952428D01*
X37798856Y-70952428D02*
X37655999Y-71023857D01*
X37655999Y-71023857D02*
X37584571Y-71095285D01*
X37584571Y-71095285D02*
X37513142Y-71238142D01*
X37513142Y-71238142D02*
X37513142Y-71666714D01*
X37513142Y-71666714D02*
X37584571Y-71809571D01*
X37584571Y-71809571D02*
X37655999Y-71881000D01*
X37655999Y-71881000D02*
X37798856Y-71952428D01*
X37798856Y-71952428D02*
X38084571Y-71952428D01*
X38084571Y-71952428D02*
X38227428Y-71881000D01*
X36941713Y-71881000D02*
X36798856Y-71952428D01*
X36798856Y-71952428D02*
X36513142Y-71952428D01*
X36513142Y-71952428D02*
X36370285Y-71881000D01*
X36370285Y-71881000D02*
X36298856Y-71738142D01*
X36298856Y-71738142D02*
X36298856Y-71666714D01*
X36298856Y-71666714D02*
X36370285Y-71523857D01*
X36370285Y-71523857D02*
X36513142Y-71452428D01*
X36513142Y-71452428D02*
X36727428Y-71452428D01*
X36727428Y-71452428D02*
X36870285Y-71381000D01*
X36870285Y-71381000D02*
X36941713Y-71238142D01*
X36941713Y-71238142D02*
X36941713Y-71166714D01*
X36941713Y-71166714D02*
X36870285Y-71023857D01*
X36870285Y-71023857D02*
X36727428Y-70952428D01*
X36727428Y-70952428D02*
X36513142Y-70952428D01*
X36513142Y-70952428D02*
X36370285Y-71023857D01*
X35655999Y-71809571D02*
X35584570Y-71881000D01*
X35584570Y-71881000D02*
X35655999Y-71952428D01*
X35655999Y-71952428D02*
X35727427Y-71881000D01*
X35727427Y-71881000D02*
X35655999Y-71809571D01*
X35655999Y-71809571D02*
X35655999Y-71952428D01*
X35655999Y-71023857D02*
X35584570Y-71095285D01*
X35584570Y-71095285D02*
X35655999Y-71166714D01*
X35655999Y-71166714D02*
X35727427Y-71095285D01*
X35727427Y-71095285D02*
X35655999Y-71023857D01*
X35655999Y-71023857D02*
X35655999Y-71166714D01*
X33870284Y-70381000D02*
X35155998Y-72309571D01*
X32298855Y-70381000D02*
X33584569Y-72309571D01*
X31155998Y-70952428D02*
X31155998Y-72166714D01*
X31155998Y-72166714D02*
X31227426Y-72309571D01*
X31227426Y-72309571D02*
X31298855Y-72381000D01*
X31298855Y-72381000D02*
X31441712Y-72452428D01*
X31441712Y-72452428D02*
X31655998Y-72452428D01*
X31655998Y-72452428D02*
X31798855Y-72381000D01*
X31155998Y-71881000D02*
X31298855Y-71952428D01*
X31298855Y-71952428D02*
X31584569Y-71952428D01*
X31584569Y-71952428D02*
X31727426Y-71881000D01*
X31727426Y-71881000D02*
X31798855Y-71809571D01*
X31798855Y-71809571D02*
X31870283Y-71666714D01*
X31870283Y-71666714D02*
X31870283Y-71238142D01*
X31870283Y-71238142D02*
X31798855Y-71095285D01*
X31798855Y-71095285D02*
X31727426Y-71023857D01*
X31727426Y-71023857D02*
X31584569Y-70952428D01*
X31584569Y-70952428D02*
X31298855Y-70952428D01*
X31298855Y-70952428D02*
X31155998Y-71023857D01*
X30441712Y-71952428D02*
X30441712Y-70952428D01*
X30441712Y-70452428D02*
X30513140Y-70523857D01*
X30513140Y-70523857D02*
X30441712Y-70595285D01*
X30441712Y-70595285D02*
X30370283Y-70523857D01*
X30370283Y-70523857D02*
X30441712Y-70452428D01*
X30441712Y-70452428D02*
X30441712Y-70595285D01*
X29941711Y-70952428D02*
X29370283Y-70952428D01*
X29727426Y-70452428D02*
X29727426Y-71738142D01*
X29727426Y-71738142D02*
X29655997Y-71881000D01*
X29655997Y-71881000D02*
X29513140Y-71952428D01*
X29513140Y-71952428D02*
X29370283Y-71952428D01*
X28870283Y-71952428D02*
X28870283Y-70452428D01*
X28227426Y-71952428D02*
X28227426Y-71166714D01*
X28227426Y-71166714D02*
X28298854Y-71023857D01*
X28298854Y-71023857D02*
X28441711Y-70952428D01*
X28441711Y-70952428D02*
X28655997Y-70952428D01*
X28655997Y-70952428D02*
X28798854Y-71023857D01*
X28798854Y-71023857D02*
X28870283Y-71095285D01*
X26870283Y-70952428D02*
X26870283Y-71952428D01*
X27513140Y-70952428D02*
X27513140Y-71738142D01*
X27513140Y-71738142D02*
X27441711Y-71881000D01*
X27441711Y-71881000D02*
X27298854Y-71952428D01*
X27298854Y-71952428D02*
X27084568Y-71952428D01*
X27084568Y-71952428D02*
X26941711Y-71881000D01*
X26941711Y-71881000D02*
X26870283Y-71809571D01*
X26155997Y-71952428D02*
X26155997Y-70452428D01*
X26155997Y-71023857D02*
X26013140Y-70952428D01*
X26013140Y-70952428D02*
X25727425Y-70952428D01*
X25727425Y-70952428D02*
X25584568Y-71023857D01*
X25584568Y-71023857D02*
X25513140Y-71095285D01*
X25513140Y-71095285D02*
X25441711Y-71238142D01*
X25441711Y-71238142D02*
X25441711Y-71666714D01*
X25441711Y-71666714D02*
X25513140Y-71809571D01*
X25513140Y-71809571D02*
X25584568Y-71881000D01*
X25584568Y-71881000D02*
X25727425Y-71952428D01*
X25727425Y-71952428D02*
X26013140Y-71952428D01*
X26013140Y-71952428D02*
X26155997Y-71881000D01*
X24798854Y-71809571D02*
X24727425Y-71881000D01*
X24727425Y-71881000D02*
X24798854Y-71952428D01*
X24798854Y-71952428D02*
X24870282Y-71881000D01*
X24870282Y-71881000D02*
X24798854Y-71809571D01*
X24798854Y-71809571D02*
X24798854Y-71952428D01*
X23441711Y-71881000D02*
X23584568Y-71952428D01*
X23584568Y-71952428D02*
X23870282Y-71952428D01*
X23870282Y-71952428D02*
X24013139Y-71881000D01*
X24013139Y-71881000D02*
X24084568Y-71809571D01*
X24084568Y-71809571D02*
X24155996Y-71666714D01*
X24155996Y-71666714D02*
X24155996Y-71238142D01*
X24155996Y-71238142D02*
X24084568Y-71095285D01*
X24084568Y-71095285D02*
X24013139Y-71023857D01*
X24013139Y-71023857D02*
X23870282Y-70952428D01*
X23870282Y-70952428D02*
X23584568Y-70952428D01*
X23584568Y-70952428D02*
X23441711Y-71023857D01*
X22584568Y-71952428D02*
X22727425Y-71881000D01*
X22727425Y-71881000D02*
X22798854Y-71809571D01*
X22798854Y-71809571D02*
X22870282Y-71666714D01*
X22870282Y-71666714D02*
X22870282Y-71238142D01*
X22870282Y-71238142D02*
X22798854Y-71095285D01*
X22798854Y-71095285D02*
X22727425Y-71023857D01*
X22727425Y-71023857D02*
X22584568Y-70952428D01*
X22584568Y-70952428D02*
X22370282Y-70952428D01*
X22370282Y-70952428D02*
X22227425Y-71023857D01*
X22227425Y-71023857D02*
X22155997Y-71095285D01*
X22155997Y-71095285D02*
X22084568Y-71238142D01*
X22084568Y-71238142D02*
X22084568Y-71666714D01*
X22084568Y-71666714D02*
X22155997Y-71809571D01*
X22155997Y-71809571D02*
X22227425Y-71881000D01*
X22227425Y-71881000D02*
X22370282Y-71952428D01*
X22370282Y-71952428D02*
X22584568Y-71952428D01*
X21441711Y-71952428D02*
X21441711Y-70952428D01*
X21441711Y-71095285D02*
X21370282Y-71023857D01*
X21370282Y-71023857D02*
X21227425Y-70952428D01*
X21227425Y-70952428D02*
X21013139Y-70952428D01*
X21013139Y-70952428D02*
X20870282Y-71023857D01*
X20870282Y-71023857D02*
X20798854Y-71166714D01*
X20798854Y-71166714D02*
X20798854Y-71952428D01*
X20798854Y-71166714D02*
X20727425Y-71023857D01*
X20727425Y-71023857D02*
X20584568Y-70952428D01*
X20584568Y-70952428D02*
X20370282Y-70952428D01*
X20370282Y-70952428D02*
X20227425Y-71023857D01*
X20227425Y-71023857D02*
X20155996Y-71166714D01*
X20155996Y-71166714D02*
X20155996Y-71952428D01*
X18370282Y-70381000D02*
X19655996Y-72309571D01*
X17870282Y-71952428D02*
X17870282Y-70952428D01*
X17870282Y-71238142D02*
X17798853Y-71095285D01*
X17798853Y-71095285D02*
X17727425Y-71023857D01*
X17727425Y-71023857D02*
X17584567Y-70952428D01*
X17584567Y-70952428D02*
X17441710Y-70952428D01*
X17084568Y-70952428D02*
X16727425Y-71952428D01*
X16370282Y-70952428D02*
X16727425Y-71952428D01*
X16727425Y-71952428D02*
X16870282Y-72309571D01*
X16870282Y-72309571D02*
X16941711Y-72381000D01*
X16941711Y-72381000D02*
X17084568Y-72452428D01*
X15584568Y-71952428D02*
X15727425Y-71881000D01*
X15727425Y-71881000D02*
X15798854Y-71809571D01*
X15798854Y-71809571D02*
X15870282Y-71666714D01*
X15870282Y-71666714D02*
X15870282Y-71238142D01*
X15870282Y-71238142D02*
X15798854Y-71095285D01*
X15798854Y-71095285D02*
X15727425Y-71023857D01*
X15727425Y-71023857D02*
X15584568Y-70952428D01*
X15584568Y-70952428D02*
X15370282Y-70952428D01*
X15370282Y-70952428D02*
X15227425Y-71023857D01*
X15227425Y-71023857D02*
X15155997Y-71095285D01*
X15155997Y-71095285D02*
X15084568Y-71238142D01*
X15084568Y-71238142D02*
X15084568Y-71666714D01*
X15084568Y-71666714D02*
X15155997Y-71809571D01*
X15155997Y-71809571D02*
X15227425Y-71881000D01*
X15227425Y-71881000D02*
X15370282Y-71952428D01*
X15370282Y-71952428D02*
X15584568Y-71952428D01*
X14441711Y-71952428D02*
X14441711Y-70952428D01*
X14441711Y-71095285D02*
X14370282Y-71023857D01*
X14370282Y-71023857D02*
X14227425Y-70952428D01*
X14227425Y-70952428D02*
X14013139Y-70952428D01*
X14013139Y-70952428D02*
X13870282Y-71023857D01*
X13870282Y-71023857D02*
X13798854Y-71166714D01*
X13798854Y-71166714D02*
X13798854Y-71952428D01*
X13798854Y-71166714D02*
X13727425Y-71023857D01*
X13727425Y-71023857D02*
X13584568Y-70952428D01*
X13584568Y-70952428D02*
X13370282Y-70952428D01*
X13370282Y-70952428D02*
X13227425Y-71023857D01*
X13227425Y-71023857D02*
X13155996Y-71166714D01*
X13155996Y-71166714D02*
X13155996Y-71952428D01*
X11798854Y-70952428D02*
X11798854Y-71952428D01*
X12441711Y-70952428D02*
X12441711Y-71738142D01*
X12441711Y-71738142D02*
X12370282Y-71881000D01*
X12370282Y-71881000D02*
X12227425Y-71952428D01*
X12227425Y-71952428D02*
X12013139Y-71952428D01*
X12013139Y-71952428D02*
X11870282Y-71881000D01*
X11870282Y-71881000D02*
X11798854Y-71809571D01*
X11084568Y-71952428D02*
X11084568Y-70452428D01*
X10941711Y-71381000D02*
X10513139Y-71952428D01*
X10513139Y-70952428D02*
X11084568Y-71523857D01*
D12*
%TO.P,DBG_TRG,1,Pin_1*%
%TO.N,DBG_TRG*%
X43180000Y-43180000D03*
D13*
%TO.P,DBG_TRG,2,Pin_2*%
%TO.N,GND*%
X43180000Y-45720000D03*
%TD*%
D12*
%TO.P,LED_RGB,1,Pin_1*%
%TO.N,LED_RGB*%
X45720000Y-43180000D03*
D13*
%TO.P,LED_RGB,2,Pin_2*%
%TO.N,GND*%
X45720000Y-45720000D03*
%TD*%
D12*
%TO.P,VCC,1,Pin_1*%
%TO.N,VCC*%
X7620000Y-38100000D03*
D13*
%TO.P,VCC,2,Pin_2*%
%TO.N,5V_USB*%
X7620000Y-40640000D03*
%TD*%
D14*
%TO.P,J1,1,Pin_1*%
%TO.N,A11*%
X12700000Y-27940000D03*
D15*
%TO.P,J1,2,Pin_2*%
%TO.N,A12*%
X15240000Y-27940000D03*
%TO.P,J1,3,Pin_3*%
%TO.N,A13*%
X17780000Y-27940000D03*
%TO.P,J1,4,Pin_4*%
%TO.N,A14*%
X20320000Y-27940000D03*
%TO.P,J1,5,Pin_5*%
%TO.N,A15*%
X22860000Y-27940000D03*
%TO.P,J1,6,Pin_6*%
%TO.N,CLK*%
X25400000Y-27940000D03*
%TO.P,J1,7,Pin_7*%
%TO.N,D4*%
X27940000Y-27940000D03*
%TO.P,J1,8,Pin_8*%
%TO.N,D3*%
X30480000Y-27940000D03*
%TO.P,J1,9,Pin_9*%
%TO.N,D5*%
X33020000Y-27940000D03*
%TO.P,J1,10,Pin_10*%
%TO.N,D6*%
X35560000Y-27940000D03*
%TO.P,J1,11,Pin_11*%
%TO.N,VCC*%
X38100000Y-27940000D03*
%TO.P,J1,12,Pin_12*%
%TO.N,D2*%
X40640000Y-27940000D03*
%TO.P,J1,13,Pin_13*%
%TO.N,D7*%
X43180000Y-27940000D03*
%TO.P,J1,14,Pin_14*%
%TO.N,D0*%
X45720000Y-27940000D03*
%TO.P,J1,15,Pin_15*%
%TO.N,D1*%
X48260000Y-27940000D03*
%TO.P,J1,16,Pin_16*%
%TO.N,INT_n*%
X50800000Y-27940000D03*
%TO.P,J1,17,Pin_17*%
%TO.N,NMI_n*%
X53340000Y-27940000D03*
%TO.P,J1,18,Pin_18*%
%TO.N,HALT_n*%
X55880000Y-27940000D03*
%TO.P,J1,19,Pin_19*%
%TO.N,MREQ_n*%
X58420000Y-27940000D03*
%TO.P,J1,20,Pin_20*%
%TO.N,IORQ_n*%
X60960000Y-27940000D03*
%TO.P,J1,21,Pin_21*%
%TO.N,RD_n*%
X60960000Y-7620000D03*
%TO.P,J1,22,Pin_22*%
%TO.N,WR_n*%
X58420000Y-7620000D03*
%TO.P,J1,23,Pin_23*%
%TO.N,BUSACK_n*%
X55880000Y-7620000D03*
%TO.P,J1,24,Pin_24*%
%TO.N,WAIT_n*%
X53340000Y-7620000D03*
%TO.P,J1,25,Pin_25*%
%TO.N,BUSREQ_n*%
X50800000Y-7620000D03*
%TO.P,J1,26,Pin_26*%
%TO.N,RESET_n*%
X48260000Y-7620000D03*
%TO.P,J1,27,Pin_27*%
%TO.N,M1_n*%
X45720000Y-7620000D03*
%TO.P,J1,28,Pin_28*%
%TO.N,RFSH_n*%
X43180000Y-7620000D03*
%TO.P,J1,29,Pin_29*%
%TO.N,GND*%
X40640000Y-7620000D03*
%TO.P,J1,30,Pin_30*%
%TO.N,A0*%
X38100000Y-7620000D03*
%TO.P,J1,31,Pin_31*%
%TO.N,A1*%
X35560000Y-7620000D03*
%TO.P,J1,32,Pin_32*%
%TO.N,A2*%
X33020000Y-7620000D03*
%TO.P,J1,33,Pin_33*%
%TO.N,A3*%
X30480000Y-7620000D03*
%TO.P,J1,34,Pin_34*%
%TO.N,A4*%
X27940000Y-7620000D03*
%TO.P,J1,35,Pin_35*%
%TO.N,A5*%
X25400000Y-7620000D03*
%TO.P,J1,36,Pin_36*%
%TO.N,A6*%
X22860000Y-7620000D03*
%TO.P,J1,37,Pin_37*%
%TO.N,A7*%
X20320000Y-7620000D03*
%TO.P,J1,38,Pin_38*%
%TO.N,A8*%
X17780000Y-7620000D03*
%TO.P,J1,39,Pin_39*%
%TO.N,A9*%
X15240000Y-7620000D03*
%TO.P,J1,40,Pin_40*%
%TO.N,A10*%
X12700000Y-7620000D03*
%TD*%
D14*
%TO.P,J2,1,Pin_1*%
%TO.N,A8*%
X12700000Y-66040000D03*
D15*
%TO.P,J2,2,Pin_2*%
%TO.N,A9*%
X15240000Y-66040000D03*
%TO.P,J2,3,Pin_3*%
%TO.N,RESET_n*%
X17780000Y-66040000D03*
%TO.P,J2,4,Pin_4*%
%TO.N,INT_n*%
X20320000Y-66040000D03*
%TO.P,J2,5,Pin_5*%
%TO.N,D4*%
X22860000Y-66040000D03*
%TO.P,J2,6,Pin_6*%
%TO.N,A10*%
X25400000Y-66040000D03*
%TO.P,J2,7,Pin_7*%
%TO.N,A11*%
X27940000Y-66040000D03*
%TO.P,J2,8,Pin_8*%
%TO.N,D3*%
X30480000Y-66040000D03*
%TO.P,J2,9,Pin_9*%
%TO.N,D5*%
X33020000Y-66040000D03*
%TO.P,J2,10,Pin_10*%
%TO.N,D6*%
X35560000Y-66040000D03*
%TO.P,J2,11,Pin_11*%
%TO.N,D2*%
X38100000Y-66040000D03*
%TO.P,J2,12,Pin_12*%
%TO.N,D7*%
X40640000Y-66040000D03*
%TO.P,J2,13,Pin_13*%
%TO.N,D0*%
X43180000Y-66040000D03*
%TO.P,J2,14,Pin_14*%
%TO.N,D1*%
X45720000Y-66040000D03*
%TO.P,J2,15,Pin_15*%
%TO.N,A12*%
X48260000Y-66040000D03*
%TO.P,J2,16,Pin_16*%
%TO.N,A13*%
X50800000Y-66040000D03*
%TO.P,J2,17,Pin_17*%
%TO.N,A14*%
X53340000Y-66040000D03*
%TO.P,J2,18,Pin_18*%
%TO.N,A15*%
X55880000Y-66040000D03*
%TO.P,J2,19,Pin_19*%
%TO.N,unconnected-(J2-Pin_19-Pad19)*%
X58420000Y-66040000D03*
%TO.P,J2,20,Pin_20*%
%TO.N,GND*%
X60960000Y-66040000D03*
%TO.P,J2,21,Pin_21*%
%TO.N,WR_n*%
X60960000Y-50800000D03*
%TO.P,J2,22,Pin_22*%
%TO.N,RD_n*%
X58420000Y-50800000D03*
%TO.P,J2,23,Pin_23*%
%TO.N,IORQ_n*%
X55880000Y-50800000D03*
%TO.P,J2,24,Pin_24*%
%TO.N,MREQ_n*%
X53340000Y-50800000D03*
%TO.P,J2,25,Pin_25*%
%TO.N,unconnected-(J2-Pin_25-Pad25)*%
X50800000Y-50800000D03*
%TO.P,J2,26,Pin_26*%
%TO.N,GND*%
X48260000Y-50800000D03*
%TO.P,J2,27,Pin_27*%
%TO.N,LED_RGB*%
X45720000Y-50800000D03*
%TO.P,J2,28,Pin_28*%
%TO.N,DBG_TRG*%
X43180000Y-50800000D03*
%TO.P,J2,29,Pin_29*%
%TO.N,M1_n*%
X40640000Y-50800000D03*
%TO.P,J2,30,Pin_30*%
%TO.N,A0*%
X38100000Y-50800000D03*
%TO.P,J2,31,Pin_31*%
%TO.N,A1*%
X35560000Y-50800000D03*
%TO.P,J2,32,Pin_32*%
%TO.N,A2*%
X33020000Y-50800000D03*
%TO.P,J2,33,Pin_33*%
%TO.N,A3*%
X30480000Y-50800000D03*
%TO.P,J2,34,Pin_34*%
%TO.N,A4*%
X27940000Y-50800000D03*
%TO.P,J2,35,Pin_35*%
%TO.N,A5*%
X25400000Y-50800000D03*
%TO.P,J2,36,Pin_36*%
%TO.N,A6*%
X22860000Y-50800000D03*
%TO.P,J2,37,Pin_37*%
%TO.N,A7*%
X20320000Y-50800000D03*
%TO.P,J2,38,Pin_38*%
%TO.N,CLK_3V*%
X17780000Y-50800000D03*
%TO.P,J2,39,Pin_39*%
%TO.N,GND*%
X15240000Y-50800000D03*
%TO.P,J2,40,Pin_40*%
%TO.N,5V_USB*%
X12700000Y-50800000D03*
%TD*%
D14*
%TO.P,RN1,1,common*%
%TO.N,VCC*%
X50800000Y-35560000D03*
D15*
%TO.P,RN1,2,R1*%
%TO.N,NMI_n*%
X53340000Y-35560000D03*
%TO.P,RN1,3,R2*%
%TO.N,BUSREQ_n*%
X55880000Y-35560000D03*
%TO.P,RN1,4,R3*%
%TO.N,WAIT_n*%
X58420000Y-35560000D03*
%TO.P,RN1,5,R4*%
%TO.N,unconnected-(RN1-R4-Pad5)*%
X60960000Y-35560000D03*
%TD*%
D14*
%TO.P,U2,1*%
%TO.N,CLK_3V*%
X15240000Y-43180000D03*
D15*
%TO.P,U2,2*%
%TO.N,Net-(U2-Pad2)*%
X17780000Y-43180000D03*
%TO.P,U2,3*%
X20320000Y-43180000D03*
%TO.P,U2,4*%
%TO.N,Net-(R1-Pad1)*%
X22860000Y-43180000D03*
%TO.P,U2,5*%
%TO.N,VCC*%
X25400000Y-43180000D03*
%TO.P,U2,6*%
%TO.N,unconnected-(U2-Pad6)*%
X27940000Y-43180000D03*
%TO.P,U2,7,GND*%
%TO.N,GND*%
X30480000Y-43180000D03*
%TO.P,U2,8*%
%TO.N,unconnected-(U2-Pad8)*%
X30480000Y-35560000D03*
%TO.P,U2,9*%
%TO.N,VCC*%
X27940000Y-35560000D03*
%TO.P,U2,10*%
%TO.N,unconnected-(U2-Pad10)*%
X25400000Y-35560000D03*
%TO.P,U2,11*%
%TO.N,VCC*%
X22860000Y-35560000D03*
%TO.P,U2,12*%
%TO.N,unconnected-(U2-Pad12)*%
X20320000Y-35560000D03*
%TO.P,U2,13*%
%TO.N,VCC*%
X17780000Y-35560000D03*
%TO.P,U2,14,VCC*%
X15240000Y-35560000D03*
%TD*%
D16*
%TO.P,C2,1*%
%TO.N,VCC*%
X7620000Y-33020000D03*
D17*
%TO.P,C2,2*%
%TO.N,GND*%
X6120000Y-33020000D03*
%TD*%
D18*
%TO.P,R1,1*%
%TO.N,Net-(R1-Pad1)*%
X35560000Y-43180000D03*
D15*
%TO.P,R1,2*%
%TO.N,CLK*%
X35560000Y-35560000D03*
%TD*%
D12*
%TO.P,GND,1,Pin_1*%
%TO.N,GND*%
X5080000Y-38100000D03*
%TD*%
D18*
%TO.P,C1,1*%
%TO.N,VCC*%
X38100000Y-30560000D03*
%TO.P,C1,2*%
%TO.N,GND*%
X38100000Y-35560000D03*
%TD*%
D14*
%TO.P,U1,1,A11*%
%TO.N,A11*%
X12700000Y-25400000D03*
D15*
%TO.P,U1,2,A12*%
%TO.N,A12*%
X15240000Y-25400000D03*
%TO.P,U1,3,A13*%
%TO.N,A13*%
X17780000Y-25400000D03*
%TO.P,U1,4,A14*%
%TO.N,A14*%
X20320000Y-25400000D03*
%TO.P,U1,5,A15*%
%TO.N,A15*%
X22860000Y-25400000D03*
%TO.P,U1,6,~{CLK}*%
%TO.N,CLK*%
X25400000Y-25400000D03*
%TO.P,U1,7,D4*%
%TO.N,D4*%
X27940000Y-25400000D03*
%TO.P,U1,8,D3*%
%TO.N,D3*%
X30480000Y-25400000D03*
%TO.P,U1,9,D5*%
%TO.N,D5*%
X33020000Y-25400000D03*
%TO.P,U1,10,D6*%
%TO.N,D6*%
X35560000Y-25400000D03*
%TO.P,U1,11,VCC*%
%TO.N,VCC*%
X38100000Y-25400000D03*
%TO.P,U1,12,D2*%
%TO.N,D2*%
X40640000Y-25400000D03*
%TO.P,U1,13,D7*%
%TO.N,D7*%
X43180000Y-25400000D03*
%TO.P,U1,14,D0*%
%TO.N,D0*%
X45720000Y-25400000D03*
%TO.P,U1,15,D1*%
%TO.N,D1*%
X48260000Y-25400000D03*
%TO.P,U1,16,~{INT}*%
%TO.N,INT_n*%
X50800000Y-25400000D03*
%TO.P,U1,17,~{NMI}*%
%TO.N,NMI_n*%
X53340000Y-25400000D03*
%TO.P,U1,18,~{HALT}*%
%TO.N,HALT_n*%
X55880000Y-25400000D03*
%TO.P,U1,19,~{MREQ}*%
%TO.N,MREQ_n*%
X58420000Y-25400000D03*
%TO.P,U1,20,~{IORQ}*%
%TO.N,IORQ_n*%
X60960000Y-25400000D03*
%TO.P,U1,21,~{RD}*%
%TO.N,RD_n*%
X60960000Y-10160000D03*
%TO.P,U1,22,~{WR}*%
%TO.N,WR_n*%
X58420000Y-10160000D03*
%TO.P,U1,23,~{BUSACK}*%
%TO.N,BUSACK_n*%
X55880000Y-10160000D03*
%TO.P,U1,24,~{WAIT}*%
%TO.N,WAIT_n*%
X53340000Y-10160000D03*
%TO.P,U1,25,~{BUSRQ}*%
%TO.N,BUSREQ_n*%
X50800000Y-10160000D03*
%TO.P,U1,26,~{RESET}*%
%TO.N,RESET_n*%
X48260000Y-10160000D03*
%TO.P,U1,27,~{M1}*%
%TO.N,M1_n*%
X45720000Y-10160000D03*
%TO.P,U1,28,~{RFSH}*%
%TO.N,RFSH_n*%
X43180000Y-10160000D03*
%TO.P,U1,29,GND*%
%TO.N,GND*%
X40640000Y-10160000D03*
%TO.P,U1,30,A0*%
%TO.N,A0*%
X38100000Y-10160000D03*
%TO.P,U1,31,A1*%
%TO.N,A1*%
X35560000Y-10160000D03*
%TO.P,U1,32,A2*%
%TO.N,A2*%
X33020000Y-10160000D03*
%TO.P,U1,33,A3*%
%TO.N,A3*%
X30480000Y-10160000D03*
%TO.P,U1,34,A4*%
%TO.N,A4*%
X27940000Y-10160000D03*
%TO.P,U1,35,A5*%
%TO.N,A5*%
X25400000Y-10160000D03*
%TO.P,U1,36,A6*%
%TO.N,A6*%
X22860000Y-10160000D03*
%TO.P,U1,37,A7*%
%TO.N,A7*%
X20320000Y-10160000D03*
%TO.P,U1,38,A8*%
%TO.N,A8*%
X17780000Y-10160000D03*
%TO.P,U1,39,A9*%
%TO.N,A9*%
X15240000Y-10160000D03*
%TO.P,U1,40,A10*%
%TO.N,A10*%
X12700000Y-10160000D03*
%TD*%
D19*
%TO.N,A10*%
X10160000Y-55880000D03*
X25400000Y-55880000D03*
%TO.N,RESET_n*%
X16510000Y-13970000D03*
%TO.N,INT_n*%
X49530000Y-62865000D03*
%TO.N,D4*%
X27940000Y-33020000D03*
X19050000Y-33020000D03*
%TO.N,A11*%
X11430000Y-54610000D03*
X27940000Y-54610000D03*
%TO.N,A12*%
X15240000Y-17780000D03*
X52070000Y-17780000D03*
%TO.N,A13*%
X54610000Y-19050000D03*
X17780000Y-19050000D03*
%TO.N,A14*%
X20320000Y-20320000D03*
X57150000Y-20320000D03*
%TO.N,A15*%
X59690000Y-21590000D03*
X22860000Y-21590000D03*
%TO.N,MREQ_n*%
X63500000Y-22860000D03*
X63500000Y-44450000D03*
%TO.N,IORQ_n*%
X62230000Y-45720000D03*
%TO.N,RD_n*%
X63500000Y-46990000D03*
%TO.N,VCC*%
X25400000Y-37465000D03*
%TO.N,WAIT_n*%
X53340000Y-22860000D03*
%TO.N,BUSREQ_n*%
X50800000Y-22860000D03*
%TD*%
D20*
%TO.N,A10*%
X11430000Y-10160000D02*
X12700000Y-10160000D01*
X10160000Y-11430000D02*
X11430000Y-10160000D01*
X10160000Y-55880000D02*
X10160000Y-11430000D01*
X25400000Y-66040000D02*
X25400000Y-55880000D01*
D21*
%TO.N,CLK*%
X25400000Y-27940000D02*
X25400000Y-25400000D01*
D22*
%TO.N,VCC*%
X38100000Y-27940000D02*
X38100000Y-25400000D01*
D23*
%TO.N,GND*%
X40640000Y-10160000D02*
X40640000Y-7620000D01*
D20*
%TO.N,A8*%
X8890000Y-62230000D02*
X8890000Y-8255000D01*
X11430000Y-5715000D02*
X15875000Y-5715000D01*
X12700000Y-66040000D02*
X8890000Y-62230000D01*
X15875000Y-5715000D02*
X17780000Y-7620000D01*
X17780000Y-10160000D02*
X17780000Y-7620000D01*
X8890000Y-8255000D02*
X11430000Y-5715000D01*
%TO.N,A9*%
X14115000Y-11285000D02*
X15240000Y-10160000D01*
X12700000Y-31750000D02*
X13970000Y-30480000D01*
X15240000Y-10160000D02*
X15240000Y-7620000D01*
X13970000Y-46990000D02*
X12700000Y-45720000D01*
X13970000Y-30480000D02*
X13970000Y-11430000D01*
X13970000Y-64770000D02*
X13970000Y-46990000D01*
X15240000Y-66040000D02*
X13970000Y-64770000D01*
X12700000Y-45720000D02*
X12700000Y-31750000D01*
%TO.N,RESET_n*%
X17780000Y-66040000D02*
X17780000Y-53975000D01*
X16510000Y-29845000D02*
X16510000Y-13970000D01*
X13970000Y-44160000D02*
X13970000Y-32385000D01*
X13970000Y-32385000D02*
X16510000Y-29845000D01*
X16510000Y-52705000D02*
X16510000Y-46700000D01*
X17780000Y-53975000D02*
X16510000Y-52705000D01*
X16510000Y-46700000D02*
X13970000Y-44160000D01*
X48260000Y-10160000D02*
X48260000Y-7620000D01*
%TO.N,INT_n*%
X50800000Y-27940000D02*
X50800000Y-25400000D01*
X49530000Y-62865000D02*
X49530000Y-29210000D01*
X49530000Y-29210000D02*
X50800000Y-27940000D01*
%TO.N,D4*%
X19685000Y-52705000D02*
X22225000Y-52705000D01*
X22860000Y-53340000D02*
X22860000Y-66040000D01*
X19050000Y-52070000D02*
X19685000Y-52705000D01*
X19050000Y-33020000D02*
X19050000Y-52070000D01*
X27940000Y-33020000D02*
X27940000Y-27940000D01*
X27940000Y-27940000D02*
X27940000Y-25400000D01*
X22225000Y-52705000D02*
X22860000Y-53340000D01*
%TO.N,A10*%
X12700000Y-10160000D02*
X12700000Y-7620000D01*
%TO.N,A11*%
X11430000Y-54610000D02*
X11430000Y-29210000D01*
X27940000Y-54610000D02*
X27940000Y-66040000D01*
X11430000Y-29210000D02*
X12700000Y-27940000D01*
X12700000Y-27940000D02*
X12700000Y-25400000D01*
%TO.N,D3*%
X31605000Y-31605000D02*
X31605000Y-48151000D01*
X29355000Y-50334009D02*
X29355000Y-64915000D01*
X29355000Y-64915000D02*
X30480000Y-66040000D01*
X30480000Y-27940000D02*
X30480000Y-30480000D01*
X30480000Y-27940000D02*
X30480000Y-25400000D01*
X31605000Y-48084009D02*
X29355000Y-50334009D01*
X30480000Y-30480000D02*
X31605000Y-31605000D01*
%TO.N,D5*%
X33020000Y-27940000D02*
X33020000Y-49209009D01*
X31895000Y-50334009D02*
X31895000Y-64915000D01*
X33020000Y-49209009D02*
X31895000Y-50334009D01*
X31895000Y-64915000D02*
X33020000Y-66040000D01*
X33020000Y-27940000D02*
X33020000Y-25400000D01*
%TO.N,D6*%
X34435000Y-29065000D02*
X34435000Y-64915000D01*
X35560000Y-27940000D02*
X35560000Y-25400000D01*
X34435000Y-64915000D02*
X35560000Y-66040000D01*
X35560000Y-27940000D02*
X34435000Y-29065000D01*
%TO.N,D2*%
X40640000Y-27940000D02*
X40640000Y-25400000D01*
X38100000Y-66040000D02*
X39370000Y-64770000D01*
X40640000Y-27940000D02*
X40640000Y-37465000D01*
X39370000Y-38735000D02*
X39370000Y-64770000D01*
X40640000Y-37465000D02*
X39370000Y-38735000D01*
%TO.N,D7*%
X41910000Y-64770000D02*
X40640000Y-66040000D01*
X43180000Y-40005000D02*
X41275000Y-41910000D01*
X41275000Y-41910000D02*
X41275000Y-47625000D01*
X43180000Y-27940000D02*
X43180000Y-40005000D01*
X41910000Y-48260000D02*
X41910000Y-64770000D01*
X41275000Y-47625000D02*
X41910000Y-48260000D01*
X43180000Y-27940000D02*
X43180000Y-25400000D01*
%TO.N,D0*%
X44450000Y-64770000D02*
X44450000Y-29210000D01*
X44450000Y-29210000D02*
X45720000Y-27940000D01*
X43180000Y-66040000D02*
X44450000Y-64770000D01*
X45720000Y-27940000D02*
X45720000Y-25400000D01*
%TO.N,D1*%
X47345000Y-42265000D02*
X47345000Y-49810000D01*
X48260000Y-27940000D02*
X48260000Y-25400000D01*
X47345000Y-49810000D02*
X46845000Y-50310000D01*
X45720000Y-30480000D02*
X45720000Y-40640000D01*
X45720000Y-40640000D02*
X47345000Y-42265000D01*
X48260000Y-27940000D02*
X45720000Y-30480000D01*
X46845000Y-50310000D02*
X46845000Y-64915000D01*
X46845000Y-64915000D02*
X45720000Y-66040000D01*
%TO.N,A12*%
X52070000Y-17780000D02*
X52070000Y-62230000D01*
X15240000Y-27940000D02*
X15240000Y-25400000D01*
X15240000Y-25400000D02*
X15240000Y-17780000D01*
X52070000Y-62230000D02*
X48260000Y-66040000D01*
%TO.N,A13*%
X54610000Y-19050000D02*
X54610000Y-62230000D01*
X54610000Y-62230000D02*
X50800000Y-66040000D01*
X17780000Y-25400000D02*
X17780000Y-19050000D01*
X17780000Y-27940000D02*
X17780000Y-25400000D01*
%TO.N,A14*%
X57150000Y-62230000D02*
X53340000Y-66040000D01*
X57150000Y-20320000D02*
X57150000Y-62230000D01*
X20320000Y-27940000D02*
X20320000Y-25400000D01*
X20320000Y-25400000D02*
X20320000Y-20320000D01*
%TO.N,A15*%
X22860000Y-25400000D02*
X22860000Y-21590000D01*
X59690000Y-62230000D02*
X55880000Y-66040000D01*
X22860000Y-27940000D02*
X22860000Y-25400000D01*
X59690000Y-21590000D02*
X59690000Y-62230000D01*
%TO.N,M1_n*%
X42055000Y-13825000D02*
X42055000Y-40493604D01*
X45720000Y-10160000D02*
X42055000Y-13825000D01*
X42055000Y-40493604D02*
X40640000Y-41908604D01*
X45720000Y-10160000D02*
X45720000Y-7620000D01*
X40640000Y-41908604D02*
X40640000Y-50800000D01*
%TO.N,MREQ_n*%
X63500000Y-22860000D02*
X63500000Y-44450000D01*
X58420000Y-27940000D02*
X58420000Y-25400000D01*
%TO.N,IORQ_n*%
X60960000Y-27940000D02*
X62230000Y-29210000D01*
X60960000Y-27940000D02*
X60960000Y-25400000D01*
X62230000Y-29210000D02*
X62230000Y-45720000D01*
%TO.N,RD_n*%
X60960000Y-10160000D02*
X60960000Y-7620000D01*
X62865000Y-10160000D02*
X64225000Y-11520000D01*
X63500000Y-46990000D02*
X64225000Y-46265000D01*
X64225000Y-46265000D02*
X64225000Y-11520000D01*
X62865000Y-10160000D02*
X60960000Y-10160000D01*
%TO.N,WR_n*%
X63500000Y-6350000D02*
X59690000Y-6350000D01*
X58420000Y-10160000D02*
X58420000Y-7620000D01*
X64770000Y-48895000D02*
X64770000Y-7620000D01*
X64770000Y-7620000D02*
X63500000Y-6350000D01*
X59690000Y-6350000D02*
X58420000Y-7620000D01*
X60960000Y-50800000D02*
X62865000Y-50800000D01*
X62865000Y-50800000D02*
X64770000Y-48895000D01*
%TO.N,A7*%
X21735000Y-49385000D02*
X21735000Y-11575000D01*
X20320000Y-10160000D02*
X20320000Y-7620000D01*
X21735000Y-11575000D02*
X20320000Y-10160000D01*
X20320000Y-50800000D02*
X21735000Y-49385000D01*
%TO.N,A6*%
X23985000Y-49675000D02*
X23985000Y-11285000D01*
X22860000Y-50800000D02*
X23985000Y-49675000D01*
X23985000Y-11285000D02*
X22860000Y-10160000D01*
X22860000Y-10160000D02*
X22860000Y-7620000D01*
%TO.N,A5*%
X25400000Y-50800000D02*
X26525000Y-49675000D01*
X26525000Y-49675000D02*
X26525000Y-11285000D01*
X26525000Y-11285000D02*
X25400000Y-10160000D01*
X25400000Y-10160000D02*
X25400000Y-7620000D01*
%TO.N,A4*%
X29065000Y-49675000D02*
X29065000Y-11285000D01*
X27940000Y-10160000D02*
X27940000Y-7620000D01*
X27940000Y-50800000D02*
X29065000Y-49675000D01*
X29065000Y-11285000D02*
X27940000Y-10160000D01*
%TO.N,DBG_TRG*%
X43180000Y-47625000D02*
X43180000Y-50800000D01*
X43180000Y-43180000D02*
X42005000Y-44355000D01*
X42005000Y-46450000D02*
X43180000Y-47625000D01*
X42005000Y-44355000D02*
X42005000Y-46450000D01*
%TO.N,LED_RGB*%
X46895000Y-44355000D02*
X45720000Y-43180000D01*
X45720000Y-47625000D02*
X46895000Y-46450000D01*
X45720000Y-50800000D02*
X45720000Y-47625000D01*
X46895000Y-46450000D02*
X46895000Y-44355000D01*
%TO.N,A3*%
X32258000Y-30734000D02*
X32258000Y-49022000D01*
X31895000Y-30371000D02*
X32258000Y-30734000D01*
X30480000Y-10160000D02*
X30480000Y-7620000D01*
X30480000Y-10160000D02*
X31895000Y-11575000D01*
X32258000Y-49022000D02*
X30480000Y-50800000D01*
X31895000Y-11575000D02*
X31895000Y-30371000D01*
%TO.N,A2*%
X34145000Y-11285000D02*
X34145000Y-28718604D01*
X33020000Y-10160000D02*
X33020000Y-7620000D01*
X33470000Y-50350000D02*
X33020000Y-50800000D01*
X33470000Y-29393604D02*
X33470000Y-50350000D01*
X34145000Y-28718604D02*
X33470000Y-29393604D01*
X33020000Y-10160000D02*
X34145000Y-11285000D01*
%TO.N,A1*%
X36685000Y-11285000D02*
X36685000Y-49675000D01*
X35560000Y-10160000D02*
X36685000Y-11285000D01*
X36685000Y-49675000D02*
X35560000Y-50800000D01*
X35560000Y-10160000D02*
X35560000Y-7620000D01*
%TO.N,A0*%
X39370000Y-36830000D02*
X39370000Y-11430000D01*
X38100000Y-10160000D02*
X38100000Y-7620000D01*
X38100000Y-50800000D02*
X38100000Y-38100000D01*
X38100000Y-38100000D02*
X39370000Y-36830000D01*
X39370000Y-11430000D02*
X38100000Y-10160000D01*
D21*
%TO.N,CLK_3V*%
X15240000Y-43815000D02*
X15240000Y-43180000D01*
X17780000Y-46355000D02*
X15240000Y-43815000D01*
X17780000Y-50800000D02*
X17780000Y-46355000D01*
D20*
%TO.N,NMI_n*%
X53340000Y-27940000D02*
X53340000Y-25400000D01*
X53340000Y-35560000D02*
X53340000Y-27940000D01*
%TO.N,HALT_n*%
X55880000Y-27940000D02*
X55880000Y-25400000D01*
%TO.N,VCC*%
X25400000Y-43180000D02*
X25400000Y-37465000D01*
%TO.N,WAIT_n*%
X53340000Y-10160000D02*
X53340000Y-7620000D01*
X53340000Y-22860000D02*
X53340000Y-10160000D01*
%TO.N,RFSH_n*%
X43180000Y-10160000D02*
X43180000Y-7620000D01*
%TO.N,BUSACK_n*%
X55880000Y-10160000D02*
X55880000Y-7620000D01*
%TO.N,BUSREQ_n*%
X50800000Y-22860000D02*
X50800000Y-10160000D01*
X50800000Y-10160000D02*
X50800000Y-7620000D01*
%TD*%
M02*
