M48
; DRILL file {KiCad 7.0.6} date Wed Jul 19 17:47:35 2023
; FORMAT={-:-/ absolute / inch / decimal}
; #@! TF.CreationDate,2023-07-19T17:47:35+09:00
; #@! TF.GenerationSoftware,Kicad,Pcbnew,7.0.6
; #@! TF.FileFunction,Plated,1,2,PTH
FMAT,2
INCH
; #@! TA.AperFunction,Plated,PTH,ViaDrill
T1C0.0157
; #@! TA.AperFunction,Plated,PTH,ComponentDrill
T2C0.0236
; #@! TA.AperFunction,Plated,PTH,ComponentDrill
T3C0.0315
; #@! TA.AperFunction,Plated,PTH,ComponentDrill
T4C0.0394
%
G90
G05
T1
X0.15Y-2.3
X0.2Y-2.35
X0.25Y-0.925
X0.25Y-2.4
X0.3Y-0.825
X0.3Y-2.45
X0.35Y-0.875
X0.375Y-2.175
X0.6Y-0.5
X1.1Y-0.75
X1.775Y-2.175
T2
X0.95Y-1.3409
X0.95Y-1.4
T3
X0.1Y-0.5
X0.1Y-0.6
X0.1Y-0.7
X0.4Y-0.5
X0.4Y-0.6
X0.4Y-0.7
X0.5Y-0.3
X0.5Y-0.4
X0.5Y-1.0
X0.5Y-1.1
X0.5Y-1.4
X0.5Y-1.5
X0.5Y-1.6
X0.5Y-1.7
X0.5Y-2.0
X0.5Y-2.6
X0.6Y-0.3
X0.6Y-0.4
X0.6Y-1.0
X0.6Y-1.1
X0.6Y-2.0
X0.6Y-2.6
X0.7Y-0.3
X0.7Y-0.4
X0.7Y-1.0
X0.7Y-1.1
X0.7Y-2.0
X0.7Y-2.6
X0.8Y-0.3
X0.8Y-0.4
X0.8Y-1.0
X0.8Y-1.1
X0.8Y-1.4
X0.8Y-1.5
X0.8Y-1.6
X0.8Y-1.7
X0.8Y-2.0
X0.8Y-2.6
X0.9Y-0.3
X0.9Y-0.4
X0.9Y-1.0
X0.9Y-1.1
X0.9Y-2.0
X0.9Y-2.6
X1.0Y-0.3
X1.0Y-0.4
X1.0Y-1.0
X1.0Y-1.1
X1.0Y-2.0
X1.0Y-2.6
X1.1Y-0.3
X1.1Y-0.4
X1.1Y-1.0
X1.1Y-1.1
X1.1Y-1.3
X1.1Y-1.4969
X1.1Y-2.0
X1.1Y-2.6
X1.2Y-0.3
X1.2Y-0.4
X1.2Y-1.0
X1.2Y-1.1
X1.2Y-2.0
X1.2Y-2.6
X1.3Y-0.3
X1.3Y-0.4
X1.3Y-1.0
X1.3Y-1.1
X1.3Y-2.0
X1.3Y-2.6
X1.4Y-0.3
X1.4Y-0.4
X1.4Y-1.0
X1.4Y-1.1
X1.4Y-2.0
X1.4Y-2.6
X1.5Y-0.3
X1.5Y-0.4
X1.5Y-1.0
X1.5Y-1.1
X1.5Y-2.0
X1.5Y-2.6
X1.6Y-0.3
X1.6Y-0.4
X1.6Y-1.0
X1.6Y-1.1
X1.6Y-2.0
X1.6Y-2.6
X1.7Y-0.3
X1.7Y-0.4
X1.7Y-1.0
X1.7Y-1.1
X1.7Y-2.0
X1.7Y-2.6
X1.8Y-0.3
X1.8Y-0.4
X1.8Y-1.0
X1.8Y-1.1
X1.8Y-2.0
X1.8Y-2.6
X1.9Y-0.3
X1.9Y-0.4
X1.9Y-1.0
X1.9Y-1.1
X1.9Y-2.0
X1.9Y-2.6
X2.0Y-0.3
X2.0Y-0.4
X2.0Y-1.0
X2.0Y-1.1
X2.0Y-2.0
X2.0Y-2.6
X2.1Y-0.3
X2.1Y-0.4
X2.1Y-1.0
X2.1Y-1.1
X2.1Y-2.0
X2.1Y-2.6
X2.2Y-0.3
X2.2Y-0.4
X2.2Y-1.0
X2.2Y-1.1
X2.2Y-2.0
X2.2Y-2.6
X2.3Y-0.3
X2.3Y-0.4
X2.3Y-1.0
X2.3Y-1.1
X2.3Y-2.0
X2.3Y-2.6
X2.4Y-0.3
X2.4Y-0.4
X2.4Y-1.0
X2.4Y-1.1
X2.4Y-2.0
X2.4Y-2.6
T4
X0.2Y-1.2
X0.2Y-1.3
X0.2Y-1.4
X0.2Y-1.5
X0.2Y-1.6
X0.2Y-1.7
X0.3Y-1.2
X0.3Y-1.3
X0.3Y-1.4
X0.3Y-1.5
X0.3Y-1.6
X0.3Y-1.7
T0
M30
