%TF.GenerationSoftware,KiCad,Pcbnew,7.0.2*%
%TF.CreationDate,2023-06-15T20:21:22+09:00*%
%TF.ProjectId,TangNano5V,54616e67-4e61-46e6-9f35-562e6b696361,rev?*%
%TF.SameCoordinates,Original*%
%TF.FileFunction,Copper,L2,Inr*%
%TF.FilePolarity,Positive*%
%FSLAX46Y46*%
G04 Gerber Fmt 4.6, Leading zero omitted, Abs format (unit mm)*
G04 Created by KiCad (PCBNEW 7.0.2) date 2023-06-15 20:21:22*
%MOMM*%
%LPD*%
G01*
G04 APERTURE LIST*
%TA.AperFunction,ComponentPad*%
%ADD10R,1.700000X1.700000*%
%TD*%
%TA.AperFunction,ComponentPad*%
%ADD11O,1.700000X1.700000*%
%TD*%
%TA.AperFunction,ViaPad*%
%ADD12C,0.800000*%
%TD*%
G04 APERTURE END LIST*
D10*
%TO.N,+5V*%
%TO.C,J2*%
X2540000Y-2540000D03*
D11*
%TO.N,GND*%
X5080000Y-2540000D03*
%TO.N,PIN76*%
X7620000Y-2540000D03*
%TO.N,PIN80*%
X10160000Y-2540000D03*
%TO.N,PIN42*%
X12700000Y-2540000D03*
%TO.N,PIN41*%
X15240000Y-2540000D03*
%TO.N,PIN56*%
X17780000Y-2540000D03*
%TO.N,PIN54*%
X20320000Y-2540000D03*
%TO.N,PIN51*%
X22860000Y-2540000D03*
%TO.N,PIN48*%
X25400000Y-2540000D03*
%TO.N,PIN55*%
X27940000Y-2540000D03*
%TO.N,PIN49*%
X30480000Y-2540000D03*
%TO.N,PIN86*%
X33020000Y-2540000D03*
%TO.N,PIN79*%
X35560000Y-2540000D03*
%TO.N,GND*%
X38100000Y-2540000D03*
%TO.N,+3.3V*%
X40640000Y-2540000D03*
%TO.N,PIN72*%
X43180000Y-2540000D03*
%TO.N,PIN71*%
X45720000Y-2540000D03*
%TO.N,PIN53*%
X48260000Y-2540000D03*
%TO.N,PIN52*%
X50800000Y-2540000D03*
%TD*%
D10*
%TO.N,PIN73*%
%TO.C,J1*%
X2540000Y-22860000D03*
D11*
%TO.N,PIN74*%
X5080000Y-22860000D03*
%TO.N,PIN75*%
X7620000Y-22860000D03*
%TO.N,PIN85*%
X10160000Y-22860000D03*
%TO.N,PIN77*%
X12700000Y-22860000D03*
%TO.N,PIN15*%
X15240000Y-22860000D03*
%TO.N,PIN16*%
X17780000Y-22860000D03*
%TO.N,PIN27*%
X20320000Y-22860000D03*
%TO.N,PIN28*%
X22860000Y-22860000D03*
%TO.N,PIN25*%
X25400000Y-22860000D03*
%TO.N,PIN26*%
X27940000Y-22860000D03*
%TO.N,PIN29*%
X30480000Y-22860000D03*
%TO.N,PIN30*%
X33020000Y-22860000D03*
%TO.N,PIN31*%
X35560000Y-22860000D03*
%TO.N,PIN17*%
X38100000Y-22860000D03*
%TO.N,PIN20*%
X40640000Y-22860000D03*
%TO.N,PIN19*%
X43180000Y-22860000D03*
%TO.N,PIN18*%
X45720000Y-22860000D03*
%TO.N,+3.3V*%
X48260000Y-22860000D03*
%TO.N,GND*%
X50800000Y-22860000D03*
%TD*%
D10*
%TO.N,+5V*%
%TO.C,J4*%
X2540000Y-5080000D03*
D11*
%TO.N,GND*%
X5080000Y-5080000D03*
%TO.N,PIN76_H*%
X7620000Y-5080000D03*
%TO.N,PIN80_H*%
X10160000Y-5080000D03*
%TO.N,PIN42_H*%
X12700000Y-5080000D03*
%TO.N,PIN41_H*%
X15240000Y-5080000D03*
%TO.N,PIN56_H*%
X17780000Y-5080000D03*
%TO.N,PIN54_H*%
X20320000Y-5080000D03*
%TO.N,PIN51_H*%
X22860000Y-5080000D03*
%TO.N,PIN48_H*%
X25400000Y-5080000D03*
%TO.N,PIN55_H*%
X27940000Y-5080000D03*
%TO.N,PIN49_H*%
X30480000Y-5080000D03*
%TO.N,PIN86_H*%
X33020000Y-5080000D03*
%TO.N,PIN79_H*%
X35560000Y-5080000D03*
%TO.N,GND*%
X38100000Y-5080000D03*
%TO.N,+3.3V*%
X40640000Y-5080000D03*
%TO.N,PIN72_H*%
X43180000Y-5080000D03*
%TO.N,PIN71_H*%
X45720000Y-5080000D03*
%TO.N,PIN53_H*%
X48260000Y-5080000D03*
%TO.N,PIN52_H*%
X50800000Y-5080000D03*
%TD*%
D10*
%TO.N,PIN73_H*%
%TO.C,J3*%
X2540000Y-20320000D03*
D11*
%TO.N,PIN74_H*%
X5080000Y-20320000D03*
%TO.N,PIN75_H*%
X7620000Y-20320000D03*
%TO.N,PIN85_H*%
X10160000Y-20320000D03*
%TO.N,PIN77_H*%
X12700000Y-20320000D03*
%TO.N,PIN15_H*%
X15240000Y-20320000D03*
%TO.N,PIN16_H*%
X17780000Y-20320000D03*
%TO.N,PIN27_H*%
X20320000Y-20320000D03*
%TO.N,PIN28_H*%
X22860000Y-20320000D03*
%TO.N,PIN25_H*%
X25400000Y-20320000D03*
%TO.N,PIN26_H*%
X27940000Y-20320000D03*
%TO.N,PIN29_H*%
X30480000Y-20320000D03*
%TO.N,PIN30_H*%
X33020000Y-20320000D03*
%TO.N,PIN31_H*%
X35560000Y-20320000D03*
%TO.N,PIN17_H*%
X38100000Y-20320000D03*
%TO.N,PIN20_H*%
X40640000Y-20320000D03*
%TO.N,PIN19_H*%
X43180000Y-20320000D03*
%TO.N,PIN18_H*%
X45720000Y-20320000D03*
%TO.N,+3.3V*%
X48260000Y-20320000D03*
%TO.N,GND*%
X50800000Y-20320000D03*
%TD*%
D12*
%TO.N,PIN52_H*%
X43946299Y-12695701D03*
%TO.N,PIN53_H*%
X42926000Y-12700000D03*
%TO.N,PIN71_H*%
X39878000Y-14986000D03*
%TO.N,PIN72_H*%
X38862000Y-13716000D03*
%TO.N,PIN18*%
X37600598Y-13716000D03*
%TO.N,PIN79_H*%
X37846000Y-14986000D03*
%TO.N,PIN19*%
X36322000Y-14986000D03*
%TO.N,PIN20*%
X34544000Y-14986000D03*
%TO.N,PIN17*%
X32512000Y-13716000D03*
%TO.N,PIN31*%
X31750000Y-12700000D03*
%TO.N,PIN86_H*%
X30226000Y-13716000D03*
%TO.N,PIN49_H*%
X29464000Y-12700000D03*
%TO.N,PIN55_H*%
X28702000Y-13716000D03*
%TO.N,PIN48_H*%
X27759149Y-14912850D03*
%TO.N,PIN30*%
X26162000Y-14986000D03*
%TO.N,PIN29*%
X24892000Y-14986000D03*
%TO.N,PIN26*%
X22606000Y-14986000D03*
%TO.N,PIN25*%
X21844000Y-13716000D03*
%TO.N,PIN51_H*%
X20320000Y-13716000D03*
%TO.N,PIN54_H*%
X19304000Y-13716000D03*
%TO.N,PIN56_H*%
X18250500Y-14986000D03*
%TO.N,PIN41_H*%
X15023500Y-14986000D03*
%TO.N,PIN28*%
X17526000Y-13716000D03*
%TO.N,PIN27*%
X15748000Y-13716000D03*
%TO.N,PIN16*%
X12700000Y-13716000D03*
%TO.N,PIN15*%
X11684000Y-12700000D03*
%TO.N,PIN80_H*%
X9652000Y-13208000D03*
%TO.N,PIN75*%
X5588000Y-14224000D03*
%TO.N,PIN85*%
X6604000Y-13716000D03*
%TO.N,PIN77*%
X7620000Y-13208000D03*
%TO.N,PIN76_H*%
X8631701Y-14219701D03*
%TO.N,PIN74*%
X3048000Y-13716000D03*
%TO.N,GND*%
X10668000Y-16764000D03*
X41148000Y-16764000D03*
X30988000Y-16764000D03*
X20828000Y-16764000D03*
%TO.N,+3.3V*%
X43942000Y-11176000D03*
%TO.N,GND*%
X43942000Y-9144000D03*
X33782000Y-9144000D03*
X23622000Y-9144000D03*
X13462000Y-9144000D03*
X3302000Y-9144000D03*
%TO.N,+3.3V*%
X3302000Y-11176000D03*
X13462000Y-11176000D03*
X23622000Y-11176000D03*
X33782000Y-11176000D03*
%TD*%
%TA.AperFunction,Conductor*%
%TO.N,GND*%
G36*
X51050000Y-22424498D02*
G01*
X50942315Y-22375320D01*
X50835763Y-22360000D01*
X50764237Y-22360000D01*
X50657685Y-22375320D01*
X50550000Y-22424498D01*
X50550000Y-20755501D01*
X50657685Y-20804680D01*
X50764237Y-20820000D01*
X50835763Y-20820000D01*
X50942315Y-20804680D01*
X51050000Y-20755501D01*
X51050000Y-22424498D01*
G37*
%TD.AperFunction*%
%TA.AperFunction,Conductor*%
G36*
X5330000Y-4644498D02*
G01*
X5222315Y-4595320D01*
X5115763Y-4580000D01*
X5044237Y-4580000D01*
X4937685Y-4595320D01*
X4830000Y-4644498D01*
X4830000Y-2975501D01*
X4937685Y-3024680D01*
X5044237Y-3040000D01*
X5115763Y-3040000D01*
X5222315Y-3024680D01*
X5330000Y-2975501D01*
X5330000Y-4644498D01*
G37*
%TD.AperFunction*%
%TA.AperFunction,Conductor*%
G36*
X38350000Y-4644498D02*
G01*
X38242315Y-4595320D01*
X38135763Y-4580000D01*
X38064237Y-4580000D01*
X37957685Y-4595320D01*
X37850000Y-4644498D01*
X37850000Y-2975501D01*
X37957685Y-3024680D01*
X38064237Y-3040000D01*
X38135763Y-3040000D01*
X38242315Y-3024680D01*
X38350000Y-2975501D01*
X38350000Y-4644498D01*
G37*
%TD.AperFunction*%
%TA.AperFunction,Conductor*%
G36*
X52329039Y-273685D02*
G01*
X52361200Y-303600D01*
X53025890Y-1189854D01*
X53061200Y-1236933D01*
X53085676Y-1302375D01*
X53086000Y-1311333D01*
X53086000Y-24078638D01*
X53066315Y-24145677D01*
X53049681Y-24166319D01*
X52106319Y-25109681D01*
X52044996Y-25143166D01*
X52018638Y-25146000D01*
X1321362Y-25146000D01*
X1254323Y-25126315D01*
X1233681Y-25109681D01*
X290319Y-24166319D01*
X256834Y-24104996D01*
X254000Y-24078638D01*
X254000Y-23754578D01*
X1189500Y-23754578D01*
X1189501Y-23757872D01*
X1189853Y-23761152D01*
X1189854Y-23761159D01*
X1195909Y-23817484D01*
X1221056Y-23884907D01*
X1246204Y-23952331D01*
X1332454Y-24067546D01*
X1447669Y-24153796D01*
X1582517Y-24204091D01*
X1642127Y-24210500D01*
X3437872Y-24210499D01*
X3497483Y-24204091D01*
X3632331Y-24153796D01*
X3747546Y-24067546D01*
X3833796Y-23952331D01*
X3882810Y-23820916D01*
X3924681Y-23764983D01*
X3990146Y-23740566D01*
X4058419Y-23755418D01*
X4086673Y-23776569D01*
X4208599Y-23898495D01*
X4402170Y-24034035D01*
X4616337Y-24133903D01*
X4844592Y-24195063D01*
X5080000Y-24215659D01*
X5315408Y-24195063D01*
X5543663Y-24133903D01*
X5757830Y-24034035D01*
X5951401Y-23898495D01*
X6118495Y-23731401D01*
X6248427Y-23545838D01*
X6303001Y-23502216D01*
X6372499Y-23495022D01*
X6434854Y-23526545D01*
X6451572Y-23545838D01*
X6581505Y-23731401D01*
X6748599Y-23898495D01*
X6942170Y-24034035D01*
X7156337Y-24133903D01*
X7368059Y-24190633D01*
X7384592Y-24195063D01*
X7619999Y-24215659D01*
X7619999Y-24215658D01*
X7620000Y-24215659D01*
X7855408Y-24195063D01*
X8083663Y-24133903D01*
X8297830Y-24034035D01*
X8491401Y-23898495D01*
X8658495Y-23731401D01*
X8788426Y-23545839D01*
X8843002Y-23502216D01*
X8912500Y-23495022D01*
X8974855Y-23526545D01*
X8991571Y-23545837D01*
X9121505Y-23731401D01*
X9288599Y-23898495D01*
X9482170Y-24034035D01*
X9696337Y-24133903D01*
X9924592Y-24195063D01*
X10160000Y-24215659D01*
X10395408Y-24195063D01*
X10623663Y-24133903D01*
X10837830Y-24034035D01*
X11031401Y-23898495D01*
X11198495Y-23731401D01*
X11328426Y-23545839D01*
X11383002Y-23502216D01*
X11452500Y-23495022D01*
X11514855Y-23526545D01*
X11531571Y-23545837D01*
X11661505Y-23731401D01*
X11828599Y-23898495D01*
X12022170Y-24034035D01*
X12236337Y-24133903D01*
X12464592Y-24195063D01*
X12700000Y-24215659D01*
X12935408Y-24195063D01*
X13163663Y-24133903D01*
X13377830Y-24034035D01*
X13571401Y-23898495D01*
X13738495Y-23731401D01*
X13868426Y-23545839D01*
X13923002Y-23502216D01*
X13992500Y-23495022D01*
X14054855Y-23526545D01*
X14071571Y-23545837D01*
X14201505Y-23731401D01*
X14368599Y-23898495D01*
X14562170Y-24034035D01*
X14776337Y-24133903D01*
X14988059Y-24190633D01*
X15004592Y-24195063D01*
X15239999Y-24215659D01*
X15239999Y-24215658D01*
X15240000Y-24215659D01*
X15475408Y-24195063D01*
X15703663Y-24133903D01*
X15917830Y-24034035D01*
X16111401Y-23898495D01*
X16278495Y-23731401D01*
X16408426Y-23545839D01*
X16463002Y-23502216D01*
X16532500Y-23495022D01*
X16594855Y-23526545D01*
X16611571Y-23545837D01*
X16741505Y-23731401D01*
X16908599Y-23898495D01*
X17102170Y-24034035D01*
X17316337Y-24133903D01*
X17528059Y-24190633D01*
X17544592Y-24195063D01*
X17779999Y-24215659D01*
X17779999Y-24215658D01*
X17780000Y-24215659D01*
X18015408Y-24195063D01*
X18243663Y-24133903D01*
X18457830Y-24034035D01*
X18651401Y-23898495D01*
X18818495Y-23731401D01*
X18948426Y-23545839D01*
X19003002Y-23502216D01*
X19072500Y-23495022D01*
X19134855Y-23526545D01*
X19151571Y-23545837D01*
X19281505Y-23731401D01*
X19448599Y-23898495D01*
X19642170Y-24034035D01*
X19856337Y-24133903D01*
X20084592Y-24195063D01*
X20320000Y-24215659D01*
X20555408Y-24195063D01*
X20783663Y-24133903D01*
X20997830Y-24034035D01*
X21191401Y-23898495D01*
X21358495Y-23731401D01*
X21488426Y-23545839D01*
X21543002Y-23502216D01*
X21612500Y-23495022D01*
X21674855Y-23526545D01*
X21691571Y-23545837D01*
X21821505Y-23731401D01*
X21988599Y-23898495D01*
X22182170Y-24034035D01*
X22396337Y-24133903D01*
X22624592Y-24195063D01*
X22860000Y-24215659D01*
X23095408Y-24195063D01*
X23323663Y-24133903D01*
X23537830Y-24034035D01*
X23731401Y-23898495D01*
X23898495Y-23731401D01*
X24028426Y-23545839D01*
X24083002Y-23502216D01*
X24152500Y-23495022D01*
X24214855Y-23526545D01*
X24231571Y-23545837D01*
X24361505Y-23731401D01*
X24528599Y-23898495D01*
X24722170Y-24034035D01*
X24936337Y-24133903D01*
X25164592Y-24195063D01*
X25400000Y-24215659D01*
X25635408Y-24195063D01*
X25863663Y-24133903D01*
X26077830Y-24034035D01*
X26271401Y-23898495D01*
X26438495Y-23731401D01*
X26568426Y-23545839D01*
X26623002Y-23502217D01*
X26692501Y-23495024D01*
X26754855Y-23526546D01*
X26771571Y-23545837D01*
X26901505Y-23731401D01*
X27068599Y-23898495D01*
X27262170Y-24034035D01*
X27476337Y-24133903D01*
X27688059Y-24190633D01*
X27704592Y-24195063D01*
X27939999Y-24215659D01*
X27939999Y-24215658D01*
X27940000Y-24215659D01*
X28175408Y-24195063D01*
X28403663Y-24133903D01*
X28617830Y-24034035D01*
X28811401Y-23898495D01*
X28978495Y-23731401D01*
X29108426Y-23545839D01*
X29163002Y-23502217D01*
X29232501Y-23495024D01*
X29294855Y-23526546D01*
X29311571Y-23545837D01*
X29441505Y-23731401D01*
X29608599Y-23898495D01*
X29802170Y-24034035D01*
X30016337Y-24133903D01*
X30244592Y-24195063D01*
X30480000Y-24215659D01*
X30715408Y-24195063D01*
X30943663Y-24133903D01*
X31157830Y-24034035D01*
X31351401Y-23898495D01*
X31518495Y-23731401D01*
X31648426Y-23545839D01*
X31703002Y-23502217D01*
X31772501Y-23495024D01*
X31834855Y-23526546D01*
X31851571Y-23545837D01*
X31981505Y-23731401D01*
X32148599Y-23898495D01*
X32342170Y-24034035D01*
X32556337Y-24133903D01*
X32784592Y-24195063D01*
X33020000Y-24215659D01*
X33255408Y-24195063D01*
X33483663Y-24133903D01*
X33697830Y-24034035D01*
X33891401Y-23898495D01*
X34058495Y-23731401D01*
X34188426Y-23545839D01*
X34243002Y-23502216D01*
X34312500Y-23495022D01*
X34374855Y-23526545D01*
X34391571Y-23545837D01*
X34521505Y-23731401D01*
X34688599Y-23898495D01*
X34882170Y-24034035D01*
X35096337Y-24133903D01*
X35308059Y-24190633D01*
X35324592Y-24195063D01*
X35559999Y-24215659D01*
X35559999Y-24215658D01*
X35560000Y-24215659D01*
X35795408Y-24195063D01*
X36023663Y-24133903D01*
X36237830Y-24034035D01*
X36431401Y-23898495D01*
X36598495Y-23731401D01*
X36728426Y-23545839D01*
X36783002Y-23502216D01*
X36852500Y-23495022D01*
X36914855Y-23526545D01*
X36931571Y-23545837D01*
X37061505Y-23731401D01*
X37228599Y-23898495D01*
X37422170Y-24034035D01*
X37636337Y-24133903D01*
X37848059Y-24190633D01*
X37864592Y-24195063D01*
X38099999Y-24215659D01*
X38099999Y-24215658D01*
X38100000Y-24215659D01*
X38335408Y-24195063D01*
X38563663Y-24133903D01*
X38777830Y-24034035D01*
X38971401Y-23898495D01*
X39138495Y-23731401D01*
X39268426Y-23545839D01*
X39323002Y-23502216D01*
X39392500Y-23495022D01*
X39454855Y-23526545D01*
X39471571Y-23545837D01*
X39601505Y-23731401D01*
X39768599Y-23898495D01*
X39962170Y-24034035D01*
X40176337Y-24133903D01*
X40404592Y-24195063D01*
X40640000Y-24215659D01*
X40875408Y-24195063D01*
X41103663Y-24133903D01*
X41317830Y-24034035D01*
X41511401Y-23898495D01*
X41678495Y-23731401D01*
X41808426Y-23545839D01*
X41863002Y-23502216D01*
X41932500Y-23495022D01*
X41994855Y-23526545D01*
X42011571Y-23545837D01*
X42141505Y-23731401D01*
X42308599Y-23898495D01*
X42502170Y-24034035D01*
X42716337Y-24133903D01*
X42944592Y-24195063D01*
X43180000Y-24215659D01*
X43415408Y-24195063D01*
X43643663Y-24133903D01*
X43857830Y-24034035D01*
X44051401Y-23898495D01*
X44218495Y-23731401D01*
X44348426Y-23545839D01*
X44403002Y-23502216D01*
X44472500Y-23495022D01*
X44534855Y-23526545D01*
X44551571Y-23545837D01*
X44681505Y-23731401D01*
X44848599Y-23898495D01*
X45042170Y-24034035D01*
X45256337Y-24133903D01*
X45484592Y-24195063D01*
X45720000Y-24215659D01*
X45955408Y-24195063D01*
X46183663Y-24133903D01*
X46397830Y-24034035D01*
X46591401Y-23898495D01*
X46758495Y-23731401D01*
X46888426Y-23545839D01*
X46943002Y-23502216D01*
X47012500Y-23495022D01*
X47074855Y-23526545D01*
X47091571Y-23545837D01*
X47221505Y-23731401D01*
X47388599Y-23898495D01*
X47582170Y-24034035D01*
X47796337Y-24133903D01*
X48008059Y-24190633D01*
X48024592Y-24195063D01*
X48259999Y-24215659D01*
X48259999Y-24215658D01*
X48260000Y-24215659D01*
X48495408Y-24195063D01*
X48723663Y-24133903D01*
X48937830Y-24034035D01*
X49131401Y-23898495D01*
X49298495Y-23731401D01*
X49428732Y-23545403D01*
X49483307Y-23501780D01*
X49552805Y-23494586D01*
X49615160Y-23526109D01*
X49631880Y-23545404D01*
X49761893Y-23731081D01*
X49928918Y-23898106D01*
X50122423Y-24033600D01*
X50336509Y-24133430D01*
X50550000Y-24190634D01*
X50550000Y-23295501D01*
X50657685Y-23344680D01*
X50764237Y-23360000D01*
X50835763Y-23360000D01*
X50942315Y-23344680D01*
X51049999Y-23295501D01*
X51049999Y-24190633D01*
X51263491Y-24133430D01*
X51477576Y-24033600D01*
X51671081Y-23898106D01*
X51838106Y-23731081D01*
X51973600Y-23537576D01*
X52073430Y-23323492D01*
X52130636Y-23110000D01*
X51233686Y-23110000D01*
X51259493Y-23069844D01*
X51300000Y-22931889D01*
X51300000Y-22788111D01*
X51259493Y-22650156D01*
X51233686Y-22610000D01*
X52130636Y-22610000D01*
X52130635Y-22609999D01*
X52073430Y-22396507D01*
X51973599Y-22182421D01*
X51838109Y-21988921D01*
X51671080Y-21821892D01*
X51484968Y-21691574D01*
X51441343Y-21636996D01*
X51434151Y-21567498D01*
X51465673Y-21505143D01*
X51484969Y-21488424D01*
X51671078Y-21358109D01*
X51838106Y-21191081D01*
X51973600Y-20997576D01*
X52073430Y-20783492D01*
X52130636Y-20570000D01*
X51233686Y-20570000D01*
X51259493Y-20529844D01*
X51300000Y-20391889D01*
X51300000Y-20248111D01*
X51259493Y-20110156D01*
X51233686Y-20070000D01*
X52130636Y-20070000D01*
X52130635Y-20069999D01*
X52073430Y-19856507D01*
X51973599Y-19642421D01*
X51838109Y-19448921D01*
X51671081Y-19281893D01*
X51477576Y-19146399D01*
X51263492Y-19046569D01*
X51049999Y-18989364D01*
X51049999Y-19884498D01*
X50942315Y-19835320D01*
X50835763Y-19820000D01*
X50764237Y-19820000D01*
X50657685Y-19835320D01*
X50550000Y-19884498D01*
X50550000Y-18989364D01*
X50549999Y-18989364D01*
X50336507Y-19046569D01*
X50122421Y-19146400D01*
X49928921Y-19281890D01*
X49761893Y-19448918D01*
X49631880Y-19634596D01*
X49577303Y-19678220D01*
X49507804Y-19685413D01*
X49445450Y-19653891D01*
X49428730Y-19634595D01*
X49298495Y-19448599D01*
X49131401Y-19281505D01*
X48937830Y-19145965D01*
X48723663Y-19046097D01*
X48662502Y-19029709D01*
X48495407Y-18984936D01*
X48259999Y-18964340D01*
X48024592Y-18984936D01*
X47796336Y-19046097D01*
X47582170Y-19145965D01*
X47388598Y-19281505D01*
X47221508Y-19448595D01*
X47091574Y-19634160D01*
X47036997Y-19677785D01*
X46967498Y-19684977D01*
X46905144Y-19653455D01*
X46888429Y-19634164D01*
X46758495Y-19448599D01*
X46591401Y-19281505D01*
X46397830Y-19145965D01*
X46183663Y-19046097D01*
X46122502Y-19029709D01*
X45955407Y-18984936D01*
X45719999Y-18964340D01*
X45484592Y-18984936D01*
X45256336Y-19046097D01*
X45042170Y-19145965D01*
X44848598Y-19281505D01*
X44681508Y-19448595D01*
X44551574Y-19634160D01*
X44496997Y-19677785D01*
X44427498Y-19684977D01*
X44365144Y-19653455D01*
X44348429Y-19634164D01*
X44218495Y-19448599D01*
X44051401Y-19281505D01*
X43857830Y-19145965D01*
X43643663Y-19046097D01*
X43582502Y-19029709D01*
X43415407Y-18984936D01*
X43180000Y-18964340D01*
X42944592Y-18984936D01*
X42716336Y-19046097D01*
X42502170Y-19145965D01*
X42308598Y-19281505D01*
X42141505Y-19448598D01*
X42011575Y-19634159D01*
X41956998Y-19677784D01*
X41887500Y-19684978D01*
X41825145Y-19653455D01*
X41808425Y-19634159D01*
X41678494Y-19448598D01*
X41511404Y-19281508D01*
X41511403Y-19281507D01*
X41511401Y-19281505D01*
X41317830Y-19145965D01*
X41103663Y-19046097D01*
X41042502Y-19029709D01*
X40875407Y-18984936D01*
X40640000Y-18964340D01*
X40404592Y-18984936D01*
X40176336Y-19046097D01*
X39962170Y-19145965D01*
X39768598Y-19281505D01*
X39601505Y-19448598D01*
X39471575Y-19634159D01*
X39416998Y-19677784D01*
X39347500Y-19684978D01*
X39285145Y-19653455D01*
X39268425Y-19634159D01*
X39138494Y-19448598D01*
X38971404Y-19281508D01*
X38971401Y-19281505D01*
X38777830Y-19145965D01*
X38563663Y-19046097D01*
X38502502Y-19029709D01*
X38335407Y-18984936D01*
X38100000Y-18964340D01*
X37864592Y-18984936D01*
X37636336Y-19046097D01*
X37422170Y-19145965D01*
X37228598Y-19281505D01*
X37061505Y-19448598D01*
X36931575Y-19634159D01*
X36876998Y-19677784D01*
X36807500Y-19684978D01*
X36745145Y-19653455D01*
X36728425Y-19634159D01*
X36598494Y-19448598D01*
X36431404Y-19281508D01*
X36431401Y-19281505D01*
X36237830Y-19145965D01*
X36023663Y-19046097D01*
X35962502Y-19029709D01*
X35795407Y-18984936D01*
X35560000Y-18964340D01*
X35324592Y-18984936D01*
X35096336Y-19046097D01*
X34882170Y-19145965D01*
X34688598Y-19281505D01*
X34521505Y-19448598D01*
X34391575Y-19634159D01*
X34336998Y-19677784D01*
X34267500Y-19684978D01*
X34205145Y-19653455D01*
X34188425Y-19634159D01*
X34058494Y-19448598D01*
X33891404Y-19281508D01*
X33891401Y-19281505D01*
X33697830Y-19145965D01*
X33483663Y-19046097D01*
X33422502Y-19029709D01*
X33255407Y-18984936D01*
X33019999Y-18964340D01*
X32784592Y-18984936D01*
X32556336Y-19046097D01*
X32342170Y-19145965D01*
X32148598Y-19281505D01*
X31981505Y-19448598D01*
X31851575Y-19634159D01*
X31796998Y-19677784D01*
X31727500Y-19684978D01*
X31665145Y-19653455D01*
X31648425Y-19634159D01*
X31518494Y-19448598D01*
X31351404Y-19281508D01*
X31351401Y-19281505D01*
X31157830Y-19145965D01*
X30943663Y-19046097D01*
X30882502Y-19029709D01*
X30715407Y-18984936D01*
X30480000Y-18964340D01*
X30244592Y-18984936D01*
X30016336Y-19046097D01*
X29802170Y-19145965D01*
X29608598Y-19281505D01*
X29441505Y-19448598D01*
X29311575Y-19634159D01*
X29256998Y-19677784D01*
X29187500Y-19684978D01*
X29125145Y-19653455D01*
X29108425Y-19634159D01*
X28978494Y-19448598D01*
X28811404Y-19281508D01*
X28811401Y-19281505D01*
X28617830Y-19145965D01*
X28403663Y-19046097D01*
X28342501Y-19029709D01*
X28175407Y-18984936D01*
X27939999Y-18964340D01*
X27704592Y-18984936D01*
X27476336Y-19046097D01*
X27262170Y-19145965D01*
X27068598Y-19281505D01*
X26901505Y-19448598D01*
X26771575Y-19634159D01*
X26716998Y-19677784D01*
X26647500Y-19684978D01*
X26585145Y-19653455D01*
X26568425Y-19634159D01*
X26438494Y-19448598D01*
X26271404Y-19281508D01*
X26271401Y-19281505D01*
X26077830Y-19145965D01*
X25863663Y-19046097D01*
X25802501Y-19029709D01*
X25635407Y-18984936D01*
X25399999Y-18964340D01*
X25164592Y-18984936D01*
X24936336Y-19046097D01*
X24722170Y-19145965D01*
X24528598Y-19281505D01*
X24361508Y-19448595D01*
X24231574Y-19634160D01*
X24176997Y-19677785D01*
X24107498Y-19684977D01*
X24045144Y-19653455D01*
X24028429Y-19634164D01*
X23898495Y-19448599D01*
X23731401Y-19281505D01*
X23537830Y-19145965D01*
X23323663Y-19046097D01*
X23262501Y-19029709D01*
X23095407Y-18984936D01*
X22860000Y-18964340D01*
X22624592Y-18984936D01*
X22396336Y-19046097D01*
X22182170Y-19145965D01*
X21988598Y-19281505D01*
X21821505Y-19448598D01*
X21691575Y-19634159D01*
X21636998Y-19677784D01*
X21567500Y-19684978D01*
X21505145Y-19653455D01*
X21488425Y-19634159D01*
X21358494Y-19448598D01*
X21191404Y-19281508D01*
X21191401Y-19281505D01*
X20997830Y-19145965D01*
X20783663Y-19046097D01*
X20722502Y-19029709D01*
X20555407Y-18984936D01*
X20320000Y-18964340D01*
X20084592Y-18984936D01*
X19856336Y-19046097D01*
X19642170Y-19145965D01*
X19448598Y-19281505D01*
X19281505Y-19448598D01*
X19151575Y-19634159D01*
X19096998Y-19677784D01*
X19027500Y-19684978D01*
X18965145Y-19653455D01*
X18948425Y-19634159D01*
X18818494Y-19448598D01*
X18651404Y-19281508D01*
X18651401Y-19281505D01*
X18457830Y-19145965D01*
X18243663Y-19046097D01*
X18182501Y-19029709D01*
X18015407Y-18984936D01*
X17780000Y-18964340D01*
X17544592Y-18984936D01*
X17316336Y-19046097D01*
X17102170Y-19145965D01*
X16908598Y-19281505D01*
X16741505Y-19448598D01*
X16611575Y-19634159D01*
X16556998Y-19677784D01*
X16487500Y-19684978D01*
X16425145Y-19653455D01*
X16408425Y-19634159D01*
X16278494Y-19448598D01*
X16111404Y-19281508D01*
X16111401Y-19281505D01*
X15917830Y-19145965D01*
X15703663Y-19046097D01*
X15642501Y-19029709D01*
X15475407Y-18984936D01*
X15240000Y-18964340D01*
X15004592Y-18984936D01*
X14776336Y-19046097D01*
X14562170Y-19145965D01*
X14368598Y-19281505D01*
X14201505Y-19448598D01*
X14071575Y-19634159D01*
X14016998Y-19677784D01*
X13947500Y-19684978D01*
X13885145Y-19653455D01*
X13868425Y-19634159D01*
X13738494Y-19448598D01*
X13571404Y-19281508D01*
X13571404Y-19281507D01*
X13571401Y-19281505D01*
X13377830Y-19145965D01*
X13163663Y-19046097D01*
X13102501Y-19029709D01*
X12935407Y-18984936D01*
X12700000Y-18964340D01*
X12464592Y-18984936D01*
X12236336Y-19046097D01*
X12022170Y-19145965D01*
X11828598Y-19281505D01*
X11661505Y-19448598D01*
X11531575Y-19634159D01*
X11476998Y-19677784D01*
X11407500Y-19684978D01*
X11345145Y-19653455D01*
X11328425Y-19634159D01*
X11198494Y-19448598D01*
X11031404Y-19281508D01*
X11031404Y-19281507D01*
X11031401Y-19281505D01*
X10837830Y-19145965D01*
X10623663Y-19046097D01*
X10562502Y-19029709D01*
X10395407Y-18984936D01*
X10160000Y-18964340D01*
X9924592Y-18984936D01*
X9696336Y-19046097D01*
X9482170Y-19145965D01*
X9288598Y-19281505D01*
X9121505Y-19448598D01*
X8991575Y-19634159D01*
X8936998Y-19677784D01*
X8867500Y-19684978D01*
X8805145Y-19653455D01*
X8788425Y-19634159D01*
X8658494Y-19448598D01*
X8491404Y-19281508D01*
X8491404Y-19281507D01*
X8491401Y-19281505D01*
X8297830Y-19145965D01*
X8083663Y-19046097D01*
X8022501Y-19029709D01*
X7855407Y-18984936D01*
X7619999Y-18964340D01*
X7384592Y-18984936D01*
X7156336Y-19046097D01*
X6942170Y-19145965D01*
X6748598Y-19281505D01*
X6581505Y-19448598D01*
X6451575Y-19634159D01*
X6396998Y-19677784D01*
X6327500Y-19684978D01*
X6265145Y-19653455D01*
X6248425Y-19634159D01*
X6118494Y-19448598D01*
X5951404Y-19281508D01*
X5951403Y-19281507D01*
X5951401Y-19281505D01*
X5757830Y-19145965D01*
X5543663Y-19046097D01*
X5482501Y-19029709D01*
X5315407Y-18984936D01*
X5079999Y-18964340D01*
X4844592Y-18984936D01*
X4616336Y-19046097D01*
X4402170Y-19145965D01*
X4208601Y-19281503D01*
X4086673Y-19403431D01*
X4025350Y-19436915D01*
X3955658Y-19431931D01*
X3899725Y-19390059D01*
X3882810Y-19359082D01*
X3854019Y-19281890D01*
X3833796Y-19227669D01*
X3747546Y-19112454D01*
X3632331Y-19026204D01*
X3497483Y-18975909D01*
X3437873Y-18969500D01*
X3434550Y-18969500D01*
X1645439Y-18969500D01*
X1645420Y-18969500D01*
X1642128Y-18969501D01*
X1638848Y-18969853D01*
X1638840Y-18969854D01*
X1582515Y-18975909D01*
X1447669Y-19026204D01*
X1332454Y-19112454D01*
X1246204Y-19227668D01*
X1225980Y-19281893D01*
X1195909Y-19362517D01*
X1189500Y-19422127D01*
X1189500Y-19425448D01*
X1189500Y-19425449D01*
X1189500Y-21214560D01*
X1189500Y-21214578D01*
X1189501Y-21217872D01*
X1189853Y-21221152D01*
X1189854Y-21221159D01*
X1195909Y-21277484D01*
X1246204Y-21412332D01*
X1323577Y-21515690D01*
X1347994Y-21581154D01*
X1333142Y-21649427D01*
X1323577Y-21664310D01*
X1246205Y-21767666D01*
X1246203Y-21767669D01*
X1246204Y-21767669D01*
X1195909Y-21902517D01*
X1189500Y-21962127D01*
X1189500Y-21965448D01*
X1189500Y-21965449D01*
X1189500Y-23754560D01*
X1189500Y-23754578D01*
X254000Y-23754578D01*
X254000Y-13716000D01*
X2142540Y-13716000D01*
X2162326Y-13904257D01*
X2220820Y-14084284D01*
X2315466Y-14248216D01*
X2442129Y-14388889D01*
X2595269Y-14500151D01*
X2768197Y-14577144D01*
X2953352Y-14616500D01*
X2953354Y-14616500D01*
X3142648Y-14616500D01*
X3266084Y-14590262D01*
X3327803Y-14577144D01*
X3500730Y-14500151D01*
X3503693Y-14497998D01*
X3653870Y-14388889D01*
X3780533Y-14248216D01*
X3794514Y-14224000D01*
X4682540Y-14224000D01*
X4702326Y-14412257D01*
X4760820Y-14592284D01*
X4855466Y-14756216D01*
X4982129Y-14896889D01*
X5135269Y-15008151D01*
X5308197Y-15085144D01*
X5493352Y-15124500D01*
X5493354Y-15124500D01*
X5682648Y-15124500D01*
X5806120Y-15098255D01*
X5867803Y-15085144D01*
X6040730Y-15008151D01*
X6193871Y-14896888D01*
X6320533Y-14756216D01*
X6367974Y-14674043D01*
X6418540Y-14625829D01*
X6487146Y-14612605D01*
X6501138Y-14614753D01*
X6509354Y-14616500D01*
X6509355Y-14616500D01*
X6698648Y-14616500D01*
X6822084Y-14590262D01*
X6883803Y-14577144D01*
X7056730Y-14500151D01*
X7059693Y-14497998D01*
X7209870Y-14388889D01*
X7278100Y-14313112D01*
X7336533Y-14248216D01*
X7383974Y-14166043D01*
X7434540Y-14117829D01*
X7503146Y-14104605D01*
X7517138Y-14106753D01*
X7525354Y-14108500D01*
X7525355Y-14108500D01*
X7602903Y-14108500D01*
X7669942Y-14128185D01*
X7715697Y-14180989D01*
X7726224Y-14219538D01*
X7726241Y-14219700D01*
X7726241Y-14219701D01*
X7729238Y-14248216D01*
X7746027Y-14407958D01*
X7804521Y-14587985D01*
X7899167Y-14751917D01*
X8025830Y-14892590D01*
X8178970Y-15003852D01*
X8351898Y-15080845D01*
X8537053Y-15120201D01*
X8537055Y-15120201D01*
X8726349Y-15120201D01*
X8849784Y-15093963D01*
X8911504Y-15080845D01*
X9084431Y-15003852D01*
X9085602Y-15003001D01*
X9109003Y-14985999D01*
X14118040Y-14985999D01*
X14137826Y-15174257D01*
X14196320Y-15354284D01*
X14290966Y-15518216D01*
X14417629Y-15658889D01*
X14570769Y-15770151D01*
X14743697Y-15847144D01*
X14928852Y-15886500D01*
X14928854Y-15886500D01*
X15118148Y-15886500D01*
X15241583Y-15860262D01*
X15303303Y-15847144D01*
X15476230Y-15770151D01*
X15576913Y-15697001D01*
X15629370Y-15658889D01*
X15756033Y-15518216D01*
X15850679Y-15354284D01*
X15874447Y-15281134D01*
X15909174Y-15174256D01*
X15928960Y-14986000D01*
X15909174Y-14797744D01*
X15892346Y-14745955D01*
X15890350Y-14676118D01*
X15926430Y-14616284D01*
X15984495Y-14586349D01*
X16027803Y-14577144D01*
X16027804Y-14577143D01*
X16027806Y-14577143D01*
X16200730Y-14500151D01*
X16353870Y-14388889D01*
X16480533Y-14248216D01*
X16529613Y-14163207D01*
X16580179Y-14114992D01*
X16648786Y-14101768D01*
X16713651Y-14127736D01*
X16744387Y-14163207D01*
X16793466Y-14248216D01*
X16920129Y-14388889D01*
X17073269Y-14500151D01*
X17246197Y-14577144D01*
X17289501Y-14586349D01*
X17350983Y-14619541D01*
X17384760Y-14680704D01*
X17381653Y-14745955D01*
X17364826Y-14797743D01*
X17345040Y-14986000D01*
X17364826Y-15174257D01*
X17423320Y-15354284D01*
X17517966Y-15518216D01*
X17644629Y-15658889D01*
X17797769Y-15770151D01*
X17970697Y-15847144D01*
X18155852Y-15886500D01*
X18155854Y-15886500D01*
X18345148Y-15886500D01*
X18468583Y-15860262D01*
X18530303Y-15847144D01*
X18703230Y-15770151D01*
X18803913Y-15697001D01*
X18856370Y-15658889D01*
X18983033Y-15518216D01*
X19077679Y-15354284D01*
X19101447Y-15281134D01*
X19136174Y-15174256D01*
X19155960Y-14986000D01*
X19136174Y-14797744D01*
X19130023Y-14778816D01*
X19128029Y-14708978D01*
X19164109Y-14649145D01*
X19226810Y-14618316D01*
X19247955Y-14616500D01*
X19398648Y-14616500D01*
X19583800Y-14577145D01*
X19583801Y-14577144D01*
X19583803Y-14577144D01*
X19756730Y-14500151D01*
X19756735Y-14500146D01*
X19761562Y-14497998D01*
X19830812Y-14488712D01*
X19862435Y-14497998D01*
X19867268Y-14500150D01*
X19867270Y-14500151D01*
X19937896Y-14531596D01*
X20040197Y-14577144D01*
X20225352Y-14616500D01*
X20225354Y-14616500D01*
X20414648Y-14616500D01*
X20538083Y-14590262D01*
X20599803Y-14577144D01*
X20772730Y-14500151D01*
X20775693Y-14497998D01*
X20925870Y-14388889D01*
X20989850Y-14317832D01*
X21049336Y-14281183D01*
X21119193Y-14282513D01*
X21174150Y-14317832D01*
X21238129Y-14388889D01*
X21391269Y-14500151D01*
X21564197Y-14577144D01*
X21642579Y-14593805D01*
X21704061Y-14626997D01*
X21737838Y-14688160D01*
X21734730Y-14753412D01*
X21720326Y-14797740D01*
X21700540Y-14986000D01*
X21720326Y-15174257D01*
X21778820Y-15354284D01*
X21873466Y-15518216D01*
X22000129Y-15658889D01*
X22153269Y-15770151D01*
X22326197Y-15847144D01*
X22511352Y-15886500D01*
X22511354Y-15886500D01*
X22700648Y-15886500D01*
X22824084Y-15860262D01*
X22885803Y-15847144D01*
X23058730Y-15770151D01*
X23159413Y-15697001D01*
X23211870Y-15658889D01*
X23338533Y-15518216D01*
X23433179Y-15354284D01*
X23456947Y-15281134D01*
X23491674Y-15174256D01*
X23511460Y-14986000D01*
X23986540Y-14986000D01*
X24006326Y-15174257D01*
X24064820Y-15354284D01*
X24159466Y-15518216D01*
X24286129Y-15658889D01*
X24439269Y-15770151D01*
X24612197Y-15847144D01*
X24797352Y-15886500D01*
X24797354Y-15886500D01*
X24986648Y-15886500D01*
X25110084Y-15860262D01*
X25171803Y-15847144D01*
X25344730Y-15770151D01*
X25445413Y-15697001D01*
X25454115Y-15690679D01*
X25519921Y-15667199D01*
X25587975Y-15683024D01*
X25599885Y-15690679D01*
X25709269Y-15770151D01*
X25882197Y-15847144D01*
X26067352Y-15886500D01*
X26067354Y-15886500D01*
X26256648Y-15886500D01*
X26380084Y-15860262D01*
X26441803Y-15847144D01*
X26614730Y-15770151D01*
X26767871Y-15658888D01*
X26894533Y-15518216D01*
X26894535Y-15518212D01*
X26901356Y-15510637D01*
X26960842Y-15473988D01*
X27030699Y-15475318D01*
X27085656Y-15510637D01*
X27153278Y-15585739D01*
X27306418Y-15697001D01*
X27479346Y-15773994D01*
X27664501Y-15813350D01*
X27664503Y-15813350D01*
X27853797Y-15813350D01*
X27977233Y-15787112D01*
X28038952Y-15773994D01*
X28211879Y-15697001D01*
X28365020Y-15585738D01*
X28491682Y-15445066D01*
X28586328Y-15281134D01*
X28644823Y-15101106D01*
X28656921Y-14986000D01*
X33638540Y-14986000D01*
X33658326Y-15174257D01*
X33716820Y-15354284D01*
X33811466Y-15518216D01*
X33938129Y-15658889D01*
X34091269Y-15770151D01*
X34264197Y-15847144D01*
X34449352Y-15886500D01*
X34449354Y-15886500D01*
X34638648Y-15886500D01*
X34762084Y-15860262D01*
X34823803Y-15847144D01*
X34996730Y-15770151D01*
X35097413Y-15697001D01*
X35149870Y-15658889D01*
X35276533Y-15518216D01*
X35325613Y-15433207D01*
X35376179Y-15384992D01*
X35444786Y-15371768D01*
X35509651Y-15397736D01*
X35540387Y-15433207D01*
X35589466Y-15518216D01*
X35716129Y-15658889D01*
X35869269Y-15770151D01*
X36042197Y-15847144D01*
X36227352Y-15886500D01*
X36227354Y-15886500D01*
X36416648Y-15886500D01*
X36540084Y-15860262D01*
X36601803Y-15847144D01*
X36774730Y-15770151D01*
X36875413Y-15697001D01*
X36927870Y-15658889D01*
X36991850Y-15587832D01*
X37051336Y-15551183D01*
X37121193Y-15552513D01*
X37176150Y-15587832D01*
X37240129Y-15658889D01*
X37393269Y-15770151D01*
X37566197Y-15847144D01*
X37751352Y-15886500D01*
X37751354Y-15886500D01*
X37940648Y-15886500D01*
X38064084Y-15860262D01*
X38125803Y-15847144D01*
X38298730Y-15770151D01*
X38399413Y-15697001D01*
X38451870Y-15658889D01*
X38578533Y-15518216D01*
X38673179Y-15354284D01*
X38696947Y-15281134D01*
X38731674Y-15174256D01*
X38738679Y-15107599D01*
X38765263Y-15042986D01*
X38822561Y-15003001D01*
X38892380Y-15000341D01*
X38952553Y-15035850D01*
X38983977Y-15098255D01*
X38985318Y-15107586D01*
X38986645Y-15120201D01*
X38992326Y-15174257D01*
X39050820Y-15354284D01*
X39145466Y-15518216D01*
X39272129Y-15658889D01*
X39425269Y-15770151D01*
X39598197Y-15847144D01*
X39783352Y-15886500D01*
X39783354Y-15886500D01*
X39972648Y-15886500D01*
X40096084Y-15860262D01*
X40157803Y-15847144D01*
X40330730Y-15770151D01*
X40431413Y-15697001D01*
X40483870Y-15658889D01*
X40610533Y-15518216D01*
X40705179Y-15354284D01*
X40728947Y-15281134D01*
X40763674Y-15174256D01*
X40783460Y-14986000D01*
X40763674Y-14797744D01*
X40705179Y-14617716D01*
X40705179Y-14617715D01*
X40610533Y-14453783D01*
X40483870Y-14313110D01*
X40330730Y-14201848D01*
X40157802Y-14124855D01*
X39972648Y-14085500D01*
X39972646Y-14085500D01*
X39859455Y-14085500D01*
X39792416Y-14065815D01*
X39746661Y-14013011D01*
X39736717Y-13943853D01*
X39741521Y-13923190D01*
X39747674Y-13904256D01*
X39767460Y-13716000D01*
X39747674Y-13527744D01*
X39697358Y-13372888D01*
X39689179Y-13347715D01*
X39594533Y-13183783D01*
X39467870Y-13043110D01*
X39314730Y-12931848D01*
X39141802Y-12854855D01*
X38956648Y-12815500D01*
X38956646Y-12815500D01*
X38767354Y-12815500D01*
X38767352Y-12815500D01*
X38582197Y-12854855D01*
X38409269Y-12931848D01*
X38304184Y-13008197D01*
X38238378Y-13031677D01*
X38170324Y-13015851D01*
X38158414Y-13008197D01*
X38053328Y-12931848D01*
X37880400Y-12854855D01*
X37695246Y-12815500D01*
X37695244Y-12815500D01*
X37505952Y-12815500D01*
X37505950Y-12815500D01*
X37320795Y-12854855D01*
X37147867Y-12931848D01*
X36994727Y-13043110D01*
X36868064Y-13183783D01*
X36773418Y-13347715D01*
X36714924Y-13527742D01*
X36695138Y-13715999D01*
X36714924Y-13904257D01*
X36733942Y-13962787D01*
X36735937Y-14032628D01*
X36699856Y-14092461D01*
X36637155Y-14123289D01*
X36590231Y-14122395D01*
X36416649Y-14085500D01*
X36416646Y-14085500D01*
X36227354Y-14085500D01*
X36227352Y-14085500D01*
X36042197Y-14124855D01*
X35869269Y-14201848D01*
X35716129Y-14313110D01*
X35589466Y-14453784D01*
X35540387Y-14538792D01*
X35489820Y-14587008D01*
X35421213Y-14600231D01*
X35356348Y-14574263D01*
X35325613Y-14538792D01*
X35276533Y-14453784D01*
X35149870Y-14313110D01*
X34996730Y-14201848D01*
X34823802Y-14124855D01*
X34638648Y-14085500D01*
X34638646Y-14085500D01*
X34449354Y-14085500D01*
X34449352Y-14085500D01*
X34264197Y-14124855D01*
X34091269Y-14201848D01*
X33938129Y-14313110D01*
X33811466Y-14453783D01*
X33716820Y-14617715D01*
X33658326Y-14797742D01*
X33638540Y-14986000D01*
X28656921Y-14986000D01*
X28664609Y-14912850D01*
X28647856Y-14753458D01*
X28660425Y-14684732D01*
X28708157Y-14633708D01*
X28771177Y-14616500D01*
X28796648Y-14616500D01*
X28920083Y-14590262D01*
X28981803Y-14577144D01*
X29154730Y-14500151D01*
X29157693Y-14497998D01*
X29307870Y-14388889D01*
X29371850Y-14317832D01*
X29431336Y-14281183D01*
X29501193Y-14282513D01*
X29556150Y-14317832D01*
X29620129Y-14388889D01*
X29773269Y-14500151D01*
X29946197Y-14577144D01*
X30131352Y-14616500D01*
X30131354Y-14616500D01*
X30320648Y-14616500D01*
X30444083Y-14590262D01*
X30505803Y-14577144D01*
X30678730Y-14500151D01*
X30681693Y-14497998D01*
X30831870Y-14388889D01*
X30958533Y-14248216D01*
X31053179Y-14084284D01*
X31094847Y-13956043D01*
X31111674Y-13904256D01*
X31131460Y-13716000D01*
X31120205Y-13608917D01*
X31132774Y-13540190D01*
X31180506Y-13489166D01*
X31248247Y-13472048D01*
X31293962Y-13482679D01*
X31470194Y-13561143D01*
X31470195Y-13561143D01*
X31470197Y-13561144D01*
X31510269Y-13569661D01*
X31571750Y-13602851D01*
X31605528Y-13664013D01*
X31607810Y-13703909D01*
X31606539Y-13715996D01*
X31626326Y-13904257D01*
X31684820Y-14084284D01*
X31779466Y-14248216D01*
X31906129Y-14388889D01*
X32059269Y-14500151D01*
X32232197Y-14577144D01*
X32417352Y-14616500D01*
X32417354Y-14616500D01*
X32606648Y-14616500D01*
X32730083Y-14590262D01*
X32791803Y-14577144D01*
X32964730Y-14500151D01*
X32967693Y-14497998D01*
X33117870Y-14388889D01*
X33244533Y-14248216D01*
X33339179Y-14084284D01*
X33380847Y-13956043D01*
X33397674Y-13904256D01*
X33417460Y-13716000D01*
X33397674Y-13527744D01*
X33347358Y-13372888D01*
X33339179Y-13347715D01*
X33244533Y-13183783D01*
X33117870Y-13043110D01*
X32964730Y-12931848D01*
X32791803Y-12854855D01*
X32751728Y-12846337D01*
X32690247Y-12813144D01*
X32656470Y-12751981D01*
X32654190Y-12712083D01*
X32655460Y-12700000D01*
X42020540Y-12700000D01*
X42025061Y-12743011D01*
X42040326Y-12888257D01*
X42098820Y-13068284D01*
X42193466Y-13232216D01*
X42320129Y-13372889D01*
X42473269Y-13484151D01*
X42646197Y-13561144D01*
X42831352Y-13600500D01*
X42831354Y-13600500D01*
X43020648Y-13600500D01*
X43165738Y-13569660D01*
X43205803Y-13561144D01*
X43378730Y-13484151D01*
X43378731Y-13484150D01*
X43390541Y-13478892D01*
X43459791Y-13469607D01*
X43491413Y-13478892D01*
X43493568Y-13479851D01*
X43493569Y-13479852D01*
X43503225Y-13484151D01*
X43666496Y-13556845D01*
X43851651Y-13596201D01*
X43851653Y-13596201D01*
X44040947Y-13596201D01*
X44165812Y-13569660D01*
X44226102Y-13556845D01*
X44399029Y-13479852D01*
X44514088Y-13396257D01*
X44552169Y-13368590D01*
X44590399Y-13326132D01*
X44678832Y-13227917D01*
X44773478Y-13063985D01*
X44831973Y-12883957D01*
X44851759Y-12695701D01*
X44831973Y-12507445D01*
X44773478Y-12327417D01*
X44773478Y-12327416D01*
X44678834Y-12163487D01*
X44600510Y-12076500D01*
X44552170Y-12022813D01*
X44552166Y-12022810D01*
X44546427Y-12016436D01*
X44516197Y-11953444D01*
X44524822Y-11884109D01*
X44546428Y-11850490D01*
X44547869Y-11848889D01*
X44547871Y-11848888D01*
X44674533Y-11708216D01*
X44769179Y-11544284D01*
X44827674Y-11364256D01*
X44847460Y-11176000D01*
X44827674Y-10987744D01*
X44769179Y-10807716D01*
X44769179Y-10807715D01*
X44674533Y-10643783D01*
X44547870Y-10503110D01*
X44394730Y-10391848D01*
X44221802Y-10314855D01*
X44036648Y-10275500D01*
X44036646Y-10275500D01*
X43847354Y-10275500D01*
X43847352Y-10275500D01*
X43662197Y-10314855D01*
X43489269Y-10391848D01*
X43336129Y-10503110D01*
X43209466Y-10643783D01*
X43114820Y-10807715D01*
X43056326Y-10987742D01*
X43036540Y-11176000D01*
X43056326Y-11364257D01*
X43114820Y-11544283D01*
X43156701Y-11616824D01*
X43173172Y-11684724D01*
X43150320Y-11750751D01*
X43095398Y-11793941D01*
X43025845Y-11800582D01*
X43023533Y-11800113D01*
X43020649Y-11799500D01*
X43020646Y-11799500D01*
X42831354Y-11799500D01*
X42831352Y-11799500D01*
X42646197Y-11838855D01*
X42473269Y-11915848D01*
X42320129Y-12027110D01*
X42193466Y-12167783D01*
X42098820Y-12331715D01*
X42040326Y-12511742D01*
X42040325Y-12511744D01*
X42040326Y-12511744D01*
X42020540Y-12700000D01*
X32655460Y-12700000D01*
X32652915Y-12675783D01*
X32635674Y-12511744D01*
X32605332Y-12418363D01*
X32577179Y-12331715D01*
X32482533Y-12167783D01*
X32355870Y-12027110D01*
X32202730Y-11915848D01*
X32029802Y-11838855D01*
X31844648Y-11799500D01*
X31844646Y-11799500D01*
X31655354Y-11799500D01*
X31655352Y-11799500D01*
X31470197Y-11838855D01*
X31297269Y-11915848D01*
X31144129Y-12027110D01*
X31017466Y-12167783D01*
X30922820Y-12331715D01*
X30864326Y-12511742D01*
X30844540Y-12700000D01*
X30855794Y-12807080D01*
X30843224Y-12875810D01*
X30795492Y-12926833D01*
X30727751Y-12943951D01*
X30682038Y-12933321D01*
X30505801Y-12854855D01*
X30465728Y-12846337D01*
X30404247Y-12813144D01*
X30370470Y-12751981D01*
X30368190Y-12712083D01*
X30369460Y-12700000D01*
X30366915Y-12675783D01*
X30349674Y-12511744D01*
X30319332Y-12418363D01*
X30291179Y-12331715D01*
X30196533Y-12167783D01*
X30069870Y-12027110D01*
X29916730Y-11915848D01*
X29743802Y-11838855D01*
X29558648Y-11799500D01*
X29558646Y-11799500D01*
X29369354Y-11799500D01*
X29369352Y-11799500D01*
X29184197Y-11838855D01*
X29011269Y-11915848D01*
X28858129Y-12027110D01*
X28731466Y-12167783D01*
X28636820Y-12331715D01*
X28578326Y-12511742D01*
X28558540Y-12700000D01*
X28559810Y-12712088D01*
X28547239Y-12780818D01*
X28499506Y-12831840D01*
X28462271Y-12846337D01*
X28422196Y-12854855D01*
X28249269Y-12931848D01*
X28096129Y-13043110D01*
X27969466Y-13183783D01*
X27874820Y-13347715D01*
X27816326Y-13527742D01*
X27799085Y-13691783D01*
X27796540Y-13716000D01*
X27813292Y-13875391D01*
X27800724Y-13944118D01*
X27752992Y-13995142D01*
X27689972Y-14012350D01*
X27664501Y-14012350D01*
X27479346Y-14051705D01*
X27306418Y-14128698D01*
X27153278Y-14239960D01*
X27019792Y-14388212D01*
X26960305Y-14424861D01*
X26890448Y-14423530D01*
X26835492Y-14388212D01*
X26767870Y-14313110D01*
X26614730Y-14201848D01*
X26441802Y-14124855D01*
X26256648Y-14085500D01*
X26256646Y-14085500D01*
X26067354Y-14085500D01*
X26067352Y-14085500D01*
X25882197Y-14124855D01*
X25709269Y-14201848D01*
X25599885Y-14281321D01*
X25534079Y-14304801D01*
X25466025Y-14288976D01*
X25454115Y-14281321D01*
X25344730Y-14201848D01*
X25171802Y-14124855D01*
X24986648Y-14085500D01*
X24986646Y-14085500D01*
X24797354Y-14085500D01*
X24797352Y-14085500D01*
X24612197Y-14124855D01*
X24439269Y-14201848D01*
X24286129Y-14313110D01*
X24159466Y-14453783D01*
X24064820Y-14617715D01*
X24006326Y-14797742D01*
X23986540Y-14986000D01*
X23511460Y-14986000D01*
X23491674Y-14797744D01*
X23433179Y-14617716D01*
X23433179Y-14617715D01*
X23338533Y-14453783D01*
X23211870Y-14313110D01*
X23058730Y-14201848D01*
X22885802Y-14124855D01*
X22807419Y-14108194D01*
X22745937Y-14075001D01*
X22712161Y-14013838D01*
X22715269Y-13948587D01*
X22729674Y-13904256D01*
X22749460Y-13716000D01*
X22729674Y-13527744D01*
X22679358Y-13372888D01*
X22671179Y-13347715D01*
X22576533Y-13183783D01*
X22449870Y-13043110D01*
X22296730Y-12931848D01*
X22123802Y-12854855D01*
X21938648Y-12815500D01*
X21938646Y-12815500D01*
X21749354Y-12815500D01*
X21749352Y-12815500D01*
X21564197Y-12854855D01*
X21391269Y-12931848D01*
X21238129Y-13043110D01*
X21174150Y-13114167D01*
X21114663Y-13150816D01*
X21044806Y-13149485D01*
X20989850Y-13114167D01*
X20925870Y-13043110D01*
X20772730Y-12931848D01*
X20599802Y-12854855D01*
X20414648Y-12815500D01*
X20414646Y-12815500D01*
X20225354Y-12815500D01*
X20225352Y-12815500D01*
X20040201Y-12854854D01*
X19862436Y-12934001D01*
X19793186Y-12943285D01*
X19761564Y-12934001D01*
X19630866Y-12875810D01*
X19583803Y-12854856D01*
X19583802Y-12854855D01*
X19583798Y-12854854D01*
X19398648Y-12815500D01*
X19398646Y-12815500D01*
X19209354Y-12815500D01*
X19209352Y-12815500D01*
X19024197Y-12854855D01*
X18851269Y-12931848D01*
X18698129Y-13043110D01*
X18571466Y-13183784D01*
X18522387Y-13268792D01*
X18471820Y-13317008D01*
X18403213Y-13330231D01*
X18338348Y-13304263D01*
X18307613Y-13268792D01*
X18258533Y-13183784D01*
X18131870Y-13043110D01*
X17978730Y-12931848D01*
X17805802Y-12854855D01*
X17620648Y-12815500D01*
X17620646Y-12815500D01*
X17431354Y-12815500D01*
X17431352Y-12815500D01*
X17246197Y-12854855D01*
X17073269Y-12931848D01*
X16920129Y-13043110D01*
X16793467Y-13183782D01*
X16744386Y-13268793D01*
X16693818Y-13317008D01*
X16625211Y-13330230D01*
X16560346Y-13304262D01*
X16529612Y-13268792D01*
X16480533Y-13183784D01*
X16480532Y-13183782D01*
X16353870Y-13043110D01*
X16200730Y-12931848D01*
X16027802Y-12854855D01*
X15842648Y-12815500D01*
X15842646Y-12815500D01*
X15653354Y-12815500D01*
X15653352Y-12815500D01*
X15468197Y-12854855D01*
X15295269Y-12931848D01*
X15142129Y-13043110D01*
X15015466Y-13183783D01*
X14920820Y-13347715D01*
X14862326Y-13527742D01*
X14842540Y-13715999D01*
X14862326Y-13904259D01*
X14879152Y-13956043D01*
X14881147Y-14025884D01*
X14845066Y-14085717D01*
X14787005Y-14115650D01*
X14743697Y-14124856D01*
X14570767Y-14201849D01*
X14417629Y-14313110D01*
X14290966Y-14453783D01*
X14196320Y-14617715D01*
X14137826Y-14797742D01*
X14118040Y-14985999D01*
X9109003Y-14985999D01*
X9237571Y-14892590D01*
X9364234Y-14751917D01*
X9458880Y-14587985D01*
X9487419Y-14500151D01*
X9517375Y-14407957D01*
X9537161Y-14219701D01*
X9537160Y-14219700D01*
X9537178Y-14219538D01*
X9563763Y-14154924D01*
X9621060Y-14114939D01*
X9660499Y-14108500D01*
X9746648Y-14108500D01*
X9870084Y-14082262D01*
X9931803Y-14069144D01*
X10104730Y-13992151D01*
X10171207Y-13943853D01*
X10257870Y-13880889D01*
X10265325Y-13872610D01*
X10384533Y-13740216D01*
X10479179Y-13576284D01*
X10537674Y-13396256D01*
X10557460Y-13208000D01*
X10537674Y-13019744D01*
X10490907Y-12875810D01*
X10479179Y-12839715D01*
X10398515Y-12700000D01*
X10778540Y-12700000D01*
X10798326Y-12888257D01*
X10856820Y-13068284D01*
X10951466Y-13232216D01*
X11078129Y-13372889D01*
X11231269Y-13484151D01*
X11404197Y-13561144D01*
X11589352Y-13600500D01*
X11670750Y-13600500D01*
X11737789Y-13620185D01*
X11783544Y-13672989D01*
X11794071Y-13711538D01*
X11814326Y-13904257D01*
X11872820Y-14084284D01*
X11967466Y-14248216D01*
X12094129Y-14388889D01*
X12247269Y-14500151D01*
X12420197Y-14577144D01*
X12605352Y-14616500D01*
X12605354Y-14616500D01*
X12794648Y-14616500D01*
X12918083Y-14590262D01*
X12979803Y-14577144D01*
X13152730Y-14500151D01*
X13155693Y-14497998D01*
X13305870Y-14388889D01*
X13432533Y-14248216D01*
X13527179Y-14084284D01*
X13568847Y-13956043D01*
X13585674Y-13904256D01*
X13605460Y-13716000D01*
X13585674Y-13527744D01*
X13535358Y-13372888D01*
X13527179Y-13347715D01*
X13432533Y-13183783D01*
X13305870Y-13043110D01*
X13152730Y-12931848D01*
X12979802Y-12854855D01*
X12794648Y-12815500D01*
X12794646Y-12815500D01*
X12713250Y-12815500D01*
X12646211Y-12795815D01*
X12600456Y-12743011D01*
X12589929Y-12704462D01*
X12586915Y-12675783D01*
X12569674Y-12511744D01*
X12539332Y-12418363D01*
X12511179Y-12331715D01*
X12416533Y-12167783D01*
X12289870Y-12027110D01*
X12136730Y-11915848D01*
X11963802Y-11838855D01*
X11778648Y-11799500D01*
X11778646Y-11799500D01*
X11589354Y-11799500D01*
X11589352Y-11799500D01*
X11404197Y-11838855D01*
X11231269Y-11915848D01*
X11078129Y-12027110D01*
X10951466Y-12167783D01*
X10856820Y-12331715D01*
X10798326Y-12511742D01*
X10778540Y-12700000D01*
X10398515Y-12700000D01*
X10384533Y-12675783D01*
X10257870Y-12535110D01*
X10104730Y-12423848D01*
X9931802Y-12346855D01*
X9746648Y-12307500D01*
X9746646Y-12307500D01*
X9557354Y-12307500D01*
X9557352Y-12307500D01*
X9372197Y-12346855D01*
X9199269Y-12423848D01*
X9046129Y-12535110D01*
X8919466Y-12675783D01*
X8824820Y-12839715D01*
X8766326Y-13019742D01*
X8766325Y-13019744D01*
X8766326Y-13019744D01*
X8759320Y-13086400D01*
X8732736Y-13151013D01*
X8675439Y-13190998D01*
X8605620Y-13193658D01*
X8545446Y-13158149D01*
X8514023Y-13095744D01*
X8512681Y-13086413D01*
X8505674Y-13019744D01*
X8458907Y-12875810D01*
X8447179Y-12839715D01*
X8352533Y-12675783D01*
X8225870Y-12535110D01*
X8072730Y-12423848D01*
X7899802Y-12346855D01*
X7714648Y-12307500D01*
X7714646Y-12307500D01*
X7525354Y-12307500D01*
X7525352Y-12307500D01*
X7340197Y-12346855D01*
X7167269Y-12423848D01*
X7014129Y-12535110D01*
X6887466Y-12675784D01*
X6840025Y-12757955D01*
X6789458Y-12806171D01*
X6720851Y-12819394D01*
X6706857Y-12817245D01*
X6698647Y-12815500D01*
X6698646Y-12815500D01*
X6509354Y-12815500D01*
X6509352Y-12815500D01*
X6324197Y-12854855D01*
X6151269Y-12931848D01*
X5998129Y-13043110D01*
X5871466Y-13183784D01*
X5824025Y-13265955D01*
X5773458Y-13314171D01*
X5704851Y-13327394D01*
X5690857Y-13325245D01*
X5682647Y-13323500D01*
X5682646Y-13323500D01*
X5493354Y-13323500D01*
X5493352Y-13323500D01*
X5308197Y-13362855D01*
X5135269Y-13439848D01*
X4982129Y-13551110D01*
X4855466Y-13691783D01*
X4760820Y-13855715D01*
X4702326Y-14035742D01*
X4682540Y-14224000D01*
X3794514Y-14224000D01*
X3875179Y-14084284D01*
X3916847Y-13956043D01*
X3933674Y-13904256D01*
X3953460Y-13716000D01*
X3933674Y-13527744D01*
X3883358Y-13372888D01*
X3875179Y-13347715D01*
X3780533Y-13183783D01*
X3653870Y-13043110D01*
X3500730Y-12931848D01*
X3327802Y-12854855D01*
X3142648Y-12815500D01*
X3142646Y-12815500D01*
X2953354Y-12815500D01*
X2953352Y-12815500D01*
X2768197Y-12854855D01*
X2595269Y-12931848D01*
X2442129Y-13043110D01*
X2315466Y-13183783D01*
X2220820Y-13347715D01*
X2162326Y-13527742D01*
X2142540Y-13716000D01*
X254000Y-13716000D01*
X254000Y-11176000D01*
X2396540Y-11176000D01*
X2416326Y-11364257D01*
X2474820Y-11544284D01*
X2569466Y-11708216D01*
X2696129Y-11848889D01*
X2849269Y-11960151D01*
X3022197Y-12037144D01*
X3207352Y-12076500D01*
X3207354Y-12076500D01*
X3396648Y-12076500D01*
X3520084Y-12050262D01*
X3581803Y-12037144D01*
X3754730Y-11960151D01*
X3815708Y-11915848D01*
X3907870Y-11848889D01*
X4034533Y-11708216D01*
X4129179Y-11544284D01*
X4129179Y-11544283D01*
X4187674Y-11364256D01*
X4207460Y-11176000D01*
X12556540Y-11176000D01*
X12576326Y-11364257D01*
X12634820Y-11544284D01*
X12729466Y-11708216D01*
X12856129Y-11848889D01*
X13009269Y-11960151D01*
X13182197Y-12037144D01*
X13367352Y-12076500D01*
X13367354Y-12076500D01*
X13556648Y-12076500D01*
X13680084Y-12050262D01*
X13741803Y-12037144D01*
X13914730Y-11960151D01*
X13975708Y-11915848D01*
X14067870Y-11848889D01*
X14194533Y-11708216D01*
X14289179Y-11544284D01*
X14289179Y-11544283D01*
X14347674Y-11364256D01*
X14367460Y-11176000D01*
X22716540Y-11176000D01*
X22736326Y-11364257D01*
X22794820Y-11544284D01*
X22889466Y-11708216D01*
X23016129Y-11848889D01*
X23169269Y-11960151D01*
X23342197Y-12037144D01*
X23527352Y-12076500D01*
X23527354Y-12076500D01*
X23716648Y-12076500D01*
X23840083Y-12050262D01*
X23901803Y-12037144D01*
X24074730Y-11960151D01*
X24135708Y-11915848D01*
X24227870Y-11848889D01*
X24354533Y-11708216D01*
X24449179Y-11544284D01*
X24449179Y-11544283D01*
X24507674Y-11364256D01*
X24527460Y-11176000D01*
X24527460Y-11175999D01*
X32876540Y-11175999D01*
X32896326Y-11364257D01*
X32954820Y-11544284D01*
X33049466Y-11708216D01*
X33176129Y-11848889D01*
X33329269Y-11960151D01*
X33502197Y-12037144D01*
X33687352Y-12076500D01*
X33687354Y-12076500D01*
X33876648Y-12076500D01*
X34000083Y-12050262D01*
X34061803Y-12037144D01*
X34234730Y-11960151D01*
X34295708Y-11915848D01*
X34387870Y-11848889D01*
X34514533Y-11708216D01*
X34609179Y-11544284D01*
X34609179Y-11544283D01*
X34667674Y-11364256D01*
X34687460Y-11176000D01*
X34667674Y-10987744D01*
X34609179Y-10807716D01*
X34609179Y-10807715D01*
X34514533Y-10643783D01*
X34387870Y-10503110D01*
X34234730Y-10391848D01*
X34061802Y-10314855D01*
X33876648Y-10275500D01*
X33876646Y-10275500D01*
X33687354Y-10275500D01*
X33687352Y-10275500D01*
X33502197Y-10314855D01*
X33329269Y-10391848D01*
X33176129Y-10503110D01*
X33049466Y-10643783D01*
X32954820Y-10807715D01*
X32896326Y-10987742D01*
X32876540Y-11175999D01*
X24527460Y-11175999D01*
X24507674Y-10987744D01*
X24449179Y-10807716D01*
X24449179Y-10807715D01*
X24354533Y-10643783D01*
X24227870Y-10503110D01*
X24074730Y-10391848D01*
X23901802Y-10314855D01*
X23716648Y-10275500D01*
X23716646Y-10275500D01*
X23527354Y-10275500D01*
X23527352Y-10275500D01*
X23342197Y-10314855D01*
X23169269Y-10391848D01*
X23016129Y-10503110D01*
X22889466Y-10643783D01*
X22794820Y-10807715D01*
X22736326Y-10987742D01*
X22716540Y-11176000D01*
X14367460Y-11176000D01*
X14347674Y-10987744D01*
X14289179Y-10807716D01*
X14289179Y-10807715D01*
X14194533Y-10643783D01*
X14067870Y-10503110D01*
X13914730Y-10391848D01*
X13741802Y-10314855D01*
X13556648Y-10275500D01*
X13556646Y-10275500D01*
X13367354Y-10275500D01*
X13367352Y-10275500D01*
X13182197Y-10314855D01*
X13009269Y-10391848D01*
X12856129Y-10503110D01*
X12729466Y-10643783D01*
X12634820Y-10807715D01*
X12576326Y-10987742D01*
X12556540Y-11176000D01*
X4207460Y-11176000D01*
X4187674Y-10987744D01*
X4129179Y-10807716D01*
X4129179Y-10807715D01*
X4034533Y-10643783D01*
X3907870Y-10503110D01*
X3754730Y-10391848D01*
X3581802Y-10314855D01*
X3396648Y-10275500D01*
X3396646Y-10275500D01*
X3207354Y-10275500D01*
X3207352Y-10275500D01*
X3022197Y-10314855D01*
X2849269Y-10391848D01*
X2696129Y-10503110D01*
X2569466Y-10643783D01*
X2474820Y-10807715D01*
X2416326Y-10987742D01*
X2396540Y-11176000D01*
X254000Y-11176000D01*
X254000Y-5974578D01*
X1189500Y-5974578D01*
X1189501Y-5977872D01*
X1195909Y-6037483D01*
X1246204Y-6172331D01*
X1332454Y-6287546D01*
X1447669Y-6373796D01*
X1582517Y-6424091D01*
X1642127Y-6430500D01*
X3437872Y-6430499D01*
X3497483Y-6424091D01*
X3632331Y-6373796D01*
X3747546Y-6287546D01*
X3833796Y-6172331D01*
X3883003Y-6040399D01*
X3924873Y-5984467D01*
X3990337Y-5960050D01*
X4058610Y-5974901D01*
X4086865Y-5996053D01*
X4208918Y-6118106D01*
X4402423Y-6253600D01*
X4616509Y-6353430D01*
X4830000Y-6410634D01*
X4830000Y-5515501D01*
X4937685Y-5564680D01*
X5044237Y-5580000D01*
X5115763Y-5580000D01*
X5222315Y-5564680D01*
X5330000Y-5515501D01*
X5330000Y-6410633D01*
X5543490Y-6353430D01*
X5757576Y-6253600D01*
X5951081Y-6118106D01*
X6118109Y-5951078D01*
X6248119Y-5765405D01*
X6302696Y-5721780D01*
X6372194Y-5714586D01*
X6434549Y-5746109D01*
X6451265Y-5765400D01*
X6581505Y-5951401D01*
X6748599Y-6118495D01*
X6942170Y-6254035D01*
X7156337Y-6353903D01*
X7384592Y-6415063D01*
X7620000Y-6435659D01*
X7855408Y-6415063D01*
X8083663Y-6353903D01*
X8297830Y-6254035D01*
X8491401Y-6118495D01*
X8658495Y-5951401D01*
X8788426Y-5765839D01*
X8843002Y-5722216D01*
X8912500Y-5715022D01*
X8974855Y-5746545D01*
X8991571Y-5765837D01*
X9121505Y-5951401D01*
X9288599Y-6118495D01*
X9482170Y-6254035D01*
X9696337Y-6353903D01*
X9924592Y-6415063D01*
X10160000Y-6435659D01*
X10395408Y-6415063D01*
X10623663Y-6353903D01*
X10837830Y-6254035D01*
X11031401Y-6118495D01*
X11198495Y-5951401D01*
X11328426Y-5765839D01*
X11383002Y-5722216D01*
X11452500Y-5715022D01*
X11514855Y-5746545D01*
X11531571Y-5765837D01*
X11661505Y-5951401D01*
X11828599Y-6118495D01*
X12022170Y-6254035D01*
X12236337Y-6353903D01*
X12464592Y-6415063D01*
X12700000Y-6435659D01*
X12935408Y-6415063D01*
X13163663Y-6353903D01*
X13377830Y-6254035D01*
X13571401Y-6118495D01*
X13738495Y-5951401D01*
X13868426Y-5765839D01*
X13923002Y-5722216D01*
X13992500Y-5715022D01*
X14054855Y-5746545D01*
X14071571Y-5765837D01*
X14201505Y-5951401D01*
X14368599Y-6118495D01*
X14562170Y-6254035D01*
X14776337Y-6353903D01*
X15004592Y-6415063D01*
X15240000Y-6435659D01*
X15475408Y-6415063D01*
X15703663Y-6353903D01*
X15917830Y-6254035D01*
X16111401Y-6118495D01*
X16278495Y-5951401D01*
X16408426Y-5765839D01*
X16463002Y-5722216D01*
X16532500Y-5715022D01*
X16594855Y-5746545D01*
X16611571Y-5765837D01*
X16741505Y-5951401D01*
X16908599Y-6118495D01*
X17102170Y-6254035D01*
X17316337Y-6353903D01*
X17544592Y-6415063D01*
X17780000Y-6435659D01*
X18015408Y-6415063D01*
X18243663Y-6353903D01*
X18457830Y-6254035D01*
X18651401Y-6118495D01*
X18818495Y-5951401D01*
X18948426Y-5765839D01*
X19003002Y-5722216D01*
X19072500Y-5715022D01*
X19134855Y-5746545D01*
X19151571Y-5765837D01*
X19281505Y-5951401D01*
X19448599Y-6118495D01*
X19642170Y-6254035D01*
X19856337Y-6353903D01*
X20084592Y-6415063D01*
X20320000Y-6435659D01*
X20555408Y-6415063D01*
X20783663Y-6353903D01*
X20997830Y-6254035D01*
X21191401Y-6118495D01*
X21358495Y-5951401D01*
X21488426Y-5765839D01*
X21543002Y-5722216D01*
X21612500Y-5715022D01*
X21674855Y-5746545D01*
X21691571Y-5765837D01*
X21821505Y-5951401D01*
X21988599Y-6118495D01*
X22182170Y-6254035D01*
X22396337Y-6353903D01*
X22624592Y-6415063D01*
X22860000Y-6435659D01*
X23095408Y-6415063D01*
X23323663Y-6353903D01*
X23537830Y-6254035D01*
X23731401Y-6118495D01*
X23898495Y-5951401D01*
X24028426Y-5765839D01*
X24083002Y-5722216D01*
X24152500Y-5715022D01*
X24214855Y-5746545D01*
X24231571Y-5765837D01*
X24361505Y-5951401D01*
X24528599Y-6118495D01*
X24722170Y-6254035D01*
X24936337Y-6353903D01*
X25164592Y-6415063D01*
X25400000Y-6435659D01*
X25635408Y-6415063D01*
X25863663Y-6353903D01*
X26077830Y-6254035D01*
X26271401Y-6118495D01*
X26438495Y-5951401D01*
X26568426Y-5765839D01*
X26623002Y-5722217D01*
X26692501Y-5715024D01*
X26754855Y-5746546D01*
X26771571Y-5765837D01*
X26901505Y-5951401D01*
X27068599Y-6118495D01*
X27262170Y-6254035D01*
X27476337Y-6353903D01*
X27688059Y-6410633D01*
X27704592Y-6415063D01*
X27939999Y-6435659D01*
X27939999Y-6435658D01*
X27940000Y-6435659D01*
X28175408Y-6415063D01*
X28403663Y-6353903D01*
X28617830Y-6254035D01*
X28811401Y-6118495D01*
X28978495Y-5951401D01*
X29108426Y-5765839D01*
X29163002Y-5722217D01*
X29232501Y-5715024D01*
X29294855Y-5746546D01*
X29311571Y-5765837D01*
X29441505Y-5951401D01*
X29608599Y-6118495D01*
X29802170Y-6254035D01*
X30016337Y-6353903D01*
X30244592Y-6415063D01*
X30480000Y-6435659D01*
X30715408Y-6415063D01*
X30943663Y-6353903D01*
X31157830Y-6254035D01*
X31351401Y-6118495D01*
X31518495Y-5951401D01*
X31648426Y-5765839D01*
X31703002Y-5722216D01*
X31772500Y-5715022D01*
X31834855Y-5746545D01*
X31851571Y-5765837D01*
X31981505Y-5951401D01*
X32148599Y-6118495D01*
X32342170Y-6254035D01*
X32556337Y-6353903D01*
X32784592Y-6415063D01*
X33020000Y-6435659D01*
X33255408Y-6415063D01*
X33483663Y-6353903D01*
X33697830Y-6254035D01*
X33891401Y-6118495D01*
X34058495Y-5951401D01*
X34188426Y-5765839D01*
X34243002Y-5722216D01*
X34312500Y-5715022D01*
X34374855Y-5746545D01*
X34391571Y-5765837D01*
X34521505Y-5951401D01*
X34688599Y-6118495D01*
X34882170Y-6254035D01*
X35096337Y-6353903D01*
X35324592Y-6415063D01*
X35560000Y-6435659D01*
X35795408Y-6415063D01*
X36023663Y-6353903D01*
X36237830Y-6254035D01*
X36431401Y-6118495D01*
X36598495Y-5951401D01*
X36728732Y-5765403D01*
X36783307Y-5721780D01*
X36852805Y-5714586D01*
X36915160Y-5746109D01*
X36931880Y-5765404D01*
X37061893Y-5951081D01*
X37228918Y-6118106D01*
X37422423Y-6253600D01*
X37636509Y-6353430D01*
X37850000Y-6410634D01*
X37850000Y-5515501D01*
X37957685Y-5564680D01*
X38064237Y-5580000D01*
X38135763Y-5580000D01*
X38242315Y-5564680D01*
X38350000Y-5515501D01*
X38350000Y-6410633D01*
X38563490Y-6353430D01*
X38777576Y-6253600D01*
X38971081Y-6118106D01*
X39138109Y-5951078D01*
X39268119Y-5765405D01*
X39322696Y-5721780D01*
X39392194Y-5714586D01*
X39454549Y-5746109D01*
X39471265Y-5765400D01*
X39601505Y-5951401D01*
X39768599Y-6118495D01*
X39962170Y-6254035D01*
X40176337Y-6353903D01*
X40404592Y-6415063D01*
X40640000Y-6435659D01*
X40875408Y-6415063D01*
X41103663Y-6353903D01*
X41317830Y-6254035D01*
X41511401Y-6118495D01*
X41678495Y-5951401D01*
X41808426Y-5765839D01*
X41863002Y-5722216D01*
X41932500Y-5715022D01*
X41994855Y-5746545D01*
X42011571Y-5765837D01*
X42141505Y-5951401D01*
X42308599Y-6118495D01*
X42502170Y-6254035D01*
X42716337Y-6353903D01*
X42944592Y-6415063D01*
X43180000Y-6435659D01*
X43415408Y-6415063D01*
X43643663Y-6353903D01*
X43857830Y-6254035D01*
X44051401Y-6118495D01*
X44218495Y-5951401D01*
X44348426Y-5765839D01*
X44403002Y-5722216D01*
X44472500Y-5715022D01*
X44534855Y-5746545D01*
X44551571Y-5765837D01*
X44681505Y-5951401D01*
X44848599Y-6118495D01*
X45042170Y-6254035D01*
X45256337Y-6353903D01*
X45484592Y-6415063D01*
X45720000Y-6435659D01*
X45955408Y-6415063D01*
X46183663Y-6353903D01*
X46397830Y-6254035D01*
X46591401Y-6118495D01*
X46758495Y-5951401D01*
X46888426Y-5765839D01*
X46943002Y-5722216D01*
X47012500Y-5715022D01*
X47074855Y-5746545D01*
X47091571Y-5765837D01*
X47221505Y-5951401D01*
X47388599Y-6118495D01*
X47582170Y-6254035D01*
X47796337Y-6353903D01*
X48008059Y-6410633D01*
X48024592Y-6415063D01*
X48259999Y-6435659D01*
X48259999Y-6435658D01*
X48260000Y-6435659D01*
X48495408Y-6415063D01*
X48723663Y-6353903D01*
X48937830Y-6254035D01*
X49131401Y-6118495D01*
X49298495Y-5951401D01*
X49428426Y-5765839D01*
X49483002Y-5722216D01*
X49552500Y-5715022D01*
X49614855Y-5746545D01*
X49631571Y-5765837D01*
X49761505Y-5951401D01*
X49928599Y-6118495D01*
X50122170Y-6254035D01*
X50336337Y-6353903D01*
X50564592Y-6415063D01*
X50800000Y-6435659D01*
X51035408Y-6415063D01*
X51263663Y-6353903D01*
X51477830Y-6254035D01*
X51671401Y-6118495D01*
X51838495Y-5951401D01*
X51974035Y-5757830D01*
X52073903Y-5543663D01*
X52135063Y-5315408D01*
X52155659Y-5080000D01*
X52135063Y-4844592D01*
X52073903Y-4616337D01*
X51974035Y-4402171D01*
X51838495Y-4208599D01*
X51671401Y-4041505D01*
X51485839Y-3911573D01*
X51442217Y-3856998D01*
X51435024Y-3787499D01*
X51466546Y-3725145D01*
X51485837Y-3708428D01*
X51671401Y-3578495D01*
X51838495Y-3411401D01*
X51974035Y-3217830D01*
X52073903Y-3003663D01*
X52135063Y-2775408D01*
X52155659Y-2540000D01*
X52135063Y-2304592D01*
X52073903Y-2076337D01*
X51974035Y-1862171D01*
X51838495Y-1668599D01*
X51671401Y-1501505D01*
X51477830Y-1365965D01*
X51263663Y-1266097D01*
X51202502Y-1249709D01*
X51035407Y-1204936D01*
X50800000Y-1184340D01*
X50564592Y-1204936D01*
X50336336Y-1266097D01*
X50122170Y-1365965D01*
X49928598Y-1501505D01*
X49761508Y-1668595D01*
X49631574Y-1854160D01*
X49576997Y-1897785D01*
X49507498Y-1904977D01*
X49445144Y-1873455D01*
X49428429Y-1854164D01*
X49298495Y-1668599D01*
X49131401Y-1501505D01*
X48937830Y-1365965D01*
X48723663Y-1266097D01*
X48662502Y-1249709D01*
X48495407Y-1204936D01*
X48260000Y-1184340D01*
X48024592Y-1204936D01*
X47796336Y-1266097D01*
X47582170Y-1365965D01*
X47388598Y-1501505D01*
X47221508Y-1668595D01*
X47091574Y-1854160D01*
X47036997Y-1897785D01*
X46967498Y-1904977D01*
X46905144Y-1873455D01*
X46888429Y-1854164D01*
X46758495Y-1668599D01*
X46591401Y-1501505D01*
X46397830Y-1365965D01*
X46183663Y-1266097D01*
X46122501Y-1249709D01*
X45955407Y-1204936D01*
X45720000Y-1184340D01*
X45484592Y-1204936D01*
X45256336Y-1266097D01*
X45042170Y-1365965D01*
X44848598Y-1501505D01*
X44681508Y-1668595D01*
X44551574Y-1854160D01*
X44496997Y-1897785D01*
X44427498Y-1904977D01*
X44365144Y-1873455D01*
X44348429Y-1854164D01*
X44218495Y-1668599D01*
X44051401Y-1501505D01*
X43857830Y-1365965D01*
X43643663Y-1266097D01*
X43582501Y-1249709D01*
X43415407Y-1204936D01*
X43180000Y-1184340D01*
X42944592Y-1204936D01*
X42716336Y-1266097D01*
X42502170Y-1365965D01*
X42308598Y-1501505D01*
X42141508Y-1668595D01*
X42011574Y-1854160D01*
X41956997Y-1897785D01*
X41887498Y-1904977D01*
X41825144Y-1873455D01*
X41808429Y-1854164D01*
X41678495Y-1668599D01*
X41511401Y-1501505D01*
X41317830Y-1365965D01*
X41103663Y-1266097D01*
X41042502Y-1249709D01*
X40875407Y-1204936D01*
X40640000Y-1184340D01*
X40404592Y-1204936D01*
X40176336Y-1266097D01*
X39962170Y-1365965D01*
X39768598Y-1501505D01*
X39601508Y-1668595D01*
X39471269Y-1854596D01*
X39416692Y-1898220D01*
X39347193Y-1905413D01*
X39284839Y-1873891D01*
X39268119Y-1854595D01*
X39138109Y-1668921D01*
X38971081Y-1501893D01*
X38777576Y-1366399D01*
X38563492Y-1266569D01*
X38350000Y-1209364D01*
X38350000Y-2104498D01*
X38242315Y-2055320D01*
X38135763Y-2040000D01*
X38064237Y-2040000D01*
X37957685Y-2055320D01*
X37850000Y-2104498D01*
X37850000Y-1209364D01*
X37849999Y-1209364D01*
X37636507Y-1266569D01*
X37422421Y-1366400D01*
X37228921Y-1501890D01*
X37061893Y-1668918D01*
X36931880Y-1854596D01*
X36877303Y-1898220D01*
X36807804Y-1905413D01*
X36745450Y-1873891D01*
X36728730Y-1854595D01*
X36598495Y-1668599D01*
X36431401Y-1501505D01*
X36237830Y-1365965D01*
X36023663Y-1266097D01*
X35962502Y-1249709D01*
X35795407Y-1204936D01*
X35560000Y-1184340D01*
X35324592Y-1204936D01*
X35096336Y-1266097D01*
X34882170Y-1365965D01*
X34688598Y-1501505D01*
X34521505Y-1668598D01*
X34391575Y-1854159D01*
X34336998Y-1897784D01*
X34267500Y-1904978D01*
X34205145Y-1873455D01*
X34188425Y-1854159D01*
X34058494Y-1668598D01*
X33891404Y-1501508D01*
X33891401Y-1501505D01*
X33697830Y-1365965D01*
X33483663Y-1266097D01*
X33422501Y-1249709D01*
X33255407Y-1204936D01*
X33020000Y-1184340D01*
X32784592Y-1204936D01*
X32556336Y-1266097D01*
X32342170Y-1365965D01*
X32148598Y-1501505D01*
X31981505Y-1668598D01*
X31851575Y-1854159D01*
X31796998Y-1897784D01*
X31727500Y-1904978D01*
X31665145Y-1873455D01*
X31648425Y-1854159D01*
X31518494Y-1668598D01*
X31351404Y-1501508D01*
X31351401Y-1501505D01*
X31157830Y-1365965D01*
X30943663Y-1266097D01*
X30882502Y-1249709D01*
X30715407Y-1204936D01*
X30480000Y-1184340D01*
X30244592Y-1204936D01*
X30016336Y-1266097D01*
X29802170Y-1365965D01*
X29608598Y-1501505D01*
X29441505Y-1668598D01*
X29311575Y-1854159D01*
X29256998Y-1897784D01*
X29187500Y-1904978D01*
X29125145Y-1873455D01*
X29108425Y-1854159D01*
X28978494Y-1668598D01*
X28811404Y-1501508D01*
X28811401Y-1501505D01*
X28617830Y-1365965D01*
X28403663Y-1266097D01*
X28342501Y-1249709D01*
X28175407Y-1204936D01*
X27940000Y-1184340D01*
X27704592Y-1204936D01*
X27476336Y-1266097D01*
X27262170Y-1365965D01*
X27068598Y-1501505D01*
X26901505Y-1668598D01*
X26771575Y-1854159D01*
X26716998Y-1897784D01*
X26647500Y-1904978D01*
X26585145Y-1873455D01*
X26568425Y-1854159D01*
X26438494Y-1668598D01*
X26271404Y-1501508D01*
X26271404Y-1501507D01*
X26271401Y-1501505D01*
X26077830Y-1365965D01*
X25863663Y-1266097D01*
X25802502Y-1249709D01*
X25635407Y-1204936D01*
X25400000Y-1184340D01*
X25164592Y-1204936D01*
X24936336Y-1266097D01*
X24722170Y-1365965D01*
X24528598Y-1501505D01*
X24361505Y-1668598D01*
X24231575Y-1854159D01*
X24176998Y-1897784D01*
X24107500Y-1904978D01*
X24045145Y-1873455D01*
X24028425Y-1854159D01*
X23898494Y-1668598D01*
X23731404Y-1501508D01*
X23731403Y-1501507D01*
X23731401Y-1501505D01*
X23537830Y-1365965D01*
X23323663Y-1266097D01*
X23262502Y-1249709D01*
X23095407Y-1204936D01*
X22860000Y-1184340D01*
X22624592Y-1204936D01*
X22396336Y-1266097D01*
X22182170Y-1365965D01*
X21988598Y-1501505D01*
X21821505Y-1668598D01*
X21691575Y-1854159D01*
X21636998Y-1897784D01*
X21567500Y-1904978D01*
X21505145Y-1873455D01*
X21488425Y-1854159D01*
X21358494Y-1668598D01*
X21191404Y-1501508D01*
X21191404Y-1501507D01*
X21191401Y-1501505D01*
X20997830Y-1365965D01*
X20783663Y-1266097D01*
X20722502Y-1249709D01*
X20555407Y-1204936D01*
X20320000Y-1184340D01*
X20084592Y-1204936D01*
X19856336Y-1266097D01*
X19642170Y-1365965D01*
X19448598Y-1501505D01*
X19281505Y-1668598D01*
X19151575Y-1854159D01*
X19096998Y-1897784D01*
X19027500Y-1904978D01*
X18965145Y-1873455D01*
X18948425Y-1854159D01*
X18818494Y-1668598D01*
X18651404Y-1501508D01*
X18651404Y-1501507D01*
X18651401Y-1501505D01*
X18457830Y-1365965D01*
X18243663Y-1266097D01*
X18182502Y-1249709D01*
X18015407Y-1204936D01*
X17780000Y-1184340D01*
X17544592Y-1204936D01*
X17316336Y-1266097D01*
X17102170Y-1365965D01*
X16908598Y-1501505D01*
X16741505Y-1668598D01*
X16611575Y-1854159D01*
X16556998Y-1897784D01*
X16487500Y-1904978D01*
X16425145Y-1873455D01*
X16408425Y-1854159D01*
X16278494Y-1668598D01*
X16111404Y-1501508D01*
X16111404Y-1501507D01*
X16111401Y-1501505D01*
X15917830Y-1365965D01*
X15703663Y-1266097D01*
X15642502Y-1249709D01*
X15475407Y-1204936D01*
X15240000Y-1184340D01*
X15004592Y-1204936D01*
X14776336Y-1266097D01*
X14562170Y-1365965D01*
X14368598Y-1501505D01*
X14201505Y-1668598D01*
X14071575Y-1854159D01*
X14016998Y-1897784D01*
X13947500Y-1904978D01*
X13885145Y-1873455D01*
X13868425Y-1854159D01*
X13738494Y-1668598D01*
X13571404Y-1501508D01*
X13571401Y-1501505D01*
X13377830Y-1365965D01*
X13163663Y-1266097D01*
X13102502Y-1249709D01*
X12935407Y-1204936D01*
X12700000Y-1184340D01*
X12464592Y-1204936D01*
X12236336Y-1266097D01*
X12022170Y-1365965D01*
X11828598Y-1501505D01*
X11661505Y-1668598D01*
X11531575Y-1854159D01*
X11476998Y-1897784D01*
X11407500Y-1904978D01*
X11345145Y-1873455D01*
X11328425Y-1854159D01*
X11198494Y-1668598D01*
X11031404Y-1501508D01*
X11031401Y-1501505D01*
X10837830Y-1365965D01*
X10623663Y-1266097D01*
X10562502Y-1249709D01*
X10395407Y-1204936D01*
X10160000Y-1184340D01*
X9924592Y-1204936D01*
X9696336Y-1266097D01*
X9482170Y-1365965D01*
X9288598Y-1501505D01*
X9121505Y-1668598D01*
X8991575Y-1854159D01*
X8936998Y-1897784D01*
X8867500Y-1904978D01*
X8805145Y-1873455D01*
X8788425Y-1854159D01*
X8658494Y-1668598D01*
X8491404Y-1501508D01*
X8491401Y-1501505D01*
X8297830Y-1365965D01*
X8083663Y-1266097D01*
X8022501Y-1249709D01*
X7855407Y-1204936D01*
X7620000Y-1184340D01*
X7384592Y-1204936D01*
X7156336Y-1266097D01*
X6942170Y-1365965D01*
X6748598Y-1501505D01*
X6581508Y-1668595D01*
X6451269Y-1854596D01*
X6396692Y-1898220D01*
X6327193Y-1905413D01*
X6264839Y-1873891D01*
X6248119Y-1854595D01*
X6118109Y-1668921D01*
X5951081Y-1501893D01*
X5757576Y-1366399D01*
X5543492Y-1266569D01*
X5330000Y-1209364D01*
X5330000Y-2104498D01*
X5222315Y-2055320D01*
X5115763Y-2040000D01*
X5044237Y-2040000D01*
X4937685Y-2055320D01*
X4830000Y-2104498D01*
X4830000Y-1209364D01*
X4829999Y-1209364D01*
X4616507Y-1266569D01*
X4402421Y-1366400D01*
X4208924Y-1501888D01*
X4086865Y-1623947D01*
X4025542Y-1657431D01*
X3955850Y-1652447D01*
X3899917Y-1610575D01*
X3883002Y-1579598D01*
X3854020Y-1501893D01*
X3833796Y-1447669D01*
X3747546Y-1332454D01*
X3632331Y-1246204D01*
X3497483Y-1195909D01*
X3437873Y-1189500D01*
X3434550Y-1189500D01*
X1645439Y-1189500D01*
X1645420Y-1189500D01*
X1642128Y-1189501D01*
X1638848Y-1189853D01*
X1638840Y-1189854D01*
X1582515Y-1195909D01*
X1447669Y-1246204D01*
X1332454Y-1332454D01*
X1246204Y-1447668D01*
X1195909Y-1582516D01*
X1191455Y-1623947D01*
X1189500Y-1642127D01*
X1189500Y-1645448D01*
X1189500Y-1645449D01*
X1189500Y-3434560D01*
X1189500Y-3434578D01*
X1189501Y-3437872D01*
X1189853Y-3441152D01*
X1189854Y-3441159D01*
X1195909Y-3497484D01*
X1246204Y-3632332D01*
X1323577Y-3735690D01*
X1347994Y-3801154D01*
X1333142Y-3869427D01*
X1323577Y-3884310D01*
X1246205Y-3987666D01*
X1195909Y-4122516D01*
X1191455Y-4163947D01*
X1189500Y-4182127D01*
X1189500Y-4185448D01*
X1189500Y-4185449D01*
X1189500Y-5974560D01*
X1189500Y-5974578D01*
X254000Y-5974578D01*
X254000Y-1321361D01*
X273685Y-1254322D01*
X290314Y-1233685D01*
X1233681Y-290319D01*
X1295004Y-256834D01*
X1321362Y-254000D01*
X52262000Y-254000D01*
X52329039Y-273685D01*
G37*
%TD.AperFunction*%
%TD*%
M02*
