%TF.GenerationSoftware,KiCad,Pcbnew,7.0.2*%
%TF.CreationDate,2023-07-04T13:12:25+09:00*%
%TF.ProjectId,TangNano9K5V,54616e67-4e61-46e6-9f39-4b35562e6b69,rev?*%
%TF.SameCoordinates,Original*%
%TF.FileFunction,Soldermask,Bot*%
%TF.FilePolarity,Negative*%
%FSLAX46Y46*%
G04 Gerber Fmt 4.6, Leading zero omitted, Abs format (unit mm)*
G04 Created by KiCad (PCBNEW 7.0.2) date 2023-07-04 13:12:25*
%MOMM*%
%LPD*%
G01*
G04 APERTURE LIST*
%ADD10R,1.700000X1.700000*%
%ADD11O,1.700000X1.700000*%
G04 APERTURE END LIST*
D10*
%TO.C,J2*%
X2540000Y-2540000D03*
D11*
X5080000Y-2540000D03*
X7620000Y-2540000D03*
X10160000Y-2540000D03*
X12700000Y-2540000D03*
X15240000Y-2540000D03*
X17780000Y-2540000D03*
X20320000Y-2540000D03*
X22860000Y-2540000D03*
X25400000Y-2540000D03*
X27940000Y-2540000D03*
X30480000Y-2540000D03*
X33020000Y-2540000D03*
X35560000Y-2540000D03*
X38100000Y-2540000D03*
X40640000Y-2540000D03*
X43180000Y-2540000D03*
X45720000Y-2540000D03*
X48260000Y-2540000D03*
X50800000Y-2540000D03*
X53340000Y-2540000D03*
X55880000Y-2540000D03*
X58420000Y-2540000D03*
X60960000Y-2540000D03*
%TD*%
D10*
%TO.C,J1*%
X2540000Y-25400000D03*
D11*
X5080000Y-25400000D03*
X7620000Y-25400000D03*
X10160000Y-25400000D03*
X12700000Y-25400000D03*
X15240000Y-25400000D03*
X17780000Y-25400000D03*
X20320000Y-25400000D03*
X22860000Y-25400000D03*
X25400000Y-25400000D03*
X27940000Y-25400000D03*
X30480000Y-25400000D03*
X33020000Y-25400000D03*
X35560000Y-25400000D03*
X38100000Y-25400000D03*
X40640000Y-25400000D03*
X43180000Y-25400000D03*
X45720000Y-25400000D03*
X48260000Y-25400000D03*
X50800000Y-25400000D03*
X53340000Y-25400000D03*
X55880000Y-25400000D03*
X58420000Y-25400000D03*
X60960000Y-25400000D03*
%TD*%
D10*
%TO.C,J4*%
X2540000Y-6350000D03*
D11*
X5080000Y-6350000D03*
X7620000Y-6350000D03*
X10160000Y-6350000D03*
X12700000Y-6350000D03*
X15240000Y-6350000D03*
X17780000Y-6350000D03*
X20320000Y-6350000D03*
X22860000Y-6350000D03*
X25400000Y-6350000D03*
X27940000Y-6350000D03*
X30480000Y-6350000D03*
X33020000Y-6350000D03*
X35560000Y-6350000D03*
X38100000Y-6350000D03*
X40640000Y-6350000D03*
X43180000Y-6350000D03*
X45720000Y-6350000D03*
X48260000Y-6350000D03*
X50800000Y-6350000D03*
X53340000Y-6350000D03*
X55880000Y-6350000D03*
X58420000Y-6350000D03*
X60960000Y-6350000D03*
%TD*%
D10*
%TO.C,J3*%
X2540000Y-21590000D03*
D11*
X5080000Y-21590000D03*
X7620000Y-21590000D03*
X10160000Y-21590000D03*
X12700000Y-21590000D03*
X15240000Y-21590000D03*
X17780000Y-21590000D03*
X20320000Y-21590000D03*
X22860000Y-21590000D03*
X25400000Y-21590000D03*
X27940000Y-21590000D03*
X30480000Y-21590000D03*
X33020000Y-21590000D03*
X35560000Y-21590000D03*
X38100000Y-21590000D03*
X40640000Y-21590000D03*
X43180000Y-21590000D03*
X45720000Y-21590000D03*
X48260000Y-21590000D03*
X50800000Y-21590000D03*
X53340000Y-21590000D03*
X55880000Y-21590000D03*
X58420000Y-21590000D03*
X60960000Y-21590000D03*
%TD*%
M02*
